<svg width="28" height="28" viewBox="0 0 28 28" fill="none" xmlns="http://www.w3.org/2000/svg">
<path d="M23.4905 9C23.1551 9 22.8198 9 22.4844 9C22.4652 9.0099 22.4468 9.02652 22.4267 9.02878C21.5709 9.12614 20.7923 9.4263 20.0837 9.92149C20.0361 9.95475 19.9183 9.93606 19.862 9.89795C19.3616 9.55923 18.8243 9.30496 18.2405 9.1567C17.9953 9.09447 17.7453 9.05166 17.4976 9C17.1622 9 16.8269 9 16.4915 9C16.4723 9.0099 16.4538 9.02652 16.4338 9.02878C15.5775 9.12538 14.8012 9.43176 14.0906 9.92171C14.0422 9.95506 13.9244 9.93717 13.8682 9.89897C13.4115 9.58895 12.9236 9.34648 12.3942 9.19814C12.102 9.11632 11.8015 9.06507 11.5047 9C11.1693 9 10.8339 9 10.4986 9C10.4795 9.01013 10.4613 9.02714 10.4414 9.02945C9.58569 9.12738 8.80859 9.43243 8.09717 9.92091C8.04853 9.95431 7.93116 9.93743 7.87517 9.89955C7.41816 9.59019 6.93057 9.34688 6.40115 9.19863C6.10896 9.11681 5.8085 9.06525 5.51176 9.00004C5.17637 9.00004 4.84104 9.00004 4.50565 9.00004C4.45755 9.01435 4.41032 9.03584 4.36125 9.04193C2.36879 9.28888 0.705635 10.7372 0.174894 12.6965C0.102472 12.9639 0.0576515 13.2389 8.39233e-05 13.5104C8.39233e-05 13.8495 8.39233e-05 14.1885 8.39233e-05 14.5275C0.0139275 14.56 0.0360527 14.5914 0.0404778 14.6251C0.523113 18.3196 4.70675 20.2299 7.81528 18.1272C7.9631 18.0272 8.0502 18.0305 8.19241 18.1269C9.9212 19.2986 12.1422 19.2903 13.8421 18.1052C13.9715 18.0149 14.0478 18.0343 14.1646 18.1132C15.9147 19.2978 18.0979 19.2955 19.8345 18.1068C19.9461 18.0305 20.0198 18.0167 20.1388 18.0982C21.2008 18.8254 22.3685 19.1026 23.6456 18.9532C25.9401 18.6849 27.827 16.7012 27.9879 14.368C28.1449 12.0926 26.7559 9.98762 24.6102 9.27253C24.2469 9.15141 23.8642 9.08936 23.4905 9ZM20.7986 17.252C21.5836 16.3141 22.0005 15.2341 22.0013 13.9999C22.0021 12.7599 21.5805 11.6752 20.7923 10.7337C22.2355 9.70421 24.573 9.76896 26.0111 11.4454C27.3538 13.0104 27.2574 15.3236 25.7918 16.7848C24.282 18.2902 22.0559 18.1938 20.7986 17.252ZM7.19792 17.2635C5.78339 18.2823 3.41998 18.2454 1.97063 16.5317C0.611965 14.9254 0.750151 12.5877 2.28568 11.1322C3.81955 9.67831 6.02138 9.84149 7.18784 10.7418C5.58484 12.5749 5.56438 15.3602 7.19792 17.2635ZM14.8252 17.2737C16.4513 15.0714 16.4308 12.8955 14.8185 10.7177C16.1204 9.77398 18.0755 9.88671 19.1798 10.74C17.6517 12.5086 17.5145 15.3058 19.1766 17.2592C18.0003 18.1422 16.0763 18.1887 14.8252 17.2737ZM13.192 10.7365C11.7144 12.3929 11.4307 15.2159 13.1805 17.2606C11.9131 18.22 9.87244 18.1158 8.81954 17.2442C10.3455 15.5077 10.5201 12.7352 8.81617 10.7351C9.94337 9.85846 11.9128 9.79966 13.192 10.7365ZM19.9969 11.443C21.4343 13.0509 21.1192 15.4314 19.9776 16.54C18.6067 15.021 18.801 12.7282 19.9969 11.443ZM8.00774 11.4433C9.39677 12.9978 9.18336 15.3298 7.99697 16.5417C6.70796 15.1434 6.72382 12.8287 8.00774 11.4433ZM13.991 11.4448C15.3657 12.9087 15.2103 15.3281 13.9845 16.5413C12.719 15.1959 12.7167 12.8377 13.991 11.4448Z" fill="#18232E"/>
</svg>
