<svg width="28" height="28" viewBox="0 0 28 28" fill="none" xmlns="http://www.w3.org/2000/svg">
<g clip-path="url(#clip0_630_14639)">
<path d="M7.93848 13.7918C12.0396 14.097 16.0562 14.0934 20.0937 13.7938C20.0082 14.8797 19.921 15.8987 19.8519 16.9188C19.8319 17.2131 19.6998 17.36 19.4072 17.4022C17.3033 17.7052 15.2057 18.1409 13.065 17.9556C11.5564 17.8252 10.0567 17.5915 8.55675 17.379C8.42466 17.3603 8.23042 17.1656 8.21681 17.0373C8.10618 15.9879 8.03154 14.9349 7.93848 13.7918Z" fill="#18232E"/>
<path d="M20.1719 13.3359C16.0387 13.7124 12.0015 13.6998 7.87695 13.3386C7.87695 12.2347 7.87695 11.1272 7.87695 10C11.9594 10 16.0765 10 20.1719 10C20.1719 11.1378 20.1719 12.2204 20.1719 13.3359Z" fill="#18232E"/>
<path d="M27.9863 12.7973C25.5165 12.9793 23.0861 13.1584 20.665 13.3369C20.665 12.2164 20.665 11.151 20.665 10.0232C20.8941 10.0232 21.0581 10.0199 21.2218 10.0237C22.8199 10.0612 24.418 10.0954 26.0158 10.1415C26.3592 10.1514 26.7037 10.1901 27.0433 10.243C27.5887 10.328 27.9265 10.6353 27.9759 11.1766C28.0239 11.703 27.9863 12.237 27.9863 12.7973Z" fill="#18232E"/>
<path d="M0.0138409 12.795C0.0138409 12.2649 -0.0227223 11.7625 0.0230054 11.2674C0.0817711 10.6307 0.458741 10.2757 1.12803 10.2308C2.36249 10.1482 3.59912 10.0895 4.83585 10.0486C5.64732 10.0217 6.4605 10.0435 7.31062 10.0435C7.35862 11.1411 7.40595 12.2216 7.45517 13.347C4.9719 13.1628 2.54511 12.9828 0.0138409 12.795Z" fill="#18232E"/>
<path d="M20.248 17.254C20.344 16.1381 20.4223 15.1034 20.5362 14.0725C20.5497 13.9501 20.7511 13.7612 20.8784 13.7504C22.2501 13.6343 23.6246 13.5507 24.998 13.4522C25.9624 13.3829 26.9262 13.3042 27.9132 13.2278C27.8494 14.5543 27.2332 15.51 25.9876 15.9082C24.6438 16.3379 23.25 16.6203 21.8737 16.9495C21.3612 17.0721 20.8363 17.1455 20.248 17.254Z" fill="#18232E"/>
<path d="M0.125 13.2349C2.17793 13.3883 4.21857 13.5406 6.25922 13.6933C6.30599 13.6969 6.35257 13.7042 6.39924 13.7089C6.75268 13.7445 7.21005 13.6637 7.42849 13.8503C7.61971 14.0138 7.55254 14.4769 7.58173 14.8091C7.65099 15.5981 7.70975 16.3879 7.77901 17.2559C6.9441 17.0947 6.15274 16.9591 5.36989 16.7865C4.42756 16.5789 3.48249 16.3729 2.5565 16.1067C1.12515 15.6952 0.187167 14.8372 0.125 13.2349Z" fill="#18232E"/>
</g>
<defs>
<clipPath id="clip0_630_14639">
<rect width="28" height="28" fill="white"/>
</clipPath>
</defs>
</svg>
