<svg width="28" height="28" viewBox="0 0 28 28" fill="none" xmlns="http://www.w3.org/2000/svg">
<path d="M12.9732 5H13.8609C15.2749 5.02713 16.674 5.10544 18.0701 5.31588C18.8427 5.43254 19.5376 5.58785 20.1547 5.78181C20.3044 5.82906 20.4562 5.88419 20.6102 5.94719C20.6233 5.95273 20.6277 5.96235 20.6233 5.97606C20.5988 6.04898 20.5705 6.12102 20.5384 6.19219C20.1145 7.13938 19.4915 7.99775 18.7836 8.77519C17.9077 9.73681 16.8678 10.6214 15.7417 11.3512C15.191 11.7082 14.6503 12.0468 14.1194 12.3671C13.4784 12.7538 12.8055 13.0779 12.1008 13.3392C11.7371 13.4739 11.3769 13.6029 11.0202 13.7259C10.7691 13.8126 10.5092 13.889 10.2406 13.9552C8.58798 14.3621 6.82354 14.6572 4.94725 14.8407C3.34804 14.997 1.76458 15.0669 0.196875 15.0503C0.190809 15.0503 0.184922 15.0482 0.180216 15.0444C0.17551 15.0405 0.172276 15.0352 0.171062 15.0293C0.0762708 14.6075 0.01925 14.1793 0 13.7448V13.3738C0.007 13.001 0.0436042 12.632 0.109812 12.2669C0.112146 12.2526 0.120458 12.245 0.13475 12.2441C2.68683 12.0592 5.23746 11.7833 7.78662 11.4164C8.07158 11.3753 8.34867 11.3207 8.61788 11.2528C11.1094 10.6241 13.5712 9.64056 15.5999 8.02881C16.1401 7.59948 16.6219 7.13281 17.0454 6.62881C17.2018 6.44215 17.3451 6.246 17.4755 6.04038C17.4769 6.03824 17.4777 6.03583 17.478 6.03333C17.4783 6.03083 17.4781 6.0283 17.4773 6.02594C17.4765 6.02358 17.4751 6.02144 17.4734 6.0197C17.4716 6.01795 17.4695 6.01665 17.4672 6.01587C16.7414 5.76519 15.9438 5.66719 15.1778 5.61731C14.1552 5.5511 13.1582 5.55315 12.187 5.62344C10.9728 5.71181 9.78687 5.94748 8.62925 6.33044C6.32931 7.09169 4.09981 8.64088 3.05681 10.8524C3.04952 10.8682 3.03712 10.8761 3.01962 10.8761L0.8155 10.8765C0.812501 10.8765 0.809565 10.8756 0.806988 10.8741C0.80441 10.8726 0.802282 10.8704 0.800818 10.8678C0.799354 10.8652 0.798606 10.8622 0.798649 10.8592C0.798692 10.8562 0.799524 10.8533 0.801062 10.8507C1.23156 10.1539 1.75933 9.50771 2.38437 8.91213C4.37806 7.01206 6.97506 5.83081 9.69019 5.33469C10.774 5.13665 11.8684 5.02508 12.9732 5Z" fill="#18232E"/>
<path d="M5.69275 18.9453C5.66942 18.9476 5.66694 18.9561 5.68531 18.9707C6.01548 19.2285 6.37598 19.4652 6.76681 19.6808C8.05481 20.3913 9.47581 20.8484 10.9266 21.0895C12.3613 21.3278 13.8001 21.3755 15.2429 21.2326C17.6409 20.995 19.8905 20.1493 21.8772 18.7493C22.9539 17.9903 23.8647 16.8641 24.3639 15.6614C24.7857 14.6453 24.8967 13.5668 24.6969 12.4261C24.3316 10.3397 22.9307 8.59931 21.1286 7.53838C21.1152 7.5305 21.1123 7.51985 21.1199 7.50644C21.3115 7.16723 21.4734 6.82073 21.6055 6.46694C21.6113 6.45177 21.6218 6.44667 21.637 6.45163C23.3358 7.01075 24.8067 7.96581 26.0636 9.21444C26.7168 9.86325 27.2558 10.6219 27.5804 11.4706C27.8718 12.233 27.9952 13.0585 27.9506 13.9469C27.888 15.1946 27.2738 16.3466 26.4583 17.3305C26.0269 17.8514 25.5779 18.2929 25.1112 18.6548C23.7751 19.6917 22.1891 20.5177 20.5888 21.1599C18.9338 21.8238 17.2091 22.1962 15.4144 22.2773C14.5076 22.3181 13.5874 22.2999 12.6538 22.2226C11.6274 22.1375 10.6181 22.0015 9.62588 21.8149C7.42 21.4006 5.26444 20.5807 3.444 19.3194C2.506 18.6693 1.57106 17.831 0.995313 16.8637C0.918604 16.7351 0.855604 16.5986 0.806313 16.4542C0.805825 16.4527 0.805691 16.4512 0.805922 16.4497C0.806154 16.4482 0.806743 16.4467 0.807642 16.4455C0.80854 16.4442 0.809722 16.4432 0.811089 16.4425C0.812456 16.4418 0.813968 16.4415 0.8155 16.4415C3.95456 16.4485 7.10413 16.0534 10.094 15.248C12.733 14.5371 15.3672 13.4105 17.4357 11.5835C17.6871 11.3613 17.9339 11.1383 18.1759 10.9146C18.1902 10.9014 18.1877 10.8949 18.1685 10.8949H17.7507C17.7271 10.8952 17.7215 10.8853 17.7341 10.8651L18.2332 10.0868C18.2432 10.0714 18.2573 10.0636 18.2757 10.0636H21.7127C21.7357 10.0636 21.7432 10.0744 21.735 10.096C21.5154 10.6761 21.1396 11.258 20.7379 11.7782C19.2421 13.7168 17.1522 15.1946 15.0067 16.3418C13.4454 17.1765 11.8603 17.7979 10.2515 18.2059C9.30242 18.4466 8.35027 18.6274 7.39506 18.7484C6.82748 18.8202 6.26004 18.8858 5.69275 18.9453Z" fill="#18232E"/>
</svg>
