<svg width="28" height="28" viewBox="0 0 28 28" fill="none" xmlns="http://www.w3.org/2000/svg">
<path d="M0 9.04917H0.282227C2.75639 9.04917 5.23006 9.05359 7.70372 9.04425C7.91515 9.04425 8.02037 9.11112 8.11871 9.29009C8.78838 10.5193 9.46576 11.7441 10.1508 12.9645C10.3128 13.2489 10.4964 13.5205 10.7001 13.7767C11.3447 14.5934 12.2498 14.8289 13.2308 14.8584C13.9349 14.8791 14.6394 14.8653 15.345 14.881C15.4389 14.881 15.5761 14.941 15.6174 15.0153C16.5147 16.6236 17.4007 18.2383 18.2887 19.852C18.2953 19.8738 18.2996 19.8962 18.3015 19.9189C18.266 19.9278 18.2298 19.9337 18.1933 19.9366C15.5967 19.9336 13.0002 19.9366 10.4036 19.9233C7.73519 19.909 5.67651 18.7285 4.21669 16.5346C3.49293 15.4465 2.87636 14.2856 2.23471 13.142C1.50702 11.8547 0.806856 10.5488 0.0953869 9.24879C0.0688359 9.20012 0.0491685 9.14751 0 9.04917Z" fill="black"/>
<path d="M13.4024 9.00492H13.691C16.3687 9.00492 19.0466 9.00328 21.7246 9C21.9247 9 22.027 9.0649 22.1204 9.23552C22.9691 10.7863 23.8231 12.3344 24.6826 13.88C24.7057 13.9223 24.7264 13.9665 24.7642 14.0422C24.6659 14.0481 24.5902 14.057 24.513 14.057C21.8025 14.057 19.092 14.057 16.3815 14.057C16.2556 14.057 16.1538 14.057 16.0776 13.9169C15.21 12.3303 14.3389 10.7455 13.4643 9.16226C13.4408 9.111 13.4201 9.05847 13.4024 9.00492Z" fill="black"/>
<path d="M16.6249 14.8629H16.8918C19.5797 14.8629 22.2663 14.8615 24.9516 14.8589C25.1374 14.8589 25.2402 14.9081 25.3331 15.0777C26.1803 16.629 27.0388 18.1753 27.8933 19.7222C27.9238 19.7782 27.9494 19.8367 28 19.9395H27.7138C25.026 19.9395 22.3394 19.9411 19.6541 19.9444C19.4634 19.9444 19.3655 19.8849 19.275 19.7182C18.4421 18.1866 17.5989 16.6605 16.7596 15.1328C16.7173 15.0556 16.6809 14.9759 16.6249 14.8629Z" fill="black"/>
</svg>
