<svg width="29" height="28" viewBox="0 0 29 28" fill="none" xmlns="http://www.w3.org/2000/svg">
<path d="M14.5054 2C17.3383 2.08796 20.4556 2.15849 23.5705 2.29479C24.5924 2.32788 25.6086 2.46219 26.6041 2.69577C27.6919 2.96441 28.2449 3.77668 28.2157 4.90513C28.1304 8.22868 28.0206 11.552 27.8863 14.875C27.8389 15.836 27.7256 16.7927 27.5474 17.7381C27.2361 19.434 26.2091 20.6615 24.7468 21.4714C23.2996 22.2709 21.8025 22.9889 20.2944 23.6688C18.3898 24.5263 16.4527 25.3124 14.5275 26.1151C14.3648 26.1825 14.1325 26.211 13.9745 26.1444C10.8335 24.7695 7.69012 23.397 4.5736 21.9754C3.90053 21.6687 3.28039 21.2138 2.69263 20.7542C1.36387 19.7184 0.850371 18.2564 0.702642 16.6406C0.343986 12.8011 0.228647 8.95377 0.216797 5.09611C0.216797 3.59045 0.978349 2.67358 2.47854 2.51272C3.90053 2.36136 5.332 2.26072 6.76188 2.20683C9.24641 2.11253 11.7333 2.07053 14.5054 2ZM13.9224 2.91291C11.1637 2.99849 8.11277 3.08249 5.06261 3.19502C4.2354 3.22412 3.41058 3.30138 2.5923 3.42641C1.83391 3.5437 1.49105 3.93596 1.38204 4.63728C1.36648 4.75521 1.3604 4.87419 1.36387 4.99309C1.38283 8.86026 1.49658 12.7227 1.83786 16.5772C2.01087 18.5108 2.89645 19.9673 4.60836 20.9C4.93147 21.0759 5.24668 21.2724 5.58163 21.4214C8.34661 22.6481 11.1116 23.8614 13.8765 25.0913C14.1657 25.2197 14.4043 25.1547 14.6665 25.0429C16.5254 24.241 18.3993 23.4739 20.2399 22.6323C21.6122 22.0047 22.9733 21.3382 24.2815 20.5862C25.5163 19.873 26.2699 18.7532 26.4572 17.3126C26.5907 16.2824 26.7218 15.2458 26.7653 14.2085C26.8917 11.1497 26.9841 8.09 27.0678 5.02955C27.0955 4.02392 26.7281 3.53419 25.7249 3.41136C24.3819 3.24732 23.0286 3.16808 21.6769 3.11815C19.1892 3.03019 16.7024 2.98423 13.9224 2.91291Z" fill="black"/>
<path d="M11.5222 12.2698C11.2734 12.4782 10.9519 12.6208 10.8784 12.8451C10.8049 13.0694 11.0182 13.3657 11.049 13.6376C11.0956 14.0496 11.286 14.2937 11.7008 14.3436C12.3746 14.4229 12.7096 14.7993 12.7049 15.4824C12.7093 15.569 12.7204 15.6551 12.738 15.7399L11.4993 14.9966C11.448 15.7748 11.5736 16.0189 12.174 16.1718C12.6954 16.3049 12.9711 16.5459 13.0019 17.1228C13.028 17.618 13.186 18.1046 13.2642 18.5983C13.2722 18.7399 13.2515 18.8818 13.2033 19.0151C13.1551 19.1887 13.0833 19.3551 13.0248 19.5175C13.8385 20.0033 14.5566 20.0041 15.3869 19.5374C15.3869 19.5017 15.4003 19.4581 15.3869 19.4256C14.9058 18.4335 15.4927 17.5023 15.5583 16.5427C15.5623 16.4801 15.6697 16.4072 15.7447 16.3723C15.8897 16.3114 16.038 16.2585 16.1887 16.2138C16.8697 15.9816 16.9163 15.9182 16.974 15.1266C16.4447 15.1266 16.09 15.4435 15.6958 15.7716C15.7542 15.4317 15.8064 15.0909 15.8767 14.7533C15.8893 14.6915 15.9675 14.6321 16.0291 14.5948C16.0958 14.5523 16.1711 14.5252 16.2495 14.5156C17.0869 14.4245 17.4424 13.9228 17.5364 13.1169C17.5712 12.815 17.557 12.6478 17.2663 12.54C17.1494 12.486 17.0373 12.4221 16.9313 12.349C17.6336 10.192 19.528 8.07691 22.2116 8.29404C23.7553 8.41925 24.9695 9.62774 25.0042 11.1072C25.0106 11.3616 24.9861 11.528 24.6606 11.5447C24.5524 11.5494 24.4086 11.7721 24.3636 11.9203C24.0476 12.9663 23.6202 13.9601 22.8499 14.7509C22.5625 15.0353 22.2225 15.2606 21.849 15.4142C21.4477 15.5838 21.1965 15.3746 21.2273 14.9388C21.2486 14.6416 21.3458 14.3484 21.4169 14.056C21.5551 13.4814 21.7147 12.9117 21.8332 12.334C21.8616 12.1254 21.8493 11.9133 21.7969 11.7095C21.6926 11.1833 21.473 10.9741 21.0401 10.944C20.6071 10.9139 20.1071 11.219 19.9736 11.6128C19.9556 11.7008 19.9586 11.7917 19.9823 11.8783C20.0241 12.1113 20.0865 12.3411 20.1197 12.5757C20.1679 12.8514 20.1217 13.1353 19.9888 13.3815C19.8559 13.6276 19.6439 13.8214 19.3874 13.9316C19.2724 13.9958 19.149 14.0435 19.0208 14.0734C18.2103 14.1994 17.8359 14.6931 17.7008 15.484C17.5072 16.6219 16.9629 17.5974 16.2638 18.5199C15.9644 18.9161 15.8838 19.4859 15.7463 19.9891C15.5559 20.6856 15.3466 20.8972 14.6356 20.9178C14.2287 20.9272 13.8216 20.9076 13.4174 20.8592C13.0746 20.8195 12.8273 20.6111 12.7736 20.2577C12.6108 19.1823 12.0847 18.3019 11.4543 17.435C11.1138 16.9659 10.9329 16.3374 10.8223 15.7534C10.6406 14.8175 10.2409 14.2255 9.24232 13.9823C8.38123 13.7715 8.15529 13.1106 8.39624 12.1137C8.52738 11.5724 8.23824 11.0779 7.71763 10.9575C7.16464 10.8299 6.7649 11.0985 6.63851 11.7032C6.48762 12.4291 6.72936 13.1082 6.91974 13.7921C7.0256 14.1701 7.16148 14.5473 7.2073 14.934C7.25865 15.3619 7.01296 15.5379 6.58953 15.4269C5.93304 15.2549 5.48354 14.7834 5.17386 14.2382C4.75122 13.487 4.42732 12.6779 4.08525 11.8839C3.99598 11.677 3.94542 11.4979 3.66893 11.5138C3.40586 11.5288 3.43193 11.3236 3.43667 11.1524C3.44299 9.81951 4.43206 8.634 5.75688 8.37883C7.33686 8.07374 8.69565 8.53733 9.84192 9.64042C10.6137 10.3719 11.1375 11.2824 11.5222 12.2698ZM9.08195 11.7151C8.6127 12.8372 9.0859 13.7057 10.1666 13.7643C10.1303 12.9204 9.65549 12.3149 9.08195 11.7151ZM18.2617 13.8008C19.4372 13.5488 19.8883 12.643 19.3242 11.7476C18.768 12.3157 18.3091 12.9299 18.2617 13.8008Z" fill="black"/>
<path d="M8.11843 15.3827C8.4266 15.836 8.55221 16.3895 8.46998 16.9319C8.39098 17.4977 7.7266 17.9574 6.97768 17.9938C5.62443 18.0596 4.61482 17.4938 3.94095 16.3249C3.15096 14.9548 3.03246 13.4396 2.97716 11.9141C3.38085 11.7818 3.54675 11.8753 3.62496 12.2866C3.83746 13.4071 4.23088 14.4682 4.8842 15.4144C5.33134 16.0634 5.84325 16.653 6.64984 16.8487C7.58203 17.0746 8.1366 16.6173 8.11843 15.668C8.11843 15.6022 8.11843 15.5372 8.11843 15.3827Z" fill="black"/>
<path d="M25.4625 11.9401C25.3875 13.5083 25.2832 15.0734 24.4142 16.457C23.7032 17.5918 22.6628 18.0974 21.338 17.9801C20.2241 17.8819 19.679 17.0086 20.0416 15.9483C20.099 15.7682 20.1916 15.6014 20.3142 15.4578C20.3142 15.5132 20.3221 15.5687 20.3213 15.6242C20.3039 16.6821 21.0678 17.1909 22.0498 16.7637C22.9978 16.3509 23.576 15.5521 23.9837 14.6574C24.336 13.8847 24.5738 13.0566 24.829 12.2428C24.964 11.8164 24.9814 11.7816 25.4625 11.9401Z" fill="black"/>
<path d="M13.6402 10.2191C13.0264 9.50587 12.4623 8.7784 11.8232 8.12542C9.77716 6.0484 6.37545 6.08248 4.5166 7.82746C4.50317 7.84014 4.47315 7.83538 4.42338 7.84252C5.196 6.84006 6.21509 6.27346 7.41666 6.0801C10.0142 5.66169 12.0729 6.58648 13.6323 8.69995C13.9128 9.07953 14.0273 9.4187 13.7808 9.84267C13.7226 9.96357 13.6755 10.0896 13.6402 10.2191Z" fill="black"/>
<path d="M14.7953 10.2185C14.7068 9.97445 14.597 9.70739 14.5188 9.43241C14.4896 9.32311 14.5017 9.20683 14.5528 9.10592C16.4069 6.02804 19.7667 5.31562 22.3879 6.52728C23.025 6.81734 23.5749 7.27048 23.9821 7.84117C23.2577 7.23256 22.4495 6.81098 21.5118 6.65249C19.6522 6.32758 18.0066 6.77611 16.6502 8.09475C15.9874 8.7406 15.4249 9.49185 14.7953 10.2185Z" fill="black"/>
</svg>
