<svg width="28" height="28" viewBox="0 0 28 28" fill="none" xmlns="http://www.w3.org/2000/svg">
<path d="M11.9703 23.9619C11.4157 23.351 11.0639 22.5833 10.9632 21.7643C10.567 18.8394 10.1727 15.9122 9.7804 12.9828C9.54903 11.296 8.74258 9.96436 7.38219 8.92847C6.39344 8.16065 5.54837 7.22392 4.88606 6.1616C4.1449 5.00474 3.88473 3.7346 4.01434 2.3694C4.07674 1.76553 4.09882 1.15782 4.14682 0.552989C4.1593 0.403221 4.20059 0.256333 4.24955 0C4.45116 0.18529 4.58461 0.288015 4.69405 0.412822C6.65159 2.6315 8.6005 4.85785 10.5648 7.07077C11.3078 7.90889 11.6611 8.84206 11.6823 9.98452C11.7552 13.2113 11.929 16.4361 12.048 19.6618C12.0951 20.9397 12.1028 22.2184 12.1248 23.4972C12.1214 23.6369 12.1109 23.7763 12.0932 23.9149L11.9703 23.9619Z" fill="black"/>
<path d="M23.7866 0.096005C23.8231 1.20102 23.9143 2.30412 23.8826 3.41106C23.8211 5.64413 22.4291 7.15525 20.94 8.59533C20.6645 8.86126 20.3563 9.0936 20.0664 9.34321C18.8654 10.3772 18.2807 11.7213 18.0772 13.2641C17.6999 16.126 17.3398 18.9908 16.9049 21.8431C16.8089 22.4834 16.4335 23.0825 16.1715 23.6931C16.1215 23.8102 15.9967 23.8947 15.8268 24.0829C15.797 23.9107 15.7775 23.737 15.7682 23.5625C15.8521 20.722 15.9385 17.8809 16.0274 15.0392C16.0591 14.0177 16.1014 12.9972 16.1388 11.9757C16.1724 11.0819 16.1849 10.1861 16.2454 9.29521C16.2982 8.53677 16.6294 7.87913 17.1305 7.31654C18.4093 5.86687 19.7092 4.43639 20.988 2.98768C21.7205 2.16011 22.4243 1.31143 23.1462 0.480025C23.2905 0.327519 23.4424 0.182368 23.6013 0.0451224L23.7866 0.096005Z" fill="black"/>
<path d="M14.8015 10.1074C14.74 13.4791 14.6853 16.8518 14.6152 20.2244C14.5662 22.5285 14.4952 24.8259 14.4357 27.1262C14.4242 27.5832 14.1592 28.0757 13.9451 27.9903C13.5611 27.8415 13.4584 27.4997 13.4535 27.0974C13.4267 24.8106 13.3905 22.5244 13.3451 20.2388C13.2862 17.2831 13.2222 14.3268 13.1531 11.3699C13.1329 10.5058 13.1233 9.64178 13.0638 8.7835C13.0206 8.15467 13.491 7.89833 13.8529 7.55752C13.8926 7.53558 13.9372 7.52407 13.9825 7.52407C14.0279 7.52407 14.0725 7.53558 14.1121 7.55752C14.452 7.85897 14.8658 8.10858 14.8341 8.66829C14.8072 9.14832 14.8283 9.62834 14.8283 10.1084L14.8015 10.1074Z" fill="black"/>
</svg>
