<svg width="28" height="28" viewBox="0 0 28 28" fill="none" xmlns="http://www.w3.org/2000/svg">
<path d="M20.9941 14.5752V15.2303C20.5443 15.2303 20.1043 15.2303 19.6643 15.2303C19.6249 15.2303 19.5813 15.1888 19.5474 15.1583C19.0616 14.7084 19.0616 14.7073 19.0616 14.0522C19.0616 13.6253 19.0561 13.1984 19.0616 12.7715C19.0701 12.6799 19.1017 12.5921 19.1533 12.516C19.2529 12.3286 19.4111 12.179 19.6037 12.0899C19.7963 12.0008 20.0127 11.9771 20.22 12.0225C20.4768 12.0433 20.7348 12.0455 20.9919 12.029V12.7365C20.7506 12.7365 20.5225 12.7365 20.2932 12.7365C20.1932 12.7445 20.0989 12.7861 20.0255 12.8545C19.9522 12.9229 19.9041 13.0141 19.8892 13.1132C19.8892 13.4561 19.8892 13.7989 19.8892 14.1417C19.8892 14.3219 20.1338 14.5468 20.3161 14.549L20.9515 14.5545C20.9636 14.5545 20.9723 14.5643 20.9941 14.5752Z" fill="black"/>
<path d="M26.0778 14.549C26.3213 14.549 26.5451 14.549 26.7678 14.549C26.8739 14.5376 26.9728 14.4902 27.0481 14.4147C27.1234 14.3392 27.1705 14.2402 27.1817 14.1341C27.1817 13.8065 27.1817 13.4735 27.1817 13.1427C27.1818 13.0894 27.1713 13.0367 27.1507 12.9876C27.1302 12.9384 27.0999 12.8939 27.0619 12.8567C27.0238 12.8194 26.9787 12.7902 26.9291 12.7707C26.8795 12.7511 26.8266 12.7418 26.7733 12.7431C26.5451 12.7431 26.3158 12.7431 26.0811 12.7431V12.0574C26.1651 12.0487 26.2416 12.0367 26.318 12.0345C26.5113 12.0345 26.7056 12.029 26.8989 12.029C27.5289 12.029 27.531 12.029 27.9252 12.5072C27.9686 12.5618 27.9934 12.6287 27.9962 12.6983C28.0013 13.3185 28.0013 13.9372 27.9962 14.5545C27.9885 14.6291 27.9609 14.7004 27.9165 14.7608C27.8124 14.941 27.6545 15.084 27.4648 15.1696C27.2752 15.2552 27.0635 15.2791 26.8596 15.238C26.5984 15.2172 26.336 15.215 26.0745 15.2314L26.0778 14.549Z" fill="black"/>
<path d="M4.03985 12.0399V12.5717C4.03985 13.2148 4.03985 13.8579 4.03985 14.4999C4.04565 14.5619 4.0358 14.6244 4.01119 14.6816C3.98658 14.7388 3.94801 14.789 3.899 14.8274C3.88082 14.8434 3.86368 14.8606 3.84769 14.8787C3.47209 15.2598 3.33342 15.3024 2.77112 15.2063V12.0399H4.03985Z" fill="black"/>
<path d="M21.1743 14.549C21.4178 14.549 21.6416 14.549 21.8654 14.549C21.9711 14.5365 22.0696 14.4888 22.1448 14.4135C22.2201 14.3382 22.2678 14.2398 22.2803 14.1341C22.2803 13.8029 22.2803 13.4721 22.2803 13.1416C22.2727 13.0352 22.2264 12.9353 22.1502 12.8606C22.074 12.786 21.9731 12.7419 21.8665 12.7365L21.2485 12.7223C21.2258 12.7183 21.2035 12.7121 21.1819 12.7038V12.029C21.4974 12.044 21.8134 12.0414 22.1286 12.0214C22.4769 11.9832 22.7051 12.112 22.9125 12.3751C23.0388 12.5167 23.1067 12.7008 23.1025 12.8905C23.0894 13.4364 23.1025 13.9736 23.0927 14.5152C23.0807 14.6124 23.043 14.7048 22.9835 14.7827C22.7433 15.1572 22.4048 15.3013 21.9561 15.238C21.6945 15.2177 21.4318 15.2155 21.1699 15.2314L21.1743 14.549Z" fill="black"/>
<path d="M25.9206 14.549V15.2314C25.6426 15.2166 25.3641 15.2188 25.0864 15.238C24.904 15.271 24.716 15.2494 24.5459 15.176C24.3757 15.1026 24.231 14.9806 24.1299 14.8252C24.0446 14.7276 23.996 14.6033 23.9924 14.4737C23.9996 13.9146 23.9996 13.3553 23.9924 12.7955C23.9953 12.6671 24.0401 12.5433 24.1201 12.4428C24.213 12.2846 24.3531 12.1594 24.5207 12.0848C24.6883 12.0102 24.875 11.99 25.0547 12.0268C25.3202 12.0491 25.5866 12.056 25.8529 12.0476C25.8732 12.0518 25.893 12.0584 25.9118 12.0672V12.742C25.6727 12.742 25.4336 12.742 25.1945 12.742C25.0937 12.748 24.9986 12.791 24.9275 12.8627C24.8564 12.9344 24.8143 13.0298 24.8091 13.1307C24.8091 13.4684 24.8091 13.8055 24.8091 14.1417C24.8243 14.244 24.872 14.3387 24.9451 14.4118C25.0183 14.485 25.1129 14.5327 25.2152 14.5479C25.4402 14.5501 25.6738 14.549 25.9206 14.549Z" fill="black"/>
<path d="M7.1429 12.7365C6.82189 12.7365 6.52709 12.7485 6.23338 12.7311C6.06196 12.7212 6.00846 12.7824 5.97789 12.9407C5.84141 13.6493 5.69073 14.3601 5.55316 15.0633C5.52914 15.1856 5.48546 15.2369 5.35444 15.2314C5.13607 15.2216 4.90897 15.2314 4.65566 15.2314C4.70807 14.9705 4.75611 14.7379 4.80306 14.5064C4.9581 13.7443 5.11533 12.9888 5.26382 12.2245C5.28893 12.0967 5.33479 12.0356 5.47236 12.0367C5.94404 12.0367 6.41681 12.029 6.89177 12.0367C6.92005 12.0418 6.94665 12.0537 6.96929 12.0714C6.99193 12.0891 7.00992 12.112 7.0217 12.1382C7.06756 12.3151 7.09704 12.4996 7.1429 12.7365Z" fill="black"/>
<path d="M8.67913 15.227C8.40399 15.227 8.15177 15.2336 7.89955 15.2205C7.86243 15.2205 7.80674 15.1375 7.79582 15.0851C7.64296 14.3503 7.49775 13.6133 7.35035 12.8796C7.29576 12.611 7.24116 12.3413 7.18439 12.0465C7.46281 12.0465 7.71503 12.0399 7.96506 12.0541C8.00327 12.0541 8.05678 12.1524 8.07425 12.2114C8.22055 12.9385 8.36577 13.6679 8.51645 14.3983C8.56667 14.668 8.62563 14.9377 8.67913 15.227Z" fill="black"/>
<path d="M9.47618 12.0443H10.2634V15.2161H9.47618V12.0443Z" fill="black"/>
<path d="M15.0828 15.215C15.0165 15.2321 14.9468 15.2318 14.8806 15.214C14.8144 15.1962 14.7539 15.1616 14.7051 15.1135C14.5448 14.9984 14.4194 14.8415 14.3423 14.6599C14.2653 14.4783 14.2397 14.279 14.2683 14.0839C14.3076 13.6471 14.2683 13.2104 14.2825 12.7671C14.2923 12.6639 14.33 12.5654 14.3917 12.4821C14.4649 12.3729 14.5708 12.2867 14.6527 12.183C14.6985 12.1151 14.766 12.0648 14.8441 12.0402C14.9222 12.0156 15.0064 12.0182 15.0828 12.0476V15.215Z" fill="black"/>
<path d="M13.42 12.0443V12.7245H10.4556V12.0443H13.42Z" fill="black"/>
<path d="M13.4178 14.5654V15.2205H10.4589V14.5654H13.4178Z" fill="black"/>
<path d="M15.2717 15.2194V14.5643H18.2525V15.2194H15.2717Z" fill="black"/>
<path d="M15.2772 12.7049V12.0498H18.2459V12.7049H15.2772Z" fill="black"/>
<path d="M13.2223 13.3163V13.9714H10.4556V13.3163H13.2223Z" fill="black"/>
<path d="M2.58878 14.5654V15.2205C2.53528 15.2205 2.4796 15.2314 2.43265 15.2314C1.85724 15.2314 1.28183 15.2314 0.706428 15.2314C0.615935 15.2247 0.530787 15.186 0.466221 15.1222C0.308994 14.9541 0.170329 14.7674 0 14.5654H2.58878Z" fill="black"/>
</svg>
