<svg width="28" height="28" viewBox="0 0 28 28" fill="none" xmlns="http://www.w3.org/2000/svg">
<path d="M13.9264 27.9995C6.62414 28.0629 0.293753 22.1847 0.0116527 14.5666C-0.0651872 12.6847 0.238609 10.8067 0.904844 9.045C1.57108 7.2833 2.58604 5.6742 3.88894 4.31408C5.19184 2.95397 6.75586 1.87082 8.48732 1.12953C10.2188 0.388246 12.082 0.0040629 13.9655 0C21.7941 0 27.9369 6.24805 27.9504 14.1982C27.9639 21.7906 21.67 27.9846 13.9264 27.9995ZM27.3214 15.0418C27.3214 13.7716 27.5482 12.2977 27.2769 10.9223C26.5642 7.31977 24.5396 4.51766 21.5026 2.45657C20.3674 1.6872 20.3661 1.69125 19.3241 2.62259C19.1054 2.81696 18.8746 2.99782 18.6721 3.20839C17.7354 4.17752 16.7987 5.14665 15.8889 6.13872C15.7701 6.2737 15.7647 6.53555 15.7715 6.73532C15.7809 6.97288 15.9578 7.23878 15.8943 7.43855C15.4367 8.8558 15.6689 10.1381 16.522 11.3394C17.5842 12.8457 18.6816 14.3372 19.6399 15.9043C20.1376 16.7302 20.502 17.6293 20.7197 18.5687C21.0666 20.0534 20.8925 21.5247 20.0205 22.842C19.8865 23.0129 19.7394 23.1731 19.5805 23.3212C19.4901 23.1511 19.401 22.9797 19.3106 22.811C19.1378 22.4965 18.9623 22.1834 18.7882 21.8662C18.5898 21.5112 18.4022 21.4437 18.0823 21.7892C15.7202 24.3457 11.8734 24.046 9.86763 21.7892C9.55448 21.4369 9.33987 21.526 9.15495 21.8729C8.885 22.3777 8.63934 22.896 8.30595 23.5642C7.93881 22.7867 7.51364 22.1159 7.29633 21.3857C6.71593 19.442 7.21399 17.6293 8.26006 15.9771C9.25888 14.4033 10.3616 12.8956 11.4239 11.361C12.2338 10.1826 12.5429 8.93139 12.0745 7.52763C12.0057 7.32247 11.9935 6.95803 12.115 6.85275C12.5024 6.52341 12.2743 6.3034 12.0556 6.08203C10.8408 4.8497 9.62602 3.61197 8.39368 2.40393C7.65266 1.68181 7.61217 1.6926 6.74157 2.26895C2.55731 5.05891 0.315349 8.87469 0.574504 14.0119C0.600149 14.5316 0.574504 14.842 1.35872 14.9041C3.32532 15.0634 5.27303 15.4656 7.22749 15.7463C7.72555 15.8179 7.82948 16.0676 7.69991 16.4901C7.64052 16.6831 7.54198 16.8626 7.4691 17.0516C6.77532 18.8575 6.55801 20.6757 7.4232 22.4884C9.07666 25.9492 13.3784 27.5001 16.8972 25.9195C19.7317 24.6467 21.3055 22.2414 21.0356 19.384C20.9478 18.4634 20.5834 17.5631 20.2986 16.6682C20.0799 15.9798 20.1447 15.8422 20.8507 15.7382C22.7187 15.4683 24.5814 15.1632 26.4508 14.9027C26.7181 14.8636 27.0042 14.9824 27.3214 15.0404V15.0418Z" fill="black"/>
<path d="M10.1443 5.65956C10.0323 5.723 9.90812 5.85122 9.78394 5.85122C8.49492 5.85122 7.20454 5.82558 5.91552 5.79723C5.4431 5.78644 5.01253 5.81343 4.56576 5.4382C4.31875 5.23438 4.38219 5.19254 4.49422 5.09671C5.42826 4.29495 6.36634 3.49724 7.32872 2.73327C7.4502 2.63609 7.82544 2.65229 7.91722 2.75892C8.64744 3.60657 9.33852 4.48931 10.0377 5.36396C10.0835 5.45848 10.1192 5.55756 10.1443 5.65956Z" fill="black"/>
<path d="M17.7084 5.51243C18.4724 4.60134 19.2093 3.70105 19.9801 2.8291C20.0934 2.70223 20.4295 2.60909 20.5578 2.68198C21.7725 3.37846 22.7903 4.3017 23.7405 5.4139C21.7118 5.9646 19.7722 5.87957 17.7084 5.51243Z" fill="black"/>
</svg>
