<svg width="29" height="28" viewBox="0 0 29 28" fill="none" xmlns="http://www.w3.org/2000/svg">
<path d="M0.0605469 9H28.0605C27.944 9.17207 27.8509 9.31392 27.7522 9.45269C27.3957 9.95595 27.0633 10.4802 26.6753 10.9551C26.2874 11.43 26.1147 11.9604 26.0154 12.5463C25.8162 13.7181 25.5671 14.8862 25.3716 16.0617C25.2396 16.856 24.7992 17.3463 24.0357 17.5326C22.9188 17.8052 21.8 18.0704 20.6739 18.2998C18.8033 18.6828 16.9185 18.998 15.051 19.4056C14.0951 19.6147 13.1922 19.426 12.28 19.2484C9.96293 18.7963 7.64953 18.3233 5.33614 17.8496C4.90442 17.7608 4.47764 17.6436 4.05271 17.5264C3.30645 17.3211 2.87597 16.848 2.74152 16.0666C2.49975 14.6703 2.22407 13.2808 1.95394 11.89C1.9225 11.7316 1.85958 11.581 1.76892 11.4472C1.26627 10.7207 0.751296 10.0028 0.241869 9.28123C0.187595 9.20044 0.134556 9.11471 0.0605469 9ZM1.53271 9.50141C1.99464 10.1626 2.42513 10.762 2.83526 11.3757C2.946 11.544 3.02211 11.7327 3.05914 11.9307C3.3157 13.3554 3.56343 14.7813 3.80231 16.2085C3.90099 16.7937 4.25808 17.107 4.81561 17.2205C7.45033 17.7571 10.0838 18.3004 12.7216 18.8197C13.26 18.9258 13.8317 19.0504 14.3615 18.9752C15.8133 18.7698 17.254 18.4818 18.6935 18.1925C20.2434 17.8841 21.7865 17.5425 23.3314 17.21C23.8334 17.1021 24.1911 16.8332 24.2855 16.293C24.5069 15.0293 24.7567 13.7699 24.9417 12.5012C25.0324 11.8845 25.2365 11.3479 25.625 10.8595C25.9599 10.4389 26.2455 9.97877 26.5773 9.50264L1.53271 9.50141Z" fill="black"/>
<path d="M18.4203 13.7884V12.1904H24.6161C24.5371 12.6838 24.4699 13.1685 24.3694 13.6465C24.3564 13.7082 24.1843 13.781 24.0906 13.7822C23.1865 13.7927 22.2823 13.7884 21.3769 13.7884H18.4203Z" fill="black"/>
<path d="M9.72301 14.0671V15.6374C9.62618 15.6454 9.53799 15.6589 9.4498 15.6589C7.75561 15.6589 6.05773 15.6589 4.36663 15.6645C4.13596 15.6645 4.04839 15.6028 4.02187 15.3654C3.97376 14.9392 3.8831 14.5174 3.80539 14.0702L9.72301 14.0671Z" fill="black"/>
<path d="M10.019 15.9476H13.8835V18.6378C13.5628 18.5854 13.2538 18.5397 12.9467 18.4836C12.0383 18.3189 11.1298 18.1543 10.225 17.9736C10.1755 17.9542 10.1316 17.9227 10.0973 17.8822C10.063 17.8416 10.0392 17.7931 10.0283 17.7411C10.011 17.157 10.019 16.5717 10.019 15.9476Z" fill="black"/>
<path d="M13.8885 11.652V12.4112H3.53958C3.49394 12.1719 3.44707 11.9233 3.39464 11.6495L13.8885 11.652Z" fill="black"/>
<path d="M24.0419 15.4215C24.0491 15.4372 24.0543 15.4538 24.0573 15.4708C23.9956 16.2029 23.9956 16.2029 23.2777 16.2029H14.2326V15.4215H24.0419Z" fill="black"/>
<path d="M14.2363 10.2847H18.1002V11.8697H14.2363V10.2847Z" fill="black"/>
<path d="M5.30654 10.5813L5.73826 11.3689C4.92601 11.3689 4.16989 11.3689 3.41438 11.3652C3.38003 11.3632 3.34644 11.3543 3.3156 11.3391C3.28476 11.3238 3.25732 11.3025 3.23491 11.2764C3.00733 10.968 2.79024 10.6455 2.54416 10.2896H13.9027C13.9027 10.6041 13.9082 10.9187 13.8965 11.2326C13.8965 11.277 13.7953 11.3609 13.7676 11.3516C13.709 11.3313 13.6301 11.2641 13.6257 11.2104C13.6091 11.0081 13.619 10.804 13.619 10.5789L5.30654 10.5813Z" fill="black"/>
<path d="M14.2345 16.4558H23.8377C23.7014 16.7358 23.459 16.8036 23.2265 16.856C22.1781 17.0922 21.1241 17.3315 20.067 17.5406C18.2439 17.9008 16.4171 18.24 14.5916 18.5891C14.4812 18.61 14.3689 18.6199 14.2345 18.6384V16.4558ZM21.2949 16.8437C21.2869 16.8085 21.2789 16.774 21.2715 16.7395H14.5071V18.2918C14.5643 18.2966 14.6219 18.2966 14.6791 18.2918C16.591 17.9218 18.5029 17.5517 20.4148 17.1656C20.7183 17.1033 21.0026 16.9559 21.2949 16.8437Z" fill="black"/>
<path d="M24.3021 14.0628C24.2466 14.4205 24.193 14.7616 24.1375 15.1205H21.8043C21.8339 14.8584 21.8611 14.616 21.8913 14.3484H14.4904V15.1057L14.3973 15.1637C14.3356 15.0983 14.2277 15.0367 14.2234 14.9682C14.2036 14.6734 14.2147 14.3774 14.2147 14.0616L24.3021 14.0628Z" fill="black"/>
<path d="M13.6227 13.7532V12.965H6.09473C6.112 13.2265 6.12989 13.4862 6.14901 13.7668H3.75544L3.57967 12.7041H13.9039C13.9039 13.0224 13.9156 13.3289 13.8946 13.633C13.8903 13.6946 13.767 13.7532 13.6979 13.813L13.6227 13.7532Z" fill="black"/>
<path d="M25.1582 10.8101C24.9923 11.224 24.7536 11.3948 24.2947 11.3868C22.4679 11.3535 20.6393 11.3738 18.8119 11.3738H18.4295V10.8101H25.1582Z" fill="black"/>
<path d="M9.7187 16.4576V17.0127H9.37147C8.23297 17.0127 7.09385 17.0287 5.95535 17.0041C5.56187 16.9954 5.16531 16.9066 4.77984 16.8153C4.60099 16.7728 4.44433 16.6371 4.2772 16.5433C4.29077 16.515 4.30434 16.486 4.31729 16.4576H9.7187Z" fill="black"/>
<path d="M18.099 13.2438H14.2314V12.7004H18.099V13.2438Z" fill="black"/>
<path d="M13.8885 14.5944V15.1174H10.0468V14.5944H13.8885Z" fill="black"/>
</svg>
