<svg width="28" height="28" viewBox="0 0 28 28" fill="none" xmlns="http://www.w3.org/2000/svg">
<path d="M27.6971 12.1257C27.2296 10.6967 26.3349 9.5636 25.2083 8.6003C23.9207 7.5003 22.4462 6.72873 20.8632 6.15724C18.6957 5.37608 16.4515 5.03189 14.1557 5.00499C12.31 4.98622 10.47 5.21238 8.68342 5.6776C6.74418 6.19404 4.92429 6.96933 3.31104 8.18591C2.27758 8.96552 1.38783 9.88151 0.77565 11.0353C-0.22882 12.9248 -0.261819 14.8391 0.700708 16.7524C1.34465 18.0323 2.32291 19.0241 3.46524 19.8612C4.69885 20.7658 6.06384 21.4195 7.51026 21.9023C9.61912 22.6067 11.79 22.9209 14.2421 22.9228C14.8327 22.9383 15.6524 22.8776 16.4688 22.7852C17.602 22.6596 18.7221 22.4352 19.8165 22.1147C21.5809 21.5946 23.2367 20.8487 24.7105 19.7314C25.8874 18.8389 26.865 17.7735 27.4686 16.4039C28.0829 15.0091 28.1721 13.5783 27.6971 12.1257ZM8.34017 6.95046C8.9909 6.71667 9.66322 6.57442 10.3377 6.43866C11.0573 6.29434 11.7824 6.18342 12.5129 6.10591C13.3147 6.02158 14.1221 6.0041 14.9267 6.05364C16.4728 6.14642 17.9762 6.45876 19.456 6.90253C19.6472 6.95974 19.7758 7.05128 19.8418 7.18085L18.8879 12.7164C18.8666 12.7943 18.8435 12.871 18.8173 12.9489C18.5792 13.6475 18.0897 14.0393 17.4149 14.2057L16.99 14.2824C16.6643 14.3251 16.3358 14.3396 16.0083 14.3616C15.3298 14.407 14.6513 14.3941 13.7832 14.3947C13.1525 14.4058 12.3306 14.3984 11.5109 14.331C11.1579 14.3039 10.8069 14.2554 10.4598 14.1856C9.62714 14.0131 9.14665 13.4883 8.9761 12.6799C8.75528 11.6331 8.56222 10.5804 8.36268 9.52928C8.23932 8.87707 8.12305 8.22363 8.00987 7.56988C7.96515 7.31228 8.06538 7.04942 8.34017 6.95046ZM26.2226 14.2243C26.1554 15.3685 25.727 16.3831 25.0353 17.2886C24.0792 18.5392 22.8376 19.4261 21.4421 20.1145C20.0768 20.7881 18.6356 21.221 17.1377 21.4752C16.1132 21.6484 15.0816 21.7421 14.3762 21.7319C11.7412 21.7319 9.51334 21.3512 7.38381 20.4599C5.90748 19.8414 4.57117 19.0099 3.48066 17.8174C2.77904 17.0496 2.25136 16.1809 1.99045 15.1647C1.68575 13.9824 1.81404 12.8354 2.29269 11.7231C2.79693 10.5517 3.62191 9.64092 4.62391 8.878C5.08651 8.52453 5.58397 8.22394 6.09376 7.94407C6.11165 7.93418 6.13046 7.92583 6.14896 7.91717C6.43269 7.78636 6.55636 7.8646 6.58443 8.17972C6.65166 8.9382 6.72187 9.69637 6.79507 10.4542C6.86724 11.2119 6.92953 11.9711 7.0202 12.7269C7.11704 13.5328 7.15374 14.3501 7.38227 15.1353C7.64904 16.0522 8.23655 16.6315 9.19599 16.7898C9.87448 16.902 10.5613 16.946 11.2481 16.9862C12.2658 17.0452 13.2817 17.0326 14.2988 17.048C15.229 17.0612 16.1577 17.0375 17.0849 16.9769C17.6373 16.9401 18.1906 16.9051 18.7358 16.7932C19.7156 16.5919 20.3133 16.0031 20.5412 15.0326C20.7004 14.3551 20.7691 13.6633 20.8456 12.9731C20.9329 12.186 21.0106 11.3974 21.0853 10.6089C21.1553 9.87131 21.2154 9.13282 21.2805 8.39465C21.2869 8.31857 21.2934 8.2425 21.3014 8.16673L21.3415 7.95892C21.385 7.85903 21.4741 7.81357 21.6037 7.83213C21.6851 7.84332 21.7643 7.86721 21.8384 7.90294C23.5102 8.7308 24.866 9.8945 25.6965 11.6015C26.0963 12.4151 26.2776 13.319 26.2226 14.2243Z" fill="black"/>
</svg>
