<svg width="28" height="28" viewBox="0 0 28 28" fill="none" xmlns="http://www.w3.org/2000/svg">
<path d="M13.9956 22.9077C10.7858 22.9522 7.71707 22.3241 4.84566 20.8596C3.3072 20.0746 1.94068 19.0787 0.979658 17.5991C-0.438926 15.4182 -0.30878 12.9276 1.31735 10.8802C2.67771 9.16778 4.47988 8.10949 6.48069 7.33204C8.53425 6.53405 10.6659 6.13676 12.864 6.02922C16.1882 5.86962 19.3939 6.3539 22.4413 7.72659C24.2757 8.55335 25.8854 9.67192 27.0163 11.3789C27.6451 12.3289 28.0197 13.3763 27.9992 14.5209C27.9793 15.6216 27.6211 16.634 27.0231 17.5635C25.9491 19.2342 24.3709 20.2849 22.6228 21.1131C20.4001 22.1666 18.0438 22.7255 15.5957 22.9022C15.0648 22.9406 14.5292 22.9077 13.9956 22.9077ZM2.81334 12.5159C2.751 12.7091 2.68456 12.8769 2.64415 13.0502C2.22083 14.8675 2.63182 16.5169 3.68189 18.0225C4.55797 19.2794 5.81764 20.0733 7.13416 20.7877C7.52939 21.0028 7.93695 21.1987 8.35547 21.4083L12.0276 14.4126L2.81334 12.5159ZM19.6322 21.4206C20.1768 21.1329 20.7028 20.8726 21.2145 20.5822C22.6489 19.7753 23.9421 18.8143 24.7373 17.3156C25.4984 15.8771 25.7237 14.3832 25.2785 12.8043C25.223 12.6077 25.1559 12.5118 24.9004 12.5653C22.3995 13.0886 19.8946 13.5927 17.3917 14.1051C16.9273 14.2003 16.4663 14.3106 15.9601 14.4263L19.6322 21.4206ZM12.7674 12.3741C13.1654 10.3932 13.5544 8.45403 13.9517 6.47925C13.8223 6.47925 13.7462 6.47925 13.6688 6.47925C11.6536 6.56761 9.69597 6.91352 7.84654 7.75467C6.23342 8.48828 4.76415 9.42464 3.72778 10.9083C3.41338 11.3597 3.14555 11.844 2.81882 12.3741H12.7674ZM14.0319 6.46829C14.0819 6.72379 14.1209 6.93065 14.162 7.13683C14.4908 8.77323 14.823 10.409 15.1429 12.0474C15.1908 12.2926 15.2861 12.3783 15.5463 12.3783C18.3801 12.3783 21.2138 12.3926 24.0483 12.4022C24.3853 12.4022 24.7223 12.4022 25.086 12.4022C25.0772 12.3427 25.0632 12.284 25.0442 12.2269C24.5421 11.1912 23.8866 10.2637 22.9989 9.52807C20.4247 7.39438 17.3896 6.57994 14.0319 6.46829ZM8.53973 21.4603C12.2071 22.6933 15.7909 22.7097 19.4349 21.4542C17.602 19.513 15.8121 17.6183 13.9894 15.6874L8.53973 21.4603Z" fill="black"/>
</svg>
