<svg width="28" height="28" viewBox="0 0 28 28" fill="none" xmlns="http://www.w3.org/2000/svg">
<path d="M0 18.3908C0.113007 17.6474 0.179919 16.9039 0.349429 16.1694C0.89216 13.8304 2.04751 11.7903 3.48537 9.88856C6.05628 6.48943 9.4792 4.31851 13.4627 2.96837C15.6589 2.22491 17.9131 1.83979 20.2431 2.07621C22.2326 2.28141 24.0184 2.96837 25.5619 4.27688C26.8838 5.401 27.4562 6.89834 27.7923 8.51761C28.2488 10.696 27.941 12.7896 26.9864 14.7925C25.1857 18.5514 22.5776 21.5922 18.9777 23.7364C16.954 24.9423 14.7935 25.8404 12.4679 26.1958C10.0888 26.5586 7.69191 26.6166 5.33066 25.9489C4.21738 25.6493 3.18242 25.1115 2.29731 24.3728C1.1375 23.3795 0.530835 22.0591 0.22304 20.5945C0.123415 20.1142 0.0743467 19.625 0 19.1403V18.3908ZM16.383 3.62114C15.989 3.65831 15.2738 3.70292 14.566 3.80106C14.0287 3.88159 13.4965 3.9928 12.972 4.13413C10.3416 4.81068 8.13501 6.25152 6.18564 8.07599C3.93065 10.1596 2.46067 12.9552 2.02223 15.9939C1.74715 17.7782 1.96424 19.515 2.95305 21.0614C4.69871 23.7914 7.26516 25.1519 10.4695 25.1995C14.114 25.256 17.3406 23.9326 20.2595 21.8584C21.739 20.8071 22.875 19.3811 23.8906 17.8808C25.0355 16.1887 25.883 14.3702 25.9723 12.2929C26.0987 9.45884 25.0965 7.11097 22.7813 5.40992C20.9866 4.08952 18.9034 3.64344 16.383 3.62114Z" fill="black"/>
<path d="M8.28965 8.16669C9.36768 9.22688 10.4085 10.235 11.4286 11.2476C11.8598 11.6714 12.2955 12.0922 12.7118 12.5308C12.947 12.7711 13.1325 13.0554 13.2578 13.3674C13.3831 13.6795 13.4456 14.0131 13.4419 14.3494C13.4419 16.3508 13.4419 18.3517 13.4419 20.3521C13.4369 20.4097 13.4279 20.4668 13.4151 20.5231H8.28965V8.16669Z" fill="black"/>
<path d="M19.9472 8.25293V20.5231H14.7905C14.7905 20.3997 14.7742 20.2703 14.7742 20.1395C14.7742 18.312 14.7905 16.4846 14.7742 14.6557C14.7608 13.646 15.1444 12.855 15.8671 12.168C17.128 10.9666 18.3577 9.73541 19.5963 8.51315C19.6869 8.41131 19.7699 8.30297 19.8446 8.189L19.9472 8.25293Z" fill="black"/>
</svg>
