<svg width="28" height="28" viewBox="0 0 28 28" fill="none" xmlns="http://www.w3.org/2000/svg">
<path d="M8.79112 11.0043V12.3804H1.94899C1.91566 12.3804 1.88176 12.3804 1.84844 12.3804C1.77336 12.3818 1.7012 12.4097 1.64465 12.4591C1.5881 12.5085 1.5508 12.5763 1.53931 12.6505C1.53052 12.7 1.52629 12.7502 1.52667 12.8004C1.52667 13.5451 1.52667 14.2896 1.52667 15.0339C1.52667 15.0557 1.52667 15.0769 1.52667 15.0988C1.53989 15.3522 1.6594 15.478 1.91107 15.501C1.95416 15.505 1.99725 15.5067 2.04035 15.5067H6.80651C6.85912 15.507 6.91169 15.5041 6.96395 15.4981C7.16046 15.4751 7.28112 15.3706 7.29663 15.1735C7.31215 14.9649 7.30008 14.754 7.30008 14.5351H4.46624V13.2343H8.78595C8.78982 13.2476 8.79233 13.2612 8.79342 13.2751C8.79342 13.9783 8.80089 14.6822 8.79342 15.3861C8.78193 16.1755 8.29928 16.668 7.55462 16.8151C7.35508 16.8537 7.15226 16.873 6.94901 16.8725C5.18696 16.8771 3.42605 16.8771 1.6663 16.8725C1.31178 16.8725 0.970476 16.807 0.664798 16.6163C0.263164 16.3669 0.0712536 15.9905 0.018392 15.5343C0.00593288 15.4273 -0.000206661 15.3197 5.30559e-06 15.212C5.30559e-06 14.334 5.30559e-06 13.4601 5.30559e-06 12.5838C0.00402739 12.2115 0.0936623 11.8633 0.330965 11.5645C0.588378 11.2405 0.938299 11.0847 1.33878 11.0325C1.5001 11.0134 1.66244 11.0044 1.82488 11.0055C4.1121 11.0055 6.39952 11.0055 8.68712 11.0055L8.79112 11.0043Z" fill="black"/>
<path d="M9.73171 11.0043H9.80698C10.5367 11.0043 11.2664 11.0043 11.9961 11.0043C12.0192 11.0019 12.0424 11.0069 12.0624 11.0187C12.0824 11.0305 12.098 11.0484 12.107 11.0698C12.8517 12.4266 13.5987 13.7824 14.3479 15.1373C14.36 15.1597 14.3743 15.1815 14.3939 15.2143L14.5944 14.8511C15.2755 13.6123 15.9556 12.3732 16.6348 11.1336C16.6526 11.0901 16.6841 11.0537 16.7246 11.0299C16.7651 11.006 16.8122 10.996 16.8588 11.0014C17.5598 11.0078 18.2608 11.0043 18.9618 11.0043H19.0503V16.8685H17.5248V12.4683L17.5058 12.4643L17.3283 12.7878C16.5951 14.1285 15.8623 15.4692 15.1299 16.8099C15.1213 16.8304 15.1065 16.8476 15.0875 16.859C15.0685 16.8705 15.0463 16.8756 15.0242 16.8737C14.6005 16.8714 14.1771 16.8714 13.7538 16.8737C13.7318 16.8757 13.7098 16.8705 13.691 16.859C13.6721 16.8476 13.6575 16.8303 13.6492 16.8099C13.0639 15.7373 12.4773 14.6648 11.8893 13.5922C11.6977 13.2394 11.5051 12.8868 11.3112 12.5344C11.2977 12.5076 11.278 12.4844 11.2538 12.4666V16.8668H9.73171V11.0043Z" fill="black"/>
<path d="M28 11.0043V12.4821H21.8698C21.8292 12.4812 21.7887 12.4837 21.7485 12.4896C21.6825 12.4971 21.6206 12.5258 21.5721 12.5714C21.5237 12.6169 21.4912 12.6769 21.4796 12.7424C21.4688 12.7915 21.4634 12.8416 21.4635 12.8918C21.4635 13.5763 21.4635 14.2608 21.4635 14.9454V14.9741C21.4687 15.2378 21.6003 15.3763 21.8629 15.3941C21.9083 15.397 21.9537 15.397 21.9991 15.397H27.9977V16.8737H27.9201C25.8095 16.8737 23.6992 16.8737 21.5894 16.8737C21.2446 16.8737 20.9125 16.8093 20.6126 16.6277C20.2253 16.3927 20.0254 16.0348 19.9616 15.5981C19.9442 15.4724 19.9358 15.3457 19.9363 15.2189C19.9363 14.3714 19.9363 13.5244 19.9363 12.6769C19.9363 12.3689 19.9765 12.0696 20.1202 11.7932C20.3402 11.3605 20.712 11.1324 21.1763 11.048C21.327 11.0205 21.4798 11.0065 21.633 11.006C23.7241 11.003 25.8152 11.0024 27.9063 11.0043H28Z" fill="black"/>
</svg>
