<svg width="28" height="28" viewBox="0 0 28 28" fill="none" xmlns="http://www.w3.org/2000/svg">
<path d="M13.4792 5C17.1034 5.03923 20.0749 5.59859 22.8355 7.02958C24.3751 7.82762 25.7274 8.85229 26.7377 10.2648C27.6306 11.5131 28.0925 12.8906 27.9845 14.4285C27.8837 15.865 27.2965 17.1081 26.3813 18.2105C25.0659 19.7952 23.36 20.8487 21.4587 21.6207C19.5834 22.3822 17.6241 22.7977 15.6016 22.9403C12.622 23.1505 9.71771 22.816 6.91788 21.7664C5.01331 21.0524 3.29176 20.0515 1.91342 18.5492C0.934644 17.4824 0.25671 16.2649 0.0586044 14.8224C-0.162556 13.2123 0.250369 11.7507 1.15984 10.4137C2.10833 9.01926 3.40079 7.99725 4.87523 7.18465C6.7299 6.16249 8.72693 5.54048 10.8273 5.25419C11.8793 5.11083 12.943 5.04978 13.4792 5ZM12.8639 21.9947C12.0313 21.0266 11.6878 20.462 11.2939 19.2878C10.736 17.6245 10.5525 15.9073 10.5539 14.1663C10.5541 13.9737 10.5195 13.8915 10.3002 13.8581C9.21576 13.6929 8.15287 13.4363 7.1268 13.0486C6.13548 12.6741 5.19249 12.2148 4.43182 11.4655C3.91847 10.9598 3.57899 10.371 3.60661 9.62745C3.6075 9.6033 3.58901 9.57849 3.56807 9.52432C2.09801 11.4028 1.55949 13.428 2.35348 15.6906C2.91713 17.2968 4.0218 18.5062 5.40146 19.4882C7.1294 20.718 9.0792 21.4243 11.1706 21.7751C11.7314 21.8691 12.2993 21.9226 12.8639 21.9947ZM15.0814 21.9631C15.2081 21.9631 15.2873 21.9689 15.3653 21.9622C16.9053 21.8301 18.4053 21.5224 19.8434 20.9576C21.6892 20.2327 23.3206 19.2083 24.5538 17.6472C25.4996 16.4499 26.0306 15.1 26.0079 13.5729C25.9881 12.2422 25.5327 11.0461 24.7568 9.96221C24.6558 9.82111 24.5474 9.68508 24.408 9.50124C24.3982 9.59068 24.3915 9.61892 24.3926 9.64687C24.4146 10.2574 24.173 10.7708 23.7863 11.2306C23.3845 11.7083 22.884 12.0682 22.3412 12.3724C20.9007 13.1796 19.326 13.5932 17.705 13.858C17.4935 13.8926 17.444 13.9617 17.445 14.1613C17.4524 15.5937 17.3297 17.0149 16.9645 18.4056C16.6213 19.7126 16.1676 20.9704 15.0814 21.9631ZM10.6971 11.6814C10.7364 11.6268 10.7513 11.615 10.754 11.6009C10.7812 11.4593 10.8056 11.3171 10.8324 11.1754C11.0511 10.0192 11.3693 8.89518 11.9656 7.86367C12.2341 7.39938 12.5536 6.97402 13.0011 6.65714C13.6533 6.1954 14.3517 6.1968 15.0045 6.6608C15.4445 6.97359 15.7595 7.39253 16.0264 7.84801C16.5072 8.66894 16.8058 9.55777 17.0195 10.4757C17.1099 10.8637 17.1819 11.2558 17.2635 11.6518C17.311 11.6518 17.3446 11.6585 17.3744 11.6508C18.2427 11.4278 19.1209 11.2349 19.9755 10.969C20.616 10.7698 21.2083 10.4462 21.6812 9.95604C22.2409 9.3759 22.2379 8.71867 21.6793 8.13704C21.3075 7.7499 20.847 7.49036 20.3591 7.27587C19.0911 6.71838 17.7453 6.45494 16.3747 6.31173C14.4531 6.11093 12.5333 6.13844 10.6227 6.44747C9.52997 6.62422 8.46064 6.88343 7.45822 7.3614C7.00626 7.5769 6.58346 7.8349 6.25115 8.21351C5.79875 8.72893 5.77344 9.30791 6.21586 9.82945C6.40133 10.0481 6.63316 10.2394 6.87349 10.401C7.54238 10.8506 8.29867 11.1152 9.0762 11.3161C9.61846 11.4562 10.1696 11.5637 10.6971 11.6814ZM11.8608 14.1086C11.8591 14.1372 11.8526 14.1842 11.8539 14.231C11.8841 15.3112 12.038 16.3716 12.4048 17.3948C12.5875 17.9045 12.8179 18.3927 13.2141 18.7827C13.7143 19.2751 14.3102 19.292 14.7806 18.7731C15.0525 18.4732 15.2741 18.112 15.4454 17.7455C15.8411 16.8994 16.0048 15.9897 16.0927 15.0677C16.1242 14.7371 16.1359 14.4047 16.1544 14.1086C14.7016 14.1086 13.296 14.1086 11.8608 14.1086ZM15.9897 11.8191C15.9897 11.7484 16.0008 11.6986 15.988 11.6556C15.7881 10.9804 15.6266 10.2902 15.3666 9.63781C15.2232 9.27794 14.943 8.95493 14.67 8.6646C14.413 8.39147 14.0567 8.29895 13.6778 8.44554C13.3267 8.58138 13.0915 8.8482 12.8925 9.14807C12.5217 9.70676 12.312 10.3298 12.1552 10.9717C12.0894 11.2415 12.0419 11.5156 11.9796 11.8195C13.3407 11.9333 14.659 11.9385 15.9897 11.8191Z" fill="#18232E"/>
</svg>
