<svg width="28" height="28" viewBox="0 0 28 28" fill="none" xmlns="http://www.w3.org/2000/svg">
<path d="M13.394 7C17.0501 7.04878 20.0115 7.43853 22.8327 8.58586C24.3157 9.18903 25.7002 9.95368 26.7863 11.1596C27.3995 11.8403 27.8493 12.6098 27.9679 13.5337C28.1372 14.8528 27.6217 15.9379 26.7594 16.8885C25.6763 18.0825 24.2955 18.8366 22.8234 19.4385C20.8205 20.2574 18.7228 20.6844 16.5721 20.8786C13.7874 21.13 11.0244 21.0018 8.29127 20.3962C6.19676 19.9322 4.20638 19.2148 2.44535 17.9595C1.81939 17.5133 1.2611 16.9977 0.813775 16.37C-0.30822 14.7958 -0.268641 13.0243 0.92409 11.4982C1.77463 10.4098 2.89627 9.66704 4.11533 9.05667C5.98267 8.12165 7.9757 7.57948 10.038 7.30939C11.3584 7.13645 12.6919 7.06258 13.394 7ZM14.3788 20.7624C14.8488 20.7353 15.6727 20.7056 16.4932 20.637C18.6049 20.4602 20.6653 20.0437 22.636 19.2514C23.9999 18.703 25.2835 18.0165 26.3287 16.9609C28.1163 15.1557 28.1455 13.0566 26.4136 11.2008C25.6763 10.4107 24.78 9.83513 23.8199 9.3549C21.2139 8.05141 18.4138 7.52603 15.5314 7.35911C13.7446 7.25564 11.9621 7.3301 10.1891 7.58656C8.07989 7.89162 6.03868 8.42414 4.13706 9.40584C2.99592 9.99491 1.94649 10.7075 1.17523 11.7569C0.555746 12.5997 0.240939 13.5323 0.415452 14.5845C0.569351 15.5124 1.0506 16.2721 1.70242 16.9333C2.76728 18.0135 4.0731 18.7196 5.46826 19.2703C8.21476 20.3544 11.09 20.729 14.3788 20.7624Z" fill="#18232E"/>
<path d="M14.5404 20.4524C11.1042 20.4163 8.26537 20.062 5.55367 18.9918C4.2223 18.4664 2.96825 17.8066 1.95298 16.7748C1.1409 15.9496 0.614477 14.998 0.706651 13.7973C0.778859 12.8566 1.23726 12.0976 1.86958 11.4297C2.83037 10.4148 4.02799 9.75588 5.30489 9.22722C7.41754 8.3525 9.63296 7.92461 11.9065 7.75716C14.4359 7.57089 16.9465 7.69727 19.4262 8.24044C21.5407 8.70359 23.5587 9.40671 25.303 10.7342C25.8602 11.1583 26.3414 11.6566 26.7038 12.2588C27.4584 13.5131 27.423 14.7576 26.6283 15.9774C25.9008 17.094 24.8323 17.8131 23.6699 18.4099C21.7285 19.4064 19.6455 19.944 17.4908 20.2068C16.3338 20.3478 15.166 20.4021 14.5404 20.4524ZM13.3556 11.4725C13.3724 11.4764 13.3893 11.4802 13.4061 11.484C13.4447 11.7694 13.4837 12.0548 13.5215 12.3403C13.5304 12.4079 13.5354 12.4761 13.5418 12.544C13.6066 13.2235 13.6067 13.2152 14.282 13.2225C14.493 13.2248 14.5932 13.1601 14.6617 12.9574C14.9489 12.108 15.2544 11.2648 15.5532 10.4194C15.6361 10.1848 15.7189 9.95011 15.8092 9.69453C15.488 9.69453 15.2074 9.69453 14.9416 9.69453C14.741 10.2518 14.5473 10.7897 14.3537 11.3275C14.2426 10.8927 14.1738 10.4625 14.1443 10.0297C14.1264 9.76658 14.0512 9.64048 13.762 9.67277C13.5406 9.69751 13.3141 9.67768 13.1107 9.67768C12.6949 10.8615 12.2894 12.0163 11.876 13.1932C12.2058 13.1932 12.5023 13.1932 12.7576 13.1932C12.9641 12.5989 13.1599 12.0357 13.3556 11.4725ZM10.2133 17.5346C9.96391 17.0702 9.73969 16.6528 9.51258 16.23C10.2749 15.9963 10.6372 15.5794 10.6617 14.9365C10.6789 14.4839 10.4899 14.1373 10.0461 14.0687C9.44626 13.976 8.83002 13.9883 8.32373 13.961C7.90562 15.2115 7.51949 16.3665 7.13112 17.528C7.45806 17.528 7.78877 17.528 8.11553 17.528C8.25706 17.1377 8.39465 16.7585 8.55155 16.3258C8.73884 16.7077 8.89033 17.0344 9.06054 17.3511C9.10236 17.4289 9.20219 17.5209 9.28093 17.5263C9.58131 17.5468 9.88392 17.5346 10.2133 17.5346ZM20.7857 14.0251C20.3734 15.2118 19.9711 16.3696 19.5665 17.5342C19.9137 17.5342 20.254 17.5342 20.5808 17.5342C20.7175 17.144 20.8479 16.7715 21 16.3374C21.181 16.7166 21.3314 17.0412 21.492 17.3608C21.5269 17.4305 21.5956 17.5312 21.653 17.5341C21.9872 17.5506 22.3226 17.5422 22.6846 17.5422C22.5434 17.2868 22.4289 17.0839 22.3185 16.8788C22.2046 16.6672 22.0948 16.4533 21.9806 16.2354C22.7056 16.036 23.0189 15.7044 23.1093 15.0647C23.1914 14.4844 22.9288 14.0869 22.3463 14.0354C21.8031 13.9874 21.2523 14.0251 20.7857 14.0251ZM16.5551 9.68979C16.1421 10.8858 15.7436 12.0393 15.3353 13.2217C15.7244 13.2217 16.096 13.21 16.4667 13.2237C18.0477 13.282 18.8312 12.1232 18.9464 10.946C19.0154 10.2413 18.6238 9.74342 17.9379 9.69616C17.4609 9.66324 16.9797 9.68979 16.5551 9.68979ZM12.7485 13.8282C12.4347 13.9488 12.0932 14.0251 11.8126 14.1985C11.126 14.6228 10.8485 15.3076 10.7854 16.0723C10.7402 16.6192 10.8859 17.1244 11.3941 17.4379C11.9179 17.7611 12.462 17.6886 12.9523 17.3883C13.7335 16.9098 14.1022 16.169 14.0562 15.2703C14.0069 14.3078 13.5858 13.8933 12.7485 13.8282ZM8.28286 13.2151C8.57682 13.2151 8.81983 13.2021 9.06066 13.2191C9.2572 13.2331 9.36539 13.1711 9.43913 12.9843C9.47883 12.8837 9.59014 12.7492 9.67955 12.7408C9.99813 12.7113 10.3212 12.7293 10.6556 12.7293C10.6556 12.907 10.6556 13.0487 10.6556 13.2C10.9895 13.2 11.3093 13.2 11.622 13.2C11.5706 12.0168 11.5197 10.8472 11.4691 9.68154C11.1433 9.68154 10.8216 9.68154 10.571 9.68154C9.80288 10.8677 9.06195 12.0119 8.28286 13.2151ZM20.2523 14.0236C19.4807 14.0236 18.7692 14.0236 18.1044 14.0236C17.6767 15.2125 17.2605 16.3695 16.8341 17.5546C17.5459 17.5546 18.2413 17.5576 18.9366 17.5494C18.9959 17.5487 19.0858 17.4857 19.1077 17.4306C19.1928 17.2163 19.2562 16.9936 19.3377 16.743C18.9221 16.743 18.5447 16.743 18.164 16.743C18.265 16.1827 18.265 16.1825 18.777 16.1829C18.8948 16.1831 19.014 16.196 19.1298 16.1816C19.1969 16.1732 19.2957 16.1371 19.3163 16.0874C19.4104 15.861 19.4818 15.6254 19.5738 15.3565C19.2362 15.3565 18.957 15.3565 18.6596 15.3565C18.6791 15.2758 18.6961 15.221 18.7053 15.1649C18.7551 14.8596 18.9088 14.7165 19.2428 14.7617C19.4806 14.7939 19.7264 14.768 19.9854 14.768C20.0712 14.5285 20.1557 14.293 20.2523 14.0236ZM14.4171 17.5532C14.6222 17.5532 14.7992 17.5404 14.9735 17.5566C15.1811 17.5759 15.313 17.5118 15.4287 17.3283C15.6419 16.9904 15.8863 16.6717 16.1217 16.3478C16.6863 15.5712 17.2532 14.7964 17.825 14.0127C17.4525 14.0127 17.0749 14.0127 16.7512 14.0127C16.308 14.7105 15.8851 15.3763 15.4276 16.0966C15.4276 15.3567 15.4276 14.6913 15.4276 14.021C15.0869 14.021 14.749 14.021 14.4171 14.021C14.4171 15.1988 14.4171 16.3551 14.4171 17.5532ZM8.17513 9.69125C7.7999 9.69125 7.43432 9.69125 7.13725 9.69125C6.7196 10.8873 6.31675 12.0408 5.90617 13.2166C6.5637 13.2166 7.20969 13.2197 7.85562 13.2119C7.91876 13.2111 8.01529 13.1581 8.03773 13.105C8.12719 12.8935 8.19351 12.6722 8.28221 12.4144C7.90103 12.4144 7.56407 12.4144 7.18483 12.4144C7.52367 11.4826 7.8479 10.5911 8.17513 9.69125ZM22.1051 11.0226C21.3775 11.0226 20.6938 11.021 20.0102 11.0261C19.962 11.0265 19.8859 11.0663 19.871 11.1057C19.7845 11.3352 19.7124 11.5701 19.6206 11.848C20.0392 11.848 20.3947 11.848 20.7501 11.848C20.3841 12.034 20.0057 12.1577 19.6437 12.3179C19.51 12.3771 19.4151 12.5225 19.3024 12.6286C19.3265 12.6603 19.3506 12.692 19.3747 12.7238C20.158 12.4574 20.942 12.1927 21.7234 11.9208C21.7785 11.9016 21.8363 11.8378 21.8567 11.7817C21.9422 11.5461 22.014 11.3058 22.1051 11.0226ZM7.10703 14.4932C7.08017 14.4584 7.05332 14.4237 7.02646 14.3889C6.25202 14.6534 5.4771 14.9164 4.70425 15.1855C4.64695 15.2054 4.58027 15.2601 4.56031 15.3141C4.47367 15.5484 4.40282 15.7884 4.30999 16.0766C5.04091 16.0766 5.72235 16.0783 6.40374 16.0729C6.45091 16.0726 6.52477 16.0305 6.5402 15.9903C6.62825 15.7611 6.70235 15.5266 6.79464 15.2542C6.35797 15.2542 5.98244 15.2542 5.60691 15.2542C5.98763 15.0602 6.38348 14.932 6.76649 14.7734C6.89659 14.7195 6.99442 14.5888 7.10703 14.4932Z" fill="#18232E"/>
<path d="M8.80663 15.5141C8.87737 15.281 8.92054 15.1021 8.98916 14.9333C9.01201 14.8771 9.10242 14.8088 9.15784 14.8121C9.33241 14.8229 9.56723 14.7763 9.60569 15.0297C9.63927 15.2508 9.49962 15.4029 9.29389 15.4631C9.15843 15.5027 9.00889 15.495 8.80663 15.5141Z" fill="#18232E"/>
<path d="M21.2666 15.5631C21.3294 15.3549 21.3814 15.229 21.4035 15.0981C21.4402 14.8815 21.5633 14.7891 21.7678 14.847C21.8721 14.8764 22.0485 14.9951 22.039 15.024C21.9888 15.1775 21.9211 15.357 21.7991 15.4466C21.682 15.5326 21.4914 15.5197 21.2666 15.5631Z" fill="#18232E"/>
<path d="M16.6084 12.3711C16.815 11.7681 17.0115 11.1792 17.2238 10.5961C17.2478 10.5301 17.3692 10.4473 17.4313 10.4574C17.5642 10.4791 17.71 10.5323 17.8074 10.6198C17.8718 10.6777 17.9057 10.8323 17.877 10.9185C17.7466 11.3097 17.6276 11.7129 17.4291 12.0706C17.2755 12.3473 16.9648 12.4363 16.6084 12.3711Z" fill="#18232E"/>
<path d="M11.8311 16.1701C11.849 15.7045 11.9476 15.3121 12.2165 14.9812C12.3492 14.818 12.513 14.6894 12.7487 14.76C12.9887 14.8319 13.0807 15.0428 13.0462 15.2408C12.9741 15.6557 12.85 16.0626 12.7298 16.4677C12.705 16.551 12.6125 16.6237 12.5358 16.681C12.2527 16.8923 11.9492 16.783 11.865 16.4405C11.8399 16.3378 11.8381 16.2293 11.8311 16.1701Z" fill="#18232E"/>
<path d="M10.6299 11.8957C10.4546 11.8957 10.2916 11.8957 10.0684 11.8957C10.2513 11.5837 10.4183 11.2988 10.6299 10.938C10.6299 11.3023 10.6299 11.5816 10.6299 11.8957Z" fill="#18232E"/>
</svg>
