<svg width="28" height="28" viewBox="0 0 28 28" fill="none" xmlns="http://www.w3.org/2000/svg">
<g clip-path="url(#clip0_630_14587)">
<path d="M13.9778 18.8664C13.0341 18.8664 12.0844 18.9308 11.1481 18.85C9.99898 18.7508 8.86168 18.5254 7.71797 18.3633C5.92205 18.1088 4.22967 17.5387 2.64351 16.7027C1.57795 16.1412 0.58624 15.4453 0.150411 14.2729C-0.109267 13.5744 -0.0334519 12.8719 0.383678 12.2173C0.984379 11.2746 1.87255 10.6547 2.85823 10.1657C4.93478 9.1355 7.16384 8.62264 9.465 8.30511C11.7165 7.99435 13.9684 7.933 16.2276 8.06667C18.0851 8.17659 19.9229 8.43489 21.7272 8.90894C22.9529 9.231 24.1496 9.62559 25.2611 10.2127C26.2926 10.7575 27.2641 11.4025 27.7682 12.505C28.1081 13.2485 28.0744 13.9799 27.6659 14.6949C27.122 15.6471 26.2419 16.2356 25.2956 16.742C23.9013 17.4882 22.4018 17.9742 20.8502 18.2839C19.7655 18.5003 18.6639 18.6562 17.5622 18.768C16.3734 18.8886 15.1757 18.9262 13.9819 19C13.9805 18.9555 13.9792 18.9109 13.9778 18.8664ZM18.7004 8.99539C18.7348 9.15649 18.7431 9.2264 18.7647 9.29221C19.0687 10.2187 18.8204 11.0694 18.2818 11.8209C17.8666 12.4002 17.3666 12.9354 16.8372 13.4213C15.9866 14.2021 14.9638 14.7483 13.8499 15.0762C13.0477 15.3123 12.2093 15.4854 11.3754 15.5545C10.1732 15.6542 8.96034 15.6339 7.7521 15.6654C7.50013 15.6719 7.45909 15.5366 7.53978 15.347C7.61276 15.1754 7.72161 15.0184 7.79662 14.8474C8.1033 14.1479 8.38889 13.4395 8.70837 12.7457C9.27357 11.5184 9.85841 10.2997 10.4315 9.07583C10.4547 9.02642 10.4418 8.96103 10.4477 8.87444C9.65825 8.99843 8.89675 9.07004 8.16166 9.24598C7.30106 9.45197 6.45996 9.73827 5.6169 10.0089C4.54079 10.3543 3.56181 10.8771 2.73228 11.6324C2.20084 12.1163 1.81034 12.6922 1.79456 13.432C1.77375 14.4062 2.34993 15.0775 3.07192 15.6418C4.00259 16.3692 5.08474 16.8237 6.20399 17.2104C6.5627 17.3344 6.73616 17.2851 6.83089 16.9196C6.88342 16.7171 7.05113 16.6422 7.28505 16.6731C7.86917 16.7505 8.45539 16.8459 9.04263 16.8602C10.2384 16.8894 11.4378 16.9152 12.6312 16.8566C13.6717 16.8054 14.7191 16.7441 15.7195 16.3723C16.5075 16.0795 16.9041 15.484 16.7623 14.6737C16.7374 14.531 16.7134 14.3339 16.7901 14.2382C17.1195 13.8264 17.5379 13.4682 18.0847 13.4324C18.7211 13.3908 19.3657 13.4608 20.0062 13.4924C20.0893 13.4965 20.2111 13.5397 20.2429 13.6004C20.3628 13.8294 20.0783 14.2628 19.8077 14.318C19.4888 14.3829 19.1747 14.4696 18.7955 14.5623C19.8966 15.4725 20.4357 16.4381 19.4851 17.7339C19.6766 17.72 19.7994 17.7335 19.9063 17.6997C20.9468 17.3714 22.0042 17.0822 23.0175 16.6869C23.889 16.3469 24.6817 15.8482 25.3364 15.1673C26.3938 14.0678 26.3029 12.6857 25.2362 11.6174C24.3271 10.707 23.1679 10.1803 21.959 9.76244C21.3263 9.5438 20.6739 9.37386 20.0219 9.21453C19.6087 9.11358 19.1798 9.07258 18.7004 8.99539ZM9.04176 14.5238C9.23486 14.4575 9.32239 14.4313 9.40679 14.3978C10.1438 14.1055 10.7694 13.6572 11.2839 13.0738C12.0758 12.1759 12.8071 11.238 13.144 10.0726C13.2589 9.67507 13.1706 9.3675 12.8864 9.1596C12.6684 9.00005 11.8028 8.87903 11.6303 8.98917C11.5927 9.0132 11.5655 9.05915 11.5447 9.10029C11.4173 9.35223 11.2869 9.60297 11.1689 9.85907C10.7229 10.827 10.2807 11.7965 9.83847 12.766C9.5868 13.3176 9.33774 13.8704 9.04176 14.5238Z" fill="#18232E"/>
</g>
<defs>
<clipPath id="clip0_630_14587">
<rect width="28" height="28" fill="white"/>
</clipPath>
</defs>
</svg>
