<svg width="28" height="28" viewBox="0 0 28 28" fill="none" xmlns="http://www.w3.org/2000/svg">
<path d="M13.5811 7.02363C13.8789 7.02363 14.1776 7.0103 14.4745 7.02666C15.0032 7.05696 15.5306 7.10331 16.0587 7.14421C16.4365 7.1745 16.8161 7.19722 17.192 7.23812C17.5556 7.27781 17.9191 7.32901 18.2808 7.3896C18.6892 7.45989 19.0988 7.53623 19.5002 7.63196C20.0025 7.75315 20.5 7.89311 20.9987 8.03156C21.444 8.15547 21.8897 8.27938 22.3317 8.42025C22.6595 8.52508 22.9824 8.64747 23.3011 8.77865C23.6319 8.91437 23.9643 9.05131 24.2785 9.22066C24.8541 9.52967 25.413 9.86535 25.9071 10.2974C26.1653 10.5228 26.4412 10.7321 26.6724 10.9826C26.9896 11.3268 27.2835 11.6952 27.4889 12.1236C27.5113 12.1699 27.5591 12.2045 27.5798 12.2514C27.6385 12.3894 27.6926 12.5291 27.7418 12.6707C27.7979 12.8331 27.8567 12.9958 27.8969 13.1624C27.9896 13.545 28.0121 13.9295 27.9945 14.3276C27.976 14.7399 27.8788 15.124 27.7346 15.4976C27.6334 15.7602 27.4843 16.0062 27.3407 16.2492C27.2141 16.4613 27.0811 16.6734 26.919 16.8582C26.6959 17.113 26.4545 17.3513 26.1968 17.571C25.8565 17.8591 25.4978 18.126 25.1364 18.389C24.9235 18.5418 24.7009 18.6807 24.4699 18.8046C24.0882 19.0119 23.7062 19.2212 23.309 19.3951C22.8767 19.5844 22.4304 19.7423 21.9839 19.8986C21.511 20.0649 21.0344 20.2237 20.5536 20.3658C20.232 20.4589 19.9055 20.5345 19.5757 20.5924C19.0682 20.6833 18.5581 20.7623 18.0479 20.8378C17.5977 20.9035 17.1472 20.9641 16.6928 21.0168C16.4056 21.0495 16.1171 21.0704 15.8266 21.0789C14.9456 21.1044 14.0646 21.131 13.1833 21.1374C12.7318 21.1414 12.2805 21.1207 11.8312 21.0753C11.2717 21.0171 10.7136 20.9341 10.1595 20.8369C9.43123 20.7086 8.70565 20.5661 7.9828 20.4094C7.63804 20.334 7.30418 20.2082 6.96578 20.104C6.64556 20.0056 6.322 19.9159 6.00723 19.8029C5.68428 19.6868 5.37103 19.5463 5.05171 19.4178C4.74876 19.2966 4.43944 19.1824 4.13951 19.05C3.91542 18.9493 3.6966 18.8371 3.48392 18.7141C3.13794 18.5168 2.79379 18.3157 2.45751 18.103C2.29638 17.9951 2.14328 17.8756 1.99944 17.7455C1.78737 17.5637 1.56591 17.3865 1.37808 17.1805C1.01696 16.7833 0.690371 16.368 0.457701 15.8708C0.235332 15.3955 0.11203 14.9014 0.0223549 14.3951C-0.0152115 14.1831 0.00145103 13.9571 0.0223549 13.7398C0.0750691 13.1642 0.230182 12.6128 0.534652 12.1178C0.72663 11.8059 0.939169 11.5071 1.17086 11.2235C1.74223 10.5228 2.47538 10.0032 3.21035 9.49665C3.57147 9.24702 3.98046 9.06494 4.374 8.86439C4.69695 8.69988 5.02142 8.53326 5.35891 8.40389C5.79092 8.23848 6.23384 8.10094 6.67737 7.96703C7.05424 7.85373 7.43476 7.74981 7.82042 7.66771C8.31423 7.56228 8.8129 7.47837 9.31096 7.39505C9.71267 7.32659 10.1156 7.2663 10.5191 7.20995C10.7894 7.17238 11.0605 7.13633 11.3326 7.11906C12.0821 7.07362 12.8319 7.03908 13.5817 7L13.5811 7.02363ZM14.1479 7.70134C14.4742 8.03459 14.7996 8.36481 15.1231 8.69655C15.4773 9.06009 15.8284 9.42364 16.1835 9.78719C16.5773 10.1865 16.9766 10.5788 17.3677 10.9799C17.7707 11.3935 18.1666 11.8133 18.5656 12.2308C18.7696 12.4441 18.9733 12.6578 19.1767 12.8719C19.187 12.8828 19.1979 12.8934 19.207 12.9046C19.5754 13.2984 19.9407 13.6923 20.3131 14.0825C20.6206 14.4042 20.9366 14.7187 21.2474 15.0359C21.3625 15.154 21.4722 15.2782 21.5864 15.3967C22.0402 15.8705 22.4947 16.344 22.9497 16.8173C23.1069 16.9821 23.2608 17.1505 23.4132 17.3199C23.4811 17.395 23.5492 17.4144 23.6347 17.3502C23.665 17.3274 23.7022 17.3123 23.7353 17.2923C23.9331 17.1711 24.1364 17.0578 24.3272 16.9266C24.5475 16.7751 24.7571 16.6082 24.9704 16.447C25.4642 16.0785 25.8805 15.6163 26.1955 15.0868C26.4037 14.7335 26.5739 14.3597 26.6236 13.9355C26.667 13.5874 26.6567 13.2348 26.5933 12.8897C26.5023 12.4045 26.2905 11.95 25.9774 11.5683C25.6745 11.195 25.3085 10.8715 24.9598 10.5352C24.8134 10.39 24.6508 10.2622 24.4751 10.1544C24.1539 9.96532 23.811 9.81324 23.4886 9.62571C22.9915 9.33578 22.4586 9.13674 21.9133 8.96678C21.4588 8.8247 21.0011 8.68625 20.54 8.56507C19.8974 8.39602 19.253 8.23182 18.6041 8.09034C18.2372 8.01096 17.8591 7.98339 17.4862 7.9331C17.1193 7.88342 16.753 7.82434 16.3847 7.78859C16.0953 7.76072 15.8033 7.76557 15.5127 7.75012C15.0935 7.7283 14.6745 7.70013 14.2552 7.67801C14.2184 7.67993 14.1822 7.68781 14.1479 7.70134ZM13.6269 7.73679L13.6172 7.68922C13.5738 7.67672 13.5292 7.6688 13.4842 7.66559C13.4105 7.66802 13.3375 7.6871 13.2639 7.68922C12.8319 7.70134 12.3996 7.70861 11.9673 7.72164C11.8303 7.72588 11.6946 7.73921 11.5574 7.75375C11.2065 7.79172 10.8561 7.83131 10.5061 7.87251C10.2992 7.89644 10.092 7.91917 9.88627 7.95188C9.56877 8.00187 9.25279 8.05822 8.93711 8.11457C8.57175 8.17789 8.20063 8.21879 7.84284 8.31149C7.36174 8.4354 6.89125 8.59203 6.42258 8.74957C6.10721 8.8553 5.79789 8.98102 5.49009 9.10826C4.8424 9.37571 4.22504 9.71136 3.64842 10.1095C3.30154 10.3492 2.98404 10.6361 2.67533 10.9251C2.42163 11.1564 2.19017 11.411 1.98399 11.6855C1.5953 12.2202 1.36687 12.8225 1.38232 13.4951C1.38929 13.7913 1.40807 14.0925 1.5338 14.3667C1.68528 14.6966 1.83069 15.0332 2.02671 15.3382C2.19939 15.6057 2.42358 15.8442 2.65322 16.0696C2.89073 16.3031 3.1543 16.5122 3.41787 16.717C3.57238 16.8382 3.7484 16.929 3.91624 17.0314C4.06287 17.1223 4.21283 17.2056 4.35855 17.2968C4.4564 17.3574 4.53123 17.3529 4.61212 17.2605C4.71967 17.1369 4.84449 17.0287 4.9578 16.9103C5.35547 16.4942 5.75245 16.0773 6.14871 15.6597C6.38138 15.4158 6.61708 15.1749 6.84763 14.9289C7.25359 14.496 7.65652 14.0604 8.05945 13.6262C8.33968 13.3251 8.61779 13.0221 8.90166 12.7243C9.39275 12.2093 9.88869 11.6979 10.3798 11.1823C10.6406 10.9081 10.8972 10.6294 11.1526 10.3501C11.4362 10.0417 11.711 9.7266 11.997 9.42152C12.3488 9.04242 12.7043 8.66676 13.0634 8.29453C13.2451 8.10336 13.4384 7.9222 13.6269 7.73679ZM19.9344 17.0623L19.9601 17.0202C18.304 14.5378 16.6427 12.0485 14.9762 9.5524L7.92009 14.8114C8.21244 14.8632 8.48722 14.9126 8.7623 14.9611C9.15433 15.0301 9.54726 15.0968 9.93898 15.1683C10.2644 15.2289 10.5882 15.2952 10.9139 15.3546C11.4822 15.4582 12.053 15.5509 12.6201 15.6624C13.1279 15.7621 13.6314 15.8826 14.1376 15.9908C14.6681 16.1041 15.198 16.2183 15.7312 16.324C16.0893 16.394 16.451 16.4452 16.8103 16.5088C17.0612 16.554 17.3096 16.6146 17.5607 16.6576C17.9155 16.7182 18.2724 16.7673 18.6277 16.8245C18.8953 16.868 19.1624 16.9141 19.429 16.963C19.5975 16.9921 19.7653 17.0287 19.9344 17.0623ZM5.11715 17.6567C5.32528 17.7301 5.54129 17.8173 5.76547 17.8834C6.12145 17.9882 6.48075 18.0818 6.84036 18.1742C7.20633 18.2681 7.5723 18.3641 7.9419 18.442C8.41512 18.5417 8.89106 18.6301 9.36791 18.7122C9.77872 18.7828 10.1913 18.8455 10.6052 18.897C10.9499 18.9398 11.2974 18.9643 11.644 18.9913C12.0718 19.0243 12.4996 19.0679 12.9279 19.0776C13.5787 19.0921 14.2306 19.0812 14.8817 19.0815C14.9541 19.0815 15.0265 19.0873 15.0986 19.0837C15.5067 19.064 15.9166 19.0449 16.3228 19.0197C16.5713 19.0046 16.8197 18.9861 17.0669 18.9567C17.4202 18.9146 17.7722 18.8601 18.1251 18.8128C18.3675 18.7807 18.6099 18.7565 18.8492 18.7201C19.1624 18.6732 19.4748 18.6207 19.7865 18.5653C20.0389 18.5202 20.2907 18.4723 20.5406 18.4163C20.7327 18.3729 20.9211 18.3139 21.112 18.2648C21.3973 18.1896 21.6876 18.1272 21.9684 18.04C22.2353 17.9573 22.4943 17.8485 22.7561 17.7525C22.7961 17.7379 22.8382 17.7292 22.8791 17.7176L22.8724 17.657L5.11715 17.6567Z" fill="black"/>
</svg>
