<svg width="28" height="28" viewBox="0 0 28 28" fill="none" xmlns="http://www.w3.org/2000/svg">
<g clip-path="url(#clip0_630_14682)">
<path d="M14.0926 28C11.9612 27.9862 9.98057 27.8723 8.02797 27.3992C4.66696 26.5847 2.4786 24.4985 1.35755 21.2154C0.799101 19.5801 0.491522 17.8923 0.284052 16.1796C0.0579159 14.3141 -0.052061 12.4432 0.0239122 10.5656C0.0852615 9.04656 0.299271 7.54871 0.821453 6.11203C1.68403 3.73893 3.32702 2.151 5.62905 1.23058C7.05851 0.659045 8.55158 0.37448 10.0726 0.20456C12.0299 -0.014133 13.9918 -0.0435168 15.9557 0.0506559C17.9298 0.14531 19.8824 0.377009 21.7748 1.00491C25.0676 2.09729 27.0031 4.38573 27.6652 7.80714C28.0477 9.7832 28.0609 11.776 27.9101 13.7757C27.7847 15.4383 27.6142 17.0946 27.2796 18.7298C26.9272 20.4525 26.416 22.1155 25.4774 23.6153C24.2062 25.6467 22.3332 26.7917 20.0754 27.3721C18.0656 27.8884 16.0149 27.9849 14.0926 28ZM13.6033 26.7597C15.7636 26.7598 17.5535 26.6672 19.3035 26.1863C21.1384 25.6821 22.6529 24.7128 23.7131 23.0812C24.3999 22.0241 24.8446 20.8593 25.1499 19.6421C25.8554 16.8295 26.0999 13.9634 26.0336 11.0696C26.0045 9.79669 25.8465 8.53631 25.4912 7.30701C24.8093 4.94643 23.3611 3.2966 21.0928 2.39185C19.7296 1.84825 18.3068 1.58728 16.857 1.45999C14.9612 1.29345 13.0637 1.29116 11.1671 1.45807C9.81043 1.57753 8.47703 1.80875 7.1912 2.28479C5.07144 3.06972 3.56148 4.48833 2.75479 6.64034C2.25496 7.97393 2.03988 9.36773 1.97615 10.7833C1.88639 12.7742 1.97508 14.7601 2.25306 16.7345C2.4723 18.2923 2.78677 19.8257 3.3596 21.2984C4.36128 23.8738 6.15408 25.5304 8.81505 26.2175C10.5068 26.6543 12.2283 26.7651 13.6033 26.7597Z" fill="#18232E"/>
<path d="M14.0069 2.77651C15.6192 2.80071 17.2191 2.90488 18.7818 3.36563C21.7036 4.22715 23.4031 6.20971 24.0325 9.1829C24.4189 11.0081 24.3878 12.8497 24.2225 14.6971C24.0905 16.1725 23.8663 17.6292 23.4177 19.0425C22.8606 20.7977 22.0064 22.3605 20.5203 23.4959C19.4811 24.2899 18.2947 24.7383 17.0236 24.9613C14.9031 25.3334 12.7804 25.3253 10.6685 24.9031C7.85022 24.3395 5.94149 22.6616 4.87299 19.9763C4.29909 18.5339 4.00317 17.0251 3.81817 15.4897C3.65445 14.1307 3.57978 12.7662 3.6491 11.3985C3.73411 9.71939 4.03384 8.0904 4.88179 6.61194C5.92842 4.78713 7.55774 3.7876 9.52448 3.26917C10.9952 2.8814 12.4974 2.79698 14.0069 2.77651ZM19.0166 4.74016C19.0166 4.95512 19.0146 5.12396 19.017 5.2928C19.0493 7.59268 19.0946 9.89256 19.1097 12.1926C19.1166 13.2547 18.9321 14.2956 18.5246 15.2784C17.3603 18.0868 16.0776 20.8394 14.6823 23.5381C14.5088 23.8737 14.5733 24.0004 14.9402 23.9758C15.5611 23.934 16.1847 23.8947 16.7991 23.8009C18.1325 23.5972 19.3397 23.0899 20.3444 22.1537C21.4325 21.1399 22.0762 19.8536 22.4687 18.439C23.2023 15.7955 23.3937 13.1029 23.021 10.3817C22.8418 9.07391 22.4321 7.83895 21.6394 6.76187C20.9668 5.84808 20.1003 5.19477 19.0166 4.74016ZM13.4938 23.9807C13.4019 23.8065 13.3222 23.6694 13.255 23.5263C12.0792 21.023 10.8962 18.5231 9.73385 16.0134C9.18575 14.83 8.93287 13.5741 8.94713 12.2634C8.97246 9.91641 8.99148 7.56932 9.013 5.22223C9.01371 5.14226 9.01312 5.06242 9.01312 4.95416C7.60589 5.4809 6.55546 6.36627 5.87147 7.68613C5.20078 8.98046 4.92471 10.3809 4.88762 11.8196C4.85801 12.9661 4.90498 14.1187 4.99034 15.2629C5.0977 16.7026 5.40183 18.1084 5.93698 19.4539C6.5211 20.9225 7.38796 22.1628 8.75298 22.9951C10.113 23.8242 11.6218 24.0409 13.1702 24.0837C13.2702 24.0868 13.3724 24.0212 13.4938 23.9807ZM10.3963 4.42597C10.4126 4.4951 10.4193 4.54014 10.4337 4.58241C10.6761 5.29268 10.9268 6.00017 11.1613 6.71321C11.9993 9.26154 12.9969 11.7563 13.6653 14.3616C13.6859 14.4419 13.7198 14.5235 13.7664 14.5912C13.9017 14.7875 14.1634 14.7622 14.254 14.5397C14.4838 13.9753 14.7273 13.4152 14.9249 12.8393C15.6979 10.5854 16.4558 8.32607 17.2181 6.06834C17.4001 5.52931 17.5781 4.98896 17.766 4.42537C15.2912 4.01544 12.854 4.00822 10.3963 4.42597Z" fill="#18232E"/>
</g>
<defs>
<clipPath id="clip0_630_14682">
<rect width="28" height="28" fill="white"/>
</clipPath>
</defs>
</svg>
