<svg width="28" height="28" viewBox="0 0 28 28" fill="none" xmlns="http://www.w3.org/2000/svg">
<path d="M13.7143 28C13.6796 27.9907 13.6452 27.9756 13.6099 27.973C13.4237 27.9592 13.2368 27.9521 13.0507 27.9364C12.7424 27.9102 12.4332 27.889 12.1267 27.8483C11.5628 27.7732 11.0043 27.6657 10.4541 27.5204C8.73481 27.0665 7.15076 26.3241 5.72298 25.2629C3.11942 23.3279 1.37086 20.7998 0.494761 17.6742C0.297826 16.9715 0.168808 16.2556 0.0863854 15.5302C0.00110562 14.7807 -0.0196648 14.0292 0.0180297 13.2779C0.108584 11.4703 0.51674 9.7346 1.29778 8.09964C2.98612 4.56566 5.67726 2.12421 9.35891 0.780673C10.1685 0.485185 11.004 0.284606 11.8569 0.156634C12.2937 0.0910559 12.7313 0.0341554 13.1731 0.022292C13.6377 0.00976948 14.103 -0.00868474 14.5672 0.00460669C14.9577 0.0157012 15.3476 0.0632648 15.7368 0.104347C16.3667 0.170805 16.9861 0.296469 17.5972 0.461239C20.1931 1.16118 22.4104 2.49461 24.2428 4.45932C25.8466 6.17908 26.9439 8.18202 27.5405 10.4572C27.721 11.1452 27.8512 11.8431 27.9124 12.5523C27.9398 12.8696 27.9488 13.1886 27.9689 13.5066C27.974 13.5875 27.9896 13.6677 28.0003 13.7482C28.0003 13.9123 28.0003 14.0764 28.0003 14.2406C27.9896 14.312 27.9736 14.383 27.969 14.4547C27.9489 14.7727 27.9387 15.0915 27.9128 15.409C27.8644 15.9998 27.7644 16.5834 27.6262 17.1592C26.881 20.2656 25.2692 22.8325 22.7973 24.8543C21.2409 26.1272 19.4799 27.0071 17.5361 27.5205C16.986 27.6658 16.4277 27.7735 15.8638 27.8482C15.5574 27.8888 15.2484 27.9106 14.9401 27.9364C14.7404 27.9532 14.5399 27.9611 14.34 27.9753C14.3045 27.9778 14.2697 27.9915 14.2346 28.0002C14.0611 28 13.8877 28 13.7143 28ZM13.9885 27.0977C21.3631 27.0753 27.0982 21.1059 27.1144 14.0119C27.1306 6.89012 21.3827 0.879974 14.0079 0.870967C6.74524 0.862069 0.88918 6.7226 0.876102 13.9583C0.863134 21.1883 6.69271 27.0696 13.9885 27.0977Z" fill="#18232E"/>
<path d="M5.70613 13.9663C5.72569 9.35178 9.45239 5.73091 13.9346 5.69949C18.5297 5.66742 22.3039 9.40429 22.2803 14.039C22.258 18.4255 18.7427 22.2218 14.0838 22.2634C9.38349 22.3053 5.7158 18.542 5.70613 13.9663ZM21.8467 14.003C21.8532 13.9503 21.8606 13.9194 21.8604 13.8887C21.8555 13.3493 21.7962 12.8158 21.6789 12.2895C21.1151 9.7592 19.3429 7.66575 16.9393 6.69152C16.3166 6.43909 15.6728 6.26268 15.0037 6.18831C14.7235 6.15723 14.4417 6.13877 14.1604 6.11812C14.1043 6.11406 14.0469 6.12636 13.9797 6.13207C13.9797 6.47062 13.9797 6.79368 13.9797 7.11685C13.9797 7.44507 13.9797 7.77329 13.9797 8.10151C13.9797 8.42523 13.9797 8.74884 13.9797 9.07255C13.9797 9.39627 13.9797 9.71988 13.9797 10.0436C13.9797 10.3718 13.9797 10.7 13.9797 11.0283C13.9797 11.352 13.9797 11.6756 13.9797 11.9993C13.9797 12.3275 13.9808 12.6557 13.9794 12.984C13.978 13.3057 13.9855 13.6277 13.9743 13.9629C13.895 13.9629 13.832 13.9629 13.769 13.9629C11.297 13.9629 8.82499 13.9629 6.35298 13.963C6.30286 13.963 6.25264 13.9635 6.20253 13.9659C6.1534 13.9683 6.12846 13.9963 6.12769 14.0452C6.12703 14.0908 6.12571 14.1364 6.12736 14.182C6.14725 14.7157 6.20736 15.2445 6.33243 15.7645C6.75915 17.5378 7.68635 18.996 9.10819 20.1358C10.0621 20.9004 11.1405 21.4141 12.3394 21.6627C12.677 21.7327 13.0207 21.776 13.3632 21.8198C13.5389 21.8423 13.7177 21.8421 13.8953 21.8463C13.9923 21.8486 14.0063 21.8313 14.0123 21.7371C14.0155 21.6871 14.0138 21.6368 14.0138 21.5867C14.0138 19.1294 14.0138 16.6723 14.0142 14.215C14.0142 14.1485 14.0201 14.0818 14.0239 14.0028C16.6367 14.003 19.2347 14.003 21.8467 14.003Z" fill="#18232E"/>
<path d="M6.24484 9.06959C5.44007 8.31187 4.64848 7.56634 3.85173 6.81619C3.90217 6.75138 3.94305 6.69734 3.98558 6.6445C4.45748 6.05814 4.94938 5.48925 5.49161 4.96627C5.62524 4.83731 5.77525 4.72296 5.92801 4.61674C6.14143 4.46822 6.38649 4.44296 6.63596 4.48953C6.95972 4.54995 7.22852 4.8629 7.24874 5.19222C7.25479 5.29119 7.24973 5.39093 7.24973 5.50792C7.29061 5.49771 7.33633 5.48672 7.38172 5.47508C7.90087 5.34172 8.36771 5.63425 8.46651 6.15613C8.502 6.34341 8.45387 6.51785 8.37518 6.68559C8.27715 6.89452 8.13187 7.06961 7.97384 7.23515C7.60876 7.61774 7.24336 7.9999 6.87982 8.38392C6.71366 8.55935 6.55145 8.7384 6.38748 8.9158C6.34429 8.96227 6.30111 9.00873 6.24484 9.06959ZM6.28264 8.03879C6.3277 7.99639 6.36518 7.96464 6.39858 7.92916C6.76729 7.53844 7.13588 7.1476 7.50304 6.75556C7.56206 6.69262 7.61953 6.62682 7.66778 6.55575C7.70547 6.50028 7.73833 6.43722 7.75515 6.37274C7.80768 6.17118 7.66635 5.99762 7.45876 5.99575C7.36238 5.99487 7.28039 6.03013 7.20775 6.08725C7.15061 6.13207 7.09676 6.18183 7.04631 6.23412C6.64849 6.64736 6.25165 7.06159 5.85525 7.47615C5.83141 7.50109 5.81338 7.53173 5.78448 7.57062C5.95152 7.72759 6.11285 7.87918 6.28264 8.03879ZM5.31412 7.12651C5.35577 7.08938 5.38764 7.06478 5.41501 7.036C5.78173 6.64967 6.15011 6.26476 6.512 5.87404C6.58783 5.79209 6.65233 5.69378 6.69915 5.59239C6.76113 5.45805 6.71662 5.30932 6.61211 5.2199C6.50573 5.12884 6.36594 5.11808 6.2322 5.20079C6.16319 5.24352 6.09901 5.29636 6.03988 5.35238C5.62942 5.74113 5.25258 6.16129 4.8908 6.59507C4.87157 6.61814 4.85959 6.64714 4.8397 6.68119C4.99883 6.83058 5.15346 6.97569 5.31412 7.12651Z" fill="#18232E"/>
<path d="M12.7323 2.68245C12.7323 2.73968 12.7338 2.79691 12.732 2.85403C12.7097 3.55529 12.6871 4.25655 12.664 4.95781C12.6604 5.06766 12.6471 5.0815 12.554 5.09358C12.3511 5.11983 12.1485 5.14741 11.9456 5.17311C11.9244 5.17575 11.9021 5.16948 11.8659 5.16586C11.9075 4.04817 11.9487 2.93565 11.9901 1.8196C12.084 1.80445 12.159 1.78731 12.235 1.78094C12.4889 1.75974 12.7432 1.74073 12.9975 1.72415C13.1126 1.71668 13.1148 1.71931 13.1588 1.82729C13.3887 2.39234 13.6178 2.95772 13.8465 3.52332C13.8684 3.57737 13.8857 3.63328 13.9109 3.70424C13.9287 3.67953 13.9403 3.66854 13.9457 3.65514C14.1913 3.04253 14.437 2.42991 14.6806 1.81653C14.708 1.74765 14.7464 1.71514 14.8237 1.72228C15.1499 1.75282 15.4763 1.78006 15.8025 1.80906C15.8106 1.80983 15.818 1.81741 15.8454 1.83301C15.893 2.93323 15.9283 4.04586 15.9712 5.16597C15.933 5.16839 15.9066 5.17421 15.8814 5.17091C15.6876 5.1462 15.4942 5.11797 15.3002 5.09457C15.1903 5.08139 15.1786 5.07304 15.1746 4.96078C15.1496 4.25051 15.1248 3.54024 15.1003 2.82997C15.0987 2.78109 15.1001 2.7321 15.1001 2.66641C15.0773 2.68552 15.0604 2.69288 15.0549 2.70541C14.8047 3.26672 14.554 3.82793 14.3077 4.39089C14.2727 4.47097 14.2251 4.49744 14.141 4.49426C13.9908 4.48855 13.84 4.48899 13.6898 4.49415C13.6108 4.49689 13.5658 4.47207 13.533 4.39704C13.2862 3.83419 13.0357 3.27298 12.7858 2.71145C12.7806 2.6998 12.7701 2.69047 12.762 2.68014C12.7519 2.68091 12.742 2.68168 12.7323 2.68245Z" fill="#18232E"/>
<path d="M20.9446 3.84012C21.1647 4.01665 21.3694 4.18087 21.5831 4.35234C21.1618 4.98384 20.7486 5.60327 20.33 6.2306C20.3523 6.22939 20.3666 6.23258 20.3768 6.22742C20.8891 5.96939 21.401 5.71037 21.9133 5.45245C22.0221 5.39764 22.0236 5.39895 22.1118 5.48573C22.2386 5.61041 22.3649 5.73563 22.4907 5.8613C22.5655 5.936 22.5666 5.93753 22.5162 6.03617C22.2556 6.54729 21.994 7.05797 21.7332 7.56897C21.7294 7.57644 21.7307 7.58644 21.7269 7.61742C22.3591 7.2022 22.9793 6.79478 23.5971 6.38911C23.6939 6.4526 24.0274 6.85409 24.1191 7.01776C23.1924 7.60149 22.2651 8.18565 21.3319 8.77366C21.126 8.53134 20.9293 8.29978 20.7282 8.06295C21.0332 7.47879 21.3364 6.89825 21.6543 6.28937C21.0444 6.60342 20.4581 6.90528 19.8678 7.20912C19.6322 7.01128 19.4031 6.81883 19.1658 6.61957C19.757 5.69576 20.3436 4.7792 20.9446 3.84012Z" fill="#18232E"/>
</svg>
