<svg width="28" height="28" viewBox="0 0 28 28" fill="none" xmlns="http://www.w3.org/2000/svg">
<path d="M0.721591 13.0024L0.749232 14.0964C0.749317 14.1015 0.747818 14.1066 0.744934 14.1109C0.742051 14.1153 0.737921 14.1186 0.733097 14.1205C0.728273 14.1224 0.722985 14.1228 0.717939 14.1216C0.712893 14.1204 0.70833 14.1177 0.70486 14.1138L0.00946238 13.3391C0.00531964 13.3345 0.00299244 13.3286 0.00291577 13.3224V12.5965C0.00281198 12.59 0.00515118 12.5838 0.00946238 12.579L0.526646 12.0116C0.52907 12.0091 0.532004 12.007 0.53526 12.0056C0.538516 12.0043 0.542024 12.0036 0.545559 12.0036L4.10402 12.0189C4.11055 12.019 4.11681 12.0216 4.12148 12.0262L4.66848 12.5688C4.67306 12.5735 4.67566 12.5797 4.67576 12.5863L4.68521 13.6708C4.68529 13.6759 4.68383 13.6809 4.68104 13.6852C4.67825 13.6894 4.67425 13.6927 4.66955 13.6947C4.66485 13.6967 4.65967 13.6972 4.65469 13.6962C4.6497 13.6951 4.64513 13.6927 4.64157 13.689L3.54537 12.555C3.54303 12.5525 3.54022 12.5505 3.53709 12.5491C3.53397 12.5478 3.5306 12.547 3.52719 12.547H1.14057C1.13716 12.547 1.13379 12.5478 1.13067 12.5491C1.12755 12.5505 1.12473 12.5525 1.12239 12.555L0.728864 12.9849C0.724288 12.9896 0.721684 12.9958 0.721591 13.0024Z" fill="#18232E"/>
<path d="M9.9538 12.9318C9.9538 12.9173 9.94628 12.91 9.93125 12.91H9.39515C9.38012 12.91 9.37115 12.9175 9.36824 12.9325L8.92671 15.4501C8.92089 15.484 8.90052 15.5005 8.86561 15.4995L8.65248 15.4901C8.6258 15.4891 8.61053 15.4753 8.60665 15.4486C8.56785 15.1722 8.52082 14.9011 8.46553 14.6354C8.43983 14.5122 8.4391 14.3881 8.46335 14.263C8.59574 13.5768 8.73346 12.8377 8.87652 12.0458C8.88137 12.0162 8.89858 12.0015 8.92816 12.0015H10.1284C10.1425 12.0014 10.1565 12.0045 10.1693 12.0104C10.1821 12.0163 10.1935 12.0249 10.2026 12.0356L10.6659 12.5696C10.6834 12.589 10.6921 12.6117 10.6921 12.6379V15.4719C10.6921 15.5083 10.6739 15.5265 10.6376 15.5265H10.0033C9.97029 15.5265 9.9538 15.51 9.9538 15.477V12.9318Z" fill="#18232E"/>
<path d="M15.4842 12.547H13.1056C13.1022 12.547 13.0988 12.5477 13.0957 12.5491C13.0926 12.5505 13.0898 12.5525 13.0875 12.555L12.7034 12.9769C12.699 12.9816 12.6967 12.9879 12.6968 12.9944L12.7179 14.1022C12.7179 14.1072 12.7164 14.112 12.7136 14.1161C12.7108 14.1202 12.7068 14.1234 12.7022 14.1252C12.6975 14.127 12.6925 14.1274 12.6876 14.1263C12.6828 14.1251 12.6784 14.1226 12.675 14.1189L11.9629 13.3377C11.9587 13.3331 11.9563 13.3272 11.9563 13.321V12.5994C11.9563 12.5932 11.9587 12.5872 11.9629 12.5827L12.4953 12.0109C12.4977 12.0084 12.5005 12.0064 12.5036 12.005C12.5067 12.0036 12.5101 12.0029 12.5135 12.0029L16.0676 12.0196C16.0742 12.0197 16.0805 12.0223 16.0851 12.0269L16.6306 12.5732C16.6353 12.5778 16.6379 12.5841 16.6379 12.5907L16.643 13.6759C16.6431 13.681 16.6418 13.6859 16.639 13.6902C16.6362 13.6944 16.6323 13.6977 16.6276 13.6996C16.6229 13.7015 16.6178 13.7019 16.6129 13.7008C16.608 13.6997 16.6035 13.6971 16.6001 13.6934L15.5017 12.5543C15.4971 12.5496 15.4908 12.547 15.4842 12.547Z" fill="#18232E"/>
<path d="M18.7888 14.9445L21.3652 14.9438C21.3704 14.9439 21.3755 14.9424 21.3798 14.9394L21.9188 14.5539C21.9219 14.5517 21.9244 14.5487 21.9262 14.5453C21.928 14.5419 21.9289 14.5381 21.929 14.5343L21.9283 12.6256C21.9282 12.6219 21.9273 12.6183 21.9257 12.6151C21.924 12.6118 21.9217 12.6089 21.9188 12.6067L21.2176 12.0444C21.2135 12.0412 21.2104 12.0368 21.2089 12.0319C21.2074 12.0269 21.2075 12.0216 21.2092 12.0167C21.2109 12.0118 21.2141 12.0075 21.2184 12.0045C21.2226 12.0015 21.2277 11.9999 21.2329 12L21.9668 12.0022C21.9724 12.0023 21.9778 12.0044 21.9821 12.008L22.676 12.5805C22.6788 12.5828 22.681 12.5857 22.6825 12.589C22.684 12.5922 22.6848 12.5958 22.6848 12.5994L22.6855 14.9045C22.6857 14.911 22.6833 14.9172 22.6789 14.922L22.1348 15.4966C22.1325 15.4991 22.1297 15.5012 22.1266 15.5025C22.1235 15.5039 22.1201 15.5046 22.1167 15.5046H18.009C18.0024 15.5046 17.9962 15.502 17.9915 15.4974C17.9869 15.4927 17.9843 15.4865 17.9843 15.4799V12.0269C17.9843 12.0204 17.9869 12.0141 17.9915 12.0094C17.9962 12.0048 18.0024 12.0022 18.009 12.0022H20.771C20.7766 12.0023 20.7819 12.0044 20.7862 12.008L21.4358 12.5368C21.44 12.54 21.443 12.5445 21.4445 12.5495C21.446 12.5545 21.4458 12.5599 21.4441 12.5649C21.4423 12.5698 21.439 12.5741 21.4346 12.577C21.4302 12.5799 21.4251 12.5814 21.4198 12.5812L18.7895 12.5761C18.7829 12.5761 18.7767 12.5787 18.772 12.5833C18.7674 12.588 18.7648 12.5943 18.7648 12.6008L18.764 14.9198C18.764 14.9264 18.7667 14.9326 18.7713 14.9373C18.7759 14.9419 18.7822 14.9445 18.7888 14.9445Z" fill="#18232E"/>
<path d="M25.0438 12.9252L24.264 15.4872C24.2626 15.4918 24.2597 15.4959 24.2558 15.4988C24.2518 15.5017 24.2471 15.5032 24.2422 15.5032L23.5402 15.5053C23.5367 15.5054 23.5332 15.5046 23.53 15.503C23.5268 15.5015 23.5241 15.4992 23.522 15.4963C23.5198 15.4935 23.5184 15.4902 23.5178 15.4867C23.5172 15.4832 23.5174 15.4796 23.5184 15.4762L24.5128 12.0313C24.5142 12.0267 24.5169 12.0227 24.5207 12.0198C24.5245 12.017 24.5291 12.0154 24.5339 12.0153L25.6359 12.0007C25.6407 12.0006 25.6454 12.002 25.6493 12.0048C25.6532 12.0075 25.6562 12.0115 25.6577 12.016L25.9705 12.8809C25.9718 12.8843 25.9722 12.888 25.9718 12.8916C25.9714 12.8952 25.97 12.8987 25.968 12.9017C25.9659 12.9047 25.9631 12.9071 25.9599 12.9088C25.9566 12.9105 25.953 12.9114 25.9494 12.9114L25.0656 12.9092C25.0607 12.9092 25.056 12.9107 25.052 12.9136C25.0481 12.9165 25.0452 12.9206 25.0438 12.9252Z" fill="#18232E"/>
<path d="M26.7175 12.0204L27.9985 15.4697C27.9999 15.4737 28.0003 15.4779 27.9998 15.482C27.9992 15.4862 27.9976 15.4901 27.9952 15.4936C27.9928 15.497 27.9895 15.4998 27.9858 15.5017C27.9821 15.5036 27.978 15.5046 27.9738 15.5046L27.2238 15.5053C27.2185 15.5054 27.2133 15.5038 27.2088 15.5008C27.2044 15.4979 27.201 15.4936 27.1991 15.4886L25.9159 12.0364C25.9144 12.0324 25.9139 12.0281 25.9144 12.0238C25.9149 12.0195 25.9164 12.0155 25.9188 12.012C25.9213 12.0085 25.9246 12.0056 25.9284 12.0036C25.9322 12.0017 25.9364 12.0007 25.9407 12.0007L26.6928 12.0036C26.6981 12.0036 26.7034 12.0051 26.7078 12.0081C26.7122 12.0111 26.7156 12.0154 26.7175 12.0204Z" fill="#18232E"/>
<path d="M6.66079 12.95L6.65934 15.4719C6.65934 15.4991 6.64576 15.5126 6.61861 15.5126H5.94503C5.91884 15.5126 5.90575 15.4998 5.90575 15.4741L5.90648 12.6598C5.90648 12.635 5.91448 12.613 5.93048 12.5936L6.39384 12.0378C6.40645 12.0228 6.42269 12.0153 6.44257 12.0153H7.76063C7.76703 12.0153 7.77322 12.0176 7.77813 12.0217C7.78304 12.0258 7.78636 12.0315 7.78754 12.0378C7.98394 13.1541 8.18131 14.2714 8.37965 15.3897C8.38498 15.4202 8.39493 15.4491 8.40947 15.4763C8.41209 15.4814 8.41335 15.4871 8.41314 15.4928C8.41292 15.4985 8.41124 15.5041 8.40824 15.509C8.40525 15.5139 8.40105 15.5179 8.39604 15.5207C8.39103 15.5235 8.38539 15.525 8.37965 15.525L7.6908 15.5264C7.66752 15.5264 7.65394 15.5148 7.65006 15.4915L7.24345 12.9471C7.24102 12.933 7.23253 12.926 7.21799 12.926L6.68553 12.9253C6.66904 12.9253 6.66079 12.9335 6.66079 12.95Z" fill="#18232E"/>
<path d="M1.12312 14.9438H3.52282C3.52848 14.9439 3.53395 14.9418 3.5381 14.938L3.94763 14.5517C3.94988 14.5497 3.95169 14.5472 3.95295 14.5445C3.9542 14.5417 3.95486 14.5387 3.9549 14.5357L3.94763 13.3806C3.94754 13.3762 3.94879 13.3718 3.95123 13.3681C3.95367 13.3645 3.95717 13.3616 3.96127 13.3599C3.96537 13.3583 3.96988 13.3579 3.9742 13.3589C3.97852 13.3598 3.98244 13.3621 3.98545 13.3653L4.69394 14.0746C4.69805 14.0786 4.70041 14.0841 4.70049 14.0898V14.8914C4.70041 14.8972 4.69805 14.9027 4.69394 14.9067L4.11202 15.4981C4.10994 15.5002 4.10745 15.5019 4.10469 15.503C4.10194 15.5041 4.09899 15.5047 4.09602 15.5046H0.590659C0.587686 15.5047 0.584733 15.5041 0.581981 15.503C0.579229 15.5019 0.576736 15.5002 0.574656 15.4981L0.0109178 14.9292C0.00680625 14.9252 0.00445322 14.9197 0.00437124 14.914L6.82056e-06 13.7203C-0.000106344 13.7158 0.0011911 13.7113 0.0037194 13.7076C0.00624769 13.7038 0.00988162 13.7009 0.0141176 13.6993C0.0183536 13.6977 0.022982 13.6975 0.0273613 13.6987C0.0317406 13.6998 0.035654 13.7023 0.0385592 13.7058L1.10639 14.9365C1.10849 14.9389 1.11107 14.9407 1.11396 14.942C1.11684 14.9432 1.11997 14.9439 1.12312 14.9438Z" fill="#18232E"/>
<path d="M15.9265 14.5314L15.9258 13.3908C15.9257 13.3863 15.9271 13.382 15.9295 13.3782C15.932 13.3745 15.9355 13.3716 15.9397 13.3699C15.9438 13.3682 15.9484 13.3677 15.9527 13.3686C15.9571 13.3695 15.9612 13.3716 15.9643 13.3748L16.6466 14.0724C16.6487 14.0745 16.6504 14.077 16.6515 14.0797C16.6526 14.0825 16.6532 14.0854 16.6532 14.0884L16.6539 14.8944C16.6539 14.8973 16.6533 14.9003 16.6522 14.903C16.6511 14.9058 16.6494 14.9083 16.6474 14.9104L16.0822 15.4974C16.0801 15.4996 16.0776 15.5014 16.0749 15.5026C16.0721 15.5039 16.0692 15.5046 16.0662 15.5046H12.5455C12.5426 15.5047 12.5396 15.5041 12.5369 15.503C12.5341 15.5018 12.5316 15.5002 12.5295 15.4981L11.9651 14.9249C11.963 14.9228 11.9613 14.9203 11.9602 14.9176C11.9591 14.9148 11.9585 14.9119 11.9585 14.9089L11.952 13.7203C11.9517 13.7156 11.953 13.7109 11.9556 13.7069C11.9582 13.703 11.962 13.6999 11.9664 13.6982C11.9709 13.6965 11.9757 13.6963 11.9803 13.6975C11.9849 13.6987 11.989 13.7014 11.992 13.705L13.0736 14.9358C13.0757 14.9383 13.0782 14.9402 13.0811 14.9416C13.084 14.943 13.0872 14.9437 13.0903 14.9438H15.4908C15.4964 14.9439 15.5019 14.9418 15.5061 14.938L15.9192 14.5474C15.9214 14.5453 15.9232 14.5429 15.9245 14.5401C15.9257 14.5374 15.9264 14.5344 15.9265 14.5314Z" fill="#18232E"/>
</svg>
