<svg width="28" height="28" viewBox="0 0 28 28" fill="none" xmlns="http://www.w3.org/2000/svg">
<path d="M27.9997 24.901C27.546 24.901 27.1203 24.9002 26.6945 24.9011C25.527 24.9037 24.3594 24.9057 23.1919 24.9103C21.6433 24.9163 20.0948 24.9236 18.5462 24.9339C18.4416 24.9346 18.3825 24.9068 18.3279 24.8122C17.4336 23.2618 16.5347 21.7141 15.6362 20.1661C15.0759 19.2008 14.5145 18.2362 13.9538 17.2711C13.9308 17.2314 13.9107 17.1901 13.8799 17.1318C13.9349 17.1272 13.9776 17.1205 14.0204 17.1204C17.0132 17.1199 20.0061 17.1204 22.9989 17.1179C23.0939 17.1179 23.1432 17.1465 23.194 17.2278C24.1103 18.6951 25.0317 20.1592 25.9506 21.6249C26.6285 22.7062 27.3042 23.7888 27.9997 24.901Z" fill="#18232E"/>
<path d="M0 25C0.207468 24.6524 0.401368 24.3265 0.596234 24.0012C1.16201 23.0568 1.72796 22.1124 2.29429 21.1683C2.82911 20.2766 3.36418 19.3852 3.89976 18.494C4.15696 18.066 4.41353 17.6377 4.67687 17.2134C4.70467 17.1686 4.77646 17.1239 4.82796 17.1238C7.75885 17.1197 10.6897 17.1202 13.6206 17.1206C13.6354 17.1206 13.6502 17.1247 13.688 17.1302C13.5494 17.362 13.4166 17.5856 13.2824 17.8083C12.438 19.21 11.5929 20.6113 10.7487 22.0132C10.1672 22.9787 9.58813 23.9456 9.00193 24.9083C8.97333 24.9553 8.88692 24.9927 8.82723 24.993C7.6506 24.9988 6.47397 24.9987 5.29734 24.9992C3.76139 24.9998 2.22544 24.9998 0.689487 25C0.467653 25 0.245861 25 0 25Z" fill="#18232E"/>
<path d="M13.8181 2C14.0469 2.34364 14.262 2.66792 14.4784 2.99138C15.1313 3.96783 15.7847 4.94399 16.4381 5.9202C17.0487 6.83249 17.6604 7.74417 18.2694 8.65746C18.3624 8.79684 18.51 8.94261 18.512 9.08714C18.514 9.2269 18.3607 9.36873 18.2759 9.50978C17.249 11.2169 16.2227 12.9244 15.1953 14.6312C14.7387 15.3898 14.2801 16.1473 13.8223 16.9052C13.8126 16.9212 13.8019 16.9367 13.779 16.9722C13.582 16.6331 13.3943 16.3096 13.2064 15.9864C12.4616 14.7057 11.7165 13.4252 10.9719 12.1443C10.4238 11.2014 9.87697 10.2577 9.32732 9.31568C9.28406 9.24157 9.28078 9.18732 9.32972 9.1101C10.6662 7.00002 11.9997 4.888 13.3332 2.77606C13.4921 2.52456 13.6486 2.27156 13.8181 2Z" fill="#18232E"/>
</svg>
