<svg width="28" height="28" viewBox="0 0 28 28" fill="none" xmlns="http://www.w3.org/2000/svg">
<g clip-path="url(#clip0_630_14647)">
<path d="M0.000685714 14.0874C0.00232651 13.5 0.133963 13.0525 0.358677 12.6322C0.488076 12.3901 0.619041 12.15 0.818099 11.9556C0.946081 11.8306 1.04587 11.6744 1.17684 11.5535C1.38678 11.3595 1.60725 11.1766 1.83241 11.0016C2.02602 10.8512 2.2253 10.7053 2.4351 10.5808C2.76155 10.387 3.09403 10.2022 3.43338 10.0337C3.759 9.87202 4.09245 9.72501 4.43001 9.5917C4.76287 9.46023 5.10423 9.35091 5.44357 9.2376C5.70677 9.14974 5.97049 9.06181 6.23801 8.98973C6.64732 8.87949 7.05863 8.7761 7.47182 8.68248C7.85942 8.5947 8.24866 8.51077 8.64058 8.448C9.19741 8.35876 9.75618 8.27945 10.3163 8.21629C10.8761 8.15313 11.4381 8.11021 11.9998 8.0669C13.0355 7.98697 14.0728 7.98989 15.1101 8.01789C15.5102 8.02866 15.9103 8.0499 16.3097 8.07867C16.7475 8.11021 17.1852 8.1486 17.6216 8.19775C18.0296 8.24376 18.4363 8.30307 18.8424 8.36515C19.213 8.42185 19.5836 8.48116 19.9511 8.55555C20.3491 8.63609 20.7449 8.72941 21.1391 8.82834C21.4961 8.91796 21.8508 9.01804 22.2044 9.12182C22.5126 9.21236 22.8207 9.30545 23.1232 9.41422C23.3848 9.50823 23.6399 9.62255 23.8955 9.73378C24.1757 9.85572 24.4616 9.96772 24.7297 10.114C25.1175 10.3257 25.4968 10.5555 25.8694 10.7946C26.1143 10.9518 26.3562 11.1213 26.5721 11.3174C26.889 11.6052 27.1874 11.9129 27.4309 12.2772C27.6742 12.6413 27.8539 13.0294 27.9462 13.4575C28.0147 13.7752 28.0151 14.0971 27.9629 14.4222C27.9076 14.7676 27.7963 15.0889 27.6373 15.3945C27.5138 15.632 27.3603 15.8472 27.1905 16.0537C26.8753 16.437 26.5146 16.7656 26.1151 17.0491C25.8647 17.2268 25.6138 17.4075 25.347 17.5563C24.9496 17.7781 24.5438 17.9864 24.1306 18.1751C23.7431 18.3522 23.3442 18.5043 22.945 18.652C22.6654 18.7554 22.3772 18.8337 22.0923 18.9217C21.8939 18.9829 21.6961 19.0467 21.4956 19.1001C21.2321 19.1701 20.967 19.2342 20.7013 19.2945C20.4359 19.3546 20.1697 19.4121 19.9022 19.4613C19.5666 19.5231 19.2299 19.5787 18.8928 19.6308C18.5203 19.6883 18.1473 19.7443 17.7733 19.7906C17.4205 19.8343 17.0667 19.871 16.7125 19.899C16.3002 19.9315 15.8872 19.9628 15.4739 19.974C14.814 19.992 14.1537 19.9963 13.4935 19.9996C13.1739 20.0012 12.8537 19.9957 12.5344 19.9786C12.0349 19.952 11.5354 19.9203 11.037 19.8767C10.6072 19.839 10.1788 19.7839 9.75028 19.7318C9.48559 19.6996 9.22113 19.6635 8.95793 19.6206C8.64998 19.5706 8.34151 19.5209 8.03677 19.4539C7.5631 19.3497 7.09063 19.2384 6.62107 19.1164C6.19647 19.0061 5.77494 18.8825 5.35504 18.7544C5.16404 18.6962 4.98072 18.6116 4.79307 18.5413C4.66136 18.492 4.52435 18.4557 4.3963 18.3981C3.94702 18.1958 3.49729 17.994 3.05443 17.7774C2.81606 17.6609 2.58799 17.5203 2.36104 17.3806C1.97643 17.1439 1.61933 16.8664 1.28267 16.5626C1.06288 16.3643 0.858448 16.1487 0.695413 15.8961C0.558108 15.6832 0.399995 15.4805 0.291628 15.2528C0.102862 14.8564 -0.00990487 14.4331 0.000685714 14.0874ZM14.2276 19.2993C14.7314 19.2795 15.31 19.2618 15.888 19.2321C16.28 19.212 16.6718 19.1812 17.0626 19.1438C17.4823 19.1035 17.9017 19.0564 18.3196 19.0001C18.6423 18.9565 18.9629 18.896 19.2837 18.8395C19.6141 18.7813 19.9457 18.7276 20.2734 18.6557C20.6639 18.5699 21.0532 18.4759 21.4387 18.3689C21.8591 18.2522 22.2766 18.1228 22.6915 17.987C22.9907 17.889 23.289 17.7838 23.5784 17.659C23.9195 17.5121 24.2545 17.3486 24.5846 17.1771C24.8327 17.0481 25.0717 16.8998 25.3097 16.7514C25.5003 16.6327 25.6896 16.5096 25.8677 16.3723C26.0398 16.2396 26.2024 16.0922 26.3588 15.9401C26.5141 15.7889 26.6767 15.6385 26.7999 15.461C26.9618 15.2278 27.1041 14.9808 27.2061 14.7061C27.3394 14.3466 27.3625 13.9821 27.2995 13.6171C27.2414 13.2802 27.0932 12.9697 26.8958 12.6917C26.7806 12.5293 26.6537 12.3749 26.5231 12.2252C26.4315 12.1202 26.331 12.0212 26.2236 11.9337C26.0152 11.7641 25.804 11.5972 25.585 11.4428C25.3589 11.2833 25.1305 11.1232 24.8879 10.9935C24.5381 10.8065 24.1764 10.6428 23.8164 10.4768C23.5668 10.3617 23.3149 10.2501 23.0581 10.1539C22.7736 10.0474 22.484 9.95449 22.1936 9.86633C21.7924 9.74455 21.3897 9.62785 20.9852 9.51846C20.7151 9.44546 20.4418 9.38368 20.1679 9.32668C19.9066 9.27229 19.6428 9.23052 19.3801 9.18328C19.1355 9.13936 18.8916 9.09051 18.6461 9.05304C18.4146 9.01766 18.1817 8.99196 17.9488 8.96611C17.4798 8.91403 17.0112 8.85411 16.5409 8.81741C16.0582 8.77972 15.5739 8.75633 15.0899 8.74395C14.5386 8.72987 13.9868 8.72825 13.4353 8.73364C12.9879 8.73802 12.5405 8.7561 12.0935 8.77672C11.7716 8.79156 11.4497 8.81387 11.1289 8.8448C10.7129 8.88488 10.2976 8.93434 9.88267 8.98465C9.6443 9.01358 9.40639 9.04858 9.16937 9.08751C8.89409 9.13274 8.61978 9.18451 8.34532 9.23498C8.08406 9.28298 7.82093 9.32299 7.56258 9.38461C7.19437 9.47238 6.8293 9.57462 6.46385 9.67432C6.17775 9.75232 5.88987 9.82564 5.60855 9.91949C5.28113 10.0287 4.95738 10.1509 4.63697 10.2804C4.30732 10.4136 3.97611 10.5466 3.65936 10.7086C3.29756 10.8936 2.94964 11.108 2.59829 11.3142C2.26946 11.5071 1.97285 11.7465 1.69443 12.0095C1.44332 12.2467 1.20749 12.4988 1.03439 12.8047C0.952272 12.9499 0.861357 13.0936 0.805346 13.2499C0.684226 13.5877 0.63612 13.9363 0.688924 14.3002C0.750081 14.7222 0.931985 15.0846 1.17728 15.4153C1.30773 15.5911 1.45711 15.7547 1.61388 15.9063C1.81332 16.0991 2.02229 16.283 2.23962 16.4539C2.41392 16.591 2.60388 16.708 2.7922 16.8249C2.98969 16.9474 3.19106 17.0639 3.39541 17.1738C3.53585 17.2494 3.68449 17.3088 3.82911 17.3762C4.00586 17.4587 4.17904 17.5506 4.35945 17.6232C4.61176 17.7247 4.86937 17.8124 5.12474 17.9059C5.33162 17.9817 5.53561 18.0681 5.74622 18.1307C6.16947 18.2565 6.59444 18.3778 7.02239 18.4852C7.43609 18.5892 7.85315 18.6804 8.27118 18.7643C8.67086 18.8447 9.07226 18.9194 9.4756 18.9764C9.9292 19.0405 10.3851 19.0892 10.8412 19.1313C11.3954 19.1825 11.9502 19.2321 12.5058 19.2598C13.0541 19.2872 13.6036 19.2863 14.2276 19.2993Z" fill="#18232E"/>
<path d="M14.1928 18.57C13.4118 18.546 12.6305 18.5288 11.8499 18.4955C11.451 18.4784 11.0526 18.4393 10.6552 18.3978C10.1795 18.3481 9.7044 18.2901 9.23021 18.2262C8.97336 18.1917 8.71903 18.1372 8.46352 18.0923C8.23634 18.0525 8.00842 18.0169 7.78199 17.973C7.59546 17.9368 7.41005 17.8943 7.22531 17.8494C6.9293 17.7774 6.63299 17.7061 6.33914 17.6254C6.02589 17.5394 5.70907 17.4607 5.40493 17.3471C4.78001 17.1137 4.15561 16.8788 3.56373 16.5591C3.1498 16.3356 2.75296 16.0872 2.39437 15.7814C2.20635 15.6211 2.05554 15.4151 1.88214 15.2357C1.747 15.0958 1.66317 14.9245 1.57897 14.7524C1.43577 14.4598 1.39624 14.1514 1.43055 13.8258C1.46135 13.5331 1.55488 13.2647 1.71046 13.0252C1.89631 12.739 2.1123 12.4778 2.37908 12.2618C2.69247 12.008 3.01399 11.7698 3.37049 11.5843C3.62161 11.4537 3.86832 11.3131 4.12473 11.1947C4.37496 11.079 4.63383 10.983 4.89084 10.8834C5.07155 10.8135 5.25397 10.7476 5.43819 10.6882C5.69371 10.6058 5.95034 10.5266 6.20869 10.4543C6.51955 10.3674 6.83137 10.2832 7.14529 10.2091C7.43891 10.14 7.73508 10.0814 8.03154 10.0261C8.31413 9.97336 8.59791 9.92705 8.88214 9.88443C9.31054 9.82019 9.73849 9.74842 10.169 9.7038C10.7794 9.64049 11.3917 9.59464 12.0038 9.54894C13.0463 9.47117 14.0905 9.47656 15.1342 9.50302C15.6985 9.51733 16.2628 9.5531 16.8257 9.59803C17.3292 9.63818 17.8313 9.70034 18.3331 9.75996C18.6674 9.79965 19.0015 9.84389 19.3334 9.90082C19.6898 9.9619 20.0442 10.0357 20.3979 10.1121C20.8046 10.1998 21.2155 10.2751 21.6137 10.3943C22.2274 10.578 22.8393 10.7743 23.4379 11.004C23.843 11.1594 24.229 11.3714 24.6142 11.5767C24.8602 11.7078 25.093 11.8667 25.3248 12.024C25.6271 12.2291 25.8896 12.4848 26.1188 12.7714C26.3108 13.0116 26.4593 13.2892 26.533 13.5898C26.6445 14.0448 26.576 14.4827 26.35 14.8989C26.1413 15.2831 25.8468 15.5888 25.5205 15.8528C25.2186 16.097 24.8814 16.2987 24.5467 16.4953C24.1335 16.738 23.699 16.9379 23.2494 17.1012C23.0324 17.18 22.8205 17.2745 22.6021 17.3485C22.3651 17.4288 22.1241 17.4969 21.8832 17.5641C21.5956 17.6444 21.3079 17.7258 21.0174 17.7928C20.621 17.8842 20.2232 17.971 19.8233 18.0443C19.3807 18.1255 18.9364 18.2 18.4905 18.2576C17.9293 18.3299 17.3669 18.4002 16.8029 18.4385C16.0284 18.4911 15.252 18.5133 14.4764 18.5473C14.3822 18.5514 14.2879 18.5478 14.1936 18.5478C14.193 18.5551 14.1929 18.5625 14.1928 18.57ZM6.99075 13.5369C6.91386 13.548 6.83622 13.5508 6.76321 13.5713C6.46249 13.6554 6.2169 13.8399 6.01038 14.0686C5.73398 14.3749 5.50904 14.7158 5.39918 15.1317C5.32251 15.4219 5.31416 15.7097 5.39859 15.9878C5.47936 16.2537 5.66 16.4699 5.85488 16.6591C6.09272 16.8899 6.37359 17.0479 6.70861 17.0736C6.96137 17.0929 7.21234 17.0842 7.45033 16.9799C7.58711 16.9199 7.72441 16.8597 7.85597 16.7888C7.99693 16.7128 8.13797 16.6336 8.26729 16.5389C8.41765 16.4288 8.55704 16.3023 8.69807 16.1791C8.79869 16.0913 8.89803 16.0014 8.99096 15.9052C9.08374 15.8092 9.16339 15.6998 9.25639 15.604C9.48961 15.3638 9.69217 15.0986 9.8752 14.8169C9.94612 14.7078 10.0079 14.5921 10.0784 14.4826C10.2139 14.272 10.3528 14.0636 10.49 13.8541C10.5854 13.7082 10.673 13.5718 10.8832 13.5746C11.1234 13.5778 11.3639 13.5374 11.6046 13.5196C11.6664 13.5151 11.7297 13.5198 11.7914 13.5281C11.8893 13.5411 11.9915 13.5882 12.0824 13.5699C12.1763 13.5511 12.2863 13.492 12.3409 13.4144C12.4675 13.2341 12.4867 13.0215 12.4067 12.8107C12.3812 12.7436 12.3407 12.6718 12.287 12.6289C12.1166 12.4924 11.7422 12.568 11.6598 12.867C11.6402 12.938 11.6313 13.0337 11.5835 13.069C11.5323 13.1069 11.441 13.0897 11.3671 13.0913C11.2491 13.0939 11.131 13.092 10.9919 13.092C11.1185 12.9312 11.2291 12.7819 11.3489 12.6408C11.464 12.5052 11.5864 12.376 11.7092 12.2477C11.8731 12.0765 12.0323 11.8993 12.2083 11.7421C12.4473 11.5285 12.7037 11.3356 12.9448 11.1244C13.0077 11.0693 13.0575 11.0708 13.122 11.0947C13.1441 11.1029 13.1663 11.1117 13.1891 11.1176C13.6215 11.2298 14.053 11.3466 14.487 11.4518C14.7757 11.5219 15.066 11.5942 15.3596 11.6313C15.7386 11.6792 16.1213 11.7013 16.503 11.7186C16.8727 11.7355 17.2436 11.7039 17.5944 11.5831C17.944 11.4627 18.2553 11.2685 18.4298 10.9069C18.5322 10.6945 18.6021 10.4736 18.5978 10.2319C18.5652 10.2274 18.5375 10.2164 18.5126 10.2212C18.3618 10.2506 18.2117 10.2831 18.0616 10.3155C17.8325 10.3649 17.6056 10.4325 17.3742 10.4613C16.9289 10.5169 16.4817 10.5612 16.0341 10.5908C15.5469 10.6229 15.0598 10.5963 14.5757 10.5286C14.3414 10.4958 14.1076 10.4589 13.8746 10.4182C13.5982 10.37 13.3236 10.3112 13.0469 10.2653C12.7934 10.2233 12.539 10.1813 12.2834 10.1593C11.7383 10.1124 11.1926 10.0615 10.6462 10.0437C9.96313 10.0213 9.28951 10.1211 8.62968 10.3042C8.45956 10.3515 8.28571 10.4131 8.13737 10.5078C7.958 10.6223 7.79019 10.765 7.64207 10.9205C7.39364 11.1813 7.2626 11.5157 7.20838 11.8693C7.14648 12.2734 7.15468 12.6764 7.38343 13.0424C7.50649 13.2394 7.66736 13.3905 7.86656 13.4921C8.09426 13.6082 8.34217 13.6442 8.59448 13.6178C8.83322 13.5929 9.06956 13.5381 9.25706 13.3761C9.57903 13.0979 9.82664 12.7729 9.77287 12.2998C9.74654 12.0685 9.73282 11.833 9.57896 11.6232C9.54793 11.6443 9.49475 11.6601 9.48469 11.6909C9.44464 11.8133 9.42659 11.9437 9.38475 12.0654C9.29726 12.3194 9.17077 12.5482 8.96112 12.7213C8.86901 12.7974 8.77206 12.8114 8.65981 12.7983C8.57777 12.7886 8.48947 12.7832 8.41101 12.8041C8.24521 12.8482 8.12887 12.8113 8.07629 12.618C8.00566 12.3584 8.00469 12.1058 8.08904 11.8453C8.18055 11.5629 8.32442 11.3244 8.55615 11.1494C8.74088 11.01 8.94986 10.9306 9.17734 10.8796C9.60499 10.7836 10.0358 10.7323 10.4715 10.722C11.0612 10.7079 11.6439 10.779 12.2221 10.8942C12.3164 10.913 12.4098 10.9368 12.5122 10.9603C12.3229 11.1024 12.1473 11.2257 11.9812 11.3611C11.7444 11.5542 11.5073 11.7479 11.2837 11.9568C11.0727 12.1539 10.8756 12.3675 10.6787 12.5801C10.5265 12.7444 10.379 12.914 10.2395 13.0898C10.1772 13.1683 10.1068 13.1874 10.018 13.1897C9.86997 13.1934 9.72215 13.2072 9.57411 13.209C9.50005 13.2098 9.46858 13.2411 9.46791 13.3131C9.46708 13.4035 9.46679 13.4939 9.46664 13.5843C9.46649 13.6539 9.4999 13.6856 9.56777 13.6817C9.60857 13.6793 9.64959 13.6812 9.71552 13.6812C9.58828 13.8356 9.48193 13.9681 9.37192 14.0973C9.22708 14.2675 9.07471 14.4311 8.93405 14.6048C8.71903 14.8703 8.47299 15.1022 8.20569 15.307C8.02371 15.4464 7.82353 15.5627 7.62417 15.6756C7.39163 15.8073 7.15371 15.9386 6.87329 15.8985C6.42229 15.8338 6.15328 15.5683 6.18199 15.101C6.20004 14.8074 6.29319 14.5361 6.43393 14.2806C6.56243 14.0473 6.74553 13.8631 6.94041 13.6935C6.99844 13.6432 7.02148 13.6128 6.99075 13.5369ZM19.3893 16.3077C19.3943 16.4158 19.4017 16.515 19.4029 16.6143C19.4073 16.9815 19.7522 17.1503 20.0448 17.0589C20.3053 16.9776 20.5279 16.8244 20.7223 16.6314C20.9859 16.3697 21.2458 16.1037 21.5007 15.8328C21.5789 15.7498 21.6387 15.647 21.6991 15.5481C21.7144 15.5231 21.7132 15.4643 21.6954 15.4463C21.671 15.4216 21.6213 15.4073 21.5868 15.4137C21.5426 15.4221 21.4941 15.4465 21.4625 15.4794C21.3088 15.6391 21.1502 15.7958 21.0119 15.9692C20.8029 16.2315 20.5417 16.4303 20.2877 16.6383C20.2209 16.693 20.1364 16.7285 20.0553 16.7596C19.9797 16.7886 19.9085 16.7154 19.9327 16.6381C19.9789 16.491 20.0134 16.3366 20.0823 16.2013C20.2757 15.821 20.4802 15.4465 20.688 15.0743C20.8293 14.8212 20.9856 14.5771 21.1312 14.3264C21.2444 14.1316 21.3482 13.9309 21.462 13.7364C21.608 13.487 21.7629 13.2432 21.9081 12.9933C22.0233 12.7951 22.127 12.5896 22.2408 12.3905C22.368 12.1681 22.5023 11.9501 22.6305 11.7283C22.6796 11.6434 22.6607 11.6112 22.5616 11.6139C22.3769 11.6189 22.1916 11.6237 22.008 11.6427C21.9585 11.6478 21.8967 11.6927 21.8699 11.7378C21.7222 11.9865 21.5866 12.2428 21.4413 12.493C21.2623 12.8013 21.075 13.1045 20.8968 13.4132C20.7466 13.6732 20.605 13.9383 20.4579 14.2C20.4255 14.2578 20.3859 14.3113 20.3454 14.3732C20.3097 14.0867 20.1167 13.8995 19.8385 13.8726C19.6001 13.8496 19.3688 13.8914 19.1481 13.9775C18.86 14.0898 18.5931 14.2445 18.3468 14.4384C18.0963 14.6356 17.8691 14.8579 17.6548 15.0946C17.5391 15.2225 17.4374 15.3648 17.3147 15.4846C17.1778 15.6183 17.0256 15.7355 16.8777 15.8568C16.7526 15.9592 16.5074 15.8692 16.4928 15.7143C16.4649 15.4199 16.5634 15.1687 16.7756 14.9768C16.9378 14.8299 17.1274 14.7152 17.291 14.5697C17.4185 14.4563 17.5335 14.3245 17.6378 14.1878C17.71 14.0932 17.6305 13.8905 17.5221 13.8742C17.2989 13.8408 17.0698 13.8616 16.9076 14.027C16.7718 14.1655 16.6796 14.3522 16.5801 14.5249C16.5023 14.6598 16.4687 14.8204 16.3445 14.9288C16.248 15.013 16.1596 15.1071 16.067 15.1961C16.0081 15.2527 15.9481 15.308 15.8682 15.383C15.8809 15.3438 15.8816 15.3327 15.8872 15.3258C16.1301 15.0201 16.182 14.6568 16.1628 14.281C16.1574 14.1763 16.1086 14.0486 16.0367 13.9784C15.8947 13.84 15.7045 13.8426 15.5226 13.8923C15.2967 13.9539 15.115 14.0962 14.9464 14.2564C14.859 14.3397 14.7768 14.4289 14.6928 14.5159C14.5472 14.6666 14.3956 14.8119 14.2583 14.9703C14.1115 15.1396 13.9817 15.3245 13.8385 15.4974C13.6812 15.6874 13.4929 15.8393 13.264 15.927C13.1598 15.9669 13.0491 15.9958 12.9201 15.9565C12.9962 15.8442 13.0761 15.7502 13.1299 15.6422C13.2647 15.3714 13.401 15.1013 13.4265 14.7869C13.4553 14.4344 13.3563 14.1408 13.0694 13.9414C12.8159 13.7652 12.5272 13.7989 12.2621 13.8948C11.8262 14.0523 11.4348 14.3059 11.1022 14.6353C10.8531 14.882 10.6369 15.1642 10.4083 15.4326C10.3767 15.4697 10.3534 15.5166 10.3346 15.5626C10.3105 15.6217 10.3809 15.6968 10.4439 15.6811C10.4741 15.6735 10.5027 15.659 10.5247 15.6504C10.5438 15.9025 10.5449 16.1493 10.5853 16.389C10.6337 16.6758 10.7432 16.93 11.0449 17.0435C11.2036 17.1032 11.3609 17.0887 11.511 17.0563C11.8829 16.976 12.1747 16.7418 12.446 16.4809C12.5882 16.3442 12.7057 16.2012 12.9435 16.2168C13.2881 16.2395 13.5943 16.0866 13.8449 15.8476C14.0092 15.691 14.1616 15.5203 14.3001 15.3335C14.4683 15.1068 14.6725 14.9069 14.8722 14.7072C15.0608 14.5187 15.2384 14.3128 15.4835 14.195C15.5584 14.159 15.6424 14.1013 15.715 14.1753C15.7896 14.2514 15.7204 14.3349 15.6817 14.4C15.5379 14.6423 15.388 14.881 15.2351 15.1174C15.0823 15.354 14.9209 15.5847 14.7672 15.8207C14.6468 16.0056 14.5339 16.1956 14.4152 16.3817C14.3126 16.5425 14.2041 16.6993 14.1033 16.8613C14.0427 16.9587 14.0647 17.0078 14.175 17.0025C14.3825 16.9927 14.5896 16.9708 14.7962 16.9469C14.9301 16.9314 14.9717 16.7948 15.046 16.7098C15.2409 16.4869 15.4119 16.2419 15.6027 16.0148C15.7501 15.8394 15.9115 15.6765 16.0697 15.511C16.1195 15.4589 16.1788 15.4166 16.2469 15.3587C16.2312 15.4651 16.2198 15.5533 16.2049 15.6408C16.1793 15.792 16.2851 16.067 16.4433 16.1111C16.6984 16.1823 16.9353 16.1441 17.1511 15.9897C17.2735 15.9022 17.3882 15.8032 17.5119 15.7049C17.5021 15.7942 17.4867 15.8792 17.4844 15.9645C17.4774 16.2246 17.5268 16.4773 17.6314 16.7112C17.7622 17.0039 18.0105 17.1383 18.307 17.0683C18.6144 16.9957 18.8767 16.8179 19.1029 16.5886C19.1948 16.4956 19.2893 16.4057 19.3893 16.3077Z" fill="#18232E"/>
<path d="M12.2269 13.1276C12.2066 13.1712 12.1968 13.2315 12.1632 13.2541C12.1198 13.2834 12.0573 13.2828 12.003 13.295C11.9942 13.2442 11.9774 13.1932 11.9786 13.1426C11.9803 13.0711 11.9901 12.9985 12.0077 12.9295C12.0127 12.91 12.0639 12.8831 12.0824 12.8904C12.1817 12.9297 12.2221 13.0111 12.2269 13.1276Z" fill="#18232E"/>
<path d="M11.105 16.4222C11.1193 16.1582 11.1874 15.911 11.2869 15.6661C11.4337 15.3048 11.6625 15.0023 11.8887 14.6963C12.0409 14.4905 12.1999 14.2879 12.4394 14.1848C12.5324 14.1448 12.6359 14.1241 12.7366 14.111C12.8457 14.0968 13.01 14.3215 13.0276 14.4534C13.0589 14.6892 13.0142 14.9143 12.9447 15.1364C12.8519 15.4329 12.7028 15.7013 12.5053 15.9312C12.2732 16.2013 12.0441 16.4815 11.7287 16.6587C11.6442 16.7062 11.5564 16.7512 11.465 16.7809C11.2528 16.8501 11.1138 16.7443 11.105 16.516C11.1039 16.4849 11.1049 16.4536 11.105 16.4222Z" fill="#18232E"/>
<path d="M19.6427 14.1479C19.9154 14.1476 20.0926 14.2747 20.0461 14.5245C19.966 14.9546 19.7851 15.3359 19.5316 15.6824C19.322 15.9689 19.0998 16.2468 18.8312 16.4758C18.6898 16.5964 18.5378 16.7189 18.35 16.7576C18.1185 16.8053 18.0457 16.7088 18.0544 16.46C18.0592 16.3246 18.0927 16.1847 18.1404 16.0577C18.2367 15.8015 18.3305 15.54 18.4646 15.3046C18.5975 15.0712 18.7726 14.8619 18.9411 14.6522C19.0349 14.5354 19.1423 14.4234 19.2628 14.338C19.3985 14.2419 19.5462 14.1525 19.6427 14.1479Z" fill="#18232E"/>
</g>
<defs>
<clipPath id="clip0_630_14647">
<rect width="28" height="28" fill="white"/>
</clipPath>
</defs>
</svg>
