<svg width="28" height="28" viewBox="0 0 28 28" fill="none" xmlns="http://www.w3.org/2000/svg">
<path d="M0.128291 19.7882C2.48319 19.7882 4.69457 19.773 6.88204 19.7882C10.7199 19.823 14.5599 19.9035 18.4065 19.91C19.0283 19.91 19.6524 19.6382 20.2743 19.4925L20.2221 19.1228C17.6128 18.672 14.9991 18.2219 12.3811 17.7725C8.56504 17.1202 4.75111 16.4679 0.928477 15.8482C0.352256 15.7547 0.0913256 15.5764 0.121767 14.9675C0.165256 14.1413 0.121767 13.3128 0.121767 12.3408L28 17.5094C27.9087 19.486 27.9174 21.3734 27.713 23.239C27.5086 25.1047 26.3518 26.1506 24.2948 26.2288C19.2697 26.4202 14.2381 26.518 9.21084 26.5572C7.03642 26.5724 4.862 26.3397 2.70063 26.2441C0.637105 26.1397 0.478372 25.9962 0.374 23.9848C0.297895 22.5432 0.204395 21.1016 0.128291 19.7882Z" fill="black"/>
<path d="M27.9348 12.6996V15.6851L0 10.8796C0.217442 8.68346 0.250058 6.47642 0.691465 4.35636C0.995884 2.88646 2.45057 2.36894 3.8509 2.32328C8.80857 2.16672 13.7662 2.03843 18.7239 2.00364C21.0397 1.98842 23.3554 2.22108 25.6821 2.33415C27.3716 2.42113 27.6651 2.70815 27.7565 4.41507C27.8282 5.75017 27.8782 7.08526 27.9435 8.54647C27.5086 8.54647 27.1346 8.54647 26.7541 8.54647C21.0332 8.43775 15.3123 8.31381 9.58919 8.23553C8.96513 8.23553 8.3389 8.47906 7.71267 8.6117L7.74746 8.96178L27.9348 12.6996Z" fill="black"/>
</svg>
