<svg width="28" height="28" viewBox="0 0 28 28" fill="none" xmlns="http://www.w3.org/2000/svg">
<path d="M14.0602 25.3096C11.8959 25.254 9.75475 25.079 7.67122 24.4552C5.95064 23.9401 4.37761 23.1584 3.08151 21.8853C1.70738 20.5356 0.897457 18.8837 0.527605 17.0122C0.0692693 14.6931 0.100222 12.3797 0.784144 10.1068C1.67107 7.15912 3.65125 5.22061 6.47646 4.09722C8.05982 3.4676 9.71489 3.15818 11.4046 3.00237C12.9934 2.85587 14.5842 2.84548 16.1736 2.95726C18.5013 3.12094 20.7681 3.54963 22.8571 4.65426C25.6437 6.12776 27.2288 8.45773 27.7232 11.5502C28.0514 13.6029 28.0167 15.6472 27.4806 17.6623C26.6591 20.7501 24.6842 22.8144 21.7559 24.009C20.2899 24.6071 18.758 24.9441 17.1883 25.0971C16.1485 25.1984 15.1031 25.2408 14.0602 25.3096ZM3.86535 12.0814C3.82854 12.2716 3.77872 12.4464 3.76286 12.6243C3.63375 14.0722 3.68258 15.5133 3.98686 16.9375C4.31083 18.4536 4.94718 19.8113 6.08763 20.8957C7.08743 21.8464 8.29361 22.4141 9.61311 22.7607C11.4084 23.2322 13.2416 23.2812 15.0817 23.2262C16.4487 23.1854 17.7987 23.0235 19.1069 22.5997C21.473 21.8331 23.1248 20.3314 23.9208 17.9396C24.36 16.62 24.4951 15.2603 24.4724 13.8812C24.4613 13.2025 24.406 12.5245 24.3684 11.8009C24.1927 11.8563 24.0819 11.8876 23.9737 11.9261C22.4179 12.4796 20.8645 13.04 19.3061 13.5863C18.3002 13.9389 17.3783 14.43 16.5809 15.1443C15.5457 16.0716 14.8363 17.2282 14.2378 18.4634C14.1862 18.5697 14.1296 18.6734 14.061 18.806C13.8932 18.4791 13.7491 18.1963 13.6032 17.9145C12.6475 16.0683 11.2565 14.6735 9.29161 13.9453C7.51399 13.2865 5.7058 12.71 3.86535 12.0814ZM14.0886 15.2087C14.0705 15.2251 14.0883 15.2154 14.0964 15.2004C14.1397 15.1209 14.1818 15.0408 14.2218 14.9597C15.0673 13.2456 16.3047 11.8953 18.0034 11.0099C18.9112 10.5367 19.8638 10.1494 20.7952 9.72117C21.5761 9.36209 22.3556 8.99973 23.1602 8.62748C23.0788 8.48655 23.035 8.39817 22.9799 8.31756C22.5813 7.73492 22.1015 7.22923 21.538 6.80337C20.1385 5.74588 18.5173 5.28765 16.8114 5.07492C14.8526 4.83063 12.8924 4.83807 10.9393 5.13333C9.46114 5.35673 8.05419 5.79105 6.81557 6.6637C6.01074 7.23076 5.34475 7.92578 4.86706 8.83567C5.15767 8.98677 5.42219 9.14504 5.70268 9.2665C6.8182 9.74961 7.94148 10.2149 9.05667 10.6987C10.4829 11.3175 11.7774 12.1343 12.766 13.3558C13.2435 13.9456 13.6516 14.5917 14.0886 15.2087Z" fill="#18232E"/>
</svg>
