<svg width="29" height="28" viewBox="0 0 29 28" fill="none" xmlns="http://www.w3.org/2000/svg">
<path d="M9.73002 13.1442H9.43285C8.54318 13.1442 7.65351 13.1517 6.76431 13.1387C6.54886 13.1359 6.53214 13.2269 6.52889 13.3992C6.5261 13.5812 6.56511 13.6587 6.76942 13.6559C7.62008 13.6453 8.47121 13.662 9.32327 13.6462C9.59212 13.6411 9.54568 13.7994 9.55775 13.9578C9.57168 14.1435 9.51132 14.215 9.31305 14.2122C8.47724 14.2011 7.64144 14.2122 6.80563 14.2015C6.6004 14.1987 6.52982 14.2433 6.52703 14.4648C6.52146 14.7091 6.63337 14.7179 6.8191 14.7165C7.70134 14.7104 8.58358 14.7137 9.46582 14.7137H9.70077C9.72306 14.7522 9.73652 14.7648 9.73745 14.7782C9.77646 15.2714 9.77599 15.2714 9.28565 15.2714C8.25668 15.2714 7.22787 15.2714 6.19921 15.2714C5.83703 15.2714 5.74091 15.1813 5.73905 14.8256C5.73534 14.2145 5.73534 13.6035 5.73905 12.9924C5.73905 12.6873 5.82078 12.6061 6.12678 12.6047C7.22478 12.6 8.3237 12.5976 9.42356 12.5973C9.75463 12.5973 9.7551 12.5973 9.7486 12.9223C9.74163 12.9864 9.73559 13.0472 9.73002 13.1442Z" fill="black"/>
<path d="M27.5717 14.2294L28.9805 15.2045L28.9512 15.276C28.4869 15.2115 28.0063 15.3926 27.5526 15.0318C26.9685 14.5674 26.3259 14.1769 25.6591 13.7205V15.2584H24.8929V12.6116C24.9742 12.6079 25.0494 12.6019 25.1251 12.6014C26.254 12.6014 27.3827 12.6014 28.511 12.6014C28.8718 12.6014 28.9447 12.6753 28.9475 13.0374C28.9475 13.2845 28.9531 13.532 28.9475 13.7804C28.941 14.0887 28.863 14.1662 28.5593 14.1709C28.3123 14.1741 28.0648 14.1709 27.8164 14.1709H27.5796C27.5782 14.1904 27.5749 14.2099 27.5717 14.2294ZM26.9184 13.1447C26.5557 13.1447 26.1926 13.1526 25.8299 13.1415C25.628 13.1354 25.6526 13.264 25.6563 13.3862C25.66 13.5083 25.6122 13.6439 25.8216 13.6439C26.5399 13.6378 27.2578 13.635 27.9756 13.6406C28.1971 13.6406 28.1433 13.4948 28.1516 13.3722C28.1604 13.2329 28.1516 13.1345 27.9626 13.1401C27.6135 13.1535 27.2657 13.1442 26.9184 13.1447Z" fill="black"/>
<path d="M17.3665 12.6024C17.9237 12.6024 18.4809 12.6024 19.0353 12.6024C19.3571 12.6024 19.4263 12.6767 19.4268 13.0031C19.4268 13.629 19.4268 14.2548 19.4268 14.8804C19.4268 15.1636 19.3418 15.2663 19.059 15.2681C17.9232 15.2755 16.7875 15.2765 15.6517 15.2709C15.3884 15.2709 15.2756 15.1427 15.2747 14.8795C15.2747 14.2458 15.2747 13.6121 15.2747 12.9785C15.2747 12.6869 15.3555 12.607 15.6489 12.6038C16.2228 12.6 16.7944 12.6028 17.3665 12.6024ZM18.6518 13.1428C17.8109 13.1428 17.009 13.1405 16.2075 13.1484C16.1761 13.1572 16.1474 13.174 16.1243 13.1971C16.1012 13.2202 16.0845 13.2488 16.0756 13.2803C16.0654 13.7121 16.0654 14.1443 16.0756 14.5767C16.0845 14.6079 16.1011 14.6362 16.1241 14.6591C16.147 14.6819 16.1754 14.6985 16.2066 14.7072C16.9706 14.7152 17.7346 14.7152 18.4985 14.7072C18.5501 14.7072 18.6439 14.631 18.6448 14.5893C18.6555 14.1203 18.6518 13.6508 18.6518 13.1428Z" fill="black"/>
<path d="M23.381 12.6172H24.15C24.1569 12.6985 24.1672 12.7663 24.1672 12.8341C24.1672 13.5069 24.1672 14.1806 24.1648 14.853C24.1648 15.1571 24.0613 15.2709 23.7688 15.2709C22.6853 15.2755 21.6019 15.2755 20.5184 15.2709C20.2612 15.2709 20.153 15.152 20.152 14.8994C20.1493 14.2029 20.152 13.5064 20.1474 12.8099C20.1474 12.665 20.1813 12.6024 20.3396 12.6033C21.0826 12.6079 20.9228 12.5044 20.9372 13.1642C20.947 13.5895 20.9475 14.0158 20.9335 14.4407C20.9266 14.645 20.973 14.7248 21.1987 14.7193C21.8487 14.703 22.4988 14.7063 23.1489 14.7193C23.3314 14.7221 23.3899 14.6756 23.3861 14.4871C23.3741 13.9461 23.3829 13.4043 23.3834 12.8619L23.381 12.6172Z" fill="black"/>
<path d="M4.22671 14.7002V12.6288H5.01144C5.01608 12.6971 5.02583 12.7709 5.02583 12.8447C5.02583 13.5094 5.02583 14.174 5.02583 14.8386C5.02583 15.1711 4.93715 15.269 4.60143 15.269C3.5347 15.2737 2.46812 15.2737 1.40169 15.269C1.07666 15.269 0.983789 15.1585 0.980539 14.8298V14.7833C0.97961 14.2117 0.97961 14.2178 1.56003 14.2238C1.72255 14.2238 1.7922 14.2768 1.76759 14.4369C1.73137 14.6622 1.82517 14.7234 2.04619 14.7183C2.6879 14.7039 3.32961 14.7118 3.97086 14.7118C4.04655 14.7118 4.12177 14.7053 4.22671 14.7002Z" fill="black"/>
<path d="M12.4951 12.6C13.1141 12.6 13.7331 12.6103 14.3525 12.5949C14.5939 12.5889 14.5791 12.7189 14.5847 12.8847C14.5916 13.0621 14.5605 13.1554 14.3497 13.148C13.9406 13.1331 13.5301 13.148 13.1206 13.1401C12.9581 13.1359 12.9075 13.1865 12.9098 13.3513C12.9186 13.9085 12.907 14.4657 12.9172 15.0229C12.9205 15.2087 12.8773 15.2806 12.6753 15.2779C12.1292 15.2704 12.1292 15.2779 12.1292 14.7286C12.1292 14.2879 12.1172 13.8463 12.1344 13.4066C12.1427 13.1832 12.0633 13.1322 11.8558 13.141C11.4699 13.1572 11.0822 13.135 10.6949 13.1507C10.486 13.1596 10.4488 13.0709 10.459 12.8916C10.4679 12.7333 10.4344 12.5931 10.6847 12.6C11.2883 12.6177 11.892 12.6061 12.4956 12.6061L12.4951 12.6Z" fill="black"/>
</svg>
