<svg width="29" height="28" viewBox="0 0 29 28" fill="none" xmlns="http://www.w3.org/2000/svg">
<path d="M15.0137 23.8707C12.0827 23.815 9.34888 23.5621 6.82627 22.3484C5.63286 21.8094 4.52056 21.1064 3.52159 20.2597C-0.12655 17.0107 -0.0592495 11.7892 3.6005 8.54483C5.72626 6.65577 8.30224 5.79247 11.05 5.33297C15.0648 4.65997 18.9868 4.96862 22.7579 6.52814C23.8261 6.97391 24.8255 7.56933 25.7261 8.29651C29.8221 11.6198 29.85 17.15 25.8189 20.5475C23.3891 22.5944 20.4674 23.388 17.3878 23.7292C16.5454 23.822 15.6914 23.8313 15.0137 23.8707ZM15.1297 5.84121C11.6 5.82728 8.57608 6.46084 5.90728 8.31276C3.14332 10.2297 1.93887 13.2767 2.77897 16.2844C3.47286 18.7582 5.18786 20.385 7.43894 21.4572C10.9432 23.1235 14.6331 23.4159 18.4066 22.7057C20.6437 22.2834 22.73 21.499 24.4543 19.9766C26.6961 17.9994 27.6244 15.5301 26.8563 12.5828C26.2761 10.3619 24.7676 8.82795 22.8159 7.73026C20.4663 6.43123 17.8139 5.77934 15.1297 5.84121Z" fill="black"/>
<path d="M10.1983 12.3624L14.4359 10.102C14.491 10.374 14.529 10.6491 14.5496 10.9259C14.5496 13.7107 14.5658 16.4956 14.5496 19.2804C14.5356 21.3064 13.8951 21.9956 11.8947 21.8703C8.97756 21.6846 6.37374 20.7099 4.54735 18.2779C2.72095 15.8458 2.8045 12.62 4.77942 10.2529C6.42247 8.28491 8.60161 7.26148 11.036 6.74396C14.4707 6.01062 17.8775 6.15682 21.1427 7.54924C23.5005 8.55643 25.4035 10.102 26.1508 12.678C26.9282 15.3654 25.8862 18.1665 23.4541 19.8954C21.6627 21.2099 19.4887 21.899 17.2671 21.8564C15.9327 21.8308 15.153 21.2437 15.1274 20.0578C15.0578 16.788 15.1042 13.5134 15.1042 10.0463L19.3441 12.2951C19.4486 13.8708 19.4416 15.3468 19.6644 16.788C19.9823 18.8395 21.9851 19.6331 23.714 18.4565C24.8744 17.6559 25.3756 16.4631 25.5242 15.1031C25.8119 12.4459 24.6632 10.4617 22.5699 8.95327C18.4275 5.99437 11.1103 6.04079 7.00033 9.01361C4.34544 10.9351 3.36611 14.0472 4.57751 16.7624C5.09271 17.9228 5.89335 18.7675 7.22543 18.9253C8.63642 19.0924 9.68538 18.4171 9.95458 17.02C10.1495 16.0059 10.1356 14.95 10.1867 13.9103C10.2215 13.4137 10.1983 12.9147 10.1983 12.3624Z" fill="black"/>
</svg>
