<svg width="28" height="28" viewBox="0 0 28 28" fill="none" xmlns="http://www.w3.org/2000/svg">
<path d="M0.725666 17.9728C0.223057 17.9719 0 17.7488 0 17.2472V10.308C0 9.86875 0.238642 9.62621 0.675016 9.62621H27.3182C27.739 9.62621 28 9.88628 28 10.308V17.2939C28 17.7293 27.7584 17.9689 27.3182 17.9689L0.725666 17.9728ZM25.4733 13.7406L25.4139 13.7552C25.134 13.2877 24.8538 12.8204 24.5733 12.3535C24.2723 11.8529 23.9519 11.3629 23.6743 10.8496C23.5262 10.5749 23.3528 10.4434 23.0392 10.4814C22.8504 10.4946 22.661 10.4946 22.4723 10.4814C22.3203 10.4814 22.259 10.5477 22.2599 10.6967C22.2599 12.7669 22.2599 14.8361 22.2599 16.9043C22.2599 17.0543 22.3213 17.1215 22.4723 17.1196C22.781 17.1196 23.0888 17.1108 23.3966 17.1196C23.5915 17.1264 23.6509 17.0592 23.6499 16.8683C23.6421 15.9439 23.6499 15.0176 23.6499 14.0961C23.6562 14.0461 23.6687 13.997 23.6869 13.95C23.7299 13.9796 23.7685 14.015 23.8019 14.0552C23.9265 14.2607 24.0405 14.4731 24.1652 14.6796C24.6317 15.45 25.0983 16.2205 25.5736 16.9851C25.5993 17.02 25.632 17.0491 25.6696 17.0705C25.7071 17.092 25.7488 17.1054 25.7918 17.1098C26.0772 17.1244 26.3646 17.1098 26.6509 17.1176C26.8058 17.1176 26.8594 17.0563 26.8594 16.9053C26.8594 14.8364 26.8594 12.7672 26.8594 10.6977C26.8594 10.5399 26.8048 10.4736 26.6422 10.4766C26.3129 10.4843 25.9827 10.4882 25.6535 10.4766C25.4421 10.4678 25.3613 10.5418 25.373 10.7561C25.4129 11.5948 25.4412 12.4334 25.4704 13.2721C25.4704 13.3091 25.4704 13.3471 25.4704 13.3851L25.4733 13.7406ZM1.14353 16.8838C1.14353 17.0037 1.14353 17.1264 1.31302 17.1176C2.04745 17.0806 2.7887 17.2199 3.51826 17.029C3.9018 16.9392 4.25654 16.7543 4.54978 16.4913C5.09932 15.9716 5.44452 15.2722 5.52286 14.5198C5.62708 13.6705 5.60273 12.8026 5.14005 12.0302C4.96991 11.7269 4.75664 11.45 4.50692 11.2081C4.26565 11.0055 3.99024 10.8475 3.69359 10.7415C3.3884 10.6144 3.06666 10.5314 2.73805 10.4951C2.29875 10.4532 1.85167 10.4951 1.40945 10.4804C1.20198 10.4804 1.13866 10.5525 1.13964 10.7551C1.14743 11.7691 1.14353 12.785 1.14353 13.801V16.8838ZM9.95478 17.1235C10.0463 17.1235 10.1389 17.1283 10.2304 17.1235C10.3785 17.1127 10.5226 17.0942 10.6727 17.0796C10.6579 16.9513 10.6361 16.8238 10.6074 16.6978C10.5028 16.3264 10.3934 15.9572 10.2791 15.5903C10.1311 15.1101 9.97621 14.6328 9.8262 14.1546C9.70737 13.7776 9.5934 13.3997 9.4736 13.0237C9.36937 12.6974 9.25346 12.375 9.15119 12.0496C9.00898 11.5909 8.88235 11.1262 8.72942 10.6714C8.70726 10.626 8.67457 10.5866 8.63407 10.5564C8.59357 10.5263 8.54644 10.5062 8.49663 10.498C8.08753 10.4804 7.67648 10.4863 7.26543 10.498C7.23258 10.4984 7.20023 10.5061 7.17075 10.5206C7.14126 10.5351 7.11537 10.556 7.09497 10.5817C7.01727 10.7574 6.95217 10.9384 6.90016 11.1233C6.7862 11.5129 6.68879 11.9172 6.57385 12.3126C6.42677 12.8201 6.26605 13.3237 6.11897 13.8312C5.97092 14.3114 5.84429 14.812 5.69916 15.2991C5.54136 15.8533 5.38064 16.4066 5.21213 16.955C5.17415 17.0816 5.2209 17.1137 5.32902 17.1137C5.75663 17.1137 6.18326 17.1196 6.60989 17.1137C6.64742 17.1099 6.68354 17.0973 6.71534 17.077C6.74714 17.0567 6.77374 17.0293 6.79301 16.9968C6.87678 16.7553 6.92256 16.5001 7.01315 16.2624C7.03368 16.2122 7.06541 16.1673 7.10592 16.1311C7.14643 16.095 7.19466 16.0686 7.24692 16.054C7.72226 16.0338 8.19759 16.0338 8.67293 16.054C8.72618 16.0671 8.77579 16.0921 8.81811 16.127C8.86042 16.1619 8.89436 16.2058 8.91742 16.2556C9.01482 16.4747 9.0567 16.7183 9.15606 16.9374C9.18502 16.984 9.2235 17.024 9.26899 17.0547C9.31448 17.0855 9.36595 17.1062 9.42002 17.1157C9.59791 17.1307 9.77669 17.132 9.95478 17.1196V17.1235ZM19.069 12.8932H19.0641C19.0641 12.1964 19.0641 11.5 19.0641 10.8038C19.0641 10.5019 19.0475 10.4863 18.7397 10.4853C18.4319 10.4843 18.1446 10.496 17.8485 10.4853C17.639 10.4756 17.5806 10.5535 17.5816 10.7561C17.5894 12.1548 17.5942 13.5536 17.5816 14.9523C17.5757 15.7374 17.8923 16.3247 18.5342 16.7738C18.8086 16.9723 19.1296 17.0966 19.4661 17.1347C19.8026 17.1727 20.1432 17.1232 20.455 16.991C21.3317 16.6569 21.8391 15.9624 21.8742 15.038C21.9268 13.5935 21.8888 12.1451 21.8917 10.6977C21.8917 10.5486 21.8265 10.4804 21.6765 10.4814C21.3414 10.4814 21.0054 10.4921 20.6713 10.4814C20.4599 10.4727 20.4053 10.5545 20.4063 10.7551C20.4141 12.0341 20.417 13.314 20.4063 14.5939C20.405 14.8405 20.3622 15.0852 20.2797 15.3176C20.1823 15.5864 19.8492 15.7013 19.5404 15.6332C19.4051 15.602 19.2848 15.525 19.1998 15.4154C19.1148 15.3057 19.0703 15.1699 19.0738 15.0312C19.066 14.3153 19.069 13.6023 19.069 12.8893V12.8932ZM15.3978 17.141C15.5195 17.1157 15.726 17.0874 15.9247 17.0309C16.4419 16.8848 16.778 16.5127 16.9962 16.0569C17.1844 15.663 17.2612 15.2251 17.2183 14.7906C17.1832 14.401 17.0702 14.0182 16.7994 13.7523C16.4468 13.4055 16.0202 13.1299 15.6306 12.824C15.4659 12.6964 15.2633 12.5971 15.1435 12.4344C15.107 12.3671 15.0865 12.2922 15.0836 12.2157C15.0808 12.1392 15.0956 12.063 15.127 11.9931C15.1691 11.9345 15.2252 11.8873 15.2901 11.8558C15.3551 11.8244 15.4269 11.8096 15.4991 11.8129C15.7221 11.8636 15.9189 12.0175 16.138 12.0974C16.2354 12.1315 16.3942 12.1295 16.4566 12.0701C16.6601 11.8811 16.8238 11.6513 17.0166 11.4496C17.1413 11.3201 17.1394 11.1993 16.9981 11.1165C16.6733 10.9156 16.3363 10.735 15.989 10.5759C15.5633 10.3928 15.1192 10.46 14.7023 10.6236C14.1597 10.836 13.8325 11.2353 13.661 11.8061C13.4662 12.4587 13.6484 13.0013 14.0896 13.4416C14.3994 13.7503 14.8133 13.9529 15.1728 14.214C15.4445 14.4088 15.766 14.5442 15.8731 14.928C15.9705 15.2737 15.6919 15.7238 15.3296 15.7471C15.0325 15.7666 14.7929 15.641 14.5718 15.4802C14.4257 15.375 14.3263 15.3487 14.1821 15.4802C13.9684 15.676 13.7447 15.8606 13.512 16.0335C13.4019 16.1163 13.3932 16.1777 13.4828 16.2799C13.9727 16.8244 14.5786 17.104 15.3978 17.1371V17.141ZM12.5535 14.59C12.5535 13.8234 12.5535 13.0568 12.5535 12.2902C12.5535 12.111 12.6188 12.0467 12.7922 12.0584C12.9366 12.0784 13.0831 12.0784 13.2276 12.0584C13.3045 12.0428 13.4165 11.9405 13.4224 11.8724C13.4399 11.4827 13.4399 11.0844 13.4224 10.6908C13.4109 10.645 13.3877 10.603 13.3551 10.5689C13.3225 10.5347 13.2816 10.5096 13.2363 10.496C12.1837 10.4843 11.1308 10.4843 10.0775 10.496C10.0393 10.5059 10.0043 10.5254 9.97577 10.5527C9.94729 10.58 9.9263 10.6141 9.91484 10.6519C9.9012 11.0675 9.9012 11.4831 9.91484 11.8987C9.92571 11.9365 9.94596 11.971 9.97372 11.9989C10.0015 12.0268 10.0358 12.0473 10.0736 12.0584C10.2838 12.0725 10.4946 12.0725 10.7048 12.0584C10.9074 12.0496 11.0155 12.0214 11.0077 12.338C10.9717 13.8536 10.9921 15.3711 10.9902 16.8887C10.9902 17.0514 11.0603 17.1235 11.2249 17.1215C11.5922 17.1215 11.9603 17.1137 12.3266 17.1215C12.5029 17.1215 12.5643 17.0611 12.5623 16.8858C12.5496 16.1192 12.5535 15.3526 12.5535 14.5861V14.59Z" fill="black"/>
<path d="M5.88033 8.93756C5.80544 8.94645 5.72956 8.94183 5.6563 8.92392C5.61734 8.90833 5.56864 8.80411 5.58422 8.78073C5.84624 8.4028 6.09852 8.01416 6.39268 7.66155C6.7293 7.24572 7.09587 6.85506 7.48946 6.49269C7.89085 6.138 8.32236 5.81893 8.7791 5.5391C9.27916 5.23269 9.79697 4.95622 10.3298 4.71116C10.6494 4.57275 10.9801 4.46164 11.3184 4.37901C11.7081 4.27284 12.1074 4.19296 12.5029 4.1014C12.5183 4.09723 12.5339 4.09398 12.5496 4.09166C13.2052 4.05757 13.8617 3.97965 14.5133 4.00497C15.0529 4.02543 15.5935 4.14718 16.1244 4.26407C16.6264 4.36881 17.1205 4.50844 17.603 4.68194C18.0332 4.85311 18.45 5.05628 18.8498 5.28974C19.799 5.81977 20.649 6.51056 21.3619 7.33135C21.7515 7.77844 22.068 8.28689 22.4099 8.77294C22.4265 8.79729 22.3758 8.90639 22.3349 8.92392C22.2618 8.94257 22.1857 8.94687 22.1109 8.93658L5.88033 8.93756Z" fill="black"/>
<path d="M22.1109 18.6634C22.1858 18.6535 22.2618 18.6581 22.3349 18.6771C22.3758 18.6946 22.4265 18.8027 22.4099 18.8271C22.1411 19.2167 21.881 19.6063 21.58 19.9706C21.2475 20.3842 20.8848 20.7726 20.495 21.1326C20.1009 21.4797 19.6772 21.7916 19.2287 22.0648C18.7269 22.3665 18.2089 22.6403 17.677 22.885C17.3578 23.0243 17.0274 23.1364 16.6893 23.22C16.2939 23.3291 15.8897 23.409 15.4893 23.5015C15.4739 23.5054 15.4583 23.5083 15.4426 23.5103C14.7929 23.5434 14.1412 23.6213 13.4945 23.596C12.949 23.5746 12.4035 23.4528 11.8668 23.3359C11.3647 23.2309 10.8709 23.0896 10.3892 22.9132C9.95496 22.7378 9.53404 22.5311 9.12976 22.2947C8.18525 21.7697 7.33999 21.0833 6.6323 20.2667C6.24268 19.8187 5.92611 19.3112 5.58325 18.8241C5.56766 18.8017 5.61734 18.6975 5.6563 18.6819C5.7295 18.6637 5.80538 18.6587 5.88033 18.6673L22.1109 18.6634Z" fill="black"/>
<path d="M3.91275 13.801C3.90009 14.2393 3.866 14.665 3.57378 15.0098C3.43302 15.1645 3.26864 15.296 3.08676 15.3994C2.86175 15.5367 2.71273 15.4432 2.71175 15.1841C2.71175 14.2783 2.71175 13.3714 2.71175 12.4656C2.71175 12.3682 2.68448 12.2708 2.68935 12.1733C2.68935 12.1354 2.74487 12.0681 2.77604 12.0672C3.17929 12.0613 3.68093 12.4344 3.7608 12.8182C3.82899 13.1435 3.86308 13.4737 3.91275 13.801Z" fill="black"/>
<path d="M8.45766 14.4643C8.41091 14.4994 8.36026 14.5617 8.31253 14.5676C8.06123 14.5909 7.80797 14.6007 7.5557 14.6036C7.53914 14.6036 7.49433 14.5062 7.50699 14.4594C7.63167 14.062 7.76317 13.6666 7.89661 13.273C7.91025 13.2331 7.95798 13.2039 7.99402 13.1698C8.018 13.2059 8.03885 13.2441 8.05636 13.2838C8.17519 13.6257 8.2911 13.9656 8.40896 14.3104C8.42065 14.3503 8.43331 14.3913 8.45766 14.4643Z" fill="black"/>
</svg>
