<svg width="28" height="28" viewBox="0 0 28 28" fill="none" xmlns="http://www.w3.org/2000/svg">
<path d="M0.578593 10.4364C1.4909 10.5873 2.40874 10.5322 3.32528 10.53C4.12485 10.528 4.92475 10.5049 5.72465 10.5055C6.519 10.5055 7.31369 10.5381 8.10805 10.5306C8.68801 10.5244 9.26798 10.4508 9.84794 10.4521C10.2826 10.4521 10.7166 10.5286 11.1512 10.5642C11.2393 10.575 11.3286 10.5648 11.4119 10.5342C12.2135 10.1758 13.0827 9.99365 13.9607 10.0002C14.8387 10.0067 15.7051 10.2017 16.5013 10.572C16.5721 10.6017 16.6502 10.6092 16.7254 10.5935C17.3361 10.462 17.9623 10.4171 18.5855 10.4602C19.6172 10.5314 20.6518 10.5507 21.6854 10.5179C22.6336 10.4853 23.5837 10.5238 24.5331 10.5257C25.4174 10.5277 26.3033 10.587 27.1847 10.4547C27.3113 10.4362 27.4392 10.4269 27.5672 10.427C27.7604 10.427 27.921 10.5573 27.98 10.7469C28.0325 10.9174 27.9833 11.0464 27.8135 11.1748C27.7685 11.2125 27.7196 11.2453 27.6675 11.2725C27.4756 11.3611 27.3623 11.4784 27.3179 11.7133C27.2639 11.9978 26.9999 12.1411 26.7451 12.2503C26.6436 12.2925 26.5609 12.3702 26.5125 12.4689C26.3476 12.7654 26.0801 12.9492 25.7647 13.0609C25.7197 13.0736 25.6784 13.0969 25.6444 13.129C25.6103 13.161 25.5846 13.2009 25.5692 13.245C25.5301 13.3428 25.4422 13.4291 25.3552 13.493C25.1271 13.6601 24.8629 13.7458 24.584 13.7804C24.4816 13.7931 24.421 13.8292 24.3885 13.9322C24.3632 14.0146 24.3168 14.0889 24.2539 14.1478C24.191 14.2067 24.1139 14.2482 24.0301 14.2681C23.7889 14.3304 23.5413 14.3701 23.2953 14.4082C23.2025 14.4229 23.1441 14.4486 23.1021 14.5408C23.0044 14.752 22.8089 14.8377 22.5987 14.8631C22.393 14.8829 22.186 14.8869 21.9796 14.8751C21.847 14.8709 21.7447 14.865 21.6643 15.0133C21.5525 15.2192 21.328 15.2524 21.1178 15.2453C20.9168 15.2384 20.7168 15.1951 20.518 15.1602C20.4281 15.1446 20.3619 15.1381 20.3036 15.2342C20.2075 15.3929 20.0469 15.4297 19.8709 15.4144C19.8178 15.4095 19.7575 15.4163 19.7135 15.3932C19.4291 15.2433 19.1922 15.3958 18.9521 15.5098C18.908 15.538 18.8747 15.5803 18.8576 15.6297C18.4106 16.7401 17.6029 17.5013 16.5518 18.033C16.4038 18.1079 16.2702 18.2151 16.1409 18.3204C16.0236 18.4159 15.8982 18.4595 15.7554 18.4181C15.6554 18.3895 15.5896 18.4025 15.5186 18.4853C15.4026 18.6201 15.2459 18.6501 15.0816 18.5866C14.9859 18.5494 14.9171 18.552 14.8379 18.6276C14.6978 18.7612 14.5375 18.7762 14.3684 18.6752C14.2892 18.628 14.2381 18.6162 14.1573 18.6801C14.0123 18.7964 13.8468 18.7961 13.6966 18.6915C13.6105 18.6315 13.5512 18.6175 13.4568 18.6791C13.3023 18.7801 13.1264 18.757 12.9863 18.6254C12.9175 18.5602 12.8602 18.5472 12.7732 18.5817C12.5907 18.6547 12.4334 18.6127 12.2923 18.4712C12.2682 18.4504 12.24 18.4349 12.2095 18.4256C12.179 18.4164 12.147 18.4136 12.1153 18.4175C11.9094 18.4572 11.7524 18.4067 11.6266 18.2327C11.5836 18.1734 11.5021 18.1369 11.4311 18.104C10.4211 17.6293 9.61172 16.9412 9.10669 15.9279C9.05684 15.8278 9.01514 15.7232 8.97441 15.619C8.87862 15.372 8.72515 15.2932 8.46417 15.3521C8.32993 15.3821 8.18852 15.4209 8.05591 15.4065C7.93959 15.3938 7.80145 15.3381 7.72651 15.2541C7.63299 15.1498 7.55284 15.1563 7.43555 15.1687C7.17847 15.1977 6.91749 15.2277 6.66139 15.2104C6.54768 15.2026 6.40269 15.1055 6.34143 15.0061C6.25769 14.8696 6.16418 14.8693 6.03646 14.8735C5.83016 14.8858 5.62323 14.8826 5.4174 14.8641C5.18932 14.8367 4.98894 14.7412 4.88337 14.5079C4.86317 14.4636 4.79051 14.4271 4.73643 14.4167C4.52269 14.3753 4.30308 14.3594 4.09195 14.3082C3.86094 14.2522 3.67294 14.1326 3.58822 13.8846C3.57161 13.8361 3.47712 13.8064 3.41326 13.783C3.17932 13.6973 2.93755 13.6308 2.7098 13.5318C2.63489 13.5015 2.5681 13.4541 2.5148 13.3934C2.4615 13.3327 2.42317 13.2604 2.40288 13.1822C2.39213 13.1418 2.33771 13.1004 2.29373 13.0844C1.92196 12.9436 1.60038 12.7498 1.43583 12.3643C1.41889 12.3246 1.35405 12.3054 1.3117 12.2764C1.13705 12.1574 0.95101 12.0525 0.792985 11.914C0.71337 11.836 0.66436 11.7319 0.654836 11.6208C0.644736 11.4797 0.578268 11.4123 0.468465 11.353C0.364383 11.2989 0.264988 11.2362 0.171314 11.1656C0.0054701 11.035 -0.032977 10.9001 0.025997 10.73C0.0546234 10.6405 0.111242 10.5626 0.187505 10.5078C0.263768 10.4529 0.355637 10.424 0.449567 10.4254C0.493553 10.426 0.535911 10.4329 0.578593 10.4364ZM13.8917 16.2009C13.9986 16.2009 14.1058 16.2087 14.2117 16.2009C14.6082 16.1664 14.9937 16.0918 15.3322 15.8627C15.746 15.5825 15.9249 14.9286 15.4368 14.5004C15.3345 14.4105 15.2087 14.3463 15.0891 14.2779C14.9562 14.202 14.9523 14.159 15.0618 14.0547C15.1807 13.9416 15.3068 13.8296 15.3993 13.6963C15.6013 13.4057 15.5622 13.0815 15.3276 12.8149C15.1178 12.5738 14.848 12.4435 14.5457 12.3751C14.0702 12.2656 13.5756 12.2701 13.1023 12.3881C12.8282 12.4569 12.5728 12.6028 12.3118 12.7198C12.232 12.7556 12.2141 12.8075 12.2727 12.8974C12.3306 12.9847 12.3638 13.086 12.3688 13.1906C12.377 13.8892 12.3754 14.5884 12.3688 15.287C12.3688 15.3798 12.3542 15.489 12.3037 15.561C12.1942 15.7171 12.2682 15.7812 12.3982 15.8542C12.8647 16.1113 13.3642 16.2152 13.8917 16.2009ZM17.0972 12.8283L17.1448 12.8101C17.0558 12.626 16.9942 12.4191 16.8707 12.2637C16.7186 12.0682 16.5215 11.9082 16.3318 11.7469C16.0484 11.5051 15.9884 11.3305 16.1389 11.0083C16.2015 10.8743 16.1732 10.8278 16.0438 10.7776C14.8402 10.3113 13.6154 10.2563 12.3714 10.5821C12.1629 10.6365 11.9609 10.717 11.7423 10.79C11.7811 10.8551 11.8029 10.89 11.8234 10.9262C12.0147 11.2585 11.9831 11.4618 11.6947 11.7156C11.6071 11.7932 11.51 11.86 11.4204 11.9356C11.2249 12.1004 11.0577 12.2878 10.9847 12.5465C11.8922 11.7886 12.9439 11.4862 14.1032 11.5312C15.2625 11.5762 16.2908 11.9593 17.0972 12.8283ZM3.59181 11.4442L3.59604 11.3647C4.3904 11.3647 5.18476 11.367 5.97912 11.3647C6.23456 11.3647 6.49066 11.3507 6.74578 11.3354C6.79009 11.3328 6.83212 11.2921 6.87611 11.2702C6.84352 11.2324 6.82007 11.1777 6.77836 11.1604C6.69931 11.1286 6.61636 11.1074 6.53171 11.0975C5.85009 11.0076 5.16912 10.9125 4.48652 10.8369C3.2334 10.6903 1.97312 10.7401 0.716417 10.714C0.634309 10.7124 0.551224 10.7792 0.468465 10.8118C0.5219 10.8968 0.555786 11.0193 0.631377 11.0597C0.788749 11.1422 0.966323 11.2142 1.14129 11.2318C1.9578 11.3145 2.77529 11.3758 3.59181 11.4442ZM24.4018 11.3644C24.4018 11.3839 24.4018 11.4035 24.4018 11.423C25.0984 11.3823 25.7963 11.3553 26.491 11.2927C26.7683 11.2679 27.042 11.177 27.3111 11.0972C27.4336 11.0604 27.5623 10.9587 27.516 10.819C27.4955 10.7577 27.3316 10.7144 27.2326 10.7137C26.8064 10.7101 26.3799 10.7378 25.9537 10.732C24.7439 10.7142 23.5345 10.7925 22.3371 10.9662C21.9787 11.0184 21.6203 11.076 21.2648 11.1422C21.2117 11.1523 21.1703 11.224 21.1234 11.2673C21.1768 11.2907 21.2293 11.3325 21.284 11.3354C21.5235 11.351 21.7633 11.3624 22.0028 11.3634C22.8027 11.3663 23.6022 11.3644 24.4018 11.3644ZM17.394 13.0557C17.5937 12.9958 17.6354 12.8866 17.5361 12.6934C17.4367 12.5002 17.3191 12.3132 17.221 12.1177C17.0236 11.7251 17.1975 11.4869 17.5344 11.3579C17.7638 11.2727 18.0049 11.2238 18.2493 11.2129C18.8293 11.1839 19.4109 11.1894 19.9915 11.1728C20.1673 11.1693 20.3424 11.15 20.5147 11.1151C21.1247 10.9848 21.7323 10.8453 22.3394 10.7088C22.3562 10.7041 22.3724 10.6973 22.3876 10.6886C22.1654 10.6886 21.9314 10.6847 21.7004 10.6886C21.1573 10.6997 20.6138 10.7294 20.0713 10.7254C19.2509 10.7196 18.4305 10.6775 17.6104 10.6789C17.2344 10.6789 16.8522 10.718 16.5026 10.8903C16.2054 11.0373 16.15 11.3566 16.3862 11.5892C16.4954 11.697 16.6264 11.7831 16.7486 11.8772C17.0125 12.0815 17.2155 12.3305 17.3086 12.6556C17.3471 12.784 17.366 12.9153 17.394 13.0557ZM5.59921 10.6619L5.59432 10.688C5.6175 10.6976 5.64122 10.7058 5.66535 10.7127C6.10749 10.8121 6.548 10.9209 6.99275 11.006C7.358 11.0767 7.72651 11.1471 8.09664 11.1689C8.65054 11.2034 9.2064 11.1783 9.75834 11.2139C10.0295 11.2321 10.2958 11.2953 10.5462 11.4009C10.8622 11.5341 10.9326 11.7919 10.786 12.1027C10.7016 12.2806 10.5957 12.4481 10.5041 12.624C10.4647 12.699 10.4106 12.7798 10.4113 12.8573C10.4113 12.9189 10.4866 12.9792 10.5283 13.0401C10.5628 12.9964 10.6205 12.9564 10.628 12.9098C10.6967 12.4754 10.9118 12.1343 11.2614 11.8723C11.3894 11.7769 11.522 11.6847 11.6328 11.57C11.8384 11.3553 11.7872 11.0415 11.5204 10.9138C11.3525 10.8331 11.1738 10.7772 10.99 10.7476C10.0073 10.5951 9.021 10.7056 8.03571 10.7232C7.6734 10.7297 7.31108 10.7297 6.94877 10.7206C6.49913 10.7056 6.04982 10.6808 5.60051 10.6619H5.59921ZM12.2528 16.8343C12.1929 16.8066 12.1509 16.7861 12.1079 16.7691C11.537 16.5231 11.0255 16.1957 10.6521 15.6864C10.5869 15.5972 10.5325 15.5649 10.4172 15.5968C10.1923 15.6591 9.9509 15.6923 9.76974 15.5053C9.62964 15.3609 9.51658 15.4851 9.39114 15.4978C9.39993 15.5783 9.39863 15.6607 9.42079 15.7389C9.44695 15.8087 9.48083 15.8754 9.52179 15.9376C9.95449 16.7037 10.5801 17.2647 11.3607 17.6567C11.7234 17.8388 11.654 17.8704 11.856 17.5179C11.872 17.4902 11.8886 17.4635 11.9058 17.4358C12.0196 17.238 12.1333 17.0412 12.2528 16.8343ZM15.602 16.8343C15.6014 16.8517 15.6038 16.8691 15.6088 16.8858C15.7717 17.1673 15.9301 17.4511 16.1024 17.7261C16.123 17.7587 16.2311 17.774 16.2738 17.7512C16.541 17.6078 16.8127 17.4684 17.0613 17.295C17.6827 16.8643 18.1656 16.3117 18.4595 15.6073C18.4774 15.5649 18.4552 15.5056 18.4516 15.4541C18.3897 15.461 18.3213 15.4541 18.2675 15.4773C18.1763 15.5154 18.0939 15.6115 18.0069 15.6138C17.8225 15.6163 17.6385 15.5951 17.4595 15.5506C17.3487 15.5242 17.2871 15.5333 17.2197 15.6288C16.962 15.9904 16.6261 16.2894 16.237 16.5036C16.0301 16.6212 15.8138 16.7245 15.602 16.8337V16.8343ZM26.8536 11.7326L26.8292 11.6827C26.7839 11.6753 26.7382 11.6704 26.6924 11.6681C25.9993 11.6681 25.306 11.6733 24.613 11.6716C24.2083 11.6716 23.8036 11.6716 23.3996 11.6537C22.7186 11.6237 22.0383 11.5775 21.3573 11.5426C21.267 11.5403 21.1769 11.5513 21.0898 11.5752C21.0462 11.5866 21.0116 11.6332 20.9729 11.6638C21.0097 11.6987 21.041 11.7508 21.0846 11.7648C21.1957 11.8022 21.3102 11.8284 21.4264 11.843C21.9878 11.9039 22.5485 11.9769 23.1116 12.0108C24.0151 12.0656 24.9202 12.0998 25.825 12.1278C26.1262 12.1426 26.4244 12.0628 26.678 11.8997C26.7445 11.857 26.7956 11.7893 26.8536 11.7326ZM1.16833 11.6755L1.13282 11.7407C1.22894 11.814 1.31495 11.9222 1.42378 11.9548C1.68444 12.033 1.95846 12.1177 2.22824 12.1236C2.7968 12.1343 3.36862 12.1105 3.93555 12.0734C4.75337 12.0199 5.57118 11.947 6.38574 11.8723C6.56983 11.8554 6.75132 11.8039 6.9315 11.7583C6.96864 11.7489 6.99471 11.6954 7.02566 11.6622C6.99112 11.6338 6.9605 11.5856 6.92172 11.5801C6.78591 11.5569 6.6483 11.546 6.51053 11.5475C5.4099 11.5863 4.30992 11.6391 3.20929 11.6694C2.58632 11.6866 1.96237 11.6694 1.33874 11.6694C1.28205 11.6677 1.22535 11.6729 1.16833 11.6755ZM9.81797 12.682C9.84762 12.7583 9.87075 12.8179 9.89356 12.8775C9.95221 12.8482 10.0223 12.8306 10.0669 12.7869C10.208 12.6575 10.3394 12.5178 10.4602 12.3692C10.8277 11.8893 10.7045 11.5077 10.1106 11.4243C9.58924 11.3494 9.0513 11.3712 8.52054 11.3507C8.5049 11.3507 8.4772 11.3507 8.47525 11.3579C8.46222 11.4022 8.43843 11.4533 8.45049 11.4921C8.45961 11.5214 8.5176 11.5351 8.55345 11.5553C8.48046 11.7375 8.48046 11.7375 8.7118 11.8297C8.64109 12.047 8.83202 12.0252 8.92619 12.0577C8.94769 12.1451 8.94443 12.2451 8.98451 12.2672C9.04251 12.2998 9.13178 12.2757 9.17772 12.2757C9.20705 12.3761 9.20802 12.4963 9.26113 12.5279C9.31946 12.5605 9.426 12.5145 9.51202 12.5028C9.53971 12.7159 9.53971 12.7159 9.81797 12.682ZM19.0521 12.0688C19.2828 11.9949 19.2828 11.9949 19.3053 11.817C19.5145 11.744 19.5145 11.744 19.4545 11.5755L19.5848 11.4181C19.5197 11.3944 19.4578 11.351 19.3939 11.3497C19.0417 11.3435 18.6882 11.3285 18.3379 11.3546C18.0949 11.3736 17.8555 11.4257 17.6266 11.5097C17.3383 11.6153 17.2682 11.8355 17.3885 12.12C17.5188 12.4256 17.7674 12.6322 18.002 12.8482C18.0844 12.9241 18.1473 12.8873 18.1568 12.7732C18.1594 12.7433 18.1568 12.713 18.1568 12.6817C18.4432 12.7084 18.4432 12.7084 18.4959 12.5263C18.5898 12.5263 18.7032 12.5589 18.754 12.5168C18.8048 12.4748 18.7941 12.3572 18.8104 12.2725C19.0674 12.3044 19.0743 12.2988 19.0521 12.0688ZM2.0562 12.4855L2.03828 12.5338C2.06824 12.5744 2.10183 12.6123 2.13864 12.6468C2.32012 12.7873 2.52246 12.8821 2.75607 12.8749C3.04931 12.8671 3.34255 12.8687 3.63254 12.8273C4.67517 12.6778 5.7178 12.5132 6.75881 12.351C6.86943 12.3348 6.97759 12.3048 7.08072 12.2617C7.12797 12.2415 7.15371 12.1724 7.18922 12.1258C7.1415 12.0898 7.09131 12.0571 7.03902 12.0281C7.00803 12.0201 6.97552 12.0201 6.94453 12.0281C6.49489 12.0815 6.04689 12.1457 5.59627 12.1871C4.62662 12.2764 3.65567 12.3546 2.68504 12.4363C2.47586 12.4552 2.26603 12.4696 2.0562 12.4855ZM25.9866 12.4992C25.8987 12.4849 25.8495 12.4732 25.7996 12.4699C25.2783 12.4341 24.757 12.4132 24.2379 12.3627C23.1885 12.2604 22.1409 12.1418 21.0924 12.0313C21.0348 12.0219 20.9758 12.0243 20.9191 12.0385C20.8754 12.0535 20.8187 12.0985 20.8129 12.1363C20.807 12.1741 20.8546 12.2317 20.8937 12.2519C20.9657 12.287 21.0426 12.3112 21.1218 12.3236C21.7881 12.4416 22.4521 12.5758 23.122 12.6664C23.8062 12.7592 24.4983 12.812 25.1874 12.8749C25.4317 12.8974 25.6484 12.8055 25.8416 12.6608C25.8876 12.626 25.9215 12.5738 25.9866 12.4992ZM2.99132 13.2454L2.97274 13.2998C3.03791 13.3356 3.10307 13.3832 3.1728 13.4053C3.57096 13.5282 3.9854 13.5731 4.38975 13.4927C5.34018 13.303 6.28376 13.0808 7.22995 12.8694C7.29512 12.8547 7.37462 12.8368 7.41958 12.7938C7.46943 12.7449 7.51928 12.6582 7.50918 12.5983C7.50104 12.5507 7.4059 12.493 7.34366 12.4855C7.25732 12.4748 7.16544 12.5051 7.07681 12.5214C6.05992 12.7074 5.04531 12.8967 4.02906 13.0802C3.68434 13.1421 3.33734 13.1906 2.99132 13.2454ZM25.0352 13.2907C24.9958 13.2613 24.9847 13.2473 24.9701 13.2441C24.913 13.2307 24.8554 13.2199 24.7977 13.2095L20.9272 12.5181C20.8435 12.5035 20.7562 12.4725 20.6757 12.4855C20.607 12.4956 20.5001 12.5478 20.4916 12.5957C20.4809 12.6586 20.5376 12.7469 20.5894 12.8019C20.6281 12.8433 20.7034 12.8563 20.765 12.87C21.7121 13.0811 22.6567 13.304 23.6078 13.4936C24.0177 13.5754 24.4377 13.5288 24.841 13.4018C24.9055 13.3803 24.9613 13.333 25.0352 13.2907ZM4.14473 13.9097C4.19583 13.9479 4.24926 13.9828 4.30471 14.0143C4.56658 14.1402 4.86063 14.1833 5.14761 14.1378C5.84227 14.027 6.49848 13.7875 7.15338 13.5435C7.38798 13.4558 7.62126 13.363 7.84739 13.2558C7.90115 13.2304 7.96762 13.1131 7.9497 13.0798C7.91711 13.0205 7.82914 12.9883 7.75909 12.9547C7.73628 12.944 7.69783 12.9635 7.66688 12.9717C6.56256 13.2571 5.45834 13.5429 4.35423 13.8292C4.29493 13.8446 4.2402 13.8722 4.14473 13.9097ZM23.8512 13.9097C23.759 13.8745 23.7046 13.8472 23.6466 13.8322C22.5427 13.5454 21.4386 13.2596 20.3342 12.9746C20.2199 12.9446 20.1042 12.9244 20.0491 13.0632C19.9915 13.2085 20.1097 13.2555 20.2085 13.2913C20.9683 13.5552 21.7268 13.8234 22.4928 14.0677C22.7066 14.1362 22.9444 14.1512 23.1712 14.1512C23.4185 14.1497 23.658 14.0638 23.8499 13.9078L23.8512 13.9097ZM8.53422 13.624C8.42246 13.5454 8.35209 13.506 8.29409 13.4532C8.21492 13.3812 8.14193 13.3881 8.04712 13.4255C7.21724 13.7416 6.38542 14.0511 5.55457 14.3672C5.49722 14.389 5.45421 14.449 5.40469 14.4913C5.46301 14.5275 5.52003 14.593 5.57966 14.5949C5.80773 14.6034 6.05014 14.6389 6.26193 14.5773C6.78097 14.4261 7.29153 14.2414 7.7933 14.0407C8.0419 13.94 8.26411 13.7768 8.53422 13.622V13.624ZM19.4985 13.6034C19.5751 13.6647 19.6367 13.7224 19.7064 13.7664C20.285 14.1424 20.9237 14.3854 21.5864 14.5516C21.8539 14.619 22.1471 14.591 22.4283 14.5923C22.483 14.5923 22.5381 14.5272 22.5912 14.492C22.5427 14.4493 22.501 14.3884 22.4443 14.3665C21.6036 14.0453 20.7616 13.7276 19.9182 13.4135C19.8739 13.3969 19.809 13.3877 19.7719 13.4079C19.6816 13.4578 19.6005 13.5275 19.4985 13.6015V13.6034ZM11.4442 10.6189C11.5745 10.7538 11.6823 10.7241 11.7977 10.6782C13.1999 10.1319 14.759 10.1492 16.1487 10.7264C16.2673 10.7766 16.367 10.7854 16.4726 10.657C14.7972 9.92392 13.1394 9.91056 11.4442 10.6189ZM19.0397 13.9423C19.062 13.9746 19.0879 14.0043 19.117 14.0306C19.4236 14.2424 19.723 14.4656 20.0413 14.6578C20.3597 14.85 20.707 14.9465 21.0794 14.9126C21.1498 14.9061 21.2143 14.8338 21.2817 14.7917C21.2276 14.7487 21.1794 14.694 21.1188 14.6643C20.5767 14.4037 20.0293 14.1554 19.4897 13.8911C19.2593 13.7794 19.2655 13.7651 19.0397 13.9423ZM8.99233 13.9469C8.84278 13.8716 8.77142 13.7514 8.62122 13.825C8.01909 14.1163 7.41209 14.4004 6.80931 14.6917C6.77217 14.7096 6.72427 14.7569 6.72525 14.7894C6.72994 14.8117 6.74025 14.8323 6.7552 14.8494C6.77014 14.8665 6.78922 14.8795 6.81062 14.8872C6.93013 14.9085 7.05164 14.9166 7.17293 14.9113C7.65548 14.8787 8.04777 14.6288 8.43061 14.3639C8.61047 14.2355 8.78543 14.1 8.99233 13.9469ZM14.5737 18.6387C14.7529 18.6387 14.877 18.5185 14.8422 18.3412C14.7649 17.9503 14.6688 17.5622 14.5773 17.1738C14.5463 17.0415 14.4398 17.0839 14.3551 17.093C14.2752 17.1015 14.1905 17.1135 14.2003 17.2302C14.2329 17.6212 14.2596 18.0148 14.3003 18.4061C14.3186 18.5657 14.4192 18.6377 14.575 18.6374L14.5737 18.6387ZM14.6623 17.0813C14.6714 17.1334 14.677 17.179 14.688 17.2266C14.7704 17.5687 14.8533 17.9107 14.937 18.2526C14.9676 18.3784 15.0272 18.4833 15.1621 18.5188C15.3824 18.5771 15.556 18.38 15.4746 18.1457C15.3713 17.8489 15.2465 17.5593 15.1279 17.268C15.0093 16.9767 15.0083 16.9796 14.7043 17.0555C14.69 17.0623 14.6764 17.0705 14.6636 17.08L14.6623 17.0813ZM14.1807 18.2705H14.1847C14.1605 17.9366 14.1341 17.6032 14.1133 17.2693C14.1022 17.0907 13.9771 17.1174 13.8601 17.1116C13.7282 17.1047 13.7204 17.1833 13.7145 17.2839C13.7005 17.5277 13.6731 17.7707 13.6601 18.0144C13.6516 18.1725 13.6392 18.3341 13.665 18.4882C13.6907 18.6423 13.8259 18.6752 13.9637 18.6638C14.0941 18.6531 14.1628 18.5703 14.1794 18.4455C14.1841 18.3869 14.185 18.328 14.182 18.2692L14.1807 18.2705ZM11.6804 18.0545C11.6882 18.1914 11.7455 18.2764 11.8645 18.3227C12.0323 18.3878 12.1701 18.3148 12.2574 18.1014C12.3864 17.7863 12.5122 17.4698 12.6347 17.152C12.6627 17.079 12.7253 16.9953 12.6021 16.9373C12.4252 16.8548 12.3467 16.8617 12.2763 16.9832C12.1225 17.2439 11.9677 17.5045 11.8179 17.7694C11.7648 17.8593 11.7263 17.9581 11.6817 18.0532L11.6804 18.0545ZM13.6109 17.3807C13.6109 17.3432 13.6109 17.2849 13.6109 17.2263C13.6109 17.1054 13.5209 17.0959 13.4356 17.0865C13.3502 17.077 13.2652 17.0731 13.2401 17.1911C13.159 17.554 13.069 17.9154 12.9921 18.279C12.9498 18.48 13.04 18.6153 13.2091 18.6374C13.3942 18.6605 13.5203 18.5595 13.5392 18.3562C13.5685 18.0366 13.5864 17.7183 13.6122 17.3794L13.6109 17.3807ZM15.1198 16.9878C15.2941 17.4058 15.4596 17.8189 15.6411 18.2259C15.6952 18.3478 15.818 18.3702 15.9444 18.3272C16.1399 18.2621 16.1898 18.0855 16.0679 17.8688C15.9272 17.6182 15.7783 17.3726 15.6349 17.1236C15.47 16.835 15.471 16.8343 15.1211 16.9865L15.1198 16.9878ZM12.3353 18.2288C12.3353 18.4087 12.3916 18.4817 12.5402 18.5156C12.7093 18.554 12.8292 18.4761 12.8833 18.2679C12.9755 17.9118 13.0593 17.5537 13.1371 17.1943C13.1466 17.152 13.099 17.0555 13.0755 17.0549C12.9745 17.0516 12.8475 16.9161 12.7729 17.092C12.6334 17.4267 12.4985 17.7629 12.3643 18.0998C12.3508 18.1414 12.3416 18.1841 12.3366 18.2275L12.3353 18.2288ZM9.04772 15.5405C9.08258 15.6333 9.11093 15.7281 9.15231 15.8168C9.48954 16.5407 10.0024 17.1158 10.6612 17.5589C10.9166 17.731 11.1946 17.8694 11.4663 18.0151C11.4989 18.032 11.5553 18.0021 11.6005 17.9939C11.5826 17.9463 11.5745 17.8896 11.5432 17.8535C11.5119 17.8173 11.4575 17.8124 11.4178 17.7864C11.0571 17.5518 10.6765 17.3416 10.3425 17.0735C9.87103 16.6928 9.50397 16.1986 9.2758 15.6372C9.23833 15.5476 9.18782 15.4773 9.04772 15.5405ZM16.2452 18.0451C17.1627 17.8421 18.6869 16.3156 18.7638 15.5317C18.6172 15.504 18.6106 15.5066 18.551 15.6441C18.2838 16.2771 17.8505 16.8261 17.2969 17.2331C16.9936 17.4557 16.658 17.6352 16.3341 17.8287C16.2474 17.8789 16.1784 17.9245 16.2452 18.0451ZM18.4917 14.2287C18.7732 14.6197 19.1137 14.9172 19.5744 15.0599C19.6396 15.0834 19.7079 15.0971 19.7771 15.1003C19.84 15.1003 19.9025 15.0706 19.9654 15.054C19.9328 14.9941 19.9002 14.9338 19.8651 14.8745C19.8605 14.866 19.8481 14.8621 19.8393 14.8559C19.5135 14.6356 19.1834 14.42 18.8618 14.1935C18.727 14.0987 18.6198 14.129 18.4917 14.2287ZM9.50355 14.2352C9.33053 14.1023 9.28883 14.098 9.13895 14.1958C9.05 14.2538 8.96398 14.3167 8.87569 14.3763C8.61991 14.549 8.36154 14.7178 8.11033 14.8976C8.06862 14.9273 8.05819 15.0012 8.03343 15.0547C8.08556 15.0726 8.14095 15.1117 8.1895 15.1048C8.76588 15.0244 9.16958 14.6858 9.50355 14.2355V14.2352ZM17.9548 14.3936C18.0884 14.7205 18.3263 14.9941 18.6315 15.172C18.7136 15.2215 18.8052 15.2814 18.884 15.172C18.9629 15.0625 18.8781 14.9944 18.8107 14.9266C18.6462 14.7601 18.4718 14.6031 18.3167 14.4284C18.2082 14.3062 18.1063 14.2818 17.9548 14.3936ZM10.0483 14.3897C9.91604 14.3017 9.80852 14.273 9.70425 14.4082C9.64559 14.4774 9.58246 14.5427 9.51528 14.6037C9.39114 14.7275 9.25853 14.8445 9.14579 14.9784C9.1093 15.0218 9.10441 15.1149 9.12298 15.1739C9.13211 15.2023 9.24289 15.2322 9.28264 15.212C9.62909 15.0397 9.90118 14.7475 10.0483 14.3897ZM19.1759 12.5087C19.1137 12.5458 19.0629 12.5589 19.0502 12.5885C19.0375 12.6182 19.0479 12.6862 19.0714 12.7016C19.2721 12.8257 19.4744 12.9489 19.6859 13.0528C19.7184 13.0694 19.8318 13.0033 19.8517 12.9531C19.8716 12.9029 19.838 12.7879 19.796 12.7674C19.593 12.6674 19.3789 12.5901 19.1759 12.5087ZM8.27975 13.0802C8.544 12.9906 8.76849 12.8847 8.93531 12.6892C9.00276 12.61 8.94313 12.5217 8.85711 12.5442C8.62929 12.606 8.406 12.6836 8.18885 12.7762C8.15333 12.7908 8.12955 12.901 8.14551 12.9534C8.16148 13.0059 8.23414 13.0401 8.27975 13.0802ZM17.6918 14.6158C17.6429 14.7354 17.5999 14.8263 17.5683 14.9207C17.5421 14.9993 17.5474 15.085 17.583 15.1598C17.6186 15.2346 17.6817 15.2926 17.7593 15.3218C17.8142 15.3445 17.875 15.3486 17.9326 15.3337C17.9901 15.3188 18.0412 15.2856 18.0782 15.2391C18.1678 15.1358 18.0851 15.0602 18.0248 14.9888C17.9267 14.8712 17.8221 14.7591 17.6918 14.6158ZM18.5676 13.6758C18.5732 13.5285 18.1646 13.175 18.017 13.2089C17.9844 13.2167 17.9316 13.3014 17.9398 13.3115C18.0701 13.4816 18.1962 13.6569 18.349 13.8048C18.4207 13.8732 18.5647 13.7761 18.5686 13.6758H18.5676ZM9.98935 13.204C9.81373 13.2092 9.45174 13.5024 9.43545 13.6324C9.43358 13.6599 9.43801 13.6875 9.4484 13.713C9.45879 13.7385 9.47487 13.7613 9.4954 13.7797C9.54004 13.8084 9.64007 13.824 9.66646 13.7967C9.80381 13.6584 9.92967 13.5093 10.0428 13.3506C10.0904 13.2835 10.0542 13.203 9.98935 13.204ZM8.23772 11.9359C8.04223 11.9776 7.85912 12.0098 7.68122 12.0597C7.63821 12.0714 7.58347 12.1418 7.5851 12.1829C7.58673 12.2239 7.6457 12.2806 7.69197 12.2985C7.75073 12.3226 7.81555 12.3277 7.87736 12.3132C8.01436 12.2749 8.14762 12.2243 8.27552 12.162C8.33189 12.1337 8.3661 12.0607 8.41008 12.0079L8.23772 11.9359ZM19.7621 11.9414C19.7053 11.9567 19.6497 11.976 19.5956 11.9991C19.5904 12.0014 19.6044 12.0864 19.6282 12.1037C19.8139 12.2314 20.0133 12.3386 20.2472 12.3132C20.3088 12.3063 20.3629 12.2275 20.4206 12.1829C20.3714 12.1343 20.3297 12.0584 20.2714 12.0421C20.1097 11.9955 19.94 11.9743 19.7621 11.9414ZM20.1329 11.599V11.6071C20.0695 11.6041 20.0059 11.6049 19.9426 11.6094C19.91 11.613 19.8556 11.6371 19.854 11.6557C19.8528 11.6754 19.856 11.6951 19.8633 11.7134C19.8706 11.7317 19.8819 11.7481 19.8963 11.7616C19.991 11.8296 20.0992 11.8762 20.2136 11.8983C20.3281 11.9204 20.4459 11.9175 20.5591 11.8896C20.6125 11.8769 20.6513 11.8013 20.6969 11.7544C20.6454 11.7166 20.5991 11.6566 20.5415 11.6449C20.4061 11.6227 20.2698 11.6074 20.1329 11.599ZM7.59129 11.9111L7.60302 11.9463C7.76593 11.8893 7.92884 11.8368 8.08784 11.7717C8.12043 11.7586 8.13053 11.697 8.15138 11.658C8.11554 11.6407 8.07937 11.6081 8.04418 11.6088C7.86996 11.6085 7.69587 11.6187 7.52287 11.6394C7.44532 11.6505 7.37494 11.7127 7.30131 11.7518C7.37722 11.8049 7.45184 11.8596 7.52938 11.9098C7.54404 11.9196 7.57044 11.9111 7.59129 11.9111ZM20.0006 12.6752C20.0638 12.6426 20.1479 12.6195 20.1508 12.5892C20.156 12.5383 20.1244 12.4588 20.0827 12.4331C19.9419 12.3492 19.7927 12.28 19.6376 12.2268C19.5819 12.2086 19.5014 12.2669 19.4324 12.29C19.4649 12.3552 19.478 12.4552 19.5301 12.4833C19.6771 12.5621 19.8396 12.612 20.0006 12.6752ZM7.98977 12.6817C8.15985 12.6107 8.32895 12.5514 8.4847 12.4673C8.53064 12.4425 8.53846 12.3471 8.56355 12.2842C8.50359 12.2614 8.43322 12.2053 8.38597 12.222C8.2178 12.2848 8.05445 12.3598 7.89724 12.4464C7.8627 12.465 7.82914 12.5442 7.84217 12.5768C7.85944 12.6185 7.92526 12.639 7.98977 12.6817ZM19.3141 13.349C19.3333 13.3346 19.3962 13.3122 19.4066 13.275C19.419 13.2294 19.4066 13.1447 19.374 13.1238C19.2022 13.0221 19.0254 12.929 18.8443 12.8449C18.8325 12.8397 18.756 12.913 18.7602 12.9427C18.7775 13.0671 19.1473 13.3444 19.3141 13.349ZM8.04744 11.3807C7.87997 11.279 7.71836 11.2523 7.38309 11.2829C7.31629 11.2891 7.25537 11.3608 7.19183 11.4025C7.25699 11.452 7.32216 11.5442 7.38569 11.5433C7.55806 11.541 7.73042 11.5025 7.90115 11.4696C7.94774 11.4612 7.98651 11.4198 8.04744 11.3807ZM19.9612 11.3481C20.0886 11.5247 20.6184 11.6114 20.7552 11.5009C20.8321 11.4387 20.8204 11.3178 20.7246 11.3015C20.477 11.2595 20.2251 11.2523 19.9625 11.3474L19.9612 11.3481ZM8.67954 13.3483C8.84245 13.3483 9.21259 13.0776 9.23833 12.9476C9.24419 12.9176 9.1699 12.8394 9.16176 12.8433C8.97767 12.9329 8.79488 13.0264 8.61894 13.1313C8.58994 13.1486 8.5756 13.2291 8.58929 13.2698C8.60297 13.3105 8.66064 13.333 8.67954 13.3483ZM9.09203 13.5438C9.27156 13.5438 9.56122 13.3183 9.59119 13.1854C9.59836 13.1528 9.59315 13.0948 9.5749 13.0854C9.53776 13.0665 9.47715 13.0548 9.44457 13.0724C9.30818 13.1434 9.17669 13.2236 9.05098 13.3122C9.00895 13.3428 8.96659 13.4242 8.97962 13.4646C8.99265 13.505 9.07216 13.5298 9.09203 13.5428V13.5438ZM18.9084 13.5438C18.9264 13.5331 18.9866 13.5135 19.0156 13.4721C19.0326 13.448 19.0137 13.3679 18.986 13.3486C18.8408 13.2416 18.6875 13.1459 18.5276 13.0626C18.4396 13.0196 18.3855 13.086 18.4093 13.1838C18.4412 13.319 18.7344 13.5441 18.9084 13.5422V13.5438ZM10.1979 14.7432C10.1076 14.8409 10.0369 14.9126 9.97338 14.9898C9.91441 15.0618 9.83165 15.1364 9.9206 15.2391C10.0096 15.3417 10.1213 15.373 10.236 15.3176C10.2855 15.2935 10.339 15.2006 10.3302 15.1495C10.307 15.0218 10.2503 14.8999 10.1979 14.7432ZM17.6716 13.4151C17.6514 13.4402 17.6358 13.4687 17.6253 13.4992C17.6029 13.6129 17.7482 13.8859 17.8534 13.9342C17.9463 13.9762 18.0242 13.9625 18.0545 13.854C18.0906 13.7207 17.8329 13.4057 17.6703 13.4151H17.6716ZM10.3481 13.4366L10.3041 13.4099C10.1233 13.4676 10.0109 13.6018 9.95286 13.7774C9.93852 13.8217 9.98544 13.9237 10.0268 13.9403C10.0728 13.957 10.1787 13.9208 10.1972 13.8797C10.2608 13.7377 10.2986 13.5839 10.3468 13.4366H10.3481Z" fill="black"/>
<path d="M13.3199 15.0455C13.3193 14.9559 13.3366 14.8671 13.3707 14.7842C13.4049 14.7013 13.4551 14.626 13.5186 14.5627C13.5821 14.4995 13.6576 14.4495 13.7406 14.4157C13.8236 14.3819 13.9126 14.365 14.0022 14.3659C14.3932 14.3675 14.6864 14.6754 14.6789 15.0827C14.6786 15.1736 14.6602 15.2636 14.6248 15.3474C14.5894 15.4312 14.5378 15.5071 14.4728 15.5707C14.4079 15.6344 14.3309 15.6845 14.2464 15.7182C14.1619 15.7519 14.0716 15.7684 13.9807 15.7669C13.607 15.7575 13.3144 15.4385 13.3199 15.0455Z" fill="black"/>
<path d="M13.9494 12.7407C14.2713 12.7465 14.5238 13.0339 14.5157 13.3874C14.5072 13.752 14.2482 14.015 13.9051 14.0065C13.591 14 13.3313 13.7044 13.3349 13.3574C13.3385 13.0104 13.6092 12.7348 13.9494 12.7407Z" fill="black"/>
<path d="M16.7261 10.832C16.7567 10.8587 16.7932 10.8763 16.8039 10.9043C16.81 10.9202 16.8123 10.9374 16.8106 10.9544C16.8089 10.9713 16.8033 10.9877 16.7942 11.0021C16.754 11.0361 16.7103 11.0657 16.6638 11.0904C16.4765 11.2142 16.4625 11.309 16.6078 11.4761C16.6215 11.4921 16.6479 11.5045 16.6505 11.5214C16.6573 11.5628 16.6697 11.6192 16.6505 11.6439C16.6313 11.6687 16.5622 11.669 16.5322 11.6514C16.2745 11.4976 16.2549 11.1718 16.4915 10.9861C16.5596 10.9297 16.6397 10.8874 16.7261 10.832Z" fill="black"/>
<path d="M11.7159 11.3106C11.6374 11.4243 11.5631 11.5413 11.4767 11.6485C11.4595 11.6697 11.3953 11.6534 11.3529 11.6544C11.3474 11.6083 11.3483 11.5617 11.3555 11.5159C11.365 11.4833 11.4051 11.4618 11.4272 11.4322C11.525 11.3018 11.5122 11.223 11.3777 11.1243C11.3262 11.0865 11.2643 11.0614 11.2187 11.0184C11.2062 11.0042 11.1972 10.9872 11.1926 10.9688C11.188 10.9504 11.1879 10.9312 11.1923 10.9128C11.2016 10.896 11.2149 10.8817 11.231 10.8712C11.2472 10.8608 11.2657 10.8545 11.2848 10.8528C11.4526 10.8675 11.68 11.1233 11.7159 11.3106Z" fill="black"/>
</svg>
