<svg width="28" height="28" viewBox="0 0 28 28" fill="none" xmlns="http://www.w3.org/2000/svg">
<path d="M26.187 22.4954V27.9855H25.4679C17.56 27.9855 9.65309 27.9903 1.74701 28C1.17197 28 0.994827 27.8678 1.00011 27.2716C1.0292 24.0778 0.980285 20.884 1.02391 17.6915C1.07018 14.3113 2.81514 12.3086 6.26011 11.9702C9.18424 11.6833 12.1494 11.7996 15.096 11.7587C17.1661 11.7296 19.2363 11.7362 21.3091 11.7269H21.9383V16.5441H8.96083C7.43532 16.5441 6.91315 17.0728 6.91051 18.6156C6.91051 19.6943 6.94488 20.7743 6.9039 21.8517C6.88274 22.4016 7.085 22.506 7.58602 22.5047C13.5109 22.4897 19.4354 22.4866 25.3595 22.4954H26.187Z" fill="black"/>
<path d="M26.1659 0V5.41995H6.91579V10.9721C4.79144 10.8399 3.10068 10.0467 2.00347 8.27534C1.57648 7.58661 1.1918 6.75643 1.14288 5.96856C1.02127 4.00283 1.10323 2.02389 1.10323 0H26.1659Z" fill="black"/>
</svg>
