<svg width="28" height="28" viewBox="0 0 28 28" fill="none" xmlns="http://www.w3.org/2000/svg">
<path d="M10.9447 14.2023C10.6656 14.1638 10.3994 14.1302 10.1342 14.0878C10.0867 14.0804 10.0446 14.0364 10 14.0092C10.045 13.9769 10.0867 13.9248 10.1355 13.9167C10.4004 13.8727 10.6669 13.8401 10.9466 13.8016C10.9644 13.5105 10.9831 13.2256 10.9987 12.942C11.1125 10.8765 11.226 8.81071 11.3392 6.74459C11.4347 5.01244 11.5306 3.28029 11.6267 1.54814C11.6367 1.36541 11.6552 1.18269 11.6552 0.998348C11.6552 0.879659 11.7063 0.846348 11.8149 0.827914C12.4889 0.713429 13.1616 0.591506 13.8346 0.47217C13.8876 0.462791 13.9397 0.448885 14.0034 0.434332L14.0335 0H14.0885C14.0982 0.133889 14.1079 0.268102 14.1189 0.416868C14.4662 0.479608 14.8142 0.542456 15.1628 0.605412C15.5865 0.681412 16.0098 0.760646 16.4348 0.828561C16.547 0.846672 16.5881 0.887744 16.5942 1.00158C16.6589 2.23893 16.7262 3.47627 16.796 4.71361C16.9001 6.58009 17.0048 8.44656 17.11 10.313C17.1695 11.3835 17.2219 12.4543 17.2844 13.5244C17.3038 13.8582 17.252 13.798 17.5699 13.8407C17.7513 13.8653 17.9341 13.8841 18.1139 13.9167C18.1634 13.9258 18.2054 13.9762 18.2507 14.0076C18.2015 14.0357 18.1537 14.0807 18.1022 14.0894C17.8794 14.1256 17.655 14.1577 17.4302 14.1784C17.3257 14.1881 17.2986 14.2295 17.2934 14.3284C17.2611 14.9752 17.221 15.6194 17.1851 16.265C17.0783 18.1638 16.9725 20.0626 16.8675 21.9614C16.7853 23.4458 16.7046 24.9306 16.6253 26.4156C16.612 26.6569 16.5949 26.8978 16.5793 27.1462L14.1186 27.5864C14.1076 27.7322 14.0979 27.8661 14.0862 28H14.0312C14.0207 27.9092 14.015 27.8178 14.0141 27.7264C14.018 27.6139 13.9924 27.5586 13.8627 27.5369C13.1836 27.424 12.5061 27.2953 11.8269 27.1789C11.7073 27.1582 11.6584 27.1197 11.6516 26.9877C11.5223 24.5398 11.389 22.0922 11.2519 19.6449C11.1657 18.0958 11.0794 16.5465 10.9932 14.9972C10.9815 14.734 10.9625 14.472 10.9447 14.2023ZM14.1402 26.8383C14.7052 26.7381 15.2511 26.6443 15.7954 26.5392C15.8342 26.5317 15.8847 26.4557 15.8876 26.4098C15.9975 24.517 16.1043 22.6239 16.2077 20.7305C16.3125 18.8479 16.4168 16.9655 16.5205 15.0832C16.5344 14.8271 16.5463 14.5706 16.5603 14.2958L14.6114 14.5532C14.4553 18.6496 14.2983 22.7447 14.1402 26.8383ZM16.5593 13.7081C16.5593 13.6593 16.5593 13.6383 16.5593 13.6176C16.4698 12.0197 16.3801 10.4219 16.2902 8.82408C16.1565 6.41968 16.0245 4.01506 15.894 1.61023C15.8882 1.49898 15.8455 1.46146 15.7459 1.44853C15.581 1.42459 15.417 1.39193 15.2527 1.36315L14.148 1.16911C14.148 1.26031 14.1454 1.33469 14.148 1.40907C14.2597 4.30613 14.3715 7.20329 14.4834 10.1006C14.5238 11.1558 14.5648 12.2114 14.5982 13.267C14.603 13.4154 14.6473 13.4733 14.7983 13.483C15.0183 13.4973 15.2366 13.5361 15.4555 13.5649L16.5593 13.7081ZM13.9362 26.806C13.9362 26.3995 13.9488 26.0072 13.9342 25.6159C13.848 23.2895 13.7587 20.9634 13.6664 18.6375C13.616 17.3238 13.5676 16.0099 13.5212 14.6958C13.517 14.5771 13.4759 14.5412 13.3644 14.5289C13.1076 14.5011 12.8524 14.4587 12.5963 14.4241C12.2994 14.3844 12.0025 14.3465 11.6882 14.3055C11.6995 14.5208 11.7092 14.7129 11.7205 14.905C11.8415 17.0889 11.9626 19.2729 12.084 21.4572C12.1754 23.0979 12.2665 24.7387 12.3573 26.3794C12.3631 26.4887 12.3858 26.5385 12.5061 26.5554C12.7939 26.5951 13.0785 26.6556 13.3647 26.7064C13.5633 26.742 13.7628 26.7759 13.9362 26.806ZM12.3663 1.47666C12.14 5.55641 11.9136 9.61965 11.6872 13.6939C11.7347 13.6907 11.7655 13.69 11.7962 13.6861C12.3081 13.6173 12.8198 13.5429 13.333 13.4817C13.4727 13.4649 13.518 13.4135 13.5232 13.2725C13.6055 11.0009 13.6912 8.72932 13.7803 6.45773C13.845 4.78379 13.9096 3.10985 13.9743 1.43591C13.9775 1.35765 13.9743 1.27971 13.9743 1.18851L12.3663 1.47666Z" fill="black"/>
</svg>
