<svg width="28" height="28" viewBox="0 0 28 28" fill="none" xmlns="http://www.w3.org/2000/svg">
<path d="M19.4386 15.7326H17.9184V14.2926L17.8979 14.2865C17.8878 14.3103 17.877 14.3342 17.8675 14.3581C17.6955 14.793 17.5224 15.2276 17.3535 15.6636C17.3316 15.7202 17.3049 15.7387 17.245 15.7378C16.999 15.7345 16.753 15.7345 16.507 15.7378C16.4519 15.7378 16.4291 15.7192 16.41 15.6698C16.2388 15.2252 16.065 14.7832 15.8917 14.3402C15.8854 14.3209 15.8736 14.304 15.8578 14.2913V15.7308H14.3314V12.9888C14.3566 12.9874 14.3822 12.9848 14.4076 12.9848C15.0187 12.9848 15.6302 12.9858 16.2409 12.9836C16.3008 12.9836 16.3276 13.0013 16.3497 13.0571C16.511 13.4651 16.676 13.8716 16.84 14.2784C16.8524 14.3091 16.8654 14.3394 16.8717 14.3554C17.0207 13.915 17.2004 13.4791 17.3665 13.0385C17.3735 13.0249 17.3836 13.0132 17.396 13.0042C17.4084 12.9953 17.4227 12.9895 17.4378 12.9872C18.0888 12.9844 18.7398 12.985 19.3908 12.9853C19.4068 12.9862 19.4227 12.9881 19.4385 12.9909L19.4386 15.7326Z" fill="black"/>
<path d="M10.3777 14.2922V15.731H8.85625V12.9891C8.88149 12.9877 8.90388 12.9851 8.92754 12.9851C9.53091 12.9851 10.1343 12.9851 10.7377 12.9834C10.7928 12.9834 10.8159 13.0029 10.8363 13.0506C11.0151 13.4713 11.1953 13.8916 11.3769 14.3113C11.386 14.3324 11.396 14.3532 11.4026 14.3678C11.5409 13.9199 11.7288 13.4882 11.8872 13.0456C11.9022 13.0036 11.9206 12.9836 11.9708 12.9837C12.6137 12.9856 13.2569 12.9848 13.8995 12.985C13.92 12.985 13.9405 12.9886 13.963 12.9907V15.73H12.4433V14.2913L12.4244 14.2849C12.413 14.3084 12.4007 14.3316 12.3903 14.3556C12.1988 14.794 12.0078 15.2327 11.8172 15.6714C11.7967 15.7191 11.7743 15.7391 11.7191 15.7381C11.4917 15.7343 11.2641 15.7343 11.0363 15.7381C10.979 15.7381 10.9539 15.7197 10.9336 15.6671C10.7658 15.2305 10.5949 14.7951 10.4255 14.3592C10.4161 14.3354 10.4055 14.3116 10.3955 14.2884L10.3777 14.2922Z" fill="black"/>
<path d="M26.9713 14.6813L28 15.7292C27.9698 15.7326 27.9511 15.7364 27.9325 15.7364C27.4139 15.7364 26.8952 15.7376 26.3765 15.7345C26.3335 15.7319 26.2928 15.7146 26.2612 15.6854C25.9812 15.4191 25.7045 15.1497 25.4268 14.8812C25.406 14.861 25.3847 14.8416 25.3498 14.8089V15.7321H23.687V12.9848H23.7839C24.7602 12.9848 25.7369 12.9823 26.7132 12.9872C26.8798 12.986 27.0459 13.0044 27.2082 13.042C27.7976 13.1876 28.0098 13.8254 27.6378 14.3088C27.4794 14.5145 27.2652 14.6365 26.9713 14.6813ZM25.3502 14.2168C25.5757 14.2168 25.7929 14.2297 26.0078 14.213C26.197 14.1982 26.2866 14.0801 26.292 13.8932C26.2969 13.7235 26.2089 13.5982 26.0247 13.5765C25.8034 13.5501 25.5781 13.5561 25.3502 13.548V14.2168Z" fill="black"/>
<path d="M0 12.9899H1.62228V13.9753H2.47256V12.9899H4.09659V15.7303H2.47431V14.7448H1.62736V15.7311H0V12.9899Z" fill="black"/>
<path d="M4.43241 12.988H6.05882V13.0818C6.05882 13.6614 6.05882 14.2409 6.05882 14.8204C6.05882 15.0596 6.16155 15.1641 6.40131 15.1657C6.45681 15.1662 6.51221 15.1609 6.5666 15.1498C6.74698 15.1125 6.82701 15.012 6.82717 14.8272C6.82717 14.2476 6.82717 13.6681 6.82717 13.0887V12.9899H8.48692C8.48851 13.0185 8.49089 13.0441 8.49089 13.0693C8.49089 13.6381 8.49248 14.207 8.48993 14.7759C8.49042 14.8792 8.48144 14.9823 8.4631 15.0839C8.39768 15.4266 8.18999 15.6506 7.85544 15.7341C7.65052 15.7856 7.44044 15.8138 7.2292 15.8181C6.66854 15.8283 6.10741 15.8223 5.54611 15.8164C5.41919 15.8131 5.29284 15.798 5.16868 15.7715C4.70821 15.6794 4.46655 15.4004 4.43971 14.932C4.43082 14.7764 4.43304 14.62 4.43289 14.4639C4.43215 14.0034 4.43215 13.5429 4.43289 13.0825L4.43241 12.988Z" fill="black"/>
<path d="M21.4545 13.6533V14.1168H23.3758V14.6797H21.5541C21.4491 14.6797 21.4493 14.6797 21.4493 14.7884V15.0909H23.3772V15.7308H19.8279V12.9894H23.3751V13.6533H21.4545Z" fill="black"/>
</svg>
