<svg width="28" height="28" viewBox="0 0 28 28" fill="none" xmlns="http://www.w3.org/2000/svg">
<path d="M13.4722 27.9981C10.986 18.6973 8.50832 9.39662 6 0C6.38354 0.160126 6.69516 0.287652 7.00295 0.419971C9.06828 1.33183 11.1307 2.25231 13.2028 3.14787C13.4124 3.22789 13.6442 3.22789 13.8538 3.14787C16.134 2.17081 18.4045 1.17266 20.6779 0.180262C20.7738 0.137114 20.8802 0.103555 21.0681 0.0326005C18.5522 9.40141 16.0553 18.6973 13.5585 27.9981H13.4722ZM13.5336 25.4476C15.7639 17.2658 17.9606 9.20773 20.1755 1.07965C19.976 1.14869 19.8562 1.18129 19.744 1.23019C17.8464 2.05 15.946 2.86022 14.0581 3.70399C13.8978 3.78346 13.7209 3.82369 13.542 3.82135C13.3632 3.81902 13.1874 3.77419 13.0292 3.69057C11.8307 3.1402 10.6178 2.62051 9.40867 2.09219C8.61283 1.74509 7.81412 1.40374 6.9224 1.01925C9.13061 9.18088 11.3129 17.2428 13.5336 25.4495V25.4476Z" fill="black"/>
<path d="M13.5336 23.598C11.5546 16.3693 9.60619 9.248 7.63003 2.03082C8.11616 2.23313 8.51887 2.39614 8.91775 2.56873C10.3483 3.18718 11.7732 3.81522 13.2114 4.41545C13.4396 4.49871 13.6901 4.497 13.9171 4.41066C15.6641 3.68482 17.3987 2.93117 19.138 2.18615C19.2205 2.15163 19.3068 2.12862 19.4707 2.07301C17.4888 9.25567 15.5251 16.3731 13.5336 23.598ZM10.5823 7.78385L10.5976 7.87973C11.2688 8.00438 11.94 8.14917 12.6112 8.24313C12.9209 8.28628 13.0408 8.42915 13.1021 8.71009C13.198 9.14157 13.3236 9.56537 13.4368 9.99206C13.6115 9.65267 13.7211 9.28354 13.7599 8.90377C13.7992 8.40614 14.0226 8.20958 14.527 8.17314C15.1895 8.12424 15.8444 7.98137 16.5031 7.88549C15.7913 7.70169 15.0675 7.56777 14.3371 7.48469C14.0494 7.44826 13.8951 7.3447 13.8375 7.03212C13.7599 6.61311 13.6103 6.20848 13.4924 5.79714C13.3244 6.1891 13.2043 6.59989 13.1347 7.02062C13.0906 7.30827 12.9698 7.41278 12.6831 7.44922C11.9784 7.53935 11.2813 7.67071 10.5823 7.78385Z" fill="black"/>
</svg>
