<svg width="28" height="28" viewBox="0 0 28 28" fill="none" xmlns="http://www.w3.org/2000/svg">
<path d="M26 25.9539C26 25.9662 25.9951 25.9779 25.9865 25.9865C25.9779 25.9951 25.9661 26 25.9539 26H3.04609C3.03387 26 3.02214 25.9951 3.0135 25.9865C3.00486 25.9779 3 25.9662 3 25.9539V3.04606C3 3.03385 3.00486 3.02213 3.0135 3.01349C3.02214 3.00485 3.03387 3 3.04609 3H25.9539C25.9661 3 25.9779 3.00485 25.9865 3.01349C25.9951 3.02213 26 3.03385 26 3.04606V25.9539ZM10.7176 12.0442C10.6772 11.8581 10.6575 11.6925 10.6585 11.5476C10.6719 9.39896 10.6715 7.22775 10.6571 5.03398C10.6571 4.98312 10.6311 4.95769 10.5793 4.95769L4.99925 4.95625C4.94643 4.95625 4.92003 4.98264 4.92003 5.03542V23.9919C4.92003 24.0629 4.95556 24.0984 5.02662 24.0984H16.384C16.3928 24.0984 16.4012 24.0951 16.4074 24.0892C16.4137 24.0832 16.4171 24.0752 16.4171 24.0668V17.8569C16.4171 17.8175 16.4032 17.7839 16.3754 17.7561L10.7997 12.1925C10.7574 12.1512 10.73 12.1018 10.7176 12.0442ZM18.3127 16.973C18.3228 16.9834 18.3285 16.9974 18.3285 17.0119V24.0423C18.3285 24.0497 18.33 24.057 18.3328 24.0638C18.3356 24.0706 18.3398 24.0768 18.345 24.082C18.3502 24.0872 18.3564 24.0914 18.3632 24.0942C18.37 24.097 18.3773 24.0984 18.3847 24.0984L24.0353 24.0999C24.0502 24.0999 24.0645 24.094 24.075 24.0834C24.0856 24.0729 24.0915 24.0586 24.0915 24.0437V5.01239C24.0915 5.00502 24.09 4.99772 24.0872 4.99091C24.0844 4.9841 24.0803 4.97791 24.075 4.9727C24.0698 4.96748 24.0636 4.96335 24.0568 4.96053C24.05 4.9577 24.0427 4.95625 24.0353 4.95625H12.639C12.6316 4.95625 12.6243 4.9577 12.6175 4.96053C12.6107 4.96335 12.6045 4.96748 12.5993 4.9727C12.5941 4.97791 12.59 4.9841 12.5871 4.99091C12.5843 4.99772 12.5829 5.00502 12.5829 5.01239L12.5843 11.2482C12.5843 11.2627 12.59 11.2767 12.6001 11.2871L18.3127 16.973Z" fill="black"/>
</svg>
