<svg width="28" height="28" viewBox="0 0 28 28" fill="none" xmlns="http://www.w3.org/2000/svg">
<path d="M27.9996 14.0041C28.0561 21.7019 21.6819 27.98 14.0491 28C6.28122 28.0199 -0.019941 21.6282 4.74238e-05 14.0241C0.0207251 6.23545 6.26606 -0.00756625 14.0222 6.88268e-06C21.7267 0.00758002 27.9996 6.18726 27.9996 14.0041ZM27.4413 14.0213C27.4434 6.67332 21.4751 0.675393 14.1242 0.619627C6.63757 0.5556 0.630715 6.60929 0.577643 13.9167C0.523192 21.3425 6.56657 27.4168 13.9878 27.4265C21.3573 27.4368 27.4393 21.4575 27.4413 14.0213Z" fill="black"/>
<path d="M13.9967 27.171C6.75957 27.2399 0.831977 21.2055 0.831977 14.0089C0.836802 6.82409 6.79541 0.834429 14.0388 0.859214C21.318 0.88331 27.2242 6.86264 27.1891 14.0778C27.1546 21.2688 21.2815 27.2282 13.9967 27.171ZM13.985 26.6203C20.9065 26.6891 26.588 20.9934 26.6328 14.1301C26.679 7.09122 20.9878 1.41618 14.0305 1.4031C7.07318 1.39002 1.44679 7.00998 1.3758 13.907C1.30412 20.8964 7.05801 26.6719 13.9823 26.6203H13.985Z" fill="black"/>
<path d="M24.3741 10.9941C24.2501 11.2275 24.1481 11.4761 23.9964 11.6936C23.3658 12.5921 22.7227 13.4836 22.0782 14.3711C21.1009 15.7191 20.121 17.065 19.1386 18.4089C18.0489 19.8967 16.9461 21.3783 15.8563 22.8647C15.5 23.35 15.1595 23.8471 14.8018 24.3318C14.3545 24.937 13.5694 24.9163 13.1393 24.2595C12.6568 23.5187 12.0944 22.8282 11.5706 22.1129C11.0467 21.3976 11.0619 21.2179 11.5961 20.4922C12.5328 19.2144 13.4571 17.927 14.3896 16.6458C15.2298 15.4905 16.0755 14.3394 16.9157 13.1841C17.9312 11.7879 18.9447 10.391 19.956 8.99345C20.2758 8.55421 20.6039 8.12254 20.9306 7.68949C21.2753 7.23442 21.7653 7.22616 22.1189 7.68192C22.4525 8.11221 22.7716 8.5549 23.0935 8.99483C23.454 9.48777 23.8172 9.97933 24.1639 10.4819C24.2556 10.6148 24.2914 10.7855 24.3741 10.9941ZM14.0601 24.4805C14.3779 24.5053 14.5288 24.2602 14.6805 24.0365C15.5365 22.7697 16.3889 21.5004 17.2376 20.2285C18.272 18.6864 19.3058 17.1449 20.3393 15.6041C20.8583 14.833 21.3876 14.0688 21.9087 13.2998C22.365 12.6265 22.8164 11.9497 23.2707 11.2757C23.4023 11.0802 23.4416 10.9026 23.2968 10.6788C23.108 10.3862 22.9639 10.064 22.7999 9.75489C22.4773 9.14422 22.172 8.52392 21.8253 7.92701C21.5944 7.52908 21.2298 7.56282 21.0202 7.97177C20.719 8.55696 20.4268 9.14216 20.1242 9.72873C19.874 10.2107 19.6645 10.7208 19.3447 11.1484C18.4348 12.3635 17.4754 13.5408 16.5415 14.7366C15.7902 15.7005 15.0499 16.6685 14.3 17.6282C13.4844 18.6747 12.6658 19.7179 11.8442 20.758C11.5912 21.0774 11.5582 21.3865 11.7891 21.7273C12.2715 22.4406 12.7423 23.1642 13.2365 23.8692C13.4357 24.1535 13.6218 24.484 14.0601 24.4805Z" fill="black"/>
<path d="M7.33647 16.1638C7.46674 15.9098 7.54738 15.6971 7.67352 15.5167C8.09672 14.9122 8.53784 14.3208 8.96863 13.7225C9.94829 12.3621 10.927 11.001 11.9048 9.63923C12.3432 9.032 12.7802 8.42271 13.2427 7.83407C13.3562 7.68231 13.5037 7.55928 13.6735 7.47486C13.8432 7.39044 14.0304 7.34699 14.2201 7.34801C15.5834 7.34801 16.9474 7.34044 18.3115 7.34801C18.8367 7.35146 19.1475 7.82994 18.9118 8.30016C18.7312 8.66161 18.4845 8.99345 18.2467 9.32391C17.3336 10.5893 16.4153 11.8533 15.4917 13.116C14.768 14.1033 14.0278 15.0788 13.3027 16.0661C12.5923 17.0331 11.8872 18.0048 11.1873 18.981C10.5463 19.876 9.87775 19.854 9.23674 18.9322C8.82319 18.3373 8.37242 17.7673 7.95611 17.1738C7.73279 16.8551 7.54738 16.5108 7.33647 16.1638ZM16.2127 7.67985C15.5827 7.67985 14.952 7.69294 14.3221 7.67504C13.9147 7.66402 13.6687 7.85059 13.4881 8.19483C12.7471 9.60825 12.0909 11.0637 11.035 12.3002C10.0701 13.4299 9.19677 14.6409 8.28213 15.8113C8.05674 16.0998 8.0464 16.2822 8.25456 16.5817C8.5406 16.9948 8.82802 17.4031 9.11337 17.8148C9.36426 18.1762 9.59585 18.5514 9.86672 18.8998C10.1183 19.2254 10.4395 19.211 10.6897 18.8881C10.8213 18.718 10.944 18.5397 11.0633 18.36C11.7884 17.2668 12.5073 16.17 13.2365 15.0802C13.8658 14.1391 14.4985 13.2007 15.145 12.2719C15.5386 11.7067 15.9308 11.1366 16.3781 10.6148C17.057 9.82099 17.7883 9.07193 18.4845 8.2919C18.5761 8.18932 18.6726 7.96695 18.6223 7.89259C18.5479 7.77899 18.3521 7.69156 18.2046 7.68605C17.5423 7.66815 16.8771 7.67985 16.2127 7.67985Z" fill="black"/>
<path d="M6.5266 14.5074C6.17163 14.5294 5.90282 14.3635 5.69949 14.0943C5.1412 13.3494 4.58979 12.599 4.04528 11.843C3.92236 11.664 3.8171 11.4736 3.73098 11.2743C3.55453 10.884 3.74959 10.5673 3.96808 10.2678C4.54982 9.46987 5.13982 8.67882 5.72224 7.88089C5.99174 7.50912 6.34257 7.33769 6.80506 7.34044C8.07811 7.3487 9.35047 7.34526 10.6228 7.34044C10.9771 7.34044 11.2825 7.41548 11.4499 7.77073C11.6057 8.10602 11.4844 8.39035 11.2887 8.66023C10.6173 9.57589 9.93979 10.4867 9.26983 11.4031C8.62239 12.2921 7.97817 13.1835 7.33716 14.0771C7.24726 14.2092 7.12646 14.3175 6.98522 14.3925C6.84397 14.4675 6.68655 14.5069 6.5266 14.5074ZM8.71912 7.68054C8.05398 7.68054 7.38954 7.68054 6.72441 7.68054C6.57061 7.67197 6.41782 7.71014 6.28617 7.79003C6.15452 7.86991 6.05018 7.98776 5.98691 8.12805C5.53062 9.01066 5.05917 9.88501 4.61805 10.7745C4.58652 10.8517 4.57222 10.9348 4.57615 11.018C4.58008 11.1012 4.60214 11.1826 4.6408 11.2564C5.12741 12.0076 5.63539 12.7456 6.15302 13.4754C6.33223 13.7273 6.539 13.728 6.75612 13.4995C6.90906 13.3309 7.04892 13.1509 7.1745 12.9611C7.65284 12.2726 8.07673 11.538 8.6109 10.8957C9.3484 10.0055 10.1734 9.18897 10.9495 8.33046C11.0509 8.21824 11.1729 7.98209 11.1246 7.90774C11.0453 7.78657 10.8365 7.69569 10.678 7.68949C10.0259 7.66609 9.37184 7.67985 8.71912 7.68054Z" fill="black"/>
<path d="M23.1369 11.0754C22.6186 11.8451 22.1203 12.5831 21.624 13.3218C20.8029 14.5441 19.9841 15.7668 19.1675 16.99C18.2556 18.3573 17.3534 19.7315 16.4401 21.0981C15.7805 22.0846 15.1099 23.065 14.4413 24.0461C14.249 24.329 13.9264 24.3655 13.6942 24.0846C13.4012 23.7301 13.1565 23.3349 12.8939 22.9562C12.5762 22.4984 12.2674 22.0337 11.9428 21.5793C11.7746 21.3452 11.8049 21.1552 11.9807 20.937C12.7113 20.0158 13.4281 19.085 14.1546 18.1583C14.9215 17.1752 15.6889 16.1921 16.4567 15.2089C17.0908 14.3942 17.7242 13.5791 18.357 12.7635C18.7457 12.2637 19.1262 11.7563 19.5287 11.2695C19.6259 11.1532 19.8044 11.0382 19.9464 11.0354C20.9313 11.0148 21.917 11.0237 22.9019 11.0258C22.9816 11.0353 23.0602 11.0519 23.1369 11.0754Z" fill="black"/>
<path d="M13.9526 11.0244H15.3952C15.653 11.0244 15.6971 11.0891 15.5365 11.3198C14.7485 12.4525 13.9699 13.5919 13.2006 14.738C12.3887 15.9504 11.594 17.1745 10.7883 18.3931C10.7324 18.4778 10.6594 18.5521 10.5966 18.6327C10.3016 19.0127 10.1831 19.0217 9.91704 18.6389C9.40906 17.916 8.9128 17.1855 8.41722 16.4551C8.29522 16.2747 8.3159 16.095 8.45444 15.9194C9.53381 14.5508 10.6116 13.1802 11.6877 11.8079C11.6958 11.8 11.703 11.7912 11.7091 11.7817C12.0213 11.074 12.5913 10.917 13.2985 11.0189C13.5136 11.0499 13.7348 11.0237 13.9526 11.0244Z" fill="black"/>
<path d="M4.8393 11.0554H8.16633C7.83825 11.5587 7.55428 12.0014 7.26203 12.4378C7.06628 12.7298 6.86364 13.0171 6.65411 13.2998C6.55899 13.4286 6.42459 13.4788 6.31569 13.3212C5.81942 12.6065 5.33005 11.8864 4.84068 11.1663C4.82552 11.1435 4.8393 11.1008 4.8393 11.0554Z" fill="black"/>
</svg>
