<svg width="28" height="28" viewBox="0 0 28 28" fill="none" xmlns="http://www.w3.org/2000/svg">
<path d="M21.2113 13.9675V16.0718H18.1375V12.0107H22.4517L23.0732 13.2404L23.7073 12.0072H28V16.0673H24.9513V13.9576L24.8923 13.938C24.5238 14.6472 24.1545 15.3555 23.7806 16.0745H22.3578C22.0001 15.376 21.6325 14.6668 21.2667 13.9576L21.2113 13.9675Z" fill="black"/>
<path d="M6.42831 14.7098L7.66604 16.0602H4.45367C4.23188 15.7722 3.97164 15.4842 3.7731 15.1596C3.57456 14.835 3.31342 14.8564 2.99505 14.9003V16.1004H0V12.0161C0.0652847 12.0098 0.11626 12 0.168131 12C2.05334 12 3.93855 12.0033 5.82376 12.0098C6.20926 12.0188 6.58317 12.1434 6.89693 12.3676C7.51222 12.7789 7.49344 13.8602 7.04181 14.2206C6.84774 14.3744 6.65368 14.53 6.42831 14.7098ZM2.98432 13.8414C3.29822 13.8253 3.5996 13.9022 3.89115 13.7761C3.96732 13.7484 4.03134 13.6948 4.07204 13.6246C4.11273 13.5545 4.12753 13.4723 4.11383 13.3924C4.10969 13.3105 4.07408 13.2333 4.01443 13.177C3.95478 13.1207 3.8757 13.0896 3.79367 13.0902C3.52538 13.075 3.26424 13.0902 2.98163 13.0902L2.98432 13.8414Z" fill="black"/>
<path d="M15.1425 12.0116C15.9071 13.3585 16.6628 14.6946 17.4418 16.0638H14.2142L13.9048 15.2794H11.83C11.7155 15.5307 11.593 15.7964 11.466 16.0736H8.28222L10.4196 12.0116H15.1425ZM13.403 14.1857C13.2242 13.7779 13.0569 13.3933 12.8888 13.0088H12.8235C12.65 13.396 12.4774 13.7842 12.2968 14.1884L13.403 14.1857Z" fill="black"/>
</svg>
