<svg width="28" height="28" viewBox="0 0 28 28" fill="none" xmlns="http://www.w3.org/2000/svg">
<path d="M28 14.0152C27.9555 21.8432 21.6651 28.0486 13.824 27.9997C6.14709 27.9517 -0.0588289 21.6041 0.000420751 13.8443C0.0569146 6.45156 5.99889 -0.0933288 14.1655 0.0010074C22.1266 0.0929318 27.9826 6.51572 28 14.0152ZM27.6555 13.9907C27.6326 6.42489 21.5189 0.315645 13.9853 0.333079C6.29755 0.350858 0.216062 6.65043 0.331668 14.2168C0.444311 21.5868 6.47689 27.6957 14.0739 27.6675C21.5685 27.6397 27.6783 21.4953 27.6555 13.9907Z" fill="#18232E"/>
<path d="M26.6732 14.0032C26.6728 21.0237 20.9941 26.6916 13.9675 26.6848C6.97748 26.6781 1.30054 20.9801 1.31046 13.9809C1.32031 6.97548 6.99656 1.31744 14.0065 1.3255C21.0249 1.3337 26.6736 6.98726 26.6732 14.0032ZM13.9899 25.5854C20.3729 25.5879 25.5606 20.4109 25.567 14.0321C25.5735 7.61006 20.4278 2.43873 14.0178 2.4255C7.61772 2.41233 2.41477 7.59428 2.40968 13.9868C2.40451 20.3776 7.6016 25.5829 13.9899 25.5854Z" fill="#18232E"/>
<path d="M10.0405 10.2973C9.75394 10.05 9.52239 9.81204 9.25473 9.62599C8.32306 8.97845 7.38375 8.34153 6.437 7.71625C6.07895 7.47975 6.05897 7.4566 6.34234 7.12894C6.98602 6.38486 7.73904 5.77543 8.56757 5.24476C8.93182 5.01151 9.21739 5.02405 9.57689 5.23911C10.7342 5.93137 11.8166 6.7181 12.7983 7.64417C13.1374 7.96411 13.5106 8.22569 14.1352 8.15209C13.6163 7.48754 13.1702 6.85068 12.6552 6.27557C12.1589 5.72134 11.5876 5.23477 11.059 4.70872C10.9612 4.61135 10.8346 4.44969 10.858 4.34964C10.8817 4.24793 11.0641 4.14966 11.1948 4.1119C12.3288 3.78458 13.4869 3.63429 14.6652 3.73738C14.8998 3.75792 15.1654 3.86066 15.3448 4.01123C17.4617 5.78728 18.7137 8.07692 19.1895 10.7753C19.4968 12.5185 19.4219 14.2751 19.0448 16.0094C18.8747 16.7922 18.6706 17.5676 18.4891 18.348C18.3909 18.7702 18.5836 18.99 19.0009 18.9816C19.2889 18.9757 19.3361 18.7997 19.3462 18.5729C19.3737 17.96 19.4004 17.9402 20.0205 18.0773C21.0285 18.3002 21.9151 18.7612 22.6822 19.4498C22.9573 19.6968 22.9557 19.8481 22.6786 20.0985C21.8582 20.8403 20.897 21.3033 19.8152 21.5154C19.4433 21.5884 19.35 21.4979 19.3456 21.106C19.3399 20.6065 19.3155 20.5812 18.8188 20.5811C15.8106 20.5808 12.8024 20.5746 9.79425 20.5914C9.51453 20.593 9.22614 20.7175 8.95842 20.8259C8.50095 21.0111 8.15262 21.4464 7.58968 21.3971C7.31624 21.3731 7.03818 21.3804 6.76363 21.3969C6.54206 21.4102 6.41371 21.3235 6.28626 21.1429C5.72435 20.3472 5.13544 19.5704 4.57718 18.7722C4.47205 18.6218 4.38303 18.3781 4.43395 18.2272C4.4728 18.1121 4.74329 18.0179 4.91311 18.0139C5.79669 17.9931 6.68116 17.9984 7.56508 18.0093C7.73064 18.0114 7.90632 18.0553 8.05844 18.1225C8.60381 18.3635 9.13306 18.643 9.68601 18.8637C9.8732 18.9384 10.1634 18.959 10.3129 18.8611C10.4385 18.7789 10.4955 18.4789 10.4678 18.2924C10.1182 15.9387 8.7498 14.3905 6.57775 13.5398C5.85697 13.2575 5.08535 13.101 4.33136 12.9088C3.89767 12.7983 3.78819 12.6744 3.86439 12.2357C4.04593 11.1904 4.37194 10.1948 4.86426 9.25119C5.0332 8.92746 5.25428 8.80859 5.58835 8.9349C6.6268 9.32754 7.6594 9.73583 8.70026 10.1218C9.0384 10.2471 9.39307 10.3306 9.74492 10.4135C9.81347 10.4297 9.90358 10.3541 10.0405 10.2973ZM14.5784 16.4911C14.5793 17.2104 15.1434 17.7857 15.8545 17.7926C16.5699 17.7997 17.1654 17.2013 17.1624 16.4786C17.1594 15.7635 16.5898 15.1912 15.8768 15.1868C15.1402 15.1822 14.5773 15.7475 14.5784 16.4911Z" fill="#18232E"/>
</svg>
