<svg width="28" height="28" viewBox="0 0 28 28" fill="none" xmlns="http://www.w3.org/2000/svg">
<path d="M2.75997 15.4266C2.11053 15.4266 1.46161 15.4266 0.812177 15.4266C0.286274 15.4236 0.00794494 15.1483 0.00333175 14.6183C-0.00111058 14.0206 -0.00111058 13.4226 0.00333175 12.8243C0.00897009 12.3076 0.277048 12.0175 0.789111 12.0139C2.13873 12.0042 3.48834 12.0139 4.83847 12.0052C5.10244 12.0052 5.06451 12.1636 5.06759 12.3266C5.07066 12.4896 5.06297 12.6131 4.8277 12.6105C3.6662 12.5988 2.50419 12.6044 1.34218 12.6064C1.00644 12.6064 0.857284 12.7182 0.823967 12.9775C0.772709 13.3666 0.804489 13.4025 1.19815 13.4025C2.30019 13.4025 3.40223 13.4091 4.50375 13.3958C4.73492 13.3927 4.77337 13.4799 4.76722 13.6782C4.76158 13.8633 4.77132 13.9991 4.50785 13.996C3.3971 13.9827 2.28686 13.9873 1.17611 13.996C1.03822 13.996 0.831655 13.9038 0.817303 14.1836C0.795262 14.567 0.887013 14.7726 1.13869 14.8213C1.23167 14.8347 1.32574 14.8392 1.41958 14.8346C2.52982 14.8346 3.64057 14.8413 4.75133 14.83C4.98916 14.83 5.07681 14.8813 5.07476 15.1375C5.07169 15.3831 4.98506 15.4343 4.7585 15.4343C4.09267 15.4184 3.42632 15.4272 2.75997 15.4266Z" fill="black"/>
<path d="M20.0851 15.4261C19.4274 15.4261 18.7698 15.4261 18.1121 15.4261C17.6288 15.4261 17.3433 15.1509 17.3371 14.6691C17.3279 14.0283 17.3289 13.3876 17.3371 12.7474C17.3423 12.3404 17.5873 12.0811 17.9902 12.0298C18.0922 12.0169 18.1949 12.0104 18.2977 12.0103C19.5689 12.0072 20.8416 12.0154 22.1138 12.0001C22.3701 11.997 22.4009 12.1026 22.4075 12.3168C22.4147 12.5434 22.3435 12.6105 22.1184 12.6085C20.9739 12.5982 19.8293 12.6013 18.6842 12.6034C18.2777 12.6034 18.148 12.7479 18.1393 13.1421C18.1347 13.3471 18.2141 13.4061 18.41 13.404C19.1701 13.3963 19.9303 13.4014 20.6904 13.4014H21.7668C22.0867 13.4014 22.0744 13.4014 22.0856 13.73C22.0933 13.9391 22.0144 13.9924 21.8191 13.9914C20.7345 13.9848 19.6499 13.9878 18.5653 13.9878C18.147 13.9878 18.0296 14.1703 18.1798 14.5732C18.2705 14.8162 18.4689 14.8341 18.6816 14.8341L21.9898 14.8331C22.058 14.8331 22.1261 14.8362 22.1948 14.8331C22.4706 14.8238 22.386 15.0299 22.3998 15.1765C22.4162 15.3339 22.3865 15.4328 22.1866 15.4328C21.4864 15.4236 20.7863 15.4292 20.0851 15.4292V15.4261Z" fill="black"/>
<path d="M16.436 13.4035C16.518 13.9899 16.518 13.9894 15.9834 13.9894C14.9501 13.9894 13.9172 13.9868 12.8844 13.9935C12.7521 13.9935 12.5584 13.9063 12.5256 14.1585C12.4815 14.5035 12.5902 14.7629 12.8265 14.8121C12.962 14.8341 13.0994 14.8422 13.2365 14.8362C14.3129 14.8362 15.3893 14.8362 16.4632 14.8362C16.7564 14.8362 16.9096 15.0863 16.7605 15.3441C16.7261 15.4036 16.5872 15.4251 16.496 15.4256C15.3263 15.4302 14.1571 15.4256 12.9874 15.4256C12.8167 15.4256 12.646 15.4292 12.4748 15.4256C12.0268 15.4148 11.7449 15.1591 11.7357 14.7152C11.7213 14.0411 11.7229 13.3661 11.7357 12.692C11.7429 12.322 11.9879 12.077 12.359 12.0308C12.5122 12.0142 12.6662 12.0068 12.8203 12.0088C14.0389 12.0071 15.2588 12.0064 16.4801 12.0067C16.5414 12.0061 16.6016 12.0225 16.6542 12.0539C16.7068 12.0854 16.7497 12.1308 16.7781 12.1851C16.8065 12.2394 16.8194 12.3005 16.8153 12.3616C16.8112 12.4228 16.7903 12.4816 16.7548 12.5316C16.7169 12.587 16.5924 12.6018 16.5073 12.6023C15.3632 12.607 14.2191 12.6023 13.073 12.6059C12.6696 12.6059 12.5251 12.7597 12.5189 13.1385C12.5153 13.3374 12.5855 13.4071 12.787 13.4055C13.9054 13.3989 15.0234 13.403 16.1418 13.4055L16.436 13.4035Z" fill="black"/>
<path d="M25.219 15.4261C24.545 15.4261 23.8699 15.42 23.1959 15.4307C22.9908 15.4338 22.9329 15.3662 22.9345 15.1662C22.9433 14.2016 22.9433 13.2369 22.9345 12.2722C22.9345 12.0795 22.9826 12.0021 23.1908 12.0037C24.5188 12.0124 25.8418 12.0052 27.1668 12.0103C27.7224 12.0103 27.9962 12.2948 27.9987 12.8509C27.9987 13.4486 28.0038 14.0463 27.9987 14.645C27.9936 15.1442 27.7158 15.422 27.2206 15.4256C26.5517 15.4297 25.8854 15.4261 25.219 15.4261ZM25.3548 14.8331V14.8367C25.7987 14.8367 26.2426 14.8397 26.6875 14.8367C27.0499 14.8331 27.1796 14.7013 27.1822 14.3379C27.1853 13.9366 27.1847 13.5357 27.1822 13.1344C27.1822 12.7428 27.053 12.61 26.6614 12.6085C25.7741 12.6044 24.8869 12.6085 23.9991 12.6034C23.8161 12.6034 23.7377 12.6546 23.7428 12.8489C23.7517 13.4298 23.7517 14.0107 23.7428 14.5917C23.7397 14.7864 23.8176 14.8423 23.9991 14.8387C24.4502 14.8274 24.9043 14.8331 25.3564 14.8331H25.3548Z" fill="black"/>
<path d="M11.0555 12.0759L8.93549 13.7223L11.0437 15.3569C10.6024 15.3892 10.1641 15.5579 9.7674 15.2129C9.39424 14.8884 8.9847 14.607 8.6018 14.2938C8.44803 14.1662 8.33167 14.1744 8.17995 14.2974C7.80885 14.5978 7.41416 14.87 7.05228 15.1801C6.8288 15.3713 6.59814 15.4579 6.30905 15.4307C6.12657 15.4138 5.94153 15.4277 5.73701 15.3682C5.87284 15.259 6.00714 15.1483 6.14707 15.0417C6.633 14.6658 7.11943 14.2909 7.60638 13.9171C7.85088 13.729 7.85036 13.7187 7.61253 13.5352C7.03742 13.0927 6.46316 12.6493 5.88976 12.2051C5.83179 12.1615 5.78433 12.1054 5.75085 12.0411C6.18295 12.0539 6.62223 11.8791 7.01948 12.2374C7.38546 12.568 7.80167 12.8427 8.1861 13.1539C8.34295 13.281 8.46187 13.2651 8.61103 13.1452C8.98316 12.8458 9.37477 12.5701 9.7387 12.2625C9.96115 12.0744 10.1898 11.9765 10.4819 12.0062C10.6639 12.0242 10.8494 12.0098 11.0335 12.0098C11.0417 12.0308 11.0483 12.0513 11.0555 12.0759Z" fill="black"/>
</svg>
