<svg width="28" height="28" viewBox="0 0 28 28" fill="none" xmlns="http://www.w3.org/2000/svg">
<path d="M9.48077 6.22128C10.2484 5.781 11.0433 5.46899 11.8655 5.28525C12.1755 5.2161 12.5372 5.14877 12.9507 5.08326C13.0614 5.06575 13.1676 5.04723 13.2692 5.0277C13.367 5.00909 13.4581 5.00006 13.5424 5.00061C13.8845 5.00262 14.2167 5.00243 14.5389 5.00006C14.667 4.99915 14.8129 5.00845 14.9766 5.02798C15.1218 5.04549 15.2681 5.06566 15.4156 5.08846C17.8783 5.46972 20.2214 6.77059 21.6804 8.80632C21.6888 8.818 21.6858 8.82393 21.6714 8.82412C21.0074 8.83014 20.3971 8.83369 19.778 8.81755C19.6628 8.81463 19.5752 8.80322 19.5149 8.78333C19.4266 8.75396 19.3471 8.71035 19.2763 8.65251C19.1031 8.51092 18.9314 8.37498 18.7612 8.2447C17.1289 6.99392 15.0146 6.50045 12.9668 6.79139C11.9133 6.94083 10.9351 7.29718 10.0323 7.86044C8.96979 8.52305 8.06304 9.43801 7.42424 10.5216C7.23703 10.8388 7.08157 11.2143 6.88533 11.5392C6.86617 11.5711 6.84045 11.5966 6.80815 11.6158C6.55435 11.7676 6.2905 11.9013 6.01663 12.0168C5.63455 12.1781 5.2532 12.3375 4.87259 12.4952C4.86474 12.4985 4.86164 12.496 4.86328 12.4878C5.40903 9.83186 7.13357 7.56759 9.48077 6.22128Z" fill="#18232E"/>
<path d="M28 10.0615V10.3431C27.5572 10.8976 27.1047 11.4453 26.6425 11.9861C26.2303 12.468 25.7932 12.932 25.3312 13.3781C25.2464 13.4599 25.1784 13.5145 25.1273 13.5421C24.9541 13.6357 24.7477 13.6275 24.5525 13.616C23.9627 13.5812 23.3499 13.5412 22.7453 13.5196C21.2827 13.4676 19.7114 13.4542 18.1856 13.4069C18.1838 13.4068 18.182 13.4063 18.1805 13.4054C18.179 13.4044 18.1777 13.4031 18.1769 13.4015C18.1761 13.3999 18.1757 13.3981 18.1758 13.3963C18.176 13.3944 18.1766 13.3927 18.1777 13.3913C18.5392 12.8584 18.9363 12.3282 19.2596 11.7754C19.2604 11.774 19.2608 11.7725 19.2608 11.7709C19.2609 11.7694 19.2606 11.7678 19.2599 11.7664C19.2592 11.765 19.2582 11.7638 19.257 11.7629C19.2557 11.762 19.2543 11.7614 19.2527 11.7611C18.5475 11.6613 17.8196 11.6081 17.0689 11.6016C14.8895 11.5819 12.6534 11.8794 10.5082 12.4202C8.81861 12.8459 7.16814 13.4194 5.55681 14.1409C5.0814 14.3536 4.60025 14.5947 4.11171 14.8298C3.73748 15.0095 3.37684 15.2216 3.02979 15.4661C3.02755 15.4677 3.02579 15.4698 3.02471 15.4723C3.02362 15.4748 3.02326 15.4776 3.02365 15.4803C3.02405 15.483 3.02519 15.4856 3.02695 15.4877C3.02871 15.4898 3.03102 15.4915 3.03363 15.4924C3.48522 15.6473 3.97431 15.7259 4.45465 15.756C4.87668 15.7822 5.27518 15.8065 5.65014 15.8288C5.75944 15.8352 5.88305 15.8471 6.021 15.8646C6.07464 15.8714 6.12135 15.8873 6.16113 15.9125C6.26714 15.9793 6.35837 16.0508 6.43482 16.1271C6.71235 16.4035 6.97646 16.6953 7.25317 16.9665C7.67767 17.3831 8.08985 17.7701 8.46563 18.2132C8.47567 18.2251 8.47302 18.2304 8.4577 18.2293C7.91742 18.1923 7.38262 18.1336 6.8533 18.0531C5.65324 17.871 4.51988 17.6543 3.4532 17.4031C2.27522 17.1253 1.11996 16.7654 0.0221692 16.253C0.015948 16.2501 0.0106647 16.2456 0.00693387 16.2398C0.00320306 16.234 0.00117817 16.2273 0.00109478 16.2204C-6.11754e-10 16.1684 -0.000273694 16.1175 0.000273694 16.0677C0.000456157 16.0332 0.0166041 16.0009 0.0487175 15.9708C0.273877 15.7575 0.495204 15.5669 0.712699 15.3991C1.32395 14.9274 2.00371 14.4665 2.75199 14.0164C5.39205 12.4287 8.24367 11.3104 11.2639 10.4592C11.6826 10.3411 12.0613 10.2377 12.4 10.1491C15.7589 9.26851 19.1663 8.94892 22.6219 9.19032C24.427 9.31659 26.2197 9.60698 28 10.0615Z" fill="#18232E"/>
<path d="M16.977 14.6929C16.9377 14.6871 16.8971 14.6832 16.8552 14.6812C16.2775 14.6545 15.7387 14.6451 15.2387 14.653C13.9559 14.673 12.6551 14.7433 11.346 14.7967C10.5394 14.8295 9.49718 14.9995 8.93283 14.2589C8.93166 14.2573 8.93091 14.2556 8.93065 14.2537C8.9304 14.2518 8.93064 14.2498 8.93136 14.2481C8.93208 14.2463 8.93325 14.2447 8.93476 14.2436C8.93626 14.2424 8.93805 14.2416 8.93994 14.2413C9.86558 14.1031 10.7409 14.0465 11.8594 13.9882C12.8652 13.9358 13.5243 13.9044 13.8369 13.894C17.3254 13.7763 20.8092 14.0355 24.3303 14.2917C24.3427 14.2926 24.3444 14.2974 24.3352 14.3059C23.7189 14.8838 23.0992 15.3988 22.4763 15.8509C22.2528 16.0133 22.0197 16.1659 21.777 16.3086C21.7575 16.3201 21.7363 16.3254 21.7135 16.3247C20.8266 16.297 20.0184 16.261 19.2889 16.2169C18.1184 16.1463 16.9647 16.0772 15.8277 16.0097C15.8261 16.0095 15.8245 16.009 15.8232 16.0081C15.8219 16.0071 15.8208 16.0059 15.8201 16.0044C15.8195 16.0029 15.8192 16.0013 15.8194 15.9998C15.8196 15.9982 15.8202 15.9967 15.8212 15.9955C16.0073 15.7573 16.2061 15.5324 16.4175 15.3205C16.6173 15.1199 16.7974 14.9209 16.9827 14.708C16.9838 14.7068 16.9845 14.7053 16.9848 14.7037C16.9851 14.7021 16.985 14.7004 16.9844 14.6989C16.9838 14.6974 16.9828 14.696 16.9815 14.6949C16.9802 14.6939 16.9786 14.6932 16.977 14.6929Z" fill="#18232E"/>
<path d="M7.40535 18.4428C8.64326 20.4077 10.7436 21.8823 13.0714 22.1599C13.2859 22.1854 13.5193 22.2047 13.7715 22.2176C15.3729 22.3003 16.9403 21.8687 18.2861 21.0183C19.323 20.3631 20.1618 19.5049 20.8024 18.4439C20.8987 18.2843 20.9944 18.1005 21.0892 17.8927C21.2359 17.571 21.3741 17.2622 21.5039 16.9662C21.5252 16.9175 21.557 16.8775 21.5991 16.8461C22.2224 16.3819 22.862 15.9188 23.518 15.4568C23.533 15.4462 23.5393 15.4501 23.5372 15.4683C23.341 17.1738 22.746 18.7053 21.7521 20.0628C21.5474 20.3425 21.2881 20.6499 20.9743 20.9849C19.4027 22.6629 17.1929 23.6906 14.9002 23.8874C14.3519 23.9345 13.7765 23.9259 13.174 23.8617C11.6424 23.698 10.1853 23.2103 8.90574 22.3599C7.34897 21.3254 6.12473 19.8734 5.39944 18.1576C5.39251 18.1408 5.39807 18.1336 5.41614 18.136C5.65699 18.1672 5.90021 18.2026 6.14581 18.2422C6.55343 18.3079 6.96123 18.3671 7.36922 18.4198C7.37658 18.4208 7.38363 18.4233 7.38988 18.4273C7.39612 18.4313 7.40141 18.4366 7.40535 18.4428Z" fill="#18232E"/>
<path d="M18.6999 18.1382C17.9729 18.5033 17.249 18.8438 16.4695 19.1251C15.7881 19.3709 15.0548 19.5453 14.372 19.4632C14.078 19.4276 13.688 19.2716 13.624 18.9483C13.6148 18.9022 13.6114 18.8494 13.6135 18.7901C13.6297 18.35 13.9494 17.9671 14.2387 17.6387C14.4449 17.4046 14.6431 17.1799 14.8334 16.9646C14.9675 16.813 15.1233 16.6714 15.3009 16.5398C15.3277 16.5201 15.3567 16.5051 15.3909 16.5067C16.6556 16.57 17.9645 16.6387 19.3176 16.7128C19.88 16.7436 20.4277 16.7802 20.9609 16.8225C20.9831 16.8242 20.9849 16.8311 20.9661 16.8434C20.2457 17.3097 19.4903 17.7413 18.6999 18.1382Z" fill="#18232E"/>
</svg>
