<svg width="28" height="28" viewBox="0 0 28 28" fill="none" xmlns="http://www.w3.org/2000/svg">
<path d="M14.0066 10.9449C14.0062 10.9441 14.0055 10.9434 14.0047 10.9429C14.0039 10.9425 14.003 10.9422 14.0021 10.9423C14.0012 10.9423 14.0003 10.9425 13.9995 10.943C13.9988 10.9435 13.9981 10.9442 13.9978 10.945C13.9406 11.0581 13.8898 11.171 13.8469 11.2928C12.7352 14.4421 11.6286 17.5763 10.5271 20.6953C10.5078 20.7501 10.4846 20.8037 10.4577 20.8561C10.3692 21.0281 10.2037 21.0042 10.0429 20.9828C8.42508 20.7669 6.82351 20.4489 5.2852 19.9219C4.87585 19.7817 4.49529 19.6332 4.14352 19.4766C3.38866 19.1404 2.72723 18.7344 2.15923 18.2585C1.12762 17.3945 0.290703 16.1987 0.0644816 14.8806C-0.080718 14.0348 0.0193027 13.2125 0.364543 12.4138C0.646586 11.7614 1.08023 11.1749 1.5973 10.6733C2.1055 10.1804 2.67957 9.74399 3.31952 9.3642C4.17544 8.85652 5.09619 8.46901 6.05357 8.15575C7.03262 7.83541 8.02558 7.5853 9.03245 7.40542C11.0518 7.04489 13.1033 6.94863 15.1749 7.02384C15.8818 7.04961 16.5365 7.09247 17.1388 7.15243C19.0242 7.34035 20.8823 7.7359 22.6292 8.39495C23.8391 8.85135 24.9896 9.45318 25.9581 10.2649C26.5287 10.7434 27.0452 11.3042 27.4138 11.939C27.7568 12.5295 27.9492 13.1568 27.991 13.8208C28.0542 14.8226 27.7826 15.8112 27.2438 16.6725C27.0683 16.9531 26.8647 17.2248 26.6331 17.4877C26.1298 18.0588 25.5413 18.5511 24.8674 18.9647C24.0761 19.4503 23.1968 19.8074 22.2908 20.0623C22.0258 20.1368 21.7404 20.2098 21.4345 20.2812C21.0071 20.3811 20.5774 20.4734 20.1455 20.5581C19.381 20.7078 18.6517 20.8533 17.9575 20.9946C17.9391 20.9983 17.9051 21.0001 17.8555 21C17.6669 20.9992 17.564 20.8601 17.5082 20.7028C16.3181 17.3467 15.1915 14.1856 14.1282 11.2195C14.0957 11.1289 14.0552 11.0373 14.0066 10.9449ZM14.0081 9.25245C14.0757 9.33346 14.1413 9.4151 14.205 9.49739C15.8744 11.6543 17.5812 13.861 19.3254 16.1176C19.476 16.3125 19.6056 16.4706 19.7144 16.5918C19.8854 16.7822 20.0724 16.9184 20.3427 16.9092C20.4476 16.9055 20.5502 16.893 20.6504 16.8717C21.1763 16.7601 21.6826 16.6231 22.1695 16.4607C22.8668 16.2282 23.5388 15.9057 24.1162 15.4725C24.4944 15.1885 24.8323 14.877 25.0762 14.4983C25.4621 13.8992 25.5549 13.263 25.3545 12.5896C25.3069 12.4298 25.2389 12.2622 25.1614 12.1141C24.8989 11.6127 24.5423 11.1506 24.0915 10.7277C23.2303 9.91973 22.1492 9.38716 21.0304 8.97095C19.5483 8.41964 17.9789 8.08858 16.3885 7.9374C15.1881 7.82335 13.9862 7.79554 12.7828 7.85397C11.6966 7.90666 10.644 8.03921 9.62513 8.25162C8.59398 8.46671 7.58744 8.77359 6.60551 9.17227C5.86221 9.47424 5.14379 9.83476 4.49979 10.2967C4.00792 10.6495 3.5859 11.0516 3.23374 11.5031C3.01809 11.7796 2.83065 12.0938 2.71137 12.4139C2.48639 13.0178 2.49984 13.6009 2.75172 14.1634C3.04199 14.8113 3.619 15.3251 4.22754 15.7021C4.93043 16.1373 5.71571 16.4688 6.58338 16.6966C6.9234 16.7859 7.26936 16.8604 7.62126 16.92C7.90761 16.9684 8.1115 16.8884 8.28425 16.6631C10.0875 14.3117 11.8951 11.9635 13.7071 9.61852C13.8023 9.49529 13.8999 9.37326 13.9999 9.25245C14.0004 9.25185 14.001 9.25136 14.0018 9.25103C14.0025 9.2507 14.0032 9.25053 14.004 9.25053C14.0048 9.25053 14.0056 9.2507 14.0063 9.25103C14.007 9.25136 14.0076 9.25185 14.0081 9.25245Z" fill="#18232E"/>
</svg>
