<svg width="28" height="28" viewBox="0 0 28 28" fill="none" xmlns="http://www.w3.org/2000/svg">
<g clip-path="url(#clip0_630_14669)">
<path d="M5.53759 19.6558L7.61964 16.6728L0 9.0976C0.0325981 9.08404 0.0508749 9.07144 0.0696972 9.07049C0.600814 9.04704 1.13207 9.02616 1.66319 9.00027C1.74748 8.9962 1.79617 9.0385 1.84868 9.09109C3.21398 10.4565 4.58001 11.8212 5.94677 13.1853C6.96927 14.2071 7.9914 15.2296 9.01317 16.2526C9.08451 16.3243 9.15134 16.3465 9.25186 16.3378C10.0305 16.27 10.81 16.2138 11.5886 16.1455C12.2764 16.0851 12.9642 16.0218 13.6506 15.9458C14.4361 15.8588 15.22 15.7586 16.0042 15.6596C17.4101 15.482 18.8094 15.2621 20.2021 15.0001C21.907 14.6823 23.6006 14.3118 25.2616 13.8091C25.7042 13.6752 26.1416 13.5235 26.5784 13.3716C26.7497 13.3119 26.9114 13.2262 27.0488 13.1036C27.1788 12.9877 27.2191 12.8567 27.1669 12.7156C27.1308 12.618 27.0596 12.546 26.9708 12.4975C26.8521 12.4313 26.7297 12.3719 26.6041 12.3196C25.6435 11.9287 24.6513 11.6374 23.6368 11.425C22.8457 11.2597 22.0517 11.111 21.2557 10.9729C20.7192 10.8799 20.1782 10.8129 19.6372 10.7439C19.047 10.6687 18.456 10.5998 17.864 10.5371C17.4259 10.4903 16.9863 10.4557 16.5473 10.4181C16.1807 10.3863 15.8139 10.3545 15.4469 10.328C14.9527 10.2924 14.4586 10.2578 13.964 10.2302C13.3423 10.1959 12.7201 10.1678 12.0981 10.1389C11.8117 10.1254 11.5253 10.1105 11.2398 10.1049C10.0535 10.0823 8.86723 10.0616 7.68088 10.0427C7.65046 10.0427 7.61991 10.0454 7.55526 10.0484C7.75576 10.249 7.93716 10.4286 8.11829 10.6087C8.29942 10.7887 8.47824 10.9658 8.65828 11.1449C8.8415 11.3269 9.02472 11.509 9.20794 11.6912L9.75761 12.2376L10.3071 12.7841L10.8473 13.3209L11.3968 13.8668L11.9465 14.4132L12.4866 14.9499L13.0518 15.5127C12.8765 15.5314 12.7336 15.5486 12.5902 15.5618C12.0473 15.6112 11.5044 15.661 10.9611 15.7073C10.5717 15.7406 10.1819 15.769 9.79225 15.7984C9.6294 15.8113 9.46573 15.8188 9.30205 15.8323C9.25186 15.8364 9.21367 15.8245 9.18148 15.7869C9.16375 15.7663 9.14302 15.7484 9.12379 15.7293L2.48905 9.13583C2.45441 9.1014 2.42085 9.06561 2.3663 9.00908C2.43627 9.00529 2.48318 9.00041 2.52997 9.00054C3.45281 9.0023 4.37578 8.99783 5.29876 9.00881C6.30807 9.02074 7.31702 9.04094 8.32561 9.0694C9.09842 9.09082 9.87054 9.12647 10.6424 9.16294C11.4005 9.19909 12.1585 9.24021 12.9165 9.2863C13.4516 9.31937 13.9861 9.36397 14.5205 9.4083C15.0865 9.45466 15.6525 9.50129 16.2179 9.55741C16.8599 9.62031 17.5016 9.68673 18.142 9.76332C18.7824 9.83991 19.4225 9.92111 20.0593 10.0169C20.7102 10.1153 21.3593 10.2246 22.0066 10.345C22.9798 10.5254 23.9449 10.7427 24.897 11.0145C25.5302 11.1952 26.1565 11.3962 26.764 11.6496C26.9975 11.7469 27.2201 11.8718 27.4423 11.9936C27.5326 12.0432 27.6143 12.1122 27.6903 12.1834C28.0391 12.5074 28.096 12.9322 27.8468 13.3374C27.7268 13.5325 27.5649 13.6899 27.3876 13.8338C27.0971 14.0691 26.7722 14.2501 26.4435 14.4248C25.6806 14.8307 24.8749 15.1371 24.0645 15.4315C22.255 16.0893 20.4051 16.6156 18.5393 17.0889C16.8981 17.5054 15.2478 17.8816 13.5882 18.2176C12.4447 18.4493 11.2991 18.6699 10.1514 18.8795C8.97239 19.0952 7.79013 19.2923 6.60896 19.4956C6.27343 19.5534 5.93667 19.6041 5.60046 19.6583C5.57947 19.659 5.55846 19.6582 5.53759 19.6558Z" fill="black"/>
</g>
<defs>
<clipPath id="clip0_630_14669">
<rect width="28" height="10.6591" fill="white" transform="translate(0 9)"/>
</clipPath>
</defs>
</svg>
