<svg width="29" height="28" viewBox="0 0 29 28" fill="none" xmlns="http://www.w3.org/2000/svg">
<path d="M14.0473 24.8684C9.73356 24.749 5.76911 23.6504 2.64352 20.477C-0.879108 16.8947 -0.840299 11.8287 2.70323 8.27919C5.00786 5.98948 7.84089 4.75656 10.9963 4.25802C15.0324 3.62215 18.9073 4.14159 22.5165 6.14173C24.0731 6.97752 25.4156 8.16162 26.4392 9.60167C28.8483 13.0676 28.4871 17.3037 25.5108 20.3875C22.8509 23.1399 19.4924 24.3758 15.7608 24.7669C15.1936 24.8266 14.6234 24.8356 14.0473 24.8684ZM5.32132 20.4741C5.67955 20.7726 5.8527 20.9427 6.04674 21.0711C10.262 24.1788 16.8146 24.4176 21.2329 21.6144C24.0122 19.8233 25.8003 17.435 25.6541 13.9691C25.5784 12.3923 24.9749 10.8867 23.9405 9.69421C23.0091 12.978 20.9552 15.1991 18.2685 16.9425L18.3819 17.1037H21.212L20.8896 17.6201H16.5579L21.3135 8.64638L22.7345 8.5807C22.3982 8.11679 21.9742 7.72328 21.4866 7.42241C17.2863 4.87597 12.88 4.59834 8.37526 6.46115C5.58104 7.61646 3.47044 9.54196 2.62561 12.5661C1.99572 14.8229 2.49127 16.8828 3.89734 18.9277L9.42011 8.66727H13.9965C14.0119 8.82911 14.0119 8.99204 13.9965 9.15388C13.4681 11.6496 12.5188 13.9423 10.4351 15.5633C8.97231 16.7007 7.41101 17.7157 5.89151 18.7814C5.69149 18.9247 5.48252 19.059 5.27952 19.1964L5.35117 19.3605H9.93955L9.34249 20.4741H5.32132Z" fill="black"/>
<path d="M12.7457 17.8948H16.2594L15.731 18.9038H10.247L15.7429 8.63444H19.8417C18.97 12.8944 15.9997 15.4379 12.6203 17.6649L12.7457 17.8948Z" fill="black"/>
</svg>
