<svg width="28" height="28" viewBox="0 0 28 28" fill="none" xmlns="http://www.w3.org/2000/svg">
<path d="M14.0294 27.8313C6.86127 27.9017 0.00903249 22.1884 7.78503e-06 13.8052C-0.00777213 6.62719 5.81627 -0.0756926 14.2457 0.000645844C21.3108 0.0658128 28.2066 5.85854 27.9953 14.325C27.7998 22.1487 21.2211 27.8605 14.0294 27.8313ZM14.0496 0.700725C6.22861 0.683347 0.704557 7.06661 0.6974 13.8579C0.68962 21.4741 6.94654 27.0623 13.7365 27.1458C21.5068 27.2411 27.2736 20.8926 27.2755 13.9461C27.2804 6.33705 20.9451 0.634627 14.0496 0.700725Z" fill="black"/>
<path d="M23.6821 13.9576C23.7602 19.1473 19.3347 23.628 13.9239 23.5796C8.6796 23.5328 4.19868 19.2473 4.28176 13.6628C4.35054 9.05174 8.23396 4.22908 13.9939 4.24677C19.3627 4.26414 23.773 8.62568 23.6821 13.9576ZM7.23191 9.17277C7.60317 9.43747 7.72702 9.78875 7.72765 10.1984C7.73138 12.5149 7.72578 14.8317 7.74414 17.1495C7.75254 18.2089 8.11571 19.1433 8.87814 19.9011C9.38321 20.4029 10.0209 20.6806 10.6831 20.896C11.1153 21.0366 11.5622 21.1331 12.0035 21.2448C12.756 21.4353 13.4686 21.7 14.0166 22.284C14.0213 22.289 14.0356 22.2856 14.053 22.2865C14.2709 21.9576 14.5895 21.7438 14.9493 21.601C15.3473 21.4428 15.7543 21.3034 16.1661 21.1846C16.8018 21.0006 17.4606 20.8851 18.0594 20.5913C19.4859 19.8921 20.2589 18.7653 20.2651 17.1579C20.2679 16.5838 20.2608 16.0097 20.2602 15.4359C20.2583 13.688 20.2566 11.9399 20.2552 10.1915C20.2552 9.89519 20.3149 9.61652 20.4883 9.37075C20.543 9.29286 20.6638 9.21994 20.6588 9.15136C20.6529 9.06447 20.5524 8.98192 20.488 8.90124C20.1659 8.49782 19.8164 8.11955 19.3947 7.80643C19.1654 8.07641 18.8657 8.17882 18.5336 8.18533C17.9221 8.19806 17.31 8.19868 16.6976 8.19961C14.3688 8.20271 12.0402 8.20447 9.71184 8.20488C9.57735 8.20766 9.44284 8.2003 9.30946 8.18285C9.00915 8.13692 8.78043 7.96346 8.57628 7.73723C8.0765 8.17323 7.61842 8.63157 7.23191 9.17277Z" fill="black"/>
<path d="M3.73437 14.7548C3.51653 14.5748 3.32981 14.4212 3.14621 14.2663C2.55182 13.7677 1.95588 13.2699 1.36429 12.7669C1.31793 12.7275 1.27467 12.6462 1.28027 12.5891C1.41402 11.1723 1.79793 9.79028 2.41427 8.50682C2.42882 8.48111 2.44856 8.45868 2.47223 8.44095C2.4959 8.42322 2.523 8.41057 2.55182 8.4038C3.56072 8.25391 4.57056 8.10993 5.58039 7.96563C5.59958 7.96661 5.61854 7.97027 5.63672 7.97649C5.62487 8.01024 5.61019 8.04294 5.59284 8.07424C5.4279 8.32436 5.25737 8.57075 5.09492 8.82428C5.03082 8.92513 4.95395 8.98627 4.83321 8.98534C4.56962 8.98285 4.43301 9.11939 4.3188 9.35772C3.73561 10.5698 3.40637 11.8462 3.30305 13.1824C3.29714 13.26 3.34133 13.3763 3.40201 13.4186C3.68209 13.6147 3.78074 13.8707 3.73717 14.2043C3.71757 14.3684 3.73437 14.541 3.73437 14.7548ZM2.47713 12.5701C2.63273 11.3999 2.94175 10.3185 3.38832 9.24321C3.20938 9.26959 3.06312 9.27704 2.92681 9.31738C2.84766 9.3431 2.78182 9.39883 2.74352 9.47254C2.39342 10.3057 2.16718 11.1722 2.0343 12.0656C2.0287 12.1031 2.02808 12.1587 2.05017 12.1801C2.17839 12.3048 2.31313 12.4221 2.47713 12.5701Z" fill="black"/>
<path d="M24.2422 14.8296C24.2422 14.4789 24.2335 14.1301 24.2497 13.7822C24.2528 13.7143 24.3396 13.6333 24.4078 13.588C24.6222 13.4452 24.6686 13.2594 24.6487 13.0089C24.5394 11.642 24.1635 10.3529 23.5436 9.13274C23.5261 9.10326 23.5023 9.07804 23.4738 9.05888C23.4453 9.03972 23.4129 9.02711 23.379 9.02195C23.0195 9.01575 22.8101 8.82273 22.6632 8.51489C22.5752 8.33025 22.4497 8.16361 22.3225 7.95849C22.5786 7.99635 22.8048 8.02831 23.0304 8.06338C23.8128 8.18471 24.5951 8.30853 25.3781 8.42738C25.4212 8.43055 25.4626 8.44565 25.4977 8.47097C25.5327 8.49629 25.5599 8.53085 25.5763 8.57075C26.1843 9.82935 26.559 11.1872 26.6823 12.5788C26.6833 12.6057 26.6789 12.6324 26.6693 12.6575C26.6598 12.6826 26.6452 12.7056 26.6266 12.725C25.8466 13.4203 25.0642 14.1134 24.2796 14.8041C24.2678 14.8135 24.2553 14.822 24.2422 14.8296ZM25.5082 12.6167C25.6529 12.491 25.7718 12.3995 25.8745 12.2927C25.9216 12.2435 25.9473 12.1777 25.946 12.1096C25.8284 11.1787 25.6012 10.2735 25.2116 9.41482C25.1939 9.37572 25.1612 9.32172 25.1273 9.3152C24.9577 9.27952 24.785 9.25718 24.564 9.22211C25.0405 10.3191 25.3314 11.4266 25.5094 12.6167H25.5082Z" fill="black"/>
<path d="M9.04525 2.1698C9.42927 2.02954 9.79742 1.8781 10.1761 1.76049C11.5579 1.33101 12.9735 1.13458 14.4206 1.20192C14.8625 1.2224 15.0741 1.41914 15.1435 1.90138C15.1846 2.2153 15.1538 2.53444 15.0535 2.83482C14.9773 3.07469 14.7781 3.26926 14.4623 3.2525C13.2259 3.19323 12.0122 3.34064 10.8325 3.7245C10.6809 3.77384 10.6675 3.84242 10.708 3.97275C10.7845 4.21729 10.7811 4.21853 10.5368 4.30976C10.4011 4.36034 10.2592 4.39851 10.1323 4.46306C9.98756 4.53536 9.92625 4.49781 9.87241 4.35134C9.64711 3.74095 9.41091 3.13489 9.18031 2.52698C9.13799 2.41713 9.09691 2.30696 9.04525 2.1698ZM14.2158 2.18935C14.1971 2.01154 14.0954 1.87221 13.9145 1.86972C13.2386 1.86135 12.5671 1.90355 11.9058 2.03699C11.3895 2.14094 10.881 2.28524 10.3682 2.40689C10.2499 2.43544 10.2157 2.49378 10.2658 2.60735C10.2988 2.68245 10.3193 2.76251 10.3451 2.84164C10.371 2.92077 10.4176 2.95181 10.5091 2.9245C11.6506 2.58315 12.8135 2.37616 14.0095 2.38237C14.1495 2.38299 14.1906 2.28772 14.2158 2.18935Z" fill="black"/>
<path d="M23.3202 5.21403C23.5087 5.43591 23.6936 5.64444 23.8632 5.86291C23.8828 5.88773 23.847 5.98424 23.81 6.01807C23.3597 6.44538 22.9041 6.8671 22.4497 7.29037L22.0835 7.63172C21.9861 7.52684 21.8967 7.42071 21.799 7.32606C21.1558 6.71318 20.8091 5.90914 20.3868 5.15383C20.1422 4.71659 19.9048 4.27501 19.6639 3.8359C19.6375 3.78749 19.6076 3.74281 19.5559 3.65468L18.8897 4.9484C18.6535 4.8373 18.4369 4.72776 18.2137 4.63342C18.0893 4.58098 18.0846 4.51612 18.1366 4.40689C18.4048 3.84242 18.6678 3.27578 18.9332 2.71038C18.9986 2.57104 19.0661 2.43295 19.1479 2.26197C19.4778 2.43606 19.7971 2.60332 20.1127 2.77461C20.1484 2.79416 20.1705 2.84506 20.1914 2.8854C20.7627 4.00255 21.3333 5.11969 21.903 6.23684C21.9988 6.42303 22.0215 6.42893 22.1781 6.28215C22.549 5.93676 22.9184 5.58983 23.3202 5.21403Z" fill="black"/>
<path d="M6.04563 7.4446C5.55767 7.01481 5.08092 6.59464 4.60354 6.17229C4.47906 6.06275 4.35303 5.95507 4.23882 5.83529C4.21019 5.80426 4.20023 5.71116 4.22419 5.68416C4.40313 5.47128 4.59296 5.26709 4.79088 5.04708C4.92968 5.16965 5.05322 5.27671 5.1749 5.38564C5.45311 5.63389 5.73505 5.87656 6.0058 6.13382C6.12187 6.24491 6.19002 6.24584 6.3061 6.12885C7.02185 5.40736 7.83657 4.8162 8.72939 4.33055C8.76985 4.30852 8.81154 4.28866 8.87596 4.25577L9.26278 4.84537C8.01675 5.50759 6.96895 6.38083 6.04563 7.4446Z" fill="black"/>
<path d="M16.9674 4.14374L16.0338 3.91348L16.5806 1.44707L17.5826 1.69719C17.3769 2.51705 17.174 3.32357 16.9674 4.14374Z" fill="black"/>
<path d="M14.1595 21.6097C14.1474 21.5705 14.1377 21.5306 14.1305 21.4903C14.1273 21.449 14.1266 21.4075 14.1283 21.3661C14.1269 17.1772 14.1254 12.9879 14.124 8.79821C14.124 8.57447 14.124 8.58285 14.3418 8.58254C15.4721 8.58068 16.6024 8.57416 17.7339 8.5692C17.8895 8.5692 18.0451 8.56113 18.2007 8.5692C18.5801 8.59547 18.9599 8.52398 19.3035 8.36159C19.3969 8.31691 19.4647 8.32622 19.5354 8.40411C19.7532 8.6446 19.9776 8.88076 20.202 9.12187C19.9238 9.50108 19.8755 9.91846 19.8761 10.347C19.8786 12.1055 19.8821 13.864 19.8864 15.6224C19.8864 16.1655 19.9038 16.7086 19.8923 17.251C19.8646 18.5509 19.2432 19.4958 18.1185 20.1217C17.474 20.4805 16.7552 20.6316 16.0556 20.8377C15.5651 20.9823 15.0834 21.1576 14.6048 21.3373C14.4492 21.3972 14.3151 21.5135 14.1595 21.6097ZM17.2506 10.0935C17.1221 10.0935 17.0035 10.0978 16.8852 10.0919C16.7978 10.0873 16.7645 10.1261 16.757 10.2064C16.7324 10.4792 16.7044 10.7517 16.6811 11.0248C16.6756 11.0971 16.6756 11.1697 16.6811 11.242C16.6867 11.327 16.6528 11.3732 16.5666 11.3645C16.4552 11.3534 16.4362 11.4195 16.4356 11.5067C16.4356 11.5787 16.4436 11.6535 16.4272 11.722C16.411 11.7698 16.3778 11.8099 16.3338 11.8347C16.218 11.9014 16.0945 11.9548 15.9769 12.0187C15.8682 12.078 15.8751 12.1497 15.923 12.262C15.9601 12.3624 15.9584 12.4731 15.918 12.5723C15.8558 12.7123 15.8558 12.7793 16.007 12.8308C16.1471 12.8792 16.2927 12.9109 16.4328 12.9593C16.4657 12.9704 16.5115 13.0213 16.5084 13.0493C16.4692 13.3968 16.5952 13.3884 16.1972 13.3881H16.1038C15.8922 13.3881 15.8623 13.4207 15.886 13.6293C15.891 13.6749 15.9015 13.7199 15.9134 13.7844H17.2556C17.3427 14.0563 17.3038 14.1124 17.0545 14.1146C16.7178 14.1171 16.3808 14.1286 16.0441 14.1236C15.8816 14.1211 15.8885 14.2167 15.8931 14.3253C15.8975 14.4255 15.8679 14.5404 16.0397 14.5289C16.1969 14.518 16.3553 14.5264 16.5214 14.5264C16.5214 14.6527 16.518 14.7352 16.5214 14.8175C16.5274 14.9335 16.4872 14.9881 16.3596 14.9767C16.2523 14.9674 16.1418 14.9863 16.0338 14.9813C15.8303 14.9717 15.9043 15.121 15.8941 15.2184C15.8826 15.3264 15.9115 15.3897 16.0462 15.3866C16.4197 15.3779 16.7931 15.3866 17.1666 15.3813C17.3116 15.3785 17.3069 15.467 17.3094 15.5625C17.3119 15.6581 17.2926 15.7245 17.1641 15.722C16.8429 15.7155 16.5214 15.7261 16.1994 15.7273C15.8835 15.7289 15.8832 15.7273 15.9009 16.0417C15.9071 16.0679 15.9153 16.0937 15.9255 16.1186C16.0755 16.1186 16.2367 16.1121 16.3923 16.1227C16.4377 16.1255 16.5118 16.1729 16.5168 16.2083C16.5333 16.3175 16.523 16.4308 16.523 16.5577C16.2485 16.5084 16.1094 16.7064 15.9317 16.8231C15.9118 16.8361 15.9081 16.9162 15.9274 16.9379C16.0235 17.0542 16.0266 17.1594 15.9299 17.2792C15.8676 17.3549 15.8754 17.4344 15.9772 17.4788C16.1281 17.5455 16.2812 17.6072 16.4306 17.6771C16.4661 17.6935 16.5127 17.7326 16.5152 17.7646C16.5252 17.8853 16.5193 18.0075 16.5193 18.1258C16.2877 18.1549 16.2541 18.2043 16.275 18.433C16.284 18.5317 16.3189 18.5748 16.4284 18.5729C16.786 18.5677 17.1441 18.5729 17.5014 18.5748C17.8126 18.5748 17.8092 18.5748 17.7989 18.2601C17.7958 18.172 17.7653 18.1329 17.681 18.1413C17.5739 18.1518 17.5447 18.0972 17.5496 18.0029C17.5526 17.9408 17.552 17.8787 17.5478 17.8167C17.5415 17.718 17.5817 17.6758 17.6835 17.6792C17.8129 17.6833 17.943 17.6696 18.0721 17.6761C18.2442 17.6845 18.2277 17.5684 18.2305 17.4589C18.2333 17.3494 18.2184 17.2727 18.0712 17.2767C17.7242 17.2842 17.3766 17.2674 17.0296 17.2746C16.8911 17.2774 16.8532 17.2206 16.8662 17.1008C16.8709 17.0561 16.8821 17.012 16.8924 16.9565C17.2917 16.9565 17.6803 16.9494 18.0684 16.9599C18.2218 16.9643 18.2355 16.8885 18.2361 16.7715C18.2361 16.6496 18.228 16.5571 18.0625 16.5754C17.9382 16.5872 17.8129 16.5849 17.6891 16.5686C17.6402 16.5627 17.558 16.5099 17.5577 16.478C17.5577 16.3601 17.5823 16.2415 17.6022 16.1239C17.6022 16.1177 17.6414 16.1202 17.6604 16.1137C17.8222 16.0556 17.9862 16.0032 18.144 15.9359C18.2455 15.8927 18.2492 15.8217 18.1901 15.7227C18.1244 15.6128 18.0967 15.4909 18.1951 15.3692C18.2165 15.3425 18.1969 15.2404 18.1677 15.224C17.9763 15.1169 17.7771 15.0235 17.5664 14.9186V14.5956C17.774 14.4988 17.9492 14.4144 18.1266 14.3352C18.2346 14.2871 18.2265 14.2266 18.1888 14.1255C18.1555 14.0324 18.1344 13.9017 18.1767 13.8257C18.2467 13.6997 18.2041 13.6373 18.1085 13.5886C17.9324 13.4989 17.7494 13.4223 17.544 13.3289C17.544 13.2786 17.5462 13.1967 17.544 13.1147C17.5403 13.0018 17.5752 12.9403 17.7055 12.9518C17.83 12.9624 17.9545 12.9497 18.079 12.9546C18.2312 12.9605 18.2221 12.8584 18.2224 12.7573C18.2228 12.6561 18.2206 12.5773 18.0781 12.5807C17.7516 12.5888 17.4245 12.5807 17.0981 12.5807C16.8025 12.5807 16.799 12.5763 16.851 12.2595C16.8933 12.2564 16.9381 12.2502 16.9836 12.2499C17.3257 12.2474 17.668 12.2454 18.0105 12.244C18.2084 12.244 18.2318 12.2223 18.2284 12.0243C18.2223 11.9609 18.2119 11.8979 18.1972 11.8359C18.0563 11.8359 17.9271 11.8359 17.7983 11.8359C17.5313 11.8328 17.5263 11.8288 17.5453 11.5663C17.5546 11.4359 17.554 11.318 17.367 11.3304C17.367 11.2795 17.3704 11.2435 17.367 11.2081C17.3337 10.8469 17.2938 10.4851 17.2518 10.0935H17.2506Z" fill="black"/>
<path d="M13.8582 21.6212C13.1907 21.1852 12.4672 20.9878 11.7449 20.7858C11.3466 20.6744 10.9482 20.5612 10.5552 20.4318C10.1052 20.2834 9.68383 20.0733 9.31257 19.7742C8.6768 19.2622 8.3323 18.581 8.19226 17.7947C8.13432 17.4693 8.10455 17.1396 8.10326 16.8091C8.09393 14.5907 8.09112 12.3723 8.09486 10.1537C8.09486 9.78348 7.99714 9.45081 7.73916 9.12963C7.91685 8.93289 8.09641 8.72963 8.28158 8.53196C8.36622 8.44135 8.45149 8.31691 8.55699 8.29115C8.64786 8.26881 8.76735 8.36563 8.87472 8.40845C9.23788 8.55337 9.61972 8.58006 10.0044 8.58099C11.218 8.58471 12.4317 8.58906 13.6454 8.58316C13.8069 8.58316 13.8517 8.63033 13.848 8.78239C13.842 9.01482 13.8595 9.24787 13.8595 9.47998C13.8595 13.4465 13.8595 17.4129 13.8595 21.3792L13.8582 21.6212ZM11.3335 10.4224C11.5224 10.5465 11.5513 10.7166 11.5554 10.9062C11.5734 11.5827 11.5989 12.2592 11.6176 12.9357C11.6294 13.3908 11.6361 13.846 11.6375 14.3011C11.6375 14.3483 11.5865 14.4383 11.5675 14.4361C11.3683 14.4137 11.3565 14.5307 11.3677 14.6763C11.3652 14.7149 11.3582 14.7531 11.3469 14.7902C11.1847 14.7902 11.0298 14.7874 10.8751 14.7902C10.7796 14.7926 10.7291 14.7424 10.7481 14.6595C10.7901 14.4733 10.708 14.4184 10.5406 14.4286C10.5272 14.4286 10.5132 14.415 10.4895 14.4026C10.4895 14.3504 10.4895 14.2943 10.4895 14.2378C10.5086 13.1943 10.5278 12.1507 10.5471 11.107C10.5518 10.8541 10.5045 10.5825 10.8073 10.4243C10.0657 10.4016 9.33965 10.3622 8.61082 10.4283C8.62443 10.4579 8.64799 10.4819 8.67742 10.496C8.81092 10.5546 8.8688 10.6567 8.87161 10.801C8.8936 11.9428 8.91683 13.0845 8.94131 14.2263C8.94318 14.321 8.99235 14.4435 8.82524 14.4578C8.81684 14.4578 8.80408 14.482 8.80377 14.4954C8.79816 14.6446 8.74619 14.8168 8.80377 14.9382C8.88001 15.1023 8.86009 15.2572 8.866 15.4167C8.87441 15.6696 8.866 15.9234 8.87192 16.1767C8.87721 16.456 8.8797 16.456 8.60304 16.5059C8.60304 16.6862 8.59744 16.8712 8.60833 17.0552C8.6102 17.0862 8.67929 17.1194 8.72254 17.1411C8.76082 17.1604 8.84329 17.1641 8.84391 17.1765C8.84764 17.3006 8.88748 17.471 8.82244 17.5436C8.71694 17.6622 8.74713 17.7608 8.7574 17.8884H10.7394C10.731 17.7723 10.7599 17.6271 10.7111 17.593C10.5574 17.4862 10.6395 17.3484 10.6246 17.2262C10.6215 17.2004 10.6821 17.1393 10.7052 17.143C10.8272 17.1635 10.8732 17.0974 10.895 16.9863C11.0363 17.022 11.2137 16.9009 11.2958 17.1141C11.3008 17.1275 11.3447 17.1231 11.368 17.1331C11.4184 17.1545 11.5081 17.1771 11.5096 17.2035C11.5168 17.3177 11.5386 17.5014 11.4804 17.5365C11.3098 17.6395 11.3814 17.7577 11.387 17.8971C12.0222 17.8971 12.6439 17.8971 13.2657 17.894C13.3214 17.894 13.4191 17.8586 13.4241 17.8276C13.4375 17.7438 13.5003 17.637 13.3743 17.57C13.3139 17.539 13.289 17.2125 13.3385 17.1666C13.348 17.1583 13.3592 17.152 13.3712 17.1481C13.3832 17.1442 13.3959 17.1428 13.4085 17.1439C13.6015 17.1774 13.6071 17.0546 13.6018 16.9196C13.5996 16.8681 13.6018 16.8162 13.6018 16.7644C13.6018 16.5019 13.6018 16.5019 13.356 16.4541C13.3475 16.4541 13.3404 16.4423 13.318 16.4231C13.318 15.9855 13.318 15.5365 13.318 15.0887C13.318 15.0784 13.3199 15.0682 13.3208 15.0577C13.3373 14.8857 13.356 14.7138 13.3684 14.5416C13.3706 14.5106 13.3535 14.4535 13.3351 14.4485C13.2128 14.4175 13.2333 14.3244 13.2343 14.2387C13.2446 13.1536 13.255 12.0684 13.2654 10.9829C13.2673 10.7684 13.2153 10.5326 13.5405 10.4553L13.4985 10.4184L11.3335 10.4224Z" fill="black"/>
<path d="M16.0002 16.851C16.1667 16.7011 16.3217 16.6161 16.5326 16.6226C17.0237 16.6378 17.5154 16.6341 18.0068 16.6387C18.0818 16.6387 18.1624 16.6195 18.1677 16.7452C18.172 16.8637 18.116 16.8802 18.0186 16.8798C17.3726 16.8767 16.7262 16.8767 16.0799 16.8749C16.0525 16.8699 16.0258 16.8618 16.0002 16.851Z" fill="black"/>
<path d="M18.1322 11.9511V12.1537H15.975L15.9572 12.113C16.0979 12.051 16.2373 11.9433 16.3792 11.9386C16.9434 11.92 17.5089 11.9337 18.0737 11.9358C18.0937 11.9389 18.1133 11.944 18.1322 11.9511Z" fill="black"/>
<path d="M16.0064 17.3602C16.0603 17.3574 16.1141 17.3518 16.1679 17.3522C16.7841 17.3544 17.4003 17.3572 18.0164 17.3605C18.093 17.3605 18.1779 17.3422 18.172 17.4698C18.1664 17.5765 18.1198 17.606 18.0164 17.6051C17.4986 17.6004 16.9798 17.6175 16.4629 17.5942C16.3039 17.5874 16.1493 17.4781 15.9927 17.4158L16.0064 17.3602Z" fill="black"/>
<path d="M18.1117 15.2994C18.0728 15.3022 18.0342 15.3075 17.9956 15.3075C17.3732 15.3075 16.7508 15.3075 16.1284 15.3075C16.04 15.3075 15.9678 15.313 15.966 15.1849C15.9641 15.0567 16.04 15.0635 16.1265 15.0635C16.6245 15.0648 17.1224 15.0648 17.6203 15.0635C17.8185 15.0642 17.9626 15.1799 18.1117 15.2994Z" fill="black"/>
<path d="M18.1658 15.8403C17.9452 15.9644 17.7728 16.0662 17.5434 16.0575C17.0682 16.037 16.5921 16.0435 16.116 16.0414C16.0304 16.0414 15.9647 16.0376 15.965 15.9225C15.965 15.8021 16.0397 15.8092 16.1206 15.8099C16.7362 15.8136 17.3518 15.817 17.9676 15.8201C18.0183 15.8195 18.0728 15.83 18.1658 15.8403Z" fill="black"/>
<path d="M15.9769 12.6654H18.1266V12.8653C18.0239 12.8724 17.9221 12.8854 17.8201 12.8851C17.3533 12.8833 16.8865 12.8898 16.4228 12.8674C16.2672 12.8597 16.1138 12.7743 15.9594 12.7256C15.9644 12.7054 15.9709 12.6853 15.9769 12.6654Z" fill="black"/>
<path d="M15.9644 14.4196L15.994 14.2139H18.0805C18.0877 14.2322 18.0945 14.2508 18.1017 14.2691C17.9586 14.3312 17.817 14.4426 17.6723 14.4473C17.1196 14.4646 16.5659 14.4473 16.013 14.4429C16.0049 14.4429 15.9955 14.4352 15.9644 14.4196Z" fill="black"/>
<path d="M16.0008 13.6916C15.9348 13.4918 15.9557 13.4589 16.1564 13.4614C16.6478 13.4673 17.1398 13.4645 17.6299 13.4924C17.788 13.5008 17.9411 13.5898 18.0967 13.642L18.0818 13.6929L16.0008 13.6916Z" fill="black"/>
<path d="M16.4975 18.4783V18.2223C16.8398 18.2601 17.2089 18.1068 17.4992 18.4783H16.4975Z" fill="black"/>
<path d="M17.2073 11.8123H16.6581V11.4635C16.945 11.4139 17.1731 11.5507 17.2073 11.8123Z" fill="black"/>
<path d="M16.725 13.367V13.0322C16.9521 13.0164 17.1295 13.1312 17.2356 13.367H16.725Z" fill="black"/>
<path d="M17.3116 18.1351C17.1267 18.1351 16.9693 18.1428 16.8118 18.1329C16.6543 18.123 16.7321 17.9942 16.7212 17.9157C16.7097 17.8319 16.7664 17.8158 16.841 17.8226C17.0418 17.844 17.1992 17.9259 17.3116 18.1351Z" fill="black"/>
<path d="M17.2736 14.9701H16.7446C16.7318 14.9494 16.7228 14.9413 16.7222 14.9326C16.7004 14.6378 16.7411 14.6021 17.015 14.7154C17.1205 14.7591 17.2076 14.8473 17.3029 14.9152L17.2736 14.9701Z" fill="black"/>
<path d="M16.7449 16.2449C16.9901 16.2341 17.1494 16.3328 17.2988 16.5522C17.1034 16.5522 16.9428 16.5556 16.7829 16.5478C16.7642 16.5478 16.7362 16.4876 16.7337 16.4547C16.7329 16.3846 16.7366 16.3145 16.7449 16.2449Z" fill="black"/>
<path d="M17.1336 11.3376H16.8949C16.8862 11.1588 16.8778 10.9863 16.8694 10.8119C17.0912 10.8252 17.1943 11.0375 17.1336 11.3376Z" fill="black"/>
<path d="M17.3567 13.8316C17.6679 13.8213 17.8123 13.8986 17.8991 14.1109C17.7385 14.1109 17.5842 14.1304 17.441 14.0988C17.3981 14.0892 17.3872 13.9365 17.3567 13.8316Z" fill="black"/>
<path d="M17.3922 15.7006V15.4524C17.6514 15.4322 17.8104 15.5104 17.8976 15.7006H17.3922Z" fill="black"/>
<path d="M16.1847 12.559V12.3017C16.3462 12.3231 16.4436 12.4088 16.527 12.559H16.1847Z" fill="black"/>
<path d="M16.9154 10.2548C17.025 10.3408 17.0965 10.5881 17.0471 10.667C17.0365 10.6837 16.9998 10.702 16.9848 10.6955C16.9571 10.6831 16.9185 10.6555 16.9173 10.6319C16.9117 10.5121 16.9154 10.3917 16.9154 10.2548Z" fill="black"/>
<path d="M16.1882 17.2497V17.0127L16.4713 17.2082L16.4555 17.2497H16.1882Z" fill="black"/>
<path d="M12.7749 14.4113H11.7589C11.7461 14.1515 11.7278 13.8918 11.7212 13.6317C11.6979 12.734 11.6789 11.8359 11.659 10.9379C11.6518 10.639 11.6509 10.6362 11.9518 10.6502C12.0757 10.6532 12.1991 10.6669 12.3206 10.6912C12.4716 10.7226 12.607 10.8054 12.7035 10.9254C12.8 11.0455 12.8517 11.1952 12.8496 11.349C12.8338 12.3501 12.812 13.3515 12.7921 14.3526C12.7882 14.3726 12.7825 14.3923 12.7749 14.4113Z" fill="black"/>
<path d="M8.98146 10.6542C9.29265 10.6542 9.60074 10.6598 9.88393 10.8116C10.0517 10.9009 10.1428 11.0313 10.1376 11.2351C10.1117 12.2521 10.094 13.2693 10.0728 14.2865C10.0728 14.3265 10.0663 14.3666 10.061 14.4255C9.80177 14.4255 9.54908 14.4255 9.2967 14.4255C9.03218 14.4255 9.02969 14.4255 9.02471 14.1627C9.00915 13.3416 8.99484 12.5205 8.98177 11.6994C8.97741 11.3583 8.98146 11.0195 8.98146 10.6542Z" fill="black"/>
<path d="M10.1469 17.5486H8.95221V15.1625C9.29079 15.1961 9.6107 15.2196 9.89762 15.3773C10.1758 15.5297 10.3233 15.7624 10.2972 16.0885C10.2888 16.1959 10.2798 16.303 10.2717 16.4032H9.76319C9.77377 16.3368 9.78808 16.2573 9.79897 16.1776C9.81597 16.0772 9.79875 15.974 9.75008 15.8846C9.7014 15.7951 9.62406 15.7244 9.53041 15.6839C9.44964 15.6477 9.35978 15.6368 9.27267 15.6526C9.18557 15.6684 9.10531 15.7101 9.04245 15.7723C9.0026 15.8099 8.97406 15.8578 8.96004 15.9106C8.94602 15.9635 8.94708 16.0192 8.9631 16.0715C9.08135 16.483 9.20801 16.892 9.3328 17.3016C9.34129 17.3191 9.35241 17.3352 9.36579 17.3494L9.40344 17.3373C9.28954 16.9062 9.17596 16.4752 9.05926 16.0339L9.37357 15.9998C9.4022 16.2142 9.42709 16.4178 9.4579 16.6204C9.47038 16.6724 9.48768 16.7231 9.50956 16.7719L9.68445 16.6834V17.4248H9.74669V16.7579L10.2188 16.8466C10.1967 17.0726 10.1724 17.305 10.1469 17.5486Z" fill="black"/>
<path d="M11.6076 17.5365V15.6193C11.724 15.6122 11.8317 15.5936 11.9372 15.6023C12.0844 15.6144 12.1267 15.5492 12.1273 15.4161C12.1273 15.2262 12.1771 15.1945 12.3617 15.2559C12.5378 15.3149 12.6564 15.4421 12.7463 15.6016C12.4924 15.8729 12.6492 16.2387 12.5394 16.5C12.3632 16.4752 12.1949 16.424 12.0309 16.4358C11.8669 16.4476 11.7707 16.5909 11.79 16.7576C11.814 16.9627 11.8603 17.165 11.8967 17.3683L11.9484 17.359L11.8719 16.8578L12.3234 16.8072C12.3234 16.9683 12.3184 17.1262 12.3262 17.2833C12.3287 17.3329 12.3645 17.3813 12.385 17.43C12.427 17.4006 12.4821 17.3795 12.5095 17.3397C12.5751 17.2474 12.6298 17.1479 12.6726 17.0431C12.6984 16.9751 12.713 16.8777 12.6831 16.8184C12.5322 16.5208 12.7021 16.2369 12.6716 15.9303L12.9862 16.0215L12.7746 16.8553C12.7718 16.8653 12.7672 16.8746 12.7644 16.8845C12.7021 17.1101 12.6153 17.3391 12.8985 17.5089L12.8674 17.5365H11.6076Z" fill="black"/>
<path d="M11.5037 15.3233V16.4525C11.3963 16.4643 11.2958 16.4637 11.2317 16.5928C11.2078 16.6412 11.0313 16.6142 10.9398 16.5844L10.6395 16.4007C10.6395 16.3036 10.6395 16.1525 10.6395 15.9973C10.6395 15.8111 10.6432 15.6249 10.6373 15.4387C10.6348 15.359 10.6607 15.3217 10.7397 15.3217L11.5037 15.3233Z" fill="black"/>
<path d="M11.6285 14.8842V15.2224H10.3716V14.8842H11.6285Z" fill="black"/>
<path d="M8.88748 14.909C8.85636 14.694 8.85636 14.6918 9.04774 14.6918C9.43114 14.6918 9.81453 14.6933 10.1992 14.6971C10.2531 14.702 10.3065 14.7113 10.3588 14.725C10.2851 14.9379 10.1223 14.9093 9.97075 14.909C9.60821 14.9084 9.24691 14.909 8.88748 14.909Z" fill="black"/>
<path d="M11.485 14.6834C11.6951 14.6834 11.9048 14.6834 12.1149 14.6834C12.325 14.6834 12.5285 14.6986 12.7345 14.6884C12.8901 14.6803 12.9772 14.7427 13.0345 14.913H12.3545C12.2409 14.913 12.127 14.913 12.0122 14.913C11.9375 14.913 11.8681 14.9251 11.8199 14.8299C11.8012 14.7926 11.6926 14.8016 11.6254 14.7877C11.5747 14.7771 11.5246 14.7635 11.4741 14.7511L11.485 14.6834Z" fill="black"/>
<path d="M11.4651 17.813C11.43 17.6845 11.4673 17.6386 11.5896 17.6429C11.8015 17.6497 12.0153 17.6302 12.2263 17.6482C12.3735 17.6606 12.517 17.7174 12.662 17.7543L12.6511 17.813H11.4651Z" fill="black"/>
<path d="M10.0221 17.813H8.84484V17.6457C9.24255 17.6771 9.65333 17.5495 10.0221 17.813Z" fill="black"/>
</svg>
