<svg width="28" height="28" viewBox="0 0 28 28" fill="none" xmlns="http://www.w3.org/2000/svg">
<g clip-path="url(#clip0_630_14514)">
<path d="M0.00128426 13.9707C0.0138594 6.16448 6.2248 0.029168 14.0597 9.18739e-05C21.5323 -0.0275602 28.2459 6.18987 27.993 14.4638C27.7627 21.9969 21.4882 28.2334 13.5367 27.9933C5.86048 27.7614 -0.100503 21.3828 0.00128426 13.9707ZM1.17813 13.9927C1.1926 21.0898 6.94253 26.822 14.0348 26.8095C21.0696 26.7973 26.8165 21.0205 26.8089 13.9689C26.8014 6.92449 21.0279 1.17287 13.9771 1.18604C6.90825 1.19934 1.16377 6.94716 1.17813 13.9927Z" fill="#18232E"/>
<path d="M17.4035 18.1343C16.8754 16.9601 16.3834 15.8214 15.8426 14.7064C15.7506 14.5168 15.4549 14.3241 15.2436 14.3126C14.4169 14.2675 13.5858 14.3118 12.7574 14.2866C12.398 14.2757 12.2376 14.4229 12.1018 14.7358C11.6091 15.8711 11.0874 16.9938 10.5382 18.2056C9.45521 15.8019 8.41278 13.4887 7.37058 11.1756C6.96616 10.2779 6.55343 9.38377 6.16633 8.47873C6.09954 8.32243 6.06193 8.05968 6.14605 7.94776C6.82427 7.04581 7.62647 6.27084 8.64043 5.65632C9.50314 7.5661 10.3454 9.43077 11.1879 11.2953C11.4961 11.9775 11.8219 12.6524 12.1055 13.3445C12.237 13.6657 12.41 13.7917 12.7633 13.7803C13.5719 13.7543 14.3825 13.7535 15.191 13.7806C15.5619 13.793 15.7486 13.6686 15.8999 13.3263C16.9105 11.038 17.9441 8.75988 18.9702 6.47841C19.0821 6.22954 19.1934 5.98044 19.3348 5.66511C20.386 6.28413 21.201 7.08794 21.8951 8.02099C21.9522 8.09766 21.9133 8.28529 21.8633 8.39637C20.4258 11.5936 18.9812 14.7874 17.5364 17.9813C17.521 18.015 17.4863 18.04 17.4035 18.1343Z" fill="#18232E"/>
<path d="M4.46003 11.675C6.11164 15.3398 7.76314 19.0047 9.43421 22.7126C6.41202 21.4662 3.07913 17.0299 4.46003 11.675Z" fill="#18232E"/>
<path d="M23.5684 11.5974C24.7887 16.066 22.4127 20.9318 18.5411 22.7277C20.2339 18.98 21.878 15.3396 23.5684 11.5974Z" fill="#18232E"/>
<path d="M16.7435 4.47073C15.8256 6.50309 14.9301 8.48597 13.9891 10.5696C13.0471 8.48478 12.1539 6.50796 11.2382 4.48129C13.0852 3.933 14.876 3.94653 16.7435 4.47073Z" fill="#18232E"/>
<path d="M11.3132 23.4547C12.1862 21.5197 13.0594 19.5837 13.9877 17.5259C14.9091 19.5689 15.7892 21.5198 16.6694 23.4715C15.373 24.0446 12.3293 24.0225 11.3132 23.4547Z" fill="#18232E"/>
</g>
<defs>
<clipPath id="clip0_630_14514">
<rect width="28" height="28" fill="white"/>
</clipPath>
</defs>
</svg>
