<svg width="28" height="28" viewBox="0 0 28 28" fill="none" xmlns="http://www.w3.org/2000/svg">
<path d="M23.6086 15.1654C23.6225 15.1491 23.6458 15.1189 23.6722 15.0916C24.1045 14.6449 24.1443 14.0816 23.7729 13.5772C23.496 13.2013 23.132 12.9252 22.7288 12.6989C21.7443 12.1464 20.6831 11.8108 19.5792 11.6035C18.9893 11.4923 18.3995 11.3734 17.8048 11.2975C17.1485 11.2139 16.4876 11.1575 15.8269 11.1228C15.1126 11.0851 14.3957 11.0664 13.6806 11.076C13.0146 11.0854 12.3494 11.1426 11.684 11.18C11.6445 11.1873 11.6056 11.1978 11.5679 11.2115L25.955 17.5829C25.8963 17.6289 25.8616 17.6585 25.8244 17.6844C24.5043 18.6068 23.0548 19.244 21.5063 19.6753C20.327 20.0021 19.1233 20.2333 17.9068 20.3668C17.196 20.4469 16.483 20.5174 15.769 20.55C14.7345 20.5973 13.6979 20.6361 12.6629 20.6211C11.9497 20.611 11.2359 20.5209 10.5267 20.4365C9.41298 20.3038 8.30994 20.093 7.22572 19.8057C5.87937 19.4492 4.57601 18.9774 3.3402 18.3318C2.56048 17.9238 1.83337 17.4365 1.20399 16.8161C0.762056 16.3808 0.394626 15.8913 0.18234 15.3011C-0.147973 14.383 -0.0187318 13.5125 0.482745 12.6915C0.637621 12.4376 0.827745 12.2057 0.995972 11.9599C1.05418 11.8752 1.10839 11.8739 1.19651 11.9134C2.21976 12.371 3.24399 12.8267 4.26919 13.2803C4.30898 13.298 4.3461 13.322 4.40004 13.3517C4.36692 13.4032 4.34182 13.4481 4.31165 13.4887C3.89082 14.0536 3.93007 14.6748 4.42006 15.1817C4.87081 15.6482 5.42515 15.9597 6.01155 16.2136C7.16297 16.7116 8.37314 17.0052 9.61134 17.1754C10.3895 17.2823 11.1729 17.3766 11.9566 17.4124C13.0488 17.4624 14.1439 17.4616 15.2376 17.4624C15.6381 17.4624 16.0411 17.4066 16.4697 17.374L2.06141 11.0282V10.9748C2.23605 10.8564 2.40614 10.7311 2.58585 10.621C3.78908 9.88115 5.08817 9.36521 6.44253 8.98046C7.69035 8.62589 8.96273 8.39558 10.2485 8.23847C10.8915 8.15965 11.5393 8.11423 12.186 8.06907C12.6555 8.03728 13.127 8.02926 13.5978 8.01563C13.9449 8.00441 14.2921 7.97956 14.6373 7.99533C15.4849 8.03353 16.3324 8.07896 17.1781 8.14469C18.168 8.22164 19.1456 8.38916 20.1154 8.59891C21.4505 8.8864 22.7477 9.28986 23.9934 9.8547C24.8778 10.2555 25.7091 10.7442 26.4482 11.375C26.9903 11.8378 27.452 12.3727 27.739 13.0383C28.1497 13.9908 28.0637 14.9161 27.5652 15.808C27.4141 16.0781 27.2146 16.3212 27.041 16.5793C26.9828 16.6659 26.9203 16.6758 26.8274 16.6346C25.9925 16.2677 25.1568 15.9025 24.3203 15.5392C24.1448 15.4625 23.9697 15.3858 23.798 15.3019C23.7328 15.2685 23.6783 15.2159 23.6086 15.1654Z" fill="black"/>
</svg>
