<svg width="28" height="28" viewBox="0 0 28 28" fill="none" xmlns="http://www.w3.org/2000/svg">
<path d="M26.6267 8C26.7522 8 26.8777 8 27.0026 8.00636C27.7602 8.06419 28.1951 8.75816 27.914 9.4608C27.8267 9.66501 27.7048 9.85262 27.5537 10.0154C25.3134 12.5738 23.0736 15.133 20.8344 17.693C19.9583 18.6952 18.8583 19.2012 17.5276 19.2024C15.2347 19.2024 12.9411 19.207 10.6458 19.2024C9.3504 19.1989 8.26839 18.7079 7.40729 17.7335C7.127 17.4154 6.84807 17.0962 6.57048 16.7758C6.49935 16.6925 6.36981 16.6237 6.42822 16.4866C6.48663 16.3496 6.62715 16.3958 6.7353 16.3958C8.65296 16.3935 10.5706 16.3935 12.4883 16.3958C12.97 16.3958 13.4517 16.3958 13.934 16.3958C14.595 16.3901 15.1635 16.1553 15.6013 15.6597C16.858 14.237 18.1036 12.8051 19.3545 11.3802C19.4569 11.2645 19.5228 11.1425 19.4482 10.9881C19.3794 10.8453 19.2533 10.8187 19.1093 10.8192C18.5796 10.8192 18.0493 10.8192 17.5195 10.8192C12.2292 10.8192 6.93886 10.8206 1.64852 10.8233C1.43917 10.8233 1.29171 10.7759 1.15523 10.6058C0.88458 10.2681 0.59427 9.94484 0.300491 9.6262C0.00671183 9.30755 -0.0863954 8.95652 0.0870963 8.56038C0.266371 8.15094 0.605258 8 1.04304 8C4.99402 8.00424 8.94577 8.00424 12.8983 8H26.6267Z" fill="black"/>
</svg>
