<svg width="28" height="28" viewBox="0 0 28 28" fill="none" xmlns="http://www.w3.org/2000/svg">
<g clip-path="url(#clip0_630_14678)">
<path d="M14.0423 18.8229C12.5672 18.823 11.0921 18.8242 9.61707 18.8224C9.08416 18.8218 8.96905 18.7107 8.9655 18.2071C8.96338 17.9117 8.96713 17.6162 8.96387 17.3209C8.95955 16.9247 8.88036 16.8471 8.46113 16.8465C7.00966 16.8443 5.55818 16.8456 4.1067 16.8456C2.93843 16.8456 1.77017 16.8475 0.6019 16.8447C0.0252053 16.8433 -0.142257 16.5775 0.1219 16.0783C0.935195 14.5415 1.75692 13.0088 2.56554 11.4697C2.75532 11.1084 3.04554 10.9722 3.45024 10.9737C5.07867 10.9796 6.70718 10.9762 8.33568 10.9759C8.93958 10.9758 8.96444 10.9506 8.9648 10.353C8.96494 10.0917 8.96253 9.83022 8.96671 9.56898C8.97365 9.13607 9.11228 9.00184 9.56324 9.00115C10.9675 8.99911 12.3718 9.0004 13.7761 9.0004C15.3573 9.0004 16.9386 8.99952 18.5199 9.00081C19.0326 9.00122 19.1637 9.12925 19.1686 9.6275C19.1715 9.91152 19.1693 10.1956 19.17 10.4797C19.1712 10.9415 19.2074 10.9775 19.7018 10.9777C22.2388 10.9786 24.776 10.9779 27.3131 10.9793C27.4421 10.9794 27.578 10.9717 27.6989 11.0062C27.9986 11.0915 28.0849 11.3722 27.911 11.7024C27.3566 12.7552 26.7959 13.8049 26.2374 14.8556C25.9904 15.3203 25.722 15.7759 25.5011 16.2518C25.2942 16.6972 24.9688 16.8616 24.4703 16.856C22.901 16.8383 21.3315 16.8491 19.762 16.8501C19.1963 16.8504 19.1674 16.8799 19.167 17.4332C19.1668 17.7059 19.172 17.9787 19.1679 18.2513C19.1613 18.6868 19.0261 18.8208 18.5738 18.8217C17.0633 18.8247 15.5528 18.8228 14.0423 18.8229ZM6.5298 15.3343C7.68666 15.3343 8.84352 15.3336 10.0004 15.3346C10.5118 15.335 10.5327 15.3571 10.5337 15.8631C10.5343 16.2155 10.538 16.5679 10.5327 16.9202C10.5286 17.1914 10.6586 17.3129 10.9403 17.3126C13.018 17.3102 15.0956 17.3103 17.1733 17.3131C17.4759 17.3135 17.5987 17.1672 17.597 16.8911C17.5949 16.5501 17.5969 16.2091 17.5977 15.8681C17.599 15.3495 17.6142 15.3342 18.1592 15.3341C20.048 15.3337 21.9368 15.3327 23.8256 15.336C24.0504 15.3364 24.2332 15.3116 24.3504 15.0838C24.7165 14.3715 25.104 13.6695 25.4743 12.9592C25.6175 12.6845 25.5177 12.5278 25.1975 12.4965C25.0922 12.4863 24.9852 12.4922 24.879 12.4922C22.6124 12.4921 20.3459 12.4927 18.0794 12.4916C17.6411 12.4914 17.5938 12.4456 17.5909 12.0215C17.5887 11.6806 17.5989 11.3395 17.5959 10.9986C17.5923 10.597 17.5114 10.5186 17.0978 10.5178C16 10.5158 14.9021 10.5175 13.8043 10.5175C12.8953 10.5176 11.9863 10.5164 11.0773 10.5181C10.5905 10.519 10.5372 10.5737 10.5361 11.0525C10.5354 11.348 10.5363 11.6436 10.5358 11.9391C10.5351 12.4771 10.5165 12.4957 9.95965 12.4954C8.08265 12.4945 6.20557 12.5046 4.32885 12.4825C3.9245 12.4777 3.70611 12.6082 3.54028 12.9539C3.24389 13.5717 2.90393 14.1701 2.58396 14.7775C2.37286 15.1782 2.47295 15.3319 2.95296 15.3329C4.14524 15.3356 5.33752 15.3339 6.5298 15.3343Z" fill="#18232E"/>
</g>
<defs>
<clipPath id="clip0_630_14678">
<rect width="28" height="28" fill="white"/>
</clipPath>
</defs>
</svg>
