<svg width="28" height="28" viewBox="0 0 28 28" fill="none" xmlns="http://www.w3.org/2000/svg">
<g clip-path="url(#clip0_630_14524)">
<path d="M13.5179 20.9985C9.80912 20.8437 6.38208 20.2443 3.33406 18.3332C2.5532 17.8437 1.82193 17.2172 1.21607 16.5269C-0.410661 14.6733 -0.390563 12.4001 1.18762 10.5105C2.45953 8.98757 4.13491 8.02588 5.98788 7.4066C12.0548 5.37925 18.0526 5.44179 23.876 8.26096C24.8383 8.72684 25.7327 9.42862 26.4927 10.1841C28.4944 12.1742 28.4879 14.7453 26.5594 16.8088C24.968 18.5117 22.9052 19.4203 20.7099 20.075C18.3109 20.7904 15.8457 21.0211 13.5179 20.9985ZM13.734 20.0874C16.3954 20.0821 18.7348 19.7847 20.9993 19.0326C22.6822 18.4737 24.2645 17.7275 25.5299 16.4492C27.3146 14.6461 27.3236 12.4442 25.5534 10.6362C24.526 9.58689 23.2745 8.87084 21.9073 8.36737C17.0615 6.58264 12.1557 6.5266 7.22453 7.98515C5.48439 8.49988 3.86953 9.28056 2.56566 10.5738C0.721031 12.4033 0.684127 14.6533 2.56131 16.4532C3.27941 17.1418 4.14196 17.7324 5.03342 18.1865C7.84109 19.6172 10.889 20.0496 13.734 20.0874Z" fill="#18232E"/>
<path d="M21.6971 13.8996C21.6173 13.6445 21.5049 13.3945 21.4641 13.1334C21.3609 12.4726 20.9284 12.2872 20.3195 12.1965C18.2901 11.8947 16.3005 12.2715 14.3001 12.4773C13.7362 12.5354 13.1758 12.6262 12.6132 12.6966C11.7459 12.805 11.1795 13.2446 10.9565 14.1023C10.724 14.9963 10.467 15.8842 10.1043 16.8079C10.0421 16.6285 9.96798 16.4521 9.91991 16.269C9.72399 15.5224 9.5477 14.7708 9.34202 14.0269C9.1374 13.2871 8.66423 12.8417 7.86608 12.7364C6.29612 12.5296 4.72922 12.301 3.16126 12.0797C2.91304 12.0446 2.66599 12.0012 2.41836 11.9617C2.41436 11.9112 2.41025 11.8608 2.40625 11.8104C3.12001 11.7056 3.83341 11.599 4.5474 11.4966C5.63079 11.3414 6.71559 11.1952 7.79803 11.0335C8.60429 10.9131 9.14633 10.4819 9.3962 9.69495C9.60905 9.02427 9.85468 8.36369 10.2233 7.69092C10.3954 8.20959 10.6003 8.72026 10.733 9.24856C11.0107 10.355 11.675 10.963 12.8465 11.0828C14.5775 11.26 16.2985 11.5488 18.0323 11.6776C18.8973 11.7419 19.7906 11.6077 20.6517 11.4558C20.9501 11.4031 21.2231 11.053 21.4445 10.7875C21.5929 10.6095 21.6303 10.341 21.745 10.0407C21.8306 10.1622 21.8946 10.2136 21.9052 10.2742C22.0766 11.2489 22.7343 11.5807 23.6554 11.6181C24.0305 11.6333 24.4019 11.7392 24.7751 11.8039C24.7749 11.8533 24.7747 11.9027 24.7746 11.9522C24.3445 12.032 23.9165 12.1645 23.484 12.1804C22.6411 12.2114 22.1177 12.5518 21.997 13.4123C21.9742 13.5747 21.8825 13.7276 21.8226 13.8849C21.7809 13.8898 21.739 13.8947 21.6971 13.8996Z" fill="#18232E"/>
<path d="M19.6431 18.8267C19.5778 18.7818 19.5496 18.7726 19.5474 18.7594C19.3605 17.6096 18.4742 17.4309 17.5451 17.4453C16.5727 17.4604 15.5969 17.5623 14.6351 17.7072C14.4015 17.7424 14.1628 18.0654 14.0241 18.3101C13.8609 18.5981 13.8041 18.9449 13.5808 19.2606C13.4926 18.9928 13.3799 18.7301 13.3216 18.4561C13.2102 17.932 12.9169 17.6681 12.3641 17.6167C11.7116 17.556 11.0652 17.4321 10.4161 17.3356C10.4167 17.277 10.4172 17.2185 10.4178 17.1599C10.8716 17.095 11.3244 16.9839 11.7794 16.9751C12.6914 16.9577 13.33 16.647 13.4772 15.6761C13.4878 15.6061 13.5532 15.5442 13.64 15.4009C13.738 15.6184 13.8363 15.7745 13.8798 15.9443C14.034 16.5459 14.4162 16.8859 15.0394 16.9037C16.0893 16.9336 17.1402 16.9415 18.1905 16.9406C18.8698 16.94 19.2749 16.589 19.4126 15.9301C19.4338 15.829 19.498 15.7366 19.5633 15.5947C19.6495 15.6962 19.7312 15.7476 19.7377 15.8068C19.8385 16.7435 20.5204 16.8908 21.2885 16.9514C21.7222 16.9856 22.1522 17.0646 22.5839 17.1234C22.5825 17.1747 22.5812 17.226 22.5798 17.2774C22.0929 17.3541 21.6075 17.4805 21.1185 17.4959C20.3533 17.52 19.9228 17.873 19.7699 18.5972C19.7551 18.6673 19.6987 18.7287 19.6431 18.8267Z" fill="#18232E"/>
<path d="M17.6763 16.5915C17.5707 16.264 17.4455 15.941 17.3644 15.6077C17.2689 15.2148 17.0279 15.0228 16.6355 14.9669C15.9293 14.8665 15.2247 14.7542 14.5194 14.6468C14.5184 14.5873 14.5176 14.5279 14.5167 14.4683C14.8923 14.4114 15.2669 14.3148 15.6437 14.3052C16.6197 14.2804 17.4319 14.0669 17.5977 12.9304C17.6066 12.8693 17.683 12.8178 17.7403 12.7466C18.0845 14.2957 19.3335 14.3211 20.516 14.3637C21.151 14.3865 21.8002 14.2728 22.4268 14.1439C22.6476 14.0984 22.8497 13.8469 23.0057 13.6475C23.141 13.4746 23.1989 13.2427 23.3695 12.9797C23.6122 14.4763 24.9327 14.1452 25.9984 14.5396C25.6772 14.62 25.508 14.672 25.3349 14.7031C25.1621 14.7342 24.9858 14.7464 24.8106 14.7634C24.1135 14.8309 23.6313 15.131 23.5381 15.8772C23.523 15.9991 23.4443 16.1131 23.3675 16.2965C23.2847 16.1346 23.2022 16.0401 23.1892 15.9371C23.0798 15.0756 22.504 14.7555 21.721 14.7847C20.7107 14.8222 19.699 14.9049 18.698 15.041C18.4827 15.0702 18.2556 15.3825 18.1329 15.6151C17.9764 15.912 17.9203 16.2606 17.8209 16.5868C17.7729 16.5884 17.7246 16.5899 17.6763 16.5915Z" fill="#18232E"/>
</g>
<defs>
<clipPath id="clip0_630_14524">
<rect width="28" height="28" fill="white"/>
</clipPath>
</defs>
</svg>
