<svg width="29" height="29" viewBox="0 0 29 29" fill="none" xmlns="http://www.w3.org/2000/svg">
<path d="M0.828581 14.3724C0.772628 12.5252 1.08892 10.6856 1.75863 8.96321C2.42833 7.24079 3.43776 5.67072 4.72682 4.34648C6.01588 3.02224 7.5582 1.97092 9.26198 1.25509C10.9658 0.539255 12.7961 0.173558 14.6442 0.179765C16.4922 0.185973 18.3201 0.563959 20.019 1.29122C21.718 2.01848 23.2532 3.08015 24.5333 4.41301C25.8134 5.74588 26.8123 7.32269 27.4704 9.04958C28.1285 10.7765 28.4325 12.6181 28.3641 14.4649C28.3641 22.0277 21.9919 28.215 14.5235 28.1795C7.05517 28.1441 0.692793 21.886 0.828581 14.3724ZM14.5944 1.78935C7.618 1.74999 1.96802 7.4964 1.95425 14.3842C1.98935 17.7078 3.33273 20.8837 5.69328 23.2236C8.05382 25.5636 11.2414 26.8791 14.5651 26.885C17.8889 26.891 21.0811 25.5869 23.4501 23.2554C25.819 20.924 27.1737 17.7529 27.2207 14.4295C27.2325 7.4964 21.5629 1.75786 14.5944 1.78935Z" fill="black"/>
<path d="M6.83082 14.3488C5.05967 15.8799 3.98714 17.7415 3.40069 19.9181C2.46788 16.3758 3.07598 13.1562 5.45129 10.3735C7.82661 7.59086 10.9064 6.477 14.5255 6.75645C14.0611 6.02634 12.3608 4.51102 9.54069 3.55263C9.73916 3.43141 9.95205 3.33554 10.1744 3.26728C11.6782 3.03174 13.216 3.14486 14.6692 3.59789C17.8769 4.58187 20.0987 6.66396 21.3956 9.72608C22.008 11.1842 22.2572 12.7692 22.1218 14.3449C22.1218 14.4295 22.1218 14.5141 22.1218 14.6932C22.9731 13.9592 23.7036 13.0959 24.2865 12.1349C24.8278 11.1857 25.2527 10.1748 25.5519 9.12389C26.4709 12.5934 25.9081 15.7874 23.6135 18.5464C21.2106 21.4413 18.0501 22.6181 14.2264 22.2442C14.5747 21.8506 14.8915 21.5082 15.1671 21.1461C17.2196 18.45 17.9517 15.439 17.3318 12.0935C16.9774 10.3132 16.1968 8.64532 15.0568 7.23269C14.8994 7.0359 14.7833 7.0359 14.6003 7.22088C13.1023 8.75133 12.0733 10.6783 11.6346 12.7744C11.3908 13.8506 11.3243 14.9594 11.4378 16.057C11.8629 19.7528 13.6498 22.624 16.8359 24.5743C17.5207 24.9934 18.2803 25.2886 19.0715 25.6724C18.9567 25.7244 18.8375 25.7659 18.7153 25.7964C16.2518 26.1362 13.7476 25.5909 11.6485 24.2576C9.54934 22.9242 7.9914 20.8893 7.25196 18.5149C6.84731 17.2672 6.71314 15.9476 6.85838 14.644C6.85653 14.545 6.84732 14.4464 6.83082 14.3488Z" fill="black"/>
</svg>
