<svg width="28" height="28" viewBox="0 0 28 28" fill="none" xmlns="http://www.w3.org/2000/svg">
<g clip-path="url(#clip0_630_14589)">
<path d="M13.9992 7C15.1399 7.09114 16.283 7.15858 17.4206 7.27899C19.1212 7.459 20.7775 7.84908 22.3799 8.44727C23.8097 8.98101 25.1561 9.66693 26.2935 10.7023C27.0328 11.3754 27.6274 12.1483 27.8797 13.1386C28.1571 14.2279 27.945 15.2326 27.3433 16.1658C26.7065 17.1532 25.8167 17.8732 24.8243 18.4761C23.2118 19.4557 21.4472 20.044 19.6139 20.4487C18.4836 20.6981 17.3419 20.8833 16.1856 20.9405C15.2983 20.9844 14.408 20.9677 13.5196 20.9935C12.1113 21.0345 10.7206 20.8758 9.33817 20.6362C7.47631 20.3133 5.67596 19.7897 3.98627 18.9307C3.02945 18.4443 2.14058 17.8592 1.38909 17.0857C0.777379 16.456 0.29703 15.7439 0.0983655 14.8798C-0.135395 13.8629 0.0541714 12.9095 0.595844 12.0202C1.09412 11.2021 1.779 10.5626 2.55622 10.0192C3.84493 9.11823 5.2741 8.51292 6.77647 8.06071C7.8723 7.73087 8.98572 7.47888 10.1188 7.3345C11.0458 7.2164 11.9809 7.15691 12.9137 7.08879C13.2723 7.06263 13.6345 7.08451 13.995 7.08451C13.9964 7.05638 13.9978 7.02821 13.9992 7ZM14.0242 20.1516C15.5816 20.1856 17.0815 20.0288 18.5688 19.7367C20.0999 19.4361 21.5789 18.9826 22.9678 18.2635C24.0001 17.729 24.9263 17.0628 25.6387 16.1306C26.6125 14.8563 26.6144 13.2634 25.6534 11.9852C25.0508 11.1838 24.2837 10.5764 23.4237 10.0782C22.3923 9.4806 21.2884 9.04875 20.1429 8.7261C18.2844 8.20255 16.3825 7.95851 14.4546 7.92636C13.7407 7.91447 13.0251 7.94825 12.3115 7.98517C11.1866 8.04336 10.0738 8.20444 8.97465 8.44878C7.49009 8.77881 6.05452 9.24746 4.72501 9.99798C3.70207 10.5754 2.77597 11.2665 2.1493 12.2849C1.50652 13.3294 1.42693 14.415 1.9841 15.515C2.52394 16.5808 3.41616 17.3111 4.41824 17.9177C5.77512 18.739 7.25568 19.2609 8.7954 19.6076C10.5273 19.9976 12.2842 20.1998 14.0242 20.1516Z" fill="#18232E"/>
<path d="M4.94922 10.8923C4.94922 10.7598 4.94922 10.6419 4.94922 10.4931C5.28972 10.4931 5.6226 10.4932 5.95552 10.4931C6.31688 10.493 6.67835 10.4975 7.03955 10.4903C7.1968 10.4872 7.25078 10.5471 7.24964 10.7022C7.24465 11.3642 7.24743 12.0262 7.25085 12.6882C7.25131 12.7795 7.27118 12.8707 7.28203 12.9619C7.29904 12.9717 7.31606 12.9814 7.33307 12.9912C7.39112 12.9365 7.45983 12.8894 7.50563 12.8259C8.02206 12.1105 8.53705 11.394 9.0469 10.6739C9.13651 10.5474 9.24145 10.493 9.396 10.4942C9.95396 10.4982 10.512 10.4914 11.0699 10.4955C11.1364 10.496 11.2378 10.5215 11.2592 10.5658C11.2829 10.6149 11.2503 10.7104 11.2129 10.7662C10.5946 11.6866 9.96607 12.6003 9.35283 13.5241C9.13727 13.8488 9.11983 13.7469 9.37046 14.1033C10.1136 15.1599 10.8586 16.2152 11.6023 17.2714C11.6347 17.3176 11.6877 17.3715 11.6825 17.4163C11.676 17.4725 11.6199 17.5687 11.5841 17.5692C10.9278 17.5779 10.2712 17.5822 9.61514 17.5656C9.52683 17.5634 9.4196 17.4593 9.3582 17.3755C8.72506 16.5116 8.1004 15.6414 7.46973 14.7757C7.43456 14.7273 7.3673 14.7021 7.31496 14.6662C7.29341 14.7283 7.25344 14.7904 7.25306 14.8527C7.24792 15.6724 7.24758 16.4921 7.24785 17.3118C7.24792 17.5775 7.24979 17.5772 6.99205 17.5768C6.54116 17.5762 6.09031 17.577 5.63942 17.5765C5.35363 17.5762 5.34837 17.5705 5.34815 17.2951C5.34659 15.3025 5.34571 13.3098 5.34274 11.3171C5.34213 10.9245 5.40064 10.9212 4.94922 10.8923Z" fill="#18232E"/>
<path d="M19.7284 12.9607C19.6904 13.0646 19.6489 13.1673 19.615 13.2725C19.1833 14.6106 18.7532 15.9492 18.3213 17.2872C18.2303 17.5692 18.2276 17.573 17.9263 17.5757C17.4531 17.5798 16.9798 17.5802 16.5066 17.5751C16.2995 17.5728 16.2803 17.5382 16.3494 17.3318C16.9888 15.4226 17.6294 13.5138 18.2688 11.6045C18.3186 11.4556 18.3631 11.3048 18.4071 11.154C18.4698 10.9395 18.4495 10.9131 18.2271 10.9063C18.1897 10.9052 18.1523 10.9028 18.1056 10.9006C18.0956 10.7705 18.0861 10.6477 18.0753 10.507C18.1358 10.5017 18.1894 10.493 18.243 10.4931C19.0611 10.494 19.8791 10.4992 20.6972 10.495C20.8492 10.4942 20.9219 10.5461 20.97 10.6907C21.4846 12.2379 22.006 13.7829 22.5245 15.3289C22.7416 15.9763 22.9557 16.6246 23.1718 17.2722C23.2693 17.5647 23.2701 17.5715 22.9667 17.5753C22.4896 17.5813 22.0124 17.5736 21.5353 17.5788C21.3786 17.5805 21.2981 17.522 21.2488 17.3689C20.7983 15.9707 20.3409 14.5745 19.8838 13.1784C19.8585 13.101 19.8177 13.0288 19.784 12.9541C19.7655 12.9563 19.7469 12.9585 19.7284 12.9607Z" fill="#18232E"/>
<path d="M12.6337 10.8947C12.6337 10.7631 12.6337 10.6408 12.6337 10.5058C12.6971 10.5009 12.7523 10.4931 12.8074 10.493C13.4544 10.4922 14.1015 10.497 14.7484 10.4895C14.9254 10.4875 14.9761 10.5502 14.9757 10.7228C14.9708 12.937 14.9717 15.1513 14.9743 17.3654C14.9745 17.4972 14.9616 17.5813 14.7951 17.5791C14.274 17.5723 13.7526 17.5732 13.2315 17.5794C13.0875 17.5811 13.0297 17.5411 13.0295 17.3873C13.0264 15.4275 13.0177 13.4678 13.0105 11.508C13.0101 11.3944 13.0109 11.2808 13.0106 11.1673C13.0098 10.9245 13.0025 10.9175 12.7524 10.9064C12.7157 10.9047 12.6793 10.8992 12.6337 10.8947Z" fill="#18232E"/>
</g>
<defs>
<clipPath id="clip0_630_14589">
<rect width="28" height="28" fill="white"/>
</clipPath>
</defs>
</svg>
