<svg width="28" height="28" viewBox="0 0 28 28" fill="none" xmlns="http://www.w3.org/2000/svg">
<path d="M13.9858 25.9886C13.1215 25.9889 12.2562 25.9655 11.3933 25.9986C10.9533 26.0155 10.6884 25.8778 10.4763 25.5137C8.70448 22.4718 6.91479 19.4393 5.14247 16.3976C4.79643 15.8037 4.52432 15.1706 4.17698 14.5774C3.95178 14.1929 3.93701 13.858 4.15852 13.4691C5.96238 10.3008 7.74937 7.12379 9.55582 3.9568C9.88031 3.38793 10.2519 2.84065 10.6422 2.31049C10.7536 2.15928 11.0066 2.0193 11.1965 2.01702C13.0744 1.99486 14.9528 1.99429 16.8307 2.01559C17.0194 2.01778 17.2796 2.15928 17.3824 2.3121C19.831 5.95182 21.9814 9.74978 23.9301 13.6517C24.032 13.8558 24.0191 14.1914 23.9137 14.3982C21.9696 18.2138 19.8554 21.9417 17.5166 25.5527C17.3081 25.8747 17.0781 26.0088 16.678 25.9968C15.7815 25.9699 14.8834 25.9884 13.9858 25.9886ZM16.8314 2.29518C14.8904 2.29518 13.0636 2.28795 11.2372 2.3083C11.0838 2.31001 10.8846 2.46721 10.7888 2.60433C10.4122 3.14363 10.0408 3.68948 9.71716 4.25854C7.98685 7.30124 6.26641 10.3492 4.55565 13.4019C4.25571 13.937 4.32456 14.0144 4.95289 14.0149C6.23219 14.0157 7.51229 13.9904 8.79049 14.0263C9.37192 14.0426 9.69751 13.8204 9.9771 13.3586C11.5693 10.7292 13.1806 8.11023 14.7964 5.49384C15.4418 4.44854 16.1153 3.41884 16.8314 2.29518ZM23.5603 14.015C23.6027 13.9664 23.645 13.9178 23.6874 13.8692C21.7646 9.91135 19.5585 6.10017 17.0712 2.35537C16.2193 3.97715 15.4017 5.51295 14.6143 7.06264C14.5298 7.22878 14.5453 7.51616 14.6415 7.67915C15.805 9.64965 16.9925 11.6075 18.174 13.5684C18.3645 13.8845 18.6394 14.025 19.0342 14.0206C20.3136 14.006 21.5932 14.0151 22.8728 14.0151C23.1019 14.015 23.3311 14.015 23.5603 14.015ZM14.0253 8.35187C13.8624 8.58961 13.7681 8.7139 13.688 8.84608C12.7571 10.38 11.8402 11.9219 10.8904 13.445C10.6621 13.8112 10.6813 14.0914 10.9007 14.4467C11.8526 15.9875 12.7784 17.5431 13.716 19.092C13.7934 19.2197 13.8891 19.3372 14.0042 19.4987C14.1092 19.3661 14.1754 19.2984 14.2228 19.2203C15.2203 17.5773 16.2274 15.9391 17.1955 14.2804C17.305 14.0928 17.2813 13.7412 17.1683 13.5445C16.4823 12.3517 15.7531 11.1815 15.037 10.0044C14.7232 9.48846 14.4065 8.97427 14.0253 8.35187ZM9.56799 14.1513C9.66518 14.3378 9.73393 14.4934 9.82323 14.6375C10.9704 16.4888 12.1085 18.3454 13.2791 20.1831C13.5362 20.5868 13.5515 20.9147 13.3194 21.3241C12.5861 22.6173 11.88 23.9245 11.1712 25.2301C11.1035 25.3547 11.0897 25.5058 11.0508 25.6446C11.0952 25.6577 11.1394 25.6708 11.1837 25.6839C13.8858 21.9958 16.1 18.0287 18.4979 14.1374C18.0103 13.9909 17.7494 14.1007 17.5302 14.4741C16.5178 16.1981 15.4788 17.9079 14.4441 19.6199C14.3429 19.7874 14.2067 19.9358 14.0447 20.1481C13.8854 19.9238 13.7675 19.7749 13.6685 19.6156C12.596 17.8878 11.5198 16.1619 10.4619 14.426C10.2594 14.0935 10.0245 13.9779 9.56799 14.1513Z" fill="#18232E"/>
</svg>
