<svg width="28" height="28" viewBox="0 0 28 28" fill="none" xmlns="http://www.w3.org/2000/svg">
<g clip-path="url(#clip0_630_14622)">
<path d="M21.0177 0.986868C21.0182 0.886541 20.9986 0.787093 20.96 0.694225C20.9213 0.601357 20.8643 0.516896 20.7923 0.445682C20.6456 0.303103 20.4475 0.223038 20.2411 0.222841C18.1333 0.0795861 15.891 0 13.5126 0C11.1616 0 8.93877 0.0795861 6.84887 0.222841C6.74653 0.222244 6.64508 0.241639 6.55045 0.279896C6.45581 0.318153 6.36987 0.374509 6.29762 0.445682C6.15135 0.589187 6.06912 0.783852 6.06901 0.986868C6.03821 2.49901 6.022 4.02706 6.00092 5.57103C5.98795 7.99045 6.02037 10.3621 6.06901 12.702C6.06901 14.2459 6.23115 15.583 6.29762 16.6494C6.38096 17.9735 6.60318 19.2857 6.96075 20.5651C7.54605 22.0772 7.87031 22.9208 8.61451 24.2738C9.16602 25.2577 9.78405 26.2042 10.4644 27.107C10.629 27.3236 10.8391 27.5027 11.0806 27.6323C11.2995 27.7408 11.5341 27.816 11.7761 27.8552C12.3076 27.9402 12.8445 27.9881 13.3828 27.9984C14.0238 28.013 14.6647 27.965 15.296 27.8552C15.5165 27.8279 15.7304 27.7633 15.9283 27.6641C16.1335 27.5565 16.3153 27.4105 16.4634 27.2344C17.1276 26.3024 17.7393 25.3353 18.2955 24.3374C19.0397 22.9845 19.3964 22.4433 20.0789 20.5651C20.4989 18.9733 20.5799 18.1297 20.7421 16.729C20.9084 15.4512 21.0004 14.1651 21.0177 12.877C21.0988 10.7123 21.1474 8.46797 21.1328 6.14405C21.1328 4.39316 21.0842 2.67409 21.0177 0.986868ZM20.387 12.893C20.3546 13.9912 20.2881 15.201 20.126 16.5062C19.9638 17.8114 19.7547 19.0211 19.5115 20.1035C19.0539 21.3189 18.5066 22.4999 17.8739 23.6371C17.3628 24.5738 16.7999 25.4825 16.1877 26.3589C16.0519 26.5302 15.8806 26.6712 15.6851 26.7728C15.5045 26.8731 15.3057 26.938 15.0998 26.9638C14.5221 27.0603 13.9363 27.1029 13.3504 27.0911C12.856 27.0861 12.3627 27.0435 11.875 26.9638C11.6515 26.9402 11.4359 26.8697 11.2427 26.7569C11.0202 26.639 10.8305 26.4696 10.6898 26.2634C10.0634 25.4151 9.49468 24.5271 8.98741 23.6053C8.38894 22.4855 7.88465 21.3197 7.47957 20.1194C7.20533 18.9059 7.00019 17.6784 6.86509 16.4425C6.73002 15.2106 6.65805 13.9728 6.64945 12.7338C6.59973 10.5372 6.58298 8.30879 6.59919 6.04855C6.59919 4.60008 6.61702 3.15161 6.64783 1.73498C6.648 1.6402 6.66729 1.5464 6.70458 1.45897C6.74186 1.37155 6.79642 1.29224 6.86509 1.22563C6.9305 1.16032 7.00847 1.1084 7.09446 1.07288C7.18046 1.03736 7.27278 1.01895 7.36608 1.0187C9.40031 0.881815 11.4378 0.81284 13.4785 0.811779C15.6527 0.811779 17.7102 0.891365 19.6396 1.0187C19.7333 1.01745 19.8263 1.03518 19.9128 1.07078C19.9993 1.10638 20.0774 1.15909 20.1422 1.22563C20.2767 1.36236 20.3522 1.54486 20.353 1.73498C20.4178 3.31078 20.4502 4.91842 20.4502 6.58973C20.4989 8.73856 20.4681 10.8556 20.387 12.893Z" fill="black"/>
<path d="M13.2045 26.8842H13.9649L14.0946 1.95782H13.0586L13.2045 26.8842ZM8.19458 2.13291C8.07664 2.1633 7.96982 2.22571 7.88637 2.31299C7.80291 2.40026 7.74621 2.50887 7.72277 2.62634L8.03245 10.3303C8.0638 10.694 8.11794 11.0555 8.19458 11.4127C8.40535 12.1608 8.95661 12.5746 10.1078 14.421C10.4644 14.9781 11.648 16.4584 11.7437 17.8114C11.8734 19.7692 11.9723 23.5893 12.1166 26.8842H12.4733L12.3111 1.95782L8.19458 2.13291ZM18.9278 2.13291L14.8096 1.95782L14.6475 26.8842H15.0042C15.1485 23.5893 15.2474 19.7692 15.3771 17.8114C15.4744 16.4425 16.6579 14.9781 17.013 14.421C18.1609 12.5746 18.7008 12.1608 18.9278 11.4127C19.0033 11.0553 19.0574 10.6939 19.0899 10.3303L19.3964 2.62634C19.3964 2.43534 19.1207 2.13291 18.9278 2.13291Z" fill="black"/>
</g>
<defs>
<clipPath id="clip0_630_14622">
<rect width="15.1351" height="28" fill="white" transform="translate(6)"/>
</clipPath>
</defs>
</svg>
