<svg width="28" height="28" viewBox="0 0 28 28" fill="none" xmlns="http://www.w3.org/2000/svg">
<path d="M25.8792 6.65734C25.8792 7.09078 25.877 7.4903 25.8795 7.88983C25.9044 11.944 25.9579 15.9983 25.9421 20.0523C25.9355 21.7233 25.7864 23.394 25.6888 25.0641C25.665 25.4713 25.599 25.8771 25.5334 26.2805C25.4539 26.7702 25.1534 27.101 24.6785 27.1945C23.8166 27.3641 22.9492 27.5219 22.0767 27.6178C17.8632 28.0811 13.6365 28.0597 9.40956 27.8856C8.19298 27.8355 6.98026 27.6823 5.76729 27.5611C5.39628 27.524 5.02396 27.4602 4.66363 27.3655C4.13417 27.2263 3.82946 26.8347 3.7731 26.314C3.58859 24.6086 3.35756 22.9028 3.29137 21.1914C3.1617 17.8381 3.12758 14.4811 3.06149 11.1254C3.03605 9.8353 3.03721 8.54467 3.01177 7.25457C3.00712 7.01773 3.07734 6.94384 3.30659 6.96995C4.44055 7.0991 5.57572 7.21736 6.70946 7.34797C7.15012 7.39873 7.59131 7.45587 8.02663 7.53923C8.45692 7.6216 8.56624 7.78366 8.60705 8.21736C8.75792 9.82165 8.91668 11.4251 9.07131 13.0291C9.19167 14.2778 9.30386 15.5273 9.43175 16.7753C9.52579 17.6931 9.64033 18.6088 9.74316 19.5257C9.76351 19.7071 9.74661 19.8965 9.7913 20.0707C9.88015 20.4174 10.1499 20.6321 10.5191 20.638C12.1922 20.6647 13.8657 20.702 15.5387 20.6917C16.5399 20.6855 17.5406 20.599 18.5415 20.5477C19.059 20.5212 19.3145 20.2762 19.3599 19.7578C19.4193 19.0809 19.4784 18.4038 19.5313 17.7263C19.6425 16.3018 19.7561 14.8774 19.8565 13.452C19.9845 11.6357 20.1002 9.81851 20.2218 8.00176C20.2471 7.62489 20.3836 7.43871 20.7604 7.36964C21.6858 7.19999 22.6136 7.04201 23.5435 6.8992C24.1805 6.80135 24.8224 6.73458 25.4626 6.65933C25.5815 6.64536 25.7036 6.65734 25.8792 6.65734ZM16.3078 24.1269C16.4406 24.2252 16.5105 24.272 16.5751 24.3254C16.8973 24.5918 17.2425 24.8363 17.5331 25.1339C17.864 25.4726 18.2454 25.5278 18.6789 25.4799C18.8557 25.4603 18.948 25.3963 18.9434 25.2038C18.926 24.4716 18.9269 23.7389 18.9003 23.0071C18.8808 22.4712 18.8663 22.4717 18.3233 22.4823C17.7975 22.4925 17.7983 22.4925 17.8016 23.0246C17.8035 23.3248 17.802 23.6249 17.802 23.9552C17.7268 23.9149 17.6702 23.8954 17.6271 23.8597C17.2919 23.5815 16.9678 23.2892 16.6234 23.0232C16.3041 22.7767 16.0501 22.4075 15.548 22.4906C15.2439 22.541 15.1709 22.5697 15.1737 22.8907C15.179 23.5096 15.182 24.1287 15.2044 24.7471C15.236 25.616 15.0805 25.5119 16.0315 25.5053C16.2485 25.5038 16.3189 25.4051 16.311 25.1963C16.2987 24.8679 16.3078 24.5388 16.3078 24.1269ZM23.5962 25.3289C23.6147 25.2966 23.6332 25.2643 23.6517 25.232C23.13 24.7438 22.6084 24.2557 22.0586 23.7411C22.6395 23.2763 23.3205 23.005 23.8378 22.4712C23.7723 22.4363 23.7436 22.4078 23.7142 22.4073C23.0262 22.3942 22.3229 22.2771 21.7393 22.8152C21.5425 22.9967 21.2848 23.1122 21.0289 23.2744C21.0078 23.1818 20.9912 23.1415 20.9905 23.1009C20.9775 22.3523 21.0609 22.4166 20.1981 22.4243C19.9686 22.4264 19.8707 22.5253 19.8769 22.7602C19.8938 23.4042 19.8864 24.049 19.9098 24.6927C19.9414 25.5665 19.8017 25.4425 20.7472 25.4461C20.953 25.4469 21.0276 25.3443 21.0246 25.1562C21.0217 24.9736 21.0043 24.7897 21.0202 24.6088C21.0416 24.3646 21.2313 24.2896 21.4171 24.4488C21.6549 24.6524 21.9042 24.8488 22.1106 25.0818C22.5551 25.5837 23.0793 25.4023 23.5962 25.3289ZM13.6754 25.5152C13.8559 25.5152 14.013 25.5213 14.1693 25.5135C14.3389 25.505 14.3876 25.4152 14.2962 25.2704C13.7526 24.4091 13.2097 23.5473 12.6564 22.6922C12.6022 22.6084 12.4828 22.5249 12.3872 22.5168C11.837 22.4702 11.2667 22.4047 11.0368 23.1042C11.0315 23.1203 11.019 23.1341 11.01 23.149C10.5886 23.8494 10.1636 24.5476 9.74797 25.2514C9.62322 25.4627 9.66263 25.5239 9.90752 25.5357C10.1076 25.5453 10.3097 25.5273 10.5086 25.5461C10.7766 25.5715 10.9529 25.4815 11.0717 25.231C11.1418 25.0831 11.2176 24.9124 11.4447 24.9175C11.8193 24.926 12.1948 24.905 12.5688 24.9208C12.6614 24.9248 12.7928 25.0009 12.833 25.0808C13.0179 25.4478 13.2841 25.623 13.6754 25.5152ZM7.74656 22.5825C7.74656 22.5866 7.74656 22.5907 7.74656 22.5948C7.14484 22.5948 6.54311 22.5931 5.94144 22.5965C5.83804 22.5971 5.72632 22.5999 5.63464 22.6394C5.58262 22.6618 5.52312 22.7704 5.53595 22.8236C5.66174 23.3452 5.89345 23.5212 6.42286 23.5201C6.57111 23.5198 6.71988 23.5281 6.8675 23.5183C7.06818 23.5049 7.14777 23.5823 7.14411 23.7892C7.13568 24.2599 7.15551 24.7312 7.14421 25.2018C7.13809 25.4557 7.24636 25.5491 7.4856 25.5394C7.65101 25.5326 7.81747 25.5303 7.98246 25.541C8.21585 25.556 8.31166 25.4696 8.30214 25.2239C8.28356 24.7449 8.29591 24.2647 8.28419 23.7853C8.27958 23.5961 8.34709 23.5134 8.53981 23.5172C8.80124 23.5224 9.0653 23.5326 9.32348 23.5015C9.44342 23.4871 9.56692 23.3967 9.66163 23.3107C9.74201 23.2377 9.78476 23.1226 9.84164 23.0246C10.0357 22.6904 9.98319 22.587 9.60396 22.5839C8.98487 22.5787 8.36572 22.5825 7.74656 22.5825Z" fill="#18232E"/>
<path d="M3.02297 6.00574C3.0146 5.96173 2.999 5.92055 3.00005 5.87973C3.03741 4.43321 3.07436 2.98669 3.11711 1.54033C3.12402 1.30585 3.15426 1.07184 3.18006 0.838294C3.21135 0.554883 3.47273 0.314799 3.75991 0.321183C5.38095 0.357185 7.00167 0.413334 8.6228 0.431963C9.58858 0.443056 10.5559 0.418985 11.5209 0.37393C13.6816 0.273041 15.8405 0.246877 18.0039 0.316526C19.1671 0.353993 20.3352 0.246092 21.5007 0.195438C22.3015 0.160639 23.1017 0.113177 23.9019 0.0679132C24.2149 0.0501739 24.527 0.0172592 24.84 0.00140367C25.245 -0.0191091 25.4873 0.185495 25.5257 0.596013C25.5946 1.33311 25.6627 2.07068 25.7083 2.80946C25.762 3.67905 25.7868 4.55048 25.835 5.42049C25.8456 5.61086 25.8137 5.70385 25.5965 5.72044C24.6594 5.79213 23.7229 5.87334 22.7875 5.96466C21.8688 6.05435 20.9518 6.16099 20.0339 6.25859C19.8868 6.27423 19.732 6.25801 19.5926 6.29789C19.3044 6.38036 19.0194 6.47915 18.7422 6.59312C18.5024 6.69171 18.4408 6.89788 18.4425 7.14906C18.4536 8.91034 18.4604 10.6716 18.4602 12.4329C18.46 14.2288 18.4551 16.0249 18.4407 17.8208C18.4375 18.2207 18.3847 18.6201 18.3576 19.0198C18.3411 19.2623 18.2141 19.3561 17.9728 19.3859C15.7039 19.6659 13.4332 19.6321 11.1593 19.4616C10.8876 19.4412 10.7536 19.3365 10.7314 19.08C10.6586 18.2388 10.5522 17.3984 10.5275 16.5556C10.4585 14.1944 10.4229 11.8321 10.3765 9.47015C10.3616 8.71185 10.3468 7.95346 10.3478 7.19511C10.3481 6.91761 10.2347 6.71364 9.98052 6.66565C9.5755 6.58909 4.83683 6.14053 3.02297 6.00574Z" fill="#18232E"/>
<path d="M11.9786 23.4362C12.1469 23.7036 12.29 23.9309 12.4599 24.2008C12.1226 24.2008 11.8445 24.2008 11.5145 24.2008C11.6757 23.9352 11.8153 23.7052 11.9786 23.4362Z" fill="#18232E"/>
</svg>
