<svg width="28" height="28" viewBox="0 0 28 28" fill="none" xmlns="http://www.w3.org/2000/svg">
<path d="M24.5274 11C24.9776 11.0434 25.5545 11.0422 26.1045 11.1635C27.1573 11.3961 27.8427 12.2432 27.9598 13.3405C28.0232 13.9186 28.0116 14.5025 27.9253 15.0776C27.7652 16.1369 26.7961 17.0565 25.7237 17.0984C24.8509 17.1325 23.9743 17.1298 23.1012 17.0984C22.1032 17.06 21.1664 16.2183 20.9687 15.2177C20.8202 14.4759 20.8202 13.7119 20.9687 12.9701C21.1721 11.9557 22.0307 11.2053 23.0896 11.0979C23.5276 11.0533 23.9686 11.0384 24.5274 11ZM23.2428 14.0244H23.2409C23.2409 14.2609 23.229 14.498 23.2432 14.7333C23.2739 15.23 23.6347 15.7209 24.2388 15.674C24.385 15.6629 24.5328 15.674 24.6802 15.674C25.1641 15.6717 25.5483 15.3743 25.5913 14.8953C25.6386 14.3865 25.6481 13.8749 25.6197 13.3647C25.5898 12.8523 25.3154 12.5494 24.8605 12.4923C24.5635 12.4566 24.263 12.4619 23.9674 12.508C23.5452 12.5732 23.2647 12.9233 23.2447 13.3551C23.2343 13.5769 23.2428 13.8018 23.2428 14.0244Z" fill="black"/>
<path d="M12.09 13.4245C12.632 13.4245 13.1424 13.4245 13.6533 13.4245C13.7684 13.4245 13.8836 13.4161 13.9987 13.4218C14.1906 13.4314 14.3019 13.5504 14.3058 13.7423C14.3092 13.9599 14.3058 14.1776 14.3058 14.3948C14.3058 14.6477 14.2048 14.7548 13.9469 14.7567C13.4096 14.761 12.8722 14.7667 12.3349 14.754C12.143 14.7498 12.082 14.7986 12.0862 14.9982C12.0981 15.5466 12.1342 15.598 12.6891 15.6023C13.2841 15.6069 13.879 15.6023 14.4735 15.598C14.8696 15.5957 14.9456 15.6702 14.944 16.0655C14.944 16.2828 14.9479 16.5 14.9463 16.718C14.944 16.992 14.8496 17.0953 14.5798 17.0961C13.3838 17.0987 12.1879 17.1049 10.9919 17.0938C10.8392 17.0931 10.6881 17.0622 10.5472 17.003C10.4064 16.9439 10.2786 16.8575 10.1712 16.7489C10.0638 16.6402 9.97883 16.5115 9.92123 16.37C9.86364 16.2285 9.83451 16.077 9.83552 15.9243C9.82554 14.7158 9.82554 13.507 9.83552 12.298C9.84205 11.6337 10.3521 11.1366 11.0127 11.1328C12.2025 11.1263 13.3923 11.1293 14.5821 11.1305C14.8569 11.1305 14.9379 11.2145 14.9387 11.4863C14.9387 11.7232 14.9387 11.9599 14.9387 12.1963C14.9329 12.4915 14.8535 12.5736 14.5598 12.5736C13.8755 12.5736 13.1912 12.5736 12.5068 12.5736C12.1841 12.5736 12.0985 12.6584 12.0904 12.9808C12.087 13.1275 12.09 13.2729 12.09 13.4245Z" fill="black"/>
<path d="M4.24379 11.129C4.53817 11.129 4.83217 11.1316 5.12655 11.129C5.3223 11.1267 5.4336 11.2161 5.47774 11.408C5.78479 12.6984 6.09516 13.9878 6.40886 15.2764C6.42614 15.3474 6.50904 15.4023 6.56239 15.4645C6.61075 15.3981 6.68482 15.3382 6.70363 15.2641C7.01759 14.0152 7.3277 12.7651 7.63399 11.5139C7.72265 11.1531 7.7522 11.1301 8.12795 11.1301C8.39048 11.1301 8.65262 11.1278 8.91476 11.1301C9.21106 11.1332 9.32237 11.2771 9.2506 11.5592C8.94355 12.7644 8.6365 13.9695 8.32945 15.1747C8.24616 15.5017 8.16748 15.8303 8.0842 16.1576C7.94334 16.7096 7.57027 17.0558 7.00454 17.0819C6.41716 17.1108 5.82862 17.1067 5.2417 17.0696C4.74888 17.0366 4.39962 16.7311 4.27219 16.2636C3.84463 14.693 3.4447 13.1175 3.03824 11.5435C2.96992 11.2794 3.09965 11.1301 3.38022 11.129C3.66807 11.1278 3.95593 11.129 4.24379 11.129Z" fill="black"/>
<path d="M19.1303 17.1559C18.5929 17.1356 18.0537 17.1502 17.5225 17.088C16.4823 16.9659 15.6748 16.1722 15.4614 15.1421C15.2856 14.2923 15.2791 13.446 15.5877 12.6316C15.9331 11.7216 16.624 11.2115 17.5904 11.0963C18.4513 10.9935 19.3137 11.0061 20.1754 11.094C20.4214 11.1194 20.5074 11.2195 20.5077 11.4702C20.5081 11.7208 20.5077 11.9691 20.5077 12.2186C20.5077 12.5126 20.4183 12.592 20.1293 12.589C19.6687 12.5844 19.2082 12.574 18.7476 12.5913C18.274 12.612 17.9569 12.8423 17.8502 13.2365C17.7981 13.4211 17.7712 13.6119 17.7704 13.8037C17.7686 14.1609 17.7898 14.5178 17.8341 14.8723C17.8944 15.2991 18.2325 15.5961 18.6616 15.6188C19.146 15.6445 19.6319 15.6502 20.117 15.6572C20.4202 15.6602 20.5081 15.7374 20.507 16.0375C20.507 16.287 20.5097 16.5365 20.5043 16.7856C20.4985 17.0638 20.4179 17.1394 20.147 17.139C19.8079 17.139 19.4689 17.139 19.1299 17.139L19.1303 17.1559Z" fill="black"/>
<path d="M2.38576 14.1108C2.38576 14.9808 2.38576 15.8507 2.38576 16.7207C2.38576 16.997 2.29557 17.0949 2.02268 17.0957C1.46641 17.0972 0.91027 17.0972 0.354257 17.0957C0.115143 17.0934 0 16.9832 0 16.7449C0 14.9863 0 13.2279 0 11.4698C0 11.2334 0.102094 11.1309 0.338137 11.1301C0.901059 11.1278 1.46398 11.1278 2.0269 11.1301C2.29979 11.1301 2.38231 11.2142 2.38231 11.4832C2.38231 12.3593 2.38231 13.2353 2.38231 14.1112L2.38576 14.1108Z" fill="black"/>
</svg>
