<svg width="28" height="28" viewBox="0 0 28 28" fill="none" xmlns="http://www.w3.org/2000/svg">
<g clip-path="url(#clip0_630_14688)">
<path d="M0 27.9304V0H28V27.4998C28 27.9459 28 27.9446 27.5591 27.9446H0.32098C0.213986 27.9446 0.106993 27.9355 0 27.9304ZM26.9945 26.9571V1.00032H0.995166V26.9571H26.9945Z" fill="black"/>
<path d="M5.28517 11.7528C5.31482 6.64804 9.56877 3.06441 13.989 3.06055C18.5214 3.06055 22.7148 6.79886 22.7006 11.7644C22.6931 14.0703 21.7721 16.2792 20.1392 17.9074C18.5064 19.5357 16.2949 20.4504 13.989 20.4515C9.19494 20.4463 5.27615 16.5301 5.28517 11.7528ZM13.9774 19.4872C17.6435 19.66 21.7608 16.5726 21.7763 11.7528C21.7905 7.46403 18.2636 3.96419 13.989 3.97321C11.9299 3.97967 9.95698 4.8006 8.50108 6.25674C7.04519 7.71288 6.22458 9.68593 6.21846 11.745C6.21588 16.2426 9.98901 19.602 13.9774 19.4885V19.4872Z" fill="black"/>
<path d="M6.75687 23.4615L7.16422 23.5389C7.6618 23.633 7.81649 23.7748 7.82809 24.1473C7.84356 24.6359 7.63473 24.9466 7.18356 25.0497C6.94602 25.1022 6.70365 25.1299 6.46039 25.1322C5.40077 25.1412 4.34115 25.1322 3.28153 25.1322C3.18712 25.1261 3.09323 25.1136 3.00051 25.0948L2.98633 25.0136C3.0704 24.9791 3.1565 24.9499 3.24414 24.9259C3.60766 24.8447 3.69532 24.7738 3.70821 24.3987C3.72884 23.7993 3.72368 23.1999 3.71723 22.594C3.71723 22.362 3.59735 22.2485 3.36661 22.2073C3.31762 22.1995 3.25961 22.2137 3.21836 22.1918C3.15929 22.1543 3.10403 22.1111 3.05336 22.0629C3.10653 22.0344 3.16401 22.0148 3.22352 22.0049C4.23931 22.0049 5.25553 22.0049 6.27218 22.0049C6.55836 22.0049 6.84582 22.0113 7.12942 22.041C7.25883 22.0483 7.3815 22.1011 7.47582 22.19C7.57015 22.2789 7.63007 22.3982 7.64505 22.527C7.70434 22.8466 7.60895 23.1006 7.34211 23.2398C7.15135 23.3247 6.95596 23.3987 6.75687 23.4615ZM4.55384 23.7052C4.57318 23.9797 4.58736 24.2569 4.61572 24.5328C4.61606 24.6135 4.64817 24.6908 4.70512 24.748C4.76206 24.8051 4.83924 24.8376 4.91994 24.8383C5.36854 24.8537 5.82229 24.8666 6.26702 24.8563C6.40232 24.8411 6.53191 24.7933 6.64472 24.7171C6.74615 24.6491 6.82411 24.5514 6.86795 24.4374C6.91178 24.3235 6.91936 24.1987 6.88965 24.0803C6.87297 23.9762 6.81855 23.8818 6.73677 23.8152C6.65498 23.7487 6.55155 23.7145 6.44621 23.7194C5.83132 23.7 5.20998 23.709 4.55384 23.709V23.7052ZM4.55384 23.3185C5.14295 23.3649 5.70241 23.4267 6.26316 23.3107C6.5764 23.245 6.71949 23.0529 6.71304 22.7306C6.71304 22.4728 6.55578 22.2936 6.24769 22.2691C5.82229 22.2343 5.39303 22.2343 4.96506 22.2343C4.88444 22.2302 4.80529 22.257 4.74373 22.3092C4.68218 22.3614 4.64285 22.4351 4.63377 22.5154C4.5938 22.7732 4.57834 23.0349 4.55127 23.3172L4.55384 23.3185Z" fill="black"/>
<path d="M23.0618 23.2339C23.4189 23.5394 23.7695 23.8526 24.1343 24.1478C24.4991 24.443 24.8201 24.8014 25.2854 24.9548C25.3215 24.9664 25.3396 25.027 25.3667 25.0644C25.3293 25.0901 25.2906 25.1366 25.2532 25.1378C24.8381 25.1443 24.4231 25.1494 24.008 25.1378C23.9422 25.1378 23.8713 25.0708 23.8146 25.0218C23.3849 24.6377 22.9526 24.251 22.5178 23.8617C22.4825 23.8168 22.4326 23.7858 22.3767 23.7741C22.3209 23.7623 22.2627 23.7705 22.2123 23.7972C22.1552 23.8184 22.1064 23.8574 22.0732 23.9085C22.04 23.9596 22.0241 24.02 22.028 24.0808C22.028 24.1736 22.028 24.2664 22.028 24.3592C22.0357 24.6583 22.1659 24.8053 22.4572 24.8852C22.5681 24.9148 22.7485 24.8684 22.7473 25.0528C22.7473 25.0811 22.5436 25.1327 22.434 25.134C21.7766 25.1417 21.1192 25.134 20.4527 25.134C20.4115 24.987 20.4385 24.9097 20.6009 24.9045C20.6941 24.9017 20.7861 24.8829 20.8729 24.8491C20.9533 24.8287 21.0243 24.7816 21.0744 24.7156C21.1246 24.6495 21.1508 24.5684 21.1488 24.4856C21.1488 23.872 21.1591 23.2584 21.1488 22.6448C21.1424 22.3251 21.0367 22.2336 20.7157 22.2129C20.5713 22.2039 20.4965 22.1639 20.5468 21.9912H22.6454C22.6918 22.1498 22.5913 22.1871 22.4701 22.2104C22.0756 22.2851 22.0486 22.3122 22.0357 22.7092C22.0267 22.967 22.0357 23.2249 22.0357 23.5458C22.1646 23.4672 22.2381 23.4169 22.309 23.3705C22.6415 23.1217 22.9754 22.8768 23.299 22.6177C23.34 22.5874 23.3743 22.5488 23.3994 22.5044C23.4245 22.4599 23.4399 22.4107 23.4446 22.3599C23.433 22.2941 23.29 22.2464 23.2036 22.1962C23.1366 22.1575 23.0657 22.1266 22.996 22.093L23.0128 22.017H25.0444C25.0856 22.1459 25.0057 22.1936 24.8742 22.2194C24.1923 22.3483 23.6393 22.726 23.1121 23.1527C23.094 23.172 23.0876 23.1939 23.0618 23.2339Z" fill="black"/>
<path d="M8.04952 21.9971H9.59641C9.59641 22.4392 9.59641 22.8711 9.59641 23.3029C9.59641 23.6587 9.58481 24.0171 9.61188 24.3715C9.63509 24.6693 9.83231 24.8395 10.1275 24.8949C10.4797 24.9671 10.845 24.939 11.182 24.8137C11.3129 24.7711 11.4271 24.6884 11.5085 24.5774C11.5899 24.4664 11.6344 24.3326 11.6357 24.1949C11.6564 23.7386 11.6821 23.2823 11.686 22.8259C11.686 22.4315 11.579 22.3103 11.1923 22.2291C11.0634 22.2033 10.9551 22.1775 10.9603 21.9996H12.5987V22.2394L12.5793 24.4051C12.5793 24.7531 12.627 24.8163 12.9661 24.891C13.095 24.9181 13.2393 24.9271 13.1762 25.136H11.7221L11.6976 24.8562C11.4398 24.9594 11.182 25.105 10.9113 25.1514C10.3963 25.2508 9.86461 25.2202 9.36438 25.0625C9.17819 25.0154 9.01378 24.9059 8.89859 24.7522C8.78341 24.5986 8.72441 24.4101 8.73144 24.2181C8.71855 23.7322 8.73144 23.2462 8.71469 22.7602C8.70437 22.3322 8.6309 22.2575 8.19906 22.2239C8.04566 22.2123 7.9928 22.153 8.04952 21.9971Z" fill="black"/>
<path d="M19.4861 24.0318C19.6588 24.0318 19.829 24.0318 20.0017 24.0318C20.1384 24.0318 20.1719 24.1053 20.1306 24.2316C20.0897 24.3952 20.0105 24.5468 19.8996 24.6738C19.7886 24.8009 19.6491 24.8998 19.4926 24.9625C19.0791 25.1267 18.6366 25.2056 18.1919 25.1945C17.6891 25.1945 17.1864 25.1791 16.7223 24.9561C16.2583 24.733 15.976 24.3489 15.9785 23.8036C15.9785 23.6824 15.9785 23.5613 15.9785 23.4388C15.9785 22.6654 16.382 22.1691 17.1387 22.0066C17.8954 21.8442 18.6611 21.8906 19.4242 21.986C19.6279 22.0105 19.8316 22.0492 20.0417 22.0827V22.9451H19.4397C19.4224 22.9108 19.4099 22.8744 19.4023 22.8368C19.3675 22.4578 19.1084 22.2786 18.781 22.2284C18.4421 22.1792 18.0986 22.1693 17.7575 22.1987C17.2998 22.2374 17.0472 22.481 16.9582 22.9361C16.8537 23.3836 16.859 23.8497 16.9737 24.2948C17.018 24.4737 17.1208 24.6327 17.2659 24.7464C17.4109 24.8602 17.5899 24.9222 17.7742 24.9225C18.0753 24.9297 18.3765 24.9207 18.6766 24.8955C18.8653 24.8928 19.0465 24.8212 19.1862 24.6942C19.3258 24.5671 19.4141 24.3935 19.4345 24.2058C19.4423 24.153 19.4655 24.1053 19.4861 24.0318Z" fill="black"/>
<path d="M15.6508 22.0779C15.5816 22.1357 15.5038 22.1823 15.4201 22.2158C15.0939 22.2932 14.9947 22.3873 14.9895 22.725C14.9818 23.2754 14.9895 23.8259 14.9895 24.3763C14.9895 24.7308 15.0565 24.803 15.4123 24.8791C15.5412 24.9074 15.6495 24.9461 15.6096 25.1485H13.4645C13.4091 25.0002 13.4504 24.919 13.5934 24.8907C13.6424 24.8816 13.6914 24.87 13.7404 24.8584C13.9582 24.8043 14.0833 24.6908 14.0807 24.4408C14.0807 23.8259 14.0897 23.211 14.0897 22.5961C14.0897 22.4311 13.8873 22.2622 13.6837 22.2197C13.5968 22.193 13.5129 22.1571 13.4336 22.1127L13.4568 22.0225H15.598L15.6508 22.0779Z" fill="black"/>
<path d="M12.0284 7.78345H15.4303V6.58203H19.4651V6.82309C19.4522 8.15986 19.4187 9.49663 19.4354 10.8334C19.4364 11.7714 19.2424 12.6994 18.8656 13.5585C18.4839 14.4461 18.0108 15.2915 17.4541 16.0812C16.8628 15.2302 16.356 14.3236 15.9407 13.3742C15.5549 14.7787 14.9143 16.1005 14.051 17.2736C13.4673 16.4188 12.9625 15.5127 12.5427 14.5666C12.1715 16.0142 11.5115 17.2478 10.6903 18.4596C10.5924 18.3384 10.5073 18.2546 10.4441 18.1566C9.74673 17.0777 9.13442 15.9549 8.83535 14.6955C8.73082 14.2438 8.67422 13.7823 8.66649 13.3187C8.64199 11.9252 8.6523 10.5305 8.64844 9.13698C8.64844 9.08799 8.66004 9.0403 8.66906 8.96166H12.0284V7.78345ZM17.427 14.7071C17.4518 14.6953 17.4748 14.6801 17.4954 14.662C17.5572 14.5743 17.6243 14.4866 17.6758 14.3964C18.3474 13.2942 18.8244 12.1379 18.7935 10.8102C18.7664 9.68226 18.7935 8.55303 18.7935 7.4238C18.7935 7.36192 18.7831 7.29489 18.778 7.23044H16.0555C16.0555 7.30391 16.0413 7.35934 16.0426 7.42895C16.0542 8.55689 16.0568 9.68612 16.0825 10.8154C16.0835 11.229 16.1237 11.6416 16.2024 12.0477C16.4009 12.9565 16.8212 13.7776 17.3097 14.564C17.3455 14.6143 17.3847 14.6621 17.427 14.7071ZM14.0638 15.9742C14.2714 15.6172 14.4622 15.3181 14.6246 15.0023C15.0268 14.2288 15.3684 13.4167 15.389 12.526C15.4187 11.1969 15.4122 9.86659 15.4199 8.53756C15.4143 8.49372 15.4044 8.45055 15.3903 8.40865H12.6832C12.6832 8.70772 12.6832 8.98616 12.6832 9.2646C12.6923 10.2018 12.7387 11.1402 12.7039 12.0748C12.66 13.2246 13.0751 14.2275 13.5908 15.2085C13.7261 15.4547 13.8885 15.6881 14.0638 15.9742ZM9.28137 9.61265V9.84855C9.29298 10.9842 9.33165 12.1212 9.30973 13.2569C9.28395 14.6271 9.80861 15.8015 10.5137 16.923C10.5655 16.9971 10.621 17.0685 10.68 17.137C11.4341 15.9768 12.0116 14.7831 12.0181 13.3896C12.025 12.1813 12.0293 10.9735 12.031 9.76605C12.031 9.71835 12.0219 9.67065 12.0168 9.61265H9.28137Z" fill="black"/>
<path d="M18.6274 7.38867V11.5034L18.5694 11.5202L16.2246 7.38867H18.6274Z" fill="black"/>
<path d="M16.2311 9.20898C16.2878 9.29664 16.3278 9.35207 16.36 9.41008C16.9616 10.4792 17.5674 11.5478 18.1776 12.616C18.2249 12.6826 18.2526 12.7613 18.2574 12.8429C18.2622 12.9245 18.2439 13.0058 18.2047 13.0775C17.9933 13.4823 17.7896 13.8909 17.5782 14.2957C17.5397 14.3564 17.4966 14.4142 17.4493 14.4684C16.2762 12.8983 16.0764 11.1181 16.2311 9.20898Z" fill="black"/>
<path d="M12.9083 8.53906C13.6457 8.53906 14.3817 8.53906 15.1178 8.53906C15.1706 8.53906 15.2287 8.62285 15.2725 8.67699C15.2918 8.69891 15.2867 8.74532 15.2867 8.78141C15.2738 10.0705 15.2605 11.3639 15.2467 12.6615C15.2405 12.7111 15.2311 12.7602 15.2183 12.8085L12.8555 8.60481L12.9083 8.53906Z" fill="black"/>
<path d="M14.0201 15.664C13.8912 15.4243 13.7416 15.1897 13.6166 14.9447C13.3124 14.3453 12.9721 13.7446 12.9218 13.0691C12.8535 12.2248 12.8689 11.3727 12.8496 10.5245C12.8496 10.5142 12.8638 10.5039 12.8909 10.4678C12.985 10.625 13.0778 10.772 13.1641 10.9215C13.7245 11.9081 14.2831 12.8964 14.8399 13.8864C14.8722 13.9431 14.9147 14.0321 14.8928 14.0785C14.6427 14.6121 14.3772 15.1407 14.1193 15.6705L14.0201 15.664Z" fill="black"/>
<path d="M11.7751 13.9083L9.42773 9.75488H11.8667V13.8799L11.7751 13.9083Z" fill="black"/>
<path d="M10.6821 16.9373C10.5811 16.7881 10.4882 16.6336 10.4037 16.4745C10.1291 15.8557 9.84036 15.2434 9.60574 14.6105C9.37113 13.9776 9.46137 13.2969 9.43172 12.6331C9.41614 12.2964 9.43124 11.959 9.47684 11.625C9.55289 11.7539 9.63153 11.8738 9.70371 12.0001C10.2658 12.9863 10.8239 13.975 11.3924 14.956C11.452 15.0391 11.486 15.1378 11.4901 15.24C11.4942 15.3421 11.4683 15.4433 11.4156 15.5309C11.1694 15.9847 10.9412 16.4397 10.6821 16.9373Z" fill="black"/>
</g>
<defs>
<clipPath id="clip0_630_14688">
<rect width="28" height="27.9446" fill="white"/>
</clipPath>
</defs>
</svg>
