<svg width="28" height="28" viewBox="0 0 28 28" fill="none" xmlns="http://www.w3.org/2000/svg">
<g clip-path="url(#clip0_630_14618)">
<path d="M14.6431 7C15.1041 7.02472 15.974 7.06392 16.8429 7.11956C18.2342 7.20864 19.6063 7.4247 20.9618 7.73954C21.9163 7.96126 22.8494 8.25177 23.7455 8.63946C24.5231 8.97591 25.2611 9.38242 25.9316 9.89991C26.4071 10.2669 26.8382 10.6727 27.1832 11.157C27.6706 11.8413 27.9612 12.591 27.9965 13.4341C28.0248 14.1111 27.8833 14.7408 27.5445 15.3283C27.3027 15.7478 27.0025 16.128 26.666 16.481C26.0048 17.1747 25.2515 17.7577 24.4302 18.2655C23.4054 18.8992 22.3057 19.3674 21.1539 19.7336C19.8177 20.1584 18.4471 20.4371 17.0577 20.6183C15.9744 20.7596 14.8847 20.8657 13.7945 20.9434C12.5539 21.0319 11.3093 21.0195 10.0714 20.8856C8.95371 20.7646 7.84604 20.5766 6.75934 20.2914C6.22037 20.1499 5.68159 20.0004 5.15701 19.8163C4.15281 19.4637 3.20883 18.9928 2.36531 18.3506C1.80777 17.9261 1.30331 17.4486 0.877978 16.8949C0.0751038 15.8496 -0.203538 14.6991 0.152021 13.4309C0.334026 12.7817 0.69713 12.2239 1.15843 11.7242C1.87428 10.9488 2.72555 10.3386 3.63975 9.80453C4.35665 9.38573 5.10373 9.02735 5.8801 8.7226C7.69703 8.00938 9.58625 7.56396 11.5154 7.25609C12.4161 7.11234 13.3208 7.0256 14.6431 7ZM20.8177 9.2929C20.5933 9.19479 20.3976 9.09283 20.1907 9.02164C19.4851 8.77891 18.7444 8.70782 18.0073 8.62532C17.57 8.57637 17.1315 8.52843 16.6921 8.50835C15.9761 8.47558 15.2584 8.43964 14.5426 8.45549C14.0257 8.46695 13.5112 8.56491 12.9947 8.61445C12.8137 8.63181 12.6595 8.69505 12.5246 8.80427C12.0646 9.17689 11.7207 9.63153 11.5005 10.174C11.1943 10.9287 11.2592 11.6405 11.7687 12.2944C12.0892 12.7059 12.5211 12.9447 13.0583 12.9104C13.4506 12.8852 13.8434 12.8124 14.2269 12.7238C15.0362 12.5366 15.8301 12.2935 16.5847 11.9511C17.2735 11.6384 17.9585 11.3151 18.6271 10.9641C19.3823 10.5675 20.04 10.0366 20.6616 9.46468C20.71 9.42006 20.7505 9.3673 20.8177 9.2929ZM7.68506 19.115C7.76016 19.1409 7.7993 19.1563 7.83955 19.1679C8.46318 19.3489 9.10297 19.4546 9.74879 19.5103C10.4823 19.5735 11.2185 19.6114 11.9541 19.6473C12.751 19.6862 13.5492 19.6816 14.3409 19.5812C14.8398 19.518 15.3346 19.4182 15.8269 19.3154C15.9361 19.2926 16.0565 19.2084 16.1215 19.1184C16.4877 18.6114 16.7719 18.0618 16.8957 17.4511C17.0278 16.799 17.0287 16.1531 16.6835 15.546C16.4324 15.1043 15.9186 14.8436 15.4471 14.9306C15.2242 14.9718 15.0018 15.0169 14.7817 15.0698C13.7849 15.3093 12.8229 15.6405 11.8977 16.0763C11.3034 16.3561 10.7457 16.6929 10.2278 17.0837C9.43654 17.6809 8.66803 18.3063 7.89106 18.9212C7.82506 18.9733 7.76816 19.0362 7.68506 19.115ZM9.21233 9.13867C9.13038 9.1472 9.09104 9.14583 9.05497 9.15583C8.6887 9.2573 8.32147 9.35589 7.95741 9.46438C7.0995 9.72003 6.26715 10.0399 5.48751 10.472C4.96097 10.7638 4.45072 11.0842 3.94128 11.404C3.17372 11.8857 2.5622 12.5155 2.0998 13.2803C1.72603 13.8984 1.56359 14.5536 1.73161 15.2673C1.8856 15.9216 2.21449 16.4742 2.71699 16.9379C3.20224 17.3857 3.75862 17.7259 4.35167 18.0179C4.44539 18.064 4.49665 18.0542 4.5297 17.9551C4.56617 17.8458 4.61079 17.739 4.64867 17.63C5.08532 16.3746 5.60679 15.1518 6.22655 13.9724C6.69032 13.0898 7.19191 12.2248 7.70533 11.3682C8.04499 10.8015 8.4339 10.2624 8.8038 9.71291C8.9271 9.52972 9.0598 9.35243 9.21233 9.13867ZM19.5497 18.4265C19.6382 18.4161 19.6807 18.4143 19.7217 18.4057C19.9971 18.3481 20.2789 18.309 20.5461 18.2262C21.1343 18.0442 21.7231 17.8593 22.2963 17.6381C22.7263 17.4722 23.1496 17.2752 23.5439 17.0413C23.878 16.8432 24.175 16.5821 24.4725 16.3313C24.9321 15.9439 25.3684 15.5312 25.6642 15.006C25.7846 14.7923 25.8578 14.5535 25.9788 14.3402C26.2383 13.8826 26.2733 13.3921 26.238 12.8889C26.2199 12.6329 26.1643 12.3832 26.0152 12.1653C25.8546 11.9303 25.6953 11.6934 25.5172 11.4709C25.1319 10.9896 24.6845 10.5748 24.1139 10.2986C24.0076 10.2471 23.9513 10.265 23.9081 10.3685C23.8079 10.6083 23.7081 10.8484 23.6003 11.085C23.3088 11.7252 23.0327 12.373 22.7143 13.0006C22.2848 13.847 21.8383 14.6864 21.3675 15.512C20.9469 16.2496 20.4856 16.9656 20.0378 17.6886C19.8913 17.9251 19.7308 18.1535 19.5497 18.4265Z" fill="#18232E"/>
</g>
<defs>
<clipPath id="clip0_630_14618">
<rect width="28" height="28" fill="white"/>
</clipPath>
</defs>
</svg>
