<svg width="28" height="28" viewBox="0 0 28 28" fill="none" xmlns="http://www.w3.org/2000/svg">
<path d="M13.9943 22.616C12.4929 22.6295 10.994 22.4884 9.52152 22.1949C7.78856 21.8355 6.10509 21.2936 4.54332 20.4344C3.25739 19.7277 2.09397 18.8645 1.20639 17.6759C0.221464 16.3632 -0.230436 14.9085 0.115182 13.2632C0.3245 12.2677 0.806419 11.3988 1.46034 10.6232C2.27165 9.65125 3.27524 8.90485 4.37213 8.28419C5.84141 7.45179 7.41617 6.89766 9.05583 6.53257C11.169 6.05715 13.3399 5.89019 15.5009 6.03686C17.0528 6.13122 18.5897 6.39567 20.084 6.82546C21.8802 7.35768 23.5799 8.09273 25.0792 9.24154C26.0106 9.95631 26.8122 10.783 27.3509 11.8377C27.9732 13.0425 28.193 14.2928 27.8117 15.6387C27.4304 16.9847 26.6321 18.0483 25.6041 18.9546C24.5949 19.8429 23.4412 20.496 22.2088 21.0348C21.0312 21.5426 19.8034 21.9253 18.5457 22.1763C17.6744 22.3531 16.7836 22.4497 15.8976 22.5389C15.2672 22.599 14.6287 22.59 13.9943 22.616ZM14.2758 21.9889C14.9427 21.9296 15.8838 21.8428 16.8257 21.7633C17.8934 21.6724 18.9352 21.4388 19.959 21.1443C21.1409 20.8127 22.2793 20.3421 23.3503 19.7423C24.4188 19.1387 25.3786 18.4085 26.142 17.4455C26.826 16.5823 27.2649 15.6193 27.3038 14.4867C27.3468 13.2162 26.8901 12.1379 26.1209 11.17C25.2058 10.0155 24.0188 9.20828 22.7167 8.55761C20.8377 7.61649 18.8305 7.08913 16.756 6.85385C14.7275 6.61134 12.6757 6.64053 10.6549 6.94066C8.80026 7.223 7.01295 7.70816 5.32866 8.53895C4.162 9.11417 3.09107 9.82812 2.2035 10.7944C1.57392 11.4808 1.07415 12.2547 0.84455 13.1561C0.465668 14.6505 0.808853 16.0136 1.71265 17.2476C2.69596 18.5911 4.033 19.4851 5.50391 20.1918C6.84663 20.836 8.26236 21.2587 9.7284 21.541C11.1425 21.8096 12.5656 21.9199 14.279 21.9856L14.2758 21.9889Z" fill="black"/>
<path d="M14.1979 21.3528C12.5023 21.339 10.9527 21.2157 9.42984 20.896C7.78694 20.5512 6.19839 20.0385 4.73884 19.1923C3.66953 18.5732 2.71381 17.8203 2.00716 16.7746C0.871324 15.0976 0.98653 13.1115 2.19782 11.5375C2.928 10.5908 3.85938 9.89302 4.89056 9.31699C5.86076 8.78455 6.8904 8.36844 7.95812 8.07731C9.02608 7.78664 10.114 7.57512 11.2131 7.44449C12.5737 7.27249 13.9367 7.26924 15.2997 7.3236C16.393 7.37489 17.4802 7.51544 18.5506 7.74386C20.0921 8.06027 21.5752 8.54138 22.9625 9.28535C24.2095 9.95955 25.3299 10.7871 26.0869 12.0187C27.0312 13.5528 27.0223 15.1016 26.1047 16.6431C25.5262 17.6167 24.6906 18.3331 23.7519 18.9326C22.3256 19.8405 20.7622 20.4003 19.1274 20.7889C17.4537 21.1873 15.7629 21.3179 14.1979 21.3528ZM12.0431 10.5875C12.0928 10.6167 12.1449 10.6417 12.1988 10.6621C12.8657 10.8552 13.0791 11.3112 13.0605 11.9813C13.0102 13.7768 13.0053 15.5746 12.9793 17.3709C12.9712 17.9388 12.7538 18.3647 12.1729 18.5375C12.0921 18.5524 12.0204 18.5986 11.9736 18.6661C11.9268 18.7336 11.9086 18.8169 11.923 18.8978C11.9352 19.0397 11.94 19.1833 11.949 19.3375C12.0828 19.3513 12.1745 19.3691 12.267 19.3699C13.4288 19.3786 14.5917 19.3859 15.7556 19.3918C16.1613 19.3918 16.2165 19.3107 16.1986 18.9132C16.1889 18.703 16.068 18.6584 15.9017 18.5984C15.3954 18.4167 15.1033 18.1116 15.1261 17.4715C15.1642 16.4046 15.1512 15.3369 15.1658 14.2692C15.178 13.3103 15.1991 12.3513 15.2137 11.3923C15.2234 10.7847 15.2291 10.1754 15.2388 9.5685C15.2388 9.35918 15.1877 9.16284 14.9516 9.15635C14.6571 9.14256 14.3366 9.11011 14.0713 9.20666C13.3793 9.45735 12.7108 9.77457 12.0431 10.0585V10.5875ZM16.3235 13.0506C16.4972 13.0596 16.6172 13.0701 16.7373 13.0709C18.9782 13.0931 21.2193 13.1139 23.4606 13.1334C24.1292 13.1383 24.6865 12.5979 24.7539 11.8548L17.5194 11.7558C17.5194 11.5311 17.5194 11.3599 17.5194 11.1879C17.5232 11.1574 17.5205 11.1265 17.5114 11.0971C17.5023 11.0678 17.4871 11.0407 17.4668 11.0177C17.4465 10.9947 17.4215 10.9762 17.3935 10.9636C17.3655 10.951 17.3351 10.9445 17.3044 10.9445C16.9856 10.9315 16.6667 10.9445 16.3227 10.9445L16.3235 13.0506ZM11.9676 11.7136L3.36773 11.5976C3.40099 11.94 3.56974 12.1558 3.70685 12.3797C3.94132 12.7626 4.26666 12.9363 4.74614 12.9354C6.62271 12.9354 8.50008 12.9768 10.3775 13.0028C10.8091 13.0093 11.2415 13.019 11.6755 13.0263C11.8248 13.0263 11.9595 12.989 11.9644 12.8154C11.9749 12.4689 11.9676 12.1209 11.9676 11.7136ZM16.2676 15.173C16.4241 15.1844 16.5556 15.1998 16.687 15.2022C17.6322 15.2193 18.5782 15.2371 19.5266 15.2477C20.4458 15.2574 21.365 15.2688 22.2851 15.2623C22.9033 15.2623 23.4761 14.6595 23.4785 13.9991C23.3333 13.9991 23.188 13.9991 23.0428 13.9991C21.6236 13.9828 20.2049 13.9669 18.7867 13.9512C18.0565 13.9439 17.3263 13.9512 16.5961 13.9301C16.3722 13.9252 16.2676 13.9983 16.2716 14.2246C16.2732 14.5199 16.2708 14.8152 16.2708 15.173H16.2676ZM11.9173 13.8538C11.0719 13.8538 10.2655 13.8538 9.45905 13.8538C8.6526 13.8538 7.83643 13.8409 7.02998 13.8401C6.22354 13.8392 5.42846 13.7727 4.57739 13.8222C4.67694 14.1326 4.83563 14.4208 5.04471 14.6708C5.14246 14.8078 5.27261 14.9183 5.42353 14.9926C5.57445 15.067 5.74144 15.1027 5.90956 15.0968C7.75854 15.1098 9.60752 15.1373 11.4557 15.1576C11.6001 15.1576 11.7445 15.1446 11.9173 15.1365V13.8538ZM6.25275 16.8435C6.37343 17.271 6.6115 17.656 6.93993 17.955C7.09297 18.0904 7.29231 18.1616 7.49649 18.1538C8.21287 18.1538 8.92926 18.1708 9.64565 18.1733C9.77929 18.1812 9.913 18.1588 10.0367 18.1075C10.6046 17.8179 11.1563 17.5137 11.7104 17.2078C11.7875 17.1648 11.8946 17.0885 11.9003 17.0204C11.9384 16.5669 11.9384 16.1109 11.9003 15.6574C11.7591 15.7231 11.6747 15.7572 11.5952 15.7994C11.0119 16.1093 10.4351 16.4306 9.84442 16.7259C9.66608 16.814 9.4705 16.8616 9.27163 16.8654C8.40678 16.8703 7.54192 16.8524 6.67544 16.8427L6.25275 16.8435ZM16.2497 16.1304C16.2392 16.4346 16.2221 16.6983 16.2229 16.9644C16.2229 17.3409 16.2408 17.3806 16.6034 17.3619C17.1073 17.336 17.5186 17.508 17.8926 17.8236C18.036 17.946 18.1924 18.0521 18.3591 18.14C18.4879 18.2106 18.6304 18.2524 18.777 18.2625C19.383 18.2779 19.9939 18.2852 20.5967 18.2625C20.7834 18.2608 20.9649 18.201 21.116 18.0913C21.4406 17.8274 21.6785 17.4721 21.7991 17.0715C21.696 17.0422 21.5907 17.0211 21.4843 17.0082C21.0397 16.9944 20.5919 16.9579 20.1505 16.9887C19.3319 17.0455 18.5684 16.9271 17.917 16.3941C17.4172 15.9892 16.8501 16.1596 16.2497 16.1304Z" fill="black"/>
</svg>
