<svg width="29" height="28" viewBox="0 0 29 28" fill="none" xmlns="http://www.w3.org/2000/svg">
<path d="M6.25585 11.8136C5.11324 10.8144 4.26425 10.8324 3.40418 11.4182C3.19001 11.574 3.00762 11.7694 2.86681 11.9937C2.66737 12.297 2.42777 12.2374 2.17432 12.1322C1.95203 12.0421 1.68958 11.9625 1.86617 11.6183C1.89456 11.5616 1.84401 11.4653 1.81769 11.3233C2.15286 11.5145 2.31144 11.3413 2.41254 11.074C2.52195 10.7832 2.50949 10.4917 2.27404 10.2791C2.19856 10.2098 1.95896 10.2161 1.8724 10.286C1.55524 10.5394 1.531 10.8795 1.72628 11.2389C1.49776 11.2195 1.29348 11.2195 1.09612 11.1821C0.660544 11.1004 0.515814 10.7043 0.357234 10.3795C0.298373 10.259 0.47842 9.99515 0.590603 9.82549C0.734641 9.60528 0.950697 9.45986 1.01648 9.15516C1.06011 8.95226 1.33018 8.7646 1.54 8.63787C2.34606 8.15105 3.2546 8.03125 4.168 8.01879C5.9927 7.99663 7.79594 8.27778 9.48977 8.91902C12.9307 10.2257 16.3932 11.5027 19.6693 13.1938C21.3313 14.0531 22.9012 15.1002 24.5168 16.0558C24.9426 16.3079 25.372 16.5586 25.8186 16.7698C26.0772 16.901 26.3651 16.964 26.6549 16.9527C26.9447 16.9415 27.2268 16.8563 27.4744 16.7054C27.554 16.6597 27.6337 16.5738 27.7126 16.5745C27.9044 16.5745 28.1516 16.5558 28.2666 16.6631C28.3628 16.749 28.3677 17.0371 28.3005 17.1846C28.0623 17.7081 27.608 17.9844 27.0492 18.0391C26.6746 18.0751 26.2944 18.046 25.9287 18.046C26.1649 18.5141 26.1538 18.6042 25.802 18.9352C25.5174 19.2025 25.1435 19.2461 24.7854 19.0245C24.5942 18.9177 24.4229 18.7785 24.2792 18.6132C23.3935 17.4726 22.2087 17.2704 20.868 17.4422C20.3538 17.5111 19.8328 17.5124 19.3183 17.4463C18.1743 17.2877 17.4949 16.5066 16.9638 15.5544C16.7858 15.2373 16.5989 14.9063 16.3447 14.6542C15.9008 14.2117 15.3094 14.2643 14.743 14.3253C13.5124 14.4589 12.2853 14.5559 11.0825 14.1404C11.0519 14.1284 11.0191 14.1227 10.9863 14.1238C10.9534 14.1249 10.9211 14.1326 10.8914 14.1466C10.1802 14.6826 9.41429 14.5032 8.6754 14.2768C7.78556 14.0047 6.91648 13.6612 6.03841 13.3482C5.62291 13.2 5.52181 13.2678 5.27667 13.6286C5.09373 13.8885 4.86911 14.1164 4.61188 14.3031C4.36397 14.4866 4.07105 14.558 3.79336 14.299C3.53299 14.0552 3.43465 13.745 3.59323 13.3883C3.93186 12.6321 4.47685 12.1045 5.32445 11.9549C5.62845 11.9016 5.93384 11.8621 6.25585 11.8136ZM4.41591 8.50976C3.44642 8.44051 2.56696 8.4876 1.72628 8.83385C1.54645 8.90893 1.38085 9.01433 1.23669 9.14547C1.18476 9.19325 1.22908 9.34629 1.22908 9.45155C1.31356 9.42316 1.44444 9.419 1.4763 9.36152C1.69512 8.96127 2.04067 8.96057 2.42985 9.00559C2.21795 9.44601 1.98666 9.61151 1.47768 9.66483C1.08019 9.70915 0.828126 9.92452 0.681319 10.2881C0.569136 10.5651 0.754723 10.7112 0.941002 10.8171C1.11689 10.9175 1.3004 10.8725 1.40635 10.6669C1.5123 10.4612 1.60579 10.2514 1.72421 10.0561C1.93195 9.70985 2.3239 9.68838 2.58566 9.99446C2.84742 10.3005 2.90559 10.7804 2.67361 11.1198C2.48871 11.3905 2.25811 11.6294 2.04414 11.8815C2.37376 12.1121 2.45963 12.0962 2.69507 11.8192C2.84811 11.6391 3.00254 11.4355 3.20267 11.3247C3.76635 11.0131 3.94571 10.5865 3.71511 9.96745C3.69087 9.90236 3.66733 9.83657 3.64586 9.77078L3.74073 9.70638C3.93255 9.93906 4.1126 10.1835 4.32104 10.3989C4.46237 10.5516 4.62805 10.6798 4.81132 10.7784C5.28083 11.0166 5.76834 11.2209 6.24269 11.4508C6.4087 11.5439 6.56916 11.6465 6.72328 11.7582L6.66442 10.9889C7.06467 11.8379 7.78002 12.2741 8.57153 12.6384C8.29453 12.5857 8.01754 12.5303 7.78001 12.4085C7.10345 12.0622 6.39504 12.0318 5.65754 12.0955C4.8591 12.1647 4.26148 12.5248 3.86815 13.2235C3.66525 13.5836 3.70403 13.959 3.99557 14.193C4.07174 14.2533 4.19431 14.2553 4.29541 14.2844C3.96233 13.8731 3.9187 13.6702 4.13476 13.3641C4.16523 13.7477 4.32865 14.033 4.58072 13.9922C4.76215 13.9631 4.96851 13.7637 5.06546 13.5871C5.32445 13.1023 5.50311 12.9929 6.02386 13.1425C6.75375 13.3503 7.47809 13.5905 8.21005 13.781C8.7308 13.9195 9.26402 14.058 9.79585 14.0788C10.6386 14.1071 10.9918 13.5746 10.7092 12.7796C10.5777 12.4099 10.3865 12.0615 10.1982 11.6523C11.2127 12.3662 12.3124 12.6972 13.484 12.835C12.5762 12.9798 11.7043 12.7706 10.838 12.5172C10.9246 12.7886 11.077 13.0345 11.0596 13.2685C11.0271 13.7069 11.2799 13.817 11.606 13.9036C11.6843 13.9243 11.7611 13.9472 11.8387 13.968C13.1281 14.3073 14.4237 14.0372 15.799 14.0137L15.3545 13.3475C15.5132 13.405 15.6558 13.5001 15.7699 13.6245C16.182 14.1459 16.6224 14.6528 16.9693 15.2172C17.7096 16.4187 18.6902 17.1077 20.1596 16.9671C20.652 16.9207 21.1513 16.9401 21.6478 16.9408C22.3797 16.9408 23.0328 17.1548 23.5556 17.6908C23.7412 17.8805 23.9281 18.0696 24.1269 18.2448C24.3679 18.4574 24.6054 18.681 24.8748 18.8514C25.1026 18.994 25.3727 19.0349 25.6164 18.8687L24.89 18.6478C25.0811 18.5959 25.255 18.6547 25.4163 18.6312C25.5777 18.6076 25.7411 18.501 25.901 18.4303C25.8089 18.2919 25.7487 18.0986 25.6206 18.0294C24.9897 17.6866 24.5632 17.1416 24.1491 16.5897C23.7813 16.0994 23.2966 15.9201 22.7121 15.9069C22.2627 15.8965 21.8119 15.8647 21.3646 15.8425C20.8957 15.8197 20.5557 15.5815 20.3376 15.1826C20.1195 14.7837 19.9408 14.3779 19.7428 13.9742C19.9813 14.1889 20.1908 14.4338 20.366 14.7027C20.706 15.2061 21.152 15.5337 21.7676 15.6105C21.9961 15.6382 22.2246 15.6708 22.4531 15.6964C23.0985 15.7657 23.7433 15.8217 24.1781 16.4173C24.3603 16.6673 24.5936 16.8806 24.8104 17.1042C25.5264 17.841 26.4031 18.0599 27.3767 17.8133C27.6357 17.7482 27.8733 17.5363 28.0741 17.3397C28.1565 17.2607 28.1163 17.0544 28.1315 16.9062C27.9868 16.8951 27.8047 16.8217 27.7029 16.8819C26.9412 17.3369 26.2078 17.1825 25.5077 16.7781C23.9905 15.9048 22.5293 14.9333 20.9761 14.1245C17.4866 12.306 13.7583 11.0526 10.0839 9.68076C9.81939 9.58174 9.52647 9.55819 9.18715 9.48686C9.29449 9.67314 9.36374 9.7784 9.41775 9.89128C9.47176 10.0042 9.50985 10.1191 9.5881 10.3199C8.48428 9.25765 7.22533 8.76668 5.83482 8.57278C5.21712 8.49037 4.66313 8.65311 4.16038 9.10738C4.82437 9.36197 5.37038 9.85371 5.69286 10.4875C5.0246 10.0028 4.34043 9.56858 3.52052 9.38784C3.37233 9.3546 3.24353 9.22233 3.10987 9.13647C3.64586 9.11361 4.09944 9.04506 4.41591 8.50976ZM11.311 9.84419C8.89631 8.77291 6.36734 8.13928 3.60777 8.22169C4.01703 8.36019 4.43114 8.17529 4.73445 8.4696C6.26277 8.17875 7.61313 8.7272 8.93093 9.49794L8.84783 9.17109L11.311 9.84419Z" fill="black"/>
</svg>
