<svg width="29" height="28" viewBox="0 0 29 28" fill="none" xmlns="http://www.w3.org/2000/svg">
<path d="M14.0001 22.3459C12.2306 22.3485 10.4675 22.1344 8.75007 21.7083C7.0885 21.3128 5.50037 20.6557 4.04516 19.7615C2.79917 18.9778 1.6992 18.0288 0.930188 16.7552C-0.148696 14.9835 -0.296333 13.1324 0.589488 11.2326C1.13299 10.0645 1.97825 9.14297 2.97763 8.348C4.4686 7.16366 6.16886 6.40114 7.97619 5.84953C9.26502 5.47269 10.5876 5.22273 11.9251 5.10324C13.2079 4.97482 14.4999 4.96396 15.7847 5.07079C17.0163 5.16272 18.2373 5.3636 19.4335 5.67107C21.0455 6.07441 22.5851 6.72572 23.9972 7.60171C25.1232 8.32042 26.1388 9.16893 26.8964 10.29C27.951 11.8523 28.3128 13.5348 27.7433 15.3697C27.387 16.4509 26.7683 17.4269 25.9425 18.2105C24.6835 19.4613 23.1844 20.3196 21.5409 20.9685C20.1234 21.5324 18.6401 21.914 17.1264 22.1042C16.0897 22.234 15.0465 22.2972 14.005 22.3897L14.0001 22.3459ZM27.5762 12.0389L27.5843 11.9903C27.5697 11.9773 27.5583 11.9578 27.5421 11.9529L25.4087 11.3251C24.9739 11.1969 24.5521 11.059 24.273 10.655C23.6842 9.84621 22.9463 9.15733 22.099 8.62543C20.7803 7.78922 19.3209 7.19888 17.7916 6.88299C16.4431 6.58923 15.0654 6.45043 13.6854 6.46928C11.38 6.49037 9.17027 6.93166 7.09686 7.96674C5.67728 8.67572 4.43616 9.60048 3.54871 10.9471C3.09633 11.6148 2.81345 12.3827 2.72454 13.1843C2.59151 14.4822 2.99061 15.6179 3.72231 16.6627C4.47996 17.7383 5.48908 18.5268 6.63124 19.1514C8.13372 19.955 9.77167 20.4742 11.4627 20.683C12.8405 20.8816 14.2375 20.9111 15.6225 20.7706C17.2222 20.6083 18.7569 20.2157 20.1327 19.3478C20.8271 18.9097 21.4144 18.3646 21.7454 17.5858C21.934 17.1839 21.9731 16.7278 21.8557 16.2996C21.7382 15.8714 21.4719 15.4991 21.1045 15.2496C20.5275 14.851 19.8564 14.61 19.1577 14.5504C18.1809 14.4309 17.1985 14.3632 16.2147 14.3476C13.9677 14.3265 11.719 14.3476 9.47203 14.367C8.82308 14.367 8.31852 14.135 8.02487 13.5266C7.86263 13.2022 7.68741 12.8663 7.5203 12.537C7.44081 12.3829 7.35807 12.2287 7.26721 12.0389H27.5762Z" fill="black"/>
</svg>
