<svg width="28" height="28" viewBox="0 0 28 28" fill="none" xmlns="http://www.w3.org/2000/svg">
<g clip-path="url(#clip0_630_14494)">
<path d="M16.965 21C16.9704 20.746 16.9943 20.4906 16.9762 20.2383C16.9559 19.9574 17.0716 19.8853 17.3294 19.8901C18.0456 19.9033 18.7622 19.8975 19.4787 19.8924C19.5953 19.8916 19.7356 19.8897 19.8211 19.8269C19.8981 19.7703 19.9787 19.5863 19.9448 19.5348C19.8782 19.4334 19.7351 19.3276 19.6205 19.324C18.9882 19.304 18.3544 19.2971 17.7224 19.3215C17.409 19.3335 17.2829 19.2463 17.3229 18.9189C17.3473 18.7191 17.3274 18.5138 17.3274 18.2589C17.9229 18.2589 18.4805 18.259 19.0382 18.2587C19.1576 18.2586 19.2921 18.2922 19.3926 18.2476C19.5267 18.1881 19.6344 18.0674 19.7533 17.973C19.6356 17.8827 19.5209 17.7194 19.3997 17.7143C18.7679 17.6877 18.1345 17.7023 17.5017 17.6998C17.3614 17.6993 17.2212 17.6878 17.0612 17.6804C17.0612 17.2923 17.0612 16.935 17.0612 16.5487C17.1876 16.5424 17.3044 16.5315 17.4212 16.5314C18.269 16.531 19.1167 16.5295 19.9645 16.5345C20.9638 16.5404 21.5092 17.4611 21.0288 18.3587C20.9091 18.5823 20.9164 18.6962 21.0959 18.8782C21.6158 19.4054 21.4767 20.4136 20.8515 20.8149C20.7529 20.8782 20.6521 20.9383 20.5524 20.9999C19.3567 21 18.1608 21 16.965 21Z" fill="#18232E"/>
<path d="M11.0098 21C11.1797 20.5781 11.3392 20.1515 11.5217 19.7352C11.9478 18.7634 12.3895 17.7985 12.8143 16.826C12.9085 16.6105 13.0299 16.5093 13.2723 16.5213C13.6772 16.5414 14.0849 16.5115 14.4884 16.5435C14.6203 16.554 14.807 16.6613 14.8593 16.7757C15.5013 18.1783 16.1229 19.5904 16.7498 21.0001C16.2237 21.0001 15.6974 21.0001 15.1713 21.0001C15.1257 20.5374 15.0765 20.4887 14.6409 20.4875C14.1299 20.4861 13.6169 20.515 13.1085 20.4781C12.7024 20.4487 12.5509 20.6359 12.5165 21.0001C12.0143 21 11.5121 21 11.0098 21ZM14.5762 19.3104C14.3699 18.8054 14.1921 18.3473 13.9945 17.8981C13.9176 17.7236 13.7909 17.7329 13.7164 17.9085C13.5245 18.3609 13.3438 18.8183 13.1437 19.3104C13.6285 19.3104 14.0641 19.3104 14.5762 19.3104Z" fill="#18232E"/>
<path d="M8.4273 20.9998C8.56986 20.6466 8.7125 20.2935 8.8672 19.9103C8.50472 19.939 8.34041 19.7251 8.18457 19.4585C7.69122 18.6147 7.17828 17.7825 6.67416 16.9451C6.60693 16.8334 6.54659 16.7174 6.44141 16.5286C6.95513 16.5286 7.4124 16.5165 7.86801 16.5392C7.95561 16.5436 8.05822 16.6707 8.11705 16.7649C8.44932 17.2973 8.76969 17.8372 9.09586 18.3734C9.16926 18.4941 9.24977 18.6104 9.37676 18.805C9.56389 18.4535 9.72116 18.1653 9.87162 17.8735C10.0597 17.5089 10.2358 17.1378 10.4313 16.7773C10.4824 16.683 10.5828 16.5546 10.6661 16.5503C11.1026 16.5275 11.5407 16.5396 12.039 16.5396C11.6628 17.2954 11.316 17.9937 10.9677 18.6911C10.6388 19.3498 10.3065 20.0067 9.98032 20.6667C9.92859 20.7714 9.90104 20.8884 9.86229 20.9997C9.38394 20.9998 8.90558 20.9998 8.4273 20.9998Z" fill="#18232E"/>
<path d="M27.9624 6.00124C28.0951 6.33634 27.8486 6.39246 27.6596 6.47386C26.0772 7.15555 24.4931 7.83303 22.9099 8.51269C21.3159 9.19694 19.7253 9.8897 18.1255 10.5596C17.8625 10.6697 17.7783 10.8073 17.7599 11.0886C17.598 13.5563 15.6314 15.309 13.2065 15.1652C11.0872 15.0396 9.30561 13.1379 9.28889 10.9834C9.28803 10.8743 9.27361 10.7623 9.29219 10.6565C9.33395 10.4198 9.22324 10.3157 9.01954 10.2284C7.27129 9.47853 5.52712 8.71908 3.78166 7.96247C2.62915 7.46277 1.47584 6.96496 0.324759 6.46177C0.149905 6.38533 -0.0747439 6.32745 0.0242709 6C0.847241 6.28887 1.65428 6.57235 2.46147 6.85562C6.18399 8.16172 9.90544 9.47089 13.632 10.765C13.8263 10.8325 14.0833 10.83 14.2782 10.7624C18.6614 9.24477 23.0398 7.71342 27.4192 6.18491C27.5979 6.1226 27.7776 6.06363 27.9624 6.00124ZM17.2947 10.6438C16.5034 11.5653 15.3017 11.6909 14.3087 12.2212C13.8779 12.4512 11.251 12.2241 10.9435 11.9459C11.7665 11.6549 12.5693 11.371 13.3721 11.087C13.3738 11.0503 13.3754 11.0136 13.3771 10.9769C12.0319 11.4912 10.8087 11.3881 9.78023 10.3065C9.47415 11.5328 10.1337 13.1594 11.2561 13.9794C12.5636 14.9345 14.246 14.9983 15.567 14.1427C16.768 13.3647 17.5212 11.8394 17.2947 10.6438Z" fill="#18232E"/>
<path d="M17.0672 9.36632C16.6861 9.34338 16.466 9.16612 16.265 8.8731C14.9969 7.02354 12.33 6.91747 10.9235 8.66059C10.7116 8.92318 10.4924 9.08866 10.165 9.10489C10.4044 8.08729 11.9068 7.07275 13.333 6.96777C14.8936 6.8529 16.4982 7.87544 17.0672 9.36632Z" fill="#18232E"/>
</g>
<defs>
<clipPath id="clip0_630_14494">
<rect width="28" height="28" fill="white"/>
</clipPath>
</defs>
</svg>
