<svg width="28" height="28" viewBox="0 0 28 28" fill="none" xmlns="http://www.w3.org/2000/svg">
<path d="M26.5182 22.5836C26.5738 22.6072 26.6039 22.6337 26.6335 22.6337C27.1027 22.6247 27.2781 22.9129 27.3985 23.318C27.5453 23.8128 27.7494 24.2905 27.9263 24.7772C27.9568 24.8817 27.9814 24.9878 28 25.0951C27.6336 25.0951 27.3022 25.1046 26.9719 25.088C26.8957 25.084 26.8175 24.9968 26.7523 24.9377C26.5212 24.7201 26.3092 24.4805 26.0655 24.279C25.4775 23.7932 25.1707 23.126 24.8444 22.4668C24.4629 21.6838 24.0619 20.9128 23.6709 20.1378C23.1786 19.1623 22.4703 18.4003 21.4883 17.9001C21.0145 17.6574 20.5529 17.3953 20.0064 17.101C20.0486 17.4945 20.0726 17.8214 20.1217 18.1447C20.1784 18.5186 20.1759 18.5262 19.8255 18.6866C18.5181 19.2841 17.3601 20.0852 16.4227 21.188C15.9826 21.7063 15.6913 22.3034 15.4873 22.9425C15.4277 23.13 15.3455 23.2283 15.1364 23.2082C14.9103 23.1861 14.7805 23.2704 14.778 23.53C14.7755 23.8042 14.7224 24.0779 14.7093 24.3526C14.6868 24.8229 14.4121 25.0971 13.9439 25.0971H12.5322C12.5954 24.8965 12.6435 24.7206 12.7042 24.5507C12.837 24.1817 12.9759 23.8148 13.1127 23.4478C13.3162 22.9004 13.6436 22.4342 14.015 21.9876C14.9259 20.8993 15.8317 19.8055 16.7085 18.6896C17.1942 18.071 17.1626 18.0524 16.5967 17.505C16.3626 17.279 16.1555 17.0248 15.9189 16.8032C15.8332 16.723 15.6964 16.6468 15.5856 16.6503C13.602 16.716 11.663 17.0464 9.81424 17.7772C9.22422 18.0108 8.76153 18.0113 8.33042 17.5306C8.28222 17.4842 8.22949 17.4427 8.17302 17.4068C8.15345 17.3966 8.13276 17.3886 8.11136 17.3832L6.36637 19.2475L6.39093 19.3162C6.70123 19.2992 7.01454 19.3007 7.32183 19.2601C7.5845 19.2255 7.76597 19.2946 7.92337 19.5107C8.15547 19.837 8.41514 20.1438 8.65876 20.4631C8.72661 20.5683 8.78902 20.6769 8.84575 20.7885C7.60957 20.7684 6.43154 20.9043 5.31066 20.2737C5.22193 20.3664 5.10062 20.4682 5.00988 20.5925C4.5487 21.2356 4.08651 21.8788 3.64537 22.5355C3.53208 22.7034 3.47343 22.916 3.4233 23.117C3.37668 23.3055 3.28645 23.3967 3.09396 23.3651C2.82877 23.3215 2.69292 23.4278 2.6057 23.6859C2.45706 24.0937 2.28757 24.4936 2.09789 24.884C2.05579 24.9732 1.93949 25.0845 1.85477 25.0845C1.27027 25.1006 0.685262 25.0905 0.100258 25.0875C0.0782011 25.0875 0.0561444 25.0685 0 25.0434C0.0309489 24.9631 0.0660873 24.8845 0.105271 24.8078C0.600624 23.9576 1.18471 23.1623 1.84775 22.4352C2.71699 21.4763 3.45889 20.3965 4.29404 19.3117C4.13363 19.1814 4.0068 19.1001 3.90655 18.9939C3.17216 18.2174 2.44579 17.4339 1.7104 16.6584C1.51389 16.4513 1.48632 16.2393 1.57204 15.9716C1.8683 15.0472 1.86229 15.0487 2.81524 14.9274C3.43584 14.8482 4.05543 14.757 4.67502 14.6697C4.72812 14.6562 4.78034 14.6395 4.83142 14.6196C4.57176 14.4071 4.33415 14.2161 4.10054 14.0211C3.56467 13.5744 3.57469 13.4787 3.83737 12.826C4.46749 11.259 5.61995 10.1486 6.93383 9.1666C7.45317 8.7781 7.95646 8.36704 8.53344 7.91338C8.04218 7.83918 7.63112 7.76299 7.21205 7.71687C6.57641 7.64719 6.57541 7.65571 6.417 7.03813C6.22501 6.2897 6.31674 6.14132 7.08221 6.016C7.4276 5.95885 7.77499 5.9002 8.12389 5.87664C8.56051 5.84656 8.94199 5.69116 9.32698 5.49716C9.58966 5.36582 9.90948 5.34678 10.2544 5.26757C10.104 5.15278 9.9536 5.01994 9.78867 4.91667C9.43476 4.69711 9.06932 4.49609 8.7129 4.28003C8.62418 4.22639 8.55249 4.14368 8.45273 4.05646L9.15805 3.55216C9.47737 3.74014 9.77614 3.94166 10.0965 4.09806C10.9276 4.50461 11.7663 4.59133 12.6179 4.12814C12.7182 4.0745 12.9448 4.10458 13.019 4.18379C13.416 4.6154 13.9063 4.60938 14.386 4.45849C14.768 4.33818 15.1249 4.12163 15.4708 3.91108C15.6713 3.78727 15.8503 3.72912 16.0433 3.8765C16.4884 4.21687 16.9731 4.21687 17.4699 4.04292C18.1416 3.80782 18.664 3.34864 19.1543 2.85487C19.3773 2.63029 19.5668 2.37313 19.7779 2.13652C19.828 2.07937 19.9042 2.00719 19.9693 2.00619C20.7609 1.99716 21.5524 2.00067 22.4181 2.00067C22.2763 2.17713 22.1785 2.31598 22.0642 2.4393C21.0145 3.57271 19.7423 4.35773 18.284 4.85351C16.4443 5.47862 14.5479 5.61898 12.6235 5.53125C12.5407 5.52724 12.458 5.53125 12.3573 5.53125V5.75934C12.839 5.63351 13.3042 5.60895 13.7609 5.75132C13.9985 5.824 14.2231 5.93729 14.4527 6.03454C14.6502 6.11876 14.6296 6.23907 14.5178 6.38846C14.1133 6.92985 13.5699 7.12685 12.9137 7.04815C12.84 7.03963 12.7668 7.0266 12.7087 7.01757C12.4295 8.45276 11.6439 9.65535 11.0118 10.9241C10.9727 11.0033 10.9301 11.081 10.8559 11.2249C11.2885 11.2249 11.6695 11.2249 12.05 11.2249C14.3379 11.2144 16.6263 11.2078 18.9146 11.1888C19.3011 11.1858 19.6606 11.2424 19.9954 11.4394C20.7719 11.8966 21.5524 12.3463 22.3259 12.809C22.6663 13.0125 22.8929 13.3243 23.0493 13.6837C23.1786 13.9795 23.0658 14.1529 22.7485 14.1735C22.2076 14.2086 22.1921 14.2106 22.2713 14.7439C22.4347 15.8468 22.945 16.6914 24.0604 17.0619C24.2559 17.1271 24.291 17.2699 24.302 17.4514C24.3521 18.3076 24.4835 19.1493 24.8845 19.9198C25.277 20.6717 25.7547 21.367 26.4731 21.8552C26.648 21.9745 26.6916 22.1159 26.6205 22.3064C26.5849 22.3901 26.5568 22.4768 26.5182 22.5836ZM22.941 13.9078C22.8989 13.801 22.8858 13.7033 22.8317 13.6411C22.6197 13.398 22.4307 13.1112 22.1675 12.9393C21.4622 12.4806 20.7198 12.0781 19.9984 11.643C19.5974 11.3998 19.1678 11.3422 18.7036 11.3507C17.0493 11.3818 15.3951 11.3943 13.7433 11.4039C12.0916 11.4134 10.4308 11.3176 8.77256 11.5417C7.78301 11.6756 7.00752 11.9848 6.45159 12.8325C6.09016 13.3839 5.66156 13.8887 5.27406 14.4221C5.2104 14.5098 5.20238 14.6382 5.15626 14.7881C4.42989 14.8808 3.63284 14.9655 2.84131 15.0888C1.81015 15.2482 2.03072 15.0522 1.6713 16.0513C1.61515 16.2077 1.63922 16.3315 1.75 16.4644C2.81863 17.7492 4.00113 18.9349 5.28308 20.007C5.65003 20.3133 6.07262 20.5083 6.55285 20.5514C7.01855 20.5915 7.48525 20.6155 7.95195 20.6416C8.11286 20.6506 8.27478 20.6416 8.45324 20.6416C8.36852 20.423 8.25272 20.3343 8.04268 20.3489C7.81008 20.3649 7.57448 20.3353 7.34088 20.3489C6.3383 20.4045 5.51268 20.016 4.82591 19.3197C3.96971 18.4515 3.14258 17.5572 2.28337 16.6919C1.99162 16.3977 1.92144 16.124 2.09238 15.7395C2.18662 15.5285 2.28337 15.4157 2.51296 15.3886C3.30099 15.3039 4.08801 15.2051 4.87554 15.1159C5.15977 15.0833 5.4455 15.0658 5.80493 15.0307L5.41693 14.7299C6.0686 13.978 6.69722 13.2541 7.32985 12.5343C7.56969 12.2607 7.90825 12.0934 8.27127 12.0691C9.07734 12.0004 9.88392 11.9081 10.6915 11.8876C13.413 11.8179 16.1355 11.7733 18.8575 11.7262C19.045 11.7227 19.2585 11.7297 19.4184 11.8109C20.3515 12.2768 21.2759 12.7588 22.1916 13.2571C22.361 13.3499 22.4668 13.5579 22.6332 13.7489C21.5013 14.0045 20.6095 14.4853 20.0621 15.4533C19.5919 16.2859 19.5227 18.0514 19.9899 18.4981C19.7939 17.4033 19.7538 16.3726 20.3238 15.4402C20.9098 14.4873 21.8061 14.0106 22.941 13.9078ZM8.07627 17.112C8.29483 17.29 8.48482 17.4258 8.65175 17.5862C8.91442 17.8369 9.18061 17.8574 9.51747 17.7206C11.0745 17.0875 12.7027 16.7416 14.3715 16.5757C14.7981 16.5335 15.2262 16.5075 15.6673 16.4724C15.567 16.2528 15.4713 16.0598 15.3906 15.8603C15.3002 15.654 15.2253 15.4412 15.1665 15.2237C15.1249 15.0507 15.0382 15.0232 14.8833 15.0357C14.4822 15.0728 14.0837 15.0913 13.6852 15.1289C11.5617 15.3294 9.56309 15.8869 7.79003 17.1566C6.40597 16.4157 4.88256 16.2117 3.306 16.2543C4.89709 16.319 6.44457 16.5551 7.86773 17.4213L8.07627 17.112ZM3.82333 13.4922L3.87346 13.4952C3.98976 13.3273 4.0815 13.1328 4.22737 12.9939C4.83594 12.424 5.43046 11.8355 6.08565 11.3206C7.16091 10.4745 8.2818 9.68794 9.3731 8.86181C9.90647 8.45828 10.4123 8.01915 10.7532 7.42763C10.9106 7.15392 10.8238 7.02158 10.5135 7.02158C9.92953 7.02158 9.34453 7.03813 8.76253 7.00354C8.10534 6.96494 7.45016 6.88222 6.79598 6.80302C6.71677 6.7935 6.58192 6.68121 6.58944 6.63358C6.60498 6.52831 6.68519 6.42655 6.75788 6.33933C6.78795 6.30374 6.86666 6.30474 6.9238 6.29722C7.17996 6.26363 7.43712 6.23606 7.69328 6.20047C8.23468 6.12478 8.80464 6.15535 9.28086 5.81899C9.6072 5.5884 9.96863 5.53626 10.3526 5.56434C10.4198 5.56885 10.487 5.57085 10.5531 5.57436C10.1356 5.45505 9.71398 5.40543 9.3335 5.65407C8.943 5.90872 8.5179 6.0155 8.06073 6.05259C7.65368 6.08568 7.24613 6.1323 6.8441 6.20298C6.51626 6.26012 6.42402 6.41302 6.48117 6.73886C6.50974 6.90228 6.5734 7.05918 6.6095 7.2216C6.64559 7.38402 6.73582 7.43264 6.88972 7.45018C7.29576 7.4963 7.7013 7.55044 8.10434 7.61762C8.34295 7.65672 8.57705 7.72589 8.81316 7.78154L8.82018 7.86174C8.72393 7.94897 8.6317 8.0412 8.53044 8.12241C7.87024 8.65629 7.21856 9.2042 6.5323 9.7105C5.36543 10.5608 4.46477 11.7258 3.93562 13.0691C3.88959 13.2077 3.85209 13.349 3.82333 13.4922ZM12.7588 24.8925C13.0215 24.9798 13.1704 24.9226 13.2215 24.665C13.2456 24.5431 13.3037 24.4283 13.3358 24.3075C13.595 23.337 14.1003 22.5239 14.7665 21.7645C15.6893 20.7118 16.532 19.5894 17.3817 18.476C17.7326 18.0149 17.6895 17.9422 17.2423 17.5857C16.4563 16.9591 15.7485 16.2724 15.4918 15.2472C15.4743 15.1776 15.4006 15.1224 15.353 15.0608C15.4718 15.6743 15.6538 16.2453 16.0783 16.697C16.4145 17.0559 16.7619 17.4039 17.1205 17.7411C17.301 17.9101 17.324 18.0655 17.1862 18.2615C16.9746 18.5623 16.7852 18.8796 16.5551 19.1638C15.6733 20.2426 14.781 21.3128 13.8882 22.3826C13.2761 23.115 13.0706 24.0238 12.7588 24.8925ZM20.5498 2.23177C20.2576 2.15557 20.0781 2.21673 19.9052 2.42777C19.3287 3.13258 18.6645 3.73914 17.8023 4.08202C17.2228 4.31262 16.6408 4.36174 16.0553 4.071C15.959 4.02087 15.8001 4.05195 15.6883 4.09305C15.2287 4.26199 14.786 4.49007 14.3183 4.6189C14.1 4.6827 13.8698 4.69544 13.6458 4.65615C13.4217 4.61687 13.2096 4.5266 13.026 4.39232C12.8671 4.27703 12.7322 4.27502 12.5638 4.3462C11.7918 4.67204 11.0098 4.6545 10.2499 4.33267C9.86938 4.17226 9.51747 3.94417 9.13148 3.73513L8.66528 4.08252L8.72243 4.15872L9.16106 3.86898C9.19715 3.89103 9.22622 3.90758 9.2538 3.92612C10.32 4.66402 11.4675 4.90213 12.7262 4.50812C12.82 4.47904 12.9543 4.51865 13.0501 4.56577C13.4511 4.76628 13.8797 4.86654 14.3128 4.76177C14.8201 4.63845 15.3109 4.44696 15.8117 4.29457C15.9149 4.26299 16.0423 4.23943 16.139 4.27101C16.617 4.4339 17.1333 4.44684 17.6188 4.3081C18.8274 3.96673 19.7007 3.15364 20.5498 2.23177ZM26.4761 22.1079C26.4856 22.0768 26.4946 22.0457 26.5042 22.0146C25.4895 21.395 24.8765 20.4647 24.5311 19.3618C24.3486 18.7778 24.2659 18.1622 24.1466 17.5572C24.1105 17.3752 24.109 17.1937 23.8799 17.1266C23.1024 16.899 22.5906 16.3691 22.2998 15.6367C22.1354 15.2232 22.0452 14.7795 21.9209 14.3469C21.7239 14.3735 21.6772 14.4973 21.7374 14.6978C21.7905 14.8733 21.8211 15.0552 21.8753 15.2302C22.153 16.1215 22.5906 16.897 23.5125 17.2549C23.8278 17.3772 23.9456 17.5657 23.9787 17.8785C24.0927 18.9449 24.4705 19.9662 25.078 20.8501C25.3933 21.3178 25.7728 21.7254 26.2515 22.0312C26.3177 22.0748 26.4004 22.0838 26.4761 22.1079ZM5.81495 16.7356L3.65339 16.508L3.62683 16.5932C3.92409 17.2098 4.35269 17.7231 4.88005 18.2013L5.81495 16.7356ZM0.295259 24.9021C0.561444 24.9843 0.662704 24.8795 0.775995 24.682C1.05981 24.1747 1.37385 23.6849 1.71641 23.2152C2.01719 22.8097 2.4117 22.4723 2.71899 22.0713C3.21276 21.4306 3.67144 20.7624 4.14215 20.1042C4.26196 19.9363 4.37425 19.7628 4.49656 19.5829L4.30306 19.4275C4.14566 19.6661 4.00229 19.8912 3.8519 20.1102C3.18519 21.0792 2.5661 22.0883 1.67631 22.8774C1.04669 23.4368 0.704311 24.1742 0.295259 24.9021ZM12.5668 5.95935C13.1122 5.84656 13.5794 5.91674 14.0536 6.19045C13.5393 6.5614 13.0009 6.47067 12.4575 6.40149C12.8536 6.97246 13.9078 6.80252 14.2531 6.33782C14.2822 6.29872 14.2592 6.17491 14.2176 6.13731C13.8631 5.80896 13.0576 5.71422 12.5668 5.95935ZM5.1723 18.4279C5.52771 17.9086 5.86408 17.4173 6.20095 16.924L6.15082 16.8383C6.05056 16.8694 5.90769 16.8689 5.85856 16.9386C5.55077 17.3637 5.26404 17.8038 4.96276 18.25L5.1723 18.4279ZM27.811 24.9888C27.8245 24.8845 27.8361 24.8584 27.8291 24.8384C27.6045 24.2113 27.3779 23.5852 27.1468 22.9596C27.117 22.8952 27.0629 22.8453 26.9964 22.8207C26.8544 22.7729 26.708 22.7393 26.5593 22.7205C26.5001 22.7129 26.434 22.7585 26.3713 22.7796C26.469 22.8484 26.5824 22.8913 26.7012 22.9044C26.9343 22.927 27.0581 23.0383 27.1318 23.2709C27.2872 23.7626 27.4777 24.2439 27.6586 24.7276C27.6842 24.8013 27.7358 24.864 27.811 24.9888ZM10.3205 5.9774C10.0198 5.77688 9.6433 5.80896 9.44128 6.05359C9.67488 6.31727 10.1822 6.31827 10.3205 5.9774Z" fill="black"/>
</svg>
