<svg width="28" height="28" viewBox="0 0 28 28" fill="none" xmlns="http://www.w3.org/2000/svg">
<g clip-path="url(#clip0_630_14672)">
<path d="M13.1464 15.0774C12.7229 12.2914 11.8903 9.6453 10.1971 7.33168C12.1882 5.57462 15.3923 5.55088 17.8199 7.29266C16.1425 9.59475 15.2906 12.2218 14.8478 15.0041C15.101 14.311 15.3397 13.6122 15.6103 12.926C16.2921 11.1964 17.2425 9.63294 18.5551 8.29345C19.1921 7.64343 19.915 7.40403 20.8224 7.64676C22.9988 8.22902 25.0974 8.9968 27.0585 10.1079C28.0321 10.6596 28.1336 10.8855 27.8845 11.9392C27.6629 12.8763 27.4059 13.8053 27.1868 14.7429C26.6413 17.0783 25.2049 18.7086 22.978 19.5069C21.383 20.0787 19.6959 20.4841 18.0152 20.7177C14.5242 21.2026 11.0245 21.0518 7.56574 20.3515C5.89539 20.0133 4.3294 19.4083 2.98195 18.3188C1.9935 17.5196 1.33538 16.5153 0.991483 15.3164C0.656684 14.1489 0.386242 12.9636 0.0693515 11.791C-0.118544 11.0955 0.0683722 10.5982 0.715725 10.2303C2.77698 9.05929 4.96164 8.21097 7.2648 7.63621C8.13223 7.41972 8.79735 7.66453 9.40133 8.26415C11.0629 9.91372 12.0955 11.9217 12.8296 14.1034C12.9385 14.427 13.041 14.7527 13.1464 15.0774ZM15.3967 19.4848C15.8667 19.4501 16.2788 19.4215 16.6904 19.3891C18.8282 19.2206 20.8568 18.6754 22.5981 17.4082C23.2862 16.9076 23.9583 16.2494 24.3436 15.512C24.8017 14.6354 24.9819 13.6052 25.2101 12.6249C25.4049 11.7876 25.1877 11.3657 24.346 11.1841C23.6224 11.028 22.8049 10.9322 22.1031 11.105C18.2211 12.0608 15.5577 15.4133 15.3967 19.4848ZM12.644 19.4668C12.5546 18.9001 12.5085 18.4 12.394 17.9159C11.5563 14.3738 9.41756 12.0092 5.8376 11.0905C5.10813 10.9033 4.24867 11.1148 3.46869 11.252C2.89031 11.3536 2.64673 11.8184 2.76971 12.4065C2.90542 13.0557 3.07205 13.6983 3.21126 14.3468C3.5073 15.7256 4.30086 16.7188 5.48322 17.4959C7.62772 18.9052 10.0145 19.3741 12.644 19.4668Z" fill="#18232E"/>
</g>
<defs>
<clipPath id="clip0_630_14672">
<rect width="28" height="28" fill="white"/>
</clipPath>
</defs>
</svg>
