<svg width="28" height="28" viewBox="0 0 28 28" fill="none" xmlns="http://www.w3.org/2000/svg">
<path d="M28 8C26.9689 8.58205 25.9398 9.16811 24.906 9.74616C23.5828 10.4879 22.2554 11.2263 20.9238 11.9614C20.8196 12.0196 20.718 12.0837 20.561 12.1786L22.7081 12.7446L14.0421 19.0349L5.31666 12.7446L7.48916 12.1753C7.33747 12.0891 7.2399 12.0316 7.14033 11.9748C4.85979 10.7176 2.57903 9.45948 0.298043 8.20048C0.194463 8.14033 0.0989022 8.06683 0 8H4.13317C4.1928 8.02691 4.25394 8.05034 4.31628 8.07017C7.47535 8.86985 10.6351 9.66619 13.7955 10.4592C13.9874 10.4996 14.1862 10.4941 14.3756 10.4432C16.6338 9.87691 18.8899 9.30422 21.1437 8.72506C22.0525 8.49184 22.9593 8.24191 23.8675 8H28ZM9.17518 13.0159C9.21284 13.0516 9.25304 13.0844 9.29547 13.1142C10.8198 13.9321 12.3427 14.7521 13.8737 15.5573C13.9719 15.6088 14.151 15.5867 14.2566 15.5306C15.7268 14.7514 17.1896 13.9609 18.6537 13.171C18.7206 13.1336 18.7841 13.0814 18.8769 13.0166L16.5654 12.2575L25.1265 8.72439L25.1018 8.59408C24.3473 8.66625 23.5594 8.62415 22.8444 8.83198C19.9916 9.66062 17.1642 10.5695 14.3214 11.4382C14.1453 11.4906 13.958 11.4927 13.7808 11.4442C11.4352 10.7354 9.09276 10.0177 6.75341 9.29107C5.56792 8.92353 4.39647 8.49317 3.11876 8.66425C3.04325 8.67427 2.96706 8.68095 2.81737 8.69766L11.5007 12.2581L9.17518 13.0159Z" fill="black"/>
</svg>
