<svg width="28" height="28" viewBox="0 0 28 28" fill="none" xmlns="http://www.w3.org/2000/svg">
<g clip-path="url(#clip0_630_14512)">
<path d="M14.7497 28C14.2518 28 13.7539 28 13.256 28C13.1806 27.9862 13.1056 27.9646 13.0296 27.9595C11.5596 27.8622 10.1304 27.563 8.78114 26.9751C3.87679 24.8382 0.987957 21.1256 0.135212 15.8446C0.0748531 15.4707 0.0443695 15.0921 0 14.7157C0 14.2185 0 13.7213 0 13.2241C0.0512891 12.7858 0.0871493 12.3451 0.156252 11.9097C0.707901 8.43423 2.30198 5.52292 5.01216 3.27531C8.33539 0.519294 12.1667 -0.481909 16.43 0.213059C18.4382 0.540397 20.2739 1.3138 21.9563 2.454C22.3204 2.70075 22.7205 2.66289 23.038 2.35656C23.1331 2.26481 23.2266 2.17144 23.3188 2.07684C23.6454 1.74148 23.6109 1.37828 23.2229 1.11902C22.8612 0.877306 22.4936 0.64442 22.1325 0.401964C22.0412 0.340707 21.9646 0.257694 21.8812 0.184672C21.8864 0.160487 21.8916 0.136349 21.8968 0.112164C21.9962 0.0883525 22.0955 0.0440445 22.195 0.043811C23.8982 0.0394689 25.6014 0.0374613 27.3047 0.0426438C27.7091 0.0438577 27.996 0.334264 27.9971 0.738592C28.0017 2.41618 28.0004 4.09377 27.9959 5.77131C27.9957 5.87734 27.9498 5.98319 27.9251 6.08917C27.9003 6.09463 27.8755 6.10014 27.8506 6.1056C27.7766 6.02324 27.6925 5.94775 27.6303 5.85722C27.4061 5.53077 27.1936 5.19633 26.9684 4.87063C26.8068 4.63686 26.5783 4.55856 26.3419 4.63737C25.9466 4.76917 25.56 5.32132 25.6366 5.72201C25.6967 6.03613 25.7832 6.36627 25.946 6.63641C27.2287 8.76478 27.9227 11.0663 27.9903 13.5453C28.0739 16.6115 27.2651 19.4346 25.4965 21.9462C23.1456 25.2847 19.9337 27.2677 15.8797 27.8649C15.5046 27.9202 15.1264 27.9555 14.7497 28ZM23.233 11.0548C22.1632 7.4672 18.4453 3.97686 13.2907 4.33044C10.9554 4.49063 8.93716 5.41353 7.24995 7.03509C6.08292 8.15666 5.25622 9.49346 4.75361 11.0548C10.9297 11.0548 17.0709 11.0548 23.233 11.0548ZM4.77512 16.9473C5.76813 20.3335 9.22553 23.7048 14.0375 23.6868C18.8507 23.6688 22.26 20.2707 23.2256 16.9473C17.0745 16.9473 10.927 16.9473 4.77512 16.9473ZM23.9086 15.656C24.5112 15.6489 25.0825 15.5027 25.5709 15.1152C26.3626 14.487 26.3567 13.4955 25.5642 12.8698C24.6779 12.1701 23.2171 12.1559 22.3182 12.8382C21.4718 13.4806 21.4734 14.5218 22.3257 15.159C22.7901 15.5063 23.3224 15.6492 23.9086 15.656ZM9.64927 15.6536C10.5077 15.6523 11.1222 15.4457 11.5555 15.0792C12.2651 14.479 12.2811 13.5895 11.5932 12.9839C10.6982 12.1959 9.07022 12.1812 8.16258 12.9528C7.45202 13.557 7.43584 14.424 8.13182 15.0477C8.61806 15.4836 9.20683 15.6461 9.64927 15.6536ZM19.3668 14.7885C18.9875 14.1395 18.6317 13.5306 18.2509 12.8788C18.5482 12.8788 18.7858 12.8788 19.0279 12.8788C19.0279 12.7356 19.0279 12.6156 19.0279 12.4887C17.9841 12.4887 16.9545 12.4887 15.9192 12.4887C15.9192 12.6228 15.9192 12.7429 15.9192 12.888C16.0859 12.888 16.2411 12.9019 16.3927 12.8844C16.5856 12.8622 16.6793 12.9456 16.7653 13.111C17.1624 13.8749 17.5763 14.63 17.9771 15.392C18.0434 15.518 18.1187 15.5678 18.2642 15.5644C18.7071 15.5541 19.1505 15.554 19.5933 15.5645C19.74 15.5679 19.8129 15.5146 19.8787 15.3895C20.2863 14.6136 20.7049 13.8434 21.1122 13.0673C21.1825 12.9331 21.2619 12.8708 21.418 12.8847C21.5857 12.8995 21.7556 12.888 21.9364 12.888C21.9364 12.7414 21.9364 12.6212 21.9364 12.4918C21.2175 12.4918 20.5081 12.4918 19.8032 12.4918C19.8032 12.6293 19.8032 12.7493 19.8032 12.8929C19.9779 12.8929 20.1365 12.8929 20.3369 12.8929C20.009 13.5338 19.6998 14.138 19.3668 14.7885ZM1.85393 12.888C2.0237 12.888 2.17915 12.9022 2.33082 12.8844C2.5241 12.8616 2.61883 12.9465 2.70425 13.1104C3.09894 13.8673 3.51066 14.6154 3.9047 15.3726C3.98105 15.5193 4.06848 15.5683 4.22899 15.5642C4.6487 15.5536 5.06911 15.5521 5.48868 15.5648C5.6583 15.57 5.75153 15.5202 5.83134 15.366C6.18452 14.6838 6.57173 14.0184 6.90551 13.3271C7.06793 12.9907 7.2564 12.8053 7.64268 12.8853C7.71468 12.9002 7.79369 12.8813 7.88042 12.8775C7.88042 12.7407 7.88042 12.6206 7.88042 12.4917C7.16088 12.4917 6.45097 12.4917 5.7469 12.4917C5.7469 12.6291 5.7469 12.7495 5.7469 12.8935C5.93756 12.8935 6.11153 12.8935 6.32207 12.8935C5.97562 13.538 5.64802 14.1473 5.3047 14.786C4.92782 14.1427 4.5723 13.5358 4.19093 12.8849C4.47683 12.8849 4.71855 12.8849 4.96424 12.8849C4.96424 12.7323 4.96424 12.6124 4.96424 12.4906C3.91807 12.4906 2.88832 12.4906 1.85393 12.4906C1.85393 12.6267 1.85393 12.7466 1.85393 12.888ZM16.6601 15.5491C16.6601 15.0709 16.6601 14.6166 16.6601 14.1647C16.2804 14.1146 16.2793 14.1142 16.1604 14.4413C16.067 14.698 15.8881 14.8751 15.6393 14.9739C15.2594 15.1247 14.8665 15.0475 14.478 15.0488C14.478 14.3151 14.478 13.6125 14.478 12.8841C14.7203 12.8841 14.9491 12.8841 15.1899 12.8841C15.1899 12.7385 15.1899 12.6189 15.1899 12.4938C14.2191 12.4938 13.262 12.4938 12.309 12.4938C12.309 12.6327 12.309 12.7523 12.309 12.8974C12.5566 12.8974 12.7852 12.8974 13.0166 12.8974C13.0166 13.6262 13.0166 14.3291 13.0166 15.0598C12.7764 15.0598 12.5476 15.0598 12.3047 15.0598C12.3047 15.2377 12.3047 15.3876 12.3047 15.5491C13.7603 15.5491 15.2021 15.5491 16.6601 15.5491Z" fill="#18232E"/>
<path d="M23.0512 13.9738C23.1471 13.6866 23.1992 13.3888 23.3396 13.1408C23.6001 12.6805 24.1141 12.6776 24.4278 13.1025C24.7665 13.5611 24.7771 14.3533 24.4508 14.8179C24.1292 15.2757 23.5866 15.2697 23.3171 14.7785C23.1871 14.5416 23.1419 14.2585 23.0512 13.9738Z" fill="#18232E"/>
<path d="M10.6333 14.0049C10.6126 14.3459 10.54 14.667 10.3005 14.9259C10.0131 15.2366 9.60377 15.2234 9.33073 14.8987C8.95614 14.4531 8.95576 13.5418 9.32998 13.0946C9.60934 12.7609 10.0261 12.7535 10.3149 13.0814C10.5473 13.3452 10.6172 13.667 10.6333 14.0049Z" fill="#18232E"/>
</g>
<defs>
<clipPath id="clip0_630_14512">
<rect width="28" height="28" fill="white"/>
</clipPath>
</defs>
</svg>
