<svg width="28" height="28" viewBox="0 0 28 28" fill="none" xmlns="http://www.w3.org/2000/svg">
<path d="M13.9595 22.3934C13.6613 22.3353 13.3437 22.2698 13.0253 22.2108C12.6867 22.1486 12.3456 22.092 12.0062 22.0314L10.7754 21.8067C10.6057 21.776 10.436 21.7437 10.2654 21.717C9.71508 21.6297 9.16311 21.5481 8.61275 21.4576C8.15533 21.3827 7.69738 21.3019 7.23889 21.2151C6.71197 21.1174 6.18828 21.0075 5.65894 20.9137C5.27264 20.845 4.88311 20.7998 4.49762 20.7319C4.13234 20.668 3.77028 20.5872 3.40742 20.5161C3.23771 20.483 3.06799 20.4531 2.89747 20.4248C2.37379 20.3383 1.84687 20.2583 1.32642 20.167C0.90941 20.0934 0.49321 20.0126 0.0802422 19.9189C0.0398345 19.91 -0.0159283 19.7718 0.00427561 19.7233C0.214396 19.2247 0.439872 18.7317 0.658882 18.2371C1.001 17.4677 1.34204 16.6978 1.68201 15.9274C1.9293 15.3673 2.1669 14.8024 2.4247 14.2464C2.45218 14.1866 2.57421 14.1406 2.6526 14.1397C3.43894 14.1317 4.22608 14.1349 5.01242 14.1349C7.21787 14.1349 9.42333 14.1349 11.6288 14.1349C11.8357 14.1349 11.8987 14.0541 11.9391 13.8666C12.0199 13.4884 12.1355 13.1174 12.2317 12.7424C12.3238 12.3844 12.4079 12.0248 12.5 11.6668C12.5921 11.3088 12.6956 10.9306 12.7901 10.5612C12.8572 10.3002 12.917 10.0359 12.9841 9.7749C13.0778 9.41203 13.178 9.04756 13.2726 8.68793C13.3388 8.43255 13.4003 8.17636 13.4665 7.92099C13.5659 7.53954 13.6686 7.1597 13.768 6.77825C13.8302 6.54227 13.8884 6.30467 13.949 6.06789C13.957 6.04479 13.9661 6.02213 13.9765 6C13.9957 6.02116 14.0115 6.04514 14.0234 6.07112C14.1311 6.46388 14.2389 6.85691 14.3466 7.25022C14.4493 7.62358 14.5567 7.99534 14.6505 8.37113C14.7442 8.74692 14.8194 9.1316 14.9123 9.50901C15.0053 9.88642 15.1103 10.2469 15.2049 10.617C15.272 10.8788 15.3277 11.1431 15.394 11.4058C15.4893 11.7807 15.5904 12.1549 15.6873 12.5299C15.752 12.7788 15.8134 13.0285 15.8756 13.2774C15.9379 13.5264 15.9888 13.7526 16.0559 13.9862C16.0938 14.1171 16.2038 14.1292 16.3282 14.1284C18.0965 14.1284 19.8647 14.1284 21.6329 14.1284C22.85 14.1284 24.0671 14.1284 25.2842 14.1284C25.3481 14.1192 25.4132 14.1335 25.4674 14.1688C25.5215 14.204 25.561 14.2578 25.5784 14.32C26.0414 15.3843 26.5239 16.4406 26.9967 17.5009C27.3237 18.2331 27.6483 18.9666 27.9705 19.7015C28.0368 19.8518 27.9923 19.9043 27.8275 19.9318C27.4088 20.0013 26.9926 20.0829 26.5756 20.1589C26.414 20.1891 26.2505 20.2173 26.0851 20.2437C25.5412 20.3302 24.9965 20.4102 24.4534 20.5024C23.8586 20.6042 23.2662 20.7165 22.6755 20.8256C22.0847 20.9347 21.4899 21.0422 20.8975 21.1489C20.2841 21.258 19.6699 21.3647 19.0565 21.4721L17.6827 21.7146C17.2253 21.7954 16.7687 21.8762 16.3088 21.957C15.735 22.0621 15.1629 22.1712 14.5899 22.2803C14.3959 22.3183 14.1931 22.3522 13.9595 22.3934ZM7.25909 14.6093H6.27072C5.17405 14.6093 4.07819 14.6093 2.98233 14.6149C2.90151 14.6149 2.76978 14.6667 2.73988 14.7305C2.45864 15.3326 2.19438 15.9427 1.92526 16.5513C1.57937 17.3325 1.23348 18.1137 0.88759 18.8949C0.793036 19.1099 0.709796 19.3297 0.62009 19.5471C0.580491 19.6425 0.592613 19.6902 0.713836 19.6982C1.44118 19.7467 2.16852 19.799 2.89586 19.855C3.52218 19.9035 4.14769 19.9569 4.77401 20.0086C5.4534 20.0625 6.13306 20.1185 6.81299 20.1767C7.40537 20.2268 7.99774 20.2817 8.59093 20.3302C9.32393 20.39 10.0577 20.4442 10.7915 20.5032C11.0437 20.5234 11.2966 20.55 11.5488 20.571C12.2349 20.6292 12.9226 20.7052 13.608 20.7327C14.0094 20.7369 14.4107 20.717 14.8097 20.6729C15.4562 20.6236 16.1027 20.5638 16.7493 20.5112C17.3958 20.4587 18.0552 20.4046 18.7082 20.3496L20.7068 20.188C21.3461 20.1355 21.9853 20.0765 22.6246 20.0264C23.1385 19.9876 23.6541 19.9682 24.1681 19.9278C24.6821 19.8873 25.2187 19.8211 25.744 19.7807C26.2508 19.7403 26.7599 19.7184 27.2682 19.6877C27.3797 19.6805 27.4436 19.6716 27.3725 19.5196C27.1599 19.0655 26.9749 18.5975 26.7688 18.1401C26.271 17.0329 25.761 15.9314 25.2737 14.8202C25.1977 14.6473 25.1121 14.598 24.9399 14.598C22.1421 14.6028 19.3443 14.6028 16.5464 14.598C16.2547 14.598 16.2498 14.598 16.2918 14.8832C16.3153 15.0267 16.3471 15.1686 16.3872 15.3083C16.485 15.676 16.5868 16.0438 16.687 16.4115C16.7913 16.7913 16.9174 17.1671 16.9893 17.5534C17.0273 17.7546 17.1202 17.7587 17.2729 17.7579C18.7195 17.7541 20.1656 17.7519 21.6111 17.7514C21.6579 17.755 21.7049 17.755 21.7517 17.7514C21.7807 17.742 21.808 17.7281 21.8326 17.7102C21.8133 17.694 21.7928 17.6794 21.7711 17.6665C21.5424 17.5582 21.3113 17.4516 21.0842 17.3433C21.047 17.3255 21.0212 17.2835 20.9905 17.252C21.0201 17.2304 21.0521 17.2122 21.0858 17.1978C21.4164 17.0895 21.7477 16.9845 22.0774 16.8745C22.1206 16.8565 22.1625 16.8354 22.2027 16.8115C22.1552 16.7946 22.1066 16.7811 22.0572 16.7711C21.9967 16.7679 21.936 16.7679 21.8754 16.7711L18.7325 16.7234C18.6121 16.7234 18.5022 16.7186 18.5765 16.5489C18.7618 16.1313 18.9472 15.7135 19.1325 15.2954C19.1547 15.2319 19.1978 15.1778 19.2548 15.1421C19.3118 15.1064 19.3793 15.0912 19.4461 15.099C21.1674 15.1093 22.8891 15.112 24.611 15.1071C24.7726 15.1071 24.864 15.1467 24.9302 15.3059C25.0999 15.71 25.2963 16.1003 25.4717 16.5012C25.5468 16.6725 25.5792 16.8406 25.3367 16.9303C25.2373 16.9805 25.144 17.042 25.0587 17.1138C24.9019 17.2188 24.9036 17.2802 25.0757 17.3562C25.2656 17.4427 25.462 17.5178 25.6535 17.5987C25.8451 17.6795 26.0342 17.7328 26.1214 17.9462C26.2831 18.3446 26.4568 18.7406 26.6217 19.139C26.7203 19.3758 26.7171 19.3774 26.4601 19.3774H15.9896C15.8409 19.3774 15.7059 19.3903 15.7132 19.1721C15.7033 19.0743 15.6799 18.9783 15.6437 18.8869C15.6138 18.7745 15.5677 18.6727 15.4239 18.7398C15.0634 18.9071 14.7062 19.0832 14.345 19.2513C14.1777 19.3321 14.0064 19.4235 13.8148 19.3362C13.4003 19.1455 12.9849 18.9547 12.5759 18.7511C12.4418 18.6848 12.3909 18.7511 12.348 18.8473C12.3278 18.8941 12.3521 18.9677 12.3238 19.0032C12.2268 19.1236 12.3489 19.3847 12.0515 19.3814C11.0429 19.3701 10.0311 19.3814 9.02491 19.3669C8.97942 19.3619 8.9357 19.3464 8.89715 19.3218C8.8586 19.2971 8.82627 19.2639 8.80267 19.2247C8.62326 18.84 8.46647 18.4448 8.29838 18.0545C8.19062 17.8088 8.08045 17.5647 7.96784 17.3223C7.93978 17.2782 7.90609 17.238 7.86763 17.2027C7.84258 17.2361 7.8199 17.2712 7.79975 17.3077C7.50719 17.9478 7.21868 18.5903 6.91805 19.2271C6.89745 19.2646 6.86866 19.2969 6.83381 19.3216C6.79897 19.3464 6.75897 19.363 6.71682 19.3701C6.19879 19.3823 5.68076 19.3798 5.16273 19.3701C5.12803 19.3654 5.09487 19.3528 5.06575 19.3333C5.03663 19.3139 5.01231 19.288 4.99464 19.2578C4.694 18.6113 4.40307 17.9647 4.10567 17.3182C4.09193 17.2891 4.05879 17.2455 4.03778 17.2471C4.01874 17.2496 4.00048 17.2563 3.98429 17.2666C3.96809 17.277 3.95436 17.2907 3.94403 17.3069C3.881 17.4273 3.82766 17.5494 3.7719 17.677C3.5343 18.2072 3.29993 18.7382 3.05587 19.2651C3.03974 19.2932 3.01749 19.3173 2.99077 19.3356C2.96405 19.3539 2.93354 19.366 2.90151 19.3709C2.4045 19.3774 1.90667 19.3709 1.40885 19.3709C1.26419 19.3709 1.2553 19.3087 1.30945 19.1964C1.40804 18.9903 1.50421 18.7826 1.59634 18.5741C2.08878 17.4777 2.58148 16.3778 3.07446 15.2744C3.0909 15.2213 3.12508 15.1755 3.17127 15.1446C3.21747 15.1137 3.27288 15.0996 3.32822 15.1047C3.80503 15.1192 4.28265 15.1128 4.76027 15.1103C4.8126 15.1048 4.8652 15.118 4.90871 15.1476C4.95222 15.1772 4.98381 15.2213 4.99787 15.272C5.27911 15.9096 5.57328 16.5416 5.86502 17.1752C5.88515 17.2124 5.9084 17.2478 5.93452 17.281C5.9717 17.2463 6.02423 17.2188 6.04282 17.176C6.32082 16.5505 6.59317 15.9225 6.86956 15.2962C6.889 15.2346 6.92961 15.182 6.9842 15.1475C7.03879 15.113 7.10383 15.099 7.16777 15.1079C7.63731 15.1265 8.10927 15.1233 8.57962 15.1079C8.63471 15.1012 8.69045 15.1136 8.73752 15.143C8.78458 15.1724 8.82013 15.2171 8.83823 15.2695C8.90207 15.4053 8.96026 15.5435 9.02087 15.6809C9.31746 16.3484 9.61163 17.0176 9.90984 17.6835C9.92323 17.7063 9.94159 17.7258 9.96356 17.7405C9.98554 17.7552 10.0105 17.7647 10.0367 17.7684C10.2986 17.7756 10.5612 17.7764 10.8231 17.7684C10.8527 17.7641 10.8809 17.7529 10.9053 17.7356C10.9298 17.7183 10.9498 17.6955 10.9637 17.669C11.0776 17.2988 11.1859 16.9255 11.2869 16.5505C11.4259 16.0227 11.5544 15.4918 11.691 14.9624C11.7718 14.6335 11.7605 14.6157 11.4219 14.6157L7.25909 14.6093ZM13.9765 17.5995C13.9896 17.6019 14.003 17.6019 14.0161 17.5995C14.3733 17.4378 14.7313 17.281 15.0861 17.1146C15.1036 17.1017 15.1177 17.0847 15.1271 17.0651C15.1365 17.0455 15.141 17.024 15.1402 17.0022C15.1249 16.8844 15.1014 16.7677 15.0699 16.6531C14.918 16.0809 14.7572 15.5112 14.6101 14.9374C14.463 14.3636 14.3313 13.7866 14.1874 13.2128C14.1494 13.06 14.0953 12.9122 14.0444 12.7626C14.0347 12.7368 14.0064 12.7166 13.987 12.694C13.9696 12.7191 13.9552 12.7462 13.9442 12.7748C13.8553 13.1118 13.772 13.4504 13.6799 13.7874C13.5878 14.1244 13.477 14.4808 13.3849 14.8291C13.2928 15.1774 13.2144 15.5467 13.1223 15.9039C13.0301 16.2612 12.9226 16.6256 12.8313 16.9893C12.8315 17.0159 12.8382 17.0421 12.8509 17.0655C12.8636 17.0889 12.8818 17.1088 12.9041 17.1235C13.0584 17.2091 13.2184 17.2851 13.3801 17.357C13.5805 17.4354 13.7769 17.5146 13.9765 17.5962V17.5995Z" fill="black"/>
</svg>
