<svg width="29" height="28" viewBox="0 0 29 28" fill="none" xmlns="http://www.w3.org/2000/svg">
<path d="M17.1757 13.4851C17.1659 13.4007 17.1281 13.3098 17.1575 13.2743C17.1983 13.225 17.2888 13.1956 17.36 13.1943C18.35 13.174 19.3403 13.1699 20.3312 13.1416C21.9677 13.0949 23.6036 13.0362 25.2394 12.9764C26.0264 12.9477 26.8131 12.9088 27.5991 12.8652C27.7761 12.8558 27.951 12.8119 28.1265 12.7838C28.1265 12.7673 28.1265 12.75 28.1248 12.7342C28.0529 12.7342 27.981 12.7318 27.9094 12.7342C26.7574 12.7767 25.6054 12.8311 24.4531 12.8612C22.3665 12.9149 20.2796 12.948 18.193 13.0034C17.4407 13.0233 16.7611 12.7906 16.0811 12.5082C15.1757 12.124 14.167 12.0579 13.2193 12.3207C12.7554 12.4457 12.3192 12.671 11.8573 12.8078C11.5217 12.9071 11.1645 12.9899 10.8174 12.9875C9.24805 12.976 7.67738 12.9311 6.11008 12.9004C5.84605 12.8953 5.58202 12.9004 5.31799 12.8787C5.65562 12.8787 5.99326 12.8747 6.33089 12.8787C7.03992 12.8892 7.74896 12.9078 8.45799 12.9169C9.16702 12.926 9.87605 12.9169 10.5851 12.9345C11.2171 12.9497 11.8097 12.8081 12.3789 12.546C13.3517 12.0981 14.3656 11.9717 15.4041 12.2308C15.8802 12.3501 16.335 12.5571 16.7965 12.7321C17.146 12.8706 17.5187 12.9408 17.8945 12.9389C19.4243 12.9135 20.9548 12.9051 22.4843 12.8666C24.3075 12.8206 26.1271 12.75 27.9486 12.6899C28.0806 12.6855 28.2126 12.6777 28.3446 12.6713L28.3652 12.7223C28.3052 12.7719 28.2417 12.817 28.1751 12.8575C27.745 13.0831 27.2733 13.1615 26.8003 13.2321C26.5447 13.2689 26.2861 13.2845 26.0291 13.3125C25.9687 13.3192 25.9008 13.3226 25.8505 13.3517C25.2644 13.6932 24.6175 13.7908 23.9564 13.8361C23.7201 13.852 23.4837 13.8594 23.2474 13.8766C23.1746 13.8783 23.1028 13.8945 23.0364 13.9243C22.46 14.2283 21.8361 14.3168 21.1969 14.3513C20.2759 14.4013 19.3551 14.458 18.4347 14.5148C17.9985 14.5415 17.6221 14.7175 17.2868 14.9877C16.7553 15.4174 16.2023 15.8174 15.5334 16.0011C14.1616 16.3792 12.9053 16.1501 11.7985 15.2326C11.4092 14.9097 11.0088 14.5969 10.4953 14.532C9.95506 14.4644 9.40741 14.4567 8.86382 14.4134C8.09638 14.3526 7.32759 14.3006 6.56386 14.208C6.29375 14.1743 6.03479 14.0324 5.76873 13.9466C5.63898 13.8995 5.50483 13.8655 5.3683 13.8452C4.86556 13.7905 4.36012 13.7584 3.85873 13.6962C3.52297 13.6518 3.20212 13.5299 2.92146 13.3402C2.85225 13.2943 2.75265 13.2811 2.66756 13.2743C2.07771 13.2294 1.49023 13.1699 0.928408 12.9703C0.756182 12.9034 0.587483 12.8277 0.42297 12.7436C0.393596 12.7294 0.375363 12.6923 0.365234 12.6237L4.98778 12.8446L4.98609 12.8845L0.579632 12.6997L0.572879 12.7436C0.779511 12.7747 0.985468 12.824 1.19311 12.8335C2.88432 12.9115 4.57553 12.9943 6.26775 13.0517C7.97112 13.1095 9.67583 13.1429 11.3799 13.178C11.5669 13.1818 11.65 13.2557 11.5565 13.4115C10.7829 13.3591 10.0266 13.3618 9.27168 13.3439C7.63483 13.3024 5.99832 13.2662 4.36181 13.225C3.98501 13.2155 3.60855 13.1953 3.23209 13.1814C3.14464 13.178 3.05719 13.1814 2.96974 13.1814L2.9586 13.2264C3.01431 13.25 3.06867 13.2875 3.12742 13.2939C3.5292 13.3422 3.93031 13.4078 4.33345 13.424C6.41901 13.5091 8.50492 13.5814 10.5908 13.6567C10.8045 13.6645 11.0186 13.6615 11.2323 13.6642C11.5558 13.6679 11.57 13.6875 11.4953 14.0283C11.2333 13.7888 10.9187 13.8851 10.6232 13.8763C9.12144 13.8324 7.61829 13.7973 6.11784 13.7594C6.01892 13.7567 5.91932 13.7594 5.82005 13.7594L5.81364 13.8148C5.97739 13.8456 6.14013 13.8929 6.30523 13.904C6.94516 13.9463 7.58532 13.982 8.22569 14.0111C9.11907 14.0506 10.0128 14.0787 10.9062 14.1165C11.2739 14.1314 11.6071 14.2807 11.8242 14.5556C12.4738 15.3806 13.3459 15.6677 14.3446 15.6792C15.0695 15.6877 15.7556 15.5272 16.3461 15.0894C16.5781 14.9174 16.7668 14.6871 16.9762 14.4844C17.2419 14.227 17.5721 14.131 17.93 14.1178C18.9473 14.0803 19.9652 14.053 20.9822 14.0111C21.516 13.9891 22.0488 13.9479 22.5812 13.9097C22.6906 13.902 22.7976 13.8635 22.906 13.8391L22.903 13.7824C22.7791 13.7824 22.6552 13.7797 22.5316 13.7824C21.491 13.8071 20.4504 13.8341 19.4098 13.857C18.8868 13.8689 18.3632 13.8665 17.8405 13.8858C17.6403 13.8929 17.4418 13.9418 17.229 13.9736C17.1389 13.7567 17.1912 13.6783 17.4613 13.6716C19.2667 13.6246 21.0723 13.5814 22.8773 13.5223C23.6752 13.4963 24.4727 13.4405 25.2695 13.3871C25.4322 13.3763 25.5919 13.3196 25.7489 13.2689C25.6105 13.1919 17.3746 13.404 17.1757 13.4851ZM5.63874 13.8172L4.88312 13.6797L4.8767 13.7229L5.64246 13.8128C6.03377 14.0736 6.48654 14.1567 6.9356 14.1955C7.97112 14.2851 9.00968 14.3357 10.0462 14.4121C10.4358 14.4404 10.8373 14.4479 11.1827 14.6678C11.395 14.8046 11.5998 14.9528 11.7962 15.1117C12.1439 15.389 12.4991 15.6471 12.9212 15.8072C13.6451 16.0815 14.3865 16.1353 15.1418 15.9995C15.8171 15.8782 16.3971 15.5603 16.9161 15.1195C17.0947 14.9657 17.2858 14.8271 17.4873 14.705C17.6335 14.6171 17.8007 14.532 17.9658 14.5141C18.635 14.4425 19.3075 14.3972 19.9787 14.3428C20.7006 14.2844 21.4238 14.2357 22.1443 14.1631C22.3662 14.1408 22.5816 14.054 22.8 13.9966L22.7868 13.9462C22.696 13.9692 22.6065 14.0074 22.5147 14.0138C21.8199 14.0604 21.1247 14.1034 20.4291 14.1428C19.7333 14.182 19.0361 14.2063 18.3409 14.2547C17.9327 14.283 17.5751 14.4573 17.2604 14.7175C16.6257 15.2444 15.9352 15.6552 15.103 15.7937C14.4191 15.914 13.7164 15.8684 13.0539 15.6606C12.4265 15.4627 11.8971 15.0982 11.4082 14.6651C11.1425 14.4286 10.8302 14.2685 10.471 14.2476C9.56205 14.1949 8.65179 14.1594 7.74254 14.1097C7.26614 14.0837 6.78872 14.0574 6.31536 14.0023C6.08509 13.9753 5.86361 13.8814 5.63874 13.8172ZM2.8249 13.2429L2.83266 13.1878L1.18163 12.9946L1.17792 13.0183L2.8249 13.2429ZM25.9066 13.2091C25.9083 13.226 25.9096 13.2429 25.911 13.2598L27.2578 13.1078C27.2578 13.0983 27.2558 13.0892 27.2544 13.0801L25.9066 13.2091Z" fill="black"/>
<path d="M14.3745 15.6073C13.8834 15.6197 13.3957 15.5231 12.9463 15.3246C12.4615 15.1114 12.0512 14.7983 11.8861 14.2625C11.7112 13.6956 11.9624 13.2004 12.4297 12.8748C13.3076 12.2626 14.2844 12.2177 15.2996 12.4231C15.687 12.4976 16.0507 12.6649 16.3595 12.9106C17.1164 13.5186 17.0283 14.4 16.3777 14.9513C15.8024 15.4401 15.1102 15.5948 14.3745 15.6073ZM14.2631 15.3793C14.9492 15.384 15.5147 15.2317 15.9925 14.9138C16.2788 14.7233 16.5009 14.4746 16.5803 14.1216C16.6947 13.6149 16.3301 13.1271 15.8777 12.8748C15.2871 12.5461 14.6439 12.4694 13.9842 12.5278C13.4494 12.5744 12.9554 12.7461 12.5401 13.1021C12.1249 13.4582 11.9645 13.9899 12.2555 14.4385C12.378 14.6258 12.5368 14.7866 12.7225 14.9114C13.2161 15.2415 13.7698 15.3945 14.2631 15.3807V15.3793Z" fill="black"/>
<path d="M5.82194 13.341L11.3483 13.4737C11.3483 13.4916 11.3483 13.5092 11.3483 13.5271L5.82261 13.3653L5.82194 13.341Z" fill="black"/>
<path d="M17.364 13.4793L22.5298 13.3756V13.4016L17.364 13.5367V13.4793Z" fill="black"/>
<path d="M15.0428 15.1346L14.7976 14.8745L14.7683 14.8971L14.9337 15.1066C14.3638 15.4163 13.6233 15.218 13.253 14.6674C12.9025 14.1452 12.9582 13.3462 13.5308 12.9108C14.1035 12.4753 14.8365 12.5287 15.3612 13.0925C15.7285 13.4871 15.8413 14.2975 15.3173 14.8316C15.3379 14.6657 15.3605 14.4911 15.379 14.3161C15.379 14.3083 15.3453 14.2972 15.3473 14.2985C15.3088 14.5029 15.2703 14.7059 15.2318 14.9093L15.1896 14.9059L15.1805 14.7032L15.1498 14.6978C15.1174 14.8326 15.0843 14.9681 15.0428 15.1346ZM14.1821 14.5019L14.0275 14.5228C14.2179 14.6786 14.5052 14.6532 14.8084 14.4803L14.5826 14.4931C14.6467 14.4593 14.7176 14.4482 14.7821 14.4211C14.8243 14.4039 14.8567 14.3634 14.8935 14.333L14.9756 14.2431C15.0327 14.0796 15.0899 13.916 15.1471 13.7523L15.2126 13.7786C15.3949 14.2374 15.0043 14.458 14.7693 14.7468C14.9259 14.6245 15.084 14.5296 15.2048 14.3519C15.3611 14.1218 15.3858 13.9354 15.2639 13.7016C15.2245 13.6271 15.203 13.5444 15.2011 13.4601C15.2011 13.2895 15.0816 13.2145 14.9668 13.1419C14.8766 13.0851 14.7776 13.044 14.6737 13.0202C14.3557 12.9486 14.0302 12.8588 13.778 13.1783C13.7488 13.2126 13.7122 13.2398 13.671 13.2577C13.5021 13.3361 13.4383 13.4766 13.4309 13.6503C13.4195 13.8182 13.4166 13.9867 13.4221 14.155C13.4299 14.3002 13.4312 14.4617 13.6115 14.5238L13.6055 14.5181C14.0045 14.9235 14.4654 14.9633 14.6886 14.8221C14.3658 14.8519 14.0471 14.8654 13.7982 14.5404L14.1278 14.4691L14.1821 14.5019Z" fill="black"/>
<path d="M15.5377 14.9834C16.0709 14.274 16.055 13.5899 15.5458 12.8994C16.0118 12.992 16.4345 13.4811 16.4537 13.9152C16.4733 14.3615 16.1019 14.8148 15.5377 14.9834Z" fill="black"/>
<path d="M13.1461 12.8994C12.6339 13.5977 12.6447 14.2844 13.1798 15.0067C13.0971 14.9749 13.0502 14.9587 13.0049 14.9391C12.7439 14.8256 12.5464 14.631 12.3908 14.404C12.2054 14.1338 12.1912 13.8365 12.3529 13.5429C12.5285 13.2257 12.8054 13.0318 13.1461 12.8994Z" fill="black"/>
<path d="M14.1263 14.4705C14.1263 14.4407 14.1125 14.3914 14.1263 14.3837C14.4157 14.207 14.7077 14.0347 14.9991 13.8617L15.039 13.8874C15.0187 14.0056 14.9982 14.1241 14.9775 14.2428L14.8951 14.3333V14.0742C14.8654 14.1139 14.8329 14.1515 14.7979 14.1867C14.6966 14.2766 14.6017 14.3799 14.4856 14.4441C14.4002 14.4911 14.2854 14.4847 14.1837 14.5022L14.1263 14.4705Z" fill="black"/>
<path d="M13.6099 14.5245C13.5968 14.4949 13.582 14.4661 13.5657 14.438C13.4445 14.2495 13.459 14.2066 13.6474 14.0948C14.033 13.8665 14.4163 13.6343 14.7974 13.3983C15.0581 13.2368 15.0881 13.2462 15.1462 13.5472C15.1536 13.5857 15.161 13.6239 15.1698 13.6705C14.7923 13.898 14.4148 14.1251 14.0371 14.3519C13.902 14.4326 13.7916 14.5755 13.6039 14.5188L13.6099 14.5245ZM14.0566 14.2137L14.2035 14.1651V13.9286L14.2322 13.9188C14.2579 13.9776 14.2834 14.0365 14.3088 14.0955L14.3426 14.0925C14.3504 14.004 14.3581 13.9154 14.3649 13.8354L14.4662 13.9208C14.4421 13.9488 14.4196 13.978 14.3987 14.0083C14.3966 14.0114 14.4351 14.0496 14.4392 14.0472C14.4753 14.0246 14.5344 13.9972 14.5357 13.9692C14.5391 13.8986 14.5158 13.8266 14.4993 13.7327L14.5482 13.6776L14.5145 13.6371C14.4382 13.6999 14.3703 13.779 14.2842 13.8225C14.0178 13.9526 14.0154 13.9482 14.0566 14.2137ZM15.0358 13.3391C14.737 13.4881 14.6944 13.5756 14.7822 13.8276L14.8318 13.8307V13.5134L14.8838 13.5175C14.8943 13.5874 14.9048 13.6574 14.9176 13.7354L15.079 13.6533C15.0655 13.5526 15.0527 13.4557 15.0371 13.3391H15.0358ZM13.8541 14.3752C14.0705 14.2698 13.9594 14.1178 13.9783 13.9735C13.8075 14.0742 13.8561 14.2134 13.8557 14.3752H13.8541ZM13.8037 14.136L13.77 14.0914C13.7362 14.1273 13.6832 14.159 13.6768 14.1999C13.6626 14.2901 13.6724 14.384 13.6724 14.5181L13.8311 14.4019C13.6971 14.3657 13.6964 14.261 13.8054 14.136H13.8037ZM14.5891 13.9458C14.6904 13.8894 14.688 13.7114 14.5891 13.5834V13.9458Z" fill="black"/>
<path d="M13.8319 13.8961C13.8961 13.5204 14.1669 13.3556 14.5548 13.4664C14.3036 13.6147 14.0733 13.7522 13.8319 13.8961Z" fill="black"/>
<path d="M13.7799 13.4536C13.7566 13.5043 13.7337 13.555 13.7104 13.6053L13.7546 13.633L13.8984 13.4597L13.9204 13.4739C13.8792 13.5489 13.8343 13.6222 13.7985 13.6995C13.7627 13.7769 13.7377 13.8563 13.6972 13.962C13.6922 13.8786 13.6881 13.811 13.6841 13.7435L13.6584 13.7357C13.6408 13.8289 13.6231 13.9222 13.605 14.0154L13.552 14.013C13.5595 13.9117 13.5676 13.8103 13.5736 13.709C13.5774 13.6482 13.578 13.587 13.5804 13.5266C13.6476 13.5026 13.7138 13.4789 13.7799 13.4536Z" fill="black"/>
</svg>
