<svg width="28" height="28" viewBox="0 0 28 28" fill="none" xmlns="http://www.w3.org/2000/svg">
<g clip-path="url(#clip0_630_14510)">
<path d="M27.7366 15.58C27.38 18.6278 26.1794 21.2631 24.1346 23.4857C20.3771 27.5691 14.5836 29.0646 9.35101 27.2182C4.40573 25.474 0.888951 21.1363 0.144035 15.9559C-1.09144 7.3644 5.78541 -0.325497 14.4655 0.0106236C22.5755 0.325169 28.6711 7.58015 27.7366 15.58ZM9.73142 4.41766L13.8296 19.2819C13.8576 19.3841 13.8852 19.3841 13.9125 19.2819L17.7938 4.3677C17.8021 4.33742 17.8218 4.32228 17.8528 4.32228L19.2791 4.32568C19.3472 4.32568 19.3514 4.30903 19.2915 4.27572C15.9042 2.42365 11.9083 2.4123 8.52207 4.29502C8.45696 4.3306 8.4615 4.34839 8.53569 4.34839L9.63831 4.34726C9.68751 4.34726 9.71855 4.37073 9.73142 4.41766ZM23.9302 18.6574C25.8107 14.507 25.0408 9.66046 21.9135 6.32537C21.9095 6.32114 21.9045 6.31804 21.8989 6.31639C21.8933 6.31474 21.8874 6.3146 21.8817 6.31598C21.8761 6.31737 21.8709 6.32023 21.8667 6.32427C21.8625 6.32832 21.8595 6.3334 21.8579 6.339L16.2483 24.8075C16.2347 24.8529 16.2509 24.8703 16.2971 24.8597C19.7072 24.0557 22.4972 21.8198 23.9302 18.6574ZM5.85581 6.39691C1.86098 10.7438 1.92229 17.4094 5.94211 21.6756C7.40999 23.2336 9.22837 24.2836 11.3973 24.8256C11.4419 24.837 11.4578 24.82 11.445 24.7745L5.94211 6.41622C5.92546 6.35868 5.89669 6.35225 5.85581 6.39691Z" fill="#18232E"/>
</g>
<defs>
<clipPath id="clip0_630_14510">
<rect width="28" height="28" fill="white"/>
</clipPath>
</defs>
</svg>
