<svg width="28" height="28" viewBox="0 0 28 28" fill="none" xmlns="http://www.w3.org/2000/svg">
<path d="M15.4922 4C16.3045 4.11535 17.1173 4.22704 17.9287 4.3481C18.2285 4.39286 18.5272 4.4505 18.8222 4.51896C19.5565 4.68913 19.7061 5.09845 19.2505 5.68032C17.7805 7.55759 16.2641 9.40212 14.8536 11.3212C13.8506 12.6859 12.9805 14.1451 12.0752 15.5767C11.9407 15.7894 11.8812 16.0844 11.8896 16.3381C11.9025 16.7252 12.1527 16.9544 12.5695 16.9629C12.83 16.9682 13.0908 16.9672 13.3514 16.9672C17.102 16.9675 20.8527 16.9623 24.6033 16.9758C24.9429 16.977 25.1224 16.8697 25.2794 16.5854C25.998 15.2835 26.0184 13.9029 25.8002 12.4918C25.3725 9.72601 23.6448 7.90296 21.2794 6.54841C20.8442 6.2992 20.3944 6.07438 19.9512 5.83839C20.4695 4.93271 20.4722 4.92657 21.4215 5.32711C24.1605 6.48284 26.292 8.26147 27.4015 11.0396C28.4651 13.7025 28.0685 16.2267 26.5498 18.6227C26.2825 19.0444 25.9256 19.2352 25.4015 19.2342C20.7531 19.2248 16.1046 19.241 11.4562 19.2279C10.8104 19.2262 10.1468 19.1781 9.52276 19.0273C7.75546 18.6005 6.98549 17.2404 7.57633 15.558C7.81273 14.8849 8.15594 14.2209 8.57775 13.6414C10.4832 11.0235 12.4363 8.43889 14.3636 5.83609C14.4796 5.67947 14.5205 5.46957 14.5963 5.28448C14.39 5.21849 14.1822 5.0912 13.9775 5.09572C11.2412 5.15531 8.63493 5.70479 6.31187 7.19371C4.24471 8.5186 2.76613 10.3065 2.29872 12.7173C1.77455 15.4206 2.65637 17.7541 4.60803 19.6917C6.22074 21.2929 8.259 22.1044 10.4818 22.4877C13.6697 23.0373 16.8211 22.9101 19.9007 21.8594C21.0848 21.4554 22.1733 20.8774 23.1379 20.084C23.2412 19.999 23.3834 19.9129 23.51 19.9093C24.143 19.8916 24.7768 19.9012 25.4729 19.9997C25.0005 20.3986 24.5484 20.824 24.0518 21.1918C22.1746 22.5825 20.0184 23.3355 17.7205 23.6914C14.5418 24.1837 11.3716 24.1129 8.24977 23.2907C5.6111 22.5957 3.30753 21.3525 1.68385 19.1273C-1.06354 15.3619 -0.385307 10.378 3.25365 7.30284C5.31394 5.56182 7.7478 4.67472 10.3934 4.26029C11.0476 4.15781 11.7069 4.08594 12.3638 4C13.4066 4 14.4493 4 15.4922 4Z" fill="#18232E"/>
</svg>
