<svg width="28" height="28" viewBox="0 0 28 28" fill="none" xmlns="http://www.w3.org/2000/svg">
<path d="M14.1597 9.45228C14.0706 9.62399 13.9468 9.77537 13.7963 9.89689C13.6286 10.0318 13.4593 10.1656 13.2912 10.3001L10.6389 12.4192C10.1556 12.8056 9.67267 13.192 9.18998 13.5784C8.29083 14.2959 7.39181 15.0135 6.49293 15.731L4.31005 17.4697C3.92726 17.775 3.54405 18.0801 3.16044 18.385C3.12152 18.4161 3.07764 18.4426 3.0259 18.4807C3.0157 18.4491 3.00754 18.4168 3.00147 18.3842C2.99816 18.3478 3.00147 18.3109 3.00147 18.2741V0.00372577C3.05943 0.0413975 3.0942 0.0575425 3.12566 0.0827949C4.16474 0.910744 5.2034 1.74007 6.24165 2.57078C7.22967 3.35816 8.21948 4.14513 9.21109 4.93168C10.2027 5.71823 11.1903 6.50809 12.1739 7.30127C12.7259 7.74284 13.2778 8.18248 13.8298 8.62019C13.9406 8.70949 14.0336 8.8189 14.1039 8.94268C14.1198 8.96649 14.1373 8.9893 14.156 9.01099C14.1755 8.9936 14.1933 8.98449 14.1999 8.96959C14.2827 8.79903 14.4172 8.67484 14.5605 8.56017C15.3122 7.95935 16.0649 7.35978 16.8183 6.76145C17.6909 6.06487 18.5636 5.36759 19.4363 4.66963C20.3089 3.97167 21.1801 3.2784 22.0497 2.58983C23.0396 1.80162 24.0281 1.01231 25.015 0.22189C25.1032 0.151515 25.1926 0.0827949 25.2986 0C25.3079 0.0321627 25.3142 0.0651591 25.3172 0.098526C25.3068 0.3229 25.3052 0.548516 25.2799 0.771235C25.2536 0.987588 25.1543 1.1885 24.9984 1.34086C24.6619 1.68446 24.3228 2.02516 23.9871 2.36918C23.6192 2.74645 23.2528 3.12509 22.888 3.50512C22.6591 3.74316 22.4293 3.98037 22.2053 4.22254C21.598 4.8791 21.0214 5.56009 20.5308 6.31021C20.2315 6.76807 19.9645 7.24373 19.7799 7.75913C19.6357 8.15159 19.5449 8.56164 19.51 8.97828C19.4648 9.57192 19.5588 10.1482 19.7087 10.7195C19.861 11.2731 20.0752 11.8079 20.347 12.3137C20.5781 12.7517 20.833 13.1768 21.1104 13.5871C21.6467 14.3862 22.2353 15.149 22.8723 15.8705C23.2146 16.2589 23.5599 16.6447 23.9159 17.0197C24.3046 17.4292 24.7099 17.8228 25.1019 18.229C25.1814 18.3113 25.2462 18.4067 25.2936 18.5109C25.4128 18.7775 25.3379 19.0196 25.147 19.2192C24.9975 19.3674 24.8385 19.5057 24.671 19.6332C23.9565 20.2075 23.2407 20.7799 22.5237 21.3503C21.4198 22.2304 20.3158 23.1101 19.2119 23.9894C18.3563 24.6722 17.4997 25.3543 16.6419 26.0357C15.8692 26.6533 15.0964 27.272 14.3237 27.8915C14.2786 27.9271 14.2297 27.9582 14.1701 28C14.1591 27.9707 14.1517 27.9401 14.1482 27.9089C14.1631 27.6891 14.1759 27.4693 14.1978 27.2503C14.2231 26.9969 14.3493 26.7908 14.5228 26.6128C14.8954 26.2282 15.275 25.8469 15.6501 25.4632C16.0119 25.0906 16.3766 24.7255 16.7318 24.3487C17.1213 23.9348 17.5117 23.5208 17.8834 23.0923C18.3811 22.528 18.8247 21.9182 19.2082 21.2708C19.4384 20.8804 19.6266 20.4666 19.7695 20.0364C19.9549 19.4767 20.0216 18.8846 19.9653 18.2977C19.9317 17.9552 19.8685 17.6163 19.7766 17.2847C19.6787 16.9214 19.5514 16.5666 19.3957 16.2241C19.2405 15.8875 19.0682 15.558 18.8865 15.2351C18.5976 14.7296 18.2784 14.242 17.9306 13.775C17.5266 13.224 17.1027 12.6871 16.6527 12.1742C16.3041 11.7788 15.956 11.3831 15.5958 10.9989C15.2514 10.6313 14.898 10.2725 14.5356 9.92256C14.3855 9.78735 14.2585 9.6285 14.1597 9.45228ZM3.51107 0.943034C3.44774 1.08875 3.45809 1.16244 3.56448 1.26014C3.71972 1.40255 3.88075 1.53874 4.03765 1.67908C4.63833 2.21725 5.24853 2.74217 5.83471 3.29358C6.26069 3.69514 6.66266 4.12153 7.06049 4.55331C7.47783 5.00433 7.86321 5.48391 8.21383 5.98856C8.60752 6.5557 8.95194 7.14769 9.18046 7.80383C9.39821 8.42852 9.49798 9.0648 9.41352 9.72592C9.32907 10.387 9.09352 10.9968 8.78387 11.5797C8.49776 12.1136 8.15985 12.618 7.77501 13.0857C7.52663 13.391 7.27121 13.6904 7.00875 13.9841C6.75167 14.2714 6.48921 14.5537 6.21598 14.8253C5.91709 15.1229 5.60661 15.4094 5.29531 15.6946C4.94425 16.0163 4.58782 16.3317 4.23139 16.6467C4.00536 16.8471 3.77602 17.0421 3.5475 17.2412C3.50449 17.2787 3.47779 17.3315 3.47307 17.3884C3.46836 17.4453 3.486 17.5018 3.52225 17.5459C3.55868 17.519 3.59635 17.4933 3.63154 17.4631C4.13328 17.0558 4.63129 16.6443 5.13675 16.2415C5.76061 15.7447 6.37205 15.2334 6.94624 14.68C7.31881 14.321 7.68104 13.9514 8.03913 13.5784C8.42627 13.1765 8.78443 12.7476 9.11091 12.295C9.34977 11.9644 9.56449 11.617 9.7534 11.2556C9.90047 10.97 10.0228 10.6724 10.1189 10.3659C10.2137 10.0682 10.2714 9.75996 10.2907 9.44814C10.3096 9.07165 10.2695 8.69452 10.1719 8.33041C10.0374 7.79224 9.8068 7.29547 9.52323 6.82065C9.02646 5.9927 8.40301 5.26783 7.73072 4.58187C7.44811 4.29236 7.15916 4.00948 6.86385 3.73322C6.56662 3.45462 6.26608 3.1785 5.95311 2.91645C5.46669 2.50703 4.96827 2.11127 4.47439 1.70847C4.1824 1.47113 3.89055 1.23461 3.59884 0.998921C3.57083 0.978396 3.54152 0.959727 3.51107 0.943034ZM23.687 1.91836C23.6456 1.94568 23.6108 1.96472 23.5801 1.98915C23.2545 2.24885 22.929 2.50896 22.6036 2.76949C22 3.25425 21.4072 3.75061 20.8823 4.32272C20.573 4.66011 20.2464 4.98177 19.9463 5.32702C19.3228 6.0432 18.7967 6.82313 18.456 7.71649C18.3289 8.04178 18.2401 8.38076 18.1914 8.72658C18.1299 9.16827 18.1439 9.61721 18.2328 10.0542C18.3219 10.4762 18.4587 10.8868 18.6406 11.2779C18.8638 11.7611 19.1317 12.2224 19.4408 12.6556C19.8415 13.2211 20.2688 13.7655 20.8003 14.2167C20.8937 14.2973 21.0127 14.3422 21.136 14.3434C21.1275 14.3213 21.1174 14.2999 21.1058 14.2792C20.975 14.0909 20.8446 13.9025 20.7121 13.7154C20.452 13.3436 20.2132 12.9572 19.9968 12.5583C19.7349 12.0739 19.5006 11.5751 19.2951 11.0643C19.1099 10.619 18.9916 10.1487 18.944 9.66879C18.9147 9.34861 18.9217 9.02612 18.9652 8.70754C19.0292 8.23412 19.1614 7.77245 19.3576 7.33687C19.5912 6.82836 19.8726 6.34321 20.198 5.88796C20.7287 5.12666 21.343 4.43574 21.9863 3.76965C22.1975 3.55314 22.4169 3.34533 22.6363 3.1371C22.8847 2.90072 23.1393 2.66972 23.3905 2.43583C23.4733 2.3609 23.5516 2.28597 23.6307 2.2098C23.7097 2.13363 23.7217 2.038 23.687 1.91836ZM16.1315 25.827C16.1907 25.7857 16.2329 25.7637 16.271 25.7339C16.7185 25.3833 17.1706 25.0388 17.5895 24.6538C17.8193 24.4431 18.0577 24.2419 18.28 24.0242C18.5222 23.787 18.7511 23.5361 18.9838 23.2902C19.4288 22.8203 19.849 22.3302 20.2071 21.7896C20.6504 21.1197 21.0127 20.4143 21.1836 19.6207C21.276 19.1923 21.3161 18.7642 21.2623 18.3267C21.2246 18.0264 21.162 17.7298 21.0752 17.4399C20.981 17.1239 20.8594 16.8166 20.7117 16.5217C20.4997 16.0896 20.2518 15.6759 19.9707 15.2852C19.6337 14.8224 19.3025 14.3533 18.867 13.9721C18.7437 13.8589 18.5884 13.7867 18.4224 13.7651C18.4335 13.7995 18.4473 13.833 18.4638 13.8653C18.6009 14.0656 18.7412 14.2639 18.8778 14.4647C19.193 14.9266 19.4741 15.4109 19.719 15.9136C19.9206 16.3296 20.0916 16.7602 20.2684 17.1882C20.4368 17.5993 20.5167 18.0344 20.5445 18.4744C20.5559 18.7219 20.5491 18.9698 20.5242 19.2163C20.4787 19.8008 20.2928 20.3477 20.0345 20.8689C19.8983 21.1433 19.7426 21.4095 19.5824 21.6712C19.1917 22.2972 18.7485 22.889 18.2577 23.4401C18.0681 23.657 17.8743 23.871 17.6744 24.078C17.394 24.3678 17.1096 24.6533 16.8212 24.9345C16.625 25.1266 16.4209 25.3104 16.2201 25.4975C16.134 25.5807 16.1017 25.6793 16.1315 25.827Z" fill="black"/>
</svg>
