<svg width="28" height="28" viewBox="0 0 28 28" fill="none" xmlns="http://www.w3.org/2000/svg">
<path d="M5.36565 7.86235C6.17155 7.39647 6.99191 7.02791 7.82673 6.75667C8.20272 6.63395 8.55564 6.56634 8.88551 6.55383C8.99025 6.54992 9.05591 6.59409 9.08249 6.68632C9.08929 6.70969 9.0872 6.73475 9.07662 6.75667L9.03676 6.83406C9.0094 6.88721 9.0223 6.90011 9.07545 6.87275C9.83445 6.48504 10.5923 6.2056 11.3489 6.03441C11.5029 5.99924 11.6714 5.99103 11.8543 6.00979C11.902 6.01526 11.9227 6.04145 11.9164 6.08835C11.9024 6.18996 11.8543 6.26618 11.7722 6.31698C11.4564 6.51084 11.157 6.70196 10.8741 6.89034C8.88668 8.21175 6.94384 10.13 6.54636 12.4328C6.4549 12.9639 6.52877 13.6006 6.68471 14.1223C7.099 15.5122 7.97252 16.5365 9.30526 17.1955C9.60777 17.3448 10.1229 17.5113 10.8506 17.695C11.5745 17.8779 12.2717 18.0276 12.9424 18.144C13.3023 18.2062 13.6342 18.7033 13.2883 18.9988C13.0647 19.1903 12.84 19.3685 12.6141 19.5335C11.8062 20.1221 12.0771 21.0589 12.8779 21.4482C13.7549 21.8761 15.1408 21.7659 15.7013 20.8736C16.2324 20.0259 15.2686 19.537 14.7621 19.1067C14.3224 18.735 14.6425 18.2425 15.1033 18.1616C16.2629 17.9611 17.5187 17.7102 18.4954 17.2987C20.1885 16.5858 21.3903 14.9771 21.4559 13.0565C21.4911 12.0165 20.9635 10.8686 20.3854 10.0338C19.3419 8.52833 17.8247 7.30072 16.2137 6.37561C16.1152 6.31855 16.0534 6.23413 16.0284 6.12235C16.0182 6.07467 16.0374 6.04692 16.0859 6.0391C16.2555 6.01331 16.4228 6.01917 16.5877 6.05669C17.3866 6.23725 18.1436 6.49755 18.8588 6.83758C18.9221 6.86806 18.9448 6.8493 18.9268 6.7813C18.8885 6.63434 18.9417 6.5593 19.0863 6.55618C19.3607 6.55149 19.5748 6.5722 19.7288 6.61832C21.9863 7.29212 23.8365 8.39701 25.2795 9.93299C25.8915 10.5841 26.307 11.2978 26.5258 12.074C26.8072 13.0741 26.4942 14.0626 25.9032 14.8774C25.0966 15.9878 23.9592 16.6385 22.6636 17.1228C22.6527 17.1267 22.6492 17.1341 22.6531 17.1451V17.1462C22.657 17.1587 22.6652 17.163 22.6777 17.1591C24.6862 16.5799 26.9784 15.2034 27.0816 12.8713C27.152 11.2978 25.9314 10.0151 24.7612 9.13803C24.078 8.62447 23.4074 8.20589 22.7492 7.88228C22.6366 7.82756 22.5808 7.73572 22.5815 7.60674C22.5823 7.56687 22.6023 7.54499 22.6413 7.54108C22.8133 7.5231 22.9763 7.54342 23.1303 7.60205C25.0708 8.33838 27.8262 10.2836 27.9891 12.6403C28.0306 13.2336 27.9536 13.7428 27.7581 14.1681C26.7088 16.4556 24.2289 17.4487 21.9613 18.0456C20.2283 18.502 18.4309 18.9019 16.5689 19.245C16.5374 19.2507 16.5082 19.2656 16.485 19.2878C16.4619 19.31 16.4458 19.3385 16.4388 19.3698C16.4318 19.4011 16.4342 19.4337 16.4456 19.4637C16.4571 19.4936 16.4772 19.5195 16.5033 19.5381C16.7307 19.7015 16.9602 19.8836 17.1915 20.0845C18.1178 20.89 17.1986 21.4435 16.4986 21.7214C16.0976 21.88 15.7322 22.1122 15.4023 22.4178C14.5921 23.1671 13.4442 23.2104 12.6375 22.4284C12.1638 21.9699 11.5682 21.7542 10.9878 21.4646C10.4274 21.1843 10.214 20.5805 10.7603 20.1408C11.0105 19.9391 11.2692 19.7172 11.5365 19.4748C11.5552 19.4581 11.5687 19.4365 11.5756 19.4125C11.5826 19.3884 11.5826 19.3629 11.5758 19.3389C11.5689 19.3148 11.5555 19.2931 11.5369 19.2763C11.5184 19.2595 11.4955 19.2483 11.4709 19.2439C9.75355 18.9281 7.99753 18.5423 6.20281 18.0866C3.94574 17.5132 1.73323 16.6514 0.464576 14.5761C0.189428 14.1266 0.0362207 13.6201 0.00495394 13.0565C-0.136919 10.4829 2.79903 8.39701 4.88492 7.59619C5.00608 7.55007 5.1503 7.53053 5.31757 7.53756C5.35666 7.53991 5.37894 7.56023 5.38441 7.59853C5.39613 7.68217 5.37815 7.75682 5.33047 7.82248C5.27966 7.89205 5.29139 7.90534 5.36565 7.86235ZM19.3583 17.7817C19.345 17.7817 19.3325 17.7821 19.3208 17.7829C19.3161 17.7829 19.3134 17.7853 19.3126 17.7899C19.3118 17.7939 19.3134 17.7974 19.3173 17.8005C19.3221 17.8038 19.3275 17.8061 19.3332 17.8071C19.3388 17.8081 19.3446 17.8079 19.3501 17.8064C21.0327 17.301 22.7832 16.5014 23.9651 15.2456C24.6932 14.4729 25.0297 13.5736 24.9254 12.4937C24.6639 9.80284 21.8687 8.05698 19.56 7.12484C19.5436 7.11859 19.5319 7.12328 19.5248 7.13891V7.14008C19.5186 7.15415 19.5221 7.16471 19.5354 7.17174C20.7032 7.75408 21.7362 8.46814 22.6343 9.31391C23.6708 10.2906 24.7647 11.9567 24.3813 13.447C23.9768 15.0275 22.5991 16.2751 21.1452 17.0126C20.559 17.3096 19.9797 17.5633 19.4076 17.7735C19.3919 17.779 19.3755 17.7817 19.3583 17.7817ZM8.43878 17.7208C6.6425 17.0665 4.92713 16.0582 3.98326 14.3967C3.42046 13.4063 3.39857 12.3652 3.9176 11.2732C4.77236 9.47571 6.62374 8.10036 8.40712 7.1905C8.41885 7.18425 8.42198 7.17487 8.4165 7.16236C8.41025 7.14907 8.40009 7.14516 8.38602 7.15064C6.13715 8.03822 3.40874 9.79698 3.07574 12.414C2.8389 14.2806 4.08762 15.6021 5.62594 16.499C6.53112 17.0266 7.46834 17.439 8.43761 17.736C8.44152 17.7376 8.44543 17.7372 8.44933 17.7348C8.45324 17.7317 8.45285 17.7286 8.44816 17.7255C8.44582 17.7239 8.44269 17.7223 8.43878 17.7208ZM4.64104 16.8437C2.82014 16.0757 0.80343 14.1411 1.50107 11.9497C2.04746 10.2296 3.67841 8.82146 5.24019 7.94325C5.25504 7.93465 5.25856 7.92332 5.25074 7.90925L5.24957 7.90807C5.24175 7.89322 5.23042 7.88931 5.21557 7.89635C4.23848 8.39115 3.35402 8.99264 2.56219 9.70083C1.2267 10.8956 0.438781 12.4187 1.23491 14.195C1.91614 15.7158 3.70772 16.6772 5.22846 17.1322C5.24019 17.1361 5.24801 17.1322 5.25191 17.1204L5.25309 17.1193C5.25856 17.1029 5.25309 17.0915 5.23667 17.0853C5.02875 17.0048 4.8302 16.9242 4.64104 16.8437Z" fill="#18232E"/>
</svg>
