<svg width="28" height="28" viewBox="0 0 28 28" fill="none" xmlns="http://www.w3.org/2000/svg">
<path d="M14.5594 23.5859C12.7102 23.5545 10.8604 23.5331 9.01772 23.353C8.14911 23.2681 7.29284 23.1133 6.46664 22.8099C5.29408 22.3793 4.51359 21.5685 4.08458 20.3787C3.73276 19.4031 3.54871 18.3914 3.4114 17.3711C3.10125 15.0662 2.94356 12.7501 3.01842 10.4221C3.03977 9.75793 3.07148 9.0929 3.20008 8.43823C3.55423 6.63584 4.68005 5.62065 6.39132 5.19317C7.52967 4.9088 8.69215 4.81852 9.85463 4.73641C12.2319 4.56847 14.6131 4.55435 16.9935 4.62918C18.6988 4.68276 20.4054 4.7617 22.0886 5.07986C22.8474 5.22326 23.5797 5.45468 24.2228 5.90878C25.3553 6.70852 25.7787 7.88731 25.879 9.21517C25.9952 10.7537 26.0517 12.2961 25.9381 13.8378C25.7881 15.8744 25.6365 17.9119 25.0864 19.8908C24.6772 21.3629 23.8239 22.4154 22.3531 22.8876C21.5908 23.1324 20.8084 23.2758 20.0154 23.3563C18.2014 23.5401 16.3801 23.5549 14.5594 23.5859ZM14.5064 22.7825C15.8536 22.7927 17.1995 22.7469 18.5434 22.6606C19.4886 22.5999 20.4324 22.5131 21.3545 22.2708C22.4793 21.9752 23.3082 21.3293 23.7541 20.2127C23.9723 19.6662 24.1387 19.1051 24.2406 18.5264C24.7794 15.4662 24.9555 12.3863 24.6848 9.28658C24.5101 7.2875 23.5479 6.2123 21.615 5.82637C20.0847 5.52082 18.5313 5.44229 16.9792 5.37546C15.0455 5.29218 13.1113 5.32314 11.1781 5.41886C9.88993 5.48263 8.6067 5.58998 7.336 5.8251C5.66389 6.13452 4.73795 6.99017 4.39774 8.58162C4.25463 9.25117 4.22314 9.93703 4.19844 10.6209C4.12665 12.6086 4.19958 14.5911 4.43031 16.5664C4.56329 17.7045 4.73072 18.835 5.10702 19.9249C5.53318 21.1593 6.35295 21.9423 7.601 22.2659C8.12548 22.4019 8.65754 22.4946 9.19443 22.5511C10.9602 22.7367 12.7327 22.7768 14.5064 22.7825Z" fill="#18232E"/>
<path d="M18.6359 22.1405C17.9807 22.1551 17.981 22.155 17.8691 21.6858C17.6573 20.7972 17.4177 19.9177 17.1174 19.0541C16.8312 18.2312 16.2771 17.8193 15.4278 17.7475C14.7243 17.6879 14.0282 17.7067 13.3286 17.7872C12.6478 17.8654 12.1988 18.2235 11.94 18.8621C11.6215 19.648 11.4193 20.4691 11.2023 21.2862C11.1702 21.4068 11.1411 21.5283 11.1088 21.6488C10.9723 22.159 10.9717 22.1662 10.4374 22.1383C9.93599 22.112 9.43587 22.0569 8.93428 22.0375C8.718 22.0292 8.66518 21.9279 8.65151 21.7372C8.57642 20.6898 8.48984 19.6433 8.41566 18.5958C8.26457 16.4622 8.11462 14.3284 7.97247 12.1941C7.86425 10.5693 7.76884 8.94351 7.66745 7.3182C7.65008 7.03933 7.63528 6.76017 7.612 6.48176C7.60078 6.34756 7.64576 6.29392 7.78176 6.28588C8.18846 6.26186 8.59498 6.23148 9.00054 6.19259C9.24186 6.16944 9.22011 6.36278 9.25006 6.49681C9.56072 7.88555 9.84787 9.2799 10.1762 10.6642C10.4799 11.9446 10.7423 13.2365 11.1804 14.482C11.6062 15.6925 12.4371 16.317 13.6958 16.3692C14.3496 16.3964 15.0005 16.4098 15.6534 16.3202C16.6817 16.1791 17.3307 15.5845 17.7021 14.631C18.1606 13.4539 18.4112 12.2162 18.7046 10.993C19.0587 9.51635 19.3714 8.02929 19.6865 6.54333C19.7451 6.26678 19.8354 6.14954 20.134 6.20179C20.4499 6.25706 20.7754 6.26475 21.0972 6.27332C21.2961 6.27864 21.3518 6.35439 21.3382 6.55311C21.2641 7.63943 21.2036 8.72667 21.1345 9.81333C21.0312 11.4385 20.9309 13.0639 20.8179 14.6884C20.6807 16.6585 20.5318 18.6278 20.3877 20.5975C20.3589 20.9914 20.321 21.3849 20.3033 21.7793C20.2957 21.9501 20.2332 22.0162 20.0676 22.0274C19.5286 22.0641 18.9904 22.1119 18.6359 22.1405Z" fill="#18232E"/>
</svg>
