<svg width="28" height="28" viewBox="0 0 28 28" fill="none" xmlns="http://www.w3.org/2000/svg">
<path d="M13.9849 0.00335286C21.654 -0.0523582 27.9806 6.17234 27.9806 13.9814C27.9806 17.8187 26.6082 21.1518 23.8946 23.8803C21.1811 26.6088 17.8276 27.9948 13.9957 28.0029C10.2753 28.0029 6.99787 26.7026 4.30744 24.1004C1.44715 21.3366 1.77414e-05 17.9396 1.77414e-05 13.9624C-0.0122115 6.22669 6.29945 -0.0564346 13.9849 0.00335286ZM13.9753 0.518341C11.3125 0.518618 8.70946 1.30807 6.49506 2.78697C4.28065 4.26587 2.55421 6.36788 1.53382 8.82747C0.513435 11.2871 0.244877 13.9939 0.762073 16.606C1.27927 19.2182 2.55902 21.6184 4.43966 23.5036C6.3203 25.3888 8.71746 26.6744 11.3283 27.1979C13.9392 27.7214 16.6467 27.4594 19.1087 26.4449C21.5708 25.4305 23.677 23.7091 25.1612 21.4983C26.6455 19.2875 27.4412 16.6864 27.4479 14.0235C27.4538 12.2511 27.1096 10.4949 26.435 8.85587C25.7605 7.21681 24.7688 5.72711 23.517 4.47229C22.2653 3.21747 20.778 2.22223 19.1405 1.5437C17.5031 0.865175 15.7478 0.516721 13.9753 0.518341Z" fill="black"/>
<path d="M4.57512 13.9896C4.57597 12.1248 5.13046 10.3022 6.16832 8.75296C7.20618 7.20369 8.68067 5.99745 10.4049 5.28715C12.1291 4.57685 14.0254 4.39448 15.8533 4.76315C17.6813 5.13182 19.3586 6.03494 20.6728 7.35801C21.9869 8.68109 22.8785 10.3645 23.2348 12.195C23.591 14.0254 23.3957 15.9204 22.6737 17.6397C21.9517 19.3591 20.7355 20.8253 19.1792 21.8526C17.6229 22.8799 15.7966 23.422 13.9319 23.4102C11.4436 23.3962 9.0621 22.3971 7.30857 20.6316C5.55504 18.8661 4.57221 16.4779 4.57512 13.9896ZM12.7565 15.0453H12.5309C11.8244 15.0453 11.1164 15.0453 10.4098 15.0453C10.2889 15.0453 10.2386 15.0712 10.2386 15.2043C10.2386 17.4599 10.2386 19.716 10.2386 21.9725C10.2331 22.014 10.2427 22.056 10.2657 22.091C10.2886 22.1259 10.3234 22.1514 10.3636 22.1628C10.6218 22.2593 10.8773 22.3598 11.1354 22.4563C11.8087 22.7036 12.5137 22.8537 13.2294 22.902C14.3977 22.9984 15.5737 22.8688 16.693 22.5201C17.1006 22.3924 17.4281 21.9277 17.3629 21.5106C17.3344 21.2905 17.2255 21.0888 17.0571 20.9443C16.8888 20.7998 16.6729 20.7227 16.4511 20.7279C16.2024 20.736 15.9524 20.7279 15.7037 20.7279C15.3641 20.7403 15.0261 20.6762 14.7145 20.5404C14.2851 20.3398 13.9513 19.979 13.7847 19.5352C13.6181 19.0915 13.6319 18.6002 13.8232 18.1665C14.0949 17.5197 14.6058 17.1094 15.3178 17.0795C16.1712 17.0428 17.0259 17.0632 17.8792 17.0564C17.9634 17.0635 18.048 17.051 18.1265 17.0197C18.1577 17.0013 18.184 16.9756 18.2031 16.9448C18.2223 16.9141 18.2338 16.8792 18.2366 16.843C18.2089 16.7702 18.1551 16.7101 18.0857 16.6746C18.045 16.6487 17.9757 16.6664 17.92 16.6664C17.1387 16.6664 16.3573 16.6841 15.5774 16.6583C15.2523 16.6511 14.9307 16.5891 14.6262 16.4748C14.0909 16.2587 13.6468 15.8639 13.3695 15.3575C13.0921 14.8512 12.9985 14.2644 13.1046 13.6969C13.2107 13.1294 13.51 12.6161 13.9516 12.2442C14.3931 11.8723 14.9498 11.6646 15.5271 11.6565C15.9116 11.6565 16.2962 11.6565 16.6807 11.6565C16.9688 11.6565 17.2582 11.6565 17.5463 11.6565C17.6747 11.6594 17.7991 11.6113 17.8921 11.5226C17.985 11.434 18.0391 11.312 18.0423 11.1836C18.038 11.0585 17.9845 10.9402 17.8934 10.8545C17.8022 10.7687 17.6809 10.7224 17.5558 10.7257C17.4824 10.7257 17.4091 10.7257 17.3357 10.7257H13.8245C13.6275 10.7257 13.6058 10.689 13.6886 10.5083C13.8266 10.2112 14.0318 9.95024 14.2879 9.746C14.4037 9.64699 14.5513 9.59297 14.7037 9.59381C15.3029 9.59381 15.9035 9.59381 16.5027 9.59381C16.5864 9.60545 16.6716 9.59943 16.7527 9.57615C16.7916 9.55609 16.8259 9.52824 16.8534 9.49434C16.881 9.46044 16.9013 9.42122 16.9131 9.37912C16.9199 9.35565 16.9213 9.33095 16.9172 9.30686C16.9131 9.28277 16.9037 9.2599 16.8896 9.23995C16.8755 9.21999 16.8571 9.20345 16.8358 9.19156C16.8145 9.17966 16.7907 9.17271 16.7663 9.17122C16.7038 9.16243 16.6406 9.15925 16.5775 9.16171C15.9714 9.16171 15.3668 9.16171 14.7607 9.16171C14.6257 9.16718 14.4934 9.12213 14.3898 9.03534C14.085 8.80084 13.8374 8.50025 13.6655 8.1562C13.7539 8.14804 13.8177 8.13717 13.8816 8.13581H15.3912C15.663 8.13581 15.894 8.07874 16.0326 7.81514C16.2174 7.46456 16.5285 7.3477 16.9063 7.35314C17.2446 7.35314 17.5857 7.35314 17.924 7.35314C18.0778 7.36049 18.2292 7.31264 18.3508 7.2182C18.4724 7.12376 18.5562 6.98897 18.5871 6.83815C18.614 6.69462 18.5928 6.54622 18.5267 6.416C18.4606 6.28578 18.3533 6.18102 18.2216 6.11798C16.4994 5.19007 14.5204 4.85259 12.588 5.15731C11.8431 5.27725 11.1157 5.48808 10.4221 5.78508C10.3644 5.80163 10.3143 5.83788 10.2805 5.88753C10.2467 5.93718 10.2314 5.99708 10.2373 6.05684C10.2427 8.25086 10.2427 10.4449 10.2373 12.6389C10.2373 12.8074 10.278 12.8617 10.452 12.8604C11.1993 12.8509 11.9466 12.8604 12.6926 12.8604C12.7619 12.8604 12.8285 12.8726 12.9196 12.8808C12.5902 13.5548 12.5318 14.3295 12.7565 15.0453ZM20.7341 8.11543L20.6811 8.14532C20.7124 8.19629 20.7401 8.24942 20.7639 8.30431C20.9121 8.68749 21.1118 9.0598 21.1893 9.45521C21.3591 10.2414 21.2556 11.0621 20.8958 11.7815C20.2163 13.1213 19.1225 13.8632 17.6061 13.9216C16.9552 13.9474 16.3043 13.9216 15.6535 13.9298C15.5872 13.9212 15.5199 13.9331 15.4605 13.9637C15.4021 14.0086 15.3328 14.0996 15.3464 14.158C15.36 14.2165 15.4551 14.2803 15.5244 14.3225C15.5624 14.3456 15.6249 14.3225 15.6752 14.3225C16.462 14.3225 17.2487 14.3116 18.0341 14.3225C18.3204 14.3274 18.6045 14.3731 18.8779 14.4583C20.1715 14.8769 20.7803 16.4966 20.1008 17.6787C19.6484 18.46 18.9703 18.865 18.0626 18.8663H15.5706C15.3409 18.8663 15.2472 18.9261 15.2485 19.0701C15.2499 19.2142 15.3328 19.2658 15.5774 19.2658C15.9959 19.2658 16.4144 19.2658 16.8329 19.2658C17.0297 19.2668 17.226 19.2878 17.4186 19.3283C17.6662 19.3942 17.8926 19.5229 18.0758 19.7021C18.259 19.8813 18.3928 20.1047 18.4642 20.3509C18.5355 20.597 18.5421 20.8573 18.4832 21.1067C18.4242 21.3561 18.3018 21.586 18.1279 21.7742C18.0857 21.8204 18.049 21.8706 18.0096 21.9196C19.3622 21.2595 20.5216 20.2616 21.3757 19.0224C22.2298 17.7832 22.7497 16.3445 22.885 14.8456C23.131 12.3223 22.3918 10.0585 20.7341 8.11951V8.11543ZM8.02649 20.6314C8.02649 20.5322 8.03872 20.4833 8.03872 20.4357C8.03872 18.7005 8.03872 16.9653 8.03872 15.2301C8.03872 15.0752 7.98437 15.0426 7.84169 15.0426C6.99923 15.0426 6.15677 15.0426 5.31431 15.0426C5.25452 15.0426 5.19474 15.0494 5.11185 15.0549C5.2751 16.4339 5.76009 17.7553 6.52773 18.9125C6.93984 19.5562 7.44489 20.1355 8.02649 20.6314ZM8.02649 7.36537C7.97634 7.39321 7.92821 7.42454 7.88246 7.45913C6.41956 8.82609 5.45741 10.6442 5.1499 12.6226C5.11321 12.8536 5.10913 12.8577 5.33469 12.859C6.16628 12.859 6.99923 12.859 7.83082 12.859C7.99524 12.859 8.04008 12.8074 8.03872 12.6457C8.03872 10.9499 8.03872 9.24868 8.03872 7.55696C8.04008 7.50669 8.03464 7.45233 8.03057 7.36537H8.02649Z" fill="black"/>
<path d="M21.211 3.69387C21.3605 3.82975 21.529 3.97243 21.6798 4.12869C21.7232 4.18514 21.7427 4.25638 21.7341 4.32708C21.7015 4.70347 21.6567 5.07986 21.6173 5.45489C21.6173 5.51603 21.6173 5.57718 21.6173 5.66278C21.7532 5.63968 21.889 5.62338 22.0249 5.59484C22.3157 5.52826 22.6038 5.45896 22.8959 5.38966C22.9598 5.37935 23.0251 5.39447 23.078 5.43179C23.2016 5.52962 23.309 5.64648 23.4272 5.74975C23.4979 5.81225 23.4951 5.86389 23.4408 5.9359C23.0413 6.45904 22.6459 6.9849 22.2491 7.5094C22.1907 7.58821 22.1336 7.60588 22.0575 7.52843C21.9556 7.4238 21.8469 7.32596 21.7314 7.2159L22.5684 6.06363L22.5385 6.02015L20.9596 6.38975C21.0303 5.81769 21.0955 5.28368 21.1607 4.74967L21.1227 4.72657C21.0819 4.75918 21.0398 4.78907 21.0031 4.8244C20.7436 5.07306 20.4813 5.32036 20.2272 5.57582C20.1307 5.6723 20.0669 5.68181 19.9555 5.58261C19.647 5.28911 19.6416 5.29319 19.9473 4.99833C20.2829 4.67221 20.6267 4.35289 20.9555 4.02406C21.0481 3.91996 21.1335 3.80964 21.211 3.69387Z" fill="black"/>
<path d="M15.417 3.73735C15.1901 3.73735 15.0094 3.74415 14.8328 3.73735C14.7771 3.72478 14.7284 3.69119 14.6969 3.6436C14.5895 3.50772 14.4985 3.35825 14.3857 3.22508C14.3378 3.1684 14.2704 3.13159 14.1968 3.12182C13.9645 3.1123 13.7335 3.12997 13.5011 3.12182C13.3652 3.12182 13.3027 3.17481 13.3258 3.31341V3.32971C13.3163 3.82839 13.421 3.73735 12.8965 3.7523C12.7606 3.7523 12.7388 3.69931 12.7375 3.58109C12.7375 3.03757 12.7298 2.48952 12.7144 1.93694C12.7144 1.80921 12.6886 1.68148 12.6736 1.52929C12.7728 1.52929 12.8788 1.51571 12.9848 1.51571C13.5093 1.51571 14.0347 1.51299 14.561 1.50755C15.3178 1.50755 15.5285 2.25218 15.2852 2.73048C15.2215 2.83503 15.1369 2.92525 15.0366 2.99545C14.9605 3.05523 14.9428 3.09328 15.0053 3.16937C15.1113 3.30525 15.2091 3.44113 15.3097 3.57702C15.3423 3.61778 15.364 3.65583 15.417 3.73735ZM13.9753 1.97906C13.8001 1.97906 13.6248 1.97091 13.4508 1.97906C13.4231 1.98605 13.3976 2.00011 13.3769 2.01987C13.3562 2.03964 13.3409 2.06443 13.3326 2.09184C13.3177 2.23723 13.3326 2.38398 13.3326 2.53073C13.3326 2.62449 13.3734 2.66661 13.4685 2.65982C13.8123 2.64623 14.1561 2.63808 14.4998 2.62585C14.5415 2.63078 14.5838 2.62598 14.6234 2.61182C14.6629 2.59767 14.6986 2.57454 14.7277 2.54426C14.7568 2.51398 14.7785 2.47737 14.7911 2.4373C14.8036 2.39723 14.8067 2.3548 14.8001 2.31332C14.8049 2.26965 14.8001 2.22547 14.7862 2.18381C14.7723 2.14215 14.7495 2.104 14.7194 2.07198C14.6893 2.03996 14.6526 2.01484 14.6119 1.99833C14.5712 1.98182 14.5274 1.97432 14.4835 1.97634C14.315 1.97498 14.1452 1.97906 13.9753 1.97906Z" fill="black"/>
<path d="M26.422 12.7924C26.4184 13.0481 26.3476 13.2983 26.2168 13.518C26.1408 13.6557 26.0337 13.7736 25.904 13.8624C25.7743 13.9512 25.6256 14.0085 25.4698 14.0296C25.314 14.0508 25.1554 14.0352 25.0067 13.9841C24.858 13.933 24.7234 13.8479 24.6134 13.7355C24.1107 13.2558 23.9014 12.1742 24.2778 11.5233C24.6542 10.8725 25.4437 10.7746 25.9505 11.3358C26.2902 11.7095 26.4179 12.1633 26.422 12.7924ZM25.9356 12.6212L25.9831 12.6049C25.9205 12.3733 25.8419 12.1463 25.7481 11.9255C25.6961 11.8119 25.6083 11.7184 25.498 11.6595C25.3878 11.6006 25.2613 11.5795 25.1379 11.5994C25.0225 11.6069 24.9124 11.6502 24.8227 11.7232C24.7331 11.7963 24.6685 11.8955 24.6379 12.0071C24.5759 12.1958 24.5589 12.3964 24.5881 12.5929C24.6174 12.7895 24.6921 12.9764 24.8064 13.1389C24.8517 13.2088 24.9113 13.2684 24.9813 13.3137C25.0512 13.359 25.1299 13.389 25.2122 13.4019C25.2945 13.4147 25.3786 13.41 25.459 13.3881C25.5394 13.3662 25.6143 13.3276 25.6788 13.2748C25.7709 13.1945 25.8424 13.0932 25.8871 12.9794C25.9318 12.8657 25.9484 12.7428 25.9356 12.6212Z" fill="black"/>
<path d="M24.5007 7.22269C24.6787 7.56376 24.854 7.89395 25.0265 8.22685C25.1991 8.55976 25.388 8.93751 25.5809 9.28536C25.6923 9.48647 25.5279 9.50685 25.4233 9.57479C25.3187 9.64273 25.2426 9.6536 25.1719 9.51093C24.9491 9.05844 24.7058 8.61683 24.4762 8.16707C24.4205 8.057 24.358 8.01352 24.2574 8.09505C24.1827 8.15484 23.9993 8.13989 24.1148 8.33692C24.2805 8.61683 24.4096 8.91713 24.5672 9.20248C24.6352 9.32477 24.6039 9.3832 24.4898 9.43755C24.2371 9.55984 24.2371 9.56256 24.1039 9.30982C23.9707 9.05708 23.843 8.81114 23.7139 8.56248C23.6704 8.47959 23.6161 8.41301 23.5196 8.49318C23.4231 8.57335 23.2329 8.55433 23.343 8.76494C23.5916 9.23781 23.8281 9.71611 24.0849 10.1863C24.1596 10.3221 24.1419 10.3901 24.0033 10.4417C23.9784 10.4549 23.9547 10.4703 23.9327 10.4879C23.8145 10.5654 23.7384 10.5409 23.6718 10.4091C23.4231 9.91042 23.1636 9.41717 22.9081 8.92256C22.8266 8.76222 22.7546 8.59645 22.6581 8.44562C22.5888 8.33556 22.6282 8.288 22.7193 8.23772C23.2139 7.96596 23.7098 7.70371 24.2017 7.43195C24.3009 7.37352 24.3906 7.29879 24.5007 7.22269Z" fill="black"/>
<path d="M16.4796 3.18976C16.4552 2.68836 16.7922 2.29294 17.2854 2.1625C18.0029 1.97498 18.9309 2.36768 19.2828 3.00496C19.3631 3.14454 19.41 3.30075 19.42 3.46144C19.43 3.62212 19.4028 3.78295 19.3405 3.93139C19.2781 4.07984 19.1824 4.2119 19.0607 4.31729C18.939 4.42269 18.7946 4.49858 18.6388 4.53905C17.9417 4.73336 16.9797 4.37464 16.6427 3.76453C16.5608 3.58359 16.4935 3.39639 16.4416 3.2047L16.4796 3.18976ZM18.0722 4.07977C18.67 4.07977 18.9907 3.60963 18.7651 3.15986C18.5858 2.79842 17.8534 2.54568 17.5001 2.65982C17.4036 2.69336 17.3166 2.74969 17.2466 2.82404C17.1765 2.89838 17.1254 2.98855 17.0977 3.08686C17.07 3.18517 17.0664 3.28873 17.0872 3.38873C17.1081 3.48874 17.1527 3.58223 17.2175 3.66126C17.4379 3.90554 17.744 4.05544 18.0722 4.07977Z" fill="black"/>
<path d="M1.56536 12.5152C1.60341 12.3019 1.64689 12.0437 1.70124 11.7869C1.70124 11.7625 1.74473 11.7353 1.77326 11.7258C2.49796 11.4812 3.22265 11.2384 3.94735 10.9975C3.98317 10.9898 4.0195 10.9848 4.05606 10.9825C4.04022 11.1582 4.00792 11.332 3.95958 11.5016C3.93648 11.5668 3.80875 11.6103 3.72179 11.6307C3.66848 11.6368 3.61898 11.6613 3.58179 11.7C3.5446 11.7387 3.52203 11.7891 3.51797 11.8426C3.4541 12.2326 3.39703 12.6403 3.33725 13.0289C3.33547 13.0584 3.34084 13.0879 3.35291 13.1148C3.36497 13.1418 3.38337 13.1655 3.40655 13.1838C3.69733 13.3373 3.70956 13.567 3.60765 13.8374C3.60396 13.8539 3.60169 13.8707 3.60086 13.8876C3.60086 13.9039 3.59134 13.9189 3.58047 13.9597C3.52069 13.9216 3.46498 13.8917 3.41606 13.8537C2.92961 13.4827 2.44723 13.1077 1.95942 12.7395C1.83289 12.6565 1.70128 12.5817 1.56536 12.5152ZM3.03831 11.8562L2.08715 12.1864L2.90243 12.7992L3.03831 11.8562Z" fill="black"/>
<path d="M10.1027 4.37599C9.94902 4.47781 9.78827 4.56862 9.62173 4.64776C9.57009 4.66814 9.46683 4.59476 9.40432 4.54313C9.35599 4.49673 9.29222 4.46981 9.22526 4.46755C9.1583 4.4653 9.09286 4.48786 9.04152 4.5309C8.73262 4.71207 8.42145 4.89325 8.10802 5.07442C8.06256 5.09385 8.02469 5.12758 8.00016 5.17051C7.97563 5.21343 7.96579 5.26319 7.97214 5.31221C7.97893 5.41548 7.99524 5.56223 7.93817 5.61658C7.78834 5.73107 7.62716 5.82987 7.45715 5.91145C7.45715 5.61251 7.45715 5.36792 7.45715 5.12062C7.45715 4.67493 7.4422 4.22924 7.43133 3.78355C7.43822 3.72127 7.42788 3.65829 7.40144 3.60147C7.27371 3.43298 7.38649 3.37184 7.51558 3.31069C7.58824 3.28032 7.6571 3.24156 7.72076 3.19519C7.93002 3.02262 8.1053 3.05252 8.32679 3.20742C8.87031 3.58381 9.42606 3.92623 9.97638 4.28224C10.009 4.29718 10.0402 4.32708 10.1027 4.37599ZM7.95855 4.61379L8.77383 4.13549L7.95855 3.60147V4.61379Z" fill="black"/>
<path d="M5.75185 7.82193L4.14981 6.31365C4.32782 6.11527 4.52756 5.88971 4.73138 5.66822C5.04799 5.32444 5.37138 4.98882 5.68255 4.6396C5.78038 4.5309 5.85376 4.50372 5.95431 4.63009C5.978 4.66193 6.00695 4.68951 6.03991 4.71162C6.14047 4.78092 6.13231 4.8475 6.05078 4.92903C5.70972 5.29319 5.37138 5.66822 5.0344 6.02966C4.92433 6.14516 4.92841 6.21174 5.04527 6.31773C5.31024 6.5596 5.3048 6.56503 5.55482 6.29327C5.72603 6.10847 5.89996 5.92503 6.06709 5.7348C6.14318 5.6492 6.20297 5.63697 6.28586 5.72665C6.52501 5.99026 6.55762 5.88699 6.29673 6.17641C6.11737 6.37616 5.93529 6.57454 5.75321 6.76885C5.6744 6.85174 5.66624 6.9156 5.75321 6.99577C5.86368 7.09152 5.96806 7.19409 6.06573 7.30287C6.08262 7.32475 6.09382 7.35047 6.09833 7.37774C6.10283 7.40501 6.1005 7.43298 6.09155 7.45913C5.97877 7.5855 5.86735 7.69828 5.75185 7.82193Z" fill="black"/>
<path d="M2.28689 9.41173C2.3657 9.25411 2.44859 9.08834 2.53283 8.92528C2.58583 8.81929 2.65784 8.86549 2.73122 8.90354C3.14837 9.12367 3.5696 9.33564 3.98404 9.56392C4.11992 9.63594 4.16884 9.60332 4.22862 9.48103C4.41886 9.08698 4.62268 8.697 4.81291 8.30159C4.87678 8.16571 4.94064 8.11 5.07652 8.21598C5.11864 8.24995 5.18658 8.25811 5.22055 8.29751C5.25452 8.33692 5.28714 8.41029 5.26947 8.44426C4.96238 9.06388 4.64714 9.68078 4.33325 10.2963C4.31966 10.3208 4.30064 10.3412 4.26803 10.386L3.47992 9.97836C3.18914 9.82753 2.90243 9.67262 2.61029 9.52587C2.50484 9.48147 2.39685 9.44336 2.28689 9.41173Z" fill="black"/>
<path d="M12.1056 7.42787C12.6614 7.29199 12.9359 7.51212 13.156 8.01624C13.3639 8.49182 13.5854 8.9443 14.0039 9.27042C14.0786 9.32749 14.0841 9.3764 14.012 9.42804C13.5799 9.74464 13.3557 10.1985 13.1587 10.6768C13.079 10.8431 12.9735 10.9958 12.8462 11.1293C12.6777 11.3263 12.4385 11.3304 12.2048 11.3032C12.1056 11.2923 12.0893 11.2244 12.1369 11.1673C12.2252 11.0505 12.2986 10.9091 12.4834 10.9051C12.5129 10.8995 12.5406 10.887 12.5642 10.8686C12.5879 10.8502 12.6067 10.8263 12.6193 10.7991C12.6775 10.6524 12.7229 10.501 12.7551 10.3466C12.7844 10.1855 12.8008 10.0224 12.8041 9.85878C12.7951 9.7789 12.7763 9.70042 12.7483 9.62506C12.6696 9.64174 12.5936 9.66965 12.5228 9.70795C12.4341 9.78808 12.3225 9.83828 12.2038 9.85145C12.085 9.86462 11.9651 9.84009 11.861 9.78133C11.7626 9.73405 11.6837 9.65387 11.6381 9.55464C11.5924 9.4554 11.5828 9.34334 11.611 9.23781C11.6361 9.13864 11.6914 9.04975 11.7694 8.98351C11.8473 8.91726 11.9439 8.87696 12.0458 8.86821C12.1348 8.85458 12.2258 8.86119 12.3119 8.88754C12.398 8.91388 12.477 8.9593 12.5432 9.0204C12.6034 9.05745 12.6704 9.08237 12.7402 9.09377C12.7747 9.02729 12.7963 8.95492 12.8041 8.88044C12.7769 8.60868 12.7429 8.33692 12.6899 8.07874C12.6627 7.94286 12.6233 7.82329 12.4317 7.79475C12.2592 7.76758 12.1545 7.61267 12.1056 7.42787Z" fill="black"/>
<path d="M14.7444 6.58949H15.8111C15.9225 6.58949 16.0204 6.61259 16.0176 6.74983C16.0149 6.88707 15.9171 6.91968 15.8097 6.92104C15.1045 6.92104 14.3979 6.92104 13.6927 6.92104C13.5799 6.92104 13.4862 6.87484 13.4848 6.74847C13.4835 6.6221 13.5786 6.58813 13.6941 6.58949C14.0446 6.59085 14.3939 6.58949 14.7444 6.58949Z" fill="black"/>
<path d="M13.9753 6.02287C13.9728 6.08771 13.9465 6.14936 13.9014 6.19599C13.8562 6.24262 13.7955 6.27097 13.7308 6.27561C13.6655 6.27495 13.6029 6.24918 13.5561 6.20364C13.5093 6.1581 13.4818 6.09628 13.4794 6.03102C13.4787 5.99845 13.4845 5.96606 13.4964 5.93575C13.5084 5.90545 13.5263 5.87784 13.5491 5.85455C13.5719 5.83126 13.5991 5.81275 13.6291 5.80012C13.6591 5.78749 13.6914 5.78099 13.724 5.781C13.7884 5.78288 13.8499 5.80869 13.8964 5.8534C13.9428 5.89811 13.971 5.95853 13.9753 6.02287Z" fill="black"/>
<path d="M14.7662 5.781C14.831 5.78387 14.8925 5.81055 14.9389 5.85593C14.9853 5.90131 15.0133 5.9622 15.0176 6.02694C15.0121 6.09222 14.9832 6.15333 14.9363 6.19902C14.8894 6.24471 14.8275 6.2719 14.7621 6.27561C14.6968 6.27349 14.635 6.24607 14.5896 6.19916C14.5442 6.15224 14.5188 6.08951 14.5189 6.02423C14.5187 5.99189 14.525 5.95984 14.5374 5.92998C14.5498 5.90011 14.5681 5.87304 14.5911 5.85037C14.6142 5.82769 14.6416 5.80987 14.6716 5.79795C14.7017 5.78604 14.7338 5.78027 14.7662 5.781Z" fill="black"/>
<path d="M16.0204 6.02015C16.022 6.0843 15.998 6.14646 15.9538 6.19297C15.9096 6.23947 15.8487 6.26651 15.7846 6.26813C15.7528 6.26894 15.7212 6.26347 15.6916 6.25206C15.6619 6.24065 15.6348 6.22351 15.6118 6.20162C15.5653 6.1574 15.5382 6.09653 15.5366 6.03238C15.5355 6.00021 15.5408 5.96815 15.5522 5.93805C15.5636 5.90795 15.5809 5.88041 15.603 5.85702C15.6251 5.83364 15.6517 5.81488 15.6811 5.80183C15.7105 5.78878 15.7422 5.7817 15.7744 5.781C15.8064 5.7799 15.8383 5.78528 15.8682 5.79683C15.8981 5.80837 15.9254 5.82583 15.9483 5.84817C15.9713 5.87051 15.9895 5.89725 16.0019 5.92681C16.0143 5.95636 16.0206 5.98811 16.0204 6.02015Z" fill="black"/>
</svg>
