<svg width="28" height="28" viewBox="0 0 28 28" fill="none" xmlns="http://www.w3.org/2000/svg">
<path d="M14.8896 1.12212C15.3002 1.2404 15.7027 1.42254 16.0972 1.66854C16.4484 1.91021 16.7474 2.13098 16.9941 2.33086C18.3718 3.4438 19.6829 4.58867 20.9909 5.75956C22.4399 7.05661 23.993 8.48218 25.6503 10.0363C26.1978 10.5496 26.7004 11.1551 27.0856 11.7772C27.3415 12.1912 27.5323 12.6282 27.6579 13.0883C27.7338 13.4352 27.7618 13.7703 27.742 14.0936C27.7396 14.5793 27.7093 15.0565 27.6512 15.5253L27.518 16.116C25.9241 14.7033 24.18 13.2533 22.4528 11.9671L22.1543 11.7459L21.2853 11.1131L20.2854 10.4171L19.9808 10.2149L18.8472 9.49577C17.9763 8.97419 17.0813 8.46326 16.1317 8.08361L15.887 7.99194C14.8 7.5366 13.6966 7.37871 12.5775 7.75363C11.8811 7.98702 11.3231 8.20621 10.9037 8.41122C10.0793 8.80428 9.29442 9.23952 8.54914 9.71694L7.36582 10.4739L7.22896 10.5632C6.9516 10.75 6.66859 10.9456 6.37992 11.1498C4.828 12.2482 3.31989 13.4021 1.85558 14.6116L0.101188 16.0906C0.0321514 16.149 -0.00155953 16.1334 5.53682e-05 16.0439L0.00913905 15.5584C0.0111577 14.9812 0.0111577 14.405 0.00913905 13.8298C0.00873532 13.6978 0.0567787 13.4666 0.153269 13.1362C0.296591 12.6442 0.491591 12.1731 0.738267 11.7228L0.992008 11.3177C1.16319 11.0686 1.35819 10.8354 1.57701 10.6182L2.27828 9.97477L3.01588 9.31127L4.73333 7.81276C7.00469 5.85615 9.26716 3.9159 11.5208 1.99201C11.8135 1.74207 12.0926 1.54337 12.3583 1.39592C12.7673 1.18461 13.2021 1.05648 13.6627 1.01154C14.0681 0.978819 14.477 1.01568 14.8896 1.12212Z" fill="#18232E"/>
<path d="M14.8223 10.9685C15.2882 11.0808 15.7206 11.2807 16.1195 11.5681C17.4619 12.7039 18.8023 13.8434 20.1406 14.9867C21.8577 16.4533 23.7794 18.1276 25.9058 20.0097C26.2978 20.3567 26.5804 20.6378 26.7536 20.853C27.1578 21.3549 27.4668 21.9116 27.6808 22.523C27.7438 22.7024 27.7981 22.8619 27.8437 23.0014C27.9111 23.2719 27.9521 23.4536 27.9666 23.5467C27.9896 23.691 27.9971 23.8601 27.989 24.054L27.9914 25.4976L27.9999 25.9706C27.9999 25.9761 27.9984 25.9815 27.9954 25.9862C27.9924 25.9909 27.9882 25.9946 27.9832 25.9971C27.9782 25.9995 27.9725 26.0006 27.9669 26.0001C27.9613 25.9996 27.956 25.9976 27.9515 25.9943L27.7226 25.821C27.6269 25.7296 27.5312 25.643 27.4355 25.5614C26.0588 24.3901 24.6478 23.26 23.2025 22.1712C22.5888 21.7091 21.9473 21.248 21.2779 20.788L20.7831 20.4533L19.9529 19.9086L18.7914 19.2031C17.8349 18.607 16.8238 18.1154 15.758 17.7283C15.4822 17.6281 15.1714 17.5459 14.8254 17.4817C14.4527 17.4095 14.0781 17.3938 13.7014 17.4344C13.2662 17.4923 12.8443 17.5942 12.4357 17.7401C11.9137 17.9262 11.3921 18.1519 10.8709 18.4172L9.83956 18.9707L9.56402 19.1233L7.2543 20.6023C4.97527 22.2128 2.79718 23.9417 0.720011 25.7891L0.501394 25.973C0.486052 25.986 0.475555 25.9831 0.469903 25.9641L0.390571 25.698C0.306596 25.1512 0.262187 24.6078 0.257342 24.0676C0.237156 23.74 0.253708 23.4199 0.307 23.1073C0.540151 22.1463 1.087 21.2747 1.75557 20.5349L2.21824 20.0429L3.06606 19.2457L3.49603 18.8442L4.3711 18.0328L4.76231 17.678L5.81603 16.7123L6.00921 16.5396C7.78157 14.9272 9.08156 13.7815 9.9092 13.1027C10.6775 12.4727 11.1797 12.0662 11.4159 11.8833C11.6912 11.67 12.034 11.4565 12.4442 11.2428C12.81 11.0741 13.1897 10.9608 13.5833 10.9028C13.9999 10.852 14.413 10.8738 14.8223 10.9685Z" fill="#18232E"/>
</svg>
