<svg width="28" height="28" viewBox="0 0 28 28" fill="none" xmlns="http://www.w3.org/2000/svg">
<path d="M13.6259 1.00075C16.8888 1.00621 19.5187 1.71717 21.9195 3.18874C24.2112 4.59102 25.9692 6.49037 27.0485 8.967C27.8462 10.7992 28.1555 12.7188 27.9264 14.718C27.5908 17.6306 26.2944 20.0483 24.1981 22.0622C22.7248 23.4765 21.0083 24.4859 19.0937 25.163C17.1414 25.8533 15.122 26.101 13.0573 25.9815C11.2212 25.8839 9.41912 25.4462 7.74284 24.6905C4.96392 23.4356 2.77757 21.5286 1.33273 18.8266C0.197267 16.7052 -0.209231 14.4272 0.100144 12.0471C0.424796 9.55247 1.49315 7.38903 3.20589 5.54697C4.83515 3.79494 6.80053 2.56726 9.06327 1.80229C10.6893 1.25338 12.3562 0.983835 13.6259 1.00075ZM13.382 21.2634C13.382 21.1816 13.3792 21.0997 13.382 21.0179C13.4147 20.2649 13.0966 19.7433 12.3742 19.4901C11.81 19.2915 11.2507 19.0771 10.6827 18.8986C9.65255 18.5756 8.77627 18.0425 8.07022 17.2104C7.1159 16.0897 6.77434 14.7442 6.51243 13.349C6.31655 12.3063 6.08356 11.2696 5.82493 10.2389C5.71144 9.78873 5.44299 9.39914 5.07796 9.08977C4.43193 8.53923 3.80772 8.61616 3.31229 9.30802C2.83213 9.97533 2.66844 10.755 2.58005 11.5375C2.31651 13.8979 2.60187 16.1754 3.72315 18.3083C4.92355 20.5956 6.56372 22.4523 8.93014 23.5862C9.66238 23.937 10.4224 24.2126 11.254 24.1907C12.0664 24.17 12.6781 23.8088 13.0731 23.0951C13.3907 22.5227 13.3885 21.8925 13.382 21.264V21.2634ZM25.4525 13.1422C25.4525 12.9785 25.4568 12.8148 25.4525 12.6511C25.4203 11.5549 25.2986 10.48 24.7644 9.49136C24.3748 8.77057 23.7097 8.54195 23.0882 8.94572C22.7 9.20625 22.4011 9.57976 22.2321 10.0157C21.8175 11.0224 21.6865 12.0995 21.4683 13.1553C21.3138 13.9001 21.1889 14.6607 20.9357 15.3733C20.3131 17.1248 19.1395 18.3459 17.3187 18.8943C16.7038 19.0792 16.0987 19.3013 15.5017 19.5387C14.9447 19.7602 14.5867 20.153 14.5982 20.7974C14.6075 21.2967 14.5829 21.7987 14.6304 22.2941C14.7308 23.3717 15.5721 24.1356 16.6432 24.1902C17.5359 24.2333 18.3412 23.925 19.1215 23.5534C20.4692 22.9101 21.5932 21.9738 22.559 20.8411C23.4927 19.7604 24.232 18.5261 24.7442 17.193C25.2369 15.8905 25.5234 14.5456 25.4525 13.1422ZM13.4087 13.7091H13.4054C13.4054 12.6637 13.4131 11.6177 13.4054 10.5723C13.3961 9.66105 12.8816 9.16125 11.972 9.15907C11.0357 9.15907 10.0983 9.18307 9.16257 9.15033C8.19571 9.11651 7.7101 9.67742 7.64844 10.557C7.52622 12.2872 7.94963 13.9132 8.66823 15.4677C9.22532 16.6681 10.0814 17.5591 11.4575 17.7839C11.8519 17.8469 12.2518 17.8693 12.6508 17.8505C13.1277 17.8292 13.4076 17.414 13.4098 16.7936C13.4114 15.764 13.4087 14.7365 13.4087 13.7091ZM14.6091 13.6545C14.6091 14.2367 14.6091 14.8184 14.6091 15.4006C14.6091 15.9549 14.602 16.5098 14.6255 17.0637C14.6429 17.4663 14.9348 17.8046 15.3102 17.8357C16.0321 17.8958 16.7452 17.8297 17.4131 17.5176C18.2561 17.1237 18.8318 16.4547 19.2481 15.6461C19.7691 14.6378 20.0878 13.558 20.27 12.4438C20.3852 11.7377 20.4741 11.0224 20.3246 10.3016C20.1893 9.64686 19.7872 9.12633 18.9174 9.14542C17.9631 9.16616 17.0077 9.14815 16.0534 9.15143C15.0991 9.1547 14.6118 9.64959 14.6091 10.5995C14.6064 11.6199 14.6085 12.6386 14.6085 13.6595L14.6091 13.6545ZM18.0319 7.58109C18.7505 7.58109 19.4685 7.58109 20.1871 7.58109C20.7393 7.58109 21.19 7.37375 21.519 6.9176C21.764 6.57822 22.0052 6.2372 22.4575 6.13735C22.5961 6.10679 22.6283 5.98184 22.5421 5.8558C22.4954 5.78848 22.4444 5.72431 22.3893 5.66373C21.5796 4.76999 20.598 4.10431 19.5394 3.54777C18.4482 2.97431 17.3127 2.53234 16.0741 2.39921C15.409 2.32773 14.6789 2.81389 14.632 3.47847C14.5611 4.45646 14.5491 5.43782 14.596 6.41725C14.6353 7.19751 15.1416 7.57946 15.9317 7.58055L18.0319 7.58109ZM9.95647 7.58109C10.6658 7.58109 11.3751 7.58546 12.0844 7.58109C12.9122 7.57455 13.4136 7.12876 13.4431 6.30867C13.4736 5.44712 13.4704 4.58284 13.4393 3.72073C13.4131 2.98795 12.7403 2.34847 12.0692 2.40303C11.6265 2.43551 11.1879 2.51061 10.7596 2.62728C9.34071 3.02268 8.01029 3.6853 6.83981 4.57956C6.3602 4.94623 5.94225 5.39419 5.50246 5.8116C5.38843 5.92073 5.34259 6.07569 5.53738 6.13025C5.95316 6.24593 6.2107 6.53075 6.44314 6.86631C6.78361 7.35738 7.26159 7.58818 7.86178 7.58164C8.55474 7.57945 9.25424 7.58491 9.95374 7.58491L9.95647 7.58109Z" fill="black"/>
</svg>
