<svg width="28" height="28" viewBox="0 0 28 28" fill="none" xmlns="http://www.w3.org/2000/svg">
<path d="M14.329 27.7382C13.1465 27.7273 12.2985 27.7051 11.453 27.621C10.0073 27.4772 8.58705 27.2148 7.21665 26.7182C6.1496 26.3315 5.1518 25.8165 4.24746 25.1255C2.98108 24.1569 2.02892 22.9364 1.35249 21.4969C0.832083 20.3895 0.49938 19.2247 0.291653 18.0215C0.100073 16.9124 0.0188758 15.7944 0.00319541 14.6701C-0.00596443 14.018 0.00319577 13.3659 0.0486845 12.7153C0.165123 11.0609 0.452338 9.44196 1.06993 7.8941C1.52854 6.74524 2.1511 5.69667 2.98604 4.77805C3.91553 3.75541 5.02465 2.9835 6.27738 2.41093C7.3365 1.92654 8.44639 1.60362 9.58796 1.38518C10.4926 1.21384 11.4076 1.10223 12.3269 1.05108C13.278 0.995966 14.2304 0.979199 15.182 1.03214C15.7808 1.06552 16.3808 1.10123 16.9762 1.16861C18.6452 1.35708 20.2676 1.73279 21.7986 2.44477C24.1876 3.55575 25.8798 5.33137 26.8754 7.77161C27.2699 8.73277 27.535 9.72995 27.71 10.7524C27.9739 12.2941 28.0376 13.8486 27.9809 15.4081C27.9316 16.7658 27.7588 18.1081 27.402 19.4228C27.0691 20.6493 26.584 21.8084 25.8724 22.8666C24.9614 24.2216 23.7722 25.2663 22.3327 26.0301C21.1683 26.6486 19.9263 27.048 18.6377 27.3109C17.8005 27.4817 16.9559 27.6016 16.1032 27.6545C15.4023 27.698 14.6988 27.7213 14.329 27.7382ZM7.0246 25.3155C7.03904 25.2402 7.05037 25.1901 7.05798 25.1391C7.21758 24.0599 7.37707 22.9807 7.53647 21.9014C7.71759 20.6842 7.89975 19.4672 8.08295 18.2503C8.28478 16.8951 8.48288 15.5393 8.68641 14.1844C8.71746 13.9807 8.74525 13.7722 8.81341 13.5789C10.1647 9.75842 11.5194 5.93881 12.8776 2.12014C12.8956 2.06922 12.9131 2.01814 12.935 1.95511C12.8808 1.95511 12.8503 1.95371 12.8198 1.95511C12.0036 1.99915 11.1913 2.09863 10.3886 2.25288C9.17685 2.48576 8.01883 2.87156 6.93595 3.46881C5.65254 4.17645 4.60433 5.14056 3.79133 6.36115C3.15791 7.31874 2.71622 8.36281 2.40696 9.46525C2.04863 10.742 1.8732 12.0477 1.82585 13.3692C1.76965 14.9391 1.8347 16.5037 2.12595 18.0525C2.3256 19.114 2.62803 20.1431 3.08851 21.1225C3.90886 22.8681 5.1341 24.2447 6.8161 25.2039C6.87804 25.2393 6.94201 25.2716 7.0246 25.3155ZM15.0693 1.94704C15.0932 2.02094 15.1076 2.06969 15.1245 2.11781C16.4821 5.94125 17.8393 9.76504 19.1963 13.5892C19.2288 13.6816 19.2529 13.7767 19.2684 13.8735C19.3149 14.1591 19.3544 14.446 19.3972 14.7323C19.5794 15.9492 19.7615 17.166 19.9435 18.3829C20.1041 19.4617 20.2636 20.5408 20.422 21.6202C20.586 22.7248 20.7505 23.8293 20.9156 24.9337C20.9336 25.0539 20.9556 25.1736 20.9777 25.3063C21.0225 25.2852 21.0506 25.274 21.0769 25.2598C22.2192 24.6232 23.1846 23.7864 23.9579 22.7301C24.7312 21.6738 25.2502 20.4966 25.5994 19.2404C25.9754 17.8869 26.1427 16.5026 26.1806 15.1029C26.2191 13.699 26.148 12.2998 25.9086 10.9131C25.726 9.85478 25.4421 8.82546 25.0071 7.84085C24.283 6.20171 23.2062 4.85412 21.7058 3.85896C20.6285 3.1448 19.4453 2.67905 18.1939 2.37848C17.4487 2.19963 16.6923 2.08459 15.9298 2.01131C15.653 1.98383 15.3747 1.96893 15.0693 1.94704ZM20.6729 25.4793C20.6377 25.404 20.6119 25.3478 20.5852 25.293L18.8279 21.6461C17.5174 18.9256 16.2077 16.2048 14.899 13.4838C14.8469 13.3751 14.7931 13.3313 14.6683 13.3338C14.2236 13.3428 13.7785 13.3374 13.3331 13.3374H13.1778C11.226 17.3885 9.27678 21.4341 7.33014 25.4742C7.38898 25.5041 7.4295 25.526 7.47095 25.5457C8.33384 25.9576 9.23849 26.2444 10.1723 26.4425C11.0746 26.6336 11.9877 26.7412 12.9085 26.7888C14.4646 26.8691 16.0106 26.7888 17.543 26.5005C18.4894 26.3252 19.4126 26.0422 20.2946 25.6571C20.4177 25.6033 20.5372 25.5433 20.6729 25.479V25.4793ZM14.6802 11.5632C14.6802 11.4883 14.6802 11.4272 14.6802 11.366C14.6476 9.30632 14.6149 7.24712 14.5821 5.18838C14.5663 4.1692 14.5511 3.14972 14.5366 2.12992C14.5357 2.06487 14.5293 1.99982 14.5251 1.9281C14.1748 1.90835 13.8237 1.9081 13.4734 1.92732C13.4222 5.14739 13.3714 8.35101 13.3204 11.5624L14.6802 11.5632Z" fill="black"/>
</svg>
