<svg width="28" height="28" viewBox="0 0 28 28" fill="none" xmlns="http://www.w3.org/2000/svg">
<path d="M13.5093 20.303C13.1807 20.2435 12.8488 20.2015 12.526 20.1205C10.9962 19.7423 9.78766 18.8913 8.89459 17.5975C8.81572 17.4836 8.73832 17.439 8.6003 17.4405C7.97328 17.448 7.3465 17.448 6.71996 17.4405C6.62092 17.4353 6.52657 17.3967 6.45233 17.331C6.20295 17.101 5.96745 16.8564 5.68741 16.576H8.30091C8.19429 16.2324 8.10301 15.9188 7.99458 15.6122C7.9807 15.5728 7.87737 15.5454 7.8153 15.545C6.8357 15.541 5.85609 15.5388 4.87649 15.545C4.80497 15.5494 4.73338 15.5374 4.6672 15.51C4.60101 15.4825 4.54197 15.4403 4.49458 15.3866C4.27879 15.1562 4.04877 14.9386 3.78662 14.678H7.83612V13.6499C7.76565 13.6455 7.69007 13.6371 7.61486 13.6371C6.06311 13.6371 4.51137 13.6379 2.95963 13.6393C2.89117 13.643 2.82277 13.6311 2.75954 13.6047C2.69631 13.5782 2.6399 13.5377 2.59451 13.4863C2.37544 13.2523 2.13921 13.0326 1.92526 12.7617H2.11366C4.00021 12.7617 5.88676 12.7595 7.77295 12.7653C7.9336 12.7653 8.00589 12.7288 8.04569 12.5623C8.11032 12.2926 8.20999 12.0312 8.30602 11.7314H8.04788C5.71698 11.7314 3.38633 11.7325 1.05591 11.7347C0.987616 11.7385 0.919336 11.7269 0.856134 11.7007C0.792931 11.6746 0.736424 11.6345 0.690799 11.5836C0.466983 11.3507 0.230388 11.1323 0 10.9082L0.0186209 10.8578H0.261788C3.01233 10.8578 5.76287 10.8591 8.51341 10.8618C8.70874 10.8618 8.82412 10.8085 8.94169 10.6428C9.99395 9.1613 11.4281 8.299 13.2281 8.04563C13.3585 8.02738 13.4896 8.01497 13.6188 8H14.3491C14.5995 8.03651 14.8522 8.05987 15.1005 8.10733C16.7647 8.42531 18.078 9.28981 19.0496 10.672C19.1507 10.8155 19.2504 10.8618 19.4198 10.8615C22.1886 10.8563 24.9574 10.8551 27.7262 10.8578H27.9985C27.8247 11.0334 27.6699 11.1586 27.5527 11.3138C27.2913 11.6628 26.9598 11.746 26.5304 11.7417C24.3215 11.7194 22.1125 11.7314 19.9036 11.7314H19.6604C19.7374 11.9607 19.8097 12.1637 19.874 12.3696C19.9963 12.7613 19.9941 12.7617 20.399 12.7617H26.089C25.9093 12.9442 25.745 13.0771 25.622 13.2417C25.3759 13.5703 25.0652 13.6521 24.6617 13.6452C23.2261 13.6207 21.7897 13.6357 20.3534 13.6357H20.1307V14.6626H24.1747C23.8738 14.9686 23.6106 15.2431 23.3375 15.507C23.301 15.5435 23.2119 15.5392 23.1472 15.5392C22.1676 15.541 21.1877 15.5443 20.2081 15.5366C20.0423 15.5366 19.9634 15.5731 19.9236 15.7484C19.8623 16.0178 19.7593 16.2777 19.6681 16.5661H22.2604C21.9683 16.8677 21.701 17.147 21.4265 17.4167C21.3921 17.4503 21.3114 17.4434 21.2523 17.4438C20.6133 17.4438 19.9744 17.447 19.3354 17.4438C19.2881 17.4408 19.2409 17.451 19.199 17.4733C19.1572 17.4956 19.1224 17.5291 19.0985 17.5701C18.0013 19.1498 16.5014 20.0584 14.5849 20.2716C14.542 20.2787 14.4998 20.2892 14.4586 20.303H13.5093ZM19.2712 14.1453C19.2591 11.2335 16.876 8.8645 13.9697 8.87618C11.0634 8.88786 8.68684 11.2703 8.69852 14.1577C8.71057 17.0696 11.0911 19.4356 14.0004 19.4276C16.9012 19.4199 19.2832 17.0327 19.2712 14.1453Z" fill="black"/>
<path d="M12.798 15.5282H12.2504V13.6298L12.2095 13.6207C12.1901 13.6725 12.1682 13.7233 12.1514 13.7759C11.9824 14.3089 11.8104 14.8408 11.6487 15.376C11.6121 15.503 11.5504 15.5443 11.4183 15.5425C10.9852 15.5373 10.9856 15.5425 10.8549 15.1343C10.7088 14.6772 10.5617 14.2203 10.4135 13.7634C10.3996 13.7085 10.3685 13.6594 10.3247 13.6233V15.5216H9.79241V12.7635C10.0356 12.7635 10.2722 12.7555 10.5069 12.7704C10.5511 12.773 10.6084 12.8606 10.6278 12.9194C10.8268 13.5258 11.0192 14.134 11.2142 14.7415C11.2339 14.8024 11.258 14.862 11.2974 14.9693C11.4876 14.3706 11.6625 13.8226 11.8356 13.2735C11.9948 12.7624 11.9926 12.7624 12.5216 12.7624H12.798V15.5282Z" fill="black"/>
<path d="M15.1925 13.6269V15.5293H14.662V12.7657C14.8664 12.7657 15.076 12.7588 15.2848 12.7719C15.3257 12.7745 15.371 12.8489 15.3988 12.8989C15.7029 13.4466 16.0038 13.9942 16.3057 14.5418C16.3347 14.6016 16.3768 14.6541 16.4287 14.6955V12.7745H16.9713V15.5395C16.7658 15.5395 16.566 15.5479 16.3678 15.5337C16.3203 15.53 16.2659 15.4578 16.2363 15.4048C15.9337 14.8634 15.6354 14.3205 15.3349 13.778C15.3038 13.7218 15.271 13.6663 15.2392 13.6108L15.1925 13.6269Z" fill="black"/>
<path d="M13.4483 12.7748H14.0044V15.5249H13.4483V12.7748Z" fill="black"/>
<path d="M18.1773 15.533H17.6402V12.7752H18.1773V15.533Z" fill="black"/>
</svg>
