<svg width="28" height="28" viewBox="0 0 28 28" fill="none" xmlns="http://www.w3.org/2000/svg">
<g clip-path="url(#clip0_630_14563)">
<path d="M27.2377 18.2079C26.9829 18.2419 26.729 18.2949 26.4731 18.3064C25.5705 18.3469 24.9643 18.6968 24.5315 19.5552C22.7933 23.0029 19.929 25.0458 16.0962 25.7987C11.3204 26.7368 6.08447 24.3211 3.76256 20.1113C3.66663 19.9373 3.54575 19.7702 3.48596 19.5845C3.17722 18.6257 2.44254 18.3239 1.50486 18.2991C1.27979 18.2931 1.05635 18.2265 0.83209 18.1878C0.839697 18.1148 0.847221 18.0418 0.854827 17.9688C1.87486 17.9688 2.89481 17.9688 3.9833 17.9688C4.8028 20.1717 6.23855 22.0007 8.34323 23.2985C13.897 26.7229 21.1966 24.4962 23.775 18.569C24.0088 18.0314 24.2659 17.8076 24.8734 17.8542C25.6547 17.9142 26.4445 17.8688 27.2306 17.8688C27.233 17.9819 27.2353 18.095 27.2377 18.2079Z" fill="#18232E"/>
<path d="M27.2298 11.0895C26.258 11.0895 25.285 11.1127 24.3155 11.066C24.1595 11.0584 23.9675 10.7611 23.8792 10.5607C22.3775 7.15566 19.7832 5.06063 16.0917 4.26386C11.2834 3.22601 6.08872 5.9041 4.23913 10.4151C4.0233 10.9415 3.77868 11.1456 3.20118 11.0896C2.60202 11.0315 1.99198 11.0888 1.38709 11.0763C1.20013 11.0725 1.01455 11.005 0.828328 10.9667C0.833072 10.9019 0.837816 10.8371 0.842477 10.7724C1.17526 10.7131 1.50822 10.6037 1.84092 10.6043C2.70532 10.6058 3.10754 10.1124 3.47934 9.41619C5.73279 5.19613 9.33178 2.96151 14.1701 3.0005C18.6579 3.03668 22.1189 5.11214 24.29 8.97464C24.9193 10.0941 25.5838 10.7259 26.8696 10.7003C26.9953 10.6978 27.1228 10.7789 27.2495 10.8211C27.243 10.9107 27.2365 11 27.2298 11.0895Z" fill="#18232E"/>
<path d="M17.0013 13.5297C16.2465 13.5297 15.4901 13.5021 14.7379 13.5443C14.4664 13.5595 14.2048 13.7422 13.9387 13.8484C14.1937 13.9419 14.4439 14.0964 14.7049 14.1164C15.2574 14.1588 15.8155 14.1241 16.3711 14.1337C16.9904 14.1445 17.3185 14.5183 17.327 15.0707C17.3361 15.6572 17.0114 16.0565 16.351 16.061C15.3691 16.0678 14.3871 16.0628 13.3823 16.0628C13.2311 15.6308 13.3208 15.4395 13.788 15.4502C14.5202 15.467 15.2548 15.4808 15.9845 15.4362C16.2038 15.4228 16.4104 15.211 16.6228 15.09C16.4015 14.9748 16.1872 14.7795 15.9575 14.7603C15.3807 14.7119 14.7965 14.7561 14.2161 14.7389C13.5767 14.7199 13.1478 14.3302 13.2054 13.7932C13.2663 13.2244 13.5964 12.9067 14.2146 12.9136C15.0228 12.9226 15.8323 12.8914 16.6388 12.9289C16.824 12.9375 16.999 13.1556 17.1788 13.2772C17.1196 13.3613 17.0604 13.4454 17.0013 13.5297Z" fill="#18232E"/>
<path d="M7.79993 15.8395C7.96923 15.7113 8.13272 15.4822 8.30872 15.4725C9.06352 15.4309 9.82372 15.4811 10.578 15.4357C10.7824 15.4234 10.9732 15.1936 11.1703 15.0637C10.9736 14.9582 10.7823 14.7758 10.5789 14.7617C9.97617 14.72 9.3685 14.7468 8.76288 14.7426C8.15267 14.7384 7.82168 14.4399 7.81579 13.8355C7.80982 13.2246 8.14973 12.9255 8.75502 12.9195C9.686 12.9103 10.617 12.9171 11.5641 12.9171C11.7439 13.3415 11.6719 13.5428 11.1896 13.5326C10.4832 13.5177 9.77506 13.5064 9.07055 13.5444C8.87819 13.5548 8.69614 13.7474 8.50934 13.8563C8.6887 13.9473 8.86413 14.1065 9.04823 14.1168C9.65205 14.1504 10.2593 14.1172 10.8646 14.1337C11.5346 14.1521 11.9642 14.5529 11.912 15.1355C11.8577 15.7407 11.5028 16.0678 10.8626 16.0661C9.90469 16.0636 8.94673 16.0655 7.98885 16.0655C7.92571 15.9902 7.86282 15.9148 7.79993 15.8395Z" fill="#18232E"/>
<path d="M0 12.9868C0.599818 12.7866 1.0256 12.9555 1.42234 13.3964C1.96671 14.0014 2.57111 14.5544 3.28616 15.2653C3.28616 14.3806 3.28616 13.68 3.28616 12.9479C3.56055 12.9479 3.75201 12.9479 3.98772 12.9479C3.98772 13.9706 3.98772 14.9749 3.98772 15.9921C3.40925 16.1938 2.9905 16.0096 2.59908 15.5746C2.05127 14.9658 1.45146 14.4021 0.73681 13.6807C0.73681 14.5643 0.73681 15.2613 0.73681 16.0168C0.451213 16.0302 0.245767 16.0398 0 16.0514C0 14.9898 0 13.9856 0 12.9868Z" fill="#18232E"/>
<path d="M28.0004 16.2995C27.4522 16.007 27.0147 15.8578 26.689 15.5818C26.042 15.0332 25.4566 14.4146 24.7446 13.7275C24.7446 14.5423 24.7446 15.2585 24.7446 15.9745C24.6671 16.0296 24.5896 16.0846 24.512 16.1396C24.344 15.9765 24.0403 15.8206 24.0308 15.6489C23.9817 14.7635 24.008 13.874 24.008 12.9978C24.6146 12.7999 25.0185 12.9396 25.4049 13.3647C25.9708 13.9873 26.6049 14.5503 27.3505 15.2756C27.3505 14.5588 27.3692 14.0027 27.3448 13.4485C27.3241 12.9789 27.4843 12.793 28.0003 12.9783C28.0004 13.9709 28.0004 14.9764 28.0004 16.2995Z" fill="#18232E"/>
<path d="M22.8948 16.2198C21.389 15.2502 19.8877 15.1228 18.3934 16.2238C18.356 16.136 18.3186 16.0481 18.2812 15.9603C18.9076 14.9767 19.5062 13.9736 20.1942 13.0334C20.285 12.9094 21.001 12.9876 21.1401 13.1761C21.798 14.0673 22.356 15.0295 22.9496 15.9664C22.9314 16.0509 22.9131 16.1353 22.8948 16.2198ZM19.8358 14.8298C20.4107 14.8298 20.8626 14.8298 21.3885 14.8298C21.1158 14.3965 20.8964 14.0481 20.614 13.5994C20.3344 14.0413 20.1051 14.404 19.8358 14.8298Z" fill="#18232E"/>
<path d="M6.3022 13.0104C6.3022 13.9944 6.3022 14.9782 6.3022 15.9607C5.67924 16.0695 5.66468 16.0697 5.6583 15.5919C5.64841 14.8494 5.6345 14.105 5.68169 13.3649C5.69339 13.1813 5.93319 13.0117 6.06813 12.8357C6.14607 12.8939 6.2241 12.9522 6.3022 13.0104Z" fill="#18232E"/>
</g>
<defs>
<clipPath id="clip0_630_14563">
<rect width="28" height="28" fill="white"/>
</clipPath>
</defs>
</svg>
