<svg width="28" height="28" viewBox="0 0 28 28" fill="none" xmlns="http://www.w3.org/2000/svg">
<path d="M7.9335e-06 14.0055C-0.00804709 6.35633 6.11873 0.160156 13.7016 0.00308328C21.6482 -0.161735 28.1659 6.30242 27.9943 14.3131C27.831 21.932 21.5723 28.0931 13.8212 27.9989C6.15312 27.9051 -0.00339996 21.6599 7.9335e-06 14.0055ZM0.856938 13.9987C0.860036 21.2529 6.74082 27.1392 13.9922 27.1426C21.2498 27.147 27.1392 21.251 27.1392 13.9776C27.1392 6.76373 21.2352 0.856916 14.0241 0.859394C6.74237 0.862182 0.853531 6.73832 0.856938 13.9987Z" fill="black"/>
<path d="M26.1677 14.0136C26.1491 20.7835 20.6057 26.3006 13.7444 26.1642C7.11445 26.0329 1.6928 20.5567 1.83407 13.7384C1.96977 7.14448 7.3623 1.81887 14.0198 1.83436C20.7454 1.85047 26.1956 7.33098 26.1677 14.0136ZM14.0083 2.26438C7.49335 2.26159 2.15813 7.60083 2.26161 14.1976C2.36416 20.5688 7.60953 25.8235 14.1713 25.7327C20.5301 25.645 25.6875 20.4762 25.7302 14.0811C25.7739 7.53329 20.4657 2.27243 14.0083 2.26438Z" fill="black"/>
<path d="M17.5816 20.9604V18.6678C17.6356 18.6625 17.6746 18.6557 17.7149 18.6557C18.6285 18.6557 19.5427 18.6532 20.456 18.6557C20.9363 18.6557 21.2634 18.9036 21.3467 19.3119C21.4335 19.7394 21.2718 20.0087 20.7891 20.2134C20.8399 20.2345 20.8774 20.2516 20.9158 20.2652C21.098 20.3286 21.2521 20.454 21.3511 20.6196C21.4501 20.7852 21.4877 20.9803 21.4573 21.1708C21.3954 21.6045 21.0651 21.9323 20.6518 21.9344C19.3663 21.9406 18.0808 21.94 16.7953 21.9326C16.743 21.9326 16.6544 21.8706 16.6442 21.8251C16.5661 21.4691 16.3588 21.3604 16.0029 21.4025C15.6769 21.4397 15.343 21.4136 15.0115 21.4081C14.9126 21.4065 14.8631 21.439 14.8293 21.532C14.7804 21.6668 14.7488 21.8458 14.6481 21.9127C14.5474 21.9797 14.3692 21.9366 14.2249 21.9372C13.8999 21.9388 13.5743 21.9344 13.2493 21.9394C13.1563 21.9394 13.0962 21.9131 13.0807 21.822C13.0188 21.4629 12.8038 21.369 12.459 21.4031C12.1265 21.4359 11.7885 21.4136 11.453 21.4081C11.3452 21.4062 11.2873 21.4347 11.2495 21.5444C11.1135 21.9381 11.1091 21.9372 10.6918 21.9375C10.4387 21.9375 10.1859 21.9375 9.93278 21.9347C9.91802 21.932 9.90359 21.9277 9.88972 21.922C9.90614 21.8616 9.92287 21.8003 9.93929 21.7408C9.92627 21.7331 9.91512 21.7228 9.91109 21.725C9.30077 22.0602 8.63592 22.0181 7.97634 22.0023C7.62409 21.9936 7.2771 21.9419 6.9487 21.8037C6.63084 21.6695 6.4022 21.4555 6.32909 21.1038C6.31793 21.0496 6.31639 20.9932 6.30988 20.9307C6.34838 20.9235 6.38728 20.9186 6.42637 20.9161C6.81363 20.9161 7.20089 20.9161 7.58784 20.9142C7.67211 20.9142 7.71672 20.9322 7.73655 21.0255C7.74953 21.098 7.78568 21.1644 7.83958 21.2147C7.89348 21.2649 7.96223 21.2964 8.03551 21.3043C8.25904 21.3227 8.48384 21.3187 8.70656 21.2922C8.83792 21.2779 8.92342 21.1763 8.92342 21.0304C8.92342 20.8845 8.85248 20.7826 8.71957 20.7541C8.51488 20.7137 8.30829 20.6837 8.10057 20.6642C7.78333 20.6295 7.4602 20.6283 7.14884 20.566C6.72347 20.4811 6.48678 20.2252 6.44558 19.8823C6.38857 19.4098 6.54626 19.0582 6.95862 18.872C7.21649 18.7554 7.49043 18.6782 7.77125 18.643C8.35709 18.5724 8.94604 18.5811 9.52104 18.7459C9.81815 18.8301 10.0806 18.9724 10.2116 19.2726C10.2609 19.3853 10.2736 19.5139 10.3064 19.6524H8.90205C8.8891 19.6157 8.87875 19.5781 8.87107 19.5399C8.84504 19.367 8.73382 19.2676 8.57303 19.2502C8.40448 19.2312 8.23419 19.2334 8.06618 19.2568C7.87844 19.284 7.792 19.4017 7.79789 19.561C7.80316 19.7128 7.89083 19.8104 8.08415 19.8271C8.42308 19.8565 8.76356 19.8637 9.10311 19.8891C9.25236 19.8993 9.40071 19.92 9.54707 19.951C9.93185 20.0331 10.2677 20.1843 10.3944 20.6506C10.4313 20.5716 10.4533 20.5288 10.4712 20.4845C10.702 19.9157 10.9341 19.3472 11.1602 18.7762C11.1956 18.687 11.2361 18.6498 11.3371 18.6523C11.8535 18.6577 12.3698 18.6577 12.8862 18.6523C12.9884 18.6523 13.0278 18.692 13.0628 18.7787C13.3168 19.4052 13.5755 20.0297 13.8327 20.6546C13.8481 20.6924 13.8652 20.7293 13.8968 20.8015C13.9315 20.7302 13.9563 20.685 13.9758 20.6379C14.2301 20.0229 14.4857 19.4083 14.7351 18.7911C14.7754 18.6917 14.8228 18.6505 14.9362 18.652C15.442 18.6592 15.948 18.6592 16.4543 18.652C16.5624 18.652 16.6051 18.6898 16.6429 18.7837C16.9156 19.4618 17.1944 20.1375 17.4732 20.8163C17.4943 20.8678 17.5197 20.9173 17.5429 20.9678L17.5816 20.9604ZM12.1219 19.4383L11.6203 20.6373H12.6002L12.1219 19.4383ZM15.698 19.4919L15.6587 19.4891C15.5072 19.8671 15.3557 20.245 15.1964 20.6413H16.1807L15.698 19.4919ZM19.3575 20.619H19.0786C18.7239 20.619 18.7267 20.619 18.7456 20.9709C18.7502 21.0574 18.7809 21.0887 18.8655 21.0877C19.1849 21.0852 19.5043 21.0896 19.8237 21.0852C19.9808 21.0834 20.0716 20.9923 20.0731 20.8501C20.0747 20.7079 19.9802 20.6243 19.8203 20.6205C19.6663 20.6162 19.5118 20.619 19.3575 20.619ZM19.3063 19.929C19.4451 19.929 19.5852 19.9306 19.7234 19.929C19.8941 19.9269 19.9985 19.8361 20.0022 19.6883C20.0059 19.5405 19.9061 19.4457 19.7308 19.4439C19.5139 19.4417 19.2971 19.4439 19.082 19.4439C18.714 19.4439 18.7162 19.4439 18.7465 19.8225C18.7527 19.9002 18.7797 19.9324 18.8584 19.9306C19.0077 19.9266 19.157 19.9287 19.3063 19.929Z" fill="black"/>
<path d="M11.4744 7.58255C11.6144 7.37312 11.7585 7.16957 11.8861 6.95674C11.9109 6.91522 11.8861 6.83064 11.8613 6.77457C11.4551 5.79785 11.0472 4.82185 10.6376 3.84657C10.6165 3.79607 10.5998 3.7434 10.5713 3.66502C10.974 3.68919 11.3368 3.74433 11.5955 4.05693C11.7449 4.23755 11.7328 4.44915 11.6516 4.65827C11.6243 4.72859 11.5868 4.7952 11.5587 4.8804C11.8282 4.66353 12.0987 4.61954 12.3611 4.86646C12.5287 5.02415 12.559 5.22831 12.4881 5.43806C12.3979 5.7048 12.1869 5.8027 11.9103 5.81726C12.1151 6.049 12.3936 6.10383 12.6848 6.11468C13.1368 6.13203 13.5086 5.93127 13.6399 5.6007C13.3416 5.69829 13.0767 5.67506 12.9007 5.39375C12.7846 5.20787 12.7877 5.00866 12.9048 4.82216C13.0637 4.5678 13.3001 4.51235 13.5811 4.5963C13.4531 4.17249 13.4854 3.9866 13.7097 3.82178C13.7993 3.75512 13.9073 3.71782 14.019 3.71499C14.1306 3.71216 14.2404 3.74395 14.3333 3.80598C14.561 3.96089 14.6044 4.16257 14.4925 4.5805C14.785 4.51545 15.022 4.59104 15.1565 4.86646C15.2606 5.0793 15.2379 5.29306 15.0796 5.47368C14.8792 5.70263 14.6316 5.69334 14.3643 5.58893C14.5269 5.90091 14.7893 6.07812 15.123 6.14659C15.5106 6.22497 15.8356 6.0933 16.154 5.8058C15.8997 5.79433 15.6949 5.7302 15.6113 5.5217C15.5562 5.37995 15.5422 5.22553 15.571 5.0762C15.6153 4.87111 15.7804 4.75121 15.9905 4.71124C16.1937 4.67252 16.3567 4.76391 16.4982 4.91572L16.5292 4.87203L16.4508 4.73603C16.2563 4.39803 16.3464 4.05445 16.6844 3.86113C16.9267 3.72295 17.1904 3.66998 17.4899 3.67029C17.4165 3.84905 17.3518 4.01108 17.2848 4.1697C16.9245 5.03128 16.5695 5.89502 16.2005 6.75257C16.1135 6.95395 16.287 7.0156 16.3582 7.1293C16.3777 7.16028 16.4821 7.15687 16.5441 7.142C16.8892 7.05464 17.234 7.01498 17.5838 7.11102C17.6315 7.12434 17.6768 7.1451 17.7505 7.17298C17.6117 7.44654 17.4909 7.70802 17.3477 7.9568C17.2734 8.08661 17.2876 8.16592 17.3862 8.2759C17.9782 8.9361 18.1536 9.72983 18.1006 10.5914C18.0947 10.6875 18.0832 10.7829 18.0739 10.8805L17.3183 10.5514L17.2759 10.5911C17.5707 11.0474 17.7309 11.5777 17.7378 12.1209C17.744 12.6712 17.638 13.1972 17.3629 13.6864L16.7926 13.0358L16.743 13.0609C16.892 13.7704 16.9236 14.468 16.5298 15.1149C16.374 15.3739 16.1564 15.5903 15.8966 15.7448L15.2308 14.5814L15.18 14.5982L15.1716 14.7221C15.145 15.1437 15.127 15.566 15.0889 15.9864C15.0486 16.431 14.8216 16.7746 14.4876 17.0655C13.9234 17.5575 13.2567 17.8189 12.5219 17.9968C12.8168 16.9338 12.8171 15.8718 12.7533 14.8017C12.424 15.3191 12.2799 15.8966 12.1823 16.5252C11.6739 16.1261 11.3009 15.6642 11.1615 15.0452C11.0199 14.4163 11.1853 13.8404 11.5348 13.2604C11.3206 13.3203 11.1302 13.4451 10.9898 13.6176C10.8563 13.7787 10.7435 13.9569 10.6221 14.1269C10.4756 13.7025 10.636 12.8146 11.0156 11.9828C10.5961 11.9295 10.1936 11.8396 9.96438 11.4353C9.8008 11.146 9.77478 10.8297 9.79089 10.4687C10.2537 10.8371 10.7473 10.9873 11.3046 10.7897C11.7136 10.6444 12.0135 10.3609 12.2988 9.98945C12.0447 9.88567 11.8142 9.77259 11.5717 9.69792C11.3068 9.61644 11.0698 9.49995 10.9025 9.27782C10.7491 9.07366 10.5394 8.98474 10.307 9.02161C9.98917 9.07242 9.67719 9.16722 9.36583 9.25366C9.24191 9.28774 9.12914 9.35125 9.01513 9.39989C9.00057 9.38687 8.98724 9.38037 8.98755 9.37448C8.9984 8.83356 9.1028 8.31742 9.41509 7.86417C9.74039 7.39233 10.2398 7.19963 10.7959 7.34214C11.0391 7.40441 11.2702 7.50882 11.4744 7.58255ZM14.4705 11.2151C14.3717 12.3053 13.9005 13.0739 13.2858 13.2037C13.2518 12.8419 13.2174 12.4775 13.1799 12.0773L12.8149 12.3666L12.7632 12.3474C12.7731 12.203 12.7322 12.0249 12.8028 11.922C12.9416 11.7185 13.1418 11.5565 13.35 11.3436L13.6334 12.5587C14.2391 11.8694 14.1456 11.1097 13.9386 10.3188C14.1679 10.4588 14.394 10.5911 14.5722 10.7708C14.7503 10.9505 14.8869 11.1828 15.0397 11.3904C15.3671 11.0168 15.3712 10.3928 15 10.052C14.7878 9.85716 14.5164 9.72674 14.2701 9.56966C14.2099 9.53747 14.1478 9.50882 14.0842 9.48384C15.4715 9.28092 16.5751 8.71769 17.2443 7.43043C16.4025 7.43043 15.8377 7.86416 15.3653 8.4528C15.0833 8.32051 15.0592 8.26537 15.2602 8.06182C15.4945 7.82451 15.7559 7.61415 16.0038 7.39016C16.0311 7.36537 16.0729 7.31611 16.0658 7.30124C16.0424 7.2643 16.0077 7.23585 15.9669 7.22007C15.9359 7.20706 15.8957 7.21605 15.8597 7.21605C14.6564 7.21605 13.4534 7.21914 12.2505 7.21264C12.0739 7.21264 11.9654 7.2746 11.9016 7.4295C11.8706 7.50572 11.8421 7.58441 11.8111 7.65969C11.7771 7.74334 11.8059 7.79198 11.8936 7.79725C12.0373 7.80561 12.1817 7.80778 12.3254 7.81305C12.6043 7.82327 12.8831 7.82296 13.1585 7.84929C13.2911 7.86231 13.4187 7.92613 13.5597 7.97043C13.4934 8.13401 13.4528 8.28024 13.2555 8.21053C13.2189 8.30161 13.1904 8.38464 13.1529 8.46334C12.9605 8.86609 12.5671 9.04175 12.0866 8.94013C11.6944 8.8571 11.4902 8.58602 11.4639 8.12998C11.46 8.09941 11.4497 8.06999 11.4337 8.04367C11.4177 8.01734 11.3963 7.99471 11.3709 7.97724C11.2149 7.88659 11.0512 7.80987 10.8817 7.74799C10.1444 7.50014 9.4374 8.02496 9.43244 8.83232C9.62855 8.78585 9.82001 8.7276 10.0158 8.69631C10.4827 8.62165 10.9084 8.67555 11.2296 9.08512C11.3071 9.18364 11.4415 9.24653 11.5614 9.30044C11.7064 9.3655 11.8694 9.39121 12.0144 9.45534C12.194 9.5315 12.3658 9.62488 12.5274 9.73417C12.7018 9.85809 12.708 10.0056 12.5745 10.1722C12.4703 10.307 12.3594 10.4363 12.2421 10.5598C11.7092 11.102 11.0856 11.3591 10.3213 11.1531C10.3012 11.1526 10.2812 11.1554 10.2621 11.1615C10.3213 11.3473 10.4409 11.4799 10.6088 11.5221C10.8213 11.5765 11.0401 11.6022 11.2594 11.5983C11.4889 11.5921 11.7167 11.5329 11.9856 11.4905C11.4462 11.9273 11.0797 12.4307 10.9942 13.1439C11.4171 12.8595 11.8545 12.7344 12.3573 12.7297C12.2334 12.8871 12.1262 13.0129 12.0286 13.1452C11.6609 13.6443 11.409 14.1818 11.4843 14.8249C11.5218 15.1833 11.6767 15.5192 11.9248 15.7804C12.0658 15.4281 12.1869 15.0787 12.3443 14.7466C12.5051 14.4073 12.7334 14.1093 13.0352 13.8305C13.1978 15.0341 13.2009 16.2539 13.0445 17.4583C13.0736 17.4544 13.1024 17.4484 13.1306 17.4403C13.5792 17.2803 13.9911 17.0321 14.3423 16.7104C14.5827 16.488 14.7038 16.2188 14.75 15.9012C14.8408 15.2739 14.8315 14.6456 14.7921 14.016C14.7872 13.9327 14.7841 13.849 14.78 13.7657L14.8336 13.7347C15.0552 13.9541 15.2946 14.1585 15.4935 14.3968C15.6924 14.635 15.8517 14.9061 16.0326 15.1698C16.2559 14.945 16.4023 14.6553 16.4508 14.3423C16.5416 13.8224 16.4781 13.3137 16.3151 12.8155C16.26 12.647 16.198 12.4809 16.1265 12.278C16.5673 12.4441 16.9372 12.6526 17.2582 12.9844C17.4131 12.4534 17.423 11.9567 17.2852 11.4567C17.1473 10.9567 16.8716 10.5335 16.4945 10.1394C16.9441 10.1221 17.3384 10.2051 17.7263 10.3343C17.8112 9.7066 17.4999 8.73968 17.0197 8.41593C16.5212 9.02254 15.8566 9.38285 15.0799 9.64897C15.1512 9.70474 15.1939 9.73293 15.2305 9.76794C15.4254 9.95599 15.5657 10.1815 15.6004 10.4495C15.6934 11.1599 15.3386 11.7036 14.9114 12.2535C14.8268 11.8657 14.7289 11.5227 14.4705 11.2151ZM12.0361 6.50596C12.0779 6.61099 12.1033 6.70641 12.1529 6.78758C12.1814 6.83405 12.2483 6.8861 12.2982 6.88641C13.4538 6.89157 14.6095 6.89219 15.7655 6.88827C15.8055 6.88827 15.8662 6.86875 15.882 6.83932C15.9363 6.7377 15.975 6.62741 16.0261 6.50596H12.0361ZM11.8288 8.12224C11.7833 8.45869 11.9685 8.64333 12.2954 8.66378C12.6005 8.68299 12.911 8.51445 12.9438 8.16127C12.8273 8.12409 12.7387 8.10303 12.6563 8.25081C12.5249 8.48688 12.1677 8.4748 12.0014 8.2539C11.9586 8.19752 11.8871 8.16437 11.8288 8.12131V8.12224Z" fill="black"/>
<path d="M7.77187 9.2267C7.80285 9.25335 7.83383 9.27844 7.86295 9.30694C8.29668 9.74408 8.81561 9.87575 9.41044 9.74904C9.67285 9.69327 9.93526 9.63782 10.1992 9.59228C10.6639 9.51235 11.1612 9.75028 11.3985 10.1586C11.4106 10.1794 11.418 10.2029 11.4372 10.2475C10.9533 9.96869 10.4793 9.98326 9.99443 10.1747C9.82599 10.2394 9.65254 10.2902 9.47581 10.3265C8.95595 10.4387 8.51819 10.2841 8.16284 9.89279C7.98435 9.7028 7.85074 9.47518 7.77187 9.2267Z" fill="black"/>
</svg>
