<svg width="28" height="28" viewBox="0 0 28 28" fill="none" xmlns="http://www.w3.org/2000/svg">
<path d="M26.2477 2.56418C27.0213 3.11195 27.0723 3.78502 27.3054 4.90971C27.487 5.78867 27.6089 6.56226 27.671 7.23047C27.8808 9.50461 27.9712 12.1051 27.9974 14.5191C28.0294 17.4901 27.7677 20.448 27.2121 23.3928C26.8741 25.1891 25.614 25.6902 24.01 25.6873C18.2001 25.6786 11.8137 25.6795 4.85094 25.6902C4.01763 25.6917 3.10272 25.6232 2.31602 25.3624C1.64102 25.1371 1.2161 24.6525 1.04128 23.9085C0.41095 21.225 0.0681049 18.5075 0.0127446 15.756C-0.0600979 12.1702 0.179311 8.56252 0.730972 4.93302C1.05439 2.80164 1.88043 2.01349 4.01471 2.00912C10.318 1.99649 16.9841 1.99698 24.0129 2.01058C24.7005 2.01058 25.6664 2.15043 26.2477 2.56418ZM23.5045 3.49948C22.5706 3.1746 21.3585 3.1542 20.381 3.15275C16.4989 3.14789 12.648 3.14546 8.82814 3.14546C7.59953 3.14546 6.51272 3.1882 5.56771 3.27366C4.30171 3.38876 3.33291 4.02831 3.13332 5.36716C2.96724 6.47534 2.82252 7.75882 2.69918 9.21761C2.33642 13.4789 2.37576 17.7518 3.08087 21.8631C3.24987 22.8537 3.5019 23.7774 4.52898 24.1882C4.93593 24.3514 5.36036 24.4388 5.80227 24.4504C6.85217 24.4786 7.80058 24.4951 8.6475 24.5C13.0452 24.5281 17.2886 24.5335 21.3775 24.516C22.9348 24.5102 24.4485 24.3033 24.8316 22.5361C25.2697 20.516 25.5008 18.3006 25.5251 15.89C25.5494 13.4988 25.4455 10.6924 25.2133 7.47085C25.1449 6.51953 24.9861 5.65416 24.6962 4.76548C24.4864 4.12349 24.0891 3.70149 23.5045 3.49948Z" fill="#18232E"/>
<path d="M15.4159 17.3512C17.4225 17.9951 19.887 18.7532 22.8094 19.6254C22.9093 19.6551 22.9965 19.7171 23.0576 19.8016C23.1187 19.8862 23.1503 19.9886 23.1474 20.093C23.1397 20.3883 23.1037 20.7122 23.0396 21.0647C22.9716 21.4406 22.7376 21.629 22.3374 21.63C17.0588 21.6436 11.9962 21.6445 7.14977 21.6329C6.83412 21.6329 6.52332 21.6159 6.21738 21.5819C5.24566 21.4756 4.96303 20.7034 4.93681 19.8526C4.92127 19.3204 4.8698 18.7983 4.78239 18.2865C4.71537 17.8917 4.87562 17.5406 5.19613 17.3162C7.52806 15.6846 9.90613 14.0189 12.3303 12.3193C12.7353 12.0352 13.4769 11.3985 13.3356 10.8595C13.235 10.4793 12.6523 10.3248 12.3099 10.2199C10.1305 9.5459 7.73542 8.81116 5.12474 8.01572C5.04814 7.99182 4.98224 7.94209 4.93837 7.87509C4.8945 7.80809 4.8754 7.728 4.88436 7.64859C4.91544 7.36402 4.94847 7.07508 4.98343 6.78177C5.0621 6.12327 5.47148 6.05917 6.07024 6.05771C11.1828 6.05383 16.2531 6.05625 21.2812 6.065C22.2792 6.06791 23.0702 6.42775 23.111 7.57284C23.1324 8.15849 23.1853 8.78445 23.2698 9.45072C23.3193 9.84552 23.1372 10.1762 22.8196 10.3977C20.0652 12.3168 17.5206 14.1039 15.1858 15.7589C14.8929 15.9657 14.4952 16.4713 14.7472 16.8428C14.9162 17.0924 15.1391 17.2619 15.4159 17.3512Z" fill="#18232E"/>
</svg>
