<svg width="28" height="28" viewBox="0 0 28 28" fill="none" xmlns="http://www.w3.org/2000/svg">
<path d="M9.86716 14.409C9.86889 14.3744 9.87039 14.358 9.87039 14.3415C9.87039 13.6323 9.86996 12.923 9.86912 12.2138C9.86912 12.1598 9.88434 12.1462 9.93681 12.1469C10.1655 12.1497 10.3942 12.1481 10.623 12.1481C10.6984 12.1481 10.6985 12.1481 10.6985 12.223C10.6985 13.2763 10.6988 14.3296 10.6993 15.3829C10.6993 15.6712 10.699 15.9595 10.6984 16.2478C10.6984 16.2644 10.6963 16.281 10.6945 16.3102L8.13431 13.8273C8.13089 13.8425 8.12839 13.8579 8.12682 13.8734C8.12535 14.5692 8.12397 15.265 8.12266 15.9608C8.12266 15.9685 8.12266 15.9761 8.12266 15.9838C8.11897 16.0654 8.11897 16.0663 8.03744 16.0665C7.83759 16.0665 7.63773 16.0657 7.43776 16.0665C7.39705 16.0665 7.3801 16.056 7.3801 16.0114C7.38125 14.6813 7.38168 13.3513 7.38137 12.0212C7.38282 12.0141 7.38463 12.007 7.38679 12L9.86716 14.409Z" fill="black"/>
<path d="M25.3654 13.1545L24.858 12.7373C24.9492 12.6661 25.0284 12.5973 25.1145 12.5384C25.3796 12.3554 25.6897 12.2482 26.0112 12.2285C26.4626 12.1988 26.8684 12.3254 27.2296 12.593C27.4644 12.7669 27.6457 12.989 27.7802 13.2486C27.9474 13.5715 28.0154 13.9175 27.9971 14.2772C27.9829 14.5539 27.915 14.8203 27.7773 15.0621C27.5005 15.5479 27.1005 15.8815 26.5509 16.0176C26.3293 16.0725 26.1035 16.0759 25.8769 16.0455C25.62 16.0106 25.3738 15.9198 25.1558 15.7795C24.9548 15.6505 24.7803 15.4844 24.6417 15.2901C24.4521 15.0283 24.3411 14.7355 24.2876 14.4187C24.2808 14.3785 24.2913 14.364 24.3344 14.3645C24.517 14.3664 24.6995 14.3664 24.8821 14.3645C24.9244 14.3639 24.9411 14.3826 24.9484 14.4187C25.0061 14.7032 25.1484 14.9376 25.3651 15.1287C25.5081 15.2545 25.6721 15.346 25.8579 15.3866C26.0204 15.4224 26.1885 15.4257 26.3524 15.3961C26.5299 15.3651 26.6975 15.292 26.8411 15.1829C26.9989 15.0659 27.126 14.9124 27.2115 14.7355C27.3105 14.5298 27.3639 14.316 27.3507 14.0882C27.3384 13.8562 27.2661 13.6315 27.1408 13.4359C26.9885 13.1949 26.7789 13.0306 26.516 12.9355C26.3174 12.8628 26.1021 12.8491 25.8959 12.8959C25.6961 12.9393 25.5238 13.028 25.3654 13.1545Z" fill="black"/>
<path d="M15.2936 12.223C15.2787 12.2481 15.2623 12.2723 15.2444 12.2953C14.9527 12.6212 14.6606 12.9467 14.368 13.2719C14.1927 13.4679 14.0191 13.6653 13.8435 13.8609C13.8226 13.8839 13.8204 13.8993 13.8393 13.9245C14.0166 14.1653 14.1932 14.4066 14.3691 14.6484C14.5543 14.9021 14.7392 15.1564 14.9236 15.4114C15.0487 15.5832 15.1747 15.7543 15.2994 15.9263C15.3275 15.9648 15.3525 16.0056 15.3842 16.0531C15.3611 16.0552 15.3453 16.0579 15.3295 16.0579C15.0336 16.0579 14.7378 16.0579 14.4416 16.0588C14.3985 16.0588 14.3746 16.0437 14.3493 16.0075C14.0594 15.593 13.7666 15.1805 13.4747 14.7674C13.4108 14.677 13.3478 14.5864 13.2799 14.4906C13.1685 14.614 13.0662 14.7359 12.9544 14.8481C12.8876 14.9153 12.8772 14.9885 12.8782 15.0762C12.8819 15.3798 12.8794 15.6834 12.8793 15.9873C12.8793 16.0082 12.8793 16.0289 12.8793 16.0555H12.1103C12.1085 16.0332 12.1053 16.0129 12.1053 15.9926C12.1053 15.5774 12.106 15.1623 12.1072 14.7471C12.1072 14.7211 12.1159 14.6959 12.132 14.6755C12.4789 14.2979 12.8268 13.9211 13.1757 13.5453C13.4388 13.2609 13.7018 12.976 13.9647 12.6908C14.0856 12.5597 14.206 12.4282 14.3259 12.2964C14.3441 12.2744 14.367 12.2569 14.393 12.2452C14.419 12.2335 14.4473 12.228 14.4758 12.2289C14.7348 12.2289 14.994 12.2232 15.253 12.2197C15.2622 12.2191 15.2717 12.221 15.2936 12.223Z" fill="black"/>
<path d="M22.982 12.6643C22.8505 12.8134 22.7213 12.9578 22.5949 13.1044C22.5638 13.1405 22.5372 13.1412 22.5038 13.1132C22.3806 13.0108 22.2379 12.9452 22.0849 12.9056C21.9125 12.8612 21.7328 12.8527 21.557 12.8806C21.3032 12.9172 21.0676 13.0339 20.8847 13.2135C20.6955 13.393 20.5666 13.6267 20.5156 13.8824C20.469 14.1064 20.4828 14.3388 20.5556 14.5557C20.6169 14.7382 20.7185 14.894 20.8475 15.0369C20.9999 15.2056 21.1848 15.3163 21.3989 15.3813C21.5787 15.4358 21.7622 15.4425 21.949 15.4159C22.1253 15.3919 22.2936 15.3269 22.4403 15.2262C22.537 15.1595 22.6217 15.0742 22.7063 14.9916C22.7394 14.9594 22.7626 14.9539 22.7963 14.9819C22.9066 15.0734 23.0171 15.1648 23.1277 15.256C23.1497 15.2743 23.1728 15.2913 23.1957 15.3085C23.2447 15.3451 23.2486 15.3639 23.2073 15.4099C22.9536 15.6903 22.6521 15.8979 22.2854 16.0025C21.7959 16.1423 21.3215 16.0966 20.8732 15.8594C20.3907 15.6041 20.0715 15.2093 19.9161 14.6831C19.8219 14.3674 19.812 14.0326 19.8876 13.712C19.9944 13.2513 20.2421 12.8761 20.6229 12.5913C20.8368 12.431 21.0824 12.3184 21.3434 12.2607C21.5822 12.2079 21.8289 12.2017 22.07 12.2425C22.41 12.2974 22.7093 12.4433 22.982 12.6643Z" fill="black"/>
<path d="M0.922584 12.2407C0.922584 12.2885 0.922584 12.3322 0.922584 12.3758C0.923968 13.1831 0.925314 13.99 0.926621 14.7966C0.926621 14.9617 0.926621 15.127 0.921893 15.2925C0.920278 15.3483 0.939998 15.3591 0.991086 15.359C1.53864 15.3574 2.08666 15.358 2.63375 15.358H2.7011V16.0373C2.671 16.0402 2.63951 16.046 2.60803 16.046C2.10061 16.0474 1.59342 16.0483 1.08646 16.0489C0.81764 16.0496 0.548707 16.0526 0.279889 16.0534C0.210695 16.0534 0.141501 16.046 0.0723076 16.0477C0.0183364 16.0491 0 16.0326 0.000115323 15.9754C0.00196049 15.1725 0.0023449 14.3694 0.00126855 13.5663C0.00115323 13.1452 0.00207582 12.7245 0 12.3036C0 12.2514 0.0133775 12.2351 0.067118 12.2357C0.330285 12.2384 0.593452 12.2369 0.85662 12.2371C0.875417 12.2371 0.8941 12.2391 0.922584 12.2407Z" fill="black"/>
<path d="M3.07601 12.1698C3.10715 12.1671 3.12502 12.1642 3.14301 12.1641C3.40434 12.1641 3.66577 12.1651 3.92721 12.1627C3.94618 12.1617 3.96507 12.1659 3.98182 12.1748C3.99858 12.1837 4.01256 12.1971 4.02224 12.2135C4.17831 12.4408 4.3343 12.6681 4.49022 12.8955C4.73401 13.2518 4.97757 13.6083 5.22091 13.965C5.38851 14.211 5.55573 14.457 5.72256 14.7031C5.73039 14.7156 5.73469 14.7299 5.73502 14.7447C5.7417 15.1673 5.74712 15.5901 5.75427 16.0132C5.75497 16.0548 5.73871 16.0661 5.7003 16.0659C5.46397 16.0648 5.22759 16.0648 4.99118 16.0659C4.94171 16.0659 4.92533 16.0486 4.92556 15.9983C4.92748 15.6389 4.92748 15.2795 4.92556 14.9201C4.9251 14.8843 4.91464 14.8493 4.89535 14.8191C4.60704 14.3976 4.31746 13.9778 4.02847 13.5571C3.77575 13.1892 3.52339 12.8211 3.27137 12.4528C3.20886 12.3618 3.14601 12.2714 3.07601 12.1698Z" fill="black"/>
<path d="M16.8976 14.5319C16.8351 14.4512 16.767 14.3683 16.7052 14.2812C16.5038 13.9972 16.5403 13.6212 16.7884 13.3898C16.988 13.2034 17.2242 13.1528 17.4803 13.2523C17.7889 13.3723 17.9432 13.6559 17.9112 13.9765C17.8963 14.1247 17.8225 14.2525 17.7151 14.3563C17.6382 14.4304 17.5561 14.4991 17.4719 14.5739L17.9414 15.0983C17.9925 15.0546 18.0419 15.0106 18.0935 14.9692C18.1088 14.9555 18.128 14.9469 18.1484 14.9444C18.3098 14.9428 18.4713 14.9444 18.6327 14.9444C18.6356 14.9444 18.6385 14.9482 18.6467 14.954C18.6342 14.9678 18.6227 14.9818 18.61 14.9945C18.4906 15.1141 18.3718 15.2345 18.2507 15.352C18.2161 15.3852 18.2172 15.4089 18.2491 15.4432C18.3913 15.5963 18.5316 15.7511 18.672 15.9059C18.6854 15.9206 18.695 15.9394 18.7149 15.97C18.6506 15.97 18.5995 15.97 18.549 15.97C18.4587 15.97 18.3681 15.9648 18.2782 15.9707C18.205 15.9755 18.1604 15.9396 18.1192 15.8886C18.0665 15.8234 18.0133 15.7585 17.9591 15.6945C17.9346 15.6654 17.9167 15.6877 17.8974 15.7049C17.8246 15.7698 17.7556 15.8404 17.6767 15.897C17.4681 16.0469 17.2364 16.0761 16.994 15.9986C16.6929 15.9023 16.494 15.7066 16.4345 15.3882C16.3926 15.1639 16.4554 14.9652 16.6074 14.8C16.6958 14.7037 16.7997 14.6213 16.8976 14.5319ZM17.162 14.821C17.088 14.8816 17.015 14.9314 16.9545 14.9933C16.8819 15.0671 16.8276 15.1505 16.8292 15.2657C16.8324 15.5148 17.0671 15.6734 17.3073 15.6214C17.4437 15.5919 17.5431 15.4859 17.6392 15.3874C17.6464 15.3801 17.6424 15.3508 17.6335 15.3413C17.4787 15.1685 17.3227 14.9976 17.162 14.821ZM17.2181 14.2932C17.242 14.2689 17.2671 14.2458 17.2933 14.224C17.3725 14.1645 17.4535 14.1087 17.5089 14.0224C17.5328 13.9875 17.5487 13.9478 17.5555 13.906C17.5622 13.8643 17.5596 13.8216 17.5478 13.7809C17.5044 13.6291 17.307 13.5105 17.15 13.5682C17.0155 13.6175 16.8984 13.7657 16.954 13.9238C17.0069 14.074 17.1139 14.1796 17.2177 14.2932H17.2181Z" fill="black"/>
</svg>
