<svg width="28" height="28" viewBox="0 0 28 28" fill="none" xmlns="http://www.w3.org/2000/svg">
<path d="M10.6078 7.00744C9.63949 7.1048 8.68065 7.15678 7.73787 7.30993C6.97958 7.43314 6.42781 7.87171 6.30735 8.71238C6.30117 8.75531 6.27779 8.79572 6.26274 8.83648C5.19513 8.53432 3.63011 7.35116 3.05133 6.37489C3.96166 6.04247 4.84961 5.68847 5.75625 5.39366C7.451 4.84249 9.19783 4.54912 10.9668 4.36596C11.387 4.32242 11.6419 4.45788 11.8931 4.78337C12.5674 5.6571 13.2746 6.50478 13.9975 7.39845C14.4725 6.81707 14.9331 6.2542 15.3927 5.69044C15.6775 5.34107 15.9731 4.99973 16.2398 4.63668C16.3955 4.42475 16.5652 4.33997 16.8273 4.36113C19.6067 4.58518 22.2865 5.20969 24.8325 6.3802C24.8522 6.38925 24.8679 6.40735 24.9218 6.45001C24.1258 7.59704 23.0077 8.2998 21.7852 8.85723C21.7526 8.8324 21.7223 8.82117 21.7203 8.8062C21.586 7.76727 20.8716 7.36177 19.9669 7.24101C19.1176 7.12759 18.2572 7.09867 17.3681 7.03002C16.2502 13.3954 15.1436 19.697 14.0369 25.9987C14.0154 25.9992 13.9939 25.9997 13.9725 26.0001C12.858 19.7085 11.7433 13.4171 10.6078 7.00744Z" fill="#18232E"/>
<path d="M2.66874 5.77377C2.4465 5.31051 2.23373 4.86691 2 4.37976C5.00469 3.14448 8.09497 2.42376 11.2831 2.12317C17.6519 1.52275 23.4548 3.25177 26 4.41072C25.7862 4.85303 25.5729 5.29425 25.3416 5.77269C21.7076 4.1915 17.9322 3.45949 14.0003 3.46391C10.077 3.46834 6.30676 4.1866 2.66874 5.77377Z" fill="#18232E"/>
</svg>
