<svg width="28" height="28" viewBox="0 0 28 28" fill="none" xmlns="http://www.w3.org/2000/svg">
<path d="M7.0321 0.0407576C7.4521 0.0407576 7.81926 -0.0158726 8.1647 0.0501959C9.89474 0.365882 11.4833 1.21312 12.7093 2.47397C13.0078 2.7639 13.2426 3.11292 13.3986 3.49874C13.5546 3.88455 13.6285 4.29867 13.6154 4.71463C13.5814 7.98597 13.6021 11.2573 13.604 14.5305C13.5967 14.7186 13.61 14.9069 13.6437 15.0921C13.6676 15.2176 13.7362 15.3301 13.8366 15.409C13.937 15.488 14.0626 15.5279 14.1901 15.5216C14.31 15.5283 14.4283 15.4914 14.5231 15.4177C14.6178 15.3439 14.6826 15.2383 14.7055 15.1204C14.7516 14.9225 14.7729 14.7196 14.7687 14.5164C14.7687 11.1818 14.7819 7.84723 14.7631 4.51171C14.7442 3.87725 14.9668 3.25927 15.386 2.7826C16.696 1.27718 18.3581 0.387145 20.31 0.0332069C20.5128 0.0068902 20.7178 0.00182894 20.9216 0.0181055C21.0541 0.0300613 21.1858 0.0495992 21.3161 0.0766233C21.3256 0.247458 21.3397 0.400359 21.3397 0.553261C21.3397 8.87349 21.3397 17.1937 21.3397 25.5139C21.3397 26.1133 21.1009 26.4936 20.6016 26.7664C19.6757 27.2714 18.6611 27.4866 17.638 27.664C15.6513 27.9998 13.6308 28.0908 11.622 27.9349C10.6347 27.8641 9.64841 27.7357 8.71024 27.3969C8.32762 27.2568 7.96068 27.0771 7.61539 26.8608C7.42472 26.7467 7.26931 26.5822 7.16637 26.3853C7.06343 26.1884 7.01696 25.9669 7.0321 25.7452C7.03965 25.462 7.0321 25.1789 7.0321 24.8957V0.0407576ZM20.3402 4.45413C19.5398 4.17098 19.1481 4.40034 19.0594 5.15163C19.0362 5.37106 19.0258 5.59167 19.0283 5.81231C19.0367 9.0997 19.0386 12.3861 19.0688 15.6726C19.0688 16.1992 18.8801 16.522 18.4082 16.6721C17.9902 16.8112 17.5636 16.9228 17.1311 17.0062C15.605 17.2828 14.0627 17.261 12.5243 17.1742C11.6956 17.127 10.8641 17.0317 10.075 16.7353C9.4285 16.4928 9.31996 16.3389 9.31996 15.6631C9.31996 12.3912 9.31838 9.1192 9.31524 5.84724C9.32806 5.61275 9.32206 5.37761 9.2973 5.14408C9.2685 4.94448 9.19738 4.75333 9.08872 4.58344C8.9075 4.32105 8.52241 4.2531 8.18735 4.35881C7.85229 4.46452 7.99859 4.74295 7.96933 4.95531C7.96219 5.04956 7.96219 5.14421 7.96933 5.23846L8.02596 19.1129C8.02596 19.9463 8.04955 20.7806 8.01935 21.6131C8.00519 21.9906 8.14205 22.2105 8.47805 22.3285C9.04436 22.5248 9.59178 22.7664 10.1694 22.8948C12.4025 23.395 14.6602 23.4092 16.9226 23.1251C17.9072 23.0159 18.8709 22.7644 19.7833 22.3785C20.1911 22.2001 20.3562 21.9632 20.3553 21.4923C20.3402 15.9897 20.3402 10.4862 20.3402 4.98079V4.45413Z" fill="black"/>
</svg>
