<svg width="28" height="28" viewBox="0 0 28 28" fill="none" xmlns="http://www.w3.org/2000/svg">
<path d="M19.5513 0.492555C20.2476 0.645261 20.8955 0.776997 21.5365 0.931317C22.015 1.04638 22.485 1.1964 22.9619 1.31685C23.1383 1.36148 23.212 1.43729 23.212 1.62817C23.2066 6.92396 23.2286 12.2208 23.1899 17.5161C23.1792 18.9636 22.606 20.2686 21.7655 21.4493C21.1026 22.3817 20.2492 23.1103 19.3395 23.7867C17.5145 25.1446 15.6955 26.5102 13.8824 27.8834C13.6807 28.0361 13.556 28.0404 13.3538 27.8867C11.5138 26.4886 9.6677 25.0998 7.81551 23.72C7.02778 23.1356 6.28253 22.5156 5.67869 21.7354C4.75815 20.5449 4.18389 19.2147 4.05323 17.7086C4.01398 17.2548 4.00699 16.7972 4.00645 16.3407C4.00323 11.4655 4.00108 6.59041 4 1.71528C4 1.47654 4.06721 1.35717 4.3038 1.30179C5.34048 1.05875 6.37501 0.807825 7.40739 0.549013C7.6585 0.485565 7.71818 0.561918 7.71818 0.805495C7.71209 5.86846 7.70922 10.9314 7.70958 15.9944C7.70958 16.6364 7.76335 17.265 7.99779 17.8677C8.56775 19.327 9.60766 20.3454 11.0401 20.9181C13.2446 21.7994 15.3874 21.6316 17.3559 20.2626C18.7754 19.2754 19.5276 17.8866 19.5282 16.1304C19.5303 11.0316 19.5314 5.93281 19.5314 0.833993C19.5319 0.740972 19.5422 0.645261 19.5513 0.492555Z" fill="black"/>
<path d="M11.7531 8.07249C11.7531 5.50068 11.7574 2.92887 11.7461 0.357593C11.7461 0.0790652 11.8386 -0.00158948 12.0956 2.36141e-05C13.1075 0.00701369 14.1195 2.36143e-05 15.1314 0.00593829C15.4836 0.00916448 15.4901 0.0285216 15.4895 0.382327C15.4863 2.46053 15.4782 4.53873 15.4788 6.61963C15.4788 8.74246 15.4879 10.8674 15.4895 12.9887C15.4895 13.92 15.482 14.8518 15.4809 15.7847C15.4809 16.6299 14.8857 17.3042 13.9958 17.4666C13.0763 17.6344 12.1768 17.1929 11.8703 16.3955C11.7911 16.1678 11.7529 15.9279 11.7574 15.6868C11.7498 13.146 11.7484 10.6079 11.7531 8.07249Z" fill="black"/>
</svg>
