<svg width="28" height="28" viewBox="0 0 28 28" fill="none" xmlns="http://www.w3.org/2000/svg">
<path d="M14.0633 2C14.6005 2.39431 15.1358 2.7914 15.6755 3.18243C17.5502 4.5409 19.4264 5.89729 21.3019 7.25448C22.8487 8.37371 24.3954 9.49294 25.9419 10.6124C25.9593 10.625 25.974 10.6411 26 10.6646C25.7654 11.0043 25.4845 11.2935 25.1619 11.5428C24.3682 12.1564 23.4545 12.4748 22.4736 12.6368C21.6022 12.7807 20.7282 12.7846 19.8538 12.6959C19.2624 12.636 18.6728 12.5473 18.1132 12.3334C17.9599 12.2748 17.8078 12.1967 17.6768 12.0987C15.7156 10.6305 13.7573 9.15842 11.8019 7.68254C11.7112 7.61415 11.655 7.61569 11.5708 7.67592C11.3775 7.81423 11.1793 7.94559 10.9679 8.09012C15.8236 11.7595 20.6672 15.4196 25.4916 19.0653C21.3661 20.9219 17.5216 23.2439 13.9065 26C9.96111 23.039 5.98643 20.056 2 17.0642C2.44607 16.6516 2.92329 16.3012 3.44084 16.004C4.21271 15.5607 5.04064 15.2782 5.92509 15.1808C7.17239 15.0434 8.36084 15.2813 9.51138 15.7636C10.4049 16.1382 11.1719 16.7039 11.9332 17.2844C12.9779 18.0809 14.029 18.869 15.0768 19.6615C15.5296 20.004 15.981 20.3484 16.445 20.701C16.6306 20.5285 16.817 20.3553 17.0226 20.1643C12.0286 16.3841 7.03752 12.6061 2.02532 8.81206C2.26929 8.71645 2.49344 8.63328 2.71398 8.54145C4.09623 7.96572 5.43235 7.29462 6.7547 6.59545C8.28882 5.78432 9.79792 4.92979 11.2664 4.00519C12.1808 3.42943 13.0793 2.83096 13.9052 2.13143C13.951 2.09263 13.9884 2.04401 14.0297 2C14.0409 2 14.0521 2 14.0633 2Z" fill="#18232E"/>
</svg>
