<svg width="28" height="28" viewBox="0 0 28 28" fill="none" xmlns="http://www.w3.org/2000/svg">
<path d="M13.9983 18.9808C13.5869 18.9808 13.1753 18.99 12.7641 18.9783C12.3085 18.9654 11.8527 18.9416 11.3981 18.9076C10.8935 18.87 10.3891 18.8244 9.88625 18.7667C8.53243 18.6111 7.19172 18.3745 5.87441 18.0088C4.89594 17.7372 3.93822 17.4028 3.03647 16.9146C2.4863 16.6168 1.9664 16.2718 1.54495 15.7876C1.29701 15.5028 1.106 15.1846 1.0306 14.8009C0.938213 14.3305 1.06174 13.9108 1.31083 13.524C1.60417 13.0684 2.00652 12.7334 2.44433 12.4423C3.21728 11.9282 4.06079 11.577 4.92831 11.2824C5.80702 10.984 6.70402 10.7606 7.61149 10.584C8.10025 10.489 8.59208 10.4091 9.08444 10.3371C9.49612 10.2768 9.91018 10.2325 10.3241 10.1911C10.7915 10.1445 11.2597 10.1047 11.728 10.0703C12.0143 10.0493 12.3016 10.0415 12.5886 10.0324C13.0223 10.0188 13.456 10.0009 13.8897 10C14.3291 9.9992 14.7685 10.016 15.2079 10.027C15.3937 10.0317 15.5796 10.0381 15.765 10.0493C16.2087 10.0763 16.6526 10.1018 17.0957 10.1367C17.4769 10.1667 17.8588 10.1962 18.2376 10.2485C18.8867 10.3379 19.5354 10.4338 20.1811 10.5471C21.0526 10.7002 21.9122 10.9118 22.7584 11.1793C23.5334 11.4244 24.2905 11.717 25.0086 12.1113C25.5273 12.3962 26.0165 12.7249 26.4211 13.1742C26.6835 13.4656 26.8868 13.7934 26.9678 14.1915C27.0551 14.6203 26.9592 15.0137 26.7467 15.3804C26.483 15.8356 26.1043 16.172 25.6882 16.4665C25.0402 16.9251 24.3305 17.2531 23.5978 17.5304C22.6328 17.8957 21.6424 18.1648 20.6346 18.3629C20.0769 18.4726 19.5165 18.5689 18.9554 18.6583C18.6057 18.714 18.2526 18.7486 17.9005 18.7872C17.5538 18.8253 17.2067 18.8587 16.8595 18.8899C16.6662 18.9073 16.4722 18.9191 16.2783 18.9277C15.7129 18.9525 15.1474 18.9766 14.5818 18.9966C14.3875 19.0035 14.1928 18.9977 13.9983 18.9977C13.9983 18.9921 13.9983 18.9865 13.9983 18.9808ZM13.9974 17.5481C14.4285 17.5481 14.8596 17.55 15.2907 17.5472C15.4539 17.5462 15.6172 17.5369 15.7803 17.527C16.1143 17.5068 16.4484 17.4854 16.7823 17.4612C17.0095 17.4446 17.2366 17.4256 17.4632 17.4021C17.754 17.372 18.0442 17.3355 18.3348 17.3032C18.551 17.2792 18.7647 17.2446 18.9641 17.1484C19.3107 16.9811 19.4172 16.7087 19.2762 16.3399C19.1677 16.056 18.9844 15.8251 18.7809 15.611C17.6843 14.4572 16.5317 13.3685 15.3108 12.3592C15.0474 12.1415 14.7818 11.9288 14.4662 11.7969C14.2671 11.7136 14.063 11.665 13.8478 11.7041C13.4938 11.7685 13.1935 11.9528 12.9152 12.1774C12.1905 12.7623 11.4859 13.3734 10.8137 14.0229C10.2493 14.5683 9.69858 15.1293 9.14955 15.6916C8.94367 15.9025 8.77342 16.146 8.69195 16.4431C8.61637 16.7186 8.69511 16.9362 8.92845 17.0858C8.99972 17.1316 9.07741 17.1772 9.15774 17.1946C9.41025 17.2491 9.664 17.304 9.92004 17.3336C10.4144 17.3906 10.9102 17.4371 11.4063 17.4753C11.8412 17.5087 12.2771 17.5338 12.7128 17.5459C13.1407 17.5575 13.5692 17.5482 13.9974 17.5481ZM13.6874 10.6588C13.6657 10.6564 13.644 10.6515 13.6223 10.6519C13.242 10.6585 12.8616 10.6648 12.4813 10.6734C12.3575 10.6761 12.2336 10.6827 12.1101 10.6917C11.664 10.7243 11.2178 10.756 10.7721 10.7934C10.4611 10.8195 10.1494 10.8439 9.84041 10.8874C9.28065 10.9661 8.72142 11.0506 8.16421 11.1471C7.28349 11.2996 6.41596 11.5133 5.56726 11.804C4.97759 12.0061 4.40146 12.2428 3.86661 12.5766C3.4939 12.8092 3.1446 13.0725 2.90484 13.4611C2.64485 13.8823 2.63992 14.3099 2.89517 14.7378C3.00963 14.9296 3.15648 15.0914 3.32119 15.236C3.70639 15.5746 4.14217 15.8276 4.60559 16.0243C5.05976 16.217 5.52265 16.2062 5.98167 16.025C6.23585 15.9247 6.44649 15.7514 6.66337 15.588C8.33816 14.3267 10.0122 13.0643 11.6891 11.8059C12.3084 11.341 12.9279 10.8735 13.6874 10.6588ZM14.3048 10.6605C14.4901 10.7282 14.6665 10.7802 14.8331 10.8561C15.2583 11.0497 15.6486 11.3093 16.0238 11.5909C17.8693 12.9762 19.7124 14.3652 21.5553 15.7542C22.0668 16.1397 22.6305 16.2707 23.2334 16.077C23.5285 15.9822 23.8072 15.8212 24.0807 15.6662C24.4313 15.4675 24.7516 15.2212 25.0027 14.8905C25.3864 14.3852 25.3952 13.8336 25.0053 13.3357C24.8572 13.1466 24.6799 12.9753 24.4928 12.8279C23.9706 12.4168 23.3739 12.1521 22.7626 11.9225C21.983 11.6296 21.1834 11.4115 20.3697 11.252C19.8702 11.1541 19.3683 11.0687 18.866 10.9874C18.544 10.9353 18.2199 10.8969 17.896 10.8598C17.5581 10.8212 17.2196 10.787 16.8807 10.7594C16.5779 10.7346 16.2745 10.7164 15.9709 10.7042C15.4392 10.683 14.9073 10.6685 14.3754 10.6518C14.3542 10.6513 14.333 10.657 14.3048 10.6605Z" fill="#18232E"/>
</svg>
