<svg width="28" height="28" viewBox="0 0 28 28" fill="none" xmlns="http://www.w3.org/2000/svg">
<g clip-path="url(#clip0_630_14597)">
<path d="M21.307 10.6889C22.0031 10.6889 22.6483 10.6889 23.335 10.6889C23.3642 10.8749 23.392 11.052 23.401 11.1093C24.0479 10.9071 24.6646 10.59 25.3019 10.5421C26.4525 10.4555 27.3763 11.1879 27.7547 12.335C28.1136 13.4228 28.0799 14.516 27.6465 15.5762C26.974 17.2217 25.2025 17.7305 23.7165 16.7271C23.6544 16.6852 23.5872 16.6507 23.433 16.5605C23.433 17.4025 23.433 18.1796 23.433 19.0003C22.6827 19.0003 22.0095 19.0003 21.3068 19.0003C21.3069 16.2367 21.307 13.4892 21.307 10.6889ZM23.3031 13.9737C23.3182 13.9771 23.3334 13.9805 23.3484 13.9839C23.3628 14.2359 23.3583 14.4905 23.3952 14.7391C23.4892 15.3734 23.9127 15.7563 24.5352 15.7947C25.0786 15.8281 25.5867 15.5196 25.6837 14.9186C25.7895 14.2636 25.8002 13.5746 25.7221 12.9154C25.6586 12.3784 25.1884 12.1226 24.652 12.0835C24.1173 12.0445 23.7255 12.3131 23.5483 12.7886C23.4089 13.1625 23.3807 13.577 23.3031 13.9737Z" fill="#18232E"/>
<path d="M0.0154571 12.8707C0.760392 12.8707 1.44282 12.8707 2.21243 12.8707C2.21243 13.2406 2.20175 13.584 2.21456 13.9266C2.2435 14.7003 2.7657 15.182 3.54491 15.1676C4.35306 15.1527 4.84822 14.6889 4.85178 13.91C4.85985 12.1599 4.85463 10.4096 4.85475 8.65942C4.85475 8.45092 4.85475 8.24243 4.85475 8C5.61759 8 6.31734 8 7.01128 8C7.04045 8.04015 7.08208 8.07056 7.08208 8.10096C7.08267 10.2003 7.12632 12.301 7.06061 14.3983C7.01934 15.72 5.9645 16.7263 4.47084 16.9196C3.76172 17.0114 3.00729 16.9832 2.30411 16.8507C0.879942 16.5823 0.166081 15.7531 0.0228104 14.3391C-0.0237999 13.8795 0.0154571 13.4114 0.0154571 12.8707Z" fill="#18232E"/>
<path d="M13.9829 14.1836C13.1695 14.1836 12.4837 14.1836 11.798 14.1836C11.1132 14.1836 10.4284 14.1836 9.70089 14.1836C9.67242 14.7763 9.76825 15.2596 10.2819 15.5265C10.7819 15.7861 11.2654 15.7097 11.6881 15.3102C11.7916 15.2123 11.9415 15.1081 12.0737 15.1032C12.6773 15.0812 13.2822 15.0936 13.8837 15.0936C13.9193 16.0449 12.5643 16.9742 11.3997 17.0796C9.97332 17.2088 8.69645 16.9387 7.98532 15.5666C7.24406 14.1364 7.45968 12.7265 8.399 11.4618C9.17881 10.4118 10.3202 10.3045 11.5336 10.509C12.7922 10.7212 13.4979 11.4943 13.7826 12.6708C13.8944 13.1338 13.9112 13.6191 13.9829 14.1836ZM11.899 12.9614C11.9336 12.2149 11.5 11.733 10.8157 11.7308C10.1568 11.7285 9.76991 12.1947 9.82613 12.9614C10.5156 12.9614 11.2078 12.9614 11.899 12.9614Z" fill="#18232E"/>
<path d="M20.8098 14.192C19.3294 14.192 17.9572 14.192 16.5724 14.192C16.4714 14.7629 16.5818 15.2241 17.0583 15.5002C17.5706 15.797 18.0658 15.7052 18.5248 15.3183C18.6702 15.1956 18.8921 15.1125 19.0841 15.1019C19.6125 15.0729 20.1436 15.0919 20.8965 15.0919C20.5592 15.5765 20.368 16.0036 20.0466 16.2864C18.6638 17.5036 16.2119 17.3776 15.1332 16.0748C13.9424 14.6364 14.2564 12.0436 15.7554 10.9369C17.5466 9.61464 20.2793 10.7024 20.6587 12.8944C20.7275 13.2915 20.7533 13.6957 20.8098 14.192ZM18.7615 12.9571C18.7019 12.1558 18.2462 11.6988 17.5931 11.7324C16.9414 11.7659 16.6213 12.1631 16.6389 12.9571C17.3341 12.9571 18.0308 12.9571 18.7615 12.9571Z" fill="#18232E"/>
</g>
<defs>
<clipPath id="clip0_630_14597">
<rect width="28" height="28" fill="white"/>
</clipPath>
</defs>
</svg>
