<svg width="28" height="28" viewBox="0 0 28 28" fill="none" xmlns="http://www.w3.org/2000/svg">
<path d="M0 11.4633C0.328588 11.4633 0.64308 11.4521 0.9566 11.4633C2.28456 11.5221 3.60912 11.5901 4.93612 11.6465C6.69134 11.7214 8.44705 11.786 10.2023 11.8628C10.4935 11.8762 10.7848 11.8395 11.0636 11.7544C11.6984 11.56 12.3357 11.3772 12.969 11.1799C13.6365 10.9648 14.3547 10.9648 15.0222 11.1799C15.6089 11.3646 16.2 11.5337 16.7867 11.7146C17.1423 11.8274 17.5149 11.8767 17.8876 11.8604C19.7804 11.7763 21.6737 11.7097 23.567 11.63C24.9581 11.5712 26.3493 11.5012 27.74 11.4356C27.8172 11.4321 27.894 11.4356 28 11.4356C27.8056 11.7564 27.5625 11.9527 27.2223 11.9965C26.6929 12.0645 26.1621 12.1282 25.6304 12.1783C23.4994 12.3805 21.3709 12.5705 19.2438 12.7752C18.9307 12.8129 18.6204 12.871 18.3149 12.9492C18.1404 12.9891 17.9758 13.0638 17.8307 13.1687C17.6857 13.2735 17.5632 13.4065 17.4706 13.5597C17.3447 13.7575 17.2232 13.9583 17.1085 14.1629C16.4022 15.4238 15.3518 16.3017 14.0637 16.9219C14.0423 16.9321 14.0185 16.9379 13.982 16.9511C12.8179 16.4003 11.819 15.6421 11.1088 14.5392C10.9387 14.2742 10.7793 14.0011 10.6227 13.7264C10.369 13.2758 10.0006 12.9823 9.4858 12.9001C8.94382 12.818 8.3999 12.7305 7.85307 12.6785C5.83001 12.4869 3.80599 12.311 1.78245 12.1253C1.4524 12.0947 1.12332 12.0485 0.794737 12.0047C0.442817 11.9576 0.184223 11.7695 0 11.4633ZM14.0029 16.4601C14.2275 16.3172 14.4496 16.184 14.6635 16.0387C15.7815 15.2775 16.55 14.2592 16.9165 12.9487C17.0176 12.5866 16.9519 12.431 16.6185 12.258C16.5548 12.2227 16.4881 12.1933 16.4192 12.17C15.7387 11.9625 15.0582 11.7549 14.3777 11.5532C14.124 11.4778 13.8673 11.4915 13.6092 11.5493C12.8979 11.705 12.2004 11.9179 11.5234 12.1861C11.411 12.2315 11.3042 12.2897 11.2051 12.3596C11.1284 12.4072 11.0699 12.4791 11.0389 12.5639C11.0079 12.6486 11.0061 12.7413 11.034 12.8272C11.0544 12.9055 11.0787 12.9827 11.1015 13.0605C11.5609 14.6126 12.5918 15.678 14.0029 16.4601Z" fill="black"/>
<path d="M0.888063 12.3805C0.944448 12.3805 0.998403 12.3761 1.05139 12.3805C2.48629 12.5179 3.92086 12.6561 5.35511 12.7951C6.24172 12.8807 7.1293 12.9599 8.01444 13.0566C8.44025 13.1052 8.86313 13.182 9.28602 13.2511C9.59614 13.2997 9.84307 13.4644 10.0414 13.7021C10.1503 13.8324 10.2567 13.9656 10.3525 14.1056C10.8298 14.807 11.2872 15.5249 11.9687 16.0688C11.049 15.9668 10.1668 15.7286 9.26075 15.4676C9.38907 15.3597 9.52031 15.4063 9.63697 15.3908C9.77307 15.3728 9.9116 15.3689 10.0487 15.3587L10.4516 15.3266C10.3661 15.1472 10.2237 15.0836 10.0628 15.0593C9.9745 15.0467 9.88497 15.0456 9.7964 15.0559C8.41837 15.1934 7.08458 14.9757 5.77508 14.5601C5.5442 14.4867 5.31137 14.4172 5.08 14.3447C5.06687 14.3408 5.05715 14.3243 5.00563 14.2752L8.91855 14.3583C8.87286 14.1639 8.72412 14.1216 8.57829 14.091C8.43477 14.0655 8.28948 14.0512 8.14374 14.0482C7.08409 13.9923 6.02396 13.9486 4.96528 13.88C4.23082 13.8314 3.4949 13.7872 2.77793 13.6001C2.03035 13.4056 1.43636 12.972 0.901673 12.4388C0.890494 12.4291 0.89341 12.4072 0.888063 12.3805Z" fill="black"/>
<path d="M16.0153 16.0718C16.6443 15.5565 17.0915 14.9052 17.5338 14.2446C18.1108 13.3857 18.2707 13.2768 19.2929 13.1441C20.1513 13.0328 21.0136 12.9497 21.8749 12.8636C22.9701 12.7528 24.0657 12.6483 25.1613 12.5428C25.7495 12.4865 26.3376 12.433 26.9263 12.379C26.9797 12.3742 27.0342 12.379 27.1207 12.379C27.0944 12.4177 27.066 12.4548 27.0356 12.4903C26.3294 13.2107 25.4802 13.6511 24.4725 13.74C23.3356 13.8387 22.1962 13.9116 21.0578 13.9894C20.5494 14.0244 20.0371 14.038 19.5306 14.0701C19.34 14.0813 19.1675 14.1377 19.0338 14.3569L22.9535 14.2733L22.9633 14.3097C22.91 14.335 22.8553 14.3571 22.7995 14.3758C22.1442 14.5557 21.4895 14.736 20.8333 14.9105C20.1771 15.085 19.5053 15.0986 18.8321 15.0772C18.5652 15.069 18.2974 15.0549 18.031 15.0491C17.8264 15.0447 17.6587 15.1195 17.5163 15.3237L18.7077 15.4151C18.7077 15.4316 18.7101 15.4481 18.7115 15.4637C17.8317 15.7426 16.9297 15.9461 16.0153 16.0718Z" fill="black"/>
<path d="M13.4007 13.1811V13.63H13.3011V13.2867C13.3011 13.2297 13.3011 13.1727 13.3011 13.1155C13.3011 13.0541 13.3164 12.9884 13.2413 12.9373C13.3312 12.928 13.3948 12.9201 13.4486 12.9985C13.5414 13.1334 13.6477 13.2588 13.7477 13.3887C13.7529 13.3985 13.7564 13.409 13.7583 13.4199L13.778 13.4057V12.9375H13.8742V13.6259C13.8136 13.6438 13.7683 13.6369 13.7269 13.5806C13.6263 13.4436 13.5191 13.3115 13.4145 13.1774L13.4007 13.1811Z" fill="black"/>
<path d="M12.2743 13.5415C12.2481 13.4493 12.3384 13.3244 12.1704 13.28L12.186 13.2668H12.4131C12.4131 13.3637 12.413 13.4597 12.4123 13.5557C12.4111 13.5684 12.4052 13.5802 12.3956 13.5887C12.2815 13.686 11.9395 13.6492 11.8447 13.5278C11.75 13.4063 11.7442 13.2684 11.7941 13.1292C11.8411 12.9975 11.9475 12.937 12.0794 12.9199C12.1894 12.9056 12.2955 12.9242 12.4027 12.9691C12.3937 13.0042 12.3858 13.035 12.3751 13.0774C12.2901 13.0058 12.1983 12.9735 12.0987 13.0043C12.0515 13.0198 12.0093 13.0474 11.9761 13.0845C11.8947 13.1775 11.8921 13.3604 11.9623 13.4619C12.0307 13.5616 12.1346 13.5901 12.2743 13.5415Z" fill="black"/>
<path d="M15.7124 13.6387C15.7194 13.586 15.7235 13.5564 15.7286 13.5179C15.7624 13.5292 15.7896 13.5432 15.8183 13.5472C15.8781 13.5553 15.9395 13.5661 15.9986 13.5603C16.0278 13.5573 16.068 13.5233 16.0765 13.4953C16.085 13.4672 16.0696 13.4181 16.047 13.3983C16.0037 13.3604 15.9481 13.3365 15.8976 13.3069C15.8544 13.2816 15.8067 13.2618 15.769 13.2302C15.656 13.1354 15.6834 12.9906 15.8222 12.9417C15.9448 12.8984 16.0664 12.9154 16.1948 12.9549C16.1901 12.9813 16.1858 13.0055 16.1817 13.0301C16.1146 13.017 16.0519 13.0005 15.9883 12.9924C15.9559 12.9888 15.9232 12.993 15.8929 13.0048C15.8333 13.0283 15.8218 13.0881 15.8703 13.13C15.9059 13.1608 15.9508 13.181 15.9922 13.2047C16.0489 13.2371 16.1112 13.2617 16.1624 13.3012C16.2709 13.3855 16.2548 13.5408 16.1342 13.6067C16.1064 13.6239 16.0751 13.6347 16.0426 13.6383C15.9362 13.6412 15.8303 13.6387 15.7124 13.6387Z" fill="black"/>
<path d="M15.221 12.9548L15.2053 13.025C15.1268 13.0118 15.0552 12.9969 14.9828 12.9905C14.9363 12.9864 14.8888 12.9994 14.8727 13.053C14.8554 13.1098 14.8965 13.1384 14.9366 13.1609C15.0031 13.1981 15.0734 13.2282 15.1395 13.2663C15.2353 13.3208 15.2704 13.387 15.2573 13.4731C15.2442 13.5553 15.1832 13.6226 15.082 13.6333C14.9734 13.6448 14.8626 13.6359 14.7447 13.6359C14.7477 13.5888 14.7498 13.5569 14.7522 13.5198C14.798 13.5329 14.8363 13.549 14.8761 13.5549C14.9251 13.5623 14.9769 13.5701 15.0244 13.5613C15.0414 13.5567 15.0571 13.5485 15.0707 13.5373C15.0842 13.5261 15.0952 13.5121 15.1029 13.4963C15.1126 13.4715 15.0988 13.4269 15.08 13.4041C15.0566 13.3751 15.0184 13.3572 14.9846 13.3382C14.9323 13.3082 14.8751 13.2844 14.8236 13.252C14.7594 13.2112 14.7168 13.1542 14.729 13.0719C14.7412 12.9896 14.8005 12.9544 14.87 12.9346C14.9867 12.9 15.1015 12.9162 15.221 12.9548Z" fill="black"/>
<path d="M12.6208 13.6307C12.6208 13.4526 12.6208 13.2819 12.6208 13.111C12.6208 13.0519 12.6349 12.989 12.5803 12.9316H12.681C12.7964 12.9316 12.912 12.9341 13.0273 12.9304C13.0815 12.9287 13.1103 12.9436 13.107 13.0079H12.7655V13.2325H13.068V13.3071C12.9883 13.3071 12.9087 13.3102 12.8295 13.306C12.7757 13.3032 12.7549 13.3191 12.7593 13.3754C12.7636 13.4316 12.7603 13.4883 12.7603 13.5511H13.1086V13.6301L12.6208 13.6307Z" fill="black"/>
<path d="M14.5393 13.2326L14.5353 13.3064H14.2353V13.5524H14.578V13.6315H14.0918V13.5183C14.0918 13.3779 14.0943 13.2375 14.0907 13.0968C14.0892 13.0449 14.0732 12.9932 14.0621 12.9312H14.1528C14.2684 12.9312 14.3841 12.9338 14.4994 12.93C14.5527 12.9282 14.5766 12.9461 14.5752 13.0065H14.2349V13.2322L14.5393 13.2326Z" fill="black"/>
<path d="M15.5465 13.6284C15.5354 13.6309 15.5241 13.6327 15.5128 13.6337C15.4827 13.6344 15.4524 13.6337 15.413 13.6337V13.5011C15.413 13.3739 15.4159 13.2468 15.4117 13.12C15.4097 13.0592 15.3942 12.999 15.3842 12.9355H15.5465V13.6284Z" fill="black"/>
</svg>
