<svg width="28" height="28" viewBox="0 0 28 28" fill="none" xmlns="http://www.w3.org/2000/svg">
<path d="M24.9699 3.81606C24.9699 4.0608 24.9699 4.30596 24.9699 4.55048C24.9656 5.59672 24.9592 6.64297 24.9567 7.68922C24.955 8.40234 24.9586 9.11631 24.9592 9.82878C24.9592 10.4782 24.9643 11.1281 24.9592 11.7771C24.9511 12.6367 24.7888 13.4742 24.6027 14.3105C24.4749 14.8834 24.2806 15.4336 24.1151 15.9932C23.9053 16.7035 23.6152 17.3796 23.3132 18.0524C23.2173 18.2654 23.1488 18.4927 23.0406 18.6991C22.8005 19.1575 22.5311 19.6003 22.2951 20.061C21.8179 20.9961 21.2467 21.8715 20.6203 22.7098C20.1943 23.2794 19.7883 23.866 19.2845 24.3729C18.7808 24.8799 18.2862 25.3906 17.7703 25.8818C17.4701 26.1629 17.1541 26.4268 16.824 26.6722C16.2412 27.1123 15.6421 27.5313 14.9892 27.8629C14.7607 27.979 14.507 28.0295 14.2454 27.9826C14.2179 27.9766 14.1914 27.9662 14.1671 27.9519C13.8571 27.7815 13.5398 27.622 13.2401 27.4348C12.6771 27.0835 12.1302 26.7085 11.629 26.2703C11.4077 26.0767 11.1685 25.9025 10.9557 25.7001C10.4634 25.2315 9.98569 24.7484 9.53136 24.2424C9.05446 23.7111 8.64721 23.1263 8.20971 22.5648C7.7228 21.9401 7.34749 21.2497 6.93619 20.5809C6.71233 20.2169 6.56068 19.809 6.33724 19.445C6.10145 19.0616 5.92062 18.6533 5.7515 18.2418C5.44308 17.491 5.16362 16.7295 4.8748 15.9699C4.8109 15.8044 4.75786 15.6355 4.7044 15.4668C4.67224 15.3659 4.64689 15.2626 4.62133 15.1597C4.58789 15.0257 4.5585 14.8909 4.52506 14.7569C4.42431 14.3554 4.28586 13.9592 4.22899 13.5518C4.13101 12.8506 4.03729 12.1475 4.05028 11.4337C4.06179 10.7532 4.026 10.0718 4.01897 9.39065C4.01003 8.49605 4.00854 7.60146 4.0047 6.70794C4.00236 6.165 3.99703 5.62165 4.00215 5.07935C4.00768 4.46634 4.02494 3.85355 4.03367 3.24075C4.03495 3.15875 4.07052 3.12957 4.14443 3.11636C4.87004 2.98686 5.59566 2.85636 6.32127 2.72487C7.28019 2.55092 8.23903 2.37648 9.19781 2.20154C10.1147 2.03525 11.0319 1.8694 11.9495 1.70397C12.7483 1.55999 13.5453 1.4045 14.3472 1.28096C14.5679 1.24709 14.8054 1.29502 15.0316 1.32952C15.9081 1.46371 16.7827 1.60621 17.6579 1.74657C18.6945 1.91243 19.7306 2.07871 20.7662 2.24541C21.8655 2.42092 22.9649 2.59551 24.0644 2.76918C24.3271 2.81177 24.5891 2.85587 24.8525 2.89527C24.9345 2.90762 24.9697 2.94618 24.969 3.02882C24.9671 3.29145 24.969 3.55386 24.969 3.81691L24.9699 3.81606ZM24.7143 8.45133H24.6998C24.6998 7.28026 24.7004 6.10877 24.7017 4.93686C24.7017 4.85954 24.677 4.82567 24.6061 4.80182C23.8365 4.54388 23.0725 4.26591 22.2978 4.02672C20.5086 3.47292 18.6822 3.0908 16.8155 2.90975C15.7738 2.80549 14.7263 2.76991 13.6799 2.80325C12.602 2.84134 11.5277 2.94899 10.4637 3.12552C8.87703 3.38772 7.33557 3.81734 5.8286 4.37305C5.33977 4.55325 4.85968 4.75645 4.37319 4.94346C4.29182 4.97456 4.26797 5.01204 4.26861 5.09597C4.27585 6.08996 4.28096 7.08395 4.28394 8.07794C4.28884 9.20683 4.28394 10.3357 4.30205 11.4646C4.30947 11.922 4.34361 12.3786 4.40429 12.8321C4.56915 14.0674 4.88992 15.2645 5.30548 16.4371C6.04391 18.5232 7.06495 20.4983 8.34006 22.3071C9.26 23.6144 10.3075 24.8092 11.5231 25.8494C11.9399 26.2062 12.3853 26.531 12.825 26.8595C13.0316 27.0143 13.2558 27.146 13.4712 27.2893C13.7249 27.458 13.9762 27.6301 14.231 27.7967C14.3519 27.8759 14.4744 27.8642 14.6022 27.7967C15.1797 27.4925 15.7355 27.1491 16.2659 26.7687C17.3618 25.9855 18.3335 25.066 19.2179 24.0543C19.5839 23.6355 19.9353 23.2039 20.272 22.7593C21.2584 21.4574 22.0951 20.0633 22.8005 18.5907C23.4998 17.1306 24.0548 15.6191 24.411 14.0378C24.5758 13.3068 24.7013 12.5682 24.7107 11.8171C24.7239 10.6946 24.7134 9.57297 24.7134 8.45133H24.7143Z" fill="black"/>
<path d="M4.07499 2.56193C4.07499 2.36086 4.07222 2.18045 4.07861 2.00025C4.07861 1.97895 4.12909 1.94807 4.15998 1.94232C4.61238 1.85541 5.06543 1.77341 5.51805 1.68672C6.54513 1.49175 7.57206 1.29601 8.59886 1.09948C9.95992 0.840336 11.321 0.581401 12.6822 0.322679C13.2243 0.220653 13.7692 0.1231 14.3106 0.0174529C14.56 -0.0313236 14.7977 0.0334278 15.0374 0.0738974C16.0096 0.237622 16.981 0.404683 17.9514 0.575082C19.0411 0.763372 20.1307 0.951947 21.2203 1.1408C22.1149 1.29459 23.0095 1.44731 23.904 1.59896C24.208 1.65094 24.5117 1.70376 24.8161 1.75296C24.8864 1.76425 24.9207 1.78811 24.9169 1.86734C24.9102 2.0011 24.9151 2.13551 24.9151 2.29185C24.7582 2.27055 24.6121 2.25436 24.4679 2.23008C22.9686 1.97675 21.4694 1.72286 19.9702 1.4684C18.2391 1.17531 16.5085 0.886485 14.7792 0.587862C14.5449 0.547392 14.3217 0.576573 14.0951 0.620664C12.8222 0.868025 11.549 1.11496 10.2756 1.36147C8.59886 1.68693 6.92214 2.01282 5.24542 2.33913C4.86287 2.41347 4.4799 2.48504 4.07499 2.56193Z" fill="black"/>
<path d="M10.3548 11.3072C10.2724 11.2171 10.1921 11.1249 10.1067 11.0375C9.93627 10.8631 9.76417 10.6889 9.58802 10.5195C9.52296 10.4607 9.45242 10.4082 9.37737 10.3628C9.32305 10.3278 9.28812 10.3508 9.2681 10.413C9.2255 10.5481 9.17608 10.6814 9.12965 10.8154C9.08728 10.9406 9.00496 11.0484 8.89535 11.1223C8.72666 11.238 8.54603 11.3372 8.47404 11.5536C8.38108 11.8199 8.36753 12.1074 8.43506 12.3811C8.47425 12.5394 8.51494 12.6974 8.56094 12.8538C8.58416 12.933 8.58033 12.992 8.51025 13.0495C8.434 13.1134 8.37074 13.1905 8.30087 13.2612C8.27697 13.2874 8.2505 13.3111 8.22185 13.332C8.0834 13.4238 7.96284 13.3761 7.95262 13.215C7.94282 13.0602 7.95496 12.9038 7.95816 12.7481C7.96178 12.5605 7.96434 12.3728 7.97073 12.1854C7.97286 12.1215 7.96625 12.0497 7.99479 11.999C8.17499 11.6795 8.23399 11.3174 8.36435 10.9813C8.52196 10.5751 8.58693 10.1357 8.80546 9.75274C8.87239 9.63623 8.94541 9.52333 9.02421 9.4145C9.15606 9.23111 9.35032 9.24687 9.53733 9.2784C9.77418 9.31844 9.958 9.46179 10.1188 9.6307C10.2483 9.76638 10.391 9.875 10.5661 9.94615C10.7137 10.0069 10.8572 10.0771 10.9957 10.1564C11.0752 10.2015 11.138 10.2003 11.2104 10.1504C11.2978 10.0899 11.3898 10.036 11.4784 9.97724C11.6701 9.84945 11.8596 9.71866 12.0535 9.59385C12.2239 9.48415 12.3651 9.3538 12.4492 9.16189C12.4863 9.07716 12.5451 9.0037 12.6196 8.94889C13.0275 8.66603 13.2812 8.26048 13.5048 7.83576C13.6326 7.59529 13.724 7.33628 13.8243 7.08324C13.8725 6.96268 13.7994 6.84681 13.6657 6.83999C13.3521 6.82423 13.048 6.76481 12.7442 6.68962C12.6313 6.66172 12.5001 6.69899 12.3785 6.71688C12.3017 6.73102 12.2264 6.75242 12.1536 6.78078C11.9934 6.83637 11.8554 6.79484 11.7097 6.68089C11.8697 6.62849 12.0151 6.57758 12.1627 6.53392C12.2318 6.51262 12.2479 6.48067 12.209 6.4091L11.4622 6.58163C11.4622 6.38482 11.4622 6.21591 11.4622 6.04679C11.4616 6.03608 11.4649 6.02551 11.4713 6.01697C11.6193 5.87114 11.7678 5.72573 11.9167 5.58075C12.3666 5.50471 12.7261 5.22802 13.1221 5.03441C13.2486 4.97264 13.3709 4.90214 13.5004 4.8327C13.3202 4.69574 13.1413 4.64548 12.6729 4.59436C12.7131 4.53237 12.7131 4.53237 13.1794 4.48061C13.1408 4.45271 13.1155 4.43333 13.0884 4.41522C13.0614 4.39712 13.0358 4.38178 12.989 4.35239C13.0223 4.34104 13.0565 4.33235 13.0912 4.3264C13.1513 4.32236 13.2139 4.33279 13.2716 4.32001C13.3805 4.29637 13.5134 4.4082 13.5988 4.27145C13.6588 4.17496 13.7036 4.06889 13.7604 3.95707C13.8693 4.07805 13.9918 4.20478 14.0476 4.40436L13.655 4.32832C13.6337 4.39052 13.6365 4.43312 13.7149 4.43482C13.8459 4.43929 13.9771 4.44078 14.1078 4.44888C14.1884 4.45378 14.2099 4.4263 14.206 4.34494C14.2036 4.23539 14.2102 4.12582 14.2256 4.01734C14.2307 3.97474 14.2591 3.93491 14.2853 3.87378C14.32 3.91468 14.3424 3.93917 14.3628 3.96537C14.5596 4.2182 14.7962 4.40095 15.1315 4.42524C15.3066 4.43852 15.4726 4.50851 15.6044 4.6246C15.7388 4.74246 15.9133 4.80428 16.0919 4.79734C16.2791 4.79436 16.4666 4.81971 16.6538 4.83504C16.6904 4.84083 16.7264 4.84951 16.7616 4.86103C16.7641 4.87402 16.7669 4.8868 16.7697 4.8998L16.094 5.149C16.1492 5.20438 16.1897 5.26083 16.2431 5.29576C16.359 5.37052 16.4894 5.42356 16.6008 5.5045C16.7829 5.63929 16.9802 5.75231 17.1886 5.84125C17.3916 5.92517 17.4841 6.12624 17.5916 6.30367L17.5737 6.32965C17.4853 6.27747 17.3857 6.23742 17.3109 6.1699C17.1928 6.06151 17.0458 5.98974 16.8877 5.96329C16.6698 5.92453 16.4519 5.88555 16.2284 5.86276C16.4478 6.04828 16.6248 6.28876 16.9556 6.29174C17.1533 6.29387 17.3518 6.34158 17.5201 6.45766C17.5982 6.51155 17.6617 6.58695 17.7318 6.65256L17.7075 6.69516C17.6462 6.68003 17.5782 6.67663 17.5248 6.64702C17.4133 6.58272 17.2835 6.55767 17.1561 6.57588C16.952 6.60442 16.755 6.58184 16.5675 6.48258L16.5484 6.50963C16.6093 6.60122 16.6657 6.69622 16.7339 6.78227C16.7524 6.80592 16.805 6.80634 16.8427 6.81018C17.0608 6.83148 17.2525 6.91667 17.4261 7.04724C17.446 7.06566 17.4647 7.08537 17.4819 7.10624C17.1167 7.09368 16.7739 7.09346 16.4809 6.86896C16.4383 6.83659 16.3763 6.82977 16.3232 6.81103L16.2915 6.84489C16.3168 6.89772 16.3303 6.96332 16.3699 7.00102C16.5454 7.16801 16.6855 7.36014 16.8287 7.55482C16.9467 7.71542 17.0819 7.86068 17.1695 8.04471C17.2057 8.12097 17.2792 8.17954 17.345 8.25771C17.2112 8.27475 17.1107 8.23641 17.037 8.15121C16.7914 7.86302 16.4246 7.74481 16.1535 7.4939L16.1234 7.52159C16.1709 7.58059 16.2086 7.65152 16.2676 7.69625C16.38 7.78248 16.4986 7.86043 16.6223 7.92948C16.7601 8.00659 16.8698 8.10435 16.9343 8.25089C16.9648 8.32112 17.0089 8.38464 17.0639 8.43782C17.119 8.491 17.1841 8.5328 17.2553 8.56081C17.3128 8.58488 17.3673 8.61619 17.43 8.6475C17.1823 8.76124 16.8225 8.67391 16.6811 8.45878C16.6142 8.35675 16.5371 8.30776 16.4178 8.29882C16.3162 8.29136 16.2161 8.26389 16.0845 8.2396C16.1153 8.30095 16.1281 8.35271 16.1601 8.38572C16.3328 8.56443 16.5122 8.73078 16.7535 8.82343C16.84 8.85666 16.9137 8.94676 16.9707 9.02685C17.0479 9.14108 17.1087 9.26554 17.1514 9.39661C17.0723 9.34251 16.9914 9.29011 16.9147 9.23367C16.7601 9.11631 16.5897 9.06987 16.3767 9.10651L16.5298 9.29033L16.0785 9.18894C16.0734 9.203 16.0685 9.21705 16.0634 9.23154C16.1607 9.27116 16.2551 9.32781 16.3565 9.34698C16.5301 9.37978 16.6679 9.4554 16.8001 9.57404C16.89 9.65455 17.0255 9.68373 17.1541 9.74209C17.145 9.79236 17.1115 9.84476 17.0195 9.82175C16.8523 9.77916 16.6823 9.74571 16.5203 9.68927C16.3729 9.63815 16.2299 9.58277 16.0644 9.60982C16.3701 9.72101 16.6985 9.79534 16.8719 10.153C16.7558 10.0957 16.6632 10.0465 16.5684 10.0039C16.5277 9.98534 16.4813 9.96319 16.4395 9.96659C16.2267 9.98351 16.0151 10.0132 15.8059 10.0554C15.8463 10.0767 15.8853 10.1159 15.9275 10.1193C16.159 10.1391 16.3535 10.2279 16.4941 10.4154C16.6555 10.6311 16.853 10.6878 17.1007 10.5798C17.1552 10.5584 17.2128 10.5461 17.2713 10.5434C17.1009 10.6818 16.9092 10.7711 16.6872 10.7202C16.4943 10.6761 16.3056 10.6137 16.116 10.5553C15.9601 10.5078 15.8059 10.4548 15.6502 10.4062C15.6181 10.3982 15.5855 10.3924 15.5526 10.3888L15.539 10.4207C15.6061 10.4616 15.6727 10.5031 15.7403 10.5434C15.9437 10.6646 16.1496 10.7819 16.3494 10.9089C16.3976 10.9396 16.4261 11.0011 16.4721 11.0593C16.3594 11.0989 16.3 11.0424 16.2419 10.9969C16.1335 10.9117 16.0174 10.8535 15.9192 10.8533L16.4943 11.5064C16.4323 11.5613 16.356 11.5592 16.2789 11.4961C16.276 11.4942 16.2731 11.492 16.2704 11.4897C15.9807 11.1811 15.5986 11.0691 15.2024 10.9869C15.1545 10.9771 15.1083 10.9602 15.0516 10.9443C15.0363 11.1573 15.0352 11.3598 15.1341 11.55C15.4866 12.2274 15.9564 12.7999 16.5793 13.254C16.9523 13.5296 17.3091 13.8264 17.6479 14.1431C17.9712 14.4413 18.1606 14.8359 18.3333 15.2345C18.3951 15.3763 18.3897 15.3836 18.5442 15.3578C19.1815 15.2543 19.6445 14.9386 19.8279 14.2898C19.9091 14.0025 19.9184 13.709 19.8918 13.4135C19.8514 12.9789 19.7518 12.5518 19.5957 12.1441C19.3721 11.5455 19.4158 10.9432 19.7263 10.3975C19.8899 10.1102 20.1708 9.88864 20.4051 9.64348C20.4477 9.59896 20.521 9.58341 20.5802 9.55444L20.5968 9.57574C20.54 9.63396 20.4832 9.69218 20.4264 9.7504C20.2226 9.95935 20.0607 10.1922 19.9949 10.4829C19.9487 10.6865 19.8952 10.8876 19.8484 11.0914C19.8305 11.1696 19.8645 11.2284 19.9472 11.2767L20.879 10.2135C20.8944 10.3719 20.8392 10.4999 20.7766 10.6245C20.7438 10.6915 20.7039 10.7548 20.6577 10.8133C20.563 10.9306 20.4914 11.0529 20.4609 11.2062C20.4396 11.3127 20.3487 11.4073 20.3291 11.5145C20.3027 11.6589 20.312 11.8101 20.3129 11.9586C20.3129 11.9894 20.3431 12.0463 20.3598 12.0465C20.4083 12.0465 20.4778 12.0406 20.5023 12.0088C20.6709 11.7901 20.8284 11.5628 20.9921 11.3411C21.0541 11.2578 21.1257 11.1817 21.193 11.1023L21.2322 11.1206C21.2181 11.2009 21.2184 11.2872 21.1866 11.3598C21.1393 11.4745 21.0775 11.5826 21.0026 11.6814C20.715 12.0435 20.6477 12.4533 20.718 12.8968C20.7425 13.0508 20.7606 13.2065 20.7977 13.3577C20.9027 13.7905 20.8422 14.2153 20.7674 14.6447C20.7248 14.8952 20.5806 15.0673 20.4117 15.2317C20.2139 15.4234 19.9825 15.5691 19.7346 15.6869C19.6641 15.7201 19.6447 15.7623 19.6741 15.8279C19.8032 16.1163 19.8232 16.4132 19.7621 16.7225C19.7446 16.8109 19.7621 16.9063 19.7634 16.9994C19.7634 17.0786 19.7634 17.158 19.7634 17.2579C19.6502 17.0071 19.5743 16.7411 19.5382 16.4684C19.5129 16.2646 19.4198 16.0753 19.2739 15.9308C19.2123 16.0044 19.2426 16.0694 19.2739 16.1308C19.3612 16.2969 19.423 16.4703 19.4017 16.6607C19.371 16.9459 19.2952 17.2177 19.1342 17.4597C19.0792 17.5423 19.0232 17.6245 18.9674 17.7065C18.8396 17.8933 18.7478 18.0942 18.7246 18.3272C18.6496 18.2893 18.6249 18.2399 18.6206 18.163C18.6059 17.9557 18.6727 17.7509 18.8068 17.5921C19.0321 17.3127 19.0922 16.9957 18.9772 16.6522C18.9659 16.6226 18.9521 16.5941 18.9359 16.567C18.9194 16.5434 18.9015 16.5208 18.8824 16.4992C18.8228 16.8087 18.7685 17.091 18.7135 17.3764C18.6321 17.386 18.6257 17.3216 18.6255 17.2673C18.624 17.0405 18.6277 16.8136 18.6298 16.5857C18.6298 16.5753 18.6328 16.5644 18.6338 16.5542C18.6551 16.3493 18.6381 16.3299 18.4142 16.2967C18.3362 16.5949 18.2095 16.8783 18.0391 17.1353C17.8031 17.488 17.5377 17.8109 17.1759 18.049C17.0055 18.1608 16.8536 18.3046 16.7109 18.4509C16.6447 18.5241 16.6022 18.6156 16.5888 18.7134C16.5497 18.9992 16.5548 19.2797 16.7684 19.5155C16.811 19.5615 16.8236 19.6433 16.8287 19.7091C16.8346 19.7894 16.8057 19.8727 16.8133 19.9526C16.8323 20.1515 16.7358 20.2689 16.568 20.3513C16.1637 20.5496 15.8655 20.8798 15.5579 21.1988C15.4994 21.2598 15.4634 21.3479 15.4331 21.4295C15.3846 21.5601 15.3164 21.6734 15.2007 21.752C15.0516 21.8527 14.9664 21.9876 14.9664 22.1688C14.9664 22.2851 14.9068 22.345 14.8031 22.3865C14.6354 22.4538 14.4725 22.5331 14.3072 22.6061C14.2588 22.6286 14.209 22.6478 14.1581 22.6636C13.9362 22.7275 13.8243 22.6453 13.8623 22.4246C13.885 22.2893 13.9358 22.1601 14.0114 22.0455C14.1928 21.779 14.3826 21.5158 14.5952 21.2742C14.7036 21.1511 14.8616 21.0657 15.0092 20.9856C15.1939 20.8857 15.3543 20.7694 15.4744 20.5924C15.5513 20.4791 15.6553 20.3839 15.7456 20.2795C15.793 20.2267 15.8377 20.1716 15.8796 20.1143C15.9942 19.9515 16.0323 19.7903 15.9087 19.6045C15.74 19.3509 15.588 19.0861 15.4314 18.8245C15.2229 18.4761 15.139 18.0882 15.0951 17.6916C15.086 17.5785 15.0993 17.4648 15.1341 17.3568C15.221 17.0677 15.3258 16.7862 15.5366 16.5565C15.6536 16.4291 15.7156 16.2608 15.7094 16.0879C15.7055 15.8749 15.7558 15.6807 15.896 15.5148C15.9097 15.4948 15.9212 15.4734 15.9303 15.4509C15.7682 15.4185 15.7236 15.4281 15.6747 15.565C15.6272 15.696 15.5869 15.8377 15.5843 15.9753C15.5797 16.2434 15.4627 16.4626 15.3189 16.6699C15.2225 16.8089 15.0144 16.7949 14.9279 16.6543C14.8699 16.5652 14.823 16.4695 14.7879 16.3691C14.7087 16.121 14.5656 15.919 14.3732 15.7493C14.2687 15.6533 14.1591 15.563 14.0448 15.4788C13.7059 15.2402 13.3589 15.0132 13.0224 14.7727C12.575 14.4578 12.1742 14.0813 11.8322 13.6542C11.7195 13.5124 11.6537 13.356 11.6863 13.1712C11.6876 13.1606 11.6872 13.1498 11.685 13.1394C11.6791 13.1251 11.672 13.1114 11.6637 13.0983C11.5572 13.0983 11.4364 13.0983 11.3165 13.0983C11.0764 13.0993 10.8455 13.0056 10.6741 12.8374C10.5601 12.7309 10.4185 12.6457 10.2803 12.5728C10.0737 12.4638 9.85938 12.3684 9.64468 12.2763C9.50367 12.2159 9.35607 12.1718 9.20441 12.1179C9.16181 12.32 9.16352 12.4868 9.21613 12.6595C9.30132 12.9364 9.36395 13.2212 9.44084 13.5015C9.45955 13.5701 9.48826 13.6355 9.52604 13.6958C9.59761 13.8082 9.65256 13.9232 9.65618 14.0598C9.65831 14.145 9.73009 14.1646 9.79271 14.1891C9.98739 14.2647 10.1363 14.3831 10.1951 14.595C10.2553 14.8119 10.2211 15.0249 10.1723 15.236C10.151 15.3243 9.98654 15.3699 9.86492 15.3175C9.78888 15.2845 9.70602 15.2385 9.65874 15.1744C9.53094 15.0014 9.42231 14.8153 9.30452 14.6351C9.22401 14.5118 9.13966 14.391 9.06042 14.2668C9.00419 14.1786 8.92709 14.0926 8.90536 13.9952C8.80717 13.5528 8.71984 13.1075 8.63933 12.6614C8.59225 12.4003 8.5471 12.1368 8.53283 11.8734C8.50599 11.3622 8.89365 11.0997 9.35905 11.1724C9.64958 11.218 9.93861 11.2723 10.2285 11.3215C10.2628 11.3274 10.2975 11.3313 10.332 11.336L10.3548 11.3072ZM12.3906 13.5149L12.36 13.5398C12.3658 13.6298 12.3899 13.7176 12.4308 13.7979C12.4717 13.8783 12.5285 13.9494 12.5979 14.007C12.8808 14.2528 13.173 14.4881 13.4671 14.7199C13.576 14.8051 13.7014 14.869 13.8207 14.9422L13.845 14.9171C13.8162 14.8771 13.7928 14.8319 13.7581 14.7974C13.4081 14.4566 13.058 14.1158 12.7044 13.778C12.6066 13.684 12.4957 13.6023 12.3906 13.5149ZM19.6782 15.2217C20.0726 15.0087 20.2492 14.6438 20.3495 14.2353C20.436 13.883 20.4181 13.5345 20.2307 13.2101C20.2379 13.566 20.2422 13.9192 20.1493 14.267C20.0564 14.6149 19.8622 14.9154 19.6782 15.2217ZM14.7811 11.336C14.6908 11.3962 14.6627 11.458 14.6819 11.547C14.7494 11.8574 14.8557 12.1524 15.021 12.4244C15.146 12.6301 15.3451 12.7456 15.5507 12.8544C15.4105 12.6065 15.2459 12.3752 15.117 12.1255C14.9882 11.8759 14.8944 11.6071 14.7811 11.336ZM13.4056 8.95038C13.7756 8.78658 14.3428 7.87751 14.2895 7.51115C14.1933 7.60892 14.0929 7.67793 14.0373 7.77314C13.8388 8.11245 13.6552 8.46048 13.4671 8.80597C13.4456 8.8458 13.4316 8.88925 13.4056 8.95081V8.95038ZM10.6683 11.382C10.7759 11.4195 10.8445 11.3962 10.8909 11.3106C10.9616 11.18 11.0377 11.0522 11.1039 10.9191C11.1307 10.8696 11.1456 10.8145 11.1472 10.7583C11.1488 10.702 11.1372 10.6461 11.1133 10.5952C11.0468 10.6595 10.9902 10.7333 10.9452 10.8141C10.8701 10.9577 10.8059 11.1072 10.7365 11.254C10.7165 11.2944 10.6943 11.3336 10.6683 11.382ZM12.4518 9.86755L12.4626 9.90695C12.8034 9.78043 13.1442 9.80983 13.4933 9.88991C13.4578 9.82602 13.4186 9.76659 13.3634 9.74082C13.0865 9.60748 12.8171 9.7012 12.5502 9.78512C12.5131 9.79641 12.485 9.83901 12.4524 9.86755H12.4518ZM13.9153 5.75094C13.9206 5.61227 13.894 5.49044 13.7739 5.42377C13.6537 5.3571 13.5455 5.42207 13.436 5.47425C13.5438 5.64252 13.7293 5.74944 13.9153 5.75094ZM16.0666 20.2533C15.7232 20.3811 15.5846 20.7204 15.3326 20.943C15.6908 20.8323 15.8693 20.533 16.0668 20.2527L16.0666 20.2533ZM8.94966 12.562C8.76201 12.6508 8.84317 13.1234 9.07576 13.2947C9.03167 13.0387 8.99163 12.8061 8.94966 12.562ZM12.505 5.58309L12.5101 5.61483C12.5229 5.61888 12.5353 5.62399 12.5483 5.6274C12.7225 5.67255 12.8735 5.58799 13.0331 5.54539C13.1323 5.51898 13.1506 5.46211 13.1304 5.3571L12.505 5.58309ZM15.3724 17.4937C15.3954 17.4859 15.4314 17.4839 15.4363 17.4705C15.5083 17.2807 15.5762 17.0895 15.6493 16.8852C15.4222 16.9546 15.3179 17.1953 15.3724 17.4937ZM8.75136 10.5758L8.77863 10.6077C8.81207 10.5785 8.86063 10.556 8.87639 10.5193C8.9213 10.416 8.95757 10.3091 8.98481 10.1998C8.99951 10.1393 8.98737 10.072 8.98737 9.98683C8.84934 10.1231 8.75285 10.38 8.75136 10.5758ZM14.1922 6.9122C14.4691 7.00102 14.6182 6.83297 14.7886 6.71134C14.713 6.62465 14.6538 6.63275 14.5726 6.69132C14.4799 6.7582 14.3696 6.80016 14.2678 6.85469C14.2414 6.87221 14.2163 6.89157 14.1926 6.91263L14.1922 6.9122ZM15.2691 5.60503L15.1522 5.90003L15.1735 5.92581L15.6363 5.78289L15.2691 5.60503ZM15.6054 14.1371C15.4429 14.1145 15.4431 14.1145 15.4152 14.2395C15.4012 14.3017 15.3792 14.3633 15.3745 14.4261C15.3713 14.4675 15.3929 14.5113 15.4035 14.5527L15.4487 14.5488C15.5002 14.4155 15.5511 14.2819 15.6061 14.1371H15.6054ZM15.7971 18.9696L15.8497 18.9577C15.8248 18.8135 15.7993 18.6693 15.7754 18.5251C15.7613 18.4399 15.7164 18.4311 15.6263 18.4765L15.7971 18.9696ZM9.95693 12.101L9.93159 12.1387L10.4049 12.4604L10.4411 12.4401C10.4311 12.4003 10.4336 12.3375 10.4091 12.3241C10.2617 12.2438 10.1084 12.1743 9.95693 12.101ZM11.6773 6.20952L11.7061 6.23188C11.7629 6.20696 11.8256 6.18929 11.8746 6.15435C11.9107 6.12414 11.9366 6.08342 11.9487 6.03784C11.9532 6.02293 11.9039 5.97118 11.8831 5.97394C11.8317 5.97906 11.7638 5.99162 11.737 6.02719C11.7003 6.07491 11.6956 6.14733 11.6773 6.20952ZM17.916 15.9222C17.8896 15.9648 17.8498 16.0006 17.8558 16.0258C17.8811 16.1359 17.9197 16.243 17.9525 16.3484C18.0568 16.2649 18.0509 16.1137 17.916 15.9224V15.9222ZM14.4868 6.37992L14.4616 6.35649L14.1794 6.62891C14.3871 6.64659 14.477 6.56182 14.4861 6.37907L14.4868 6.37992ZM13.8522 10.5163C13.8148 10.6697 13.8793 10.7272 14.0588 10.7008C14.045 10.5581 14.002 10.5195 13.8522 10.5163ZM14.1402 22.2472L14.1428 22.2943C14.1962 22.2977 14.2574 22.3192 14.3015 22.3005C14.3788 22.2679 14.3982 22.1918 14.3843 22.0892L14.1402 22.2472ZM13.622 6.52582C13.8435 6.55181 13.8806 6.52454 13.9025 6.33221L13.622 6.52582ZM9.45554 9.55189H9.21996C9.21485 9.56318 9.20974 9.57468 9.20441 9.58618C9.23189 9.6045 9.25915 9.63794 9.28663 9.63836C9.35287 9.63922 9.44339 9.6684 9.45554 9.55189ZM15.5302 8.2313C15.5226 8.2411 15.5149 8.25068 15.5075 8.26048C15.5211 8.29498 15.5287 8.35484 15.55 8.35888C15.5971 8.36826 15.6497 8.35313 15.6991 8.34206C15.7036 8.34206 15.7053 8.28093 15.6972 8.27816C15.6424 8.25941 15.5867 8.24349 15.5302 8.23045V8.2313ZM16.6366 19.8848L16.5954 19.874L16.4794 20.0521H16.6924L16.6366 19.8848ZM9.85448 10.4143L9.83616 10.4426L10.0754 10.6205L10.0941 10.5945C10.0507 10.4863 9.97823 10.4156 9.85448 10.4143ZM15.3428 9.6275C15.2849 9.58724 15.2493 9.54401 15.2248 9.54976C15.1894 9.55764 15.1622 9.6013 15.1317 9.62984C15.1611 9.65391 15.1888 9.69374 15.2203 9.69736C15.2519 9.70098 15.2832 9.66392 15.3428 9.6275ZM15.5002 8.00999V8.05962C15.5601 8.06708 15.6208 8.08092 15.6793 8.07624C15.6925 8.07496 15.6994 8.00382 15.7149 7.94119L15.5002 8.00999ZM15.6666 6.91987L15.5673 7.00507C15.5929 7.03255 15.6193 7.08345 15.6436 7.08239C15.6791 7.08111 15.7134 7.04256 15.7481 7.01977L15.6666 6.91987ZM14.4184 10.7278C14.386 10.7685 14.3453 10.809 14.3502 10.8154C14.3734 10.8465 14.4082 10.8865 14.4403 10.888C14.4687 10.8895 14.4991 10.8437 14.5285 10.8188L14.4184 10.7278ZM15.7501 6.52092C15.601 6.51113 15.5852 6.52604 15.6082 6.64553C15.759 6.66917 15.7665 6.66342 15.7501 6.52114V6.52092ZM13.9809 5.22739C14.0363 5.21567 14.0953 5.2161 14.1364 5.18905C14.1566 5.17563 14.1436 5.11173 14.146 5.06742C14.0437 5.08084 13.9722 5.10236 13.9809 5.2276V5.22739ZM15.3654 9.01513C15.3256 9.0605 15.2817 9.08862 15.2815 9.11737C15.2812 9.14612 15.3347 9.19959 15.3494 9.1949C15.3885 9.17968 15.4209 9.15097 15.4408 9.11396C15.4467 9.10225 15.402 9.06242 15.365 9.01534L15.3654 9.01513ZM15.527 7.29262C15.6148 7.35524 15.6862 7.3448 15.7626 7.25832C15.6576 7.19038 15.6056 7.19783 15.5266 7.29283L15.527 7.29262ZM15.2165 9.29309C15.2135 9.3636 15.1929 9.43623 15.2834 9.43751C15.3132 9.43751 15.3709 9.3849 15.3686 9.35976C15.3618 9.26753 15.2878 9.28926 15.2161 9.29331L15.2165 9.29309ZM15.6212 8.52098L15.6027 8.48434L15.4078 8.4952C15.415 8.54398 15.4208 8.5804 15.4303 8.6443L15.6212 8.52098ZM15.4985 8.73845L15.3236 8.84495L15.3294 8.87327L15.5413 8.88691C15.526 8.83195 15.5149 8.79383 15.4991 8.73866L15.4985 8.73845ZM15.6981 7.44896L15.5217 7.55546C15.5249 7.56398 15.5279 7.57271 15.5311 7.58123L15.7332 7.59891C15.7219 7.54821 15.7134 7.51222 15.6987 7.44917L15.6981 7.44896ZM15.6708 6.90624L15.7537 6.81465C15.7236 6.79335 15.6947 6.75884 15.6629 6.75607C15.6416 6.75437 15.599 6.79505 15.5967 6.81997C15.5948 6.84149 15.6359 6.86747 15.6715 6.90645L15.6708 6.90624ZM14.9228 21.3066L14.9015 21.2828L14.7232 21.4278C14.8736 21.4534 14.9 21.4325 14.9234 21.3068L14.9228 21.3066ZM15.7488 7.81702L15.7394 7.77548C15.6476 7.75418 15.5594 7.74694 15.4987 7.83768L15.5077 7.87346L15.7488 7.81702ZM14.4938 10.3136C14.4344 10.2865 14.4001 10.2569 14.3726 10.2622C14.3451 10.2676 14.3221 10.3074 14.2972 10.3321C14.3257 10.3519 14.3543 10.3873 14.3824 10.3871C14.4105 10.3868 14.4397 10.3517 14.4938 10.3136ZM15.1255 4.71662C15.1189 4.7967 15.1532 4.83803 15.228 4.82993C15.2493 4.82759 15.2874 4.78371 15.2832 4.76923C15.2578 4.68382 15.1916 4.70362 15.1255 4.71662ZM8.92176 11.5242L8.84231 11.4572C8.82101 11.4853 8.78438 11.5115 8.78033 11.5424C8.77735 11.5666 8.81313 11.596 8.83166 11.6231L8.92176 11.5242ZM15.0533 9.79108C15.1385 9.92634 15.1796 9.92122 15.2378 9.78171L15.0533 9.79108ZM9.95885 15.0357L9.91348 14.8911L9.78398 15.0357H9.95885ZM12.4134 6.45191C12.4661 6.42465 12.4986 6.41229 12.5246 6.39036C12.5314 6.38439 12.5195 6.33838 12.5052 6.3305C12.4839 6.319 12.4539 6.32539 12.4245 6.3239C12.4213 6.36096 12.419 6.38823 12.4134 6.45234V6.45191ZM15.3396 5.10129C15.3517 5.08723 15.3641 5.07318 15.3762 5.05869L15.3123 4.98393L15.2523 5.04783L15.3396 5.10129Z" fill="black"/>
<path d="M10.9107 18.1202C10.9802 18.1078 11.0385 18.0895 11.098 18.0882C11.6767 18.0752 12.2556 18.091 12.825 18.199C13.1474 18.2603 13.4588 18.3796 13.78 18.4512C13.986 18.4972 14.2007 18.5042 14.4118 18.5276C14.4365 18.53 14.4614 18.5293 14.4859 18.5253C14.658 18.4987 14.7027 18.4322 14.6314 18.2757C14.5837 18.1711 14.5074 18.0797 14.4471 17.9802C14.382 17.872 14.3193 17.7617 14.2576 17.652C14.2105 17.5691 14.1702 17.4816 14.1168 17.4032C13.9464 17.1544 13.8248 16.8897 13.77 16.5889C13.7187 16.3073 13.6263 16.0334 13.569 15.7525C13.5449 15.6345 13.5651 15.5075 13.5651 15.3836C13.5777 15.3812 13.5894 15.3753 13.5977 15.3784C14.111 15.5631 14.5051 15.8726 14.6648 16.4177C14.6983 16.532 14.7485 16.6285 14.8431 16.698C15.0075 16.8187 15.0606 16.9695 15.0116 17.1713C14.9781 17.3078 14.9807 17.4526 14.9617 17.5932C14.926 17.858 15.0412 18.094 15.1108 18.3353C15.1711 18.541 15.2697 18.7368 15.3618 18.9317C15.4896 19.2007 15.3867 19.3903 15.0874 19.3805C14.9112 19.3708 14.7378 19.3311 14.5749 19.2631C14.202 19.114 13.8295 18.9709 13.4273 18.9247C13.2979 18.9105 13.1674 18.9105 13.0379 18.9247C12.8213 18.9479 12.6228 18.9151 12.4371 18.7969C12.3982 18.777 12.3536 18.7714 12.311 18.7809C11.9436 18.8586 11.5898 18.8556 11.2479 18.6659C11.0328 18.5462 10.9452 18.363 10.9107 18.1202ZM14.1724 18.7225C14.0995 18.6412 13.37 18.4669 13.2013 18.4963C13.5053 18.6473 13.8207 18.7496 14.1724 18.7225ZM14.7634 18.6478L14.7847 18.6925C14.8342 18.6891 14.8863 18.6938 14.9315 18.678C14.9485 18.672 14.9632 18.6141 14.9528 18.5892C14.9424 18.5643 14.887 18.5289 14.8774 18.5355C14.8342 18.5649 14.8005 18.6084 14.7634 18.6469V18.6478ZM11.3037 18.2497V18.4316L11.5233 18.2914L11.5142 18.2618L11.3037 18.2497ZM12.596 18.4269L12.6298 18.4499C12.6601 18.4073 12.6901 18.3647 12.7204 18.321C12.6895 18.3063 12.6526 18.2729 12.6286 18.2803C12.5378 18.3085 12.5909 18.3741 12.596 18.4269Z" fill="black"/>
<path d="M17.5056 21.6779C17.3899 21.8619 17.277 22.0136 17.0504 22.0018C16.9226 21.9952 16.7963 21.9592 16.7356 21.8385C16.6672 21.7024 16.6868 21.5599 16.7835 21.438C16.9329 21.2509 17.1362 21.114 17.3659 21.0461C17.5923 20.9754 17.827 20.9892 18.0513 21.0331C18.7116 21.1628 19.3631 21.1249 20.0132 20.9735C20.1163 20.9494 20.222 20.9371 20.3263 20.9192L20.3419 20.9445C20.2603 20.9976 20.1836 21.0606 20.0963 21.1015C19.7244 21.2762 19.3393 21.4046 18.922 21.4052C18.8703 21.4037 18.819 21.4148 18.7726 21.4376C18.7262 21.4605 18.6861 21.4943 18.6558 21.5362C18.5129 21.7188 18.3704 22.0781 18.3657 22.303C18.4396 22.2898 18.5111 22.2764 18.5827 22.2638C18.6543 22.2513 18.7284 22.2395 18.8013 22.2276L18.8257 22.2489C18.7831 22.3077 18.7544 22.3882 18.6979 22.421C18.5826 22.4871 18.4592 22.538 18.3307 22.5722C18.2602 22.5912 18.2242 22.6148 18.1963 22.6811C18.0685 22.9946 17.9194 23.2954 17.6926 23.5514C17.3565 23.9297 16.8666 24.0715 16.4219 23.9163C15.9703 23.7586 15.7328 23.286 15.88 22.8379C15.9462 22.6359 16.1569 22.4971 16.3537 22.5633C16.4118 22.5827 16.4521 22.7062 16.4685 22.7887C16.4936 22.9147 16.4112 22.9976 16.2823 23.0029C16.2363 23.0048 16.1901 23.0029 16.1441 23.0029H16.0617C15.9937 23.2656 16.0655 23.4651 16.2853 23.6036C16.5209 23.7527 16.7714 23.7663 17.0291 23.6654C17.0561 23.6563 17.0809 23.6418 17.102 23.6228C17.3654 23.3505 17.5967 23.0568 17.7116 22.6877C17.7188 22.664 17.7252 22.64 17.7303 22.6157C17.7308 22.601 17.7298 22.5863 17.7273 22.5718L17.4355 22.6202C17.4826 22.4738 17.5887 22.4001 17.7096 22.3697C17.8402 22.3367 17.8851 22.2581 17.9384 22.145C18.0387 21.932 18.1727 21.7345 18.2939 21.5313C18.3114 21.5019 18.3352 21.4762 18.3804 21.4172C18.0475 21.3673 17.7427 21.3107 17.4355 21.2819C17.3341 21.2723 17.2187 21.3164 17.1241 21.3643C17.0619 21.3959 17.0108 21.4719 16.9803 21.5394C16.9277 21.6566 17.0004 21.7575 17.1262 21.7458C17.2451 21.7347 17.3618 21.7045 17.5056 21.6779Z" fill="black"/>
<path d="M11.5191 23.0645L11.111 23.1156C11.1028 23.1825 11.1083 23.2504 11.1271 23.3151C11.1458 23.3798 11.1775 23.44 11.2202 23.4922C11.5806 23.9478 12.3325 23.9629 12.7131 23.5224C12.9406 23.2594 12.8639 22.8928 12.5446 22.7544C12.2812 22.6402 12.0038 22.5558 11.7474 22.4287C11.5732 22.3435 11.4121 22.218 11.2671 22.0866C11.0901 21.9262 11.0596 21.7128 11.1393 21.4902C11.2219 21.2559 11.3891 21.1028 11.6334 21.0764C11.7836 21.06 11.9421 21.0936 12.0933 21.123C12.207 21.1443 12.317 21.1918 12.4258 21.2344C12.5174 21.2704 12.5887 21.2687 12.6328 21.1662C12.6454 21.1457 12.6608 21.1271 12.6786 21.1109C12.7713 21.2127 12.9018 21.706 12.8991 21.9686C12.8154 21.8815 12.7449 21.8163 12.6842 21.743C12.5336 21.562 12.3564 21.4195 12.1304 21.3437C11.9822 21.2913 11.8217 21.2848 11.6699 21.3251C11.4701 21.3788 11.4043 21.5452 11.5346 21.7062C11.5985 21.785 11.6929 21.8474 11.7851 21.8941C12.1046 22.0555 12.4418 22.1842 12.7478 22.3667C13.259 22.6717 13.2356 23.5222 12.7195 23.8225C12.3753 24.023 12.0047 24.0903 11.6119 24.0072C11.2072 23.922 10.8726 23.4856 10.911 23.0977C10.9288 22.916 11.0217 22.7782 11.1727 22.6802C11.2556 22.6259 11.341 22.6342 11.4251 22.6777C11.5093 22.7211 11.5367 22.7916 11.5293 22.8813C11.5255 22.9367 11.5231 22.9931 11.5191 23.0645Z" fill="black"/>
</svg>
