<svg width="28" height="28" viewBox="0 0 28 28" fill="none" xmlns="http://www.w3.org/2000/svg">
<path d="M13.8782 22.2791C10.9452 22.2481 7.98116 21.7185 5.20698 20.3455C3.80577 19.6515 2.54568 18.7672 1.53241 17.558C-0.521811 15.0971 -0.510743 12.1181 1.56561 9.67265C2.85724 8.15025 4.5108 7.14804 6.33536 6.41036C9.16267 5.26759 12.1156 4.88132 15.1444 5.02465C17.8145 5.15082 20.385 5.71031 22.7945 6.9062C24.1703 7.58744 25.4154 8.45019 26.4127 9.63446C28.5781 12.2078 28.525 15.3002 26.2716 17.801C24.903 19.3151 23.1875 20.2962 21.3059 21.0096C18.9562 21.8978 16.5146 22.2619 13.8782 22.2791ZM14.5295 20.6277C15.0857 20.5812 16.1643 20.5276 17.2323 20.3942C19.3026 20.1352 21.2976 19.5929 23.1576 18.6233C24.4221 17.9637 25.5687 17.1496 26.3573 15.9288C27.3285 14.4247 27.3468 12.8851 26.3712 11.3871C25.9912 10.8221 25.5343 10.3129 25.0137 9.87408C23.6479 8.69977 22.0198 8.01024 20.3098 7.51107C17.5112 6.69536 14.6552 6.49835 11.7648 6.75568C9.6884 6.94107 7.6696 7.38877 5.75318 8.2327C4.35696 8.84808 3.07196 9.63003 2.08525 10.8254C1.42947 11.6201 1.00944 12.516 0.990629 13.5675C0.968493 14.7811 1.47873 15.7811 2.26732 16.656C3.25569 17.7534 4.4942 18.4922 5.83564 19.0666C8.44436 20.1839 11.1903 20.5934 14.5295 20.6277Z" fill="black"/>
<path d="M4.00555 10.4341C4.10128 10.4291 4.19038 10.4203 4.28225 10.4203C5.84892 10.4203 7.41559 10.4203 8.98226 10.4164C9.16323 10.4164 9.27446 10.4839 9.40783 10.6051C9.96565 11.1126 10.2147 11.7175 10.0868 12.4684C10.0799 12.5326 10.0799 12.5974 10.0868 12.6616C10.1051 13.0456 10.1422 13.4363 9.68231 13.5935C9.69836 13.6488 9.69726 13.6748 9.70888 13.682C10.0481 13.9034 10.1195 14.2216 10.0963 14.609C10.0658 15.0677 10.0913 15.5298 10.0868 15.9925C10.0868 16.0716 10.0868 16.1956 10.0409 16.2227C9.61369 16.4712 9.29715 16.8939 8.71055 16.8646C7.82953 16.8181 6.9441 16.8524 6.03652 16.8524V15.2847H8.43329V14.1585H5.65634V16.8303H4.00555V10.4341ZM5.66574 12.003V13.1153H8.41171V12.003H5.66574Z" fill="black"/>
<path d="M24.0104 16.8425H20.2439V15.2592H22.2876V14.3561C22.2876 13.8491 22.2965 13.3417 22.2815 12.8348C22.2777 12.7108 22.2113 12.5808 22.1487 12.4679C21.9418 12.0954 21.6191 11.9925 21.2024 12.0251C20.7724 12.0606 20.3375 12.0329 19.8743 12.0329V16.8325H18.1272V10.4192H18.4116C19.8682 10.4192 21.3253 10.4231 22.7835 10.4148C22.9783 10.4148 23.0906 10.4972 23.2295 10.6206C23.8847 11.2033 24.0795 11.9084 24.0297 12.7789C23.9583 14.0285 24.0115 15.2858 24.0115 16.542L24.0104 16.8425Z" fill="black"/>
<path d="M15.2871 16.8386H13.384V12.7058C13.7819 12.7058 14.1759 12.6953 14.5688 12.7058C15.4543 12.7346 15.5461 12.6505 15.5129 11.7501C15.4974 11.3196 15.5129 10.8879 15.5129 10.4369H17.4271C17.4316 10.5282 17.4393 10.6173 17.4393 10.7064C17.4393 11.5918 17.4471 12.4773 17.4321 13.3627C17.4321 13.4977 17.3447 13.6466 17.2611 13.7623C16.9518 14.1878 16.5328 14.3328 16.0121 14.2454C15.7907 14.2083 15.555 14.2393 15.2894 14.2393L15.2871 16.8386Z" fill="black"/>
<path d="M13.0049 14.2515C12.5035 14.2515 12.0271 14.2565 11.5511 14.2465C11.4803 14.2465 11.4062 14.1812 11.342 14.1358C10.8871 13.8148 10.7011 13.4014 10.7498 12.8231C10.8052 12.1369 10.7637 11.4396 10.7637 10.7512V10.4363H12.7166C12.7166 11.0169 12.7227 11.5852 12.7133 12.1519C12.7105 12.3384 12.7338 12.4928 12.8976 12.6095C12.9259 12.6311 12.9496 12.6581 12.9673 12.689C12.985 12.7199 12.9963 12.754 13.0005 12.7894C13.0049 13.2587 13.0049 13.7268 13.0049 14.2515Z" fill="black"/>
</svg>
