<svg width="28" height="28" viewBox="0 0 28 28" fill="none" xmlns="http://www.w3.org/2000/svg">
<path d="M3.3918 11.4419C4.40068 11.4419 5.41013 11.4356 6.419 11.4466C6.64551 11.4466 6.75183 11.3848 6.83157 11.1579C7.63185 8.87969 9.18734 7.32664 11.4327 6.46063C12.5321 6.03871 13.721 5.90418 14.887 6.06977C17.5276 6.43234 19.5228 7.7839 20.7559 10.1816C20.9104 10.4982 21.0481 10.8227 21.1684 11.1538C21.2459 11.3524 21.3418 11.45 21.585 11.4489C23.5739 11.4362 25.5633 11.4419 27.5528 11.4419C27.6491 11.4367 27.7458 11.4394 27.8417 11.45C27.8995 11.4598 27.9879 11.4991 27.9977 11.5401C28.0046 11.5751 28.0035 11.6112 27.9944 11.6457C27.9853 11.6803 27.9684 11.7122 27.9451 11.7393C27.506 12.0857 27.087 12.428 26.4636 12.4685C25.1525 12.5527 23.8461 12.7121 22.5384 12.8501C22.2825 12.8772 22.0311 12.9488 21.7775 12.995C21.6162 13.0239 21.5567 13.1105 21.5654 13.275C21.6207 14.3292 21.4416 15.3825 21.0407 16.3592C20.4398 17.8568 19.4506 19.0317 18.106 19.9167C17.4441 20.3564 16.7118 20.6797 15.9409 20.8728C14.7825 21.1664 13.5717 21.1881 12.4035 20.9363C11.0961 20.6574 9.88631 20.0364 8.89796 19.1369C7.90961 18.2374 7.17814 17.0917 6.77841 15.817C6.51897 15.0038 6.40456 14.1514 6.44038 13.2987C6.45078 13.0533 6.32482 12.9985 6.13818 12.9725C5.3795 12.8651 4.62198 12.7415 3.86042 12.6607C3.00177 12.5678 2.1362 12.5331 1.27929 12.4298C1.02043 12.398 0.774279 12.2277 0.532172 12.1024C0.38838 12.0274 0.256544 11.9315 0.140988 11.8178C0.0699162 11.7485 0.0456478 11.6319 0 11.536C0.0832061 11.5049 0.165834 11.4483 0.249618 11.4466C0.691651 11.4373 1.13368 11.4419 1.5786 11.4419C2.18262 11.4412 2.78702 11.4412 3.3918 11.4419ZM8.09873 13.4107C7.92538 15.1329 8.8262 17.5762 10.93 18.8885C13.0339 20.2008 15.5029 20.0796 17.4727 18.6177C19.3708 17.209 20.1012 14.839 19.8943 13.4124C19.7834 13.447 19.6777 13.4851 19.5696 13.5134C18.4302 13.8047 17.3419 14.2681 16.3425 14.8875C15.6329 15.3362 15 15.8958 14.468 16.5451C14.1733 16.899 13.8665 16.8967 13.5522 16.5578C13.3384 16.3268 13.1379 16.0832 12.9137 15.865C11.787 14.7617 10.3961 14.1277 8.92212 13.6462C8.65112 13.5567 8.37839 13.4892 8.09873 13.4107ZM19.5245 11.4292C19.0941 9.60252 16.677 6.92077 13.0818 7.40862C11.2207 7.65804 8.3703 10.0644 8.50435 11.4292H19.5245Z" fill="black"/>
</svg>
