<svg width="28" height="28" viewBox="0 0 28 28" fill="none" xmlns="http://www.w3.org/2000/svg">
<path d="M14.0291 0.00208576C21.2071 -0.129135 28.5136 5.94343 27.9716 14.7782C27.504 22.4023 21.2154 27.9004 13.7909 27.816C6.2534 27.735 -0.281744 21.556 0.00936833 13.4247C0.288351 5.64349 6.67132 -0.0238277 14.0291 0.00208576ZM1.90656 12.5728C1.95287 13.0779 2.0036 14.0312 2.13482 14.9734C2.49981 17.6001 3.34227 20.0563 4.77633 22.3064C5.68771 23.7366 6.9073 24.7522 8.49077 25.3476C11.8231 26.6003 15.1963 26.699 18.6069 25.7104C20.0167 25.3018 21.2997 24.6628 22.3445 23.5982C23.1164 22.8114 23.6126 21.8565 24.0581 20.8668C25.0809 18.6013 25.7447 16.2432 25.9184 13.7544C26.0305 12.0595 25.9462 10.3574 25.667 8.68198C25.3361 6.6271 24.2957 5.0541 22.4901 3.97345C19.7686 2.34477 16.8299 1.60651 13.6685 1.58997C10.4596 1.57288 7.57443 2.47764 4.95718 4.31915C3.5165 5.33363 2.58196 6.64419 2.27762 8.4052C2.0637 9.64132 1.92972 10.8758 1.90656 12.5728Z" fill="black"/>
<path d="M4.17922 10.4099C4.2509 9.23222 4.28949 8.19624 4.38267 7.16577C4.47916 6.11434 5.06689 5.38656 6.02459 4.96919C7.34452 4.39468 8.73833 4.09144 10.1558 3.88028C12.208 3.57756 14.2877 3.50599 16.3558 3.6669C18.2116 3.8064 20.014 4.16202 21.7232 4.9521C22.8639 5.47974 23.4467 6.36686 23.5895 7.5699C23.7841 9.20576 23.7372 10.8482 23.6242 12.4868C23.3849 15.9603 22.5954 19.3081 21.3334 22.5473C21.2497 22.758 21.1175 22.946 20.9474 23.0959C20.0895 23.8342 19.0508 24.1986 17.9701 24.4274C14.9647 25.0631 11.9803 24.9881 9.03826 24.0723C8.66518 23.9467 8.3018 23.7939 7.951 23.6153C7.40539 23.3582 6.97511 22.9071 6.7441 22.3499C5.72135 19.9642 4.96875 17.4981 4.6214 14.9238C4.41079 13.3817 4.3132 11.8241 4.17922 10.4099ZM16.0586 14.4982V19.7867H17.2021C17.2071 19.7145 17.2142 19.6604 17.2142 19.607C17.2142 16.7366 17.2131 13.8665 17.2109 10.9965C17.206 10.86 17.1717 10.7261 17.1106 10.604C16.8272 10.0091 16.5267 9.42189 16.2427 8.82643C16.1518 8.63456 16.0222 8.55847 15.8121 8.56123C15.134 8.57005 14.4553 8.56509 13.7766 8.5673C13.3702 8.5673 13.3686 8.5706 13.3686 8.98687C13.3686 12.499 13.3686 16.0111 13.3686 19.5232C13.3686 19.6202 13.3774 19.7167 13.3807 19.7955H14.4558V14.4982H16.0586ZM8.13681 13.2069V9.85635H10.2634V8.6296H6.97511V19.822H8.11641V14.4535H9.82008V13.2069H8.13681ZM19.8442 19.7906V9.86297H20.9866V8.63732H17.5048V9.88612H18.6626V19.7906H19.8442ZM11.9692 19.8308V8.59927H10.8616V19.8308H11.9692Z" fill="black"/>
<path d="M16.0409 12.9334H14.4895V9.82437C14.7651 9.82437 15.0353 9.81114 15.3049 9.83264C15.3788 9.83871 15.4736 9.93685 15.5089 10.0151C15.6809 10.3983 15.848 10.7843 15.9902 11.179C16.0454 11.3279 16.0365 11.5021 16.0393 11.6648C16.0443 12.0827 16.0409 12.5006 16.0409 12.9334Z" fill="black"/>
</svg>
