<svg width="28" height="28" viewBox="0 0 28 28" fill="none" xmlns="http://www.w3.org/2000/svg">
<path d="M23.9224 8.23556C24.3487 8.77757 24.9402 9.18826 25.4805 9.62838C25.6049 9.72964 25.8243 9.7086 26 9.74394C25.9868 9.55571 25.9759 9.36721 25.9587 9.17934C25.9547 9.13572 25.9359 9.08928 25.9115 9.05258C25.4218 8.3125 25.4532 7.55258 25.8218 6.77708C25.8539 6.70969 25.8701 6.63393 25.8896 6.56089C26.2209 5.32625 25.7721 4.12047 24.7622 3.53029C23.7597 2.94439 22.3356 3.15447 21.5591 4.10727C21.1821 4.56978 20.9781 5.17964 20.7394 5.63869C20.3048 4.79735 19.8393 3.81741 19.3027 2.87991C18.794 1.99122 18.0694 1.44502 17.0234 1.18549C15.7536 0.870499 14.6113 0.961108 13.4028 1.42362C12.4484 1.78888 11.6393 2.53742 10.5555 2.56192C10.3819 2.56583 10.1754 2.59133 10.0457 2.69086C9.89004 2.81043 9.66512 3.07442 9.70609 3.18088C9.86251 3.58711 10.03 4.13058 10.3517 4.2914C10.7213 4.47608 11.2658 4.56241 11.7055 4.12831C12.3447 3.49723 13.3714 3.74165 13.6978 4.59373C13.5216 4.65575 13.347 4.76266 13.1677 4.77149C12.6824 4.79562 12.1936 4.7551 11.7087 4.78433C11.3149 4.80801 10.9013 4.82777 10.5201 5.18537C11.548 5.554 12.545 5.37989 13.6056 5.46895C12.7118 6.25483 11.6918 5.81526 10.7997 5.99648C10.7206 7.00811 11.4982 6.91313 12.2181 6.998C11.8303 7.73416 11.5003 8.36077 11.1764 8.97563C9.46843 7.60649 7.8523 6.29663 6.21692 5.01254C5.90747 4.76958 5.53842 4.52771 5.16714 4.46269C4.50146 4.34613 3.81236 4.32409 3.13483 4.34039C2.70031 4.35077 2.25884 4.48318 2.03855 4.99341C2.16362 5.04723 2.26339 5.09012 2.37028 5.13611C1.9379 5.68231 1.89505 6.01415 2.18509 6.569C2.87081 6.43031 3.46175 6.56472 3.82331 7.26208C3.65327 7.42336 3.50023 7.56851 3.34728 7.71358C3.36171 7.77377 3.37606 7.83387 3.39049 7.89398C4.10747 7.91018 4.82597 7.95927 5.54055 7.92476C5.78872 7.91283 5.92172 7.95799 6.05774 8.14222C6.45111 8.67476 6.85017 9.20284 7.25272 9.72827C7.48521 10.0318 7.72857 10.3266 8.03749 10.7136C6.56994 10.7686 5.21034 10.8291 3.85013 10.8651C3.41819 10.8766 3.05235 11.0131 2.79901 11.3573C2.38061 11.9256 2.32155 12.5963 2.37625 13.2347C2.59199 13.3343 2.75812 13.4569 2.90029 13.6038C3.12851 13.8395 3.34087 14.0914 3.59145 14.3717C4.01243 13.7525 4.49051 13.5499 5.09704 13.6584C5.11352 13.8893 5.12715 14.0799 5.14158 14.2821C5.72147 14.3056 6.30529 14.2079 6.55025 13.7197C6.85873 13.1049 7.30955 13.1191 7.82406 13.1237C8.04658 13.1257 8.27408 13.1408 8.49098 13.1018C9.52794 12.9151 10.31 13.223 10.8557 14.1965C11.1143 14.6578 11.5212 15.0322 11.8708 15.4578C10.289 17.1524 9.19577 19.1168 8.12969 21.0982C8.05816 21.2313 8.01816 21.4628 8.08319 21.5772C8.30838 21.9735 8.35104 22.3544 8.0872 22.7263C7.79217 23.142 7.35213 23.1493 6.91645 23.0575C6.55542 22.9814 6.20864 22.836 5.84832 22.7548C5.19814 22.6083 4.55731 22.8629 4.26719 23.4009C3.98419 23.9258 3.74047 24.4728 3.49854 24.971C4.03675 25.2726 4.6325 25.4889 5.07307 25.8854C5.54305 26.3084 5.92439 26.3943 6.53413 26.2257C7.66764 25.9123 8.79358 26.2407 9.90376 26.5245C10.0482 26.5615 10.3112 26.5836 10.3418 26.5215C10.4114 26.3796 10.4256 26.1584 10.3662 26.0095C10.083 25.2999 10.2498 24.6966 10.748 24.1759C11.9517 22.918 13.1643 21.6688 14.38 20.423C14.6822 20.1133 15.01 19.8297 15.3358 19.5251C15.4571 19.6061 15.5552 19.6696 15.6514 19.736C16.5976 20.3887 17.5418 21.0446 18.4901 21.694C18.8865 21.9653 19.2721 22.1651 19.8079 22.0428C20.3591 21.917 20.8031 22.3915 20.8209 22.9806C20.8371 23.5138 20.4926 23.8307 19.8925 23.8184C19.7164 23.8147 19.54 23.7799 19.3654 23.7493C18.3388 23.5694 17.7089 23.9825 17.5384 24.9523C17.4663 25.3627 17.3965 25.7737 17.3434 26.0814C18.0872 26.3748 18.8082 26.6724 19.5401 26.9388C19.7243 27.0059 19.9519 27.0166 20.1445 26.9768C20.5195 26.8994 20.8807 26.7546 21.2533 26.6616C22.1203 26.4451 22.959 26.7016 23.8063 26.8322C23.9758 26.8584 24.252 26.8535 24.312 26.7556C24.3882 26.6313 24.3068 26.3953 24.2712 26.212C24.1801 25.7425 24.0066 25.2778 23.992 24.8071C23.9526 23.5331 23.9786 22.2571 23.9786 20.9818C23.9786 20.8208 23.9786 20.6598 23.9786 20.4877C23.734 20.4877 23.5559 20.4973 23.3792 20.4859C22.8359 20.4509 22.3376 20.2978 22.0941 19.7467C21.7539 18.9768 21.4493 18.1905 21.1475 17.4553C21.7439 17.2697 22.36 17.1446 22.9201 16.8903C24.2183 16.301 24.8405 15.109 24.5016 13.6953C24.2214 12.5263 23.7819 11.3964 23.3987 10.2542C22.9864 9.02572 22.5369 7.80983 22.1446 6.57492C21.9599 5.9932 22.1265 5.43179 22.4818 4.94515C22.7716 4.54802 23.2062 4.40104 23.6206 4.53072C24.027 4.65784 24.0791 4.79489 23.8702 5.17372C23.3008 6.20565 23.1624 7.2691 23.9224 8.23556ZM14.1369 2.46038C13.7416 2.61901 13.3381 2.75652 12.9036 2.9137C12.7329 2.24292 12.7598 2.20313 13.3395 2.14976C13.5747 2.12809 13.8093 2.07964 14.0439 2.08083C14.1349 2.08128 14.2255 2.1851 14.3163 2.24183C14.2573 2.31677 14.213 2.42988 14.1369 2.46038ZM22.9889 12.8521C23.0803 13.103 23.1072 13.3815 23.1427 13.6501C23.3411 15.1486 22.5229 15.7056 21.3423 15.8693C20.6736 15.962 20.083 15.8699 19.7041 15.1375C19.3668 14.4855 18.8848 13.9134 18.501 13.2842C18.3995 13.1179 18.3565 12.8534 18.4035 12.6643C18.5849 11.9333 18.8135 11.2146 19.0388 10.4423C19.267 10.5233 19.4719 10.596 19.7438 10.6925C20.1119 9.51218 20.4726 8.35521 20.8348 7.19388C20.8629 7.2018 20.8984 7.20216 20.9031 7.21455C21.6016 9.09237 22.3028 10.9694 22.9889 12.8521Z" fill="#18232E"/>
</svg>
