<svg width="28" height="28" viewBox="0 0 28 28" fill="none" xmlns="http://www.w3.org/2000/svg">
<g clip-path="url(#clip0_630_14556)">
<path d="M2.81261 13.1044C2.09874 13.0593 1.40654 13.0161 0.714447 12.9716C0.548459 12.9609 0.381706 12.9533 0.217248 12.9308C0.00976261 12.9024 -0.0621657 12.7846 0.0587938 12.6084C0.250151 12.3296 0.440331 12.0466 0.666947 11.7967C0.755062 11.6995 0.939591 11.6479 1.08233 11.6435C1.6408 11.6262 2.20039 11.6265 2.75899 11.6408C2.9846 11.6466 3.07331 11.5811 3.13305 11.3565C3.97712 8.18365 5.87545 5.80803 8.8205 4.25678C10.6032 3.31774 12.5279 2.90383 14.5459 3.01873C17.7116 3.19898 20.371 4.45266 22.4536 6.80486C24.4025 9.00623 25.299 11.5848 25.1854 14.4988C25.1812 14.6043 25.1811 14.7101 25.1814 14.8157C25.1815 14.8335 25.1935 14.8513 25.2111 14.8998C25.6149 14.9296 26.0321 14.9627 26.4497 14.9903C26.8602 15.0175 27.2713 15.0365 27.6818 15.0637C28.0183 15.086 28.0834 15.2157 27.8984 15.4834C27.8874 15.4993 27.8731 15.5135 27.8647 15.5306C27.5237 16.2286 26.9794 16.5168 26.1847 16.3885C25.8601 16.3362 25.5187 16.3909 25.1861 16.3757C24.9888 16.3667 24.9216 16.4405 24.8765 16.6232C24.4617 18.3039 23.6839 19.8082 22.5358 21.1217C20.7669 23.1454 18.5465 24.4294 15.8587 24.8433C12.0577 25.4285 8.7597 24.3723 6.02566 21.7187C4.37708 20.1186 3.36555 18.1635 2.97565 15.9254C2.84145 15.1551 2.86111 14.3588 2.81385 13.5743C2.80519 13.4311 2.81261 13.287 2.81261 13.1044ZM4.70694 11.6361C4.83902 11.6361 4.96204 11.6361 5.08506 11.6361C9.61671 11.6361 14.1484 11.6351 18.68 11.6413C18.8185 11.6415 18.9569 11.7189 19.0954 11.7602C18.9998 11.868 18.9215 12 18.8057 12.0795C17.9788 12.6471 17.1439 13.2036 16.3123 13.7646C16.0758 13.9242 15.8419 14.0873 15.6069 14.2487C15.6148 14.2699 15.6227 14.2911 15.6306 14.3122C18.2812 14.4776 20.9319 14.643 23.5802 14.8082C24.1041 10.2765 20.6292 5.14724 14.899 4.58325C9.81884 4.08327 5.63629 7.69019 4.70694 11.6361ZM4.36972 13.1946C4.21621 16.542 5.36235 19.3199 8.01869 21.3741C11.0768 23.739 14.4857 24.1577 18.0396 22.5681C20.7601 21.3512 22.4797 19.2296 23.3375 16.38C23.1591 16.38 23.0424 16.38 22.9257 16.38C18.3759 16.38 13.8262 16.3809 9.2765 16.3744C9.15995 16.3742 9.04347 16.292 8.92698 16.248C8.99885 16.1558 9.05306 16.039 9.14541 15.9753C9.97041 15.4059 10.8026 14.8466 11.6316 14.2827C11.8917 14.1057 12.1483 13.9239 12.4801 13.693C9.7322 13.5241 7.0808 13.3612 4.36972 13.1946Z" fill="#18232E"/>
</g>
<defs>
<clipPath id="clip0_630_14556">
<rect width="28" height="28" fill="white"/>
</clipPath>
</defs>
</svg>
