<svg width="28" height="28" viewBox="0 0 28 28" fill="none" xmlns="http://www.w3.org/2000/svg">
<g clip-path="url(#clip0_630_14560)">
<path d="M23.6376 8.47049C24.295 8.8606 24.9513 9.21897 25.5741 9.63045C26.309 10.1053 26.9282 10.74 27.3862 11.4876C28.3122 13.0138 28.1834 14.7556 27.0453 16.2403C26.1338 17.4296 24.9337 18.2477 23.6169 18.9052C21.6603 19.882 19.5766 20.4394 17.4188 20.7458C15.0898 21.0695 12.7285 21.0845 10.3956 20.7904C9.50418 20.6811 8.62369 20.4851 7.73895 20.3209C7.49589 20.277 7.24371 20.2312 7.17626 19.9375C7.13831 19.7926 7.14664 19.6394 7.20007 19.4995C7.2535 19.3596 7.34932 19.2401 7.47401 19.1579C7.91577 18.8362 8.3709 18.5309 8.82664 18.2287C11.5542 16.4217 14.2834 14.6162 17.0141 12.8124C17.115 12.7452 17.2195 12.6616 17.332 12.642C17.4444 12.6225 17.603 12.6347 17.6874 12.7031C17.7336 12.7397 17.7093 12.9473 17.6479 13.0254C17.3933 13.3398 17.1126 13.6359 16.841 13.9326C15.6548 15.2403 14.4701 16.5488 13.2868 17.8582C13.2224 17.9302 13.1653 18.1146 13.1957 18.1463C13.2965 18.2434 13.4387 18.3368 13.5736 18.3484C14.0373 18.3881 14.5033 18.4046 14.9712 18.4094C17.7859 18.4333 20.5428 18.1042 23.1745 17.0303C24.0058 16.6909 24.772 16.2501 25.4362 15.6329C26.6886 14.4693 26.821 13.142 25.7765 11.7922C24.8832 10.6396 23.6649 9.94302 22.3463 9.40578C22.26 9.37098 22.1105 9.4241 22.0188 9.48209C18.6767 11.6091 15.3364 13.7393 11.998 15.8728C10.1973 17.0242 8.39906 18.1805 6.60325 19.3417C5.99559 19.7348 5.3691 19.8484 4.69886 19.5779C3.17487 18.9619 1.80097 18.1176 0.784977 16.7892C-0.216433 15.4803 -0.23284 14.0975 0.582629 12.6903C1.13316 11.7403 1.91946 11.0096 2.79995 10.3789C4.66362 9.04314 6.75759 8.2269 8.96276 7.68051C10.7553 7.23728 12.5722 6.96988 14.4274 7.00041C15.8432 7.02605 17.2669 6.92654 18.6676 7.19333C19.8075 7.41006 20.9378 7.68173 22.0662 7.95218C22.2977 8.00774 22.4782 8.02239 22.6902 7.8954C23.1156 7.64082 23.5586 7.41494 23.9967 7.18356C24.1021 7.12512 24.2162 7.0839 24.3345 7.06146C24.549 7.02666 24.7514 7.07428 24.8371 7.302C24.9227 7.52971 24.8298 7.69882 24.6378 7.82397C24.2999 8.04253 23.9602 8.26048 23.6376 8.47049ZM20.8332 8.91555C20.7421 8.88258 20.6783 8.8545 20.6115 8.83496C19.0577 8.38197 17.4656 8.17684 15.8547 8.11824C13.0918 8.0175 10.4108 8.46561 7.81612 9.40395C6.33406 9.94058 4.92491 10.6292 3.73999 11.7013C3.01506 12.3569 2.42321 13.1097 2.22086 14.1018C2.10723 14.6512 2.31079 15.1396 2.82851 15.3612C3.21587 15.5304 3.62913 15.632 4.0505 15.6616C5.22023 15.7226 6.32798 15.3844 7.42844 15.0309C12.0703 13.5376 16.4308 11.4186 20.6704 9.0291C20.7208 9.00163 20.7628 8.96378 20.8308 8.91555H20.8332ZM22.1136 8.20432C22.0877 8.18718 22.0607 8.17188 22.0327 8.15853C21.938 8.12312 21.8444 8.08527 21.7478 8.05596C20.2481 7.59931 18.7156 7.36244 17.1569 7.23667C14.1958 6.98995 11.2145 7.27482 8.35268 8.07794C6.34013 8.64205 4.43575 9.44913 2.78598 10.769C2.01 11.3899 1.34584 12.1121 0.927168 13.0279C0.429501 14.1182 0.475682 15.15 1.25652 16.1091C1.99967 17.0248 2.95186 17.6066 4.0663 17.9351C5.13091 18.2489 6.09646 17.9394 7.04015 17.4497C12.9392 14.3875 18.6548 11.0047 24.2926 7.48332C24.3769 7.42507 24.4581 7.3623 24.5357 7.29528L24.4834 7.18783C24.357 7.22874 24.2203 7.24888 24.1054 7.3136C21.2902 8.83191 18.5023 10.4046 15.6591 11.8637C12.6288 13.4114 9.46113 14.6708 6.19733 15.6256C5.07865 15.9546 3.93079 16.0596 2.78294 15.7379C1.58526 15.4027 1.08151 14.5248 1.46129 13.3386C1.6143 12.8777 1.84694 12.4474 2.14855 12.0676C3.14449 10.8093 4.49652 10.0224 5.92997 9.38441C8.78168 8.11763 11.7883 7.54437 14.891 7.4827C17.1296 7.43814 19.336 7.67684 21.481 8.35206C21.7393 8.43325 21.924 8.38991 22.1111 8.20432H22.1136ZM22.9084 8.84595C23.3526 9.07794 23.7913 9.28551 24.2094 9.5291C25.1111 10.0541 25.9321 10.6891 26.5069 11.5755C27.1334 12.5444 27.3977 13.5786 26.8715 14.6891C26.533 15.4046 26.0038 15.9632 25.3688 16.4168C24.0216 17.3826 22.483 17.921 20.9092 18.3557C18.6348 18.9815 16.3014 19.1054 13.9558 19.0181C13.5834 19.0017 13.216 18.9246 12.8681 18.7898C12.4774 18.6384 12.416 18.288 12.6536 17.9381C12.7055 17.8627 12.7636 17.7918 12.8274 17.7263C13.6897 16.838 14.5459 15.9442 15.4191 15.0663C16.0838 14.3948 16.7723 13.7519 17.445 13.0902C17.5167 13.0199 17.5519 12.9131 17.6042 12.8228C17.4673 12.8882 17.3406 12.9734 17.228 13.0755C15.5388 14.407 13.8774 15.7715 12.345 17.288C12.0059 17.6231 11.6595 17.9516 11.332 18.2977C10.954 18.697 11.0403 19.0419 11.5514 19.2226C11.705 19.2732 11.8617 19.3139 12.0205 19.3447C13.1701 19.595 14.3374 19.5401 15.4999 19.5279C17.7901 19.5053 20.0348 19.1738 22.2065 18.4217C23.7257 17.896 25.1233 17.1494 26.2578 15.9839C27.0021 15.2196 27.5113 14.3356 27.456 13.2165C27.4481 13.045 27.4202 12.8746 27.4014 12.7043C27.4304 12.7207 27.4556 12.7432 27.4752 12.7703C27.4948 12.7974 27.5084 12.8284 27.515 12.8612C27.6657 13.5608 27.5727 14.2361 27.2938 14.8875C26.7639 16.1268 25.816 16.9845 24.7064 17.6762C22.6684 18.9473 20.4188 19.6298 18.0623 19.9351C15.0553 20.3238 12.0071 20.2551 9.02048 19.7312C8.64307 19.664 8.262 19.6196 7.87931 19.5981C7.68061 19.5877 7.46186 19.6359 7.41082 19.8655C7.66056 19.8783 7.89694 19.8594 8.1242 19.9076C10.2624 20.3715 12.4477 20.5803 14.6346 20.5297C17.075 20.4778 19.4939 20.0582 21.8103 19.2849C23.5215 18.711 25.0868 17.8808 26.3738 16.592C28.3061 14.6536 28.2223 12.2025 26.1915 10.3685C25.3742 9.62556 24.4208 9.12617 23.4382 8.66158C23.194 8.5462 23.0384 8.58771 22.9084 8.84595ZM17.3508 12.8667L17.3034 12.8142C17.2359 12.8557 17.1673 12.8954 17.101 12.9363L9.46407 18.0358C8.90807 18.407 8.34903 18.7751 7.79789 19.1536C7.66846 19.2422 7.56394 19.3679 7.44849 19.4766C7.9571 19.3545 8.43532 19.2153 8.87829 19.0041C9.36674 18.7824 9.83257 18.5135 10.2692 18.2013C12.4476 16.5786 14.6091 14.9314 16.7766 13.2934C16.9643 13.1488 17.1588 13.0083 17.3508 12.8667ZM21.9282 9.19821L21.8918 9.13716C21.8158 9.17868 21.7386 9.21775 21.6645 9.25926L7.08876 17.9784C6.59656 18.2733 6.08613 18.5077 5.49367 18.4943C5.40556 18.4943 5.29011 18.501 5.2336 18.5554C5.14245 18.642 5.0276 18.7764 5.03854 18.8777C5.04948 18.979 5.20625 19.1506 5.29072 19.1457C5.51527 19.1265 5.73472 19.0678 5.93908 18.9723C6.0916 18.9052 6.20706 18.7568 6.35289 18.6671C10.57 16.1083 14.7881 13.5507 19.0072 10.9943C19.9844 10.4009 20.9548 9.7965 21.9282 9.19821Z" fill="black"/>
</g>
<defs>
<clipPath id="clip0_630_14560">
<rect width="28" height="14" fill="white" transform="translate(0 7)"/>
</clipPath>
</defs>
</svg>
