<svg width="28" height="28" viewBox="0 0 28 28" fill="none" xmlns="http://www.w3.org/2000/svg">
<g clip-path="url(#clip0_630_14569)">
<path d="M14.0425 6.69752e-06C21.7242 -0.00746807 27.9867 6.24268 28 13.93C28.0134 21.7062 21.759 27.9968 14.0111 28C6.30785 28.0032 0.00278574 21.7103 9.93977e-07 14.0157C-0.00287978 6.25495 6.25647 0.0075773 14.0425 6.69752e-06ZM2.85303 19.9316C3.00023 19.8784 3.05564 19.8721 3.09309 19.8428C5.99471 17.5833 8.8992 15.3274 11.7853 13.0483C11.9729 12.9001 12.0792 12.5814 12.1189 12.3258C12.3807 10.642 12.6215 8.95478 12.8544 7.26663C13.1209 5.33565 13.3722 3.40265 13.6437 1.36818C9.16481 1.67397 5.69597 3.56375 3.35937 7.2788C0.798553 11.3504 0.763215 15.5908 2.85303 19.9316ZM14.4629 1.37115C14.4629 1.63593 14.4452 1.78782 14.4655 1.93444C14.953 5.43934 15.4363 8.94491 15.9515 12.4457C15.9905 12.7105 16.2121 13.0042 16.4328 13.1781C19.0778 15.262 21.7385 17.3261 24.3957 19.3946C24.6285 19.5759 24.8655 19.7521 25.1541 19.9712C27.1963 15.6722 27.2048 11.4986 24.8017 7.49624C22.5136 3.68564 19.0213 1.69678 14.4629 1.37115ZM3.30358 20.6912C6.11781 24.741 9.86368 26.8117 14.7058 26.5689C18.9911 26.354 22.2899 24.3003 24.6543 20.7554C24.5672 20.6472 24.5556 20.618 24.5353 20.6097C21.1319 19.2217 17.7299 17.8302 14.319 16.461C14.1116 16.3777 13.8063 16.4055 13.5915 16.4924C10.2076 17.861 6.83109 19.2476 3.30358 20.6912Z" fill="#18232E"/>
</g>
<defs>
<clipPath id="clip0_630_14569">
<rect width="28" height="28" fill="white"/>
</clipPath>
</defs>
</svg>
