<svg width="28" height="28" viewBox="0 0 28 28" fill="none" xmlns="http://www.w3.org/2000/svg">
<path d="M13.7499 27.9911C13.6265 27.9715 13.502 27.9565 13.3798 27.9335C13.0478 27.887 12.719 27.8204 12.3951 27.734C11.9709 27.5979 11.5564 27.433 11.1545 27.2405C10.6643 27.0004 10.2083 26.696 9.7986 26.3354C9.49394 26.0813 9.20443 25.8095 8.93155 25.5214C8.60641 25.1686 8.30202 24.7951 8.00917 24.4134C7.57436 23.8254 7.19531 23.1982 6.87694 22.5398C6.52666 21.8537 6.23357 21.1399 6.00067 20.4057C5.86692 19.971 5.71588 19.5409 5.6075 19.0993C5.47837 18.5701 5.37691 18.034 5.28351 17.4978C5.20511 17.062 5.14285 16.6239 5.0852 16.188C5.05312 15.9382 5.03426 15.6869 5.0287 15.4351C5.01256 14.6834 4.99181 13.9363 5.00334 13.1799C5.01141 12.6772 5.06099 12.1745 5.11864 11.6741C5.1636 11.1991 5.22356 10.7206 5.31119 10.2594C5.42648 9.66331 5.55908 9.07067 5.70551 8.48265C5.79544 8.12523 5.91535 7.77357 6.03987 7.42537C6.19322 6.99761 6.35002 6.56985 6.5345 6.15708C6.71898 5.74432 6.91614 5.36153 7.12829 4.97528C7.32453 4.60124 7.54243 4.23897 7.78088 3.89032C8.07149 3.46807 8.38882 3.06486 8.73093 2.68315C9.10876 2.27268 9.51317 1.88753 9.94157 1.53016C10.2782 1.26989 10.6322 1.03297 11.0012 0.821077C11.4147 0.566597 11.8628 0.373204 12.3317 0.246891C12.6711 0.148374 13.0183 0.0785651 13.3694 0.0382015C13.77 -0.00347467 14.1733 -0.0127286 14.5754 0.0105299C14.9093 0.0403472 15.2402 0.097809 15.5647 0.182324C16.1549 0.327923 16.7208 0.55863 17.2446 0.867196C18.0176 1.31312 18.713 1.88164 19.3038 2.55055C19.7041 2.99457 20.0717 3.46699 20.4037 3.96411C20.7438 4.48399 21.0489 5.02594 21.3169 5.58636C21.6086 6.19052 21.86 6.81659 22.0952 7.44612C22.263 7.90989 22.4066 8.3821 22.5252 8.86083C22.6521 9.35085 22.7674 9.84663 22.8481 10.3459C22.9403 10.912 22.9945 11.4839 23.0498 12.0546C23.0925 12.4847 23.1156 12.917 23.1375 13.3482C23.1548 13.6872 23.1755 14.0273 23.1617 14.3663C23.1409 14.8736 23.0948 15.3809 23.0521 15.8871C23.021 16.2699 22.9876 16.6527 22.9368 17.0332C22.8907 17.3791 22.8319 17.725 22.7524 18.0709C22.5921 18.7626 22.4341 19.4475 22.2358 20.1243C22.0882 20.6094 21.9119 21.0853 21.7078 21.5494C21.506 22.0244 21.2777 22.4891 21.0379 22.9457C20.7093 23.6053 20.305 24.2244 19.833 24.7904C19.4813 25.1974 19.132 25.6102 18.7446 25.9815C18.4122 26.2792 18.0626 26.5571 17.6977 26.8139C17.2853 27.1202 16.83 27.3638 16.3464 27.5369C15.9396 27.6765 15.525 27.792 15.1046 27.8827C14.874 27.9392 14.6261 27.9612 14.3863 27.998L13.7499 27.9911ZM5.25238 14.9624C5.30081 15.4236 5.33886 15.8652 5.39535 16.3033C5.47145 16.8798 5.53717 17.4725 5.65362 18.0478C5.78045 18.6727 5.94302 19.2919 6.12289 19.9041C6.25779 20.3653 6.4388 20.8069 6.61406 21.2519C6.75472 21.6094 6.9023 21.9645 7.07525 22.3069C7.28048 22.7143 7.50224 23.1117 7.74052 23.4991C7.93812 23.8256 8.15487 24.1402 8.38965 24.4411C8.66752 24.7951 8.96614 25.1329 9.27399 25.4626C9.49774 25.7051 9.74065 25.9291 10.0004 26.1325C10.55 26.5705 11.1562 26.9323 11.8025 27.2083C12.3642 27.4419 12.9583 27.5885 13.5642 27.6429C13.954 27.6637 14.3448 27.6556 14.7334 27.6187C15.1667 27.5844 15.5934 27.4913 16.0016 27.342C16.6094 27.1251 17.1843 26.8256 17.7104 26.4519C18.1922 26.119 18.6361 25.7343 19.034 25.3047C19.3603 24.9507 19.6439 24.5564 19.9425 24.1771C20.3258 23.6766 20.6573 23.1384 20.9318 22.571C21.1416 22.1351 21.3434 21.6739 21.5371 21.2127C21.6755 20.8841 21.8023 20.5498 21.913 20.212C22.0433 19.813 22.1597 19.4049 22.2658 19.0048C22.3638 18.6335 22.456 18.2599 22.5195 17.8829C22.6094 17.3537 22.6843 16.821 22.7397 16.2883C22.8019 15.6784 22.8492 15.065 22.8769 14.4528C22.8942 14.0666 22.8527 13.6791 22.8561 13.2917C22.8582 12.7435 22.8196 12.1959 22.7408 11.6534C22.6705 11.146 22.6163 10.6353 22.5264 10.1303C22.4526 9.71634 22.3477 9.30703 22.2404 8.90003C22.1251 8.4619 22.0006 8.02607 21.8611 7.59485C21.7654 7.29738 21.6455 7.00683 21.5233 6.71743C21.3676 6.34733 21.2131 5.97491 21.0321 5.61518C20.8396 5.23009 20.6286 4.85306 20.4037 4.48526C20.2074 4.15319 19.9918 3.83289 19.7581 3.52598C19.4779 3.1674 19.1816 2.82266 18.8634 2.48829C18.6276 2.24627 18.3761 2.02017 18.1105 1.81149C17.8633 1.60962 17.6007 1.42729 17.3253 1.26613C16.955 1.05756 16.574 0.868591 16.1838 0.700014C15.8172 0.538842 15.4286 0.433146 15.0308 0.386402C14.7437 0.354119 14.4543 0.301082 14.1684 0.290705C13.9063 0.281215 13.6439 0.29899 13.3855 0.343742C12.9599 0.411396 12.5393 0.507306 12.1265 0.630835C11.582 0.814259 11.0662 1.07354 10.5942 1.40103C10.1622 1.68913 9.7581 2.01684 9.38698 2.37991C9.17714 2.58399 8.98805 2.80997 8.78974 3.02673C8.36051 3.51422 7.9794 4.04205 7.65174 4.60286C7.21317 5.32509 6.84041 6.08527 6.53796 6.87424C6.25307 7.59092 6.02183 8.32779 5.84617 9.07874C5.72049 9.65524 5.61557 10.2317 5.51526 10.8082C5.4334 11.3075 5.36538 11.8113 5.32156 12.3163C5.28006 12.7775 5.27314 13.2502 5.26276 13.7183C5.24547 14.1415 5.25238 14.5623 5.25238 14.9636V14.9624Z" fill="black"/>
<path d="M6.03757 16.8499H13.0858V16.1396H15.0966V16.8499H22.0998C22.0698 17.0666 22.0537 17.2672 22.0121 17.4621C21.8796 18.0778 21.7527 18.6946 21.5925 19.3069C21.4725 19.7608 21.3262 20.2074 21.1543 20.6443C20.9306 21.2139 20.6931 21.7789 20.4233 22.3288C20.0711 23.0652 19.6259 23.7534 19.0986 24.3765C18.7683 24.7696 18.4136 25.1416 18.0367 25.4903C17.5478 25.9343 16.9941 26.3013 16.3948 26.5787C15.8881 26.8238 15.3462 26.9884 14.7887 27.0664C14.3857 27.1039 13.9803 27.1062 13.5769 27.0734C13.2938 27.0578 13.013 27.0138 12.7387 26.9419C12.0726 26.7664 11.4416 26.4778 10.8732 26.0887C10.4113 25.7778 9.98317 25.4196 9.59567 25.0199C9.06655 24.4785 8.60718 23.8731 8.22823 23.2178C7.97458 22.7727 7.71746 22.3288 7.49148 21.8688C7.30637 21.485 7.14089 21.0921 6.99569 20.6916C6.83774 20.265 6.68785 19.8326 6.56909 19.3933C6.42843 18.8733 6.3212 18.3453 6.20705 17.8184C6.14364 17.5232 6.09176 17.2246 6.03987 16.9271C6.03662 16.9015 6.03585 16.8756 6.03757 16.8499ZM7.5987 18.0028L7.63791 17.9959C7.81547 18.5632 7.99302 19.1305 8.17058 19.6977H8.34353C8.50726 19.1328 8.66983 18.5736 8.8324 18.0155C8.85546 18.4929 8.85892 18.9667 8.84969 19.4418C8.84969 19.4913 8.76898 19.5421 8.72286 19.5882C8.69319 19.6142 8.66115 19.6373 8.62717 19.6574L8.64907 19.7046C8.9108 19.7046 9.17368 19.7046 9.43656 19.7046C9.47 19.7046 9.50343 19.6735 9.53802 19.6574C9.50961 19.6314 9.47682 19.6107 9.44117 19.5963C9.39108 19.5891 9.34585 19.5624 9.31538 19.522C9.28492 19.4816 9.27169 19.4308 9.2786 19.3806C9.2786 18.9829 9.2786 18.5839 9.2786 18.1862C9.2786 18.0778 9.32587 18.0132 9.43425 18.0051C9.54263 17.9971 9.54148 17.9486 9.51957 17.8714H8.75515L8.38619 19.1316C8.35045 19.0163 8.32854 18.9529 8.30779 18.886C8.21209 18.5689 8.1187 18.2519 8.01608 17.9371C8.00413 17.9167 7.98738 17.8995 7.96729 17.8871C7.9472 17.8746 7.92437 17.8673 7.90079 17.8656C7.714 17.8576 7.52607 17.8656 7.33928 17.8599C7.22399 17.8599 7.22398 17.9094 7.24589 17.9913C7.45458 18.0247 7.46035 18.0317 7.46035 18.2473C7.46035 18.6266 7.46035 19.0059 7.46035 19.3853C7.46035 19.4913 7.43383 19.5571 7.32314 19.5836C7.28509 19.5928 7.25627 19.6389 7.22399 19.6677L7.24935 19.7012H7.83853C7.80509 19.6528 7.7901 19.6032 7.76589 19.5974C7.59986 19.5628 7.5987 19.4348 7.59755 19.3103C7.59755 19.0371 7.59755 18.7638 7.59755 18.4894L7.5987 18.0028ZM16.5343 19.3161C16.525 19.3252 16.5162 19.3349 16.5078 19.3449L16.3741 19.5398C16.3429 19.4591 16.3106 19.3772 16.2795 19.2953C16.2795 19.2953 16.2795 19.2861 16.2795 19.2815C16.268 19.0509 16.1781 18.8699 15.9475 18.7869L15.8437 18.7465C15.9371 18.7188 16.012 18.6969 16.0847 18.6739C16.2934 18.607 16.3879 18.4905 16.3867 18.3084C16.3856 18.1262 16.2899 18.0109 16.087 17.9429C15.6488 17.7964 15.1992 17.8864 14.7541 17.8564C14.7299 17.9417 14.7161 17.9925 14.8221 18.0109C14.8495 18.0233 14.8734 18.0423 14.8915 18.0663C14.9096 18.0903 14.9215 18.1184 14.9259 18.1481C14.934 18.5747 14.934 19.0025 14.9259 19.4291C14.9259 19.4752 14.8694 19.5225 14.8337 19.5651C14.7973 19.6012 14.7588 19.635 14.7184 19.6666L14.746 19.7046C14.9939 19.7046 15.243 19.7046 15.492 19.7046C15.5282 19.6956 15.5625 19.6803 15.5935 19.6597C15.5658 19.6332 15.5393 19.6055 15.5105 19.5801C15.4574 19.5317 15.3617 19.4879 15.3571 19.4371C15.3398 19.2238 15.3502 19.0094 15.3502 18.7972C15.6569 18.7661 15.793 18.8572 15.8437 19.1178C15.8612 19.2013 15.872 19.2861 15.876 19.3714C15.8829 19.7173 16.1596 19.8199 16.4455 19.7C16.4779 19.6816 16.5061 19.6567 16.5284 19.6269C16.5507 19.5971 16.5667 19.563 16.5752 19.5267C16.5838 19.4905 16.5848 19.4529 16.5781 19.4162C16.5715 19.3796 16.5574 19.3447 16.5366 19.3138L16.5343 19.3161ZM13.4536 18.6877C13.4536 18.4986 13.4455 18.3164 13.4593 18.1366C13.4656 18.1076 13.4788 18.0806 13.4979 18.0579C13.517 18.0352 13.5414 18.0175 13.5689 18.0063C13.8513 17.9567 14.2503 18.0005 14.3506 18.4018C14.3575 18.4306 14.4025 18.449 14.4301 18.4721C14.4497 18.4398 14.4878 18.4075 14.4866 18.3764C14.4786 18.2069 14.4624 18.0374 14.4486 17.8645H12.7837C12.8113 17.9198 12.8275 17.9913 12.8505 17.9936C13.0189 18.0098 13.0258 18.14 13.0281 18.253C13.0362 18.6174 13.0339 18.9829 13.0281 19.3472C13.0281 19.4625 13.0097 19.5651 12.8678 19.5916C12.839 19.5974 12.8183 19.6435 12.7768 19.6908H14.4797C14.4935 19.4683 14.5074 19.2573 14.5201 19.0451L14.467 19.0198C14.4348 19.0558 14.4055 19.0944 14.3794 19.1351C14.3403 19.234 14.2904 19.3284 14.2307 19.4164C14.052 19.6136 13.8133 19.6216 13.5735 19.5663C13.5456 19.5571 13.5205 19.5411 13.5003 19.5198C13.4802 19.4984 13.4657 19.4724 13.4582 19.4441C13.4466 19.2354 13.4582 19.0255 13.4582 18.8191C13.7072 18.7972 13.8041 18.8687 13.8802 19.0947C13.894 19.1397 13.9413 19.1743 13.9724 19.21L14.0035 19.1835V18.343L13.9643 18.3199C13.9287 18.3564 13.8981 18.3975 13.8732 18.4421C13.7879 18.6531 13.713 18.7015 13.4536 18.6877ZM19.8953 18.5724L19.9483 18.5378C19.916 18.3153 19.9898 18.0858 19.901 17.8714H18.3883V18.5493L18.4321 18.5689C18.4569 18.5333 18.4766 18.4946 18.4909 18.4537C18.559 18.1527 18.6132 18.0028 18.9625 17.9844C18.9625 18.4352 18.9625 18.886 18.9625 19.3357C18.9625 19.451 18.9314 19.5663 18.7838 19.5893C18.7538 19.5893 18.7308 19.6412 18.6789 19.6954H19.6013L19.6243 19.662C19.5943 19.6343 19.5667 19.5893 19.5321 19.5813C19.4099 19.5548 19.3914 19.4787 19.3937 19.3703C19.3937 19.0244 19.3937 18.6693 19.3937 18.3188V17.9971C19.4608 17.9851 19.5299 17.9951 19.591 18.0254C19.652 18.0557 19.7017 18.1048 19.7327 18.1654C19.7788 18.2611 19.7996 18.3683 19.8365 18.4698C19.8524 18.5042 19.8721 18.5367 19.8953 18.5666V18.5724ZM12.6534 17.8345C12.6257 17.8345 12.5877 17.8264 12.5831 17.8345C12.5127 17.9798 12.4147 17.9233 12.3144 17.8783C12.2706 17.861 12.2255 17.8471 12.1795 17.8368C12.0546 17.8033 11.9217 17.8172 11.8063 17.8757C11.691 17.9342 11.6013 18.0333 11.5546 18.1539C11.46 18.4606 11.5454 18.7938 11.9351 18.9241C12.0788 18.9685 12.2188 19.0244 12.3536 19.0913C12.5669 19.2065 12.5842 19.4694 12.3882 19.572C12.3229 19.6063 12.2497 19.6224 12.1761 19.6187C12.1025 19.6151 12.0312 19.5918 11.9697 19.5513C11.8071 19.4395 11.6856 19.2775 11.6238 19.0901C11.5915 19.0117 11.5546 18.9852 11.4612 19.0255L11.5039 19.7173C11.5338 19.7173 11.5719 19.7265 11.5788 19.7173C11.6768 19.564 11.7921 19.6262 11.912 19.6839C11.9534 19.7075 12.0004 19.7195 12.0481 19.7185C12.2083 19.7046 12.394 19.7185 12.5231 19.6504C12.6256 19.5899 12.7056 19.4976 12.7509 19.3876C12.7963 19.2775 12.8045 19.1557 12.7744 19.0405C12.7568 18.9315 12.7086 18.8297 12.6356 18.7469C12.5626 18.6641 12.4676 18.6036 12.3617 18.5724C12.1873 18.5122 12.0181 18.4382 11.8555 18.351C11.8307 18.3346 11.8099 18.3128 11.7944 18.2874C11.779 18.2619 11.7693 18.2334 11.7661 18.2038C11.7629 18.1742 11.7663 18.1443 11.7759 18.1161C11.7856 18.0879 11.8014 18.0623 11.8221 18.0409C11.9455 17.9048 12.2706 17.9383 12.3905 18.102C12.4493 18.1827 12.4966 18.2715 12.5565 18.3499C12.5994 18.3891 12.647 18.4228 12.6983 18.4502C12.6799 18.215 12.6672 18.0294 12.6534 17.8345ZM17.2561 19.6943C17.2215 19.6435 17.2077 19.6032 17.1788 19.579C17.1515 19.5674 17.127 19.5501 17.107 19.5282C17.087 19.5063 17.072 19.4803 17.063 19.452C17.054 19.4237 17.0513 19.3939 17.0549 19.3644C17.0586 19.335 17.0686 19.3067 17.0843 19.2815C17.12 19.2123 17.0843 19.0832 17.2284 19.0855C17.3725 19.0878 17.5167 19.0855 17.6596 19.0855C17.6954 19.0855 17.7357 19.1362 17.7588 19.172C17.7819 19.2077 17.7795 19.255 17.798 19.293C17.8591 19.4222 17.8718 19.5317 17.7 19.5836C17.6888 19.5899 17.6793 19.5989 17.6725 19.6097C17.6657 19.6206 17.6616 19.633 17.6608 19.6458C17.6608 19.6631 17.6965 19.6896 17.7173 19.6896C17.9732 19.6896 18.2292 19.6896 18.5128 19.6896C18.4852 19.6343 18.4783 19.5916 18.4563 19.5824C18.4002 19.5554 18.3512 19.5155 18.3134 19.4661C18.2755 19.4166 18.2498 19.3589 18.2384 19.2976C18.2131 19.2123 18.1842 19.127 18.1543 19.0428C18.032 18.6969 17.8972 18.351 17.7888 18.0051C17.7473 17.8702 17.685 17.8299 17.5582 17.8495C17.5305 17.8495 17.5017 17.8495 17.4671 17.8495C17.4244 17.9648 17.3795 18.0801 17.338 18.1954C17.2434 18.4571 17.1627 18.7258 17.0497 18.9794C16.9575 19.1858 16.9506 19.4406 16.7223 19.5778C16.7015 19.5986 16.7015 19.6481 16.6877 19.6943H17.2561ZM9.9923 19.0913C10.1641 19.0913 10.3313 19.0913 10.4985 19.0913C10.5164 19.0921 10.5338 19.0972 10.5494 19.106C10.565 19.1148 10.5784 19.1271 10.5884 19.142C10.6249 19.2299 10.6535 19.321 10.6737 19.4141C10.6899 19.4879 10.6737 19.5536 10.5803 19.5743C10.5411 19.5824 10.51 19.6285 10.4754 19.6574L10.4996 19.6931H11.3413C11.3199 19.6495 11.2961 19.6071 11.2698 19.5663C11.211 19.4902 11.1211 19.4268 11.0899 19.3357C10.9377 18.9229 10.7982 18.5055 10.6599 18.0882C10.578 17.8414 10.5826 17.8403 10.3244 17.8518C10.3151 17.8518 10.3059 17.8576 10.3186 17.8518C10.0361 18.4594 9.93695 19.1201 9.53572 19.6873H10.0868C10.0488 19.6297 10.0327 19.572 10.0004 19.5594C9.87815 19.5202 9.88507 19.4441 9.91274 19.3449C9.94041 19.2458 9.96578 19.1846 9.9923 19.0913ZM20.0982 19.6677L20.1305 19.6989H20.9433C20.9099 19.647 20.8961 19.5951 20.8695 19.5836C20.7254 19.5478 20.7254 19.4406 20.7254 19.3265C20.7254 18.9575 20.7254 18.5885 20.7254 18.2196C20.7254 18.0812 20.7738 18.0028 20.9214 17.989L20.9134 17.8737H20.1201L20.0924 17.9141C20.1288 17.9431 20.1631 17.9747 20.195 18.0086C20.2366 18.0593 20.3046 18.1158 20.3103 18.17C20.3196 18.5828 20.3196 18.9948 20.3103 19.406C20.3103 19.4625 20.2377 19.5213 20.195 19.5732C20.1663 19.6048 20.1359 19.6348 20.104 19.6631L20.0982 19.6677Z" fill="black"/>
<path d="M15.7134 5.75469C15.6795 5.79273 15.6332 5.81754 15.5828 5.82472C15.5324 5.83189 15.481 5.82097 15.4378 5.79389C15.1081 5.64747 14.7818 5.49988 14.4543 5.35C14.2341 7.49224 14.7092 9.47306 15.9809 11.2844C15.5969 11.2844 15.2499 11.2844 14.9029 11.2844C14.8804 11.279 14.8593 11.269 14.8409 11.2551C14.8225 11.2412 14.8071 11.2237 14.7956 11.2037C14.5411 10.81 14.3417 10.3833 14.203 9.93541C14.1719 9.82818 14.1304 9.72441 14.0877 9.58952C14.0393 9.73479 13.9955 9.85124 13.9597 9.97C13.8153 10.3945 13.6226 10.8011 13.3855 11.1818C13.3698 11.2073 13.3488 11.2291 13.324 11.2458C13.2991 11.2625 13.2709 11.2737 13.2414 11.2786C12.8955 11.2867 12.5623 11.2786 12.1922 11.2786C13.4489 9.47652 13.9355 7.49224 13.7187 5.33616C13.442 5.46991 13.1642 5.61057 12.8817 5.7397C12.7899 5.77749 12.6939 5.80382 12.5957 5.81811C12.5611 5.82387 12.5196 5.79389 12.4804 5.78121C12.49 5.74248 12.5064 5.70577 12.5289 5.67283C12.6705 5.55745 12.8049 5.43346 12.9313 5.30157C13.1401 5.05236 13.33 4.78799 13.4997 4.51062C13.619 4.29492 13.7112 4.06526 13.7741 3.8269C13.8444 3.58247 13.8755 3.32766 13.924 3.07747C13.9528 2.92873 13.9782 2.78 14.0116 2.63357C14.0185 2.60474 14.0577 2.56208 14.0796 2.56323C14.097 2.56687 14.1131 2.57478 14.1266 2.58626C14.1401 2.59774 14.1505 2.61242 14.1569 2.62895C14.1927 2.75593 14.2189 2.88543 14.2353 3.01636C14.2939 3.77711 14.5746 4.50393 15.0424 5.10672C15.2213 5.30735 15.4139 5.49535 15.6189 5.66937C15.6546 5.69013 15.6788 5.71895 15.7134 5.75469Z" fill="black"/>
<path d="M8.3516 5.45146C9.23248 5.35922 10.3624 6.13172 10.9066 7.06563C10.6207 6.95034 10.3197 6.83504 10.0165 6.71974C9.94732 6.70961 9.87702 6.70961 9.80782 6.71974C10.5733 8.12727 11.0396 9.67778 11.1776 11.274H10.1468C10.1376 9.15484 9.61181 7.19938 8.3516 5.45146Z" fill="black"/>
<path d="M18.0286 11.2798H16.9909C17.1224 9.68066 17.5866 8.12666 18.3537 6.71743C17.9375 6.70475 17.6112 6.93189 17.2434 7.09215C17.8061 6.13172 18.9129 5.37536 19.8111 5.45031C18.5659 7.19362 18.0286 9.14908 18.0286 11.2798Z" fill="black"/>
<path d="M15.0055 14.9705H13.1538C13.1042 14.7653 13.0708 14.5646 13.0062 14.3744C12.9272 14.1337 12.7765 13.9229 12.5744 13.7702C12.3722 13.6175 12.1283 13.5302 11.8751 13.52C11.8405 13.52 11.8082 13.4878 11.7737 13.4705C11.8094 13.4509 11.8451 13.4151 11.8809 13.4151C13.3413 13.4151 14.7999 13.4151 16.2565 13.4151C16.2922 13.4151 16.3268 13.4509 16.3625 13.4705C16.3319 13.4929 16.2976 13.5097 16.2611 13.52C15.9871 13.5387 15.7265 13.6458 15.5186 13.8252C15.3107 14.0047 15.1666 14.2467 15.1081 14.5151C15.0666 14.6649 15.0389 14.8171 15.0055 14.9705Z" fill="black"/>
<path d="M18.4264 12.8017V13.2341H9.76631V12.8017H18.4264Z" fill="black"/>
<path d="M9.76631 11.5438H18.4252V11.9428H9.76631V11.5438Z" fill="black"/>
<path d="M18.009 12.1918V12.6115H10.1595V12.1918H18.009Z" fill="black"/>
<path d="M12.7595 15.2103H15.4309V15.8917H12.7595V15.2103Z" fill="black"/>
<path d="M11.1799 13.422C11.1499 13.9928 10.8651 14.2291 10.186 14.1542V13.422H11.1799Z" fill="black"/>
<path d="M17.979 13.4255V14.1473C17.4129 14.251 16.9413 13.9951 17.014 13.4255H17.979Z" fill="black"/>
<path d="M15.3571 18.6762C15.3571 18.5182 15.3571 18.3845 15.3571 18.2519C15.3465 18.1951 15.3569 18.1364 15.3864 18.0867C15.4159 18.0371 15.4624 17.9999 15.5174 17.9821C15.587 17.967 15.6596 17.9727 15.726 17.9985C15.7925 18.0244 15.8498 18.0692 15.891 18.1274C16.0316 18.3752 15.8979 18.7246 15.5739 18.6773C15.5017 18.6722 15.4293 18.6718 15.3571 18.6762Z" fill="black"/>
<path d="M17.4694 18.2772C17.5397 18.5078 17.6089 18.7281 17.6827 18.969H17.1881C17.2699 18.7384 17.3529 18.5078 17.436 18.2772H17.4694Z" fill="black"/>
<path d="M10.0361 18.9702L10.2782 18.2703H10.3151C10.3866 18.5009 10.457 18.7315 10.5319 18.9725L10.0361 18.9702Z" fill="black"/>
</svg>
