<svg width="28" height="28" viewBox="0 0 28 28" fill="none" xmlns="http://www.w3.org/2000/svg">
<path d="M17.1279 9.79287C16.5454 9.56087 15.9689 9.32018 15.3585 9.14815C14.6186 8.93937 13.8426 8.84536 13.0304 8.86612C11.5708 8.90364 10.1916 9.55704 9.23955 10.6451C8.19289 11.8414 7.76876 13.42 8.06339 14.9708C8.34189 16.4363 9.27076 17.7186 10.5881 18.4675C11.3634 18.908 12.2051 19.136 13.1134 19.1515C13.7393 19.1622 14.3811 19.0979 14.9719 18.9644C15.6703 18.8067 16.3919 18.5262 17.0678 18.2416C17.1416 18.2106 17.2007 18.1979 17.2449 18.2033C17.3442 18.2161 17.4238 18.3052 17.4238 18.4067C17.4243 20.2606 17.4241 22.0876 17.4233 23.8876C17.4231 24.0124 17.3778 24.1114 17.2873 24.1847C17.2432 24.2203 17.1379 24.268 16.9713 24.3279C16.0575 24.6561 15.1381 24.8631 14.2131 24.9486C12.2161 25.1333 10.3131 24.8202 8.5039 24.0094C7.47726 23.5492 6.47611 22.906 5.625 22.1298C4.06354 20.7063 2.99452 18.9999 2.41792 17.0106C2.13656 16.0394 1.99727 15.0279 2.00004 13.9761C2.00559 11.9635 2.52957 10.0885 3.57198 8.35106C3.66057 8.20336 3.7534 8.05831 3.85048 7.91589C4.99137 6.24172 6.47056 4.96819 8.28806 4.0953C9.62605 3.45262 11.0707 3.09121 12.6219 3.01106C12.7923 3.00239 12.9673 2.99881 13.1469 3.00034C14.5501 3.01209 15.888 3.26341 17.1606 3.7543C17.3359 3.82186 17.4236 3.95373 17.4238 4.14992C17.4248 5.9876 17.4244 7.81107 17.4225 9.62034C17.4222 9.70865 17.3484 9.78598 17.2657 9.80589C17.2223 9.81644 17.1764 9.8121 17.1279 9.79287Z" fill="#18232E"/>
<path d="M25.5789 15.3659C25.3783 15.808 25.1527 16.2493 24.902 16.6898C24.2105 17.9047 23.4249 19.0577 22.5453 20.1487C22.1634 20.6226 21.7678 21.073 21.3587 21.4999C20.6821 22.2062 19.9548 22.8465 19.1263 23.3736C19.0202 23.4412 18.919 23.4711 18.8127 23.3932C18.747 23.3453 18.7141 23.2832 18.7141 23.2069C18.7136 16.9471 18.7137 10.8123 18.7144 4.80255C18.7144 4.61929 18.9247 4.52026 19.0769 4.61163C19.3798 4.7931 19.6724 5.00418 19.9488 5.22317C20.9112 5.9853 21.7847 6.91843 22.5632 7.88806C23.5112 9.06877 24.3374 10.2982 25.0419 11.5764C25.3203 12.0818 25.5564 12.5737 25.7503 13.0522C25.8207 13.2259 25.8849 13.4168 25.943 13.6249C26.0061 13.8509 26.0168 14.0588 25.9752 14.2487C25.8925 14.6275 25.7399 15.0114 25.5789 15.3659Z" fill="#18232E"/>
</svg>
