<svg width="28" height="29" viewBox="0 0 28 29" fill="none" xmlns="http://www.w3.org/2000/svg">
<path d="M14.3129 4.7817C15.2113 4.6684 16.156 4.48648 17.1055 4.44499C19.3491 4.34606 21.4539 4.78489 23.1502 6.39021C25.3395 8.46469 25.4161 11.0179 24.7092 13.7004C24.1603 15.7844 22.8741 17.4536 21.4587 19.027C21.2831 19.2217 21.1108 19.4211 21.0565 19.4834C21.0565 21.3169 21.1571 22.994 21.0262 24.644C20.9161 26.0451 20.2922 27.2946 18.872 27.8467C18.3307 28.0383 17.7458 28.0705 17.1868 27.9393C15.1618 27.451 13.6937 26.0866 12.3198 24.6185C11.8602 24.127 11.4086 23.9259 10.6762 23.9227C8.715 23.9132 6.80329 23.5637 5.25062 22.185C2.86497 20.0546 2.55859 17.4264 3.48891 14.5429C3.74129 13.7568 4.08345 13.0023 4.50859 12.2945C4.67999 12.0291 4.78987 11.7287 4.83018 11.4153C4.87049 11.1019 4.84022 10.7835 4.74157 10.4833C4.05859 8.03065 3.68199 5.54766 4.132 2.99924C4.41923 1.36359 5.38466 0.158802 6.71392 0.0391205C7.45082 -0.0340274 8.19396 0.088729 8.86819 0.394973C9.87562 0.92138 10.8227 1.55598 11.6927 2.28754C12.5959 3.02318 13.389 3.89286 14.3129 4.7817ZM18.3517 14.4264C17.2682 11.6291 16.0124 9.00086 14.3161 6.65511C12.6741 6.79234 9.32138 8.72959 8.45329 10.0317C9.35181 13.0471 10.7723 15.8816 12.6501 18.4062C14.9528 17.5748 16.772 16.2296 18.3517 14.4264ZM19.2119 13.4259C19.9188 12.5291 20.4613 11.5796 20.6161 10.5089C20.7294 9.72215 20.7326 8.82374 20.4645 8.09448C19.8326 6.38064 17.123 5.57638 15.4491 6.40458C16.6778 8.70884 17.9145 11.0083 19.2119 13.4259ZM7.82616 8.06575L13.1368 5.04659C12.1475 3.99659 11.2299 2.89392 9.87192 2.30668C8.75489 1.82796 7.94106 2.22371 7.57723 3.36626C7.06818 4.9684 7.52776 6.49234 7.82616 8.06575ZM5.60488 13.5535C4.93785 14.9897 4.64743 16.2935 5.4453 17.6084C6.04211 18.5929 6.99159 19.0206 8.21712 19.1578L5.60488 13.5535ZM16.6539 22.5217C17.3416 23.0898 18.0118 23.1839 18.7124 22.8871C19.2709 22.6493 19.5996 21.7222 19.4847 20.7903L16.6539 22.5217Z" fill="black"/>
</svg>
