<svg width="24" height="24" viewBox="0 0 24 24" fill="none" xmlns="http://www.w3.org/2000/svg">
<g id="icons 25">
<path id="Vector" d="M12.268 21.9995C12.0902 21.9995 11.9124 21.9995 11.7346 21.9995C11.6992 21.9945 11.6639 21.986 11.6284 21.9851C11.0977 21.9719 10.5736 21.9047 10.0532 21.8018C8.96411 21.5865 7.94212 21.1947 6.98467 20.6351C6.27488 20.2203 5.62621 19.7246 5.03691 19.1502C4.38305 18.5129 3.82418 17.8017 3.36359 17.0142C2.82666 16.0961 2.44504 15.1165 2.22296 14.0759C2.12634 13.6231 2.05769 13.1661 2.03153 12.7032C2.02327 12.557 2.01063 12.4111 2 12.265C2 12.0872 2 11.9094 2 11.7316C2.00494 11.6992 2.01363 11.6668 2.01425 11.6343C2.02397 11.123 2.08748 10.6175 2.18363 10.116C2.34346 9.28227 2.60853 8.48299 2.9745 7.71704C3.445 6.73231 4.06054 5.84753 4.81875 5.06377C5.7199 4.13226 6.76172 3.39855 7.94522 2.86726C9.05405 2.36947 10.2165 2.0904 11.4281 2.01605C11.9217 1.98575 12.4154 1.99835 12.9085 2.04351C13.5172 2.09923 14.1147 2.21062 14.7029 2.37539C15.3967 2.56972 16.0601 2.83935 16.6944 3.17976C17.5931 3.66211 18.401 4.26712 19.1159 4.99492C20.0282 5.9238 20.7378 6.98765 21.239 8.19038C21.6714 9.22805 21.9175 10.3086 21.9835 11.4295C22.0258 12.1491 21.9861 12.8654 21.872 13.5779C21.7435 14.3804 21.519 15.1547 21.1999 15.9011C20.8757 16.6592 20.4627 17.3661 19.9632 18.0227C19.1897 19.0395 18.2575 19.8803 17.1676 20.5458C16.3538 21.0427 15.4856 21.4144 14.5639 21.6597C13.9575 21.8211 13.3418 21.9282 12.7149 21.9673C12.5659 21.9766 12.417 21.9887 12.268 21.9995ZM12.9656 14.9028C12.9774 14.6546 12.9912 14.4143 12.9998 14.1739C13.0144 13.7649 13.1893 13.4309 13.4857 13.161C13.8422 12.8364 14.2081 12.5219 14.5701 12.2031C14.9431 11.8746 15.315 11.5442 15.6251 11.1535C16.355 10.2343 16.4663 9.23594 15.9663 8.1795C15.7109 7.63985 15.3051 7.21658 14.8197 6.87429C14.1001 6.36682 13.2818 6.1546 12.4152 6.09845C12.0267 6.07328 11.6391 6.0835 11.2517 6.1291C10.8815 6.17269 10.5168 6.24319 10.172 6.38401C8.88771 6.90859 8.04323 7.81248 7.77421 9.20249C7.75354 9.30926 7.7473 9.41883 7.73423 9.52803C7.91771 9.55204 8.08782 9.57483 8.25807 9.59647C8.76896 9.66136 9.27985 9.72631 9.79107 9.78842C9.80919 9.79062 9.84347 9.76691 9.84896 9.74881C9.8915 9.60879 9.92208 9.46492 9.96886 9.32646C10.1787 8.70555 10.5517 8.22831 11.1783 7.98251C11.5489 7.83714 11.9341 7.80001 12.3298 7.82937C12.807 7.8648 13.2287 8.0189 13.5836 8.35181C14.1677 8.89987 14.2045 9.78414 13.6461 10.3511C13.4364 10.5641 13.2014 10.7524 12.9752 10.9487C12.6066 11.2686 12.2262 11.5754 11.8685 11.907C11.4958 12.2525 11.209 12.6616 11.0569 13.1559C10.9394 13.5382 10.895 13.9302 10.8889 14.3274C10.8859 14.5178 10.8982 14.7084 10.9037 14.9028C11.5977 14.9028 12.2827 14.9028 12.9656 14.9028ZM10.9084 17.9076C11.6033 17.9076 12.2879 17.9076 12.9736 17.9076C12.9736 17.1628 12.9736 16.4236 12.9736 15.6855C12.2817 15.6855 11.5969 15.6855 10.9084 15.6855C10.9084 16.428 10.9084 17.1652 10.9084 17.9076Z" fill="#989898"/>
</g>
</svg>
