<svg width="28" height="8" viewBox="0 0 28 8" fill="none" xmlns="http://www.w3.org/2000/svg">
<g id="Group 1000002472">
<path id="Vector" d="M7.9375 3.79199C12.0386 4.09712 16.0552 4.09351 20.0928 3.79394C20.0073 4.87983 19.92 5.89881 19.8509 6.91891C19.831 7.2133 19.6989 7.36016 19.4062 7.40232C17.3023 7.70532 15.2047 8.14101 13.064 7.95579C11.5555 7.82532 10.0557 7.59163 8.55577 7.37916C8.42369 7.36044 8.22944 7.16576 8.21583 7.03743C8.1052 5.98805 8.03056 4.93505 7.9375 3.79199Z" fill="black"/>
<path id="Vector_2" d="M20.1719 3.33587C16.0387 3.71235 12.0015 3.69984 7.87695 3.33856C7.87695 2.23469 7.87695 1.12722 7.87695 0C11.9594 0 16.0765 0 20.1719 0C20.1719 1.13778 20.1719 2.22042 20.1719 3.33587Z" fill="black"/>
<path id="Vector_3" d="M27.9853 2.79737C25.5155 2.97945 23.0851 3.15856 20.6641 3.33703C20.6641 2.21648 20.6641 1.15107 20.6641 0.0233033C20.8931 0.0233033 21.0571 0.0199675 21.2208 0.0238592C22.8189 0.0612941 24.417 0.0954858 26.0149 0.141631C26.3582 0.151545 26.7028 0.190185 27.0423 0.243094C27.5877 0.328156 27.9255 0.635419 27.9749 1.17674C28.0229 1.70315 27.9853 2.23715 27.9853 2.79737Z" fill="black"/>
<path id="Vector_4" d="M0.0138409 2.79504C0.0138409 2.26493 -0.0227223 1.76252 0.0230054 1.26744C0.0817711 0.630674 0.458741 0.275691 1.12803 0.230844C2.36249 0.14819 3.59912 0.0895363 4.83585 0.0485804C5.64732 0.0217088 6.4605 0.0434841 7.31062 0.0434841C7.35862 1.14114 7.40595 2.22156 7.45517 3.34702C4.9719 3.16281 2.54511 2.98277 0.0138409 2.79504Z" fill="black"/>
<path id="Vector_5" d="M20.248 7.25422C20.344 6.13831 20.4223 5.10357 20.5362 4.07272C20.5497 3.95032 20.7511 3.76138 20.8784 3.75063C22.2501 3.63453 23.6246 3.55095 24.998 3.45236C25.9624 3.38314 26.9262 3.30438 27.9132 3.22803C27.8494 4.55446 27.2332 5.51026 25.9876 5.90842C24.6438 6.33808 23.25 6.62051 21.8737 6.94974C21.3612 7.07233 20.8363 7.14571 20.248 7.25422Z" fill="black"/>
<path id="Vector_6" d="M0.125 3.23486C2.17793 3.38822 4.21857 3.54055 6.25922 3.69326C6.30599 3.69678 6.35257 3.7041 6.39924 3.70882C6.75268 3.7444 7.21005 3.6636 7.42849 3.85022C7.61971 4.01368 7.55254 4.47679 7.58173 4.80898C7.65099 5.59798 7.70975 6.38782 7.77901 7.25577C6.9441 7.09464 6.15274 6.95898 5.36989 6.78645C4.42756 6.5788 3.48249 6.37281 2.5565 6.1066C1.12515 5.69509 0.187167 4.83715 0.125 3.23486Z" fill="black"/>
</g>
</svg>
