<svg width="28" height="28" viewBox="0 0 28 28" fill="none" xmlns="http://www.w3.org/2000/svg">
<path d="M4.50947 9C4.84486 9 5.1802 9 5.51558 9C5.53477 9.0099 5.55321 9.02652 5.57328 9.02878C6.42907 9.12614 7.2077 9.4263 7.91627 9.92149C7.96385 9.95475 8.08167 9.93606 8.13796 9.89795C8.63839 9.55923 9.17566 9.30496 9.75954 9.1567C10.0047 9.09447 10.2547 9.05166 10.5024 9C10.8378 9 11.1731 9 11.5085 9C11.5277 9.0099 11.5462 9.02652 11.5662 9.02878C12.4225 9.12538 13.1988 9.43176 13.9094 9.92171C13.9578 9.95506 14.0756 9.93717 14.1318 9.89897C14.5885 9.58895 15.0764 9.34648 15.6058 9.19814C15.898 9.11632 16.1985 9.06507 16.4953 9C16.8307 9 17.1661 9 17.5014 9C17.5205 9.01013 17.5387 9.02714 17.5586 9.02945C18.4143 9.12738 19.1914 9.43243 19.9028 9.92091C19.9515 9.95431 20.0688 9.93743 20.1248 9.89955C20.5818 9.59019 21.0694 9.34688 21.5989 9.19863C21.891 9.11681 22.1915 9.06525 22.4882 9.00004C22.8236 9.00004 23.159 9.00004 23.4943 9.00004C23.5425 9.01435 23.5897 9.03584 23.6388 9.04193C25.6312 9.28888 27.2944 10.7372 27.8251 12.6965C27.8975 12.9639 27.9423 13.2389 27.9999 13.5104C27.9999 13.8495 27.9999 14.1885 27.9999 14.5275C27.9861 14.56 27.9639 14.5914 27.9595 14.6251C27.4769 18.3196 23.2932 20.2299 20.1847 18.1272C20.0369 18.0272 19.9498 18.0305 19.8076 18.1269C18.0788 19.2986 15.8578 19.2903 14.1579 18.1052C14.0285 18.0149 13.9522 18.0343 13.8354 18.1132C12.0853 19.2978 9.90207 19.2955 8.16548 18.1068C8.05393 18.0305 7.98015 18.0167 7.8612 18.0982C6.79924 18.8254 5.63146 19.1026 4.35438 18.9532C2.05988 18.6849 0.172976 16.7012 0.0120539 14.368C-0.144882 12.0926 1.2441 9.98762 3.38976 9.27253C3.75314 9.15141 4.13576 9.08936 4.50947 9ZM7.20139 17.252C6.4164 16.3141 5.99953 15.2341 5.9987 13.9999C5.99786 12.7599 6.41947 11.6752 7.20774 10.7337C5.76452 9.70421 3.42705 9.76896 1.98886 11.4454C0.646237 13.0104 0.742624 15.3236 2.20823 16.7848C3.718 18.2902 5.94406 18.1938 7.20139 17.252ZM20.8021 17.2635C22.2166 18.2823 24.58 18.2454 26.0294 16.5317C27.388 14.9254 27.2498 12.5877 25.7143 11.1322C24.1804 9.67831 21.9786 9.84149 20.8122 10.7418C22.4152 12.5749 22.4356 15.3602 20.8021 17.2635ZM13.1748 17.2737C11.5487 15.0714 11.5692 12.8955 13.1815 10.7177C11.8796 9.77398 9.92454 9.88671 8.82016 10.74C10.3483 12.5086 10.4855 15.3058 8.82341 17.2592C9.99968 18.1422 11.9237 18.1887 13.1748 17.2737ZM14.808 10.7365C16.2856 12.3929 16.5693 15.2159 14.8195 17.2606C16.0869 18.22 18.1276 18.1158 19.1805 17.2442C17.6545 15.5077 17.4799 12.7352 19.1838 10.7351C18.0566 9.85846 16.0872 9.79966 14.808 10.7365ZM8.00307 11.443C6.56572 13.0509 6.88077 15.4314 8.02243 16.54C9.39327 15.021 9.19897 12.7282 8.00307 11.443ZM19.9923 11.4433C18.6032 12.9978 18.8166 15.3298 20.003 16.5417C21.292 15.1434 21.2762 12.8287 19.9923 11.4433ZM14.009 11.4448C12.6343 12.9087 12.7897 15.3281 14.0155 16.5413C15.281 15.1959 15.2833 12.8377 14.009 11.4448Z" fill="black"/>
</svg>
