<svg width="24" height="24" viewBox="0 0 24 24" fill="none" xmlns="http://www.w3.org/2000/svg">
<g id="Icons_characteristics">
<g id="Vector">
<path d="M15.7822 12.1498C16.2927 12.1498 16.7532 12.1498 17.2342 12.1498C17.218 12.3569 17.2053 12.554 17.1873 12.7508C17.1257 13.4193 17.0887 14.0917 16.9886 14.755C16.9329 15.1241 17.0615 15.4344 17.1623 15.7592C17.3134 16.2471 17.4981 16.7234 17.8293 17.1259C18.1488 17.5145 18.5293 17.8171 19.048 17.8982C19.5691 17.9797 20.0292 17.6364 20.1166 17.1193C20.1885 16.6959 20.0969 16.2843 20.0327 15.8717C19.9112 15.0889 19.5567 14.3863 19.2203 13.6819C18.7362 12.6668 18.2235 11.6651 17.7306 10.6542C17.639 10.4662 17.5041 10.3426 17.3187 10.2569C17.1316 10.1702 16.8787 10.1208 16.7821 9.97349C16.6895 9.83212 16.7599 9.58594 16.7599 9.38573C16.7596 8.73667 16.7599 8.08728 16.7599 7.43823C16.7599 7.38634 16.7599 7.33481 16.7599 7.27004C17.0224 7.2502 17.275 7.23104 17.5537 7.2098C17.5699 6.96362 17.6069 6.71953 17.5967 6.47753C17.5865 6.23309 17.454 6.03706 17.2634 5.87236C16.9026 5.56106 16.5531 5.23689 16.186 4.90609C16.4055 4.66618 16.6148 4.43811 16.8322 4.20028C17.1017 4.44507 17.3688 4.68429 17.632 4.92768C17.8148 5.09656 17.9801 5.28598 18.1745 5.43989C18.4469 5.65543 18.5297 5.93643 18.5304 6.25956C18.5308 6.56981 18.5304 6.88006 18.5304 7.2004C18.7806 7.22478 19.011 7.24741 19.2544 7.27109C19.2544 8.22656 19.2544 9.17994 19.2544 10.1483C19.0571 10.1723 18.8538 10.197 18.6333 10.2239C18.8098 10.5734 18.9824 10.9136 19.1537 11.2542C19.6734 12.287 20.1694 13.3302 20.5302 14.4298C20.7497 15.099 20.9037 15.7815 20.9812 16.4838C21.0256 16.8839 20.9897 17.2687 20.8907 17.6493C20.7353 18.2465 20.3157 18.5765 19.7311 18.7444C18.8739 18.9906 18.1657 18.7374 17.5439 18.1493C16.8949 17.5358 16.5179 16.7666 16.2367 15.9417C16.1419 15.6635 16.057 15.3818 15.9584 15.1046C15.9404 15.0545 15.8784 15.0197 15.8368 14.9779C15.8185 14.9887 15.8002 14.9995 15.7819 15.0103C15.7819 15.0611 15.7819 15.1123 15.7819 15.1631C15.7819 15.8703 15.7815 16.5775 15.7819 17.2847C15.7819 17.6684 15.7829 18.0522 15.7836 18.4355C15.785 19.1897 15.2537 19.8001 14.43 19.789C13.4589 19.7761 12.4872 19.7973 11.5158 19.8026C10.6829 19.8071 9.85037 19.8137 9.01746 19.8134C8.0725 19.813 7.12755 19.8102 6.1826 19.8001C5.95534 19.7977 5.7221 19.7886 5.5033 19.7361C4.96811 19.6083 4.61014 19.1372 4.57139 18.5532C4.56716 18.4902 4.56575 18.4268 4.56575 18.3634C4.5654 13.7348 4.56575 9.10612 4.56504 4.47745C4.56504 4.06971 4.65841 3.69713 4.95684 3.39489C5.23412 3.11424 5.58399 3.0056 5.96556 3.00525C8.77998 3.00142 11.5944 2.99411 14.4088 3.00873C15.2195 3.01291 15.7234 3.49657 15.7498 4.32007C15.7618 4.69404 15.7512 5.06905 15.753 5.44337C15.7621 7.38425 15.772 9.32479 15.7815 11.2657C15.7833 11.5547 15.7822 11.8433 15.7822 12.1498ZM5.82709 4.55928C5.82709 6.33651 5.82709 8.10086 5.82709 9.86485C6.9084 9.86485 7.97878 9.86485 9.05797 9.86485C9.0319 9.55112 9.09356 9.27082 9.27536 9.01907C9.29615 8.99017 9.27783 8.91948 9.25774 8.87735C9.0541 8.4501 8.84552 8.02495 8.64011 7.5984C8.50129 7.31044 8.36529 7.02108 8.22788 6.73242C8.35014 6.81425 8.44633 6.91314 8.54216 7.01203C9.01006 7.49498 9.47725 7.97933 9.94796 8.45985C9.98707 8.49955 10.0572 8.54307 10.1051 8.53576C10.7573 8.43583 11.3242 8.93097 11.4246 9.44701C11.4514 9.58385 11.4566 9.72488 11.4714 9.86242C12.5112 9.86242 13.5484 9.86242 14.5871 9.86242C14.5871 8.08832 14.5871 6.32815 14.5871 4.55928C11.6652 4.55928 8.7518 4.55928 5.82709 4.55928Z" fill="#989898"/>
<path d="M10.2481 20.2633C12.3304 20.2633 14.4131 20.2629 16.4953 20.2636C16.8262 20.2636 17.1324 20.3368 17.342 20.616C17.6778 21.0638 17.5153 21.8563 16.7554 21.9657C16.5834 21.9904 16.4073 21.998 16.2332 21.9984C12.1645 22.0001 8.09576 22.0012 4.02739 21.9977C3.5313 21.9973 3.17862 21.7776 3.03698 21.3761C2.90451 20.9997 3.12965 20.3744 3.68492 20.2967C3.83713 20.2755 3.9918 20.2647 4.14542 20.2647C6.17943 20.2626 8.21379 20.2633 10.2481 20.2633Z" fill="#989898"/>
</g>
</g>
</svg>
