<svg width="28" height="10" viewBox="0 0 28 10" fill="none" xmlns="http://www.w3.org/2000/svg">
<g id="Group 7">
<path id="Vector" d="M14.0423 9.82291C12.5672 9.82304 11.0921 9.8242 9.61707 9.82243C9.08416 9.82182 8.96905 9.71071 8.9655 9.20713C8.96338 8.91172 8.96713 8.61625 8.96387 8.32091C8.95955 7.92469 8.88036 7.84707 8.46113 7.84646C7.00966 7.84427 5.55818 7.84557 4.1067 7.84557C2.93843 7.84557 1.77017 7.84748 0.6019 7.84468C0.0252053 7.84332 -0.142257 7.57751 0.1219 7.0783C0.935195 5.54145 1.75692 4.00876 2.56554 2.46965C2.75532 2.10843 3.04554 1.97222 3.45024 1.97372C5.07867 1.97958 6.70718 1.97624 8.33568 1.9759C8.93958 1.97576 8.96444 1.9506 8.9648 1.35296C8.96494 1.09166 8.96253 0.830218 8.96671 0.568983C8.97365 0.13607 9.11228 0.00183706 9.56324 0.00115499C10.9675 -0.000891241 12.3718 0.000404702 13.7761 0.000404702C15.3573 0.000404702 16.9386 -0.000481996 18.5199 0.000813947C19.0326 0.00122319 19.1637 0.129249 19.1686 0.627505C19.1715 0.911521 19.1693 1.19561 19.17 1.47969C19.1712 1.94146 19.2074 1.97754 19.7018 1.97774C22.2388 1.97856 24.776 1.97788 27.3131 1.97931C27.4421 1.97938 27.578 1.97174 27.6989 2.00618C27.9986 2.09151 28.0849 2.37219 27.911 2.70245C27.3566 3.75523 26.7959 4.80488 26.2374 5.85561C25.9904 6.32031 25.722 6.77587 25.5011 7.25175C25.2942 7.69722 24.9688 7.8616 24.4703 7.85601C22.901 7.83834 21.3315 7.84912 19.762 7.85007C19.1963 7.85041 19.1674 7.87995 19.167 8.43325C19.1668 8.70594 19.172 8.9787 19.1679 9.25133C19.1613 9.68676 19.0261 9.82079 18.5738 9.82168C17.0633 9.82475 15.5528 9.82284 14.0423 9.82291ZM6.5298 6.33429C7.68666 6.33429 8.84352 6.33361 10.0004 6.33464C10.5118 6.33504 10.5327 6.35714 10.5337 6.86311C10.5343 7.21547 10.538 7.5679 10.5327 7.92019C10.5286 8.19138 10.6586 8.31293 10.9403 8.31259C13.018 8.3102 15.0956 8.31034 17.1733 8.31313C17.4759 8.31354 17.5987 8.16724 17.597 7.89106C17.5949 7.55009 17.5969 7.20906 17.5977 6.86809C17.599 6.3495 17.6142 6.33423 18.1592 6.33409C20.048 6.33368 21.9368 6.33273 23.8256 6.336C24.0504 6.33641 24.2332 6.31165 24.3504 6.08377C24.7165 5.37148 25.104 4.66948 25.4743 3.95917C25.6175 3.6845 25.5177 3.52776 25.1975 3.49652C25.0922 3.48629 24.9852 3.49222 24.879 3.49222C22.6124 3.49209 20.3459 3.4927 18.0794 3.49161C17.6411 3.4914 17.5938 3.44557 17.5909 3.02145C17.5887 2.68055 17.5989 2.33951 17.5959 1.99861C17.5923 1.59701 17.5114 1.51864 17.0978 1.51782C16 1.51577 14.9021 1.51748 13.8043 1.51755C12.8953 1.51761 11.9863 1.51639 11.0773 1.51809C10.5905 1.51898 10.5372 1.57368 10.5361 2.0525C10.5354 2.34804 10.5363 2.64358 10.5358 2.93906C10.5351 3.47708 10.5165 3.4957 9.95965 3.49543C8.08265 3.49454 6.20557 3.50457 4.32885 3.48247C3.9245 3.47769 3.70611 3.60818 3.54028 3.95385C3.24389 4.57167 2.90393 5.17013 2.58396 5.77752C2.37286 6.17824 2.47295 6.33191 2.95296 6.33293C4.14524 6.33559 5.33752 6.33389 6.5298 6.33429Z" fill="black"/>
</g>
</svg>
