<svg width="23" height="20" viewBox="0 0 23 20" fill="none" xmlns="http://www.w3.org/2000/svg">
<g id="Group 1000002473">
<path id="Vector" d="M11.5594 19.5859C9.71016 19.5545 7.86044 19.5331 6.01772 19.353C5.14911 19.2681 4.29284 19.1133 3.46664 18.8099C2.29408 18.3793 1.51359 17.5685 1.08458 16.3787C0.732762 15.4031 0.548712 14.3914 0.4114 13.3711C0.101254 11.0662 -0.0564385 8.7501 0.0184226 6.42215C0.0397708 5.75793 0.0714796 5.0929 0.200081 4.43823C0.554234 2.63584 1.68005 1.62065 3.39132 1.19317C4.52967 0.9088 5.69215 0.818525 6.85463 0.736409C9.23191 0.568473 11.6131 0.554353 13.9935 0.629177C15.6988 0.682764 17.4054 0.761697 19.0886 1.07986C19.8474 1.22326 20.5797 1.45468 21.2228 1.90878C22.3553 2.70852 22.7787 3.88731 22.879 5.21517C22.9952 6.75374 23.0517 8.29612 22.9381 9.8378C22.7881 11.8744 22.6365 13.9119 22.0864 15.8908C21.6772 17.3629 20.8239 18.4154 19.3531 18.8876C18.5908 19.1324 17.8084 19.2758 17.0154 19.3563C15.2014 19.5401 13.3801 19.5549 11.5594 19.5859ZM11.5064 18.7825C12.8536 18.7927 14.1995 18.7469 15.5434 18.6606C16.4886 18.5999 17.4324 18.5131 18.3545 18.2708C19.4793 17.9752 20.3082 17.3293 20.7541 16.2127C20.9723 15.6662 21.1387 15.1051 21.2406 14.5264C21.7794 11.4662 21.9555 8.38633 21.6848 5.28658C21.5101 3.2875 20.5479 2.2123 18.615 1.82637C17.0847 1.52082 15.5313 1.44229 13.9792 1.37546C12.0455 1.29218 10.1113 1.32314 8.1781 1.41886C6.88993 1.48263 5.6067 1.58998 4.336 1.8251C2.66389 2.13452 1.73795 2.99017 1.39774 4.58162C1.25463 5.25117 1.22314 5.93703 1.19844 6.62087C1.12665 8.60861 1.19958 10.5911 1.43031 12.5664C1.56329 13.7045 1.73072 14.835 2.10702 15.9249C2.53318 17.1593 3.35295 17.9423 4.601 18.2659C5.12548 18.4019 5.65754 18.4946 6.19443 18.5511C7.96024 18.7367 9.73271 18.7768 11.5064 18.7825Z" fill="black"/>
<path id="Vector_2" d="M15.6349 18.1403C14.9797 18.1549 14.98 18.1548 14.8681 17.6856C14.6563 16.797 14.4167 15.9175 14.1164 15.0539C13.8302 14.231 13.2762 13.8191 12.4268 13.7472C11.7233 13.6877 11.0273 13.7065 10.3276 13.7869C9.64686 13.8652 9.19787 14.2233 8.93907 14.8619C8.62055 15.6478 8.41829 16.4689 8.20128 17.286C8.16923 17.4066 8.14013 17.528 8.10786 17.6486C7.97134 18.1588 7.97072 18.1659 7.43644 18.138C6.93501 18.1118 6.4349 18.0567 5.9333 18.0373C5.71703 18.029 5.6642 17.9277 5.65054 17.7369C5.57545 16.6896 5.48886 15.6431 5.41468 14.5956C5.26359 12.462 5.11364 10.3282 4.97149 8.1939C4.86327 6.56906 4.76786 4.94329 4.66647 3.31798C4.64911 3.03911 4.6343 2.75995 4.61102 2.48154C4.59981 2.34735 4.64478 2.2937 4.78078 2.28566C5.18748 2.26164 5.59401 2.23126 5.99956 2.19237C6.24088 2.16922 6.21914 2.36256 6.24908 2.49659C6.55974 3.88533 6.84689 5.27968 7.17525 6.66402C7.47891 7.94443 7.74135 9.23629 8.17947 10.4818C8.60524 11.6923 9.43617 12.3168 10.6949 12.369C11.3486 12.3962 11.9995 12.4095 12.6524 12.32C13.6808 12.1789 14.3297 11.5843 14.7011 10.6308C15.1597 9.45371 15.4102 8.21601 15.7036 6.99277C16.0578 5.51613 16.3705 4.02907 16.6855 2.54312C16.7441 2.26656 16.8344 2.14932 17.133 2.20157C17.4489 2.25684 17.7744 2.26453 18.0962 2.2731C18.2952 2.27842 18.3508 2.35417 18.3372 2.5529C18.2631 3.63921 18.2026 4.72645 18.1335 5.81312C18.0302 7.43831 17.93 9.06373 17.8169 10.6882C17.6798 12.6583 17.5308 14.6276 17.3867 16.5973C17.3579 16.9912 17.32 17.3846 17.3023 17.7791C17.2947 17.9499 17.2322 18.0159 17.0666 18.0272C16.5276 18.0639 15.9894 18.1117 15.6349 18.1403Z" fill="black"/>
</g>
</svg>
