<svg width="28" height="15" viewBox="0 0 28 15" fill="none" xmlns="http://www.w3.org/2000/svg">
<g id="Group">
<path id="Vector" d="M13.5179 14.9985C9.80912 14.8437 6.38208 14.2443 3.33406 12.3332C2.5532 11.8437 1.82193 11.2172 1.21607 10.5269C-0.410661 8.67325 -0.390563 6.40014 1.18762 4.51052C2.45953 2.98757 4.13491 2.02588 5.98788 1.4066C12.0548 -0.620753 18.0526 -0.55821 23.876 2.26096C24.8383 2.72684 25.7327 3.42862 26.4927 4.18412C28.4944 6.17422 28.4879 8.74531 26.5594 10.8088C24.968 12.5117 22.9052 13.4203 20.7099 14.075C18.3109 14.7904 15.8457 15.0211 13.5179 14.9985ZM13.734 14.0874C16.3954 14.0821 18.7348 13.7847 20.9993 13.0326C22.6822 12.4737 24.2645 11.7275 25.5299 10.4492C27.3146 8.6461 27.3236 6.44423 25.5534 4.63619C24.526 3.58689 23.2745 2.87084 21.9073 2.36737C17.0615 0.58264 12.1557 0.526595 7.22453 1.98515C5.48439 2.49988 3.86953 3.28056 2.56566 4.57376C0.721031 6.40327 0.684127 8.6533 2.56131 10.4532C3.27941 11.1418 4.14196 11.7324 5.03342 12.1865C7.84109 13.6172 10.889 14.0496 13.734 14.0874Z" fill="black"/>
<path id="Vector_2" d="M21.6971 7.89957C21.6173 7.64453 21.5049 7.39447 21.4641 7.1334C21.3609 6.47258 20.9284 6.28716 20.3195 6.19653C18.2901 5.89473 16.3005 6.27149 14.3001 6.47734C13.7362 6.53535 13.1758 6.62621 12.6132 6.69664C11.7459 6.80502 11.1795 7.24456 10.9565 8.10228C10.724 8.99633 10.467 9.88422 10.1043 10.8079C10.0421 10.6285 9.96798 10.4521 9.91991 10.269C9.72399 9.52243 9.5477 8.77076 9.34202 8.02686C9.1374 7.28714 8.66423 6.84168 7.86608 6.73644C6.29612 6.52955 4.72922 6.30096 3.16126 6.07969C2.91304 6.04464 2.66599 6.00125 2.41836 5.96168C2.41436 5.9112 2.41025 5.86085 2.40625 5.81037C3.12001 5.70559 3.83341 5.59896 4.5474 5.49661C5.63079 5.34136 6.71559 5.19516 7.79803 5.03352C8.60429 4.91308 9.14633 4.48189 9.3962 3.69495C9.60905 3.02427 9.85468 2.36369 10.2233 1.69092C10.3954 2.20959 10.6003 2.72026 10.733 3.24856C11.0107 4.35495 11.675 4.96297 12.8465 5.08284C14.5775 5.26002 16.2985 5.54883 18.0323 5.67763C18.8973 5.74191 19.7906 5.60766 20.6517 5.45577C20.9501 5.40309 21.2231 5.05301 21.4445 4.78753C21.5929 4.60953 21.6303 4.34103 21.745 4.04073C21.8306 4.16222 21.8946 4.21362 21.9052 4.27419C22.0766 5.24888 22.7343 5.58074 23.6554 5.6181C24.0305 5.6333 24.4019 5.73924 24.7751 5.80387C24.7749 5.8533 24.7747 5.90273 24.7746 5.95217C24.3445 6.032 23.9165 6.16451 23.484 6.18041C22.6411 6.21139 22.1177 6.55183 21.997 7.41234C21.9742 7.57467 21.8825 7.72761 21.8226 7.88495C21.7809 7.88982 21.739 7.8947 21.6971 7.89957Z" fill="black"/>
<path id="Vector_3" d="M19.643 12.8267C19.5778 12.7818 19.5496 12.7726 19.5474 12.7594C19.3605 11.6096 18.4742 11.4309 17.545 11.4453C16.5727 11.4604 15.5968 11.5623 14.6351 11.7072C14.4014 11.7423 14.1627 12.0654 14.0241 12.3101C13.8608 12.5981 13.804 12.9449 13.5807 13.2605C13.4926 12.9927 13.3799 12.73 13.3216 12.4561C13.2102 11.9319 12.9168 11.6681 12.3641 11.6167C11.7115 11.556 11.0651 11.4321 10.416 11.3355C10.4166 11.2769 10.4172 11.2184 10.4178 11.1598C10.8716 11.095 11.3244 10.9838 11.7794 10.9751C12.6914 10.9577 13.3299 10.647 13.4772 9.67611C13.4878 9.60603 13.5531 9.54418 13.64 9.40088C13.738 9.61833 13.8362 9.77451 13.8797 9.94427C14.0339 10.5459 14.4161 10.8859 15.0394 10.9036C16.0893 10.9336 17.1401 10.9415 18.1905 10.9405C18.8698 10.94 19.2748 10.589 19.4125 9.93011C19.4337 9.82893 19.498 9.73657 19.5632 9.59466C19.6495 9.69619 19.7312 9.74759 19.7376 9.80677C19.8385 10.7435 20.5204 10.8908 21.2884 10.9513C21.7221 10.9856 22.1522 11.0646 22.5838 11.1234C22.5824 11.1747 22.5811 11.226 22.5797 11.2774C22.0928 11.3541 21.6074 11.4804 21.1185 11.4959C20.3533 11.52 19.9227 11.873 19.7698 12.5972C19.755 12.6672 19.6986 12.7286 19.643 12.8267Z" fill="black"/>
<path id="Vector_4" d="M17.6772 10.5915C17.5716 10.2639 17.4464 9.94101 17.3653 9.60764C17.2698 9.21475 17.0288 9.02271 16.6364 8.9669C15.9302 8.86641 15.2256 8.75421 14.5203 8.64676C14.5193 8.58724 14.5185 8.52783 14.5176 8.4683C14.8932 8.41133 15.2678 8.31479 15.6446 8.30516C16.6207 8.28032 17.4328 8.06682 17.5986 6.93038C17.6075 6.86923 17.6839 6.81771 17.7412 6.74658C18.0854 8.29564 19.3344 8.32105 20.5169 8.36364C21.1519 8.3865 21.8011 8.27278 22.4277 8.14387C22.6485 8.09838 22.8507 7.84682 23.0066 7.64747C23.1419 7.47458 23.1998 7.24263 23.3704 6.9797C23.6131 8.47631 24.9336 8.14515 25.9993 8.53955C25.6781 8.61996 25.5089 8.67194 25.3358 8.70304C25.163 8.73414 24.9868 8.74632 24.8115 8.76338C24.1145 8.83091 23.6322 9.13097 23.539 9.87719C23.5239 9.99903 23.4452 10.1131 23.3684 10.2964C23.2856 10.1346 23.2031 10.0401 23.1901 9.93706C23.0807 9.07551 22.5049 8.75549 21.7219 8.78461C20.7116 8.82221 19.6999 8.90482 18.6989 9.04093C18.4836 9.07017 18.2565 9.38242 18.1338 9.61507C17.9773 9.912 17.9212 10.2606 17.8218 10.5867C17.7739 10.5884 17.7255 10.5899 17.6772 10.5915Z" fill="black"/>
</g>
</svg>
