<svg width="28" height="28" viewBox="0 0 28 28" fill="none" xmlns="http://www.w3.org/2000/svg">
<g id="icon_card_brands">
<path id="Vector" d="M28 14.0152C27.9555 21.8432 21.6651 28.0486 13.824 27.9997C6.14709 27.9517 -0.0588289 21.6041 0.000420751 13.8443C0.0569146 6.45156 5.99889 -0.0933288 14.1655 0.0010074C22.1266 0.0929318 27.9826 6.51572 28 14.0152ZM27.6555 13.9907C27.6326 6.42489 21.5189 0.315645 13.9853 0.333079C6.29755 0.350858 0.216062 6.65043 0.331668 14.2168C0.444311 21.5868 6.47689 27.6957 14.0739 27.6675C21.5685 27.6397 27.6783 21.4953 27.6555 13.9907Z" fill="black"/>
<path id="Vector_2" d="M26.6733 14.0034C26.6729 21.0239 20.9942 26.6918 13.9676 26.685C6.97758 26.6783 1.30064 20.9803 1.31056 13.9811C1.32041 6.97567 6.99666 1.31763 14.0066 1.32569C21.025 1.33389 26.6737 6.98745 26.6733 14.0034ZM13.9901 25.5856C20.373 25.5881 25.5607 20.4111 25.5672 14.0323C25.5736 7.61025 20.4279 2.43891 14.018 2.42568C7.61782 2.41252 2.41488 7.59447 2.40978 13.987C2.40461 20.3778 7.6017 25.5831 13.9901 25.5856Z" fill="black"/>
<path id="Vector_3" d="M10.0403 10.2971C9.75372 10.0498 9.52217 9.81187 9.25451 9.62581C8.32285 8.97828 7.38353 8.34135 6.43678 7.71607C6.07873 7.47958 6.05875 7.45642 6.34212 7.12876C6.9858 6.38469 7.73882 5.77526 8.56735 5.24459C8.9316 5.01133 9.21717 5.02387 9.57666 5.23894C10.734 5.9312 11.8164 6.71793 12.7981 7.64399C13.1372 7.96394 13.5104 8.22552 14.135 8.15192C13.616 7.48736 13.1699 6.85051 12.655 6.2754C12.1587 5.72116 11.5874 5.2346 11.0588 4.70855C10.961 4.61118 10.8344 4.44952 10.8578 4.34946C10.8815 4.24775 11.0638 4.14949 11.1946 4.11173C12.3285 3.78441 13.4867 3.63412 14.665 3.73721C14.8996 3.75774 15.1651 3.86049 15.3445 4.01105C17.4615 5.78711 18.7134 8.07674 19.1892 10.7751C19.4966 12.5183 19.4217 14.2749 19.0446 16.0093C18.8744 16.7921 18.6704 17.5674 18.4888 18.3478C18.3907 18.77 18.5834 18.9898 19.0007 18.9814C19.2887 18.9756 19.3358 18.7996 19.346 18.5727C19.3735 17.9598 19.4002 17.94 20.0203 18.0771C21.0283 18.3 21.9149 18.761 22.682 19.4497C22.9571 19.6966 22.9554 19.8479 22.6784 20.0984C21.858 20.8402 20.8968 21.3031 19.8149 21.5153C19.443 21.5882 19.3498 21.4978 19.3453 21.1058C19.3397 20.6063 19.3153 20.581 18.8186 20.5809C15.8104 20.5806 12.8022 20.5745 9.79403 20.5912C9.51431 20.5928 9.22592 20.7173 8.95819 20.8257C8.50073 21.0109 8.1524 21.4462 7.58946 21.397C7.31602 21.373 7.03796 21.3802 6.76341 21.3967C6.54184 21.41 6.41349 21.3233 6.28604 21.1428C5.72413 20.347 5.13521 19.5703 4.57696 18.772C4.47183 18.6217 4.38281 18.3779 4.43373 18.227C4.47258 18.1119 4.74307 18.0177 4.91289 18.0137C5.79647 17.9929 6.68094 17.9982 7.56486 18.0091C7.73042 18.0112 7.9061 18.0551 8.05822 18.1223C8.60359 18.3633 9.13284 18.6429 9.68579 18.8635C9.87298 18.9382 10.1632 18.9588 10.3127 18.861C10.4383 18.7788 10.4953 18.4787 10.4676 18.2922C10.118 15.9386 8.74958 14.3904 6.57753 13.5396C5.85675 13.2573 5.08513 13.1008 4.33114 12.9086C3.89745 12.7981 3.78797 12.6742 3.86417 12.2355C4.04571 11.1902 4.37172 10.1947 4.86404 9.25102C5.03297 8.92728 5.25406 8.80841 5.58813 8.93472C6.62658 9.32737 7.65918 9.73565 8.70005 10.1216C9.03818 10.247 9.39285 10.3305 9.7447 10.4133C9.81325 10.4295 9.90336 10.3539 10.0403 10.2971ZM14.5782 16.4909C14.5791 17.2102 15.1432 17.7855 15.8542 17.7925C16.5696 17.7995 17.1652 17.2012 17.1621 16.4784C17.1592 15.7633 16.5896 15.191 15.8766 15.1866C15.1399 15.182 14.5771 15.7473 14.5782 16.4909Z" fill="black"/>
</g>
</svg>
