<svg width="24" height="24" viewBox="0 0 24 24" fill="none" xmlns="http://www.w3.org/2000/svg">
<g id="Icons_characteristics">
<path id="Vector" d="M12.1846 2.00134C6.62658 1.91028 1.986 6.46953 2.00003 12.0071C2.01359 17.4252 6.56158 21.9704 11.9976 21.9999C17.4536 22.0293 21.9628 17.5578 21.9998 12.0805C22.0376 6.54892 17.6963 2.09147 12.1846 2.00134ZM12.9847 3.77638C16.755 4.1411 19.6986 7.00377 20.0096 10.9634C14.6615 9.11318 9.35181 8.98009 3.7344 11.132C5.11011 5.80033 8.43109 3.33601 12.9847 3.77638ZM10.4605 20.0039C6.75002 19.2432 4.61585 17.0904 4.06734 13.5538C9.08714 13.2115 11.4893 15.6347 10.4605 20.0039ZM11.9999 14.0731C11.1867 14.0731 10.5274 13.4147 10.5274 12.6026C10.5274 11.7905 11.1867 11.132 11.9999 11.132C12.8131 11.132 13.4724 11.7905 13.4724 12.6026C13.4724 13.4147 12.8131 14.0731 11.9999 14.0731ZM13.4953 19.9895C12.7186 15.582 15.08 13.2246 19.9063 13.5898C19.6687 16.8933 17.2142 19.3436 13.4953 19.9895Z" fill="#989898"/>
</g>
</svg>
