<svg width="24" height="24" viewBox="0 0 24 24" fill="none" xmlns="http://www.w3.org/2000/svg">
<path d="M23.9972 10.3578C23.9969 10.0036 23.8173 9.81749 23.4642 9.81394C22.8629 9.80801 22.2613 9.80698 21.6599 9.81438C21.2888 9.81897 21.1235 9.99216 21.1185 10.3738C21.1121 10.8799 21.1167 11.3861 21.1166 11.8924C21.1166 12.001 21.1166 12.1095 21.1166 12.2299C20.9435 12.2299 20.8006 12.2299 20.6462 12.2299C20.6412 12.1536 20.6338 12.0922 20.6338 12.0306C20.6346 10.9808 20.6151 9.93043 20.645 8.88137C20.669 8.04117 19.8999 7.35062 19.1527 7.3675C17.8255 7.39754 16.4972 7.37593 15.1693 7.37593C15.0795 7.37593 14.9898 7.37593 14.8955 7.37593C14.8955 6.87679 14.8955 6.41435 14.8955 5.93415C15.4944 5.93415 16.0796 5.93622 16.6646 5.93341C17.1084 5.93134 17.2836 5.75119 17.2868 5.29941C17.2909 4.7301 17.295 4.16064 17.2949 3.59133C17.2947 3.25013 17.1103 3.00588 16.8122 3.005C14.5705 2.99819 12.3289 2.99863 10.0872 3.00455C9.80466 3.00529 9.61127 3.21209 9.60937 3.48149C9.60469 4.13799 9.60688 4.79449 9.60835 5.45099C9.60893 5.68857 9.73947 5.83423 9.95333 5.89996C10.0481 5.92897 10.153 5.93223 10.2533 5.93282C10.8286 5.93563 11.404 5.93415 11.9811 5.93415C11.9811 6.42989 11.9811 6.89795 11.9811 7.37578C11.1967 7.37578 10.4315 7.37297 9.66638 7.37682C9.23296 7.37904 8.85976 7.53092 8.57179 7.86857C8.00593 8.53217 7.43115 9.18823 6.88152 9.8653C6.64032 10.1625 6.40147 10.3794 5.98588 10.306C5.78927 10.2712 5.57848 10.3257 5.37836 10.3026C4.63006 10.216 3.77521 11.1388 3.8385 11.8511C3.87797 12.2952 3.84581 12.7458 3.84581 13.1974C3.51238 13.1974 3.20979 13.1974 2.90018 13.1974C2.90018 12.4121 2.89316 11.6541 2.90325 10.8962C2.90793 10.5479 2.70518 10.3085 2.35727 10.307C1.76364 10.3046 1.17 10.3058 0.576369 10.3064C0.168529 10.3069 0.000422954 10.4793 0.000276774 10.8975C-1.55841e-05 12.2499 -0.000161763 13.6024 0.000276774 14.9548C0.000715312 16.1332 0.000422954 17.3116 0.0036389 18.4901C0.00466215 18.8653 0.181393 19.0406 0.545671 19.0409C1.15495 19.0413 1.76422 19.0427 2.37335 19.0403C2.67857 19.0391 2.85706 18.8807 2.87255 18.5712C2.88951 18.2319 2.88264 17.8915 2.88366 17.5516C2.88498 17.0871 2.88395 16.6224 2.88395 16.1542C3.21534 16.1542 3.52276 16.1542 3.84567 16.1542C3.84567 16.6365 3.84538 17.1019 3.84567 17.5673C3.84625 18.3049 4.57408 19.0402 5.30381 19.0412C5.63183 19.0416 5.96015 19.0505 6.28788 19.0404C6.44386 19.0357 6.54209 19.0902 6.64354 19.2111C7.2898 19.9815 7.94439 20.7448 8.59971 21.5073C8.87833 21.8315 9.25035 21.9696 9.66039 21.9711C11.6627 21.9783 13.6653 21.9773 15.6676 21.972C16.0956 21.9708 16.4661 21.8186 16.7743 21.4987C17.8926 20.3389 19.0166 19.1849 20.1442 18.0345C20.4753 17.6967 20.6538 17.3082 20.6345 16.828C20.6254 16.603 20.6329 16.3774 20.6329 16.1482C20.812 16.1482 20.9504 16.1482 21.1164 16.1482C21.1164 16.2444 21.1164 16.3296 21.1164 16.4147C21.1164 16.9447 21.1132 17.4746 21.1178 18.0046C21.121 18.3891 21.3008 18.565 21.6813 18.5659C22.267 18.5674 22.8529 18.5674 23.4387 18.5659C23.8016 18.565 23.9995 18.3678 23.9995 17.9972C24.0004 15.4512 23.9995 12.9046 23.9972 10.3578ZM11.541 19.141C11.5267 19.1343 11.5123 19.1276 11.498 19.121C11.9583 17.7202 12.4186 16.3196 12.8889 14.8881C12.0897 14.8881 11.3156 14.8881 10.4959 14.8881C10.6845 14.5005 10.8525 14.1504 11.0245 13.8025C11.6201 12.5979 12.2156 11.3932 12.8174 10.1918C12.8515 10.1241 12.9423 10.0413 13.0076 10.0404C13.7338 10.0301 14.4603 10.0343 15.1867 10.0357C15.2067 10.0357 15.2267 10.0472 15.2722 10.0611C14.4814 11.3433 13.6979 12.6134 12.8949 13.9153C13.6989 13.9153 14.4659 13.9153 15.2902 13.9153C14.0209 15.6847 12.7809 17.4127 11.541 19.141Z" fill="#989898"/>
</svg>
