<svg width="28" height="28" viewBox="0 0 28 28" fill="none" xmlns="http://www.w3.org/2000/svg">
<g id="icon_card_brands">
<g id="Vector">
<path d="M2.31733 13.824C2.91111 13.633 3.52212 13.5351 4.15034 13.5303C4.17116 13.5303 4.18637 13.5209 4.19598 13.5021C4.44663 13.0092 4.71269 12.5245 4.99417 12.048C5.01219 12.018 5.03862 12.003 5.07345 12.003L6.5437 12.0024C6.54801 12.0024 6.55224 12.0035 6.55599 12.0056C6.55973 12.0077 6.56285 12.0108 6.56504 12.0145C6.56722 12.0182 6.5684 12.0224 6.56845 12.0267C6.5685 12.031 6.56743 12.0353 6.56533 12.039C6.15692 12.7565 5.80698 13.4705 5.51549 14.1808C5.28486 14.7433 5.05203 15.3387 4.817 15.9669C4.80939 15.9869 4.79478 15.997 4.77315 15.997H3.26086L3.25563 15.9957L3.2515 15.9921L3.24929 15.987L3.24945 15.9813C3.42002 15.4108 3.61961 14.837 3.84824 14.26C3.85625 14.2392 3.84924 14.2286 3.82722 14.2282C3.33113 14.2218 2.90971 14.2763 2.56297 14.3916C2.30511 14.4772 2.10612 14.634 1.96598 14.8618C1.77619 15.1709 1.63105 15.5379 1.53055 15.9627C1.52534 15.9855 1.51093 15.997 1.4873 15.997H0.0182512C0.0154007 15.997 0.0125827 15.9964 0.0100282 15.9951C0.00747373 15.9938 0.00525553 15.9919 0.0035558 15.9896C0.00185607 15.9872 0.000723252 15.9845 0.00025011 15.9816C-0.000223033 15.9787 -2.29561e-05 15.9757 0.000833992 15.9729C0.0640966 15.7639 0.129561 15.5523 0.197228 15.3381C0.561188 14.1922 1.0737 13.1019 1.73475 12.0673C1.7876 11.985 1.83084 12.0024 1.91613 12.0024C2.34255 12.004 2.78939 12.0032 3.25665 12C3.26015 12 3.26357 12.001 3.26658 12.0028C3.26959 12.0045 3.27207 12.0071 3.27378 12.0101C3.27548 12.0132 3.27636 12.0166 3.2763 12.0201C3.27625 12.0236 3.27527 12.027 3.27347 12.03C2.91231 12.6118 2.58819 13.2038 2.30111 13.806C2.2923 13.8244 2.29771 13.8304 2.31733 13.824Z" fill="black"/>
<path d="M14.7082 14.4744L14.7092 14.4767L14.7112 14.4782L14.7137 14.4785L14.716 14.4774C15.5508 13.6839 16.3278 12.8698 17.0469 12.0354C17.0558 12.0252 17.0666 12.0171 17.0788 12.0115C17.0909 12.0059 17.104 12.003 17.1172 12.003L18.8289 12.0018C18.8326 12.0018 18.8363 12.0029 18.8394 12.005C18.8425 12.0071 18.8449 12.01 18.8464 12.0135C18.8479 12.0169 18.8483 12.0207 18.8476 12.0244C18.847 12.0281 18.8453 12.0315 18.8427 12.0342L14.9983 15.9663C14.9888 15.976 14.9774 15.9837 14.9648 15.989C14.9522 15.9942 14.9387 15.9969 14.925 15.9969H13.3635C13.3514 15.9969 13.3448 15.9907 13.3436 15.9783L13.0469 12.0348C13.0466 12.0308 13.0471 12.0267 13.0485 12.0228C13.0498 12.019 13.0519 12.0154 13.0547 12.0124C13.0574 12.0094 13.0608 12.0071 13.0645 12.0054C13.0683 12.0038 13.0723 12.003 13.0764 12.003H14.4469C14.469 12.003 14.481 12.014 14.483 12.036L14.7082 14.4744Z" fill="black"/>
<path d="M25.2186 13.2402C25.0836 13.7299 24.8982 14.2612 24.6624 14.8342C24.5435 15.1243 24.7465 15.2186 24.9927 15.2186C25.9709 15.2186 26.9665 15.2182 27.9795 15.2174C27.9834 15.2173 27.9872 15.2184 27.9905 15.2205C27.9938 15.2225 27.9965 15.2256 27.9981 15.2292C27.9998 15.2328 28.0003 15.2368 27.9998 15.2408C27.9993 15.2448 27.9976 15.2485 27.9951 15.2516L27.3891 15.9717C27.3825 15.9796 27.3743 15.9859 27.3649 15.9903C27.3556 15.9947 27.3454 15.9969 27.335 15.9969C26.2536 15.9953 25.1649 15.9963 24.069 15.9999C23.846 16.0007 23.6622 15.9763 23.5177 15.9267C23.1447 15.7987 23.0726 15.4642 23.2114 15.1363C23.6586 14.0772 24.0034 13.041 24.2456 12.0276C24.2473 12.0205 24.2514 12.0143 24.257 12.0098C24.2627 12.0053 24.2697 12.0029 24.2768 12.003L26.0552 12.0018C26.1076 12.0018 26.1124 12.017 26.0696 12.0474C25.6648 12.3333 25.3549 12.7465 25.2186 13.2402Z" fill="black"/>
<path d="M9.659 15.2228C9.06081 15.2056 8.58394 15.2174 8.22839 15.2582C7.92369 15.2935 7.64701 15.427 7.39837 15.6588C7.30287 15.7477 7.2314 15.8708 7.14792 15.9747C7.13591 15.9895 7.12029 15.9969 7.10107 15.9969H5.66385C5.66062 15.997 5.65744 15.9961 5.65469 15.9944C5.65194 15.9928 5.64974 15.9903 5.64834 15.9874C5.64695 15.9845 5.64643 15.9812 5.64683 15.978C5.64724 15.9748 5.64856 15.9718 5.65064 15.9693C5.9141 15.645 6.17896 15.3197 6.44522 14.9934C7.08546 14.2094 7.80817 13.5189 8.61337 12.9219C8.99494 12.6388 9.34409 12.4368 9.6608 12.3159C10.3911 12.036 11.2566 12.0006 12.0512 12.0036C12.0545 12.0035 12.0578 12.0043 12.0607 12.0058C12.0636 12.0073 12.0662 12.0096 12.068 12.0123C12.0699 12.0151 12.071 12.0183 12.0713 12.0216C12.0716 12.0249 12.0711 12.0282 12.0698 12.0312C11.5192 13.3285 11.0634 14.6396 10.7022 15.9645C10.6966 15.9861 10.6826 15.9969 10.6602 15.9969H9.50645C9.47682 15.9969 9.46641 15.9827 9.47522 15.9543L9.68423 15.2582C9.69143 15.2354 9.68303 15.2236 9.659 15.2228ZM9.95389 14.4871C10.1581 13.9339 10.3869 13.409 10.6452 12.8841C10.656 12.862 10.649 12.8514 10.6242 12.8522C10.1034 12.8721 9.67702 13.0787 9.27883 13.4342C8.88323 13.787 8.53929 14.1395 8.247 14.4919C8.24504 14.4941 8.24377 14.4969 8.24335 14.4999C8.24294 14.5029 8.24339 14.5059 8.24466 14.5087C8.24593 14.5114 8.24796 14.5137 8.25051 14.5153C8.25305 14.5169 8.25601 14.5177 8.25902 14.5177L9.91185 14.5159C9.92102 14.5159 9.92995 14.5131 9.93747 14.508C9.94498 14.5028 9.95071 14.4955 9.95389 14.4871Z" fill="black"/>
<path d="M20.7291 15.224C20.3463 15.2112 19.973 15.2158 19.609 15.2378C19.2282 15.2606 18.8931 15.3671 18.6036 15.5573C18.4421 15.6636 18.3225 15.8228 18.1976 15.9705C18.1906 15.9788 18.182 15.9855 18.1722 15.99C18.1625 15.9946 18.1519 15.9969 18.1412 15.9969L16.725 15.9975C16.6501 15.9975 16.6437 15.9765 16.7057 15.9345C16.7398 15.9117 16.773 15.8846 16.8054 15.8534C17.6899 15.0014 18.5434 14.1625 19.3658 13.3369C19.8583 12.842 20.3616 12.406 21.0234 12.2162C21.6859 12.0264 22.3555 12.015 23.0576 12.0012C23.074 12.0008 23.0798 12.0086 23.075 12.0246C22.6871 13.3531 22.2284 14.6708 21.6991 15.9777C21.6968 15.9834 21.6928 15.9882 21.6875 15.9916C21.6823 15.9951 21.6761 15.9969 21.6697 15.9969H20.448C20.4446 15.997 20.4411 15.9961 20.4381 15.9944C20.435 15.9928 20.4324 15.9903 20.4305 15.9873C20.4286 15.9844 20.4274 15.9809 20.4271 15.9774C20.4268 15.9738 20.4274 15.9702 20.4288 15.9669L20.7417 15.2438C20.7426 15.2417 20.7429 15.2394 20.7427 15.2371C20.7425 15.2348 20.7418 15.2326 20.7405 15.2306C20.7393 15.2287 20.7376 15.2271 20.7356 15.2259C20.7337 15.2248 20.7314 15.2241 20.7291 15.224ZM21.0715 14.4624L21.6402 12.8907C21.6502 12.863 21.6404 12.8504 21.6108 12.8528C21.1475 12.8897 20.7457 13.0789 20.4054 13.4204C20.041 13.7856 19.6917 14.1443 19.3574 14.4967C19.3405 14.5143 19.3444 14.5229 19.3688 14.5225C19.8953 14.5133 20.4346 14.5127 20.9868 14.5207C21.0292 14.5215 21.0574 14.5021 21.0715 14.4624Z" fill="black"/>
</g>
</g>
</svg>
