<svg width="28" height="28" viewBox="0 0 28 28" fill="none" xmlns="http://www.w3.org/2000/svg">
<g id="icon_card_brands" clip-path="url(#clip0_5069_4760)">
<path id="Vector" d="M14.0926 28C11.9612 27.9862 9.98057 27.8723 8.02797 27.3992C4.66696 26.5847 2.4786 24.4985 1.35755 21.2154C0.799101 19.5801 0.491522 17.8923 0.284052 16.1796C0.0579159 14.3141 -0.052061 12.4432 0.0239122 10.5656C0.0852615 9.04656 0.299271 7.54871 0.821453 6.11203C1.68403 3.73893 3.32702 2.151 5.62905 1.23058C7.05851 0.659045 8.55158 0.37448 10.0726 0.20456C12.0299 -0.014133 13.9918 -0.0435168 15.9557 0.0506559C17.9298 0.14531 19.8824 0.377009 21.7748 1.00491C25.0676 2.09729 27.0031 4.38573 27.6652 7.80714C28.0477 9.7832 28.0609 11.776 27.9101 13.7757C27.7847 15.4383 27.6142 17.0946 27.2796 18.7298C26.9272 20.4525 26.416 22.1155 25.4774 23.6153C24.2062 25.6467 22.3332 26.7917 20.0754 27.3721C18.0656 27.8884 16.0149 27.9849 14.0926 28ZM13.6033 26.7597C15.7636 26.7598 17.5535 26.6672 19.3035 26.1863C21.1384 25.6821 22.6529 24.7128 23.7131 23.0812C24.3999 22.0241 24.8446 20.8593 25.1499 19.6421C25.8554 16.8295 26.0999 13.9634 26.0336 11.0696C26.0045 9.79669 25.8465 8.53631 25.4912 7.30701C24.8093 4.94643 23.3611 3.2966 21.0928 2.39185C19.7296 1.84825 18.3068 1.58728 16.857 1.45999C14.9612 1.29345 13.0637 1.29116 11.1671 1.45807C9.81043 1.57753 8.47703 1.80875 7.1912 2.28479C5.07144 3.06972 3.56148 4.48833 2.75479 6.64034C2.25496 7.97393 2.03988 9.36773 1.97615 10.7833C1.88639 12.7742 1.97508 14.7601 2.25306 16.7345C2.4723 18.2923 2.78677 19.8257 3.3596 21.2984C4.36128 23.8738 6.15408 25.5304 8.81505 26.2175C10.5068 26.6543 12.2283 26.7651 13.6033 26.7597Z" fill="black"/>
<path id="Vector_2" d="M14.0067 2.77686C15.619 2.80106 17.2189 2.90523 18.7816 3.36598C21.7034 4.2275 23.4029 6.21006 24.0323 9.18325C24.4187 11.0084 24.3876 12.8501 24.2223 14.6974C24.0903 16.1729 23.8661 17.6295 23.4175 19.0428C22.8604 20.798 22.0062 22.3608 20.5201 23.4963C19.4809 24.2903 18.2945 24.7386 17.0234 24.9616C14.9029 25.3337 12.7802 25.3257 10.6683 24.9035C7.85002 24.3399 5.94129 22.662 4.87279 19.9766C4.29889 18.5343 4.00296 17.0255 3.81797 15.49C3.65425 14.131 3.57958 12.7665 3.6489 11.3988C3.73391 9.71974 4.03364 8.09075 4.88159 6.61229C5.92821 4.78748 7.55754 3.78795 9.52428 3.26952C10.995 2.88175 12.4972 2.79733 14.0067 2.77686ZM19.0164 4.74051C19.0164 4.95547 19.0144 5.12431 19.0168 5.29315C19.0491 7.59303 19.0944 9.89292 19.1095 12.1929C19.1164 13.2551 18.9319 14.2959 18.5244 15.2787C17.3601 18.0871 16.0774 20.8397 14.6821 23.5384C14.5086 23.8741 14.5731 24.0008 14.94 23.9762C15.5609 23.9344 16.1845 23.895 16.7989 23.8012C18.1323 23.5976 19.3395 23.0902 20.3442 22.154C21.4323 21.1403 22.076 19.8539 22.4685 18.4394C23.2021 15.7958 23.3935 13.1032 23.0208 10.3821C22.8416 9.07426 22.4319 7.8393 21.6392 6.76222C20.9666 5.84843 20.1001 5.19512 19.0164 4.74051ZM13.4936 23.981C13.4017 23.8069 13.322 23.6697 13.2548 23.5266C12.079 21.0234 10.896 18.5234 9.73365 16.0138C9.18555 14.8304 8.93266 13.5744 8.94693 12.2637C8.97226 9.91676 8.99128 7.56967 9.0128 5.22258C9.01351 5.14261 9.01292 5.06277 9.01292 4.95451C7.60569 5.48125 6.55526 6.36662 5.87126 7.68648C5.20058 8.98081 4.92451 10.3812 4.88742 11.82C4.85781 12.9664 4.90478 14.119 4.99014 15.2633C5.0975 16.703 5.40163 18.1087 5.93677 19.4542C6.5209 20.9228 7.38776 22.1632 8.75278 22.9954C10.1128 23.8246 11.6216 24.0412 13.17 24.0841C13.27 24.0871 13.3722 24.0216 13.4936 23.981ZM10.3961 4.42632C10.4124 4.49545 10.4191 4.54049 10.4335 4.58276C10.6759 5.29302 10.9266 6.00052 11.1611 6.71356C11.9991 9.26189 12.9967 11.7566 13.6651 14.3619C13.6857 14.4422 13.7196 14.5239 13.7662 14.5916C13.9015 14.7878 14.1632 14.7626 14.2538 14.54C14.4836 13.9757 14.7271 13.4156 14.9247 12.8396C15.6977 10.5857 16.4556 8.32642 17.2179 6.06868C17.3999 5.52966 17.5779 4.98931 17.7658 4.42572C15.291 4.01579 12.8538 4.00857 10.3961 4.42632Z" fill="black"/>
</g>
<defs>
<clipPath id="clip0_5069_4760">
<rect width="28" height="28" fill="white"/>
</clipPath>
</defs>
</svg>
