<svg width="28" height="12" viewBox="0 0 28 12" fill="none" xmlns="http://www.w3.org/2000/svg">
<g id="Group 8">
<path id="Vector" d="M0.000685714 6.0874C0.00232651 5.49997 0.133963 5.05248 0.358677 4.63222C0.488076 4.39013 0.619041 4.15003 0.818099 3.95563C0.946081 3.83062 1.04587 3.67438 1.17684 3.55345C1.38678 3.35951 1.60725 3.17658 1.83241 3.00157C2.02602 2.85117 2.2253 2.70531 2.4351 2.58077C2.76155 2.38698 3.09403 2.2022 3.43338 2.03373C3.759 1.87202 4.09245 1.72501 4.43001 1.5917C4.76287 1.46023 5.10423 1.35091 5.44357 1.2376C5.70677 1.14974 5.97049 1.06181 6.23801 0.989732C6.64732 0.879493 7.05863 0.776101 7.47182 0.682479C7.85942 0.594704 8.24866 0.510775 8.64058 0.448001C9.19741 0.358764 9.75618 0.279451 10.3163 0.216292C10.8761 0.153134 11.4381 0.110208 11.9998 0.0668972C13.0355 -0.0130315 14.0728 -0.0101082 15.1101 0.0178937C15.5102 0.0286637 15.9103 0.049896 16.3097 0.0786673C16.7475 0.110208 17.1852 0.148595 17.6216 0.197753C18.0296 0.243756 18.4363 0.303068 18.8424 0.365149C19.213 0.421845 19.5836 0.481157 19.9511 0.555547C20.3491 0.636091 20.7449 0.729406 21.1391 0.828336C21.4961 0.917957 21.8508 1.01804 22.2044 1.12182C22.5126 1.21236 22.8207 1.30545 23.1232 1.41422C23.3848 1.50823 23.6399 1.62255 23.8955 1.73378C24.1757 1.85572 24.4616 1.96772 24.7297 2.11404C25.1175 2.32575 25.4968 2.55546 25.8694 2.79463C26.1143 2.95179 26.3562 3.12134 26.5721 3.31736C26.889 3.60522 27.1874 3.91294 27.4309 4.27719C27.6742 4.6413 27.8539 5.0294 27.9462 5.45751C28.0147 5.77522 28.0151 6.09709 27.9629 6.42219C27.9076 6.7676 27.7963 7.08885 27.6373 7.39449C27.5138 7.63205 27.3603 7.84722 27.1905 8.05369C26.8753 8.43703 26.5146 8.76559 26.1151 9.04907C25.8647 9.22677 25.6138 9.40748 25.347 9.55634C24.9496 9.77812 24.5438 9.98644 24.1306 10.1751C23.7431 10.3522 23.3442 10.5043 22.945 10.652C22.6654 10.7554 22.3772 10.8337 22.0923 10.9217C21.8939 10.9829 21.6961 11.0467 21.4956 11.1001C21.2321 11.1701 20.967 11.2342 20.7013 11.2945C20.4359 11.3546 20.1697 11.4121 19.9022 11.4613C19.5666 11.5231 19.2299 11.5787 18.8928 11.6308C18.5203 11.6883 18.1473 11.7443 17.7733 11.7906C17.4205 11.8343 17.0667 11.871 16.7125 11.899C16.3002 11.9315 15.8872 11.9628 15.4739 11.974C14.814 11.992 14.1537 11.9963 13.4935 11.9996C13.1739 12.0012 12.8537 11.9957 12.5344 11.9786C12.0349 11.952 11.5354 11.9203 11.037 11.8767C10.6072 11.839 10.1788 11.7839 9.75028 11.7318C9.48559 11.6996 9.22113 11.6635 8.95793 11.6206C8.64998 11.5706 8.34151 11.5209 8.03677 11.4539C7.5631 11.3497 7.09063 11.2384 6.62107 11.1164C6.19647 11.0061 5.77494 10.8825 5.35504 10.7544C5.16404 10.6962 4.98072 10.6116 4.79307 10.5413C4.66136 10.492 4.52435 10.4557 4.3963 10.3981C3.94702 10.1958 3.49729 9.99398 3.05443 9.77743C2.81606 9.66088 2.58799 9.52033 2.36104 9.38063C1.97643 9.14392 1.61933 8.86636 1.28267 8.56257C1.06288 8.36425 0.858448 8.1487 0.695413 7.89606C0.558108 7.6832 0.399995 7.4805 0.291628 7.25279C0.102862 6.85638 -0.00990487 6.43312 0.000685714 6.0874ZM14.2276 11.2993C14.7314 11.2795 15.31 11.2618 15.888 11.2321C16.28 11.212 16.6718 11.1812 17.0626 11.1438C17.4823 11.1035 17.9017 11.0564 18.3196 11.0001C18.6423 10.9565 18.9629 10.896 19.2837 10.8395C19.6141 10.7813 19.9457 10.7276 20.2734 10.6557C20.6639 10.5699 21.0532 10.4759 21.4387 10.3689C21.8591 10.2522 22.2766 10.1228 22.6915 9.98698C22.9907 9.88897 23.289 9.78381 23.5784 9.65904C23.9195 9.5121 24.2545 9.34863 24.5846 9.17708C24.8327 9.04815 25.0717 8.89983 25.3097 8.75143C25.5003 8.63266 25.6896 8.50965 25.8677 8.37233C26.0398 8.23963 26.2024 8.09223 26.3588 7.94007C26.5141 7.7889 26.6767 7.63851 26.7999 7.46103C26.9618 7.22779 27.1041 6.98085 27.2061 6.70606C27.3394 6.34665 27.3625 5.98208 27.2995 5.61713C27.2414 5.28019 27.0932 4.9697 26.8958 4.69169C26.7806 4.52929 26.6537 4.37489 26.5231 4.22519C26.4315 4.12018 26.331 4.02118 26.2236 3.93371C26.0152 3.76408 25.804 3.59722 25.585 3.44275C25.3589 3.28328 25.1305 3.12319 24.8879 2.99349C24.5381 2.80647 24.1764 2.64277 23.8164 2.47676C23.5668 2.36167 23.3149 2.25005 23.0581 2.15389C22.7736 2.04742 22.484 1.95449 22.1936 1.86633C21.7924 1.74455 21.3897 1.62785 20.9852 1.51846C20.7151 1.44546 20.4418 1.38368 20.1679 1.32668C19.9066 1.27229 19.6428 1.23052 19.3801 1.18328C19.1355 1.13936 18.8916 1.09051 18.6461 1.05304C18.4146 1.01766 18.1817 0.991962 17.9488 0.966114C17.4798 0.914034 17.0112 0.854107 16.5409 0.817412C16.0582 0.779717 15.5739 0.75633 15.0899 0.743945C14.5386 0.729867 13.9868 0.728252 13.4353 0.733637C12.9879 0.738022 12.5405 0.7561 12.0935 0.776717C11.7716 0.791564 11.4497 0.813873 11.1289 0.844798C10.7129 0.884878 10.2976 0.934343 9.88267 0.984654C9.6443 1.01358 9.40639 1.04858 9.16937 1.08751C8.89409 1.13274 8.61978 1.18451 8.34532 1.23498C8.08406 1.28298 7.82093 1.32299 7.56258 1.38461C7.19437 1.47238 6.8293 1.57462 6.46385 1.67432C6.17775 1.75232 5.88987 1.82564 5.60855 1.91949C5.28113 2.02865 4.95738 2.15089 4.63697 2.28036C4.30732 2.4136 3.97611 2.54661 3.65936 2.70862C3.29756 2.89364 2.94964 3.10803 2.59829 3.3142C2.26946 3.50714 1.97285 3.74654 1.69443 4.00948C1.44332 4.24665 1.20749 4.49883 1.03439 4.80469C0.952272 4.94986 0.861357 5.09364 0.805346 5.24988C0.684226 5.58775 0.63612 5.93631 0.688924 6.30018C0.750081 6.72221 0.931985 7.08462 1.17728 7.41534C1.30773 7.59112 1.45711 7.75475 1.61388 7.9063C1.81332 8.09908 2.02229 8.28302 2.23962 8.45395C2.41392 8.59104 2.60388 8.70805 2.7922 8.8249C2.98969 8.94745 3.19106 9.06392 3.39541 9.17385C3.53585 9.24939 3.68449 9.30878 3.82911 9.37625C4.00586 9.45871 4.17904 9.55057 4.35945 9.62319C4.61176 9.72473 4.86937 9.81243 5.12474 9.9059C5.33162 9.98167 5.53561 10.0681 5.74622 10.1307C6.16947 10.2565 6.59444 10.3778 7.02239 10.4852C7.43609 10.5892 7.85315 10.6804 8.27118 10.7643C8.67086 10.8447 9.07226 10.9194 9.4756 10.9764C9.9292 11.0405 10.3851 11.0892 10.8412 11.1313C11.3954 11.1825 11.9502 11.2321 12.5058 11.2598C13.0541 11.2872 13.6036 11.2863 14.2276 11.2993Z" fill="black"/>
<path id="Vector_2" d="M14.1918 10.57C13.4108 10.546 12.6296 10.5288 11.8489 10.4955C11.4501 10.4784 11.0516 10.4393 10.6543 10.3978C10.1785 10.3481 9.70343 10.2901 9.22924 10.2262C8.97238 10.1917 8.71806 10.1372 8.46254 10.0923C8.23536 10.0525 8.00744 10.0169 7.78101 9.973C7.59448 9.93684 7.40907 9.8943 7.22434 9.84938C6.92832 9.77737 6.63201 9.70606 6.33816 9.62536C6.02492 9.53936 5.70809 9.46066 5.40395 9.34711C4.77903 9.11371 4.15463 8.87885 3.56276 8.55913C3.14883 8.33558 2.75198 8.08718 2.39339 7.78138C2.20537 7.62107 2.05457 7.41513 1.88117 7.23565C1.74602 7.0958 1.66219 6.92448 1.57799 6.75239C1.4348 6.45975 1.39527 6.15142 1.42957 5.82579C1.46038 5.53315 1.5539 5.26467 1.70948 5.02519C1.89534 4.73902 2.11132 4.47784 2.3781 4.26175C2.69149 4.00796 3.01302 3.76979 3.36951 3.58432C3.62063 3.45369 3.86735 3.31315 4.12376 3.19468C4.37398 3.07898 4.63285 2.98297 4.88986 2.88342C5.07057 2.8135 5.253 2.74757 5.43721 2.68818C5.69273 2.60579 5.94937 2.52655 6.20772 2.45432C6.51857 2.36739 6.8304 2.28315 7.14431 2.20915C7.43794 2.13999 7.7341 2.08144 8.03056 2.02613C8.31315 1.97336 8.59694 1.92705 8.88117 1.88443C9.30956 1.82019 9.73751 1.74842 10.168 1.7038C10.7784 1.64049 11.3908 1.59464 12.0029 1.54894C13.0453 1.47117 14.0895 1.47656 15.1333 1.50302C15.6975 1.51733 16.2618 1.5531 16.8247 1.59803C17.3282 1.63818 17.8303 1.70034 18.3321 1.75996C18.6664 1.79965 19.0005 1.84389 19.3324 1.90082C19.6888 1.9619 20.0433 2.03567 20.3969 2.11206C20.8036 2.19984 21.2145 2.27515 21.6127 2.39431C22.2264 2.57802 22.8383 2.77434 23.4369 3.00397C23.842 3.15937 24.228 3.37138 24.6132 3.5767C24.8592 3.70779 25.092 3.86672 25.3238 4.02397C25.6261 4.22906 25.8887 4.48484 26.1178 4.7714C26.3098 5.01157 26.4583 5.28921 26.532 5.58977C26.6435 6.0448 26.575 6.48268 26.349 6.89894C26.1403 7.28312 25.8459 7.58876 25.5196 7.85277C25.2176 8.09702 24.8804 8.29865 24.5457 8.49528C24.1325 8.73799 23.698 8.93785 23.2484 9.10117C23.0314 9.18002 22.8196 9.27449 22.6011 9.3485C22.3642 9.42881 22.1231 9.49689 21.8822 9.56413C21.5946 9.64436 21.307 9.72575 21.0164 9.79276C20.62 9.88422 20.2222 9.971 19.8224 10.0443C19.3797 10.1255 18.9354 10.2 18.4895 10.2576C17.9284 10.3299 17.3659 10.4002 16.8019 10.4385C16.0274 10.4911 15.251 10.5133 14.4754 10.5473C14.3813 10.5514 14.2869 10.5478 14.1926 10.5478C14.192 10.5551 14.192 10.5625 14.1918 10.57ZM6.98978 5.53692C6.91288 5.548 6.83524 5.55084 6.76223 5.57131C6.46152 5.65539 6.21592 5.83986 6.0094 6.06865C5.733 6.3749 5.50807 6.71585 5.39821 7.13172C5.32154 7.4219 5.31318 7.70969 5.39761 7.98778C5.47838 8.25373 5.65902 8.46989 5.8539 8.65906C6.09174 8.88992 6.37261 9.04786 6.70764 9.07355C6.96039 9.09294 7.21136 9.08425 7.44935 8.97993C7.58613 8.91993 7.72344 8.85969 7.855 8.78876C7.99596 8.71284 8.13699 8.6336 8.26631 8.5389C8.41667 8.42882 8.55606 8.30227 8.6971 8.17911C8.79771 8.09133 8.89705 8.0014 8.98998 7.90524C9.08276 7.80923 9.16241 7.69976 9.25542 7.60399C9.48863 7.36382 9.6912 7.09857 9.87422 6.81693C9.94515 6.70777 10.0069 6.59215 10.0774 6.4826C10.2129 6.27197 10.3518 6.06365 10.489 5.85409C10.5845 5.70816 10.672 5.57184 10.8823 5.57461C11.1224 5.57777 11.3629 5.53738 11.6036 5.51961C11.6654 5.51507 11.7288 5.51984 11.7904 5.52807C11.8883 5.54115 11.9905 5.58815 12.0814 5.56992C12.1754 5.55107 12.2854 5.49199 12.3399 5.41437C12.4665 5.23413 12.4858 5.0215 12.4057 4.81071C12.3802 4.74363 12.3397 4.67178 12.286 4.62885C12.1156 4.49238 11.7412 4.568 11.6588 4.86702C11.6393 4.93803 11.6303 5.03365 11.5825 5.06904C11.5313 5.10689 11.4401 5.08973 11.3661 5.09135C11.2482 5.09389 11.13 5.09204 10.9909 5.09204C11.1175 4.93118 11.2282 4.78194 11.3479 4.64078C11.463 4.50515 11.5854 4.37599 11.7083 4.24767C11.8721 4.07651 12.0313 3.89926 12.2073 3.7421C12.4463 3.52847 12.7027 3.33561 12.9438 3.12436C13.0067 3.06928 13.0565 3.07082 13.121 3.09467C13.1431 3.1029 13.1653 3.11167 13.1881 3.11759C13.6205 3.22983 14.052 3.34661 14.486 3.45185C14.7747 3.52185 15.065 3.59424 15.3586 3.63132C15.7376 3.67917 16.1203 3.70125 16.5021 3.71864C16.8717 3.73548 17.2426 3.70387 17.5934 3.58309C17.943 3.4627 18.2543 3.26853 18.4288 2.90689C18.5313 2.69449 18.6011 2.47363 18.5968 2.23192C18.5642 2.22738 18.5365 2.21638 18.5116 2.22122C18.3609 2.25061 18.2107 2.28307 18.0606 2.31546C17.8315 2.36493 17.6047 2.43247 17.3732 2.46132C16.9279 2.51686 16.4807 2.56117 16.0331 2.59079C15.5459 2.62294 15.0588 2.59633 14.5747 2.52855C14.3405 2.49578 14.1066 2.45886 13.8736 2.41824C13.5973 2.37 13.3226 2.31115 13.0459 2.2653C12.7924 2.2233 12.538 2.1813 12.2825 2.1593C11.7373 2.11245 11.1916 2.06152 10.6452 2.04367C9.96215 2.02129 9.28853 2.12114 8.62871 2.30423C8.45859 2.35146 8.28474 2.41308 8.13639 2.50778C7.95703 2.62225 7.78922 2.76503 7.6411 2.9205C7.39267 3.18129 7.26163 3.5157 7.20741 3.86934C7.1455 4.27344 7.15371 4.6764 7.38245 5.04242C7.50551 5.23944 7.66638 5.39052 7.86559 5.49207C8.09329 5.60815 8.3412 5.64416 8.5935 5.61785C8.83224 5.59292 9.06859 5.53807 9.25609 5.37606C9.57805 5.09789 9.82567 4.77286 9.77189 4.29975C9.74557 4.06851 9.73184 3.83303 9.57798 3.62325C9.54696 3.64432 9.49378 3.66009 9.48371 3.69087C9.44366 3.81334 9.42561 3.94365 9.38377 4.06535C9.29629 4.31937 9.1698 4.54823 8.96015 4.72132C8.86804 4.7974 8.77108 4.81141 8.65884 4.79825C8.5768 4.78864 8.48849 4.78325 8.41003 4.8041C8.24424 4.84818 8.12789 4.81133 8.07531 4.61801C8.00468 4.35837 8.00371 4.10582 8.08807 3.84534C8.17958 3.56293 8.32344 3.32438 8.55517 3.14944C8.73991 3.00997 8.94889 2.93058 9.17636 2.87958C9.60401 2.78365 10.0349 2.73234 10.4706 2.72195C11.0602 2.70787 11.6429 2.77895 12.2211 2.89419C12.3154 2.91304 12.4088 2.93681 12.5113 2.96028C12.3219 3.10244 12.1463 3.22568 11.9802 3.36107C11.7434 3.55416 11.5063 3.74795 11.2827 3.95681C11.0717 4.1539 10.8747 4.36753 10.6778 4.58008C10.5255 4.7444 10.378 4.91403 10.2385 5.08981C10.1762 5.16828 10.1059 5.18743 10.017 5.18966C9.869 5.19343 9.72118 5.2072 9.57313 5.20897C9.49907 5.20982 9.4676 5.24113 9.46693 5.31313C9.46611 5.40352 9.46581 5.49392 9.46566 5.58431C9.46551 5.65393 9.49892 5.68562 9.56679 5.6817C9.60759 5.67931 9.64861 5.68124 9.71454 5.68124C9.5873 5.83563 9.48095 5.9681 9.37094 6.09734C9.2261 6.26751 9.07373 6.43106 8.93307 6.60476C8.71806 6.87032 8.47201 7.10218 8.20471 7.30697C8.02273 7.44644 7.82255 7.56268 7.6232 7.67561C7.39065 7.80731 7.15274 7.93863 6.87231 7.89847C6.42132 7.83385 6.1523 7.56829 6.18102 7.10103C6.19906 6.80739 6.29222 6.53607 6.43295 6.28059C6.56146 6.04734 6.74455 5.8631 6.93943 5.69347C6.99746 5.64323 7.0205 5.61285 6.98978 5.53692ZM19.3884 8.30765C19.3934 8.41581 19.4007 8.51497 19.4019 8.61429C19.4063 8.98147 19.7512 9.15033 20.0439 9.05894C20.3043 8.97762 20.5269 8.82438 20.7213 8.63144C20.9849 8.36966 21.2448 8.10372 21.4997 7.83285C21.5779 7.74977 21.6377 7.64699 21.6982 7.54814C21.7134 7.52306 21.7122 7.46429 21.6944 7.44628C21.67 7.42159 21.6203 7.40728 21.5858 7.41374C21.5416 7.42205 21.4931 7.44652 21.4615 7.47936C21.3078 7.63914 21.1492 7.79577 21.011 7.96917C20.8019 8.23149 20.5407 8.43028 20.2868 8.63829C20.2199 8.69299 20.1354 8.72845 20.0543 8.75961C19.9787 8.78861 19.9075 8.71537 19.9318 8.63806C19.9779 8.49097 20.0125 8.33658 20.0813 8.20126C20.2747 7.821 20.4792 7.44652 20.687 7.07433C20.8283 6.82124 20.9846 6.57707 21.1302 6.32644C21.2434 6.13158 21.3472 5.93087 21.4611 5.73639C21.607 5.48699 21.7619 5.24321 21.9071 4.99334C22.0224 4.7951 22.126 4.58962 22.2398 4.39053C22.367 4.16813 22.5013 3.95011 22.6295 3.72833C22.6786 3.6434 22.6597 3.61124 22.5606 3.61394C22.3759 3.61886 22.1906 3.62371 22.007 3.64271C21.9575 3.64779 21.8957 3.69271 21.8689 3.73779C21.7213 3.9865 21.5856 4.24275 21.4403 4.493C21.2613 4.80133 21.0741 5.1045 20.8958 5.41322C20.7457 5.67316 20.604 5.93825 20.457 6.20004C20.4245 6.25782 20.3849 6.31128 20.3444 6.37321C20.3088 6.08673 20.1157 5.89948 19.8376 5.87263C19.5991 5.84963 19.3678 5.89141 19.1471 5.97749C18.859 6.0898 18.5921 6.24451 18.3459 6.43837C18.0953 6.63561 17.8682 6.85786 17.6538 7.09464C17.5381 7.2225 17.4364 7.36482 17.3137 7.48459C17.1769 7.6183 17.0246 7.73554 16.8767 7.85677C16.7516 7.95924 16.5065 7.86916 16.4918 7.7143C16.4639 7.4199 16.5624 7.16873 16.7746 6.97679C16.9369 6.82993 17.1264 6.71516 17.29 6.56968C17.4175 6.45629 17.5325 6.32451 17.6368 6.18781C17.709 6.09319 17.6295 5.89048 17.5211 5.87425C17.2979 5.84079 17.0688 5.86156 16.9067 6.02695C16.7708 6.1655 16.6787 6.35221 16.5791 6.52491C16.5013 6.65984 16.4677 6.82039 16.3435 6.92879C16.247 7.01302 16.1586 7.10711 16.066 7.19611C16.0071 7.25273 15.9471 7.30804 15.8672 7.38305C15.88 7.34382 15.8806 7.33274 15.8862 7.32581C16.1291 7.0201 16.181 6.65684 16.1618 6.28105C16.1564 6.17635 16.1077 6.04857 16.0357 5.97841C15.8938 5.84002 15.7035 5.84263 15.5216 5.89225C15.2957 5.95387 15.114 6.09619 14.9455 6.25643C14.858 6.33967 14.7759 6.4289 14.6918 6.51591C14.5462 6.66661 14.3946 6.81185 14.2573 6.97025C14.1105 7.13965 13.9808 7.32451 13.8376 7.49736C13.6802 7.68738 13.4919 7.83931 13.2631 7.92701C13.1589 7.96694 13.0481 7.99578 12.9192 7.95647C12.9952 7.84424 13.0751 7.75015 13.1289 7.64222C13.2637 7.37136 13.4 7.10126 13.4256 6.78685C13.4543 6.43444 13.3553 6.14081 13.0685 5.94141C12.815 5.76517 12.5263 5.79894 12.2611 5.89479C11.8252 6.05234 11.4339 6.3059 11.1012 6.6353C10.8521 6.88201 10.6359 7.16419 10.4073 7.43259C10.3757 7.46975 10.3524 7.5166 10.3336 7.5626C10.3095 7.62168 10.38 7.69684 10.4429 7.68107C10.4731 7.67353 10.5017 7.65899 10.5237 7.65038C10.5428 7.90255 10.5439 8.14933 10.5843 8.38897C10.6327 8.67583 10.7422 8.93 11.0439 9.04347C11.2027 9.10317 11.36 9.08871 11.51 9.05632C11.882 8.97601 12.1737 8.74176 12.445 8.4809C12.5872 8.34419 12.7047 8.20118 12.9425 8.2168C13.2871 8.23949 13.5933 8.08656 13.844 7.84762C14.0083 7.69099 14.1606 7.52029 14.2991 7.33351C14.4673 7.1068 14.6715 6.90686 14.8713 6.70715C15.0599 6.51868 15.2375 6.31282 15.4825 6.19496C15.5574 6.15896 15.6414 6.10127 15.714 6.17535C15.7886 6.25143 15.7194 6.3349 15.6808 6.39998C15.5369 6.6423 15.3871 6.88101 15.2342 7.11741C15.0813 7.35397 14.9199 7.58468 14.7662 7.8207C14.6459 8.00563 14.5329 8.19557 14.4142 8.38166C14.3117 8.54252 14.2031 8.6993 14.1023 8.86131C14.0417 8.9587 14.0637 9.00778 14.174 9.00255C14.3815 8.9927 14.5887 8.97078 14.7952 8.94685C14.9291 8.93139 14.9707 8.79476 15.045 8.70984C15.2399 8.4869 15.4109 8.24188 15.6017 8.01479C15.7491 7.83939 15.9106 7.67645 16.0687 7.51098C16.1185 7.4589 16.1779 7.41659 16.2459 7.35866C16.2302 7.46505 16.2188 7.55329 16.204 7.64084C16.1784 7.792 16.2841 8.06702 16.4423 8.1111C16.6974 8.18226 16.9343 8.1441 17.1502 7.98971C17.2726 7.90216 17.3873 7.80316 17.5109 7.70492C17.5011 7.79423 17.4857 7.87916 17.4834 7.96447C17.4764 8.22457 17.5258 8.47728 17.6304 8.71122C17.7612 9.00393 18.0095 9.13833 18.306 9.06832C18.6135 8.9957 18.8757 8.81792 19.102 8.5886C19.1939 8.49559 19.2883 8.40566 19.3884 8.30765Z" fill="black"/>
<path id="Vector_3" d="M12.2269 5.12763C12.2066 5.17118 12.1968 5.23149 12.1632 5.2541C12.1198 5.28341 12.0573 5.2828 12.003 5.29503C11.9942 5.24418 11.9774 5.19318 11.9786 5.14256C11.9803 5.07109 11.9901 4.99855 12.0077 4.92954C12.0127 4.91 12.0639 4.88308 12.0824 4.89039C12.1817 4.9297 12.2221 5.01109 12.2269 5.12763Z" fill="black"/>
<path id="Vector_4" d="M11.106 8.42223C11.1202 8.15821 11.1884 7.91104 11.2879 7.6661C11.4347 7.30477 11.6635 7.00228 11.8897 6.69626C12.0418 6.49048 12.2008 6.28793 12.4404 6.18484C12.5334 6.14476 12.6368 6.12414 12.7375 6.11099C12.8466 6.09683 13.011 6.32147 13.0285 6.4534C13.0599 6.68918 13.0152 6.91428 12.9457 7.13637C12.8528 7.43285 12.7037 7.70133 12.5063 7.9312C12.2742 8.20129 12.0451 8.48154 11.7296 8.65871C11.6451 8.70617 11.5574 8.75118 11.466 8.78095C11.2537 8.85011 11.1148 8.74433 11.106 8.51601C11.1049 8.48493 11.1059 8.45362 11.106 8.42223Z" fill="black"/>
<path id="Vector_5" d="M19.6437 6.14795C19.9163 6.14764 20.0935 6.27465 20.0471 6.52452C19.967 6.95462 19.7861 7.33588 19.5326 7.68237C19.323 7.96892 19.1008 8.24679 18.8321 8.47581C18.6907 8.59643 18.5388 8.7189 18.351 8.7576C18.1195 8.80529 18.0467 8.70882 18.0554 8.45996C18.0601 8.32456 18.0936 8.18471 18.1414 8.0577C18.2377 7.80153 18.3315 7.54005 18.4656 7.30457C18.5985 7.07125 18.7736 6.86192 18.9421 6.65222C19.0359 6.53544 19.1433 6.42335 19.2637 6.33804C19.3995 6.24188 19.5472 6.15249 19.6437 6.14795Z" fill="black"/>
</g>
</svg>
