<svg width="24" height="24" viewBox="0 0 24 24" fill="none" xmlns="http://www.w3.org/2000/svg">
<g id="Icons_characteristics">
<g id="Vector">
<path d="M6.73893 5.07116C6.69589 4.80507 6.63379 4.41155 6.56825 4.01901C6.45235 3.32669 6.59711 3.06938 7.25097 2.7989C7.81191 2.5665 8.37138 2.33166 8.93036 2.09486C9.37393 1.90689 9.73974 1.99526 10.0278 2.38683C10.2645 2.70809 10.4948 3.03423 10.7423 3.34719C11.4054 4.18598 12.6144 4.1728 13.2589 3.32034C13.4898 3.0147 13.6996 2.69344 13.9294 2.38683C14.2013 2.02358 14.5495 1.90348 14.9833 2.0851C15.6318 2.35656 16.2842 2.61874 16.9292 2.89704C17.3131 3.06255 17.4784 3.36233 17.4144 3.78416C17.3518 4.1938 17.2931 4.6044 17.2427 5.0155C17.1195 6.02761 17.8912 6.8415 18.907 6.75997C19.3207 6.72677 19.732 6.65891 20.1433 6.6008C20.6362 6.53099 20.9722 6.69747 21.1561 7.18522C21.3703 7.75207 21.6251 8.30378 21.8559 8.86476C22.1117 9.48678 22.0427 9.74554 21.5214 10.1474C21.2559 10.3519 20.9795 10.5438 20.7184 10.7537C19.8474 11.4534 19.8308 12.5436 20.6822 13.2623C20.9874 13.5196 21.3087 13.7579 21.6241 14.003C21.9571 14.2617 22.0564 14.5996 21.9063 14.9819C21.6324 15.6801 21.3444 16.3734 21.0397 17.0588C20.8715 17.4372 20.5277 17.5114 20.1501 17.4577C19.7706 17.404 19.3936 17.3327 19.0145 17.279C17.9406 17.1272 17.1024 17.9699 17.2569 19.043C17.3092 19.4058 17.3606 19.769 17.4227 20.1299C17.5039 20.5991 17.3664 20.9408 16.9009 21.1288C16.2788 21.3802 15.6655 21.6536 15.0425 21.9022C14.5456 22.1004 14.2429 22.0013 13.9211 21.5697C13.6917 21.2626 13.4702 20.9496 13.2306 20.6503C12.6012 19.8633 11.4661 19.8296 10.8034 20.5854C10.5408 20.8852 10.3173 21.2181 10.0713 21.533C9.71235 21.9925 9.43652 22.0765 8.90542 21.8636C8.28237 21.6141 7.66715 21.3451 7.04655 21.0907C6.67144 20.9369 6.49539 20.6625 6.54331 20.2636C6.58684 19.8999 6.65482 19.5396 6.71008 19.1768C6.90374 17.9006 6.0616 17.072 4.78274 17.2781C4.4673 17.3288 4.1504 17.3713 3.83594 17.4265C3.37819 17.5066 3.0564 17.3454 2.87643 16.9124C2.61919 16.2933 2.35314 15.6776 2.10422 15.0556C1.89539 14.5337 1.99418 14.2398 2.45682 13.8995C2.7527 13.6817 3.05786 13.4742 3.33956 13.2394C4.19735 12.5256 4.17191 11.366 3.28869 10.6864C2.99771 10.4623 2.69205 10.2572 2.39862 10.0365C2.01863 9.75042 1.90518 9.38766 2.09493 8.93946C2.36244 8.30768 2.62897 7.67493 2.88865 7.03973C3.05248 6.63938 3.3508 6.489 3.76601 6.54515C4.20957 6.6052 4.6502 6.69699 5.09524 6.73068C6.01954 6.80098 6.75067 6.10817 6.73893 5.07116ZM17.0945 12.0329C17.1004 9.22459 14.8527 6.94013 12.0759 6.93183C9.18466 6.92304 6.90961 9.17088 6.91059 12.0359C6.91108 14.8383 9.20374 17.1257 12.0099 17.1233C14.8283 17.1213 17.0892 14.8579 17.0945 12.0329Z" fill="#989898"/>
<path d="M11.985 14.5559C10.5858 14.5539 9.46342 13.4334 9.45902 12.0346C9.45413 10.6216 10.5912 9.49186 12.0172 9.49186C13.4061 9.49137 14.5393 10.6246 14.5437 12.0175C14.5476 13.4368 13.4174 14.5583 11.985 14.5559Z" fill="#989898"/>
</g>
</g>
</svg>
