<svg width="28" height="28" viewBox="0 0 28 28" fill="none" xmlns="http://www.w3.org/2000/svg">
<g clip-path="url(#clip0_5069_8687)">
<path d="M13.7143 28C13.6796 27.9907 13.6452 27.9756 13.6099 27.973C13.4237 27.9592 13.2368 27.9521 13.0507 27.9364C12.7424 27.9102 12.4332 27.889 12.1267 27.8483C11.5628 27.7732 11.0043 27.6657 10.4541 27.5204C8.73481 27.0665 7.15076 26.3241 5.72298 25.2629C3.11942 23.3279 1.37086 20.7998 0.494761 17.6742C0.297826 16.9715 0.168808 16.2556 0.0863854 15.5302C0.00110562 14.7807 -0.0196648 14.0292 0.0180297 13.2779C0.108584 11.4703 0.51674 9.7346 1.29778 8.09964C2.98612 4.56566 5.67726 2.12421 9.35891 0.780673C10.1685 0.485185 11.004 0.284606 11.8569 0.156634C12.2937 0.0910559 12.7313 0.0341554 13.1731 0.022292C13.6377 0.00976948 14.103 -0.00868474 14.5672 0.00460669C14.9577 0.0157012 15.3476 0.0632648 15.7368 0.104347C16.3667 0.170805 16.9861 0.296469 17.5972 0.461239C20.1931 1.16118 22.4104 2.49461 24.2428 4.45932C25.8466 6.17908 26.9439 8.18202 27.5405 10.4572C27.721 11.1452 27.8512 11.8431 27.9124 12.5523C27.9398 12.8696 27.9488 13.1886 27.9689 13.5066C27.974 13.5875 27.9896 13.6677 28.0003 13.7482C28.0003 13.9123 28.0003 14.0764 28.0003 14.2406C27.9896 14.312 27.9736 14.383 27.969 14.4547C27.9489 14.7727 27.9387 15.0915 27.9128 15.409C27.8644 15.9998 27.7644 16.5834 27.6262 17.1592C26.881 20.2656 25.2692 22.8325 22.7973 24.8543C21.2409 26.1272 19.4799 27.0071 17.5361 27.5205C16.986 27.6658 16.4277 27.7735 15.8638 27.8482C15.5574 27.8888 15.2484 27.9106 14.9401 27.9364C14.7404 27.9532 14.5399 27.9611 14.34 27.9753C14.3045 27.9778 14.2697 27.9915 14.2346 28.0002C14.0611 28 13.8877 28 13.7143 28ZM13.9885 27.0977C21.3631 27.0753 27.0982 21.1059 27.1144 14.0119C27.1306 6.89012 21.3827 0.879974 14.0079 0.870967C6.74524 0.862069 0.88918 6.7226 0.876102 13.9583C0.863134 21.1883 6.69271 27.0696 13.9885 27.0977Z" fill="black"/>
<path d="M5.70508 13.9663C5.72464 9.35171 9.45134 5.73084 13.9336 5.69942C18.5287 5.66735 22.3029 9.40422 22.2792 14.039C22.2569 18.4255 18.7417 22.2218 14.0827 22.2633C9.38244 22.3053 5.71475 18.5419 5.70508 13.9663ZM21.8457 14.0029C21.8522 13.9502 21.8595 13.9194 21.8593 13.8886C21.8545 13.3492 21.7951 12.8157 21.6779 12.2894C21.114 9.75913 19.3418 7.66568 16.9383 6.69145C16.3156 6.43902 15.6717 6.26261 15.0027 6.18824C14.7224 6.15715 14.4406 6.1387 14.1593 6.11805C14.1033 6.11398 14.0459 6.12629 13.9786 6.132C13.9786 6.47055 13.9786 6.79361 13.9786 7.11677C13.9786 7.445 13.9786 7.77322 13.9786 8.10144C13.9786 8.42516 13.9786 8.74876 13.9786 9.07248C13.9786 9.3962 13.9786 9.71981 13.9786 10.0435C13.9786 10.3717 13.9786 10.7 13.9786 11.0282C13.9786 11.3519 13.9786 11.6755 13.9786 11.9992C13.9786 12.3275 13.9797 12.6557 13.9783 12.9839C13.977 13.3056 13.9845 13.6276 13.9733 13.9629C13.8939 13.9629 13.8309 13.9629 13.768 13.9629C11.296 13.9629 8.82394 13.9629 6.35193 13.963C6.30182 13.963 6.25159 13.9634 6.20148 13.9658C6.15236 13.9682 6.12741 13.9962 6.12664 14.0451C6.12598 14.0907 6.12466 14.1363 6.12631 14.1819C6.1462 14.7156 6.20632 15.2444 6.33138 15.7644C6.75811 17.5377 7.6853 18.9959 9.10715 20.1357C10.061 20.9003 11.1395 21.4141 12.3383 21.6627C12.6759 21.7326 13.0197 21.7759 13.3621 21.8197C13.5378 21.8423 13.7166 21.842 13.8942 21.8462C13.9913 21.8485 14.0052 21.8313 14.0113 21.737C14.0145 21.687 14.0127 21.6367 14.0127 21.5866C14.0127 19.1294 14.0127 16.6722 14.0131 14.215C14.0131 14.1484 14.0191 14.0817 14.0228 14.0027C16.6356 14.0029 19.2337 14.0029 21.8457 14.0029Z" fill="black"/>
<path d="M6.24467 9.06946C5.4399 8.31174 4.64831 7.56621 3.85156 6.81607C3.90201 6.75126 3.94289 6.69721 3.98542 6.64438C4.45731 6.05801 4.94921 5.48912 5.49144 4.96614C5.62507 4.83718 5.77508 4.72283 5.92784 4.61661C6.14126 4.4681 6.38633 4.44283 6.63579 4.48941C6.95955 4.54982 7.22835 4.86277 7.24858 5.19209C7.25462 5.29107 7.24956 5.39081 7.24956 5.50779C7.29045 5.49758 7.33616 5.48659 7.38155 5.47495C7.9007 5.3416 8.36754 5.63412 8.46634 6.156C8.50184 6.34329 8.4537 6.51772 8.37502 6.68546C8.27699 6.89439 8.1317 7.06948 7.97367 7.23502C7.6086 7.61762 7.24319 7.99977 6.87965 8.3838C6.71349 8.55922 6.55128 8.73827 6.38732 8.91567C6.34413 8.96214 6.30094 9.0086 6.24467 9.06946ZM6.28247 8.03866C6.32753 7.99626 6.36501 7.96451 6.39842 7.92903C6.76712 7.53831 7.13571 7.14747 7.50288 6.75543C7.56189 6.69249 7.61937 6.62669 7.66761 6.55562C7.70531 6.50015 7.73816 6.4371 7.75498 6.37262C7.80751 6.17105 7.66618 5.99749 7.45859 5.99562C7.36221 5.99474 7.28023 6.03 7.20758 6.08712C7.15044 6.13194 7.09659 6.1817 7.04615 6.23399C6.64832 6.64723 6.25148 7.06146 5.85509 7.47602C5.83124 7.50096 5.81322 7.53161 5.78431 7.57049C5.95136 7.72746 6.11268 7.87905 6.28247 8.03866ZM5.31396 7.12638C5.35561 7.08925 5.38748 7.06465 5.41484 7.03587C5.78157 6.64954 6.14994 6.26464 6.51183 5.87391C6.58766 5.79197 6.65217 5.69365 6.69898 5.59227C6.76096 5.45792 6.71646 5.30919 6.61194 5.21978C6.50556 5.12871 6.36578 5.11795 6.23203 5.20066C6.16302 5.24339 6.09884 5.29623 6.03971 5.35225C5.62925 5.741 5.25241 6.16116 4.89063 6.59495C4.8714 6.61801 4.85942 6.64701 4.83953 6.68107C4.99866 6.83046 5.15329 6.97556 5.31396 7.12638Z" fill="black"/>
<path d="M12.7315 2.68233C12.7315 2.73956 12.7331 2.79679 12.7313 2.85391C12.709 3.55517 12.6864 4.25643 12.6633 4.95769C12.6597 5.06753 12.6464 5.08138 12.5533 5.09346C12.3504 5.11971 12.1478 5.14728 11.9449 5.17299C11.9237 5.17562 11.9014 5.16936 11.8652 5.16574C11.9068 4.04805 11.948 2.93552 11.9894 1.81948C12.0833 1.80432 12.1583 1.78719 12.2343 1.78082C12.4882 1.75962 12.7425 1.74061 12.9968 1.72403C13.1119 1.71656 13.1141 1.71919 13.1581 1.82717C13.388 2.39222 13.6171 2.9576 13.8458 3.5232C13.8677 3.57725 13.885 3.63316 13.9102 3.70412C13.928 3.6794 13.9396 3.66842 13.945 3.65502C14.1906 3.0424 14.4363 2.42979 14.6799 1.81641C14.7073 1.74753 14.7457 1.71502 14.823 1.72216C15.1492 1.7527 15.4756 1.77994 15.8018 1.80894C15.8099 1.80971 15.8173 1.81729 15.8447 1.83288C15.8923 2.93311 15.9276 4.04574 15.9705 5.16585C15.9323 5.16826 15.9059 5.17409 15.8807 5.17079C15.6869 5.14608 15.4935 5.11785 15.2995 5.09445C15.1896 5.08127 15.1778 5.07292 15.1739 4.96065C15.1489 4.25039 15.1241 3.54012 15.0996 2.82985C15.098 2.78097 15.0994 2.73198 15.0994 2.66629C15.0766 2.6854 15.0597 2.69276 15.0542 2.70528C14.804 3.2666 14.5533 3.82781 14.307 4.39077C14.272 4.47085 14.2244 4.49732 14.1403 4.49414C13.9901 4.48842 13.8393 4.48886 13.6891 4.49403C13.6101 4.49677 13.5651 4.47195 13.5323 4.39692C13.2855 3.83407 13.035 3.27286 12.7851 2.71133C12.7799 2.69968 12.7694 2.69035 12.7613 2.68002C12.7512 2.68079 12.7413 2.68156 12.7315 2.68233Z" fill="black"/>
<path d="M20.9448 3.84033C21.1649 4.01686 21.3696 4.18108 21.5833 4.35255C21.162 4.98405 20.7487 5.60348 20.3302 6.23081C20.3525 6.2296 20.3667 6.23279 20.377 6.22763C20.8893 5.9696 21.4012 5.71058 21.9135 5.45266C22.0223 5.39785 22.0238 5.39916 22.112 5.48594C22.2388 5.61062 22.3651 5.73584 22.4909 5.86151C22.5657 5.9362 22.5668 5.93774 22.5164 6.03638C22.2558 6.5475 21.9942 7.05818 21.7334 7.56918C21.7296 7.57665 21.7309 7.58665 21.727 7.61763C22.3593 7.20241 22.9795 6.79499 23.5973 6.38932C23.6941 6.45281 24.0276 6.8543 24.1193 7.01797C23.1926 7.6017 22.2653 8.18586 21.3321 8.77387C21.1262 8.53155 20.9295 8.29999 20.7284 8.06316C21.0334 7.479 21.3366 6.89846 21.6545 6.28958C21.0446 6.60363 20.4583 6.90549 19.868 7.20933C19.6324 7.01149 19.4033 6.81904 19.166 6.61978C19.7571 5.69597 20.3438 4.77941 20.9448 3.84033Z" fill="black"/>
</g>
<defs>
<clipPath id="clip0_5069_8687">
<rect width="28" height="28" fill="white"/>
</clipPath>
</defs>
</svg>
