<?xml version="1.0" encoding="utf-8"?><svg viewBox="0 0 28 28" xmlns="http://www.w3.org/2000/svg" xmlns:xlink="http://www.w3.org/1999/xlink"><style>:root>svg{display:none}:root>svg:target{display:block}</style><svg fill="none" viewBox="0 0 24 24" id="IconsCharacteristics" xmlns="http://www.w3.org/2000/svg"><path d="M23.997 10.358c0-.354-.18-.54-.533-.544a81.41 81.41 0 00-1.804 0c-.371.005-.537.178-.541.56-.007.506-.002 1.012-.002 1.518v.338h-.47c-.006-.076-.013-.138-.013-.2 0-1.05-.019-2.1.011-3.149.024-.84-.745-1.53-1.492-1.514-1.327.03-2.656.009-3.984.009h-.274V5.934c.6 0 1.185.002 1.77 0 .443-.003.619-.183.622-.635.004-.569.008-1.138.008-1.708 0-.34-.185-.585-.483-.586a1184.23 1184.23 0 00-6.725 0 .464.464 0 00-.478.476c-.004.657-.002 1.313 0 1.97 0 .238.13.383.344.449.095.029.2.032.3.033.576.003 1.151.001 1.728.001v1.442c-.784 0-1.55-.003-2.315 0-.433.003-.806.155-1.094.493-.566.663-1.14 1.32-1.69 1.996-.242.297-.48.514-.896.441-.197-.035-.408.02-.608-.003-.748-.087-1.603.836-1.54 1.548.04.444.008.895.008 1.346H2.9c0-.785-.007-1.543.003-2.3.005-.35-.198-.588-.546-.59-.593-.002-1.187-.001-1.78 0-.408 0-.577.172-.577.59v4.058c0 1.178 0 2.357.004 3.535 0 .375.177.55.542.55.609.001 1.218.003 1.827 0 .306 0 .484-.16.5-.469.017-.34.01-.68.01-1.02.002-.464.001-.929.001-1.397h.962v1.413c0 .738.728 1.473 1.458 1.474.328 0 .656.01.984 0 .156-.005.254.05.356.17.646.77 1.3 1.534 1.956 2.296.278.324.65.463 1.06.464 2.003.007 4.005.006 6.008.001a1.483 1.483 0 001.106-.473 588.902 588.902 0 013.37-3.464c.331-.338.51-.727.49-1.207-.009-.225-.001-.45-.001-.68h.483v.267c0 .53-.003 1.06.002 1.59.003.384.183.56.563.56.586.002 1.172.002 1.758 0 .363 0 .56-.197.56-.568.001-2.546 0-5.092-.002-7.64zM11.541 19.14a8.268 8.268 0 00-.043-.02l1.39-4.233h-2.392c.188-.387.356-.738.528-1.085.596-1.205 1.192-2.41 1.793-3.611.034-.068.125-.15.19-.152.727-.01 1.453-.006 2.18-.004.02 0 .04.011.085.025l-2.377 3.854h2.395l-3.749 5.226z" fill="#989898"/></svg><svg fill="none" viewBox="0 0 24 24" id="IconsCharacteristics1" xmlns="http://www.w3.org/2000/svg"><path d="M12.185 2.001C6.627 1.911 1.986 6.47 2 12.007c.014 5.418 4.562 9.963 9.998 9.993 5.456.03 9.965-4.442 10.002-9.92.038-5.531-4.304-9.989-9.815-10.079zm.8 1.775c3.77.365 6.714 3.228 7.025 7.187-5.349-1.85-10.658-1.983-16.276.169C5.11 5.8 8.431 3.336 12.984 3.776zM10.46 20.004c-3.711-.76-5.845-2.914-6.394-6.45 5.02-.343 7.422 2.08 6.393 6.45zM12 14.074a1.472 1.472 0 11-.002-2.944A1.472 1.472 0 0112 14.073zm1.495 5.915c-.776-4.407 1.585-6.764 6.411-6.4-.237 3.304-2.692 5.755-6.41 6.4z" fill="#989898"/></svg><svg fill="none" viewBox="0 0 24 24" id="IconsCharacteristics2" xmlns="http://www.w3.org/2000/svg"><g fill="#989898"><path d="M6.739 5.071c-.043-.266-.105-.66-.17-1.052-.117-.692.028-.95.682-1.22.56-.232 1.12-.467 1.68-.704.443-.188.809-.1 1.097.292.236.321.467.647.714.96a1.565 1.565 0 002.517-.027c.23-.305.44-.627.67-.933.272-.363.62-.484 1.054-.302.649.272 1.301.534 1.946.812.384.166.55.465.485.887-.062.41-.12.82-.171 1.232-.123 1.012.648 1.825 1.664 1.744.414-.033.825-.101 1.236-.16.493-.069.83.097 1.013.585.214.567.47 1.119.7 1.68.256.622.187.88-.335 1.282-.265.205-.541.397-.803.607-.87.7-.887 1.79-.036 2.508.305.258.627.496.942.741.333.259.432.597.282.979a50.62 50.62 0 01-.866 2.077c-.168.378-.512.452-.89.399-.38-.054-.756-.125-1.135-.179-1.074-.152-1.913.69-1.758 1.764.052.363.104.726.166 1.087.08.47-.057.81-.522.999-.622.251-1.236.525-1.858.773-.497.198-.8.1-1.122-.332-.23-.307-.45-.62-.69-.92-.63-.787-1.765-.82-2.428-.065-.262.3-.486.633-.732.948-.359.46-.634.543-1.166.33-.623-.249-1.238-.518-1.858-.772-.376-.154-.552-.428-.504-.827.044-.364.112-.724.167-1.087.194-1.276-.648-2.105-1.927-1.899-.316.05-.633.093-.947.149-.458.08-.78-.082-.96-.515-.257-.619-.523-1.234-.772-1.856-.209-.522-.11-.816.353-1.156.296-.218.6-.426.883-.66.857-.714.832-1.874-.051-2.554-.291-.224-.597-.429-.89-.65-.38-.286-.494-.648-.304-1.097.267-.631.534-1.264.794-1.9.163-.4.462-.55.877-.494.444.06.884.152 1.33.186.924.07 1.655-.623 1.643-1.66zm10.355 6.962c.006-2.808-2.241-5.093-5.018-5.101C9.185 6.923 6.91 9.17 6.91 12.036c0 2.802 2.293 5.09 5.099 5.087a5.077 5.077 0 005.085-5.09z"/><path d="M11.985 14.556a2.521 2.521 0 01-2.526-2.521 2.534 2.534 0 012.558-2.543 2.534 2.534 0 012.527 2.525c.004 1.42-1.127 2.541-2.559 2.539z"/></g></svg><svg fill="none" viewBox="0 0 24 24" id="IconsCharacteristics3" xmlns="http://www.w3.org/2000/svg"><g fill="#989898"><path d="M15.782 12.15h1.452c-.016.207-.029.404-.047.6-.061.67-.098 1.342-.198 2.005-.056.37.072.68.173 1.004.151.488.336.964.667 1.367.32.389.7.691 1.219.772a.927.927 0 001.069-.779c.072-.423-.02-.835-.084-1.247-.122-.783-.476-1.486-.813-2.19-.484-1.015-.996-2.017-1.49-3.028a.813.813 0 00-.411-.397c-.187-.087-.44-.136-.537-.284-.093-.14-.022-.387-.022-.587V7.438 7.27l.794-.06c.016-.246.053-.49.043-.732-.01-.245-.143-.44-.334-.606-.36-.31-.71-.635-1.077-.966l.646-.706c.27.245.537.484.8.728.183.169.348.358.542.512.273.215.356.496.356.82v.94l.724.071v2.877l-.62.076.52 1.03c.52 1.033 1.015 2.076 1.376 3.176.22.669.374 1.351.451 2.054.045.4.009.785-.09 1.165-.156.598-.575.927-1.16 1.095-.857.247-1.565-.007-2.187-.595-.65-.613-1.026-1.382-1.307-2.207-.095-.278-.18-.56-.279-.837-.018-.05-.08-.085-.121-.127l-.055.032v2.275c0 .383 0 .767.002 1.15.001.755-.53 1.365-1.354 1.354-.971-.013-1.943.008-2.914.014-.833.004-1.666.01-2.499.01-.944 0-1.89-.003-2.834-.013a3.072 3.072 0 01-.68-.064c-.535-.128-.893-.599-.932-1.183a2.835 2.835 0 01-.005-.19L4.565 4.477c0-.407.093-.78.392-1.082.277-.28.627-.39 1.009-.39 2.814-.004 5.628-.01 8.443.004.81.004 1.314.488 1.34 1.311.013.374.002.749.004 1.123l.028 5.823c.002.289.001.577.001.884zM5.827 4.56v5.305h3.231a1.213 1.213 0 01.217-.846c.021-.029.003-.1-.017-.142-.204-.427-.412-.852-.618-1.279-.139-.288-.275-.577-.412-.866.122.082.218.181.314.28.468.483.935.967 1.406 1.448.04.04.11.083.157.076.652-.1 1.22.395 1.32.911.026.137.032.278.046.415h3.116V4.56h-8.76zM10.248 20.263h6.247c.331 0 .637.074.847.353.336.448.173 1.24-.587 1.35a3.747 3.747 0 01-.522.032c-4.069.002-8.137.003-12.206 0-.496 0-.848-.22-.99-.622-.132-.376.093-1.002.648-1.08.152-.02.307-.031.46-.031 2.034-.002 4.069-.002 6.103-.002z"/></g></svg><svg fill="none" viewBox="0 0 24 24" id="breadcrumbsArrow" xmlns="http://www.w3.org/2000/svg"><path d="M15.4 9.88l-4.59-4.59A1 1 0 109.4 6.71l4.6 4.58a1.002 1.002 0 010 1.42l-4.6 4.58a1 1 0 001.41 1.42l4.59-4.59a3 3 0 000-4.24z" fill="#7B7B7B"/></svg><svg fill="none" viewBox="0 0 24 24" id="check" xmlns="http://www.w3.org/2000/svg"><path d="M19.5 6.375L9.187 16.688 4.5 12" stroke="#000" stroke-width="1.667" stroke-linecap="round" stroke-linejoin="round"/></svg><svg fill="none" viewBox="0 0 24 25" id="close" xmlns="http://www.w3.org/2000/svg"><path d="M18 6.5l-12 12m12 0L6 6.5" stroke="#989898" stroke-width="2" stroke-linecap="round"/></svg><svg fill="none" viewBox="0 0 24 24" id="clue" xmlns="http://www.w3.org/2000/svg"><path d="M12.268 22h-.533c-.036-.006-.071-.014-.107-.015a9.301 9.301 0 01-1.575-.183 9.815 9.815 0 01-3.068-1.167c-.71-.415-1.359-.91-1.948-1.485a10.072 10.072 0 01-1.673-2.136 9.865 9.865 0 01-1.332-4.31c-.009-.147-.021-.293-.032-.439v-.533c.005-.033.014-.065.014-.098a9.842 9.842 0 01.96-3.917A9.983 9.983 0 014.82 5.064a10.028 10.028 0 013.126-2.197 9.916 9.916 0 013.483-.851 10.024 10.024 0 013.275.36 10.013 10.013 0 014.413 2.62 10.025 10.025 0 012.123 3.194 9.87 9.87 0 01.633 5.388 9.962 9.962 0 01-1.909 4.445 10.087 10.087 0 01-2.795 2.523 9.817 9.817 0 01-2.604 1.114 9.467 9.467 0 01-1.85.307l-.446.033zm.698-7.097c.011-.248.025-.489.034-.73.014-.408.19-.742.486-1.012.356-.325.722-.64 1.084-.958.373-.328.745-.659 1.055-1.05.73-.919.841-1.917.341-2.973-.255-.54-.66-.963-1.146-1.306-.72-.507-1.538-.72-2.405-.776a6.394 6.394 0 00-1.163.031c-.37.044-.735.114-1.08.255-1.284.525-2.129 1.428-2.398 2.818-.02.107-.027.217-.04.326.184.024.354.047.524.068.511.065 1.022.13 1.533.192.018.003.052-.021.058-.04.043-.14.073-.283.12-.422.21-.62.583-1.098 1.21-1.343.37-.146.755-.183 1.15-.154.478.036.9.19 1.255.523.584.548.62 1.432.062 2-.21.212-.445.4-.67.597-.37.32-.75.626-1.108.958-.372.345-.659.755-.811 1.249a4.175 4.175 0 00-.168 1.171c-.003.19.01.381.015.576h2.062zm-2.058 3.005h2.066v-2.223h-2.066v2.223z" fill="#989898"/></svg><svg fill="none" viewBox="0 0 28 28" id="iconAudi" xmlns="http://www.w3.org/2000/svg"><path d="M4.51 9h1.006c.019.01.037.027.057.029a5.02 5.02 0 012.343.892c.048.034.166.015.222-.023a5.136 5.136 0 011.622-.741c.245-.063.495-.105.742-.157h1.006c.02.01.038.027.058.029a5.076 5.076 0 012.343.893c.049.033.167.015.223-.023.457-.31.944-.553 1.474-.7.292-.083.592-.134.89-.199H17.5c.02.01.038.027.058.03a5.114 5.114 0 012.344.89c.049.034.166.017.222-.02.457-.31.944-.553 1.474-.701.292-.082.593-.134.89-.199h1.005c.049.014.096.036.145.042a4.995 4.995 0 014.186 3.655c.073.267.117.542.175.813v1.018c-.014.032-.036.063-.04.097-.483 3.695-4.667 5.605-7.775 3.502-.148-.1-.235-.096-.377 0-1.73 1.172-3.95 1.163-5.65-.022-.13-.09-.206-.07-.323.008-1.75 1.185-3.933 1.183-5.67-.006-.111-.076-.185-.09-.304-.009-1.062.727-2.23 1.005-3.507.855C2.06 18.685.173 16.701.012 14.368c-.157-2.275 1.232-4.38 3.378-5.095.363-.122.746-.184 1.12-.273zM7.2 17.252C6.416 16.314 6 15.234 6 14c-.001-1.24.42-2.325 1.209-3.266-1.443-1.03-3.781-.965-5.22.711a3.914 3.914 0 00.22 5.34c1.51 1.505 3.736 1.409 4.993.467zm13.601.012c1.415 1.018 3.778.981 5.227-.732 1.359-1.607 1.22-3.944-.315-5.4-1.534-1.454-3.735-1.29-4.902-.39 1.603 1.833 1.624 4.618-.01 6.521zm-7.627.01c-1.626-2.203-1.606-4.379.006-6.556-1.301-.944-3.256-.831-4.36.022 1.527 1.769 1.665 4.566.002 6.52 1.177.882 3.1.929 4.352.014zm1.633-6.538c1.478 1.657 1.761 4.48.011 6.525 1.268.959 3.309.855 4.361-.017-1.526-1.736-1.7-4.509.004-6.509-1.127-.877-3.097-.935-4.376.002zm-6.805.707c-1.437 1.608-1.122 3.988.02 5.097 1.37-1.519 1.176-3.812-.02-5.097zm11.99 0c-1.39 1.555-1.176 3.887.01 5.099 1.289-1.399 1.273-3.713-.01-5.099zm-5.984.002c-1.375 1.464-1.22 3.883.006 5.096 1.266-1.345 1.268-3.703-.006-5.096z" fill="#000"/></svg><svg fill="none" viewBox="0 0 28 28" id="iconBwm" xmlns="http://www.w3.org/2000/svg"><g clip-path="url(#jclip0_5069_8687)" fill="#000"><path d="M13.714 28c-.034-.01-.069-.024-.104-.027-.186-.014-.373-.02-.56-.037-.308-.026-.617-.047-.923-.088a13.552 13.552 0 01-1.673-.328 13.724 13.724 0 01-4.731-2.257C3.119 23.328 1.371 20.8.495 17.674a13.624 13.624 0 01-.409-2.144 13.786 13.786 0 01-.068-2.252c.09-1.808.499-3.543 1.28-5.178 1.688-3.534 4.38-5.976 8.06-7.32.81-.295 1.646-.495 2.499-.623.437-.066.874-.123 1.316-.135.465-.012.93-.03 1.394-.017.39.01.78.058 1.17.1.63.066 1.25.191 1.86.356 2.596.7 4.813 2.034 6.646 3.998a13.793 13.793 0 013.298 5.998c.18.688.31 1.386.371 2.095.028.318.037.637.057.955.005.08.02.16.031.241v.493c-.01.071-.026.142-.031.214-.02.318-.03.636-.056.954-.049.59-.149 1.174-.287 1.75-.745 3.107-2.357 5.674-4.829 7.695a13.761 13.761 0 01-5.26 2.666 13.47 13.47 0 01-1.673.328c-.307.04-.616.063-.924.088-.2.017-.4.025-.6.04-.035.002-.07.015-.105.024h-.52zm.274-.902c7.375-.023 13.11-5.992 13.126-13.086C27.131 6.89 21.383.88 14.008.87A13.1 13.1 0 00.876 13.958c-.013 7.23 5.817 13.112 13.113 13.14z"/><path d="M5.705 13.966A8.29 8.29 0 0113.934 5.7c4.595-.032 8.369 3.705 8.345 8.34-.022 4.386-3.537 8.183-8.196 8.224-4.7.042-8.368-3.721-8.378-8.297zm16.14.037c.007-.053.015-.084.014-.114a7.652 7.652 0 00-.181-1.6 7.895 7.895 0 00-4.74-5.598 7.281 7.281 0 00-1.935-.503c-.28-.03-.562-.05-.844-.07-.056-.004-.113.008-.18.014v6.852c-.002.322.006.644-.006.979H6.352c-.05 0-.1 0-.15.003-.05.002-.075.03-.075.08-.001.045-.002.09 0 .136.02.534.08 1.062.204 1.582a7.798 7.798 0 002.776 4.372 7.56 7.56 0 003.231 1.527c.338.07.682.113 1.024.157.176.022.355.022.532.026.097.003.111-.015.117-.109.004-.05.002-.1.002-.15v-7.372c0-.067.006-.133.01-.212h7.823z"/><path d="M6.245 9.07L3.852 6.815c.05-.065.09-.119.133-.172.472-.586.964-1.155 1.506-1.678.134-.129.284-.243.437-.35.213-.148.458-.173.708-.127a.79.79 0 01.613.703c.006.1 0 .199 0 .316l.133-.033c.519-.133.986.16 1.084.681.036.187-.012.362-.091.53a2.099 2.099 0 01-.401.549c-.365.383-.73.765-1.094 1.149-.167.175-.329.354-.493.532l-.142.153zm.037-1.031c.046-.043.083-.074.116-.11.37-.39.738-.782 1.105-1.174a1.66 1.66 0 00.165-.2.607.607 0 00.087-.182c.053-.202-.089-.376-.296-.377a.392.392 0 00-.251.091 1.584 1.584 0 00-.162.147c-.398.413-.795.827-1.19 1.242-.025.025-.043.056-.072.094l.498.469zm-.968-.913c.042-.037.073-.061.1-.09.368-.386.736-.771 1.098-1.162.076-.082.14-.18.187-.282a.315.315 0 00-.087-.372c-.106-.091-.246-.102-.38-.02a1.21 1.21 0 00-.192.152c-.41.389-.788.81-1.15 1.243-.019.023-.03.052-.05.086l.474.445zM12.732 2.682v.172l-.069 2.104c-.003.11-.017.123-.11.135l-.608.08c-.021.003-.044-.004-.08-.007l.124-3.347c.094-.015.17-.032.245-.038.254-.021.508-.04.763-.057.115-.007.117-.005.161.103.23.565.46 1.13.688 1.696.022.054.039.11.064.181.018-.025.03-.036.035-.049.246-.613.491-1.225.735-1.839.027-.068.066-.101.143-.094.326.03.653.058.979.087.008 0 .015.008.043.024.047 1.1.083 2.213.125 3.333-.038.002-.064.008-.09.005-.193-.025-.387-.053-.58-.077-.11-.013-.122-.021-.126-.133L15.1 2.83c-.002-.049 0-.098 0-.164-.023.02-.04.027-.046.04-.25.56-.5 1.122-.747 1.685-.035.08-.083.106-.167.103a6.233 6.233 0 00-.45 0c-.08.003-.125-.022-.158-.097-.246-.563-.497-1.124-.747-1.686-.005-.011-.016-.02-.024-.031l-.03.002zM20.945 3.84l.638.513L20.33 6.23c.023-.001.037.002.047-.003l1.537-.775c.108-.055.11-.054.198.033l.379.376c.075.074.076.076.025.174-.26.512-.522 1.022-.783 1.533-.003.008-.002.018-.006.049l1.87-1.229c.097.064.43.465.522.629l-2.787 1.756-.604-.71.926-1.774-1.786.92-.702-.59 1.779-2.78z"/></g><defs><clipPath id="jclip0_5069_8687"><path fill="#fff" d="M0 0h28v28H0z"/></clipPath></defs></svg><svg fill="none" viewBox="0 0 28 28" id="iconChangan" xmlns="http://www.w3.org/2000/svg"><g clip-path="url(#kclip0_5069_4760)" fill="#000"><path d="M14.093 28c-2.132-.014-4.112-.128-6.065-.6-3.361-.815-5.55-2.901-6.67-6.185C.799 19.58.492 17.892.284 16.18c-.226-1.866-.336-3.737-.26-5.614.061-1.52.275-3.017.797-4.454.863-2.373 2.506-3.961 4.808-4.881C7.06.659 8.552.374 10.073.205c1.957-.22 3.919-.249 5.883-.154 1.974.094 3.926.326 5.819.954 3.293 1.092 5.228 3.38 5.89 6.802.383 1.976.396 3.969.245 5.969-.125 1.662-.296 3.319-.63 4.954-.353 1.723-.864 3.386-1.803 4.885-1.27 2.032-3.144 3.177-5.402 3.757-2.01.516-4.06.613-5.982.628zm-.49-1.24c2.16 0 3.95-.093 5.7-.574 1.835-.504 3.35-1.473 4.41-3.105.687-1.057 1.132-2.222 1.437-3.439.705-2.813.95-5.679.884-8.572-.03-1.273-.188-2.534-.543-3.763-.682-2.36-2.13-4.01-4.398-4.915-1.363-.544-2.786-.805-4.236-.932a32.426 32.426 0 00-5.69-.002c-1.357.12-2.69.35-3.976.827-2.12.785-3.63 2.203-4.436 4.355-.5 1.334-.715 2.728-.779 4.143a32.21 32.21 0 00.277 5.952c.22 1.557.534 3.09 1.107 4.563 1.001 2.576 2.794 4.232 5.455 4.92 1.692.436 3.413.547 4.788.542z"/><path d="M14.007 2.777c1.612.024 3.212.128 4.775.589 2.921.861 4.62 2.844 5.25 5.817.387 1.825.356 3.667.19 5.514-.132 1.476-.356 2.933-.805 4.346-.557 1.755-1.41 3.318-2.897 4.453-1.04.794-2.226 1.243-3.497 1.466-2.12.372-4.243.364-6.355-.058-2.818-.564-4.727-2.242-5.795-4.927-.574-1.443-.87-2.951-1.055-4.487-.164-1.359-.238-2.723-.17-4.091.086-1.68.386-3.308 1.234-4.787C5.928 4.787 7.558 3.788 9.524 3.27c1.471-.388 2.973-.473 4.483-.493zm5.01 1.964c0 .214-.003.383 0 .552.032 2.3.077 4.6.093 6.9a7.872 7.872 0 01-.586 3.086 108.222 108.222 0 01-3.842 8.26c-.173.335-.109.462.258.437.62-.042 1.245-.081 1.859-.175 1.333-.203 2.54-.71 3.545-1.647 1.088-1.014 1.732-2.3 2.124-3.715.734-2.643.925-5.336.553-8.057-.18-1.308-.59-2.543-1.382-3.62-.672-.914-1.539-1.567-2.623-2.021zm-5.523 19.24c-.092-.174-.172-.311-.24-.454-1.175-2.504-2.358-5.004-3.52-7.513a8.597 8.597 0 01-.787-3.75c.025-2.347.044-4.694.066-7.041v-.268C7.606 5.48 6.555 6.367 5.87 7.686c-.67 1.295-.946 2.695-.984 4.134-.03 1.146.018 2.299.103 3.443a14.13 14.13 0 00.947 4.191c.584 1.469 1.45 2.71 2.816 3.541 1.36.83 2.869 1.046 4.417 1.09.1.002.202-.063.324-.104zM10.396 4.426c.016.07.023.114.037.157.243.71.494 1.418.728 2.13.838 2.549 1.836 5.044 2.504 7.649.02.08.055.162.101.23.136.196.397.17.488-.052.23-.564.473-1.124.67-1.7.774-2.254 1.532-4.514 2.294-6.771.182-.54.36-1.08.548-1.643a22.028 22.028 0 00-7.37 0z"/></g><defs><clipPath id="kclip0_5069_4760"><path fill="#fff" d="M0 0h28v28H0z"/></clipPath></defs></svg><svg fill="none" viewBox="0 0 28 28" id="iconCherry" xmlns="http://www.w3.org/2000/svg"><path d="M13.998 18.98c-.411 0-.823.01-1.234-.002a29.528 29.528 0 01-1.366-.07 38.095 38.095 0 01-1.512-.141 26.099 26.099 0 01-4.012-.758c-.978-.272-1.936-.606-2.838-1.094-.55-.298-1.07-.643-1.491-1.127-.248-.285-.439-.603-.514-.987-.093-.47.03-.89.28-1.277.293-.456.696-.79 1.133-1.082.773-.514 1.617-.865 2.484-1.16a20.504 20.504 0 012.683-.698 27.292 27.292 0 012.713-.393c.467-.046.936-.086 1.404-.12.286-.022.574-.03.86-.039.434-.013.868-.031 1.302-.032.44 0 .878.016 1.318.027.186.005.372.011.557.022.444.027.888.053 1.33.088.382.03.764.06 1.143.111.649.09 1.297.186 1.943.3.872.152 1.731.364 2.577.631.775.245 1.533.538 2.25.932.52.285 1.009.614 1.413 1.063.262.292.466.62.547 1.018.087.428-.009.822-.221 1.188-.264.456-.643.792-1.059 1.086-.648.46-1.357.787-2.09 1.064-.965.366-1.956.635-2.963.833-.558.11-1.119.206-1.68.295-.35.056-.702.09-1.054.13-.347.037-.694.07-1.041.102-.194.017-.388.03-.582.038-.565.024-1.13.049-1.696.069-.195.006-.39 0-.584 0v-.016zm0-1.432c.43 0 .862.002 1.293 0 .163-.002.326-.011.49-.021.333-.02.667-.042 1.001-.066.227-.016.455-.035.681-.059.291-.03.581-.067.872-.099.216-.024.43-.058.63-.155.346-.167.452-.44.311-.808-.108-.284-.292-.515-.495-.729a39.622 39.622 0 00-3.47-3.252c-.264-.217-.53-.43-.845-.562-.199-.083-.403-.132-.618-.093-.354.064-.655.249-.933.473a31.361 31.361 0 00-2.101 1.846 81.143 81.143 0 00-1.664 1.669c-.206.21-.377.454-.458.751-.076.276.003.493.236.643a.732.732 0 00.23.109c.252.054.506.109.762.139.494.057.99.103 1.486.141.435.034.871.059 1.307.07.428.012.856.003 1.284.003zm-.31-6.89c-.022-.002-.044-.006-.066-.006l-1.14.021c-.124.003-.248.01-.372.019-.446.032-.892.064-1.338.101-.31.027-.623.05-.932.094a53.34 53.34 0 00-1.676.26 16.89 16.89 0 00-2.597.657c-.59.202-1.166.439-1.7.773-.373.232-.722.495-.962.884-.26.421-.265.849-.01 1.277.115.192.261.353.426.498.385.339.821.592 1.285.788.454.193.917.182 1.376.001.254-.1.464-.274.681-.437 1.675-1.261 3.35-2.524 5.026-3.782.62-.465 1.239-.932 1.998-1.147zm.617.003c.185.067.361.12.528.195a6.47 6.47 0 011.19.735c1.846 1.385 3.69 2.774 5.532 4.163.512.386 1.076.517 1.678.323.296-.095.574-.256.848-.41.35-.2.67-.446.922-.777.383-.505.392-1.056.002-1.554a3.05 3.05 0 00-.512-.508c-.522-.411-1.12-.676-1.73-.905a14.98 14.98 0 00-2.393-.671c-.5-.098-1.002-.183-1.504-.265a31.416 31.416 0 00-1.985-.228 21.937 21.937 0 00-.91-.055c-.532-.021-1.064-.036-1.596-.052-.02 0-.042.005-.07.009z" fill="#000"/></svg><svg fill="none" viewBox="0 0 28 10" id="iconChevrolet" xmlns="http://www.w3.org/2000/svg"><path d="M14.042 9.823H9.617c-.533-.001-.648-.112-.652-.616-.002-.295.002-.59-.001-.886-.004-.396-.084-.474-.503-.475-1.451-.002-2.903 0-4.354 0-1.169 0-2.337.001-3.505-.001-.577-.002-.744-.267-.48-.767.813-1.537 1.635-3.07 2.444-4.608.19-.362.48-.498.884-.496 1.629.006 3.257.002 4.886.002.604 0 .628-.025.629-.623 0-.261-.002-.523.002-.784.007-.433.145-.567.596-.568 1.404-.002 2.809 0 4.213 0h4.744c.513 0 .644.128.649.627.003.284 0 .568.001.852.001.461.037.498.532.498l7.611.001c.13 0 .265-.007.386.027.3.086.386.366.212.696-.554 1.053-1.115 2.103-1.674 3.154-.247.464-.515.92-.736 1.396-.207.445-.532.61-1.03.604-1.57-.018-3.14-.007-4.709-.006-.566 0-.595.03-.595.583 0 .273.005.546 0 .818-.006.436-.14.57-.593.57-1.51.004-3.021.002-4.532.002zM6.53 6.334H10c.512.001.533.023.534.53 0 .351.004.704-.001 1.056-.004.271.126.393.407.393 2.078-.003 4.156-.003 6.233 0 .303 0 .426-.146.424-.422-.002-.34 0-.682 0-1.023.002-.519.017-.534.562-.534 1.889 0 3.778-.001 5.667.002.224 0 .407-.024.524-.252.366-.713.754-1.415 1.124-2.125.143-.275.044-.431-.276-.462-.106-.01-.213-.005-.319-.005h-6.8c-.438 0-.485-.046-.488-.47-.002-.341.008-.682.005-1.023-.004-.402-.085-.48-.498-.481-1.098-.002-2.196 0-3.294 0-.909 0-1.818-.002-2.727 0-.486.001-.54.056-.54.535-.002.295 0 .59-.001.886 0 .538-.02.557-.576.556-1.877 0-3.754.01-5.631-.013-.404-.004-.623.126-.789.472-.296.618-.636 1.216-.956 1.824-.211.4-.111.554.369.555 1.192.003 2.385 0 3.577.001z" fill="#000"/></svg><svg fill="none" viewBox="0 0 28 12" id="iconFord" xmlns="http://www.w3.org/2000/svg"><g fill="#000"><path d="M0 6.087A2.958 2.958 0 01.36 4.632c.13-.242.26-.482.46-.676.127-.125.227-.282.358-.403.21-.193.43-.376.655-.551.194-.15.393-.297.603-.421.327-.194.659-.379.998-.547.326-.162.66-.309.997-.442.333-.132.674-.241 1.014-.354.263-.088.526-.176.794-.248.41-.11.82-.214 1.234-.308A18.68 18.68 0 018.64.448c.556-.09 1.115-.169 1.675-.232S11.438.11 12 .066c1.036-.079 2.073-.076 3.11-.048.4.01.8.032 1.2.06.438.032.875.07 1.312.12.408.046.814.105 1.22.167.371.057.742.116 1.11.19a26.389 26.389 0 012.252.567c.309.09.617.183.92.292.26.094.516.209.771.32.28.122.567.234.835.38.387.212.767.441 1.14.68.244.158.486.327.702.523.317.288.615.596.859.96.243.364.423.752.515 1.18.069.318.07.64.017.965a3.18 3.18 0 01-.326.972 3.8 3.8 0 01-.447.66 5.507 5.507 0 01-1.075.995c-.25.178-.501.358-.768.507-.397.222-.803.43-1.216.62-.388.176-.787.328-1.186.476-.28.103-.568.182-.853.27-.198.06-.396.125-.596.178a22.415 22.415 0 01-1.594.361c-.335.062-.672.118-1.01.17-.372.057-.745.113-1.119.16-.352.043-.706.08-1.06.108-.413.033-.826.064-1.24.075-.659.018-1.32.022-1.98.026-.32.001-.64-.004-.959-.021a44.08 44.08 0 01-1.497-.102c-.43-.038-.858-.093-1.287-.145-.264-.032-.529-.068-.792-.111-.308-.05-.616-.1-.921-.167a31.404 31.404 0 01-2.682-.7c-.191-.058-.374-.142-.562-.213-.132-.049-.269-.085-.397-.143-.449-.202-.899-.404-1.342-.62-.238-.117-.466-.258-.693-.397a7.425 7.425 0 01-1.078-.818 3.366 3.366 0 01-.588-.667C.558 7.683.4 7.481.292 7.253.102 6.856-.01 6.433 0 6.087zM14.229 11.3c.503-.02 1.082-.037 1.66-.067.392-.02.784-.05 1.175-.088.42-.04.839-.088 1.257-.144.322-.043.643-.104.964-.16.33-.059.662-.112.99-.184.39-.086.78-.18 1.165-.287.42-.117.838-.246 1.253-.382.299-.098.597-.203.886-.328.341-.147.677-.31 1.007-.482.248-.129.487-.277.725-.426.19-.118.38-.241.558-.379.172-.132.334-.28.49-.432.156-.151.319-.301.442-.479.162-.233.304-.48.406-.755.133-.36.157-.724.093-1.089a2.275 2.275 0 00-.403-.925 5.958 5.958 0 00-.373-.467 2.472 2.472 0 00-.3-.291c-.208-.17-.419-.337-.638-.491a6.757 6.757 0 00-.697-.45c-.35-.187-.712-.35-1.072-.516-.25-.115-.501-.227-.758-.323-.284-.107-.574-.2-.864-.288a41.118 41.118 0 00-1.209-.348c-.27-.073-.543-.134-.817-.191-.261-.055-.525-.096-.788-.144-.244-.044-.488-.092-.734-.13-.231-.035-.464-.061-.697-.087-.47-.052-.938-.112-1.408-.149A27.767 27.767 0 0015.09.744a46.89 46.89 0 00-1.655-.01c-.447.004-.895.022-1.341.043-.322.015-.644.037-.965.068-.416.04-.831.09-1.246.14-.239.029-.477.064-.714.103-.275.045-.55.097-.824.147-.26.048-.524.088-.782.15-.369.087-.734.19-1.1.29-.285.077-.573.15-.854.244-.328.11-.652.232-.972.361-.33.134-.66.267-.978.429-.361.185-.71.399-1.06.605a5.044 5.044 0 00-.905.695c-.25.238-.487.49-.66.796-.082.145-.173.289-.229.445-.12.338-.169.686-.116 1.05.061.422.243.785.488 1.115.13.176.28.34.437.491.2.193.408.377.626.548.174.137.364.254.552.37.198.123.4.24.603.35.14.075.29.135.434.202.177.083.35.175.53.247.253.102.51.19.766.283.207.076.41.162.621.225.423.126.848.247 1.276.354.414.104.831.195 1.25.28.399.08.8.154 1.204.211.453.064.91.113 1.365.155.554.051 1.11.101 1.665.129.548.027 1.098.026 1.722.04z"/><path d="M14.192 10.57c-.781-.024-1.562-.041-2.343-.075a19.597 19.597 0 01-1.195-.097c-.476-.05-.95-.108-1.425-.172-.257-.034-.51-.089-.766-.134-.228-.04-.456-.075-.682-.119a12.123 12.123 0 01-.557-.124c-.296-.072-.592-.143-.886-.224-.313-.086-.63-.164-.934-.278-.625-.233-1.25-.468-1.841-.788a6.65 6.65 0 01-1.17-.778c-.188-.16-.338-.366-.512-.545-.135-.14-.219-.312-.303-.484a1.66 1.66 0 01-.148-.926c.03-.293.124-.561.28-.8.185-.287.401-.548.668-.764.313-.254.635-.492.992-.678.25-.13.497-.27.754-.39.25-.115.509-.211.766-.31.18-.07.363-.136.547-.196a23.523 23.523 0 011.707-.479 24.11 24.11 0 011.737-.325c.429-.064.857-.136 1.287-.18.61-.064 1.223-.11 1.835-.155 1.042-.078 2.086-.072 3.13-.046.565.014 1.129.05 1.692.095.503.04 1.005.102 1.507.162.334.04.668.084 1 .14.357.062.711.136 1.065.212.407.088.818.163 1.216.282.613.184 1.225.38 1.824.61.405.155.791.367 1.176.573.246.13.479.29.71.447.303.205.566.46.795.747.192.24.34.518.414.819.111.455.043.893-.183 1.309-.209.384-.503.69-.83.954-.301.244-.639.446-.973.642a7.841 7.841 0 01-1.298.606c-.217.079-.428.173-.647.247-.237.08-.478.149-.719.216-.287.08-.575.162-.866.229a26.873 26.873 0 01-2.526.465c-.562.072-1.124.142-1.688.18-.775.053-1.551.075-2.327.11-.094.003-.188 0-.282 0l-.001.022zM6.99 5.537c-.077.011-.155.014-.228.034-.3.084-.546.269-.753.498-.276.306-.5.647-.61 1.063-.077.29-.086.578-.001.856.08.266.261.482.456.671.238.23.519.389.854.415.252.019.503.01.741-.094.137-.06.274-.12.406-.191.141-.076.282-.155.411-.25.15-.11.29-.237.431-.36.1-.088.2-.178.293-.274.093-.096.172-.205.265-.301.234-.24.436-.505.62-.787.07-.11.132-.225.202-.334.136-.211.275-.42.412-.629.095-.146.183-.282.393-.28.24.004.48-.037.722-.054a.915.915 0 01.186.008c.098.013.2.06.291.042a.442.442 0 00.259-.156.628.628 0 00.066-.603.436.436 0 00-.12-.182c-.17-.137-.545-.061-.627.238-.02.071-.029.167-.077.202-.05.038-.142.02-.216.022-.118.003-.236.001-.375.001.127-.16.237-.31.357-.451.115-.136.237-.265.36-.393.164-.171.323-.349.5-.506.238-.214.495-.406.736-.618.063-.055.112-.053.177-.03.022.009.044.018.067.024.432.112.864.229 1.298.334.289.07.579.142.873.18.379.047.761.07 1.143.087.37.016.74-.015 1.091-.136.35-.12.661-.314.836-.676.102-.213.172-.433.168-.675-.033-.005-.06-.016-.085-.01-.151.029-.301.061-.451.093-.23.05-.456.117-.688.146-.445.056-.892.1-1.34.13a7.123 7.123 0 01-1.458-.062c-.234-.033-.468-.07-.701-.11-.277-.049-.551-.108-.828-.154a9.862 9.862 0 00-.763-.106c-.546-.047-1.091-.097-1.638-.115a6.704 6.704 0 00-2.016.26c-.17.047-.344.11-.493.204a2.7 2.7 0 00-.495.413c-.248.26-.38.595-.434.948-.061.404-.053.807.175 1.173.124.197.284.349.484.45.227.116.475.152.728.126.238-.025.475-.08.662-.242.322-.278.57-.603.516-1.076-.026-.231-.04-.467-.194-.677-.031.021-.084.037-.094.068-.04.122-.058.253-.1.374-.088.254-.214.483-.424.656a.37.37 0 01-.301.077.682.682 0 00-.249.006c-.166.044-.282.007-.335-.186-.07-.26-.071-.512.013-.773.092-.282.235-.52.467-.696.185-.139.394-.218.621-.27a6.614 6.614 0 011.295-.157 7.969 7.969 0 011.75.172c.094.019.188.043.29.066-.19.142-.365.266-.53.401-.238.193-.475.387-.698.596-.211.197-.408.41-.605.623a8.79 8.79 0 00-.44.51c-.062.078-.132.097-.221.1-.148.003-.296.017-.444.019-.074 0-.105.032-.106.104l-.001.271c0 .07.033.102.1.098.042-.003.083 0 .149 0-.128.154-.234.286-.344.415-.145.17-.297.334-.438.508a4.278 4.278 0 01-.728.702c-.182.14-.382.256-.582.369-.232.131-.47.263-.75.222-.452-.064-.72-.33-.692-.797.018-.294.111-.565.252-.82a2.2 2.2 0 01.506-.588c.058-.05.082-.08.05-.156zm12.398 2.77c.005.109.013.208.014.307.004.367.35.536.642.445.26-.081.483-.235.677-.428.264-.261.524-.527.779-.798.078-.083.138-.186.198-.285.015-.025.014-.084-.004-.102a.137.137 0 00-.108-.032.244.244 0 00-.124.065c-.154.16-.313.317-.451.49-.21.262-.47.461-.724.67a.84.84 0 01-.233.12c-.075.03-.146-.044-.122-.12.046-.148.08-.302.15-.438.193-.38.397-.754.605-1.127.141-.253.298-.497.443-.748.113-.194.217-.395.331-.59.146-.249.3-.493.446-.743.115-.198.219-.403.333-.602.127-.223.261-.44.39-.663.049-.085.03-.117-.07-.114-.184.005-.37.01-.553.029a.213.213 0 00-.138.095c-.148.248-.283.505-.429.755-.179.308-.366.611-.544.92-.15.26-.292.525-.439.787-.033.058-.072.111-.113.173a.543.543 0 00-.506-.5 1.492 1.492 0 00-.69.104 3.127 3.127 0 00-.802.461c-.25.198-.478.42-.692.657-.116.128-.218.27-.34.39-.137.133-.29.25-.437.372-.125.102-.37.012-.385-.143a.846.846 0 01.283-.737c.162-.147.351-.262.515-.407.128-.114.242-.245.347-.382.072-.095-.008-.298-.116-.314-.223-.033-.452-.012-.614.153-.136.138-.228.325-.328.498-.078.135-.111.295-.236.404-.096.084-.184.178-.277.267-.059.057-.119.112-.199.187.013-.04.014-.05.02-.057.242-.306.294-.67.275-1.045a.493.493 0 00-.126-.303c-.142-.138-.333-.135-.514-.086-.226.062-.408.204-.577.364-.087.084-.17.173-.253.26-.146.15-.297.296-.435.454-.146.17-.276.355-.42.527-.157.19-.345.342-.574.43a.504.504 0 01-.344.03c.076-.113.156-.207.21-.315.135-.27.271-.54.297-.855.028-.353-.07-.646-.357-.846-.254-.176-.543-.142-.808-.046a3.188 3.188 0 00-1.16.74c-.249.247-.465.53-.694.798a.483.483 0 00-.073.13c-.024.059.046.134.109.118.03-.007.059-.022.08-.03.02.252.02.498.061.738.049.287.158.541.46.654.159.06.316.046.466.013.372-.08.664-.314.935-.575.142-.137.26-.28.498-.264.344.022.65-.13.901-.37.164-.156.317-.327.455-.513.168-.227.373-.427.572-.627.189-.188.367-.394.611-.512.075-.036.16-.094.232-.02.075.076.005.16-.033.225-.144.242-.294.481-.447.717-.153.237-.314.468-.468.704-.12.185-.233.375-.352.56-.102.162-.21.318-.312.48-.06.098-.038.147.072.142a9.19 9.19 0 00.621-.056c.134-.016.176-.152.25-.237.195-.223.366-.468.557-.695.147-.176.309-.339.467-.504.05-.052.109-.094.177-.152-.016.106-.027.194-.042.282-.026.151.08.426.238.47a.794.794 0 00.708-.121c.123-.088.237-.187.36-.285-.009.09-.024.174-.027.26-.007.26.043.512.147.746.131.293.38.427.676.357.307-.072.57-.25.796-.48.092-.092.186-.182.286-.28z"/><path d="M12.227 5.128c-.02.043-.03.103-.064.126-.043.03-.106.029-.16.041-.009-.05-.026-.102-.024-.152a.96.96 0 01.029-.213c.005-.02.056-.047.074-.04.1.04.14.121.145.238zM11.106 8.422c.014-.264.082-.511.182-.756.147-.361.376-.664.602-.97.152-.206.31-.408.55-.511.093-.04.197-.06.298-.074.109-.014.273.21.29.342.032.236-.013.461-.082.683a2.246 2.246 0 01-.44.795c-.232.27-.46.55-.776.728a1.489 1.489 0 01-.264.122c-.212.07-.351-.037-.36-.265-.001-.031 0-.062 0-.094zM19.644 6.148c.272 0 .45.127.403.377-.08.43-.26.81-.514 1.157-.21.287-.432.565-.7.794-.142.12-.294.243-.482.282-.232.047-.304-.05-.296-.298.005-.135.039-.275.086-.402.097-.256.19-.518.325-.753.133-.234.308-.443.476-.653.094-.117.201-.229.322-.314.136-.096.283-.186.38-.19z"/></g></svg><svg fill="none" viewBox="0 0 28 8" id="iconGeely" xmlns="http://www.w3.org/2000/svg"><g fill="#000"><path d="M7.938 3.792a81.56 81.56 0 0012.155.002c-.086 1.086-.173 2.105-.242 3.125-.02.294-.152.441-.445.483-2.104.303-4.201.739-6.342.554-1.508-.13-3.008-.364-4.508-.577-.132-.019-.327-.213-.34-.342-.11-1.049-.185-2.102-.278-3.245zM20.172 3.336c-4.133.376-8.17.364-12.295.003V0h12.295v3.336zM27.985 2.797l-7.32.54V.023c.228 0 .392-.003.556 0 1.598.038 3.196.072 4.794.119.343.01.688.048 1.027.101.546.085.883.392.933.934.048.526.01 1.06.01 1.62zM.014 2.795c0-.53-.037-1.032.009-1.528C.082.631.459.276 1.128.231 2.362.148 3.599.09 4.836.049 5.647.022 6.46.043 7.31.043l.144 3.304-7.441-.552zM20.248 7.254c.096-1.116.174-2.15.288-3.181.014-.123.215-.312.342-.322 1.372-.116 2.747-.2 4.12-.299.964-.069 1.928-.148 2.915-.224-.064 1.326-.68 2.282-1.925 2.68-1.344.43-2.738.713-4.114 1.042-.513.122-1.038.196-1.626.304zM.125 3.235l6.134.458c.047.004.094.011.14.016.354.035.811-.045 1.03.141.19.164.124.627.153.959.069.789.128 1.579.197 2.447-.835-.161-1.626-.297-2.41-.47-.941-.207-1.887-.413-2.812-.68C1.125 5.697.187 4.838.125 3.236z"/></g></svg><svg fill="none" viewBox="0 0 28 28" id="iconHaval" xmlns="http://www.w3.org/2000/svg"><g fill="#000"><path d="M2.317 13.824a6.104 6.104 0 011.833-.294c.021 0 .036-.01.046-.028.25-.493.517-.978.798-1.454a.087.087 0 01.08-.045h1.47c.004 0 .008 0 .012.003a.025.025 0 01.01.033 18.64 18.64 0 00-1.05 2.142 61.79 61.79 0 00-.699 1.786.043.043 0 01-.044.03H3.261l-.005-.001-.004-.004-.003-.005v-.006c.171-.57.37-1.144.6-1.721.007-.02 0-.031-.022-.032-.496-.006-.917.048-1.264.164a1.078 1.078 0 00-.597.47c-.19.309-.335.676-.435 1.1-.006.024-.02.035-.044.035H.018A.018.018 0 010 15.982a13.828 13.828 0 011.734-3.914c.054-.083.097-.066.182-.066.427.002.873.001 1.34-.002a.02.02 0 01.01.003.02.02 0 01.01.017.02.02 0 01-.003.01 18.289 18.289 0 00-.972 1.776c-.009.018-.003.024.016.018zM14.708 14.474l.001.003.002.001h.005a33.955 33.955 0 002.33-2.443.095.095 0 01.071-.032l1.712-.001a.019.019 0 01.017.011.018.018 0 01.002.011.018.018 0 01-.005.01l-3.845 3.932a.102.102 0 01-.073.03h-1.562c-.012 0-.018-.005-.02-.018l-.296-3.943c0-.004 0-.008.002-.012a.03.03 0 01.027-.02h1.37c.023 0 .035.011.037.033l.225 2.438zM25.219 13.24c-.135.49-.32 1.021-.557 1.594-.118.29.085.385.33.385.979 0 1.974 0 2.988-.002a.02.02 0 01.01.003.02.02 0 01.008.01c.002.003.002.007.002.01a.021.021 0 01-.005.012l-.606.72a.07.07 0 01-.054.025c-1.081-.002-2.17 0-3.266.003-.223 0-.407-.024-.551-.073-.373-.128-.445-.463-.307-.79.448-1.06.792-2.096 1.035-3.11a.033.033 0 01.011-.017.031.031 0 01.02-.007l1.778-.001c.053 0 .057.015.015.045-.405.286-.715.7-.851 1.193zM9.659 15.223a10.51 10.51 0 00-1.43.035 1.443 1.443 0 00-.83.4c-.096.09-.168.213-.251.317a.058.058 0 01-.047.022H5.664c-.003 0-.007 0-.01-.003a.016.016 0 01-.006-.007.017.017 0 01.003-.018l.794-.976a12.076 12.076 0 012.168-2.071c.382-.283.731-.485 1.048-.606.73-.28 1.596-.315 2.39-.312a.02.02 0 01.017.008.02.02 0 01.002.02 30.787 30.787 0 00-1.368 3.932c-.005.022-.02.033-.042.033H9.506c-.03 0-.04-.014-.03-.043l.208-.696c.007-.023-.001-.034-.025-.035zm.295-.736c.204-.553.433-1.078.691-1.603.011-.022.004-.033-.02-.032-.522.02-.948.227-1.346.582A9.88 9.88 0 008.243 14.5c0 .003 0 .006.002.009a.016.016 0 00.014.009l1.653-.002a.045.045 0 00.042-.029zM20.73 15.224a11.945 11.945 0 00-1.121.014c-.38.023-.716.13-1.005.32-.162.106-.281.265-.406.412a.073.073 0 01-.057.027h-1.416c-.075 0-.081-.02-.02-.063a.727.727 0 00.1-.08c.885-.853 1.738-1.691 2.56-2.517.493-.495.997-.931 1.658-1.12.663-.19 1.332-.202 2.035-.216.016 0 .022.008.017.024a41.55 41.55 0 01-1.376 3.953.032.032 0 01-.03.02h-1.221a.02.02 0 01-.01-.004.022.022 0 01-.01-.027l.314-.723v-.007c0-.002 0-.004-.002-.006a.014.014 0 00-.011-.007zm.341-.762l.57-1.571c.01-.028 0-.04-.03-.038a1.865 1.865 0 00-1.206.567 59.52 59.52 0 00-1.048 1.077c-.017.017-.013.026.012.026.526-.01 1.066-.01 1.618-.002.042 0 .07-.019.085-.059z"/></g></svg><svg fill="none" viewBox="0 0 23 20" id="iconHonda" xmlns="http://www.w3.org/2000/svg"><g fill="#000"><path d="M11.56 19.586c-1.85-.031-3.7-.053-5.542-.233-.869-.085-1.725-.24-2.551-.543-1.173-.43-1.953-1.241-2.382-2.431C.733 15.403.549 14.39.41 13.37c-.31-2.305-.467-4.62-.393-6.949.022-.664.053-1.33.182-1.984.354-1.802 1.48-2.817 3.191-3.245C4.53.91 5.692.82 6.855.736 9.232.568 11.613.554 13.993.63c1.706.054 3.412.133 5.096.45.758.144 1.49.376 2.134.83 1.132.8 1.556 1.978 1.656 3.306.116 1.539.173 3.081.06 4.623-.15 2.036-.302 4.074-.853 6.053-.409 1.472-1.262 2.524-2.733 2.997-.762.244-1.545.388-2.338.468-1.814.184-3.635.199-5.456.23zm-.054-.803c1.348.01 2.694-.036 4.037-.122.946-.061 1.89-.148 2.812-.39 1.124-.296 1.953-.942 2.4-2.058a8.532 8.532 0 00.486-1.687c.538-3.06.715-6.14.444-9.24-.175-1.998-1.137-3.074-3.07-3.46-1.53-.305-3.084-.384-4.636-.45a62.706 62.706 0 00-5.8.043c-1.29.064-2.572.171-3.843.406-1.672.31-2.598 1.165-2.938 2.757-.143.67-.175 1.355-.2 2.039-.071 1.988.002 3.97.232 5.945.133 1.138.3 2.269.677 3.359.426 1.234 1.246 2.017 2.494 2.34.524.137 1.057.23 1.593.286 1.766.186 3.539.226 5.312.232z"/><path d="M15.635 18.14c-.655.015-.655.015-.767-.454a27.17 27.17 0 00-.752-2.632c-.286-.823-.84-1.235-1.69-1.307-.703-.06-1.399-.04-2.098.04-.681.078-1.13.436-1.389 1.075-.318.786-.52 1.607-.738 2.424-.032.12-.06.242-.093.363-.137.51-.137.517-.672.489-.501-.026-1.001-.081-1.503-.1-.216-.009-.269-.11-.282-.301-.076-1.047-.162-2.094-.236-3.141-.151-2.134-.301-4.268-.444-6.402-.108-1.625-.203-3.25-.305-4.876-.017-.279-.032-.558-.055-.836-.011-.135.034-.188.17-.196.406-.024.813-.055 1.219-.094.24-.023.22.17.25.305.31 1.388.597 2.783.925 4.167.304 1.28.566 2.572 1.004 3.818.426 1.21 1.257 1.835 2.516 1.887.654.027 1.304.04 1.957-.049 1.029-.141 1.678-.736 2.05-1.69.458-1.176.708-2.414 1.002-3.637.354-1.477.666-2.964.982-4.45.058-.276.148-.394.447-.341.316.055.641.063.963.071.2.005.255.081.241.28-.074 1.086-.134 2.173-.203 3.26-.104 1.625-.204 3.25-.317 4.875-.137 1.97-.286 3.94-.43 5.91-.03.393-.067.787-.085 1.181-.007.17-.07.237-.235.248-.54.037-1.078.085-1.432.113z"/></g></svg><svg fill="none" viewBox="0 0 28 28" id="iconSkoda" xmlns="http://www.w3.org/2000/svg"><g fill="#000"><path d="M28 14.015C27.956 21.843 21.665 28.05 13.824 28 6.147 27.952-.059 21.604 0 13.844.057 6.452 6-.093 14.165.001 22.127.093 27.983 6.516 28 14.015zm-.345-.024C27.634 6.425 21.52.316 13.986.333 6.298.351.216 6.65.332 14.217c.112 7.37 6.145 13.479 13.742 13.45 7.495-.027 13.604-6.172 13.582-13.676z"/><path d="M26.673 14.003c0 7.02-5.679 12.689-12.705 12.682C6.978 26.678 1.3 20.98 1.31 13.981 1.32 6.976 6.997 1.318 14.007 1.326a12.654 12.654 0 0112.666 12.677zM13.99 25.586c6.383.002 11.57-5.175 11.577-11.554A11.555 11.555 0 0014.018 2.426C7.618 2.413 2.415 7.594 2.41 13.987c-.005 6.39 5.192 11.596 11.58 11.599z"/><path d="M10.04 10.297c-.286-.247-.518-.485-.785-.671a143.666 143.666 0 00-2.818-1.91c-.358-.236-.378-.26-.095-.587.644-.744 1.397-1.354 2.225-1.884.365-.234.65-.221 1.01-.006a18.478 18.478 0 013.221 2.405c.34.32.712.582 1.337.508-.519-.665-.965-1.301-1.48-1.877-.496-.554-1.068-1.04-1.596-1.566-.098-.098-.225-.26-.201-.36.024-.101.206-.2.337-.237 1.133-.328 2.292-.478 3.47-.375.235.02.5.123.68.274 2.117 1.776 3.368 4.066 3.844 6.764.308 1.743.233 3.5-.144 5.234-.17.783-.375 1.558-.556 2.339-.098.422.094.642.512.633.288-.005.335-.181.345-.408.027-.613.054-.633.674-.496a5.8 5.8 0 012.662 1.373c.275.247.273.398-.004.648a5.871 5.871 0 01-2.863 1.417c-.372.073-.465-.017-.47-.41-.005-.499-.03-.524-.526-.524-3.009 0-6.017-.006-9.025.01-.28.002-.568.126-.836.235-.457.185-.806.62-1.369.571a5.624 5.624 0 00-.826 0c-.221.013-.35-.074-.477-.254-.562-.796-1.15-1.573-1.709-2.371-.105-.15-.194-.394-.143-.545.039-.115.31-.21.479-.213.883-.021 1.768-.016 2.652-.005.165.002.341.046.493.113.546.241 1.075.52 1.628.741.187.075.477.096.627-.002.125-.082.182-.382.155-.569-.35-2.353-1.718-3.902-3.89-4.752-.721-.283-1.493-.44-2.247-.631-.434-.11-.543-.235-.467-.674.182-1.045.508-2.04 1-2.984.169-.324.39-.443.724-.316 1.039.392 2.071.8 3.112 1.187.338.125.693.209 1.045.291.068.017.158-.06.295-.116zm4.538 6.194c.001.72.565 1.294 1.276 1.302a1.31 1.31 0 001.308-1.315 1.29 1.29 0 00-1.285-1.291c-.737-.005-1.3.56-1.299 1.304z"/></g></svg><svg fill="none" viewBox="0 0 28 15" id="iconSubaru" xmlns="http://www.w3.org/2000/svg"><g fill="#000"><path d="M13.518 14.998c-3.709-.154-7.136-.754-10.184-2.665a9.748 9.748 0 01-2.118-1.806C-.41 8.673-.39 6.4 1.188 4.51c1.272-1.523 2.947-2.485 4.8-3.104 6.067-2.028 12.065-1.965 17.888.854.962.466 1.857 1.168 2.617 1.923 2.001 1.99 1.995 4.561.066 6.625-1.591 1.703-3.654 2.611-5.85 3.266-2.398.715-4.863.946-7.191.924zm.216-.91c2.661-.006 5-.303 7.265-1.055 1.683-.56 3.266-1.306 4.53-2.584 1.786-1.803 1.795-4.005.024-5.813-1.027-1.05-2.279-1.765-3.646-2.269C17.061.583 12.156.527 7.225 1.985c-1.74.515-3.355 1.296-4.66 2.589-1.844 1.83-1.88 4.08-.004 5.88.718.688 1.581 1.278 2.472 1.732 2.808 1.431 5.856 1.864 8.701 1.901z"/><path d="M21.697 7.9c-.08-.255-.192-.506-.233-.767-.103-.66-.536-.846-1.144-.936-2.03-.302-4.02.074-6.02.28-.564.058-1.124.15-1.687.22-.867.108-1.433.548-1.656 1.405-.233.894-.49 1.782-.853 2.706-.062-.18-.136-.356-.184-.539-.196-.747-.372-1.498-.578-2.242-.205-.74-.678-1.185-1.476-1.29C6.296 6.53 4.73 6.3 3.161 6.08c-.248-.035-.495-.079-.743-.118l-.012-.152c.714-.104 1.427-.211 2.141-.313 1.084-.156 2.169-.302 3.251-.463.806-.12 1.348-.552 1.598-1.339.213-.67.459-1.331.827-2.004.172.519.377 1.03.51 1.558.278 1.106.942 1.714 2.114 1.834 1.73.177 3.452.466 5.185.595.865.064 1.759-.07 2.62-.222.298-.053.571-.403.793-.668.148-.178.185-.447.3-.747.086.121.15.173.16.233.172.975.83 1.307 1.75 1.344.375.015.747.121 1.12.186v.148c-.43.08-.858.213-1.291.228-.843.031-1.366.372-1.487 1.232-.023.163-.114.316-.174.473l-.126.015z"/><path d="M19.643 12.827c-.065-.045-.093-.054-.096-.068-.187-1.15-1.073-1.328-2.002-1.314-.972.015-1.948.117-2.91.262-.234.035-.472.358-.61.603-.164.288-.221.635-.444.95-.088-.267-.201-.53-.26-.804-.11-.524-.404-.788-.957-.84-.653-.06-1.299-.184-1.948-.28l.002-.176c.454-.065.906-.176 1.361-.185.912-.017 1.55-.328 1.698-1.299.01-.07.076-.132.163-.275.098.217.196.374.24.543.154.602.536.942 1.16.96 1.05.03 2.1.037 3.15.037.68-.001 1.085-.352 1.223-1.01.02-.102.085-.194.15-.336.087.101.168.153.175.212.1.936.782 1.084 1.55 1.144.434.035.864.114 1.296.172l-.004.154c-.487.077-.973.203-1.461.219-.766.024-1.196.377-1.35 1.101-.014.07-.07.132-.126.23z"/><path d="M17.677 10.591c-.105-.327-.23-.65-.312-.983-.095-.393-.336-.585-.729-.641-.706-.1-1.41-.213-2.116-.32l-.002-.179c.375-.057.75-.153 1.127-.163.976-.025 1.788-.238 1.954-1.375.009-.06.085-.112.142-.183.344 1.549 1.593 1.574 2.776 1.617.635.022 1.284-.091 1.91-.22.221-.046.424-.297.58-.497.135-.172.193-.404.363-.667.243 1.496 1.564 1.165 2.63 1.56-.322.08-.491.132-.664.163-.173.031-.35.043-.524.06-.698.068-1.18.368-1.273 1.114-.015.122-.094.236-.17.42-.083-.162-.166-.257-.179-.36-.11-.861-.685-1.182-1.468-1.152-1.01.037-2.022.12-3.023.256-.215.03-.443.341-.565.574-.157.297-.213.646-.312.972l-.145.005z"/></g></svg><svg fill="none" viewBox="0 0 28 28" id="iconSuzuki" xmlns="http://www.w3.org/2000/svg"><path d="M14.063 2c.537.394 1.073.791 1.612 1.182 1.875 1.359 3.751 2.715 5.627 4.072l4.64 3.358c.017.013.032.03.058.053a3.92 3.92 0 01-.838.878c-.794.613-1.707.932-2.688 1.094a9.884 9.884 0 01-2.62.059c-.592-.06-1.181-.149-1.74-.363a1.817 1.817 0 01-.437-.234c-1.961-1.469-3.92-2.94-5.875-4.416-.09-.069-.147-.067-.231-.007-.194.138-.392.27-.603.414l14.524 10.975c-4.126 1.857-7.97 4.179-11.586 6.935L2 17.064a7.908 7.908 0 011.44-1.06 6.345 6.345 0 012.485-.823c1.247-.138 2.436.1 3.586.583.894.374 1.66.94 2.422 1.52 1.045.797 2.096 1.585 3.144 2.378.453.342.904.686 1.368 1.039l.578-.537L2.025 8.812c.244-.096.468-.179.689-.27 1.382-.576 2.718-1.247 4.04-1.947a68.846 68.846 0 004.512-2.59c.915-.576 1.813-1.174 2.64-1.874.045-.038.082-.087.124-.131h.033z" fill="#000"/></svg><svg fill="none" viewBox="0 0 24 24" id="smallDown" xmlns="http://www.w3.org/2000/svg"><path d="M18.71 8.21a1 1 0 00-1.42 0l-4.58 4.58a1 1 0 01-1.42 0L6.71 8.21a1 1 0 10-1.42 1.41l4.59 4.59a3 3 0 004.24 0l4.59-4.59a1 1 0 000-1.41z" fill="#000"/></svg></svg>