<?xml version="1.0" encoding="utf-8"?><svg viewBox="0 0 24 24" xmlns="http://www.w3.org/2000/svg" xmlns:xlink="http://www.w3.org/1999/xlink"><style>:root>svg{display:none}:root>svg:target{display:block}</style><svg viewBox="0 0 24 24" id="location" xmlns="http://www.w3.org/2000/svg"><path d="M12 21.6s7.512-6.678 7.512-11.687a7.513 7.513 0 10-15.026 0C4.486 14.922 12 21.6 12 21.6z"/><path d="M14.4 9.6a2.4 2.4 0 11-4.8 0 2.4 2.4 0 014.8 0z"/></svg><svg viewBox="0 0 24 24" id="phone" xmlns="http://www.w3.org/2000/svg"><path d="M21.245 15.973a2.588 2.588 0 010 3.655l-.76.875C13.648 27.048-2.989 10.417 3.455 3.56l.96-.835a2.572 2.572 0 013.613.034C8.054 2.783 9.6 4.793 9.6 4.793a2.588 2.588 0 01-.005 3.574l-.967 1.215a10.668 10.668 0 005.786 5.797l1.223-.972a2.589 2.589 0 013.573-.005s2.009 1.546 2.035 1.572zm-1.149 1.214s-1.998-1.537-2.023-1.563a.918.918 0 00-1.294 0c-.022.024-1.706 1.365-1.706 1.365a.834.834 0 01-.817.127 12.53 12.53 0 01-7.364-7.352.835.835 0 01.122-.835s1.341-1.684 1.364-1.706a.918.918 0 000-1.293c-.026-.025-1.563-2.024-1.563-2.024a.918.918 0 00-1.26.033l-.96.834c-4.71 5.663 9.707 19.28 14.67 14.59l.76-.876a.936.936 0 00.071-1.3z"/></svg><svg viewBox="0 0 24 24" id="watch" xmlns="http://www.w3.org/2000/svg"><path d="M15.559 15.199a1 1 0 00.632-1.898L15.56 15.2zM12.5 13.125h-1a1 1 0 00.684.949l.316-.949zm1-4.704a1 1 0 10-2 0h2zm2.691 4.88l-3.375-1.125-.632 1.898 3.375 1.125.632-1.898zm-2.691-.176V8.421h-2v4.704h2zm7-1.125a8 8 0 01-8 8v2c5.523 0 10-4.477 10-10h-2zm-8 8a8 8 0 01-8-8h-2c0 5.523 4.477 10 10 10v-2zm-8-8a8 8 0 018-8V2c-5.523 0-10 4.477-10 10h2zm8-8a8 8 0 018 8h2c0-5.523-4.477-10-10-10v2z"/></svg></svg>