<?xml version="1.0" encoding="utf-8"?><svg viewBox="0 0 118 43" xmlns="http://www.w3.org/2000/svg" xmlns:xlink="http://www.w3.org/1999/xlink"><style>:root>svg{display:none}:root>svg:target{display:block}</style><svg viewBox="0 0 24 24" id="arrowSlider" xmlns="http://www.w3.org/2000/svg"><path d="M10.6 12.71a.997.997 0 01-.219-1.095.999.999 0 01.219-.325l4.59-4.58a1.001 1.001 0 10-1.41-1.42L9.19 9.88a3 3 0 000 4.24l4.59 4.59a1 1 0 001.41-1.42l-4.59-4.58z"/></svg><svg viewBox="0 0 118 43" id="carType1" xmlns="http://www.w3.org/2000/svg"><g clip-path="url(#bclip0_5058_2641)"><path d="M15.617 43c-4.523 0-8.203-3.655-8.203-8.148s3.68-8.148 8.203-8.148 8.203 3.655 8.203 8.148S20.14 43 15.617 43zm0-15.7c-4.191 0-7.602 3.389-7.602 7.552s3.41 7.55 7.602 7.55 7.602-3.386 7.602-7.55-3.41-7.551-7.602-7.551z"/><path d="M15.617 41.624c-3.759 0-6.817-3.039-6.817-6.772 0-3.734 3.058-6.772 6.817-6.772 3.758 0 6.817 3.038 6.817 6.772 0 3.733-3.059 6.772-6.817 6.772zm0-12.947c-3.428 0-6.216 2.77-6.216 6.175s2.788 6.175 6.216 6.175c3.428 0 6.216-2.77 6.216-6.175s-2.788-6.175-6.216-6.175zM66.118 21.688a.301.301 0 01-.28-.188l-.17-.426-3.923.36a.299.299 0 11-.054-.595l4.145-.38a.3.3 0 01.306.187l.255.634a.297.297 0 01-.279.41v-.002zM90.645 20.732a.301.301 0 01-.28-.187l-.17-.427-3.923.36a.298.298 0 11-.054-.594l4.145-.38a.3.3 0 01.306.186l.255.634a.298.298 0 01-.279.41v-.002z"/><path d="M15.617 37.29a2.449 2.449 0 01-2.455-2.438c0-1.345 1.1-2.438 2.455-2.438a2.449 2.449 0 012.455 2.438c0 1.345-1.101 2.438-2.455 2.438zm0-4.28a1.85 1.85 0 00-1.854 1.842 1.85 1.85 0 001.854 1.841 1.85 1.85 0 001.853-1.841 1.85 1.85 0 00-1.853-1.841z"/><path d="M15.617 40.51c-3.14 0-5.695-2.537-5.695-5.658 0-3.12 2.555-5.659 5.695-5.659s5.697 2.538 5.697 5.659c0 3.12-2.555 5.659-5.697 5.659zm0-10.718c-2.81 0-5.094 2.27-5.094 5.06 0 2.79 2.286 5.06 5.094 5.06 2.808 0 5.095-2.27 5.095-5.06 0-2.79-2.285-5.06-5.095-5.06z"/><path d="M15.617 35.938a1.092 1.092 0 01-1.094-1.086c0-.599.491-1.086 1.094-1.086.602 0 1.093.487 1.093 1.086 0 .598-.49 1.086-1.093 1.086zm0-1.575a.49.49 0 00-.493.489c0 .27.22.489.493.489a.49.49 0 00.492-.49.49.49 0 00-.492-.488z"/><path d="M15.64 34.253a.3.3 0 01-.3-.298V28.58a.3.3 0 01.3-.3.3.3 0 01.3.3v5.374a.3.3 0 01-.3.298zM15.64 41.538a.3.3 0 01-.3-.298v-5.613a.3.3 0 01.3-.299.3.3 0 01.3.299v5.613a.3.3 0 01-.3.298zM16.182 34.57a.3.3 0 01-.212-.51l3.868-3.842a.302.302 0 01.425 0 .297.297 0 010 .423l-3.868 3.841a.302.302 0 01-.211.088h-.002zM11.057 39.663a.296.296 0 01-.212-.088.297.297 0 010-.422l3.957-3.931a.302.302 0 01.425 0 .297.297 0 010 .422l-3.957 3.931a.302.302 0 01-.212.088h-.001zM21.832 35.269h-5.41a.3.3 0 01-.301-.3.3.3 0 01.3-.298h5.41a.3.3 0 01.301.299.3.3 0 01-.3.299z"/><path d="M14.727 35.26h-.008l-5.596-.127a.3.3 0 01-.293-.305.298.298 0 01.307-.292l5.597.127a.3.3 0 01.293.306.3.3 0 01-.3.29zM19.94 39.707a.291.291 0 01-.211-.088l-3.867-3.841a.297.297 0 010-.423.302.302 0 01.425 0l3.867 3.842a.297.297 0 010 .422.302.302 0 01-.212.088h-.001z"/><path d="M14.905 34.705a.302.302 0 01-.217-.092l-3.868-4.02a.297.297 0 01.01-.423c.12-.114.311-.11.426.01l3.867 4.02a.297.297 0 01-.217.505zM16.282 34.691a.3.3 0 01-.171-.543l4.481-3.115a.3.3 0 01.418.074.297.297 0 01-.074.415l-4.482 3.115a.299.299 0 01-.172.054zM10.342 38.82a.297.297 0 01-.172-.543l4.585-3.188a.3.3 0 01.418.074.297.297 0 01-.074.415l-4.585 3.188a.299.299 0 01-.171.054zM19.085 40.398a.299.299 0 01-.246-.128l-3.136-4.45a.297.297 0 01.074-.415.3.3 0 01.418.074l3.136 4.45a.297.297 0 01-.246.47z"/><path d="M15.001 34.602a.302.302 0 01-.25-.134l-3.105-4.626a.298.298 0 01.083-.414.302.302 0 01.417.082l3.104 4.627a.298.298 0 01-.249.463v.002zM16.065 34.47a.299.299 0 01-.246-.468l3.126-4.458a.3.3 0 01.418-.073c.136.093.17.28.074.415l-3.126 4.457a.3.3 0 01-.248.128h.002zM11.921 40.38a.3.3 0 01-.246-.47l3.199-4.56a.3.3 0 01.418-.074c.136.093.17.28.074.415l-3.199 4.56a.3.3 0 01-.246.129zM20.677 38.87a.3.3 0 01-.172-.054l-4.487-3.105a.296.296 0 01-.075-.416.3.3 0 01.418-.074l4.487 3.106a.299.299 0 01-.172.543z"/><path d="M14.831 34.826a.306.306 0 01-.177-.057l-4.52-3.281a.297.297 0 01-.066-.417.301.301 0 01.419-.065l4.52 3.281a.297.297 0 01-.177.54h.001z"/><path d="M86.258 38.533H25.202A1.226 1.226 0 0124.012 37c.181-.698.273-1.422.273-2.148 0-2.266-.928-4.426-2.612-6.081-1.636-1.608-3.825-2.53-6.005-2.53-4.608 0-8.6 3.84-8.718 8.386a8.578 8.578 0 00.392 2.802c.019.059.018.12.002.174l.99.213a.3.3 0 01.23.356.303.303 0 01-.357.229l-1.373-.298c-.273-.04-3.962-.598-6.12-1.973a.3.3 0 01-.137-.23C.32 32.384.542 28.343 3.863 22.632a.306.306 0 01.143-.125c9.003-3.806 24.988-4.328 35.565-4.674l1.044-.034c8.341-5.569 15.972-7.885 16.048-7.908a.268.268 0 01.048-.01C56.781 9.873 63.753 9 72.2 9c7.809 0 18.516.768 25.188 4.426l5.875 2.626c.433.047 3.753.41 6.533.657 1.579.14 4.321 3.678 4.798 5.175 1.089 3.414 1.616 7.032 1.866 9.465a4.84 4.84 0 01-2.105 4.498l-1.241.843a.292.292 0 01-.116.047l-5.952 1.075a.332.332 0 01-.054.004h-3.1a.3.3 0 01-.286-.388 8.598 8.598 0 00.395-2.576c0-4.722-3.866-8.585-8.618-8.61h-.049c-4.665 0-8.548 3.752-8.667 8.385a8.577 8.577 0 00.392 2.802.83.83 0 01-.11.753.847.847 0 01-.687.352l-.004-.001zm-70.59-12.888c2.336 0 4.68.985 6.427 2.702 1.8 1.768 2.791 4.078 2.791 6.506 0 .778-.097 1.55-.29 2.298a.63.63 0 00.115.553c.12.148.3.233.491.233h61.056a.242.242 0 00.229-.318 9.143 9.143 0 01-.422-3.006c.127-4.973 4.314-9 9.32-8.968 5.082.028 9.217 4.16 9.217 9.207a9.23 9.23 0 01-.309 2.367h2.673l5.862-1.06 1.188-.807a4.246 4.246 0 001.847-3.944c-.247-2.405-.767-5.98-1.842-9.345-.452-1.416-3.058-4.653-4.278-4.761-2.971-.262-6.557-.66-6.593-.663a.289.289 0 01-.09-.024l-5.93-2.65a.16.16 0 01-.021-.012c-6.557-3.6-17.16-4.356-24.9-4.356H72.2c-8.151 0-14.92.816-15.387.873-.472.145-7.872 2.475-15.933 7.872a.313.313 0 01-.157.052l-1.13.037c-10.496.342-26.34.86-35.257 4.588-3.148 5.444-3.401 9.32-3.17 12.687 1.819 1.098 4.771 1.644 5.564 1.776a9.15 9.15 0 01-.38-2.87c.061-2.39 1.087-4.647 2.89-6.356 1.753-1.66 4.096-2.613 6.429-2.613l-.002.002z"/><path d="M95.33 43c-4.523 0-8.203-3.655-8.203-8.148s3.68-8.148 8.203-8.148 8.203 3.655 8.203 8.148S99.853 43 95.33 43zm0-15.7c-4.191 0-7.602 3.389-7.602 7.552s3.41 7.55 7.602 7.55 7.601-3.386 7.601-7.55S99.522 27.3 95.33 27.3z"/><path d="M95.33 41.624c-3.759 0-6.818-3.039-6.818-6.772 0-3.734 3.06-6.772 6.818-6.772 3.758 0 6.817 3.038 6.817 6.772 0 3.733-3.059 6.772-6.817 6.772zm0-12.947c-3.428 0-6.216 2.77-6.216 6.175s2.788 6.175 6.216 6.175c3.428 0 6.216-2.77 6.216-6.175s-2.788-6.175-6.216-6.175z"/><path d="M95.33 37.29a2.449 2.449 0 01-2.455-2.438c0-1.345 1.1-2.438 2.455-2.438a2.449 2.449 0 012.454 2.438c0 1.345-1.1 2.438-2.454 2.438zm0-4.28a1.85 1.85 0 00-1.854 1.842 1.85 1.85 0 001.854 1.841 1.85 1.85 0 001.853-1.841 1.85 1.85 0 00-1.853-1.841z"/><path d="M95.33 40.51c-3.14 0-5.697-2.537-5.697-5.658 0-3.12 2.555-5.659 5.697-5.659 3.141 0 5.696 2.538 5.696 5.659 0 3.12-2.555 5.659-5.696 5.659zm0-10.718c-2.81 0-5.096 2.27-5.096 5.06 0 2.79 2.286 5.06 5.096 5.06s5.095-2.27 5.095-5.06c0-2.79-2.286-5.06-5.095-5.06z"/><path d="M95.33 35.938a1.092 1.092 0 01-1.094-1.086c0-.599.491-1.086 1.094-1.086.602 0 1.093.487 1.093 1.086 0 .598-.49 1.086-1.093 1.086zm0-1.575a.49.49 0 00-.493.489c0 .27.22.489.493.489a.49.49 0 00.492-.49.49.49 0 00-.492-.488z"/><path d="M95.353 34.253a.3.3 0 01-.301-.298V28.58a.3.3 0 01.3-.3.3.3 0 01.301.3v5.374a.3.3 0 01-.3.298zM95.353 41.538a.3.3 0 01-.301-.298v-5.613a.3.3 0 01.3-.299.3.3 0 01.301.299v5.613a.3.3 0 01-.3.298zM95.895 34.57a.3.3 0 01-.212-.51l3.868-3.842a.302.302 0 01.425 0 .297.297 0 010 .423l-3.868 3.841a.302.302 0 01-.212.088zM90.77 39.663a.296.296 0 01-.212-.088.297.297 0 010-.422l3.957-3.931a.302.302 0 01.425 0 .297.297 0 010 .422l-3.957 3.931a.302.302 0 01-.212.088h-.002zM101.544 35.269h-5.41a.3.3 0 01-.3-.3.3.3 0 01.3-.298h5.41a.3.3 0 01.301.299.3.3 0 01-.301.299z"/><path d="M94.44 35.26h-.008l-5.596-.127a.3.3 0 01-.294-.305.298.298 0 01.308-.292l5.597.127a.3.3 0 01.293.306.3.3 0 01-.3.29zM99.654 39.707a.291.291 0 01-.212-.088l-3.868-3.841a.297.297 0 010-.423.302.302 0 01.425 0l3.868 3.842a.297.297 0 010 .422.302.302 0 01-.212.088h-.001z"/><path d="M94.618 34.705a.302.302 0 01-.217-.092l-3.868-4.02a.297.297 0 01.01-.423c.12-.114.311-.11.425.01l3.868 4.02a.297.297 0 01-.218.505zM95.995 34.691a.299.299 0 01-.172-.543l4.482-3.115a.3.3 0 01.418.074.298.298 0 01-.075.415l-4.481 3.115a.299.299 0 01-.172.054zM90.055 38.82a.297.297 0 01-.172-.543l4.585-3.188a.3.3 0 01.418.074.297.297 0 01-.075.415l-4.584 3.188a.298.298 0 01-.172.054zM98.798 40.398a.3.3 0 01-.246-.128l-3.136-4.45a.297.297 0 01.074-.415.3.3 0 01.418.074l3.136 4.45a.297.297 0 01-.246.47z"/><path d="M94.714 34.602a.302.302 0 01-.25-.134l-3.105-4.626a.298.298 0 01.083-.414.302.302 0 01.417.082l3.104 4.627a.298.298 0 01-.249.463v.002zM95.778 34.47a.299.299 0 01-.247-.468l3.126-4.458a.3.3 0 01.418-.073c.136.093.17.28.075.415l-3.126 4.457a.3.3 0 01-.248.128h.002zM91.634 40.38a.3.3 0 01-.246-.47l3.199-4.56a.3.3 0 01.418-.074c.136.093.17.28.074.415l-3.199 4.56a.3.3 0 01-.247.129h.001zM100.389 38.87a.299.299 0 01-.171-.054l-4.487-3.105a.296.296 0 01-.075-.416.3.3 0 01.418-.074l4.487 3.106c.136.093.17.28.075.415a.3.3 0 01-.247.128z"/><path d="M94.544 34.826a.306.306 0 01-.178-.057l-4.52-3.281a.297.297 0 01-.066-.417.301.301 0 01.42-.065l4.52 3.281a.297.297 0 01-.177.54zM1.92 28.117a.298.298 0 01-.084-.584c.049-.015 4.69-1.37 9.395-3.438-1.719-.337-5.56-.896-7.719.321a.301.301 0 01-.41-.112.297.297 0 01.114-.407c1.284-.723 3.2-.974 5.697-.745 1.836.17 3.283.54 3.343.556a.298.298 0 01.05.56c-5.012 2.292-10.248 3.822-10.3 3.838a.295.295 0 01-.085.012l-.002-.001z"/><path d="M3.923 25.25a.298.298 0 01-.115-.574c.1-.04 2.454-.992 4.306-.322a.3.3 0 01.18.382.302.302 0 01-.385.18c-1.634-.59-3.847.303-3.87.313a.295.295 0 01-.115.023l-.001-.001zM2.68 34.565c-.605 0-1.061-.83-1.061-1.931 0-1.1.456-1.93 1.062-1.93.605 0 1.062.83 1.062 1.93s-.457 1.93-1.062 1.93zm0-3.263c-.132 0-.46.468-.46 1.333 0 .866.328 1.334.46 1.334.134 0 .462-.468.462-1.334 0-.865-.328-1.333-.461-1.333zM50.049 18.405c-.873 0-1.369-.002-1.404-.002a.297.297 0 01-.185-.533l1.225-.955c.13-.102.32-.08.422.051.103.13.08.317-.05.42l-.544.423c4.735.005 27.78-.04 42.568-1.25l-.341-.285c-1.519-1.274-3.597-3.019-8.033-4.29-5.278-1.512-12.79-1.983-22.322-1.402-1.785.06-4.06.238-4.082.24a.299.299 0 11-.047-.596c.022-.002 2.31-.181 4.101-.24C70.95 9.4 78.53 9.878 83.875 11.41c4.56 1.306 6.696 3.098 8.254 4.407.32.27.623.522.908.738a.297.297 0 01-.155.535c-14.282 1.234-36.987 1.316-42.83 1.316l-.003-.001z"/><path d="M41.816 18.459a7.88 7.88 0 01-1.154-.07.3.3 0 11.095-.59c.015.003 1.532.23 3.715-.221 1.921-.738 12.005-7.579 12.106-7.648a.31.31 0 01.14-.051l.77-.076a.299.299 0 01.27.48l-.234.302a.346.346 0 01-.038.041l-5.113 4.556a.304.304 0 01-.425-.023.299.299 0 01.023-.422l4.513-4.022c-1.995 1.348-10.094 6.784-11.824 7.428a.24.24 0 01-.043.013c-1.147.24-2.113.302-2.804.302l.003.001zM86.12 36.736H45.136a.304.304 0 01-.253-.137c-2.132-3.293-2.638-7.593-2.854-11.367-.124-2.164 1.145-4.194 3.158-5.053 2.208-.94 3.295-2.303 3.305-2.316a.303.303 0 01.422-.052c.13.1.155.288.054.418-.048.06-1.184 1.494-3.543 2.5-1.782.758-2.906 2.554-2.795 4.47.209 3.642.691 7.782 2.672 10.941h40.82a.3.3 0 01.3.299.3.3 0 01-.3.298v-.001zM93.936 26.047a.302.302 0 01-.262-.15c-1.47-2.556-1.137-8.855-1.121-9.123a.299.299 0 01.316-.281.3.3 0 01.284.314c-.003.064-.34 6.39 1.043 8.792a.3.3 0 01-.26.448z"/><path d="M67.244 36.557c-.014 0-.028 0-.044-.003a.298.298 0 01-.253-.339c.712-4.835 2.148-18.127 2.162-18.26a.299.299 0 01.331-.265.298.298 0 01.266.328c-.014.134-1.451 13.437-2.165 18.284a.301.301 0 01-.298.256l.001-.001zM94.416 16.732a.3.3 0 01-.211-.087c-.023-.023-2.372-2.33-5.803-3.88a.298.298 0 01.172-.568c3.681.582 9.152 2.827 10.78 3.566a.293.293 0 01.142.138.33.33 0 01-.013.322c-.093.15-.264.432-5.06.509h-.007zm-3.767-3.475c2.102 1.232 3.518 2.523 3.888 2.875 1.4-.025 2.892-.09 3.77-.175-1.705-.727-4.857-1.964-7.656-2.7h-.002zM68.206 18.045c-.017 0-.034 0-.051-.004a.3.3 0 01-.245-.346c.498-2.846 1.242-7.188 1.258-7.478 0-.165.135-.296.3-.296.167 0 .301.137.301.302 0 .301-.969 5.874-1.267 7.575a.3.3 0 01-.296.247zM70.851 18.045h-.004a.3.3 0 01-.296-.303l.12-7.524a.3.3 0 01.601.009l-.12 7.524a.3.3 0 01-.3.294zM113.052 24.136a.3.3 0 01-.266-.16 394.823 394.823 0 00-2.103-3.939.297.297 0 01.131-.408l1.563-.776a.3.3 0 01.403.133.297.297 0 01-.134.401l-1.287.639c.348.645 1.241 2.306 1.862 3.486.9-.132 1.145-.279 1.181-.303a.301.301 0 01.394-.028c.133.1.16.285.06.418-.168.221-.778.406-1.765.534a.341.341 0 01-.039.003zM116.16 31.677a.3.3 0 01-.056-.593l.761-.143-.468-3.566-.803.044a.298.298 0 11-.033-.596l1.082-.06a.3.3 0 01.315.26l.541 4.12a.299.299 0 01-.242.332l-1.04.196a.262.262 0 01-.057.006zM115.311 37.538h-6.432a.3.3 0 110-.597h6.131v-2.39a.3.3 0 01.601 0v2.688a.3.3 0 01-.3.299zM104.643 34.826h-.253a.3.3 0 01-.295-.304.304.304 0 01.305-.293c.07 0 7.084.097 11.482-1.709a.298.298 0 11.229.552c-2.365.97-5.428 1.396-7.58 1.58a47.39 47.39 0 01-3.888.176v-.002zM5.51 33.541c-.996 0-2.02-.324-2.08-.343a.298.298 0 11.185-.567c.536.172 2.089.53 2.833.14a.302.302 0 01.406.123.298.298 0 01-.124.404c-.344.18-.779.244-1.22.244v-.001zM28.35 36.343a.3.3 0 01-.3-.298c0-3.785-1.215-6.772-3.608-8.876-1.879-1.654-3.768-2.093-3.857-2.113a.3.3 0 01-.273-.297.3.3 0 01.3-.299c.166 0 2.15.474 4.134 2.178 1.746 1.5 3.82 4.29 3.903 9.108h3.885a.3.3 0 01.3.299.3.3 0 01-.3.298H28.35z"/><path d="M31.09 35.149h-2.646a.3.3 0 01-.3-.299.3.3 0 01.3-.298h2.645a.3.3 0 01.301.298.3.3 0 01-.3.299zM111.97 21.688a.297.297 0 01-.146-.559l1.503-.836a.3.3 0 01.409.115.296.296 0 01-.116.407l-1.502.836a.305.305 0 01-.146.038l-.002-.001zM65.481 18.085a.299.299 0 01-.293-.363c.994-4.53 3.435-4.914 3.538-4.929a.298.298 0 11.084.59c-.034.006-2.141.393-3.035 4.466a.3.3 0 01-.294.235v.001zM85.119 17.367a.3.3 0 01-.3-.286c-.171-3.799 2.149-4.27 2.25-4.288a.298.298 0 11.112.586c-.083.017-1.906.424-1.762 3.674a.3.3 0 01-.286.311h-.013l-.001.003zM47.876 18.003a.299.299 0 01-.077-.587l2.336-.622a.312.312 0 01.18.007c.319.115 1.224.42 1.606.46.813.017 1.364-.158 1.547-.494a.571.571 0 00-.012-.547c-.489-.502-.99-.747-1.49-.728-.777.03-1.316.675-1.32.682a.292.292 0 01-.128.091l-2.685 1.002a.3.3 0 01-.387-.174.296.296 0 01.177-.384l2.614-.977c.188-.202.82-.802 1.707-.836.687-.024 1.348.287 1.968.931a.243.243 0 01.03.037c.196.283.29.76.057 1.187-.21.386-.744.842-2.101.81h-.022c-.455-.045-1.37-.356-1.674-.463l-2.246.598a.289.289 0 01-.077.01l-.003-.003zM24.923 38.467h-.02l-1.803-.119a.3.3 0 01-.28-.317.3.3 0 01.32-.279l1.803.12a.3.3 0 01.28.317.3.3 0 01-.298.278h-.002zM88.079 38.493h-1.323a.3.3 0 01-.3-.299.3.3 0 01.3-.298h1.323a.3.3 0 01.3.298.3.3 0 01-.3.299zM103.89 37.816h-.018l-1.118-.067a.299.299 0 11.036-.595l1.118.066a.299.299 0 01-.018.596z"/></g><defs><clipPath id="bclip0_5058_2641"><path transform="translate(.5)" d="M0 0h117v43H0z"/></clipPath></defs></svg><svg viewBox="0 0 24 24" id="location" xmlns="http://www.w3.org/2000/svg"><path d="M12 21.6s7.512-6.678 7.512-11.687a7.513 7.513 0 10-15.026 0C4.486 14.922 12 21.6 12 21.6z"/><path d="M14.4 9.6a2.4 2.4 0 11-4.8 0 2.4 2.4 0 014.8 0z"/></svg><svg viewBox="0 0 24 24" id="phone" xmlns="http://www.w3.org/2000/svg"><path d="M21.245 15.973a2.588 2.588 0 010 3.655l-.76.875C13.648 27.048-2.989 10.417 3.455 3.56l.96-.835a2.572 2.572 0 013.613.034C8.054 2.783 9.6 4.793 9.6 4.793a2.588 2.588 0 01-.005 3.574l-.967 1.215a10.668 10.668 0 005.786 5.797l1.223-.972a2.589 2.589 0 013.573-.005s2.009 1.546 2.035 1.572zm-1.149 1.214s-1.998-1.537-2.023-1.563a.918.918 0 00-1.294 0c-.022.024-1.706 1.365-1.706 1.365a.834.834 0 01-.817.127 12.53 12.53 0 01-7.364-7.352.835.835 0 01.122-.835s1.341-1.684 1.364-1.706a.918.918 0 000-1.293c-.026-.025-1.563-2.024-1.563-2.024a.918.918 0 00-1.26.033l-.96.834c-4.71 5.663 9.707 19.28 14.67 14.59l.76-.876a.936.936 0 00.071-1.3z"/></svg><svg viewBox="0 0 24 24" id="watch" xmlns="http://www.w3.org/2000/svg"><path d="M15.559 15.199a1 1 0 00.632-1.898L15.56 15.2zM12.5 13.125h-1a1 1 0 00.684.949l.316-.949zm1-4.704a1 1 0 10-2 0h2zm2.691 4.88l-3.375-1.125-.632 1.898 3.375 1.125.632-1.898zm-2.691-.176V8.421h-2v4.704h2zm7-1.125a8 8 0 01-8 8v2c5.523 0 10-4.477 10-10h-2zm-8 8a8 8 0 01-8-8h-2c0 5.523 4.477 10 10 10v-2zm-8-8a8 8 0 018-8V2c-5.523 0-10 4.477-10 10h2zm8-8a8 8 0 018 8h2c0-5.523-4.477-10-10-10v2z"/></svg></svg>