<svg width="141" height="52" viewBox="0 0 141 52" fill="none" xmlns="http://www.w3.org/2000/svg">
<g id="logo">
<path d="M103.119 10.0779C90.0639 3.9502 76.296 1.99112 61.577 2.91043C63.1134 3.73147 64.3254 4.31159 65.4675 5.00265C69.8956 7.69401 74.2887 10.4456 78.7359 13.1084C79.4612 13.5427 80.3806 13.8375 81.2236 13.8661C90.2261 14.1387 99.2573 14.0119 108.231 14.6586C118.764 15.4194 129.154 17.2104 138.633 22.3301C139.464 22.777 140.243 23.3159 141 23.9436C129.468 19.8162 117.504 18.5102 105.311 18.3009C112.036 21.5661 118.672 24.9612 124.585 29.805C123.431 29.7004 122.257 29.6814 121.121 29.469C118.274 28.9364 115.392 28.4894 112.624 27.6716C110.219 26.9615 108.623 25.2338 108.04 22.6534C107.92 22.1208 107.277 21.5597 106.736 21.2871C100.632 18.228 94.1198 16.6113 87.3154 16.5511C82.3433 16.5067 77.3712 17.0773 72.396 17.1566C64.1855 17.2865 55.9686 17.4006 47.7614 17.2295C38.2784 17.0361 28.8019 16.5321 19.3221 16.1517C17.3848 16.0756 15.4507 15.9488 13.8252 15.86C15.2089 18.786 16.6023 21.7277 17.9956 24.6695C17.8365 24.752 17.6743 24.8375 17.5153 24.92C16.6754 23.7692 15.8992 22.571 14.9894 21.4805C10.8317 16.4909 7.11617 16.1231 1.78143 19.9113C2.92027 18.5894 4.05593 17.2675 5.36337 15.7491H0.0636224C0.0413546 15.5969 0.0222678 15.4447 0 15.2926C2.09318 14.5096 4.17363 13.6854 6.28271 12.9499C15.1103 9.87182 23.9443 6.80323 32.7846 3.76317C44.2303 -0.170839 56.0832 -0.23107 67.9774 0.152504C75.4753 0.393427 82.8428 1.41735 89.9876 3.78219C94.6161 5.31332 99.0919 7.16779 103.116 10.0779H103.119ZM24.6537 9.00957C27.8221 10.826 34.4134 12.709 38.797 13.3145C50.2363 14.8963 61.7328 14.5857 73.223 14.5223C73.2994 14.5223 73.3757 14.4113 73.6843 14.1704C71.6611 12.5822 69.7365 10.9655 67.7038 9.50093C61.0075 4.66663 53.6178 2.01648 45.2451 2.8819C38.0685 3.62686 31.3754 6.05827 24.6537 9.00957Z" fill="white"/>
<path d="M57.7024 51.9984C53.9868 51.9857 51.1842 49.3609 51.1779 45.8897C51.1683 42.39 54.1331 39.6289 57.8328 39.6923C61.5388 39.7557 64.2459 42.4027 64.2077 45.9278C64.1696 49.4877 61.4624 52.0111 57.7024 51.9952V51.9984ZM53.9932 45.7249C53.9073 47.9059 55.466 49.6145 57.6196 49.7033C59.6906 49.7857 61.3225 48.2546 61.4497 46.1021C61.5865 43.8546 60.1073 42.1776 57.925 42.1047C55.676 42.0286 54.0791 43.4995 53.9932 45.7249Z" fill="white"/>
<path d="M23.1681 40.0157C23.1681 42.2886 23.1077 44.4917 23.184 46.6917C23.2635 48.9551 24.5773 50.0235 26.5306 49.5923C28.0861 49.25 28.4806 48.0992 28.506 46.752C28.5474 44.5456 28.5188 42.3361 28.5188 40.0315H31.3945C31.21 42.9987 31.2418 45.988 30.7614 48.8949C30.4274 50.9174 28.4679 51.9286 26.1329 51.9952C23.8393 52.0618 21.7875 51.45 20.9604 49.1644C19.882 46.1782 20.6677 43.0589 20.4642 40.0157H23.1681Z" fill="white"/>
<path d="M15.5271 51.5926C13.7265 52.0301 12.8581 51.7892 11.8815 50.0235C11.6906 49.6779 11.2707 48.9203 11.2707 48.9203C11.2707 48.9203 7.80329 49.0186 6.51494 48.9964C6.28908 49.4782 6.02504 49.8206 5.86599 50.109C4.90529 51.8589 4.06229 51.992 2.36039 51.6085C3.12704 49.8967 3.87461 48.2356 4.61899 46.5745C5.36973 44.8912 6.14911 43.2206 6.85532 41.5214C7.25932 40.5514 7.63469 39.892 8.95486 39.8793C10.3164 39.8635 10.6122 40.6275 11.0226 41.5563C12.4891 44.8721 13.9842 48.1722 15.5239 51.599L15.5271 51.5926ZM10.7872 47.1641C10.151 45.6234 9.60062 44.2889 8.92304 42.65C8.2391 44.292 7.66968 45.6551 7.03982 47.1641H10.7872Z" fill="white"/>
<path d="M70.7322 39.8096C73.1817 39.9618 75.5834 39.8667 77.8802 40.3105C80.7178 40.8557 82.2002 43.3093 82.022 46.3811C81.863 49.0946 79.9352 51.3517 77.1963 51.6275C75.1063 51.8367 72.9781 51.6687 70.729 51.6687V39.8064L70.7322 39.8096ZM72.4596 50.3436C75.1985 50.2961 78.0393 50.9935 79.808 48.1309C80.7559 46.5966 80.5714 44.4537 79.4835 43.0684C78.2333 41.4707 75.2335 41.2742 72.4564 41.4041V50.3436H72.4596Z" fill="white"/>
<path d="M88.7342 39.9427C90.2993 39.9427 91.7213 39.9332 93.1464 39.9427C95.7804 39.9649 97.3964 40.8811 98.0326 42.6912C98.7197 44.6471 98.0612 46.2194 95.7549 47.9724C96.1685 48.5621 96.5852 49.1549 96.9987 49.7508C97.4091 50.3436 97.8163 50.9364 98.2394 51.5546C97.8036 51.748 97.056 51.7384 96.5502 51.3961C95.4368 50.6416 94.6002 48.8664 94.3361 48.4511C94.1325 48.1309 91.8453 48.0232 90.3279 48.3687V51.6719C89.7172 51.7036 89.2718 51.7258 88.731 51.7511V39.9364L88.7342 39.9427ZM90.382 46.7773C91.8899 46.7013 93.3118 46.7456 94.6956 46.5301C95.9585 46.3335 96.5343 45.3223 96.5534 44.105C96.5725 42.8814 96.0062 41.8448 94.7561 41.6355C93.3341 41.3978 91.8644 41.4612 90.382 41.3946V46.7773Z" fill="white"/>
<path d="M129.879 39.9396C132.427 39.9396 134.854 39.9142 137.278 39.9713C137.603 39.9776 137.921 40.4056 138.239 40.6402C137.924 40.9001 137.615 41.3724 137.291 41.3851C135.449 41.458 133.604 41.42 131.648 41.42V45.0402C133.003 45.0402 134.415 44.9768 135.815 45.0719C136.365 45.1099 136.893 45.5062 137.431 45.7376C136.912 46.0007 136.41 46.4477 135.875 46.4889C134.514 46.5966 133.139 46.5237 131.651 46.5237V50.3405H138.261C138.366 50.4926 138.471 50.6448 138.576 50.7969C138.248 51.1203 137.93 51.7162 137.593 51.7258C135.061 51.805 132.525 51.7701 129.876 51.7701V39.9396H129.879Z" fill="white"/>
<path d="M99.9667 29.5989C92.6502 21.4551 82.8141 21.5534 76.7414 26.524C77.1963 23.6868 82.1429 21.0113 87.0832 20.9321C93.2673 20.8306 99.0188 24.7012 99.9667 29.5989Z" fill="white"/>
<path d="M42.9165 51.7353H40.2253V42.1744H36.4652V40.0664H46.6002V42.1301H42.9165V51.7353Z" fill="white"/>
<path d="M112.29 40.1139C113.604 39.6955 114.151 40.0759 114.578 41.1157C115.713 43.8863 116.979 46.6062 118.331 49.6557C119.687 46.6125 120.943 43.8704 122.12 41.0966C122.543 40.0981 123.087 39.6448 124.258 40.1361C122.651 43.8007 121.07 47.4779 119.426 51.1266C119.003 52.0618 117.625 52.0808 117.202 51.1552C115.541 47.516 113.945 43.8482 112.29 40.1171V40.1139Z" fill="white"/>
<path d="M106.488 51.6782H104.993V40.041C105.476 40.0125 105.919 39.984 106.488 39.9523V51.6814V51.6782Z" fill="white"/>
</g>
</svg>
