<svg width="118" height="43" viewBox="0 0 118 43" fill="none" xmlns="http://www.w3.org/2000/svg">
<g id="Car type" clip-path="url(#clip0_5058_2661)">
<g id="Vector">
<path d="M16.9344 43.0004C12.1029 43.0004 8.17189 39.1023 8.17189 34.3112C8.17189 29.5201 12.1029 25.622 16.9344 25.622C21.766 25.622 25.697 29.5201 25.697 34.3112C25.697 39.1023 21.766 43.0004 16.9344 43.0004ZM16.9344 26.2588C12.4576 26.2588 8.81405 29.8703 8.81405 34.3112C8.81405 38.7521 12.4561 42.3636 16.9344 42.3636C21.4128 42.3636 25.0548 38.7521 25.0548 34.3112C25.0548 29.8703 21.4113 26.2588 16.9344 26.2588Z" fill="#BDBDBD"/>
<path d="M16.9344 40.3365C13.5844 40.3365 10.8583 37.6331 10.8583 34.3112C10.8583 30.9892 13.5844 28.2859 16.9344 28.2859C20.2844 28.2859 23.0106 30.9892 23.0106 34.3112C23.0106 37.6331 20.2844 40.3365 16.9344 40.3365ZM16.9344 28.9227C13.9376 28.9227 11.5005 31.3395 11.5005 34.3112C11.5005 37.2829 13.9376 39.6997 16.9344 39.6997C19.9312 39.6997 22.3684 37.2829 22.3684 34.3112C22.3684 31.3395 19.9312 28.9227 16.9344 28.9227Z" fill="#BDBDBD"/>
<path d="M14.7037 33.1649C14.6425 33.1649 14.5813 33.1483 14.5263 33.1119C14.378 33.0148 14.3382 32.8177 14.4361 32.6707C14.9926 31.8383 15.9268 31.341 16.9344 31.341C17.5613 31.341 18.1622 31.5305 18.6713 31.8914C18.8151 31.9929 18.8487 32.1916 18.7463 32.3356C18.6438 32.4781 18.4435 32.513 18.2983 32.4099C17.8992 32.1279 17.4268 31.9778 16.9344 31.9778C16.1439 31.9778 15.41 32.369 14.9712 33.0224C14.9101 33.1149 14.8076 33.1649 14.7037 33.1649Z" fill="#BDBDBD"/>
<path d="M16.6653 37.2677C16.6546 37.2677 16.6439 37.2677 16.6332 37.2662C15.2311 37.1282 14.1058 36.0199 13.9545 34.6311C13.9361 34.4567 14.063 34.299 14.2388 34.2809C14.4147 34.2627 14.5737 34.3885 14.592 34.5629C14.7098 35.653 15.595 36.5233 16.6959 36.6325C16.8717 36.6506 17.0017 36.8053 16.9834 36.9812C16.9665 37.1449 16.8274 37.2677 16.6638 37.2677H16.6653Z" fill="#BDBDBD"/>
<path d="M18.3059 36.9069C18.1974 36.9069 18.0903 36.8523 18.0307 36.7522C17.939 36.6006 17.9894 36.4065 18.1408 36.3156C18.8487 35.8956 19.2875 35.1284 19.2875 34.3112C19.2875 34.0959 19.2585 33.8836 19.2004 33.6789C19.153 33.5091 19.2523 33.3332 19.4236 33.2862C19.5948 33.2392 19.7722 33.3378 19.8196 33.5076C19.893 33.7684 19.9312 34.0383 19.9312 34.3112C19.9312 35.3498 19.3716 36.3277 18.471 36.8614C18.4191 36.8917 18.3625 36.9069 18.3059 36.9069Z" fill="#BDBDBD"/>
<path d="M16.9344 35.8759C16.0644 35.8759 15.3565 35.1739 15.3565 34.3112C15.3565 33.4485 16.0644 32.7465 16.9344 32.7465C17.8044 32.7465 18.5123 33.4485 18.5123 34.3112C18.5123 35.1739 17.8044 35.8759 16.9344 35.8759ZM16.9344 33.3833C16.4192 33.3833 15.9987 33.7987 15.9987 34.3112C15.9987 34.8237 16.4176 35.2391 16.9344 35.2391C17.4512 35.2391 17.8702 34.8237 17.8702 34.3112C17.8702 33.7987 17.4512 33.3833 16.9344 33.3833Z" fill="#BDBDBD"/>
<path d="M65.3203 18.9083C65.1934 18.9083 65.0726 18.8325 65.0221 18.7082L64.8386 18.2533L60.6493 18.6369C60.4734 18.6536 60.316 18.5247 60.3007 18.3488C60.2838 18.173 60.4138 18.0183 60.5912 18.0032L65.0191 17.5983C65.1613 17.5847 65.2943 17.6666 65.3463 17.797L65.6184 18.4717C65.6842 18.6354 65.6047 18.8204 65.4395 18.8856C65.3998 18.9007 65.36 18.9083 65.3203 18.9083Z" fill="#BDBDBD"/>
<path d="M93.1904 18.9083C93.0635 18.9083 92.9427 18.8325 92.8922 18.7082L92.7088 18.2533L88.5194 18.6369C88.3435 18.6536 88.1861 18.5247 88.1708 18.3488C88.1555 18.173 88.2839 18.0183 88.4613 18.0032L92.8892 17.5983C93.0314 17.5847 93.1644 17.6666 93.2164 17.797L93.4885 18.4717C93.5543 18.6354 93.4748 18.8204 93.3096 18.8856C93.2699 18.9007 93.2301 18.9083 93.1904 18.9083Z" fill="#BDBDBD"/>
<path d="M9.08774 38.1016C9.06481 38.1016 9.04187 38.0986 9.01894 38.094L7.55265 37.7787C7.26215 37.7362 3.32046 37.1404 1.01477 35.6742C0.929144 35.6196 0.87563 35.5287 0.867985 35.4286C0.447518 29.6565 1.62941 24.3362 4.37851 19.6149C4.41367 19.5557 4.46719 19.5087 4.5314 19.4814C13.9009 15.5272 25.1955 15.1694 36.1184 14.8237C36.7744 14.8025 37.4272 14.7828 38.0786 14.7616C46.9894 8.82269 55.1404 6.35284 55.2214 6.32858C55.3911 6.27854 55.57 6.37255 55.622 6.54236C55.6725 6.71066 55.5777 6.88805 55.4064 6.9396C55.3254 6.96386 47.2172 9.4231 38.3599 15.3423C38.3095 15.3756 38.2514 15.3938 38.1917 15.3968C37.5098 15.4196 36.8248 15.4408 36.1383 15.4636C25.3132 15.8062 14.1211 16.161 4.88154 20.0288C2.26088 24.5697 1.12332 29.6808 1.49792 35.2239C3.74857 36.5794 7.61687 37.1449 7.65662 37.151C7.66427 37.151 7.67191 37.154 7.67956 37.1555L9.15654 37.4739C9.32932 37.5118 9.4394 37.6801 9.40271 37.853C9.3706 38.0016 9.23758 38.1031 9.08927 38.1031L9.08774 38.1016Z" fill="#BDBDBD"/>
<path d="M85.4966 38.2366H27.1739C26.7734 38.2366 26.4003 38.0592 26.1495 37.7499C25.8911 37.4315 25.7994 37.0024 25.9034 36.6021C26.096 35.8577 26.1939 35.0859 26.1939 34.3112C26.1939 31.8944 25.2031 29.5913 23.4035 27.8265C21.6559 26.1117 19.3181 25.1292 16.9895 25.1292C12.0662 25.1292 7.80187 29.2244 7.6765 34.0716C7.65051 35.0905 7.79117 36.0957 8.09544 37.0585C8.14895 37.2268 8.05415 37.4042 7.88444 37.4573C7.71625 37.5103 7.53583 37.4163 7.48232 37.248C7.15665 36.2185 7.00681 35.1436 7.03433 34.0534C7.10008 31.5047 8.19635 29.097 10.1229 27.2761C11.9943 25.5052 14.4972 24.4894 16.9895 24.4894C19.4817 24.4894 21.9877 25.5401 23.8546 27.3716C25.7765 29.2562 26.836 31.72 26.836 34.3097C26.836 35.139 26.7321 35.9623 26.5241 36.7598C26.4706 36.9675 26.5165 37.1874 26.6495 37.3496C26.7779 37.5073 26.9691 37.5983 27.1739 37.5983H85.4981C85.5822 37.5983 85.6602 37.5588 85.7076 37.4906C85.7565 37.4224 85.7687 37.3375 85.7412 37.2586C85.4125 36.2185 85.2611 35.1436 85.2902 34.0549C85.4263 28.7695 89.8618 24.4909 95.1903 24.4909C95.2086 24.4909 95.2285 24.4909 95.2468 24.4909C100.675 24.5212 105.092 28.9272 105.092 34.3097C105.092 35.1663 104.98 36.0139 104.762 36.8341H107.618L113.879 35.7045L115.148 34.8434C116.536 33.9018 117.292 32.2901 117.122 30.6375C116.897 28.4602 116.441 25.1868 115.538 21.9528C115.321 21.1735 114.997 20.426 114.573 19.7301L108.725 10.0933C107.48 8.04034 105.295 6.74704 102.884 6.63333L101.505 6.56813C88.738 5.95863 62.1721 4.68959 55.4874 6.81982C55.3193 6.87289 55.1373 6.78192 55.0838 6.61362C55.0288 6.44684 55.122 6.26641 55.2917 6.21335C62.088 4.04673 88.7319 5.32032 101.537 5.93134L102.916 5.99654C105.543 6.12086 107.92 7.52939 109.277 9.76424L115.123 19.4011C115.576 20.147 115.923 20.9491 116.157 21.783C117.071 25.061 117.535 28.3723 117.761 30.5738C117.955 32.4599 117.093 34.2975 115.512 35.371L114.186 36.2701C114.15 36.2959 114.107 36.3125 114.062 36.3201L107.705 37.4664C107.687 37.4694 107.667 37.4709 107.647 37.4709H104.335C104.233 37.4709 104.136 37.4224 104.077 37.3405C104.017 37.2586 103.999 37.154 104.029 37.057C104.309 36.17 104.451 35.2451 104.451 34.3097C104.451 29.2744 100.321 25.1565 95.2453 25.1277C95.2285 25.1277 95.2102 25.1277 95.1933 25.1277C90.2104 25.1277 86.0623 29.1289 85.9354 34.0701C85.9094 35.089 86.0501 36.0942 86.3543 37.057C86.4476 37.3193 86.4048 37.6225 86.2366 37.859C86.0684 38.094 85.7932 38.2351 85.5027 38.2351L85.4966 38.2366Z" fill="#BDBDBD"/>
<path d="M3.24401 23.3068C3.13392 23.3068 3.02842 23.2507 2.97032 23.1551C2.89846 23.0399 2.90916 22.8913 2.99631 22.7867L5.91971 19.2464C5.97169 19.1827 6.04661 19.1418 6.12918 19.1327C6.18728 19.1251 11.976 18.4292 17.8671 18.5748C18.0062 18.5778 18.1286 18.6703 18.1668 18.8037C18.2065 18.9356 18.1545 19.0796 18.0399 19.157C17.8289 19.2995 12.8429 22.6336 9.15196 22.7503C5.36011 22.8701 3.33269 23.2961 3.31281 23.3007C3.28988 23.3052 3.26694 23.3083 3.24554 23.3083L3.24401 23.3068ZM6.33253 19.7498L4.03754 22.529C4.97939 22.3895 6.68725 22.1893 9.13055 22.112C11.742 22.0301 15.1746 20.1576 16.78 19.1934C11.8047 19.1539 7.15359 19.6558 6.33406 19.7498H6.33253Z" fill="#BDBDBD"/>
<path d="M9.35225 21.7345C9.17642 21.7345 9.03423 21.595 9.03117 21.4206C9.02811 21.2447 9.1703 21.1007 9.34766 21.0977C9.37366 21.0977 11.9286 21.0431 13.2787 19.7832C13.4071 19.6634 13.6104 19.6679 13.7328 19.7968C13.8535 19.9242 13.8474 20.1258 13.719 20.2471C12.187 21.6784 9.47151 21.733 9.35684 21.7345C9.35531 21.7345 9.35378 21.7345 9.35225 21.7345Z" fill="#BDBDBD"/>
<path d="M3.11557 34.0049C2.46882 34.0049 1.98108 33.1195 1.98108 31.9459C1.98108 30.7724 2.46882 29.887 3.11557 29.887C3.76233 29.887 4.25007 30.7724 4.25007 31.9459C4.25007 33.1195 3.76233 34.0049 3.11557 34.0049ZM3.11557 30.5238C2.97338 30.5238 2.62325 31.0226 2.62325 31.9459C2.62325 32.8693 2.97338 33.3681 3.11557 33.3681C3.25777 33.3681 3.6079 32.8693 3.6079 31.9459C3.6079 31.0226 3.25777 30.5238 3.11557 30.5238Z" fill="#BDBDBD"/>
<path d="M46.6576 15.4044C46.5216 15.4044 46.3992 15.3195 46.3549 15.1906C46.309 15.0618 46.3518 14.9193 46.4604 14.8359L47.7692 13.817C47.9083 13.7078 48.1102 13.7321 48.2202 13.8701C48.3303 14.008 48.3059 14.2082 48.1667 14.3173L47.5949 14.7616C52.9524 14.7312 79.9678 14.566 95.8691 14.2309C93.4717 9.90828 90.4627 8.3921 86.7091 7.47633C81.5931 6.22851 73.748 6.0405 60.4811 6.84863C58.5745 6.91231 56.1449 7.10183 56.1205 7.10335C55.9461 7.11699 55.7887 6.9866 55.7749 6.81072C55.7611 6.63485 55.8926 6.48171 56.07 6.46807C56.0945 6.46655 58.5393 6.27551 60.452 6.21183C73.7801 5.40068 81.6818 5.59323 86.865 6.85772C92.4672 8.22532 94.8432 10.8589 96.6856 14.3916C96.7361 14.4887 96.733 14.6054 96.6764 14.7009C96.6199 14.7949 96.5174 14.8541 96.4073 14.8571C78.8838 15.2346 46.9833 15.4014 46.6638 15.4029H46.6622L46.6576 15.4044Z" fill="#BDBDBD"/>
<path d="M39.3614 15.4651C38.6107 15.4651 38.1657 15.3968 38.129 15.3908C37.9532 15.3635 37.8339 15.1997 37.863 15.0269C37.8905 14.8541 38.0556 14.7358 38.2299 14.7631C38.2468 14.7661 39.8675 15.0087 42.1992 14.5266C44.251 13.7397 55.0226 6.44532 55.1312 6.37103C55.1755 6.34071 55.2275 6.32251 55.281 6.31645L56.1021 6.23609C56.229 6.22396 56.3513 6.28764 56.414 6.39832C56.4767 6.509 56.466 6.64546 56.3896 6.74704L56.1419 7.06999C56.1296 7.08667 56.1159 7.10031 56.1006 7.11396L50.6391 11.9718C50.5076 12.0885 50.3042 12.0779 50.185 11.9475C50.0672 11.8171 50.078 11.6155 50.2094 11.4972L55.0318 7.20796C52.9004 8.6453 44.2495 14.4432 42.401 15.13C42.3857 15.1361 42.3704 15.1406 42.3536 15.1436C41.1289 15.3999 40.0968 15.4651 39.3583 15.4651H39.3614Z" fill="#BDBDBD"/>
<path d="M70.2176 15.0224C70.2008 15.0224 70.1824 15.0224 70.1641 15.0178C69.9898 14.989 69.8705 14.8252 69.8995 14.6524C70.4316 11.4624 71.2282 6.60301 71.2435 6.29219C71.2435 6.11631 71.3872 5.97682 71.5646 5.97682C71.742 5.97682 71.8857 6.12238 71.8857 6.29825C71.8857 6.62575 70.7588 13.4016 70.5325 14.7555C70.5066 14.9117 70.3705 15.0224 70.216 15.0224H70.2176Z" fill="#BDBDBD"/>
<path d="M73.0431 15.0224C73.0431 15.0224 73.0401 15.0224 73.0385 15.0224C72.8612 15.0193 72.719 14.8753 72.722 14.6994L72.8505 6.29371C72.8535 6.11935 72.9957 5.97986 73.1715 5.97986C73.1731 5.97986 73.1746 5.97986 73.1761 5.97986C73.3535 5.98289 73.4957 6.12693 73.4926 6.3028L73.3642 14.7085C73.3611 14.8829 73.2189 15.0224 73.0431 15.0224Z" fill="#BDBDBD"/>
<path d="M116.281 37.1707H109.41C109.232 37.1707 109.089 37.0282 109.089 36.8523C109.089 36.6764 109.232 36.5339 109.41 36.5339H115.96V34.3688C115.96 34.1929 116.104 34.0504 116.281 34.0504C116.458 34.0504 116.602 34.1929 116.602 34.3688V36.8523C116.602 37.0282 116.458 37.1707 116.281 37.1707Z" fill="#BDBDBD"/>
<path d="M105.138 34.2824C104.967 34.2824 104.872 34.2824 104.867 34.2809C104.69 34.2778 104.549 34.1323 104.552 33.9579C104.555 33.7836 104.699 33.6456 104.873 33.6456C104.875 33.6456 104.876 33.6456 104.879 33.6456C104.954 33.6456 112.448 33.7487 117.145 31.8231C117.308 31.7564 117.496 31.8337 117.564 31.996C117.631 32.1582 117.553 32.3447 117.389 32.4114C114.864 33.447 111.592 33.9003 109.292 34.0974C107.35 34.2642 105.754 34.2839 105.139 34.2839L105.138 34.2824Z" fill="#BDBDBD"/>
<path d="M6.13682 32.9117C5.07266 32.9117 3.97944 32.5661 3.91523 32.5463C3.74704 32.4918 3.65377 32.3129 3.70882 32.1461C3.76386 31.9793 3.94428 31.8868 4.11246 31.9414C4.6843 32.1249 6.34323 32.5084 7.1383 32.09C7.29578 32.0081 7.48996 32.0672 7.57253 32.2219C7.65509 32.3781 7.59546 32.5706 7.43951 32.6525C7.07255 32.845 6.60775 32.9133 6.13682 32.9133V32.9117Z" fill="#BDBDBD"/>
<path d="M30.5362 35.8971C30.3588 35.8971 30.2151 35.7546 30.2151 35.5787C30.2151 31.5426 28.9017 28.3587 26.3101 26.1132C24.2735 24.3484 22.2293 23.8799 22.136 23.8602C21.9724 23.8465 21.8424 23.7101 21.8424 23.5433C21.8424 23.3674 21.9861 23.2249 22.1635 23.2249C22.3409 23.2249 24.4845 23.7298 26.6312 25.5461C28.521 27.1457 30.7655 30.1205 30.8557 35.2603H34.7913C34.9687 35.2603 35.1124 35.4028 35.1124 35.5787C35.1124 35.7546 34.9687 35.8971 34.7913 35.8971H30.5362Z" fill="#BDBDBD"/>
<path d="M33.377 34.6235H30.5514C30.3741 34.6235 30.2304 34.481 30.2304 34.3051C30.2304 34.1292 30.3741 33.9867 30.5514 33.9867H33.377C33.5544 33.9867 33.6981 34.1292 33.6981 34.3051C33.6981 34.481 33.5544 34.6235 33.377 34.6235Z" fill="#BDBDBD"/>
<path d="M45.8351 14.9784C45.6929 14.9784 45.5629 14.8844 45.5247 14.7419C45.4788 14.572 45.5812 14.3977 45.7525 14.3522L48.2493 13.6896C48.312 13.673 48.3793 13.676 48.4419 13.6972C48.7829 13.82 49.7492 14.1445 50.1575 14.1885C51.029 14.2051 51.6146 14.0186 51.8103 13.6608C51.9311 13.4395 51.8714 13.1984 51.798 13.0771C51.2751 12.5419 50.74 12.2796 50.2064 12.3008C49.3762 12.3326 48.7997 13.021 48.7951 13.0286C48.76 13.0725 48.7126 13.1059 48.6591 13.1256L45.7907 14.1945C45.6256 14.2567 45.439 14.1733 45.3779 14.008C45.3152 13.8428 45.3993 13.6593 45.566 13.5987L48.3594 12.557C48.5597 12.3417 49.2355 11.7019 50.1819 11.6655C50.9174 11.6382 51.6222 11.9718 52.2843 12.6586C52.2965 12.6708 52.3072 12.6844 52.3164 12.698C52.5258 12.9998 52.6267 13.5077 52.3775 13.9641C52.1528 14.3749 51.584 14.8586 50.133 14.8268C50.1253 14.8268 50.1177 14.8268 50.1101 14.8268C49.6238 14.7798 48.6468 14.4477 48.3212 14.334L45.9222 14.9708C45.8947 14.9784 45.8672 14.9814 45.8396 14.9814L45.8351 14.9784Z" fill="#BDBDBD"/>
<path d="M26.8758 38.1653C26.8758 38.1653 26.862 38.1653 26.8544 38.1653L24.9279 38.0379C24.7505 38.0258 24.6175 37.8742 24.6282 37.6983C24.6404 37.5224 24.7949 37.3921 24.9692 37.4012L26.8957 37.5285C27.073 37.5406 27.2061 37.6923 27.1954 37.8681C27.1847 38.0364 27.0425 38.1653 26.8758 38.1653Z" fill="#BDBDBD"/>
<path d="M17.3717 33.3893C17.2586 33.3893 17.1485 33.3287 17.0904 33.2241C17.0048 33.0694 17.0629 32.8769 17.2173 32.792C17.2402 32.7798 19.5551 31.5108 20.4893 29.9795C20.581 29.8294 20.7783 29.7808 20.9296 29.8718C21.081 29.9628 21.1299 30.1584 21.0382 30.3085C20.0138 31.9884 17.6255 33.2953 17.5246 33.3514C17.4757 33.3787 17.4222 33.3909 17.3717 33.3909V33.3893Z" fill="#BDBDBD"/>
<path d="M18.2692 34.7903C18.1912 34.7903 18.1148 34.763 18.0521 34.7069C17.9206 34.5886 17.913 34.387 18.0322 34.2566C19.3456 32.8329 22.0366 31.9459 22.1497 31.908C22.3179 31.8535 22.4999 31.9444 22.5549 32.1112C22.61 32.278 22.5182 32.4584 22.35 32.513C22.3241 32.5221 19.7049 33.3863 18.5047 34.6857C18.442 34.7539 18.3548 34.7888 18.2677 34.7888L18.2692 34.7903Z" fill="#BDBDBD"/>
<path d="M19.2982 39.6087C19.1897 39.6087 19.0842 39.5541 19.023 39.4556C17.9558 37.715 17.6423 35.3134 17.6301 35.2118C17.6087 35.0374 17.7325 34.8782 17.9084 34.857C18.0842 34.8343 18.2448 34.9586 18.2662 35.133C18.2692 35.1572 18.575 37.5027 19.5704 39.1251C19.6621 39.2752 19.6147 39.4707 19.4633 39.5632C19.4114 39.5951 19.3533 39.6102 19.2967 39.6102L19.2982 39.6087Z" fill="#BDBDBD"/>
<path d="M16.8977 40.2485H16.8962C16.7188 40.2485 16.5751 40.1045 16.5766 39.9286C16.5766 39.9029 16.5843 37.2723 16.1103 35.5317C16.0644 35.3619 16.1653 35.1875 16.3366 35.142C16.5078 35.0966 16.6837 35.1966 16.7311 35.3664C17.228 37.1919 17.2188 39.8225 17.2188 39.9332C17.2188 40.1091 17.0736 40.2501 16.8977 40.2501V40.2485Z" fill="#BDBDBD"/>
<path d="M15.907 35.3482C15.8657 35.3482 15.8229 35.3407 15.7816 35.3225C15.7556 35.3119 13.1456 34.2263 11.3093 34.0883C11.132 34.0747 11.0005 33.9215 11.0127 33.7472C11.0265 33.5713 11.1809 33.4409 11.3567 33.453C13.297 33.5986 15.9192 34.6887 16.0293 34.7357C16.1929 34.8039 16.2693 34.9904 16.2005 35.1527C16.1485 35.274 16.0293 35.3467 15.9039 35.3467L15.907 35.3482Z" fill="#BDBDBD"/>
<path d="M16.0018 33.6653C15.9727 33.6653 15.9437 33.6623 15.9146 33.6532C14.0691 33.1422 11.9851 31.7322 11.898 31.6715C11.7512 31.5714 11.7145 31.3743 11.8154 31.2288C11.9163 31.0832 12.1151 31.0468 12.2619 31.1469C12.2833 31.1606 14.3474 32.557 16.0889 33.0391C16.2601 33.0861 16.3595 33.262 16.3121 33.4318C16.2724 33.5728 16.1439 33.6638 16.0033 33.6638L16.0018 33.6653Z" fill="#BDBDBD"/>
<path d="M95.1842 43.0004C90.3526 43.0004 86.4216 39.1023 86.4216 34.3112C86.4216 29.5201 90.3526 25.622 95.1842 25.622C100.016 25.622 103.947 29.5201 103.947 34.3112C103.947 39.1023 100.016 43.0004 95.1842 43.0004ZM95.1842 26.2588C90.7073 26.2588 87.0638 29.8703 87.0638 34.3112C87.0638 38.7521 90.7058 42.3636 95.1842 42.3636C99.6625 42.3636 103.305 38.7521 103.305 34.3112C103.305 29.8703 99.661 26.2588 95.1842 26.2588Z" fill="#BDBDBD"/>
<path d="M95.1842 40.3365C91.8342 40.3365 89.108 37.6331 89.108 34.3112C89.108 30.9892 91.8342 28.2859 95.1842 28.2859C98.5341 28.2859 101.26 30.9892 101.26 34.3112C101.26 37.6331 98.5341 40.3365 95.1842 40.3365ZM95.1842 28.9227C92.1874 28.9227 89.7502 31.3395 89.7502 34.3112C89.7502 37.2829 92.1874 39.6997 95.1842 39.6997C98.1809 39.6997 100.618 37.2829 100.618 34.3112C100.618 31.3395 98.1809 28.9227 95.1842 28.9227Z" fill="#BDBDBD"/>
<path d="M92.9534 33.1649C92.8922 33.1649 92.8311 33.1483 92.776 33.1119C92.6277 33.0148 92.588 32.8177 92.6858 32.6707C93.2424 31.8383 94.1766 31.341 95.1842 31.341C95.811 31.341 96.4119 31.5305 96.9211 31.8914C97.0648 31.9929 97.0984 32.1916 96.996 32.3356C96.8935 32.4781 96.6933 32.513 96.548 32.4099C96.1489 32.1279 95.6765 31.9778 95.1842 31.9778C94.3937 31.9778 93.6598 32.369 93.221 33.0224C93.1598 33.1149 93.0574 33.1649 92.9534 33.1649Z" fill="#BDBDBD"/>
<path d="M94.9151 37.2677C94.9044 37.2677 94.8936 37.2677 94.8829 37.2662C93.4809 37.1282 92.3556 36.0199 92.2042 34.6311C92.1858 34.4567 92.3127 34.299 92.4886 34.2809C92.6644 34.2627 92.8234 34.3885 92.8418 34.5629C92.9595 35.653 93.8448 36.5233 94.9456 36.6325C95.1215 36.6506 95.2514 36.8053 95.2331 36.9812C95.2163 37.1449 95.0771 37.2677 94.9135 37.2677H94.9151Z" fill="#BDBDBD"/>
<path d="M96.5556 36.9069C96.4471 36.9069 96.3401 36.8523 96.2804 36.7522C96.1887 36.6006 96.2391 36.4065 96.3905 36.3156C97.0984 35.8956 97.5372 35.1284 97.5372 34.3112C97.5372 34.0959 97.5082 33.8836 97.4501 33.6789C97.4027 33.5091 97.5021 33.3332 97.6733 33.2862C97.8446 33.2392 98.0219 33.3378 98.0693 33.5076C98.1427 33.7684 98.1809 34.0383 98.1809 34.3112C98.1809 35.3498 97.6213 36.3277 96.7223 36.8614C96.6703 36.8917 96.6137 36.9069 96.5572 36.9069H96.5556Z" fill="#BDBDBD"/>
<path d="M95.1842 35.8759C94.3142 35.8759 93.6063 35.1739 93.6063 34.3112C93.6063 33.4485 94.3142 32.7465 95.1842 32.7465C96.0541 32.7465 96.762 33.4485 96.762 34.3112C96.762 35.1739 96.0541 35.8759 95.1842 35.8759ZM95.1842 33.3833C94.6689 33.3833 94.2484 33.7987 94.2484 34.3112C94.2484 34.8237 94.6674 35.2391 95.1842 35.2391C95.701 35.2391 96.1199 34.8237 96.1199 34.3112C96.1199 33.7987 95.701 33.3833 95.1842 33.3833Z" fill="#BDBDBD"/>
<path d="M95.6214 33.3893C95.5083 33.3893 95.3982 33.3287 95.3401 33.2241C95.2545 33.0694 95.3126 32.8769 95.467 32.792C95.49 32.7798 97.8048 31.5108 98.739 29.9795C98.8308 29.8294 99.028 29.7808 99.1794 29.8718C99.3307 29.9628 99.3797 30.1584 99.2879 30.3085C98.2635 31.9884 95.8753 33.2953 95.7743 33.3514C95.7254 33.3787 95.6719 33.3909 95.6214 33.3909V33.3893Z" fill="#BDBDBD"/>
<path d="M96.519 34.7903C96.441 34.7903 96.3645 34.763 96.3018 34.7069C96.1703 34.5886 96.1627 34.387 96.282 34.2566C97.5953 32.8329 100.286 31.9459 100.399 31.908C100.568 31.8535 100.75 31.9444 100.805 32.1112C100.86 32.278 100.768 32.4584 100.6 32.513C100.574 32.5221 97.9547 33.3863 96.7544 34.6857C96.6917 34.7539 96.6046 34.7888 96.5174 34.7888L96.519 34.7903Z" fill="#BDBDBD"/>
<path d="M97.5479 39.6087C97.4394 39.6087 97.3339 39.5541 97.2727 39.4556C96.2055 37.715 95.8921 35.3134 95.8798 35.2118C95.8584 35.0374 95.9823 34.8782 96.1581 34.857C96.3339 34.8343 96.4945 34.9586 96.5159 35.133C96.5189 35.1572 96.8247 37.5027 97.8201 39.1251C97.9118 39.2752 97.8644 39.4707 97.7131 39.5632C97.6611 39.5951 97.603 39.6102 97.5464 39.6102L97.5479 39.6087Z" fill="#BDBDBD"/>
<path d="M95.1475 40.2485H95.1459C94.9686 40.2485 94.8249 40.1045 94.8264 39.9286C94.8264 39.9029 94.834 37.2723 94.36 35.5317C94.3142 35.3619 94.4151 35.1875 94.5863 35.142C94.7576 35.0966 94.9334 35.1966 94.9793 35.3664C95.4762 37.1919 95.467 39.8225 95.467 39.9332C95.467 40.1091 95.3233 40.2501 95.1459 40.2501L95.1475 40.2485Z" fill="#BDBDBD"/>
<path d="M94.1567 35.3482C94.1154 35.3482 94.0726 35.3407 94.0313 35.3225C94.0053 35.3119 91.3954 34.2263 89.5591 34.0883C89.3817 34.0747 89.2502 33.9215 89.2625 33.7472C89.2762 33.5713 89.4306 33.4409 89.6065 33.453C91.5467 33.5986 94.1689 34.6887 94.279 34.7357C94.4426 34.8039 94.5191 34.9904 94.4503 35.1527C94.3983 35.274 94.279 35.3467 94.1536 35.3467L94.1567 35.3482Z" fill="#BDBDBD"/>
<path d="M94.2515 33.6653C94.2224 33.6653 94.1934 33.6623 94.1643 33.6532C92.3189 33.1422 90.2349 31.7322 90.1477 31.6715C90.001 31.5714 89.9642 31.3743 90.0652 31.2288C90.1661 31.0832 90.3648 31.0468 90.5116 31.1469C90.533 31.1606 92.5971 32.557 94.3386 33.0391C94.5099 33.0861 94.6093 33.262 94.5619 33.4318C94.5221 33.5728 94.3937 33.6638 94.253 33.6638L94.2515 33.6653Z" fill="#BDBDBD"/>
<path d="M109.416 14.7555H98.4134C98.2788 14.7555 98.158 14.6721 98.1121 14.5478C98.0923 14.4962 96.126 9.30787 92.4397 7.98576C92.2929 7.9327 92.2057 7.78411 92.2332 7.63249C92.2592 7.48087 92.3938 7.36868 92.5482 7.36868C92.9671 7.36868 102.855 7.35503 104.93 8.32235C106.194 8.91215 107.387 10.1054 108.471 11.8672C109.269 13.165 109.699 14.2779 109.717 14.3249C109.755 14.4235 109.742 14.5326 109.682 14.619C109.622 14.7055 109.523 14.757 109.417 14.757L109.416 14.7555ZM98.632 14.1187H108.933C108.427 12.9861 106.895 9.94163 104.656 8.8985C103.15 8.19499 96.7819 8.04489 93.935 8.01305C95.1154 8.75143 96.2285 9.90373 97.2055 11.4108C97.9791 12.604 98.4531 13.679 98.6335 14.1187H98.632Z" fill="#BDBDBD"/>
<path d="M87.0623 38.1896H85.2642C85.0868 38.1896 84.9431 38.047 84.9431 37.8712C84.9431 37.6953 85.0868 37.5528 85.2642 37.5528H87.0623C87.2396 37.5528 87.3833 37.6953 87.3833 37.8712C87.3833 38.047 87.2396 38.1896 87.0623 38.1896Z" fill="#BDBDBD"/>
<path d="M104.144 37.4254H103.116C102.939 37.4254 102.795 37.2829 102.795 37.107C102.795 36.9311 102.939 36.7886 103.116 36.7886H104.144C104.321 36.7886 104.465 36.9311 104.465 37.107C104.465 37.2829 104.321 37.4254 104.144 37.4254Z" fill="#BDBDBD"/>
<path d="M66.9471 36.0639H38.0495C37.8722 36.0639 37.7284 35.9214 37.7284 35.7455C37.7284 35.5696 37.8722 35.4271 38.0495 35.4271H66.7927C68.21 33.6547 69.0953 31.5335 69.3522 29.282L70.9943 14.9177C71.0142 14.7434 71.1732 14.616 71.349 14.6372C71.5248 14.657 71.6517 14.8146 71.6319 14.989L69.9898 29.3533C69.713 31.7746 68.7467 34.0549 67.1948 35.9456C67.1336 36.0199 67.0419 36.0624 66.9456 36.0624L66.9471 36.0639Z" fill="#BDBDBD"/>
<path d="M96.4226 23.0096C96.4104 23.0096 96.3966 23.0096 96.3844 23.0065C96.2086 22.9853 96.0832 22.8261 96.1046 22.6518L97.0678 14.7555C97.0892 14.5811 97.2483 14.4568 97.4256 14.478C97.6015 14.4993 97.7268 14.6585 97.7054 14.8328L96.7422 22.7291C96.7223 22.8913 96.5847 23.0096 96.4241 23.0096H96.4226Z" fill="#BDBDBD"/>
<path d="M81.7812 36.0639H66.9471C66.7697 36.0639 66.626 35.9214 66.626 35.7455C66.626 35.5696 66.7697 35.4271 66.9471 35.4271H81.7812C82.1909 35.4271 82.5747 35.2679 82.8637 34.9798C83.1511 34.6917 83.3086 34.3081 83.3056 33.9033C83.4692 27.549 88.7946 22.4122 95.1903 22.4122C95.2132 22.4122 95.2346 22.4122 95.2575 22.4122C95.6566 22.4152 96.0587 22.4365 96.4532 22.4774C96.629 22.4956 96.7575 22.6533 96.7391 22.8276C96.7208 23.002 96.5618 23.1294 96.3859 23.1112C96.0129 23.0717 95.6321 23.0505 95.2545 23.049C95.2331 23.049 95.2117 23.049 95.1903 23.049C89.1386 23.049 84.1022 27.9068 83.9477 33.9094C83.9538 34.4749 83.7306 35.0192 83.3209 35.4301C82.9111 35.841 82.3652 36.0669 81.7827 36.0669L81.7812 36.0639Z" fill="#BDBDBD"/>
<path d="M10.2635 22.6275C10.21 22.6275 10.155 22.6139 10.1045 22.5851C9.95008 22.4971 9.89656 22.303 9.98525 22.1499C10.1611 21.8452 11.7084 19.1615 11.8812 18.9053C11.979 18.7582 12.1793 18.7188 12.3261 18.8173C12.4729 18.9144 12.5126 19.113 12.4148 19.2586C12.294 19.439 11.2283 21.2751 10.5433 22.4668C10.4837 22.5699 10.3751 22.6275 10.2635 22.6275Z" fill="#BDBDBD"/>
<path d="M98.236 14.8829H96.181C96.0037 14.8829 95.86 14.7403 95.86 14.5645C95.86 14.3886 96.0037 14.2461 96.181 14.2461H98.236C98.4133 14.2461 98.5571 14.3886 98.5571 14.5645C98.5571 14.7403 98.4133 14.8829 98.236 14.8829Z" fill="#BDBDBD"/>
<path d="M41.2558 35.7455C41.0784 35.744 40.9362 35.5984 40.9393 35.4225C41.0127 29.6702 39.9011 25.6887 38.9547 23.3629C38.2177 21.551 38.626 19.4769 39.9944 18.0805L42.057 15.9745C42.0982 15.9321 42.1502 15.9017 42.2083 15.8881L46.5781 14.7782C46.7494 14.7343 46.9252 14.8374 46.9696 15.0072C47.0139 15.177 46.9099 15.3514 46.7387 15.3953L42.456 16.4824L40.4561 18.5247C39.2651 19.7407 38.9103 21.5465 39.5525 23.1248C40.5203 25.5052 41.6579 29.5731 41.583 35.4316C41.5815 35.606 41.4377 35.7455 41.2619 35.7455H41.2558Z" fill="#BDBDBD"/>
<path d="M66.8814 15.0496C66.73 15.0496 66.597 14.945 66.5664 14.7919C66.5526 14.7237 66.2514 13.0983 67.2988 10.962C68.577 8.35723 70.9714 9.40036 70.9958 9.41097C71.1579 9.48375 71.2282 9.67175 71.1548 9.83247C71.0814 9.99167 70.8918 10.0629 70.7298 9.99167C70.6503 9.95679 68.8751 9.20477 67.8752 11.241C66.9272 13.1726 67.1933 14.657 67.1948 14.6721C67.2269 14.845 67.1138 15.0117 66.9395 15.0436C66.9196 15.0481 66.8982 15.0496 66.8783 15.0496H66.8814Z" fill="#BDBDBD"/>
<path d="M88.4582 15.0496C88.3068 15.0496 88.1738 14.945 88.1432 14.7919C88.1295 14.7237 87.8283 13.0983 88.8756 10.962C90.1538 8.35723 92.5482 9.40036 92.5727 9.41097C92.7347 9.48375 92.8051 9.67175 92.7317 9.83247C92.6583 9.99167 92.4687 10.0629 92.3066 9.99167C92.2271 9.95679 90.452 9.20477 89.452 11.241C88.5041 13.1726 88.7701 14.657 88.7717 14.6721C88.8038 14.845 88.6906 15.0117 88.5163 15.0436C88.4964 15.0481 88.475 15.0496 88.4551 15.0496H88.4582Z" fill="#BDBDBD"/>
<path d="M93.4686 14.7949C93.4549 14.7949 93.4411 14.7949 93.4274 14.7919C93.2515 14.7691 93.1277 14.6099 93.1491 14.4356L93.5986 10.9332C93.6216 10.7589 93.7821 10.636 93.9579 10.6573C94.1338 10.68 94.2576 10.8392 94.2362 11.0136L93.7867 14.5159C93.7653 14.6767 93.6277 14.7949 93.4686 14.7949Z" fill="#BDBDBD"/>
<path d="M112.821 23.2203C112.662 23.2203 112.471 23.1673 112.269 22.9975C111.856 22.6518 111.559 21.8664 111.364 20.5973C111.226 19.7058 111.192 18.9159 111.191 18.8825C111.185 18.7279 111.292 18.5899 111.446 18.5581L113.887 18.0486C114.059 18.0123 114.231 18.1229 114.267 18.2943C114.304 18.4656 114.192 18.6354 114.02 18.6718L111.848 19.1251C111.923 20.3199 112.194 22.0999 112.685 22.5108C112.789 22.5972 112.833 22.5835 112.85 22.5775C113.075 22.5047 113.38 21.8679 113.513 21.3388C113.541 21.2281 113.627 21.1401 113.738 21.1098L115.344 20.6641C115.515 20.6171 115.692 20.7156 115.74 20.8854C115.787 21.0552 115.688 21.2311 115.516 21.2781L114.085 21.6753C113.958 22.0999 113.625 22.999 113.046 23.1839C112.981 23.2037 112.905 23.2188 112.819 23.2188L112.821 23.2203Z" fill="#BDBDBD"/>
<path d="M115.493 27.9766C115.348 27.9766 115.217 27.878 115.182 27.7325L114.668 25.6311C114.627 25.4628 114.727 25.2929 114.896 25.249L116.565 24.8032C116.737 24.7577 116.912 24.8578 116.958 25.0276C117.004 25.1974 116.903 25.3718 116.732 25.4173L115.365 25.7827L115.73 27.2776L116.834 27.029C117.007 26.9911 117.18 27.0972 117.218 27.2685C117.258 27.4399 117.149 27.6112 116.977 27.6491L115.564 27.9675C115.539 27.9736 115.516 27.9751 115.492 27.9751L115.493 27.9766Z" fill="#BDBDBD"/>
</g>
</g>
<defs>
<clipPath id="clip0_5058_2661">
<rect width="117" height="43" fill="white" transform="translate(0.785156)"/>
</clipPath>
</defs>
</svg>
