<svg width="118" height="43" viewBox="0 0 118 43" fill="none" xmlns="http://www.w3.org/2000/svg">
<g id="Car type" clip-path="url(#clip0_5058_2649)">
<g id="Vector">
<path d="M18.0473 43.0003C13.5123 43.0003 9.57252 39.6342 9.00286 35.0511C8.70531 32.6506 9.36566 30.2769 10.8646 28.371C12.3635 26.4635 14.5196 25.2498 16.9366 24.9542C19.3537 24.6571 21.7437 25.3146 23.6627 26.8033C25.5833 28.292 26.8053 30.4333 27.1029 32.8339C27.4004 35.2344 26.7401 37.6081 25.2411 39.514C23.7422 41.4215 21.5861 42.6353 19.1691 42.9308C18.792 42.9766 18.4165 43.0003 18.0457 43.0003H18.0473ZM18.0712 25.5485C17.7227 25.5485 17.371 25.569 17.0194 25.6132C14.779 25.8882 12.7804 27.0119 11.3913 28.7803C10.0021 30.5471 9.38953 32.747 9.6664 34.9721C10.2376 39.5646 14.4639 42.8407 19.0879 42.2749C21.3284 41.9999 23.3269 40.8763 24.7161 39.1079C26.1052 37.3411 26.7178 35.1412 26.4409 32.9161C26.1641 30.6909 25.0327 28.706 23.2521 27.3264C21.7516 26.1632 19.9424 25.5485 18.0696 25.5485H18.0712Z" fill="#BDBDBD"/>
<path d="M85.4907 37.9337H29.0187C28.9391 37.9337 28.8627 37.9053 28.8023 37.8547L27.8619 37.0582C27.7616 36.9744 27.7218 36.8385 27.7568 36.7137C28.1626 35.3119 28.2549 33.8643 28.0289 32.4088C27.6359 29.877 26.2866 27.6108 24.2275 26.0273C22.1701 24.4438 19.6226 23.7121 17.056 23.9649C14.3255 24.2352 11.8782 25.5548 10.1676 27.6819C8.45549 29.8091 7.69807 32.4688 8.03382 35.1697C8.0911 35.628 8.18021 36.0878 8.30273 36.5382H9.63776C9.82234 36.5382 9.97191 36.6868 9.97191 36.8701C9.97191 37.0534 9.82234 37.202 9.63776 37.202H3.62299C3.48614 37.202 3.36362 37.1198 3.3127 36.9934L0.238484 29.3619C0.216207 29.305 0.209842 29.2433 0.219389 29.1833L0.362598 28.333C0.801772 25.7112 1.88379 23.2016 3.48932 21.0745C3.53865 21.0097 3.61026 20.9638 3.69141 20.948C3.83143 20.9196 17.9375 18.1429 37.3248 16.0426C47.7806 7.69834 59.1164 4.52973 59.2294 4.49813C59.2517 4.4918 59.2755 4.48864 59.2994 4.48706C59.581 4.47126 87.6881 2.91461 101.497 5.45108C101.568 5.46372 101.632 5.50007 101.681 5.55222L115.499 20.3981C115.537 20.4407 115.566 20.4913 115.579 20.5466L116.365 23.8322C116.917 26.1427 116.658 28.5985 115.631 30.7447L113.873 34.4253C113.848 34.4806 113.806 34.5265 113.755 34.5596L109.924 37.0819C109.87 37.1182 109.804 37.1372 109.739 37.1372H106.991C106.886 37.1372 106.787 37.0882 106.724 37.0044C106.66 36.9207 106.641 36.8132 106.67 36.7137C107.075 35.3119 107.168 33.8643 106.942 32.4088C106.549 29.877 105.199 27.6108 103.14 26.0273C101.081 24.4438 98.5354 23.7121 95.9688 23.9649C93.2367 24.2352 90.791 25.5548 89.0805 27.6819C87.3683 29.8091 86.6109 32.4688 86.9466 35.1697C87.0103 35.688 87.1169 36.2064 87.2633 36.7137C87.2887 36.8037 87.276 36.9017 87.2251 36.9823C86.8464 37.5781 86.1988 37.9337 85.4891 37.9337H85.4907ZM29.1412 37.2699H85.4891C85.9203 37.2699 86.3165 37.0756 86.5791 36.7437C86.4454 36.2538 86.3467 35.7528 86.2847 35.2518C85.9267 32.3708 86.735 29.5357 88.5601 27.2679C90.3852 25.0016 92.9932 23.5936 95.9051 23.3059C98.642 23.0341 101.358 23.8148 103.552 25.5042C105.747 27.192 107.185 29.61 107.605 32.3092C107.823 33.7141 107.763 35.1128 107.429 36.475H109.64L113.311 34.0587L115.03 30.4618C115.989 28.4516 116.234 26.1521 115.716 23.9871L114.95 20.7868L101.268 6.08638C87.7263 3.63367 60.5373 5.08602 59.3758 5.15081C58.6884 5.34678 47.7536 8.547 37.6701 16.6226C37.6208 16.6621 37.5603 16.6874 37.4966 16.6937C19.0641 18.6866 5.39559 21.2957 3.94918 21.577C2.44867 23.5967 1.43826 25.9688 1.02295 28.4452L0.895653 29.2038L3.85053 36.5414H7.61374C7.50713 36.1163 7.42597 35.6849 7.37187 35.2534C7.01385 32.3724 7.82219 29.5373 9.6473 27.2695C11.4724 25.0032 14.0804 23.5951 16.9923 23.3075C19.7292 23.0357 22.4454 23.8164 24.6397 25.5058C26.8339 27.1936 28.2724 29.6115 28.6909 32.3108C28.92 33.79 28.8421 35.2629 28.4586 36.6931L29.1428 37.2731L29.1412 37.2699Z" fill="#BDBDBD"/>
<path d="M34.7216 36.208C31.022 36.208 30.6767 32.2065 30.6544 31.8715C30.1564 28.6839 28.4538 25.8298 25.8601 23.8338C23.2633 21.8346 20.049 20.9117 16.8109 21.2325C16.6279 21.2499 16.464 21.1171 16.4449 20.9354C16.4274 20.7537 16.5611 20.5909 16.7441 20.5719C20.1541 20.2337 23.5354 21.2072 26.2691 23.3091C29.0028 25.4125 30.7945 28.4215 31.3164 31.7845C31.318 31.7972 31.3196 31.8082 31.3196 31.8209C31.3196 31.8304 31.3673 32.7912 31.8256 33.7284C32.4143 34.9326 33.3881 35.5426 34.72 35.5426C34.9046 35.5426 35.0541 35.6912 35.0541 35.8745C35.0541 36.0578 34.9046 36.2064 34.72 36.2064L34.7216 36.208Z" fill="#BDBDBD"/>
<path d="M18.0393 40.7878C16.5118 40.7878 15.0367 40.2868 13.8131 39.3386C12.3619 38.2134 11.439 36.5951 11.2131 34.7809C10.9871 32.9666 11.4867 31.1729 12.6197 29.7317C13.7526 28.2904 15.382 27.3738 17.2087 27.1494C20.9815 26.6879 24.428 29.3587 24.8927 33.1041C25.1186 34.9184 24.619 36.7121 23.486 38.1534C22.3531 39.5947 20.7237 40.5113 18.897 40.7357C18.6106 40.7704 18.3242 40.7878 18.0393 40.7878ZM18.0584 27.761C17.8054 27.761 17.5492 27.7768 17.2915 27.8084C15.6414 28.0106 14.1695 28.8388 13.1464 30.141C12.1232 31.4432 11.6729 33.0615 11.8766 34.7003C12.0803 36.3391 12.9141 37.8009 14.2252 38.8171C15.5364 39.8333 17.1658 40.2805 18.8158 40.0782C20.4659 39.8759 21.9378 39.0478 22.9609 37.7456C23.9841 36.4434 24.4344 34.8251 24.2307 33.1863C23.8425 30.0588 21.1533 27.761 18.0584 27.761Z" fill="#BDBDBD"/>
<path d="M18.0521 35.7623C17.1403 35.7623 16.3495 35.0859 16.2349 34.1661C16.1744 33.6841 16.3081 33.2069 16.6088 32.8244C16.9096 32.442 17.3424 32.197 17.8293 32.1385C18.3146 32.0785 18.7952 32.2112 19.1802 32.5099C19.5653 32.8086 19.8119 33.2385 19.8708 33.7221C19.9313 34.2041 19.7976 34.6813 19.4969 35.0638C19.1961 35.4462 18.7633 35.6912 18.2764 35.7496C18.2001 35.7591 18.1253 35.7639 18.0505 35.7639L18.0521 35.7623ZM18.0568 32.7865C18.0091 32.7865 17.9598 32.7896 17.912 32.796C17.2756 32.8734 16.8205 33.4518 16.9 34.084C16.978 34.7161 17.5604 35.1665 18.1969 35.0891C18.8334 35.0116 19.2884 34.4332 19.2089 33.8011C19.1707 33.4945 19.0147 33.2211 18.7697 33.0314C18.5628 32.8718 18.3146 32.7865 18.0568 32.7865Z" fill="#BDBDBD"/>
<path d="M18.0521 37.2336C16.4036 37.2336 14.9715 36.0104 14.7646 34.3447C14.6564 33.4724 14.8967 32.6095 15.4409 31.9173C15.9851 31.2235 16.7696 30.7826 17.6479 30.6751C18.5262 30.5677 19.395 30.8063 20.092 31.3468C20.7905 31.8873 21.2345 32.6664 21.3427 33.5387C21.4509 34.4111 21.2106 35.274 20.6664 35.9662C20.1222 36.6584 19.3378 37.1008 18.4594 37.2083C18.3226 37.2257 18.1857 37.2336 18.0521 37.2336ZM18.06 31.3152C17.9502 31.3152 17.8404 31.3215 17.7306 31.3357C17.0289 31.4211 16.4036 31.7735 15.9692 32.3266C15.5348 32.8797 15.3422 33.5688 15.4298 34.2641C15.608 35.7022 16.9319 36.7263 18.3799 36.5509C19.0816 36.4655 19.7069 36.1131 20.1413 35.56C20.5757 35.0069 20.7683 34.3178 20.6807 33.6225C20.5948 32.9256 20.24 32.3045 19.6831 31.873C19.2136 31.5096 18.6472 31.3168 18.06 31.3168V31.3152Z" fill="#BDBDBD"/>
<path d="M17.6224 31.3041C17.4554 31.3041 17.3122 31.1808 17.2915 31.0133L16.8666 27.5871C16.8443 27.4054 16.9748 27.2394 17.1578 27.2173C17.3408 27.1952 17.5079 27.3248 17.5302 27.5065L17.955 30.9327C17.9773 31.1145 17.8468 31.2804 17.6638 31.3025C17.6495 31.3041 17.6368 31.3057 17.6224 31.3057V31.3041Z" fill="#BDBDBD"/>
<path d="M18.4658 31.3199C18.4483 31.3199 18.4308 31.3199 18.4133 31.3152C18.2303 31.2867 18.1078 31.116 18.1364 30.9343L18.6854 27.5255C18.714 27.3453 18.8859 27.222 19.0688 27.2505C19.2518 27.2789 19.3744 27.4496 19.3457 27.6314L18.7968 31.0402C18.7697 31.203 18.6281 31.3199 18.4674 31.3199H18.4658Z" fill="#BDBDBD"/>
<path d="M18.9161 40.6424C18.749 40.6424 18.6058 40.5192 18.5851 40.3516L18.1603 36.9254C18.138 36.7437 18.2685 36.5778 18.4515 36.5556C18.6344 36.5335 18.8015 36.6631 18.8238 36.8448L19.2487 40.271C19.2709 40.4528 19.1405 40.6187 18.9575 40.6408C18.9431 40.6424 18.9304 40.644 18.9161 40.644V40.6424Z" fill="#BDBDBD"/>
<path d="M17.0989 40.6092C17.0814 40.6092 17.0639 40.6092 17.0464 40.6045C16.8634 40.576 16.7409 40.4054 16.7696 40.2236L17.3185 36.8148C17.3472 36.6331 17.519 36.5114 17.702 36.5398C17.885 36.5683 18.0075 36.7389 17.9789 36.9207L17.4299 40.3295C17.4029 40.4923 17.2612 40.6092 17.1005 40.6092H17.0989Z" fill="#BDBDBD"/>
<path d="M19.8533 31.8651C19.7817 31.8651 19.7085 31.8414 19.648 31.7956C19.5033 31.6834 19.4762 31.4748 19.5908 31.3294L21.7294 28.608C21.8423 28.4642 22.0524 28.4373 22.1988 28.5511C22.3436 28.6633 22.3706 28.8719 22.256 29.0173L20.1175 31.7387C20.0522 31.8225 19.9536 31.8667 19.8533 31.8667V31.8651Z" fill="#BDBDBD"/>
<path d="M20.4405 32.4672C20.337 32.4672 20.2352 32.4198 20.17 32.3298C20.0618 32.1812 20.0952 31.9742 20.2448 31.8667L23.0596 29.8423C23.2092 29.7348 23.4176 29.768 23.5258 29.9166C23.634 30.0651 23.6006 30.2721 23.451 30.3796L20.6362 32.404C20.5773 32.4467 20.5089 32.4672 20.4405 32.4672Z" fill="#BDBDBD"/>
<path d="M14.1218 39.3766C14.0502 39.3766 13.977 39.3544 13.9165 39.307C13.7717 39.1948 13.7447 38.9862 13.8592 38.8408L15.9978 36.1194C16.1108 35.9741 16.3208 35.9488 16.4672 36.0626C16.612 36.1748 16.6391 36.3834 16.5245 36.5288L14.3859 39.2501C14.3207 39.3339 14.222 39.3781 14.1218 39.3781V39.3766Z" fill="#BDBDBD"/>
<path d="M12.86 38.0775C12.7565 38.0775 12.6547 38.0301 12.5894 37.94C12.4812 37.7915 12.5147 37.5844 12.6642 37.477L15.4791 35.4525C15.6287 35.3451 15.8371 35.3783 15.9453 35.5268C16.0535 35.6754 16.0201 35.8824 15.8705 35.9899L13.0557 38.0143C12.9968 38.057 12.9284 38.0775 12.86 38.0775Z" fill="#BDBDBD"/>
<path d="M21.1072 33.8864C20.9401 33.8864 20.7969 33.7631 20.7762 33.5956C20.7539 33.4139 20.8844 33.2479 21.0674 33.2258L24.5171 32.8039C24.7001 32.7802 24.8672 32.9113 24.8895 33.0931C24.9118 33.2748 24.7813 33.4407 24.5983 33.4629L21.1486 33.8848C21.1342 33.8864 21.1215 33.888 21.1072 33.888V33.8864Z" fill="#BDBDBD"/>
<path d="M24.4503 35.2123C24.4328 35.2123 24.4153 35.2123 24.3978 35.2076L20.9656 34.6624C20.7826 34.6339 20.6601 34.4632 20.6887 34.2815C20.7173 34.0998 20.8892 33.9765 21.0722 34.0065L24.5044 34.5517C24.6874 34.5802 24.8099 34.7509 24.7813 34.9326C24.7542 35.0954 24.6126 35.2123 24.4519 35.2123H24.4503Z" fill="#BDBDBD"/>
<path d="M11.7047 35.1728C11.5377 35.1728 11.3944 35.0495 11.3738 34.882C11.3515 34.7003 11.482 34.5344 11.665 34.5122L15.1147 34.0903C15.2977 34.0681 15.4648 34.1977 15.487 34.3795C15.5093 34.5612 15.3788 34.7272 15.1958 34.7493L11.7461 35.1712C11.7318 35.1728 11.7191 35.1744 11.7047 35.1744V35.1728Z" fill="#BDBDBD"/>
<path d="M15.0956 33.8548C15.0781 33.8548 15.0606 33.8548 15.0431 33.8501L11.6109 33.3048C11.4279 33.2764 11.3053 33.1057 11.334 32.924C11.3626 32.7422 11.5345 32.619 11.7175 32.649L15.1497 33.1942C15.3327 33.2227 15.4552 33.3933 15.4266 33.5751C15.3995 33.7379 15.2579 33.8548 15.0972 33.8548H15.0956Z" fill="#BDBDBD"/>
<path d="M23.233 38.2134C23.1614 38.2134 23.0882 38.1897 23.0278 38.1439L20.2877 36.0199C20.1429 35.9077 20.1159 35.6991 20.2304 35.5537C20.3434 35.4099 20.5534 35.383 20.6998 35.4968L23.4399 37.6208C23.5847 37.733 23.6118 37.9416 23.4972 38.087C23.4319 38.1707 23.3333 38.215 23.233 38.215V38.2134Z" fill="#BDBDBD"/>
<path d="M21.9139 39.3734C21.8105 39.3734 21.7087 39.326 21.6434 39.2359L19.6051 36.4403C19.4969 36.2917 19.5303 36.0847 19.6799 35.9772C19.8294 35.8698 20.0379 35.9029 20.1461 36.0515L22.1844 38.8471C22.2926 38.9957 22.2592 39.2027 22.1096 39.3102C22.0508 39.3529 21.9824 39.3734 21.9139 39.3734Z" fill="#BDBDBD"/>
<path d="M15.67 32.5194C15.5984 32.5194 15.5252 32.4973 15.4648 32.4499L12.7247 30.3259C12.5799 30.2137 12.5528 30.0051 12.6674 29.8597C12.7804 29.7143 12.9904 29.689 13.1368 29.8028L15.8769 31.9268C16.0217 32.039 16.0487 32.2476 15.9342 32.393C15.8689 32.4767 15.7703 32.521 15.67 32.521V32.5194Z" fill="#BDBDBD"/>
<path d="M16.2651 31.8446C16.1617 31.8446 16.0599 31.7972 15.9946 31.7071L13.9563 28.9115C13.8481 28.7629 13.8815 28.5559 14.0311 28.4484C14.1807 28.3409 14.3891 28.3741 14.4973 28.5227L16.5356 31.3183C16.6438 31.4669 16.6104 31.6739 16.4609 31.7814C16.402 31.824 16.3336 31.8446 16.2651 31.8446Z" fill="#BDBDBD"/>
<path d="M96.9887 43.0003C92.4538 43.0003 88.514 39.6342 87.9443 35.0511C87.6468 32.6506 88.3071 30.2769 89.806 28.371C91.3049 26.4635 93.461 25.2498 95.8781 24.9542C100.868 24.3426 105.43 27.8779 106.044 32.8339C106.66 37.7899 103.101 42.3208 98.1105 42.9308C97.7334 42.9766 97.3579 43.0003 96.9872 43.0003H96.9887ZM97.0015 25.5485C96.6578 25.5485 96.3109 25.569 95.9608 25.6117C93.7204 25.8867 91.7218 27.0103 90.3327 28.7787C88.9436 30.5455 88.331 32.7454 88.6079 34.9705C89.1791 39.563 93.4053 42.8407 98.0294 42.2733C102.653 41.706 105.952 37.5086 105.382 32.9161C104.856 28.6697 101.204 25.55 97.0015 25.55V25.5485Z" fill="#BDBDBD"/>
<path d="M96.9808 40.7878C95.4532 40.7878 93.9782 40.2868 92.7546 39.3386C91.3034 38.2134 90.3805 36.5951 90.1545 34.7809C89.9286 32.9666 90.4282 31.1729 91.5611 29.7317C92.6941 28.2904 94.3235 27.3738 96.1502 27.1494C97.9769 26.9249 99.7829 27.4212 101.234 28.5464C102.685 29.6716 103.608 31.2899 103.834 33.1041C104.299 36.8496 101.61 40.2742 97.8385 40.7357C97.5521 40.7704 97.2656 40.7878 96.9808 40.7878ZM96.9999 27.761C96.7469 27.761 96.4907 27.7768 96.2329 27.8084C94.5829 28.0106 93.111 28.8388 92.0878 30.141C91.0647 31.4432 90.6144 33.0615 90.8181 34.7003C91.0217 36.3391 91.8555 37.8009 93.1667 38.8171C94.4778 39.8333 96.1072 40.2805 97.7573 40.0782C101.163 39.661 103.592 36.5698 103.172 33.1863C102.784 30.0588 100.095 27.761 96.9999 27.761Z" fill="#BDBDBD"/>
<path d="M96.9919 35.7623C96.5862 35.7623 96.1932 35.6295 95.8686 35.3767C95.4835 35.078 95.2368 34.6481 95.178 34.1645C95.1175 33.6825 95.2512 33.2053 95.5519 32.8228C95.8526 32.4404 96.2854 32.1954 96.7724 32.137C97.2577 32.0769 97.7382 32.2097 98.1233 32.5083C98.5084 32.807 98.755 33.2369 98.8139 33.7205C98.8743 34.2025 98.7407 34.6797 98.4399 35.0622C98.1392 35.4446 97.7064 35.6896 97.2195 35.7481C97.1431 35.7575 97.0667 35.7623 96.9919 35.7623ZM96.9967 32.7865C96.949 32.7865 96.8997 32.7896 96.8519 32.796C96.2154 32.8734 95.7604 33.4518 95.8399 34.084C95.8781 34.3905 96.034 34.6639 96.2791 34.8536C96.5241 35.0432 96.8296 35.127 97.1367 35.0891C97.7732 35.0116 98.2283 34.4332 98.1488 33.8011C98.1106 33.4945 97.9546 33.2211 97.7096 33.0314C97.5027 32.8718 97.2545 32.7865 96.9967 32.7865Z" fill="#BDBDBD"/>
<path d="M96.9888 37.2352C96.2536 37.2352 95.5455 36.9934 94.9568 36.5382C94.2582 35.9978 93.8143 35.2186 93.7061 34.3463C93.5979 33.4739 93.8382 32.6111 94.3824 31.9189C94.9266 31.2251 95.711 30.7842 96.5894 30.6767C97.4677 30.5692 98.3365 30.8079 99.0335 31.3484C99.732 31.8888 100.176 32.668 100.284 33.5403C100.392 34.4127 100.152 35.2755 99.6079 35.9677C99.0637 36.6615 98.2792 37.1024 97.4009 37.2099C97.2625 37.2273 97.1256 37.2352 96.9888 37.2352ZM96.9999 31.3152C96.8901 31.3152 96.7803 31.3215 96.6705 31.3357C95.9688 31.4211 95.3434 31.7735 94.909 32.3266C94.4746 32.8797 94.2821 33.5688 94.3696 34.2641C94.4556 34.961 94.8104 35.5821 95.3673 36.0136C95.9242 36.445 96.618 36.6362 97.3181 36.5493C98.0199 36.464 98.6452 36.1115 99.0796 35.5584C99.514 35.0053 99.7066 34.3163 99.619 33.6209C99.5331 32.924 99.1783 32.3029 98.6213 31.8715C98.1519 31.508 97.5855 31.3152 96.9983 31.3152H96.9999Z" fill="#BDBDBD"/>
<path d="M96.5623 31.3041C96.3952 31.3041 96.252 31.1808 96.2313 31.0133L95.8065 27.5871C95.7842 27.4054 95.9147 27.2394 96.0977 27.2173C96.2823 27.1952 96.4477 27.3248 96.47 27.5065L96.8949 30.9327C96.9172 31.1145 96.7867 31.2804 96.6037 31.3025C96.5894 31.3041 96.5766 31.3057 96.5623 31.3057V31.3041Z" fill="#BDBDBD"/>
<path d="M97.4072 31.3199C97.3897 31.3199 97.3722 31.3199 97.3547 31.3152C97.1717 31.2867 97.0492 31.116 97.0779 30.9343L97.6268 27.5255C97.6555 27.3453 97.8273 27.222 98.0103 27.2505C98.1933 27.2789 98.3158 27.4496 98.2872 27.6314L97.7382 31.0402C97.7112 31.203 97.5695 31.3199 97.4088 31.3199H97.4072Z" fill="#BDBDBD"/>
<path d="M97.8576 40.6424C97.6905 40.6424 97.5473 40.5192 97.5266 40.3516L97.1017 36.9254C97.0795 36.7437 97.2099 36.5778 97.3929 36.5556C97.5759 36.5335 97.743 36.6631 97.7653 36.8448L98.1901 40.271C98.2124 40.4528 98.0819 40.6187 97.8989 40.6408C97.8846 40.6424 97.8719 40.644 97.8576 40.644V40.6424Z" fill="#BDBDBD"/>
<path d="M96.0404 40.6092C96.0229 40.6092 96.0054 40.6092 95.9879 40.6045C95.8049 40.576 95.6824 40.4054 95.711 40.2236L96.26 36.8148C96.2886 36.6331 96.4605 36.5114 96.6435 36.5398C96.8265 36.5683 96.949 36.7389 96.9203 36.9207L96.3714 40.3295C96.3443 40.4923 96.2027 40.6092 96.042 40.6092H96.0404Z" fill="#BDBDBD"/>
<path d="M98.7948 31.8651C98.7232 31.8651 98.65 31.8414 98.5895 31.7956C98.4447 31.6834 98.4177 31.4748 98.5322 31.3294L100.671 28.608C100.784 28.4642 100.994 28.4373 101.14 28.5511C101.285 28.6633 101.312 28.8719 101.198 29.0173L99.0589 31.7387C98.9937 31.8225 98.895 31.8667 98.7948 31.8667V31.8651Z" fill="#BDBDBD"/>
<path d="M99.3819 32.4672C99.2785 32.4672 99.1767 32.4198 99.1114 32.3298C99.0032 32.1812 99.0366 31.9742 99.1862 31.8667L102.001 29.8423C102.151 29.7348 102.359 29.768 102.467 29.9166C102.575 30.0651 102.542 30.2721 102.393 30.3796L99.5777 32.404C99.5188 32.4467 99.4503 32.4672 99.3819 32.4672Z" fill="#BDBDBD"/>
<path d="M93.0616 39.3766C92.99 39.3766 92.9168 39.3544 92.8564 39.307C92.7116 39.1948 92.6845 38.9862 92.7991 38.8408L94.9377 36.1194C95.0507 35.9741 95.2607 35.9488 95.4071 36.0626C95.5519 36.1748 95.5789 36.3834 95.4644 36.5288L93.3258 39.2501C93.2605 39.3339 93.1619 39.3781 93.0616 39.3781V39.3766Z" fill="#BDBDBD"/>
<path d="M91.7998 38.0775C91.6964 38.0775 91.5946 38.0301 91.5293 37.94C91.4211 37.7915 91.4545 37.5844 91.6041 37.477L94.419 35.4525C94.5685 35.3451 94.777 35.3783 94.8852 35.5268C94.9934 35.6754 94.96 35.8824 94.8104 35.9899L91.9955 38.0143C91.9367 38.057 91.8682 38.0775 91.7998 38.0775Z" fill="#BDBDBD"/>
<path d="M100.049 33.8864C99.8816 33.8864 99.7384 33.7631 99.7177 33.5956C99.6954 33.4139 99.8259 33.2479 100.009 33.2258L103.459 32.8039C103.642 32.7802 103.809 32.9113 103.831 33.0931C103.853 33.2748 103.723 33.4407 103.54 33.4629L100.09 33.8848C100.076 33.8864 100.063 33.888 100.049 33.888V33.8864Z" fill="#BDBDBD"/>
<path d="M103.392 35.2123C103.374 35.2123 103.357 35.2123 103.339 35.2076L99.907 34.6624C99.7241 34.6339 99.6015 34.4632 99.6302 34.2815C99.6588 34.0998 99.8307 33.9765 100.014 34.0065L103.446 34.5517C103.629 34.5802 103.751 34.7509 103.723 34.9326C103.696 35.0954 103.554 35.2123 103.393 35.2123H103.392Z" fill="#BDBDBD"/>
<path d="M90.6462 35.1728C90.4791 35.1728 90.3359 35.0495 90.3152 34.882C90.293 34.7003 90.4234 34.5344 90.6064 34.5122L94.0562 34.0903C94.2407 34.0681 94.4062 34.1977 94.4285 34.3795C94.4508 34.5612 94.3203 34.7272 94.1373 34.7493L90.6876 35.1712C90.6733 35.1728 90.6605 35.1744 90.6462 35.1744V35.1728Z" fill="#BDBDBD"/>
<path d="M94.0371 33.8548C94.0196 33.8548 94.0021 33.8548 93.9846 33.8501L90.5523 33.3048C90.3693 33.2764 90.2468 33.1057 90.2755 32.924C90.3041 32.7422 90.4759 32.619 90.6589 32.649L94.0912 33.1942C94.2742 33.2227 94.3967 33.3933 94.368 33.5751C94.341 33.7379 94.1994 33.8548 94.0387 33.8548H94.0371Z" fill="#BDBDBD"/>
<path d="M102.175 38.2134C102.103 38.2134 102.03 38.1897 101.969 38.1439L99.2292 36.0199C99.0844 35.9077 99.0573 35.6991 99.1719 35.5537C99.2849 35.4099 99.4949 35.383 99.6413 35.4968L102.381 37.6208C102.526 37.733 102.553 37.9416 102.439 38.087C102.373 38.1707 102.275 38.215 102.175 38.215V38.2134Z" fill="#BDBDBD"/>
<path d="M100.855 39.3734C100.752 39.3734 100.65 39.326 100.585 39.2359L98.5465 36.4403C98.4383 36.2917 98.4718 36.0847 98.6213 35.9772C98.7709 35.8698 98.9794 35.9029 99.0876 36.0515L101.126 38.8471C101.234 38.9957 101.201 39.2027 101.051 39.3102C100.992 39.3529 100.924 39.3734 100.855 39.3734Z" fill="#BDBDBD"/>
<path d="M94.6115 32.5194C94.5399 32.5194 94.4667 32.4973 94.4062 32.4499L91.6662 30.3259C91.5214 30.2137 91.4943 30.0051 91.6089 29.8597C91.7219 29.7143 91.9319 29.689 92.0783 29.8028L94.8184 31.9268C94.9632 32.039 94.9902 32.2476 94.8756 32.393C94.8104 32.4767 94.7117 32.521 94.6115 32.521V32.5194Z" fill="#BDBDBD"/>
<path d="M95.2066 31.8446C95.1032 31.8446 95.0013 31.7972 94.9361 31.7071L92.8978 28.9115C92.7896 28.7629 92.823 28.5559 92.9725 28.4484C93.1221 28.3409 93.3306 28.3741 93.4388 28.5227L95.4771 31.3183C95.5853 31.4669 95.5519 31.6739 95.4023 31.7814C95.3435 31.824 95.275 31.8446 95.2066 31.8446Z" fill="#BDBDBD"/>
<path d="M25.9238 38.0712C25.7456 38.0712 25.5976 37.9321 25.5896 37.7535C25.5817 37.5702 25.7249 37.4153 25.9095 37.4074L28.9837 37.2747C29.1683 37.2699 29.3242 37.409 29.3321 37.5923C29.3401 37.7757 29.1969 37.9305 29.0123 37.9384L25.9381 38.0712C25.9381 38.0712 25.9286 38.0712 25.9238 38.0712Z" fill="#BDBDBD"/>
<path d="M88.8784 38.0712H85.6705C85.4859 38.0712 85.3363 37.9226 85.3363 37.7393C85.3363 37.556 85.4859 37.4074 85.6705 37.4074H88.8784C89.063 37.4074 89.2125 37.556 89.2125 37.7393C89.2125 37.9226 89.063 38.0712 88.8784 38.0712Z" fill="#BDBDBD"/>
<path d="M37.4585 16.6937C37.2946 16.6937 37.1498 16.5736 37.1275 16.4061C37.102 16.2244 37.2309 16.0568 37.4139 16.0331L42.2448 15.382C42.6681 15.0312 44.8273 13.2565 47.7345 11.1862C50.7228 9.05903 55.1352 6.1733 59.1912 4.51235C59.3614 4.44281 59.5572 4.52341 59.6272 4.69251C59.6972 4.86161 59.616 5.05599 59.4458 5.12553C55.4487 6.76277 51.0824 9.61848 48.1243 11.7251C44.9133 14.0119 42.6235 15.932 42.6012 15.951C42.5519 15.992 42.493 16.0173 42.431 16.0268L37.5046 16.6906C37.4887 16.6921 37.4744 16.6937 37.46 16.6937H37.4585Z" fill="#BDBDBD"/>
<path d="M46.5283 15.8972C46.3947 15.8972 46.2722 15.8166 46.2196 15.6934C46.1655 15.5622 46.199 15.4121 46.3056 15.3188C46.6572 15.0075 46.9484 14.7894 47.2317 14.5792C47.4783 14.3943 47.7122 14.2205 47.9795 13.9897C48.118 13.8696 48.3296 13.8839 48.4505 14.0213C48.5715 14.1588 48.5571 14.369 48.4187 14.4891C48.1323 14.7372 47.8793 14.9269 47.6326 15.1102C47.6008 15.1339 47.5674 15.1592 47.534 15.1829C57.8991 14.7199 97.735 14.4923 102.443 14.467C102.205 13.7859 101.61 12.3477 100.419 10.8685C98.2331 8.15032 95.1811 6.58103 91.3495 6.20649C82.2669 5.31675 60.5358 6.02317 59.048 6.07216C58.6709 6.28235 56.5418 7.53083 51.8207 11.4406C51.6791 11.5576 51.4674 11.5386 51.3497 11.398C51.232 11.2573 51.251 11.0487 51.3927 10.9302C56.6898 6.5431 58.7218 5.48901 58.8061 5.44634C58.8491 5.42421 58.8984 5.41157 58.9461 5.40999C59.1753 5.40209 82.0123 4.62297 91.4148 5.54432C96.4334 6.03581 99.3756 8.498 100.96 10.4766C102.677 12.6227 103.201 14.6298 103.222 14.7135C103.247 14.8131 103.225 14.9174 103.161 14.998C103.097 15.0786 103.002 15.126 102.899 15.126C102.424 15.1292 55.3898 15.371 46.5458 15.8956C46.5395 15.8956 46.5331 15.8956 46.5252 15.8956L46.5283 15.8972Z" fill="#BDBDBD"/>
<path d="M47.2205 14.5176C47.0439 14.5176 46.8959 14.3801 46.8864 14.2031C46.8768 14.0198 47.0184 13.8633 47.203 13.8538L52.5511 13.5741C53.326 13.1838 54.4096 12.4347 54.3905 11.9874C54.3825 11.7883 54.0579 11.6287 53.8543 11.5481C52.8884 11.281 51.2861 11.2715 49.1188 12.7191C48.9661 12.8219 48.7576 12.7808 48.6558 12.6291C48.5524 12.4773 48.5937 12.2703 48.7465 12.1692C50.0656 11.2873 52.0578 10.3533 54.0516 10.9144C54.0627 10.9175 54.0723 10.9207 54.0834 10.9254C54.7119 11.1704 55.0397 11.5196 55.0588 11.9621C55.1034 13.0147 53.1732 14.0119 52.785 14.2015C52.7436 14.2221 52.7006 14.2331 52.6545 14.2347L47.2364 14.5192C47.2364 14.5192 47.2237 14.5192 47.2189 14.5192L47.2205 14.5176Z" fill="#BDBDBD"/>
<path d="M3.08834 35.5C3.0231 35.5 2.95786 35.481 2.90058 35.4431C2.74782 35.3403 2.70804 35.1333 2.81147 34.9816C2.82579 34.961 4.20855 32.9034 3.49887 31.4163C2.81783 29.9877 0.940207 29.542 0.633104 29.5594C0.472392 29.6021 0.300541 29.5199 0.236893 29.3619C0.168471 29.1912 0.251214 28.9984 0.423064 28.9304C0.884515 28.7471 3.25701 29.3634 4.10194 31.1318C4.97551 32.9635 3.43045 35.2582 3.36362 35.3546C3.29838 35.4494 3.19336 35.5 3.08675 35.5H3.08834Z" fill="#BDBDBD"/>
<path d="M6.56354 20.986C6.42829 20.986 6.30099 20.9038 6.25007 20.7695C6.18642 20.5972 6.27394 20.406 6.44579 20.3428C6.90883 20.1721 7.3496 19.9998 7.81582 19.8165C11.7732 18.2693 16.2572 16.5151 33.1176 16.5151C33.3022 16.5151 33.4518 16.6637 33.4518 16.847C33.4518 17.0303 33.3022 17.1789 33.1176 17.1789C16.3845 17.1789 11.9625 18.9078 8.06087 20.4328C7.61215 20.6083 7.14751 20.79 6.6797 20.9623C6.64151 20.9765 6.60173 20.9828 6.56354 20.9828V20.986Z" fill="#BDBDBD"/>
<path d="M86.5727 36.1036H40.9146C40.8239 36.1036 40.7379 36.0673 40.6759 36.0041C40.6122 35.9409 40.5788 35.854 40.5804 35.7639C40.6838 31.1398 40.4038 26.9945 39.7466 23.4418C39.1913 20.4423 40.8859 17.5108 43.7756 16.4741L44.237 16.3081L46.3406 14.8874C46.4933 14.7847 46.7018 14.8242 46.8052 14.9759C46.9086 15.1276 46.8689 15.3346 46.7161 15.4373L44.5775 16.8818C44.5552 16.8976 44.5298 16.9102 44.5027 16.9197L44.0015 17.0999C41.4206 18.0275 39.9057 20.6446 40.4022 23.3249C41.0514 26.8333 41.3378 30.909 41.2551 35.4431H86.5711C86.7557 35.4431 86.9053 35.5916 86.9053 35.7749C86.9053 35.9583 86.7557 36.1068 86.5711 36.1068L86.5727 36.1036Z" fill="#BDBDBD"/>
<path d="M71.2494 15.2335C71.0871 15.2335 70.9454 15.1165 70.92 14.9538L69.4497 5.66127C69.4211 5.47953 69.5452 5.31043 69.7282 5.28198C69.9112 5.25353 70.0814 5.3768 70.1101 5.55854L71.5803 14.851C71.609 15.0328 71.4849 15.2019 71.3019 15.2303C71.2844 15.2335 71.2669 15.2351 71.2494 15.2351V15.2335Z" fill="#BDBDBD"/>
<path d="M72.8533 15.1007C72.699 15.1007 72.5605 14.9948 72.5271 14.8384L70.5222 5.5459C70.484 5.36732 70.5986 5.19032 70.7784 5.15239C70.9598 5.11446 71.1364 5.22825 71.1746 5.40683L73.1795 14.6993C73.2177 14.8779 73.1031 15.0549 72.9233 15.0928C72.8994 15.0976 72.8756 15.1007 72.8533 15.1007Z" fill="#BDBDBD"/>
<path d="M94.4237 14.968C94.2837 14.968 94.1532 14.8795 94.1071 14.7388L91.3241 6.32027C91.2668 6.14644 91.3622 5.95837 91.5373 5.90148C91.7123 5.84459 91.9017 5.93941 91.959 6.11325L94.742 14.5318C94.7993 14.7056 94.7038 14.8937 94.5287 14.9506C94.4937 14.9617 94.4587 14.968 94.4237 14.968Z" fill="#BDBDBD"/>
<path d="M96.2234 15.1086C96.0913 15.1086 95.9656 15.0296 95.9131 14.9016L92.379 6.21755C92.3106 6.04687 92.3918 5.85407 92.5636 5.78611C92.7355 5.71816 92.9296 5.80034 92.998 5.96944L96.5321 14.6535C96.6005 14.8242 96.5194 15.017 96.3475 15.0849C96.3061 15.1007 96.2648 15.1086 96.2218 15.1086H96.2234Z" fill="#BDBDBD"/>
<path d="M69.3351 18.5254C69.2031 18.5254 69.0774 18.4463 69.0248 18.3167L68.8339 17.8426L64.474 18.2425C64.291 18.2583 64.1271 18.1255 64.1112 17.9422C64.0937 17.7605 64.2289 17.5977 64.4135 17.5819L69.0217 17.1599C69.1697 17.1457 69.3081 17.231 69.3622 17.367L69.6454 18.0702C69.7138 18.2409 69.6311 18.4337 69.4593 18.5017C69.4179 18.5175 69.3765 18.5254 69.3351 18.5254Z" fill="#BDBDBD"/>
<path d="M92.8596 18.5254C92.7275 18.5254 92.6018 18.4463 92.5493 18.3167L92.3583 17.8426L87.9984 18.2425C87.8154 18.2583 87.6516 18.1255 87.6356 17.9422C87.6181 17.7605 87.7534 17.5977 87.938 17.5819L92.5461 17.1599C92.6957 17.1457 92.8325 17.231 92.8866 17.367L93.1699 18.0702C93.2383 18.2409 93.1555 18.4337 92.9837 18.5017C92.9423 18.5175 92.9009 18.5254 92.8596 18.5254Z" fill="#BDBDBD"/>
<path d="M66.8003 15.2335C66.7828 15.2335 66.7669 15.2335 66.7494 15.2303C66.5664 15.2019 66.4423 15.0328 66.4694 14.8526C66.4757 14.8084 66.6428 13.7558 67.1743 12.5469C67.8903 10.9175 68.9342 9.78915 70.1928 9.28502C70.3646 9.21707 70.5588 9.29924 70.6272 9.46834C70.6956 9.63902 70.6129 9.83182 70.4426 9.89978C67.7805 10.9649 67.1361 14.9127 67.1297 14.9522C67.1043 15.1165 66.9626 15.2335 66.8003 15.2335Z" fill="#BDBDBD"/>
<path d="M90.1561 14.9869C89.9731 14.9869 89.8235 14.84 89.8219 14.6582C89.7901 10.8843 91.8523 9.62638 92.4856 9.33085C92.6527 9.25341 92.8516 9.32453 92.9296 9.49047C93.0075 9.6564 92.9359 9.85395 92.7689 9.93139C91.0647 10.7263 90.4743 12.8914 90.4887 14.6535C90.4887 14.8368 90.3423 14.9869 90.1577 14.9885H90.1545L90.1561 14.9869Z" fill="#BDBDBD"/>
<path d="M115.009 36.8764H110.799C110.614 36.8764 110.465 36.7279 110.465 36.5446C110.465 36.3612 110.614 36.2127 110.799 36.2127H114.675V35.0179H113.205C113.02 35.0179 112.871 34.8694 112.871 34.6861C112.871 34.5027 113.02 34.3542 113.205 34.3542H115.009C115.194 34.3542 115.343 34.5027 115.343 34.6861V36.5446C115.343 36.7279 115.194 36.8764 115.009 36.8764Z" fill="#BDBDBD"/>
<path d="M105.373 37.5354C105.223 37.5354 105.086 37.4343 105.048 37.2826C105.004 37.104 105.113 36.9254 105.292 36.8812L106.91 36.4829C107.088 36.4387 107.27 36.5477 107.314 36.7247C107.359 36.9033 107.249 37.0819 107.071 37.1261L105.452 37.5244C105.425 37.5307 105.398 37.5339 105.371 37.5339L105.373 37.5354Z" fill="#BDBDBD"/>
<path d="M1.4844 26.5836C1.34437 26.5836 1.21389 26.4967 1.16775 26.3576C1.10888 26.1838 1.20276 25.9957 1.37779 25.9372C1.40166 25.9293 3.73596 25.1486 6.05276 24.1862C8.31705 23.2443 9.4659 22.59 10.0483 22.1618C7.28595 22.8476 3.0406 23.0562 2.83693 23.0657C2.65076 23.0752 2.49641 22.933 2.48686 22.7496C2.47731 22.5663 2.62052 22.4114 2.8051 22.402C2.8608 22.3988 8.39661 22.1286 10.8582 21.2278C10.9648 21.1883 11.0858 21.2056 11.1765 21.2752C11.2672 21.3431 11.3165 21.4538 11.3069 21.5675C11.2608 22.1238 10.6498 22.9946 6.30735 24.7994C3.96828 25.7713 1.61329 26.5583 1.58942 26.5662C1.55441 26.5773 1.51782 26.5836 1.48281 26.5836H1.4844Z" fill="#BDBDBD"/>
<path d="M5.22692 24.9906C5.18555 24.9906 5.14259 24.9827 5.10122 24.9669C4.93096 24.8973 4.84822 24.7045 4.91664 24.5339L5.78544 22.4099C5.85545 22.2408 6.04958 22.1586 6.22143 22.2265C6.39169 22.2961 6.47443 22.4889 6.40601 22.6596L5.53721 24.7836C5.4847 24.9132 5.35899 24.9906 5.22692 24.9906Z" fill="#BDBDBD"/>
<path d="M109.224 37.0566C109.2 37.0566 109.174 37.0534 109.149 37.0487C108.969 37.0076 108.856 36.8306 108.897 36.6504C109.241 35.1539 109.295 33.6193 109.058 32.0864C108.582 29.0189 106.947 26.2723 104.452 24.3521C101.957 22.432 98.8712 21.5454 95.7604 21.8536C92.4506 22.1807 89.4846 23.7816 87.4113 26.3576C85.3363 28.9352 84.4182 32.1575 84.8256 35.432C84.8478 35.6137 84.7174 35.7797 84.5344 35.8018C84.3514 35.8255 84.1843 35.6943 84.162 35.5126C83.7324 32.0595 84.7014 28.6602 86.8894 25.942C89.0757 23.2238 92.204 21.5375 95.6935 21.1914C98.9746 20.8659 102.23 21.8014 104.86 23.8259C107.491 25.8503 109.216 28.7471 109.718 31.9837C109.97 33.5988 109.913 35.2186 109.55 36.7958C109.515 36.9491 109.376 37.0534 109.224 37.0534V37.0566Z" fill="#BDBDBD"/>
<path d="M72.1468 35.9424C72.1325 35.9424 72.1166 35.9424 72.1022 35.9393C71.9193 35.9156 71.7904 35.7481 71.8158 35.5663L72.4841 30.6372C72.8644 27.8305 72.8676 24.9827 72.4921 22.1744L71.5485 15.1229C71.5246 14.9411 71.6535 14.7736 71.8365 14.7499C72.0195 14.7246 72.1882 14.8542 72.212 15.0344L73.1556 22.0859C73.5391 24.9527 73.5359 27.8589 73.1477 30.7241L72.4794 35.6532C72.4571 35.8192 72.3139 35.9409 72.1484 35.9409L72.1468 35.9424Z" fill="#BDBDBD"/>
<path d="M96.295 21.517C96.2807 21.517 96.2679 21.517 96.2536 21.5138C96.0706 21.4917 95.9402 21.3257 95.964 21.144C96.3045 18.4337 94.8454 15.0675 94.8311 15.0344C94.7579 14.8668 94.8343 14.6709 95.0045 14.5982C95.1732 14.5255 95.3705 14.6013 95.4437 14.7704C95.5073 14.9142 96.9903 18.3389 96.6276 21.2278C96.6069 21.3953 96.4621 21.5185 96.2966 21.5185L96.295 21.517Z" fill="#BDBDBD"/>
<path d="M114.553 21.0207C112.977 21.0207 109.758 20.8469 109.424 19.4372C109.096 18.0528 107.012 16.237 106.99 16.218C106.884 16.1264 106.848 15.981 106.896 15.8514C106.945 15.7218 107.069 15.6365 107.209 15.6365H110.396C110.581 15.6365 110.73 15.785 110.73 15.9683C110.73 16.1517 110.581 16.3002 110.396 16.3002H108.046C108.746 17.0003 109.819 18.2124 110.073 19.2855C110.178 19.7296 111.144 20.0915 112.657 20.2527C113.948 20.3902 115.216 20.3459 115.229 20.3459C115.41 20.3364 115.568 20.4818 115.576 20.6652C115.582 20.8485 115.439 21.0018 115.254 21.0097C115.106 21.0144 114.86 21.0223 114.551 21.0223L114.553 21.0207Z" fill="#BDBDBD"/>
<path d="M112.403 18.2915H109.061C108.877 18.2915 108.727 18.1429 108.727 17.9596C108.727 17.7763 108.877 17.6277 109.061 17.6277H112.403C112.587 17.6277 112.737 17.7763 112.737 17.9596C112.737 18.1429 112.587 18.2915 112.403 18.2915Z" fill="#BDBDBD"/>
<path d="M116.88 32.0974H114.942C114.758 32.0974 114.608 31.9489 114.608 31.7656C114.608 31.5823 114.758 31.4337 114.942 31.4337H116.546V29.3097H116.012C115.827 29.3097 115.678 29.1611 115.678 28.9778C115.678 28.7945 115.827 28.646 116.012 28.646H116.88C117.065 28.646 117.215 28.7945 117.215 28.9778V31.7656C117.215 31.9489 117.065 32.0974 116.88 32.0974Z" fill="#BDBDBD"/>
</g>
</g>
<defs>
<clipPath id="clip0_5058_2649">
<rect width="117" height="43" fill="white" transform="translate(0.214844)"/>
</clipPath>
</defs>
</svg>
