<svg width="118" height="43" viewBox="0 0 118 43" fill="none" xmlns="http://www.w3.org/2000/svg">
<g id="Car type" clip-path="url(#clip0_5058_2641)">
<g id="Vector">
<path d="M15.6169 43C11.0939 43 7.41399 39.3447 7.41399 34.8519C7.41399 30.3591 11.0939 26.7038 15.6169 26.7038C20.1398 26.7038 23.8197 30.3591 23.8197 34.8519C23.8197 39.3447 20.1398 43 15.6169 43ZM15.6169 27.3009C11.426 27.3009 8.01515 30.689 8.01515 34.8519C8.01515 39.0148 11.4245 42.4029 15.6169 42.4029C19.8092 42.4029 23.2186 39.0162 23.2186 34.8519C23.2186 30.6875 19.8092 27.3009 15.6169 27.3009Z" fill="#BDBDBD"/>
<path d="M15.6169 41.6237C11.8582 41.6237 8.79951 38.5854 8.79951 34.8519C8.79951 31.1183 11.8582 28.08 15.6169 28.08C19.3755 28.08 22.4342 31.1183 22.4342 34.8519C22.4342 38.5854 19.3755 41.6237 15.6169 41.6237ZM15.6169 28.6772C12.1889 28.6772 9.40066 31.4468 9.40066 34.8519C9.40066 38.257 12.1889 41.0266 15.6169 41.0266C19.0449 41.0266 21.8331 38.257 21.8331 34.8519C21.8331 31.4468 19.0449 28.6772 15.6169 28.6772Z" fill="#BDBDBD"/>
<path d="M66.118 21.6878C65.9992 21.6878 65.8861 21.6167 65.8389 21.5001L65.6671 21.0736L61.7453 21.4333C61.5807 21.4489 61.4333 21.3281 61.4189 21.1632C61.4032 20.9982 61.5249 20.8532 61.6909 20.839L65.836 20.4594C65.9705 20.448 66.0936 20.5234 66.1423 20.6456L66.3971 21.2798C66.4586 21.4333 66.3842 21.6068 66.2296 21.6679C66.1924 21.6821 66.1552 21.6892 66.118 21.6892V21.6878Z" fill="#BDBDBD"/>
<path d="M90.645 20.7324C90.5262 20.7324 90.4131 20.6613 90.3659 20.5447L90.1941 20.1182L86.2723 20.4779C86.1077 20.4949 85.9603 20.3727 85.946 20.2077C85.9302 20.0442 86.0519 19.8978 86.2179 19.8836L90.363 19.504C90.4961 19.4926 90.6207 19.568 90.6693 19.6902L90.9241 20.3243C90.9856 20.4779 90.9112 20.6513 90.7566 20.7125C90.7194 20.7267 90.6822 20.7338 90.645 20.7338V20.7324Z" fill="#BDBDBD"/>
<path d="M15.6169 37.2902C14.2628 37.2902 13.1622 36.1969 13.1622 34.8519C13.1622 33.5069 14.2628 32.4136 15.6169 32.4136C16.9709 32.4136 18.0716 33.5069 18.0716 34.8519C18.0716 36.1969 16.9709 37.2902 15.6169 37.2902ZM15.6169 33.0107C14.5949 33.0107 13.7633 33.8368 13.7633 34.8519C13.7633 35.867 14.5949 36.6931 15.6169 36.6931C16.6388 36.6931 17.4704 35.867 17.4704 34.8519C17.4704 33.8368 16.6388 33.0107 15.6169 33.0107Z" fill="#BDBDBD"/>
<path d="M15.6169 40.5105C12.4766 40.5105 9.92166 37.9727 9.92166 34.8519C9.92166 31.7311 12.4766 29.1933 15.6169 29.1933C18.7572 29.1933 21.3135 31.7311 21.3135 34.8519C21.3135 37.9727 18.7586 40.5105 15.6169 40.5105ZM15.6169 29.7918C12.8072 29.7918 10.5228 32.0624 10.5228 34.8519C10.5228 37.6414 12.8086 39.9119 15.6169 39.9119C18.4251 39.9119 20.7123 37.6414 20.7123 34.8519C20.7123 32.0624 18.4265 29.7918 15.6169 29.7918Z" fill="#BDBDBD"/>
<path d="M15.6169 35.9381C15.0143 35.9381 14.5233 35.4504 14.5233 34.8519C14.5233 34.2533 15.0143 33.7657 15.6169 33.7657C16.2194 33.7657 16.7104 34.2533 16.7104 34.8519C16.7104 35.4504 16.2194 35.9381 15.6169 35.9381ZM15.6169 34.3628C15.3449 34.3628 15.1245 34.5818 15.1245 34.8519C15.1245 35.122 15.3449 35.341 15.6169 35.341C15.8888 35.341 16.1092 35.122 16.1092 34.8519C16.1092 34.5818 15.8888 34.3628 15.6169 34.3628Z" fill="#BDBDBD"/>
<path d="M15.6398 34.2533C15.4737 34.2533 15.3392 34.1197 15.3392 33.9548V28.5805C15.3392 28.4156 15.4737 28.2819 15.6398 28.2819C15.8058 28.2819 15.9403 28.4156 15.9403 28.5805V33.9548C15.9403 34.1197 15.8058 34.2533 15.6398 34.2533Z" fill="#BDBDBD"/>
<path d="M15.6398 41.5384C15.4737 41.5384 15.3392 41.4048 15.3392 41.2399V35.6267C15.3392 35.4618 15.4737 35.3282 15.6398 35.3282C15.8058 35.3282 15.9403 35.4618 15.9403 35.6267V41.2399C15.9403 41.4048 15.8058 41.5384 15.6398 41.5384Z" fill="#BDBDBD"/>
<path d="M16.1822 34.5704C16.1049 34.5704 16.0291 34.5405 15.9704 34.4822C15.853 34.3656 15.853 34.1765 15.9704 34.06L19.8378 30.2184C19.9552 30.1018 20.1455 30.1018 20.2629 30.2184C20.3803 30.335 20.3803 30.524 20.2629 30.6406L16.3955 34.4822C16.3368 34.5405 16.2595 34.5704 16.1837 34.5704H16.1822Z" fill="#BDBDBD"/>
<path d="M11.0567 39.6631C10.9794 39.6631 10.9021 39.6333 10.8449 39.575C10.7275 39.4584 10.7275 39.2693 10.8449 39.1527L14.8024 35.2215C14.9198 35.105 15.1102 35.105 15.2275 35.2215C15.3449 35.3381 15.3449 35.5272 15.2275 35.6438L11.27 39.575C11.2113 39.6333 11.134 39.6631 11.0581 39.6631H11.0567Z" fill="#BDBDBD"/>
<path d="M21.8316 35.2685H16.4213C16.2552 35.2685 16.1207 35.1348 16.1207 34.9699C16.1207 34.805 16.2552 34.6713 16.4213 34.6713H21.8316C21.9977 34.6713 22.1322 34.805 22.1322 34.9699C22.1322 35.1348 21.9977 35.2685 21.8316 35.2685Z" fill="#BDBDBD"/>
<path d="M14.7266 35.2599C14.7266 35.2599 14.7223 35.2599 14.7194 35.2599L9.12298 35.1334C8.95695 35.1291 8.82527 34.9926 8.82956 34.8277C8.83386 34.6628 8.97126 34.5291 9.1373 34.5363L14.7337 34.6628C14.8998 34.6671 15.0315 34.8035 15.0272 34.9685C15.0229 35.1306 14.8898 35.2599 14.7266 35.2599Z" fill="#BDBDBD"/>
<path d="M19.9409 39.7072C19.8636 39.7072 19.7863 39.6788 19.729 39.6191L15.8616 35.7775C15.7442 35.6609 15.7442 35.4718 15.8616 35.3552C15.979 35.2386 16.1693 35.2386 16.2867 35.3552L20.1541 39.1968C20.2715 39.3134 20.2715 39.5025 20.1541 39.6191C20.0954 39.6773 20.0182 39.7072 19.9423 39.7072H19.9409Z" fill="#BDBDBD"/>
<path d="M14.9055 34.7054C14.8268 34.7054 14.7466 34.6742 14.6879 34.613L10.8205 30.5923C10.706 30.4729 10.7103 30.2838 10.8305 30.17C10.9508 30.0563 11.1411 30.0606 11.2556 30.18L15.1231 34.2007C15.2376 34.3201 15.2333 34.5092 15.113 34.623C15.0544 34.6784 14.9799 34.7054 14.9055 34.7054Z" fill="#BDBDBD"/>
<path d="M16.2824 34.6912C16.188 34.6912 16.0949 34.6472 16.0362 34.5633C15.9418 34.4282 15.9747 34.242 16.1107 34.1481L20.5921 31.033C20.7281 30.9378 20.9156 30.9719 21.0101 31.107C21.1045 31.242 21.0716 31.4283 20.9356 31.5221L16.4542 34.6372C16.4012 34.6742 16.3411 34.6912 16.2824 34.6912Z" fill="#BDBDBD"/>
<path d="M10.3425 38.82C10.248 38.82 10.155 38.7759 10.0963 38.6921C10.0018 38.557 10.0347 38.3707 10.1707 38.2769L14.7552 35.0893C14.8912 34.9941 15.0787 35.0282 15.1732 35.1633C15.2676 35.2983 15.2347 35.4846 15.0987 35.5784L10.5142 38.766C10.4613 38.803 10.4011 38.82 10.3425 38.82Z" fill="#BDBDBD"/>
<path d="M19.0849 40.3982C18.9905 40.3982 18.8974 40.3541 18.8388 40.2702L15.7027 35.8201C15.6083 35.685 15.6412 35.4988 15.7772 35.405C15.9131 35.3097 16.1006 35.3438 16.1951 35.4789L19.3311 39.929C19.4256 40.0641 19.3927 40.2503 19.2567 40.3442C19.2037 40.3811 19.1436 40.3982 19.0849 40.3982Z" fill="#BDBDBD"/>
<path d="M15.0014 34.6017C14.9041 34.6017 14.8096 34.5547 14.7509 34.468L11.6464 29.8416C11.5548 29.7037 11.592 29.5189 11.7294 29.4279C11.8682 29.3369 12.0543 29.3738 12.1459 29.5103L15.2504 34.1367C15.3421 34.2747 15.3048 34.4595 15.1674 34.5505C15.1159 34.5846 15.0586 34.6002 15.0014 34.6002V34.6017Z" fill="#BDBDBD"/>
<path d="M16.0649 34.4709C16.0062 34.4709 15.9461 34.4538 15.8931 34.4168C15.7571 34.323 15.7228 34.1367 15.8187 34.0017L18.9447 29.5445C19.0391 29.4094 19.2266 29.3753 19.3626 29.4705C19.4986 29.5644 19.5329 29.7506 19.437 29.8857L16.3111 34.3429C16.2524 34.4268 16.1593 34.4709 16.0634 34.4709H16.0649Z" fill="#BDBDBD"/>
<path d="M11.9212 40.3797C11.8625 40.3797 11.8024 40.3626 11.7494 40.3257C11.6135 40.2318 11.5791 40.0456 11.675 39.9105L14.874 35.3495C14.9685 35.2144 15.156 35.1803 15.292 35.2756C15.4279 35.3694 15.4623 35.5557 15.3664 35.6907L12.1674 40.2517C12.1087 40.3356 12.0157 40.3797 11.9212 40.3797Z" fill="#BDBDBD"/>
<path d="M20.6766 38.8698C20.6179 38.8698 20.5578 38.8527 20.5048 38.8158L16.0176 35.7106C15.8817 35.6168 15.8473 35.4305 15.9432 35.2955C16.0377 35.1604 16.2252 35.1263 16.3611 35.2215L20.8483 38.3267C20.9843 38.4205 21.0186 38.6068 20.9227 38.7418C20.8641 38.8257 20.771 38.8698 20.6766 38.8698Z" fill="#BDBDBD"/>
<path d="M14.8311 34.8263C14.7695 34.8263 14.708 34.8078 14.6536 34.7694L10.1335 31.488C9.99895 31.3913 9.97032 31.2036 10.0677 31.0714C10.165 30.9378 10.3539 30.9093 10.487 31.006L15.0071 34.2874C15.1417 34.3841 15.1703 34.5718 15.073 34.704C15.0143 34.7836 14.9227 34.8263 14.8296 34.8263H14.8311Z" fill="#BDBDBD"/>
<path d="M86.258 38.5328H25.2024C24.8274 38.5328 24.4781 38.3665 24.2434 38.0764C24.0015 37.7779 23.9156 37.3755 24.013 37.0002C24.1933 36.3021 24.2849 35.5784 24.2849 34.8519C24.2849 32.5856 23.3574 30.4259 21.6728 28.771C20.0368 27.163 17.8483 26.2417 15.6684 26.2417C11.0596 26.2417 7.06762 30.0819 6.95025 34.6272C6.92592 35.5827 7.0576 36.5253 7.34243 37.4295C7.36103 37.4878 7.3596 37.549 7.34386 37.603L8.33433 37.8163C8.49607 37.8518 8.59912 38.011 8.56477 38.1717C8.52899 38.3324 8.36868 38.4347 8.20694 38.4006L6.83431 38.1035C6.56093 38.0636 2.87243 37.5049 0.714006 36.1301C0.633853 36.0789 0.583757 35.9936 0.5766 35.8997C0.320395 32.3837 0.542248 28.3431 3.8629 22.6318C3.89582 22.5764 3.94592 22.5323 4.00603 22.5067C13.009 18.7007 28.9939 18.1789 39.5714 17.8334L40.6148 17.7993C48.9565 12.2302 56.5868 9.91419 56.6627 9.89144C56.6784 9.88718 56.6942 9.88291 56.7114 9.88149C56.7815 9.87296 63.7534 9 72.1996 9C80.0089 9 90.7165 9.76775 97.3879 13.4259L103.263 16.0519C103.696 16.0989 107.016 16.4628 109.796 16.7088C111.375 16.8481 114.117 20.3869 114.594 21.884C115.683 25.2977 116.21 28.916 116.46 31.3487C116.642 33.1173 115.835 34.8405 114.355 35.8471L113.114 36.6902C113.079 36.7144 113.039 36.73 112.998 36.7371L107.046 37.812C107.029 37.8148 107.011 37.8163 106.992 37.8163H103.892C103.796 37.8163 103.706 37.7708 103.65 37.694C103.593 37.6172 103.577 37.5191 103.606 37.4281C103.867 36.5964 104.001 35.7291 104.001 34.8519C104.001 30.1302 100.135 26.2673 95.3826 26.2417C95.3669 26.2417 95.3497 26.2417 95.334 26.2417C90.6693 26.2417 86.7862 29.9937 86.6674 34.6272C86.643 35.5827 86.7747 36.5253 87.0595 37.4295C87.1469 37.6755 87.1068 37.9599 86.9493 38.1817C86.7919 38.402 86.5342 38.5342 86.2623 38.5342L86.258 38.5328ZM15.6684 25.6446C18.0043 25.6446 20.3474 26.6298 22.095 28.3473C23.8942 30.1146 24.8861 32.4249 24.8861 34.8533C24.8861 35.631 24.7887 36.403 24.5955 37.1509C24.5454 37.3457 24.5883 37.5518 24.7114 37.7039C24.8317 37.8518 25.0106 37.9371 25.2024 37.9371H86.258C86.3367 37.9371 86.4097 37.9001 86.4555 37.8362C86.5013 37.7722 86.5128 37.6926 86.487 37.6186C86.1793 36.6433 86.0376 35.6353 86.0648 34.613C86.1922 29.6397 90.3788 25.6133 95.3855 25.6446C100.467 25.673 104.602 29.8046 104.602 34.8519C104.602 35.6552 104.497 36.4499 104.293 37.2191H106.966L112.828 36.1599L114.016 35.3523C115.314 34.4694 116.022 32.9581 115.863 31.4084C115.616 29.0028 115.096 25.4285 114.021 22.0631C113.569 20.6471 110.963 17.4097 109.743 17.3017C106.772 17.0401 103.186 16.642 103.15 16.6391C103.119 16.6363 103.089 16.6277 103.06 16.615L97.1303 13.9648C97.1231 13.9619 97.116 13.9577 97.1088 13.9534C90.552 10.3535 79.9488 9.59714 72.2082 9.59714H72.201C64.0497 9.59714 57.281 10.4132 56.8144 10.4701C56.3421 10.6151 48.9422 12.9454 40.881 18.3424C40.8338 18.3737 40.7794 18.3907 40.7236 18.3936L39.5943 18.4305C29.0984 18.7732 13.2538 19.2907 4.33667 23.0186C1.1892 28.4625 0.93586 32.3382 1.1663 35.7064C2.9855 36.804 5.93831 37.3499 6.73126 37.4821C6.45358 36.5537 6.32476 35.5898 6.35053 34.6116C6.41207 32.2216 7.43833 29.9653 9.24178 28.2563C10.9937 26.5957 13.3368 25.6431 15.6698 25.6431L15.6684 25.6446Z" fill="#BDBDBD"/>
<path d="M95.3297 43C90.8067 43 87.1268 39.3447 87.1268 34.8519C87.1268 30.3591 90.8067 26.7038 95.3297 26.7038C99.8526 26.7038 103.533 30.3591 103.533 34.8519C103.533 39.3447 99.8526 43 95.3297 43ZM95.3297 27.3009C91.1388 27.3009 87.728 30.689 87.728 34.8519C87.728 39.0148 91.1374 42.4029 95.3297 42.4029C99.522 42.4029 102.931 39.0162 102.931 34.8519C102.931 30.6875 99.522 27.3009 95.3297 27.3009Z" fill="#BDBDBD"/>
<path d="M95.3297 41.6237C91.5711 41.6237 88.5123 38.5854 88.5123 34.8519C88.5123 31.1183 91.5711 28.08 95.3297 28.08C99.0883 28.08 102.147 31.1183 102.147 34.8519C102.147 38.5854 99.0883 41.6237 95.3297 41.6237ZM95.3297 28.6772C91.9017 28.6772 89.1135 31.4468 89.1135 34.8519C89.1135 38.257 91.9017 41.0266 95.3297 41.0266C98.7577 41.0266 101.546 38.257 101.546 34.8519C101.546 31.4468 98.7577 28.6772 95.3297 28.6772Z" fill="#BDBDBD"/>
<path d="M95.3297 37.2902C93.9757 37.2902 92.875 36.1969 92.875 34.8519C92.875 33.5069 93.9757 32.4136 95.3297 32.4136C96.6837 32.4136 97.7844 33.5069 97.7844 34.8519C97.7844 36.1969 96.6837 37.2902 95.3297 37.2902ZM95.3297 33.0107C94.3077 33.0107 93.4761 33.8368 93.4761 34.8519C93.4761 35.867 94.3077 36.6931 95.3297 36.6931C96.3516 36.6931 97.1832 35.867 97.1832 34.8519C97.1832 33.8368 96.3516 33.0107 95.3297 33.0107Z" fill="#BDBDBD"/>
<path d="M95.3297 40.5105C92.1894 40.5105 89.633 37.9727 89.633 34.8519C89.633 31.7311 92.188 29.1933 95.3297 29.1933C98.4714 29.1933 101.026 31.7311 101.026 34.8519C101.026 37.9727 98.4714 40.5105 95.3297 40.5105ZM95.3297 29.7918C92.52 29.7918 90.2342 32.0624 90.2342 34.8519C90.2342 37.6414 92.52 39.9119 95.3297 39.9119C98.1394 39.9119 100.425 37.6414 100.425 34.8519C100.425 32.0624 98.1394 29.7918 95.3297 29.7918Z" fill="#BDBDBD"/>
<path d="M95.3297 35.9381C94.7271 35.9381 94.2362 35.4504 94.2362 34.8519C94.2362 34.2533 94.7271 33.7657 95.3297 33.7657C95.9323 33.7657 96.4232 34.2533 96.4232 34.8519C96.4232 35.4504 95.9323 35.9381 95.3297 35.9381ZM95.3297 34.3628C95.0577 34.3628 94.8373 34.5818 94.8373 34.8519C94.8373 35.122 95.0577 35.341 95.3297 35.341C95.6016 35.341 95.8221 35.122 95.8221 34.8519C95.8221 34.5818 95.6016 34.3628 95.3297 34.3628Z" fill="#BDBDBD"/>
<path d="M95.3526 34.2533C95.1865 34.2533 95.052 34.1197 95.052 33.9548V28.5805C95.052 28.4156 95.1865 28.2819 95.3526 28.2819C95.5186 28.2819 95.6532 28.4156 95.6532 28.5805V33.9548C95.6532 34.1197 95.5186 34.2533 95.3526 34.2533Z" fill="#BDBDBD"/>
<path d="M95.3526 41.5384C95.1865 41.5384 95.052 41.4048 95.052 41.2399V35.6267C95.052 35.4618 95.1865 35.3282 95.3526 35.3282C95.5186 35.3282 95.6532 35.4618 95.6532 35.6267V41.2399C95.6532 41.4048 95.5186 41.5384 95.3526 41.5384Z" fill="#BDBDBD"/>
<path d="M95.8951 34.5704C95.8178 34.5704 95.7419 34.5405 95.6832 34.4822C95.5658 34.3656 95.5658 34.1765 95.6832 34.06L99.5506 30.2184C99.668 30.1018 99.8584 30.1018 99.9757 30.2184C100.093 30.335 100.093 30.524 99.9757 30.6406L96.1083 34.4822C96.0496 34.5405 95.9723 34.5704 95.8965 34.5704H95.8951Z" fill="#BDBDBD"/>
<path d="M90.7695 39.6631C90.6922 39.6631 90.6149 39.6333 90.5577 39.575C90.4403 39.4584 90.4403 39.2693 90.5577 39.1527L94.5153 35.2215C94.6326 35.105 94.823 35.105 94.9404 35.2215C95.0577 35.3381 95.0577 35.5272 94.9404 35.6438L90.9828 39.575C90.9241 39.6333 90.8468 39.6631 90.7709 39.6631H90.7695Z" fill="#BDBDBD"/>
<path d="M101.544 35.2685H96.1341C95.968 35.2685 95.8335 35.1348 95.8335 34.9699C95.8335 34.805 95.968 34.6713 96.1341 34.6713H101.544C101.71 34.6713 101.845 34.805 101.845 34.9699C101.845 35.1348 101.71 35.2685 101.544 35.2685Z" fill="#BDBDBD"/>
<path d="M94.4394 35.2599C94.4394 35.2599 94.4351 35.2599 94.4322 35.2599L88.8358 35.1334C88.6698 35.1291 88.5381 34.9926 88.5424 34.8277C88.5467 34.6628 88.6841 34.5291 88.8501 34.5363L94.4465 34.6628C94.6126 34.6671 94.7443 34.8035 94.74 34.9685C94.7357 35.1306 94.6026 35.2599 94.4394 35.2599Z" fill="#BDBDBD"/>
<path d="M99.6537 39.7072C99.5764 39.7072 99.4991 39.6788 99.4418 39.6191L95.5744 35.7775C95.4571 35.6609 95.4571 35.4718 95.5744 35.3552C95.6918 35.2386 95.8822 35.2386 95.9995 35.3552L99.867 39.1968C99.9843 39.3134 99.9843 39.5025 99.867 39.6191C99.8083 39.6773 99.731 39.7072 99.6551 39.7072H99.6537Z" fill="#BDBDBD"/>
<path d="M94.6183 34.7054C94.5396 34.7054 94.4594 34.6742 94.4008 34.613L90.5333 30.5923C90.4188 30.4729 90.4231 30.2838 90.5434 30.17C90.6636 30.0563 90.854 30.0606 90.9685 30.18L94.8359 34.2007C94.9504 34.3201 94.9461 34.5092 94.8259 34.623C94.7672 34.6784 94.6927 34.7054 94.6183 34.7054Z" fill="#BDBDBD"/>
<path d="M95.9952 34.6912C95.9008 34.6912 95.8077 34.6472 95.7491 34.5633C95.6546 34.4282 95.6875 34.242 95.8235 34.1481L100.305 31.033C100.441 30.9378 100.628 30.9719 100.723 31.107C100.817 31.242 100.784 31.4283 100.648 31.5221L96.167 34.6372C96.114 34.6742 96.0539 34.6912 95.9952 34.6912Z" fill="#BDBDBD"/>
<path d="M90.0553 38.82C89.9608 38.82 89.8678 38.7759 89.8091 38.6921C89.7146 38.557 89.7475 38.3707 89.8835 38.2769L94.468 35.0893C94.604 34.9941 94.7915 35.0282 94.886 35.1633C94.9804 35.2983 94.9475 35.4846 94.8115 35.5784L90.227 38.766C90.1741 38.803 90.114 38.82 90.0553 38.82Z" fill="#BDBDBD"/>
<path d="M98.7978 40.3982C98.7033 40.3982 98.6103 40.3541 98.5516 40.2702L95.4156 35.8201C95.3211 35.685 95.354 35.4988 95.49 35.405C95.626 35.3097 95.8135 35.3438 95.9079 35.4789L99.0439 39.929C99.1384 40.0641 99.1055 40.2503 98.9695 40.3442C98.9166 40.3811 98.8564 40.3982 98.7978 40.3982Z" fill="#BDBDBD"/>
<path d="M94.7142 34.6017C94.6169 34.6017 94.5224 34.5547 94.4637 34.468L91.3592 29.8416C91.2676 29.7037 91.3048 29.5189 91.4422 29.4279C91.5811 29.3369 91.7671 29.3738 91.8587 29.5103L94.9633 34.1367C95.0549 34.2747 95.0177 34.4595 94.8802 34.5505C94.8287 34.5846 94.7715 34.6002 94.7142 34.6002V34.6017Z" fill="#BDBDBD"/>
<path d="M95.7777 34.4709C95.719 34.4709 95.6589 34.4538 95.6059 34.4168C95.47 34.323 95.4356 34.1367 95.5315 34.0017L98.6575 29.5445C98.752 29.4094 98.9395 29.3753 99.0754 29.4705C99.2114 29.5644 99.2458 29.7506 99.1499 29.8857L96.0239 34.3429C95.9652 34.4268 95.8722 34.4709 95.7763 34.4709H95.7777Z" fill="#BDBDBD"/>
<path d="M91.634 40.3797C91.5753 40.3797 91.5152 40.3626 91.4623 40.3257C91.3263 40.2318 91.2919 40.0456 91.3878 39.9105L94.5868 35.3495C94.6813 35.2144 94.8688 35.1803 95.0048 35.2756C95.1407 35.3694 95.1751 35.5557 95.0792 35.6907L91.8802 40.2517C91.8215 40.3356 91.7285 40.3797 91.6326 40.3797H91.634Z" fill="#BDBDBD"/>
<path d="M100.389 38.8698C100.331 38.8698 100.271 38.8527 100.218 38.8158L95.7305 35.7106C95.5945 35.6168 95.5601 35.4305 95.656 35.2955C95.7505 35.1604 95.938 35.1263 96.074 35.2215L100.561 38.3267C100.697 38.4205 100.731 38.6068 100.636 38.7418C100.577 38.8257 100.484 38.8698 100.389 38.8698Z" fill="#BDBDBD"/>
<path d="M94.5439 34.8263C94.4823 34.8263 94.4208 34.8078 94.3664 34.7694L89.8463 31.488C89.7118 31.3913 89.6831 31.2036 89.7805 31.0714C89.8778 30.9378 90.0667 30.9093 90.1998 31.006L94.7199 34.2874C94.8545 34.3841 94.8831 34.5718 94.7858 34.704C94.7271 34.7836 94.6355 34.8263 94.5425 34.8263H94.5439Z" fill="#BDBDBD"/>
<path d="M1.91917 28.117C1.78892 28.117 1.66869 28.0331 1.63148 27.9023C1.58425 27.7445 1.67585 27.5782 1.83616 27.5327C1.88482 27.5184 6.52658 26.1621 11.2313 24.0948C9.5123 23.7579 5.67065 23.1991 3.51223 24.4162C3.36767 24.4972 3.18446 24.4474 3.10287 24.3038C3.02129 24.1602 3.07138 23.9783 3.21595 23.8972C4.49984 23.1735 6.41637 22.9233 8.91258 23.1522C10.749 23.3214 12.196 23.6925 12.2561 23.7081C12.3792 23.7394 12.468 23.8446 12.4794 23.9711C12.4909 24.0963 12.4207 24.2157 12.3062 24.2683C7.29376 26.5602 2.05801 28.09 2.00505 28.1056C1.97643 28.1142 1.9478 28.1184 1.92061 28.1184L1.91917 28.117Z" fill="#BDBDBD"/>
<path d="M3.92302 25.2507C3.80565 25.2507 3.69257 25.1811 3.64534 25.0659C3.58236 24.9138 3.65536 24.7389 3.80851 24.6763C3.90727 24.6351 6.26178 23.684 8.11391 24.3536C8.26992 24.4105 8.35007 24.5811 8.29425 24.7361C8.237 24.891 8.06524 24.9706 7.90923 24.9152C6.27467 24.3252 4.06185 25.2195 4.03895 25.2294C4.00174 25.245 3.96309 25.2522 3.92445 25.2522L3.92302 25.2507Z" fill="#BDBDBD"/>
<path d="M2.68063 34.5647C2.07519 34.5647 1.6186 33.7344 1.6186 32.6339C1.6186 31.5335 2.07519 30.7032 2.68063 30.7032C3.28608 30.7032 3.74267 31.5335 3.74267 32.6339C3.74267 33.7344 3.28608 34.5647 2.68063 34.5647ZM2.68063 31.3017C2.54752 31.3017 2.21975 31.7695 2.21975 32.6354C2.21975 33.5012 2.54752 33.969 2.68063 33.969C2.81375 33.969 3.14152 33.5012 3.14152 32.6354C3.14152 31.7695 2.81375 31.3017 2.68063 31.3017Z" fill="#BDBDBD"/>
<path d="M50.0486 18.405C49.1755 18.405 48.6802 18.4035 48.6445 18.4035C48.5171 18.4035 48.4026 18.3225 48.3611 18.2016C48.3196 18.0822 48.3596 17.9486 48.4598 17.8704L49.685 16.9149C49.8153 16.8126 50.0042 16.8353 50.1073 16.9661C50.2103 17.0955 50.1874 17.2832 50.0572 17.3855L49.5133 17.8092C54.2481 17.8135 77.2922 17.7694 92.0806 16.5581C91.969 16.4657 91.8559 16.3704 91.7399 16.2737C90.2213 14.9998 88.1431 13.2553 83.7074 11.9843C78.4287 10.4715 70.9172 10.0009 61.3846 10.5824C59.5998 10.6421 57.3254 10.8199 57.3025 10.8213C57.1365 10.8327 56.9919 10.7118 56.979 10.5469C56.9661 10.382 57.0892 10.2384 57.2553 10.2256C57.2782 10.2241 59.5668 10.045 61.3574 9.98528C70.9501 9.39951 78.5289 9.87865 83.8749 11.4099C88.435 12.7165 90.5706 14.5079 92.1293 15.8173C92.4499 16.0861 92.7519 16.3391 93.0367 16.5552C93.1355 16.6292 93.1784 16.7571 93.1441 16.8751C93.1097 16.9931 93.0052 17.0784 92.8821 17.0898C78.6005 18.3239 55.8955 18.4064 50.0514 18.4064L50.0486 18.405Z" fill="#BDBDBD"/>
<path d="M41.8157 18.459C41.1129 18.459 40.6964 18.395 40.662 18.3893C40.4974 18.3637 40.3858 18.2102 40.413 18.0467C40.4387 17.8846 40.5933 17.7723 40.7565 17.7993C40.7722 17.8021 42.2894 18.0296 44.4722 17.5775C46.393 16.8396 56.4766 9.9995 56.5782 9.92983C56.6198 9.9014 56.6684 9.88434 56.7185 9.87865L57.4871 9.8033C57.6074 9.79192 57.7204 9.85164 57.7791 9.95542C57.8378 10.0592 57.8278 10.1872 57.7562 10.2824L57.5243 10.5853C57.5129 10.5995 57.5 10.6137 57.4857 10.6265L52.373 15.1818C52.2499 15.2913 52.0596 15.2813 51.9479 15.1591C51.8377 15.0368 51.8477 14.8477 51.9708 14.7368L56.4838 10.7146C54.4885 12.0625 46.3901 17.4993 44.6597 18.1433C44.6454 18.149 44.6311 18.1533 44.6167 18.1561C43.4703 18.3964 42.5041 18.4576 41.8128 18.4576L41.8157 18.459Z" fill="#BDBDBD"/>
<path d="M86.1206 36.7357H45.1349C45.0333 36.7357 44.9374 36.6845 44.8815 36.5992C42.7503 33.3064 42.2436 29.0056 42.0275 25.2322C41.9044 23.0683 43.1725 21.0381 45.1864 20.1793C47.3935 19.2395 48.4813 17.8761 48.4913 17.8633C48.5929 17.7339 48.7819 17.7097 48.9135 17.8107C49.0438 17.9116 49.0681 18.0993 48.9665 18.2287C48.9193 18.2898 47.7828 19.7229 45.424 20.7281C43.642 21.4873 42.5184 23.283 42.6286 25.1981C42.8376 28.8407 43.32 32.9808 45.3009 36.14H86.1206C86.2866 36.14 86.4212 36.2736 86.4212 36.4386C86.4212 36.6035 86.2866 36.7371 86.1206 36.7371V36.7357Z" fill="#BDBDBD"/>
<path d="M93.9356 26.0469C93.8311 26.0469 93.7295 25.9929 93.6737 25.8962C92.2037 23.3413 92.5372 17.0415 92.5529 16.7742C92.5615 16.6093 92.7047 16.4827 92.8693 16.4927C93.0353 16.5012 93.1612 16.6434 93.1526 16.8069C93.1498 16.8709 92.8134 23.1963 94.1961 25.5991C94.2791 25.7427 94.229 25.9246 94.0844 26.0071C94.0372 26.0341 93.9857 26.0469 93.9356 26.0469Z" fill="#BDBDBD"/>
<path d="M67.2444 36.5566C67.2301 36.5566 67.2158 36.5566 67.2 36.5537C67.0354 36.5296 66.9224 36.3789 66.9467 36.2154C67.6595 31.3799 69.0951 18.0879 69.1094 17.9543C69.1266 17.7908 69.2754 17.6713 69.44 17.6898C69.6047 17.7069 69.7249 17.8547 69.7063 18.0182C69.692 18.1519 68.2549 31.4553 67.5407 36.3021C67.5192 36.4499 67.3904 36.558 67.243 36.558L67.2444 36.5566Z" fill="#BDBDBD"/>
<path d="M94.4165 16.7315C94.3363 16.7315 94.2605 16.7003 94.2047 16.6448C94.1818 16.6221 91.833 14.3145 88.4021 12.7648C88.2647 12.7023 88.196 12.5501 88.2389 12.4065C88.2819 12.2629 88.425 12.1734 88.5739 12.1975C92.2552 12.779 97.7257 15.024 99.3531 15.7633C99.4161 15.7918 99.4662 15.8401 99.4962 15.9012C99.5478 16.0036 99.5435 16.1244 99.4834 16.2225C99.3903 16.3733 99.2186 16.6548 94.4237 16.7315H94.4165ZM90.6493 13.2568C92.7505 14.4894 94.1674 15.7804 94.5367 16.1316C95.9366 16.1074 97.4294 16.042 98.3068 15.9567C96.6021 15.2302 93.4504 13.9932 90.6507 13.2568H90.6493Z" fill="#BDBDBD"/>
<path d="M68.2063 18.0452C68.1891 18.0452 68.1719 18.0452 68.1547 18.041C67.9916 18.0125 67.8813 17.8576 67.91 17.6955C68.4081 14.8491 69.1524 10.5071 69.1681 10.217C69.1681 10.0521 69.3026 9.9213 69.4687 9.9213C69.6347 9.9213 69.7692 10.0578 69.7692 10.2227C69.7692 10.5241 68.8003 16.0974 68.5025 17.7979C68.4768 17.9429 68.3508 18.0452 68.2063 18.0452Z" fill="#BDBDBD"/>
<path d="M70.8513 18.0452H70.847C70.681 18.0424 70.5493 17.9073 70.5507 17.7424L70.671 10.2184C70.6738 10.0535 70.8127 9.92272 70.9758 9.92414C71.1419 9.92699 71.2736 10.0621 71.2721 10.227L71.1519 17.7509C71.149 17.9144 71.0159 18.0452 70.8513 18.0452Z" fill="#BDBDBD"/>
<path d="M113.052 24.1361C112.941 24.1361 112.838 24.0749 112.786 23.9754C112.015 22.501 110.698 20.0627 110.683 20.0371C110.645 19.966 110.638 19.8822 110.662 19.8054C110.686 19.7286 110.742 19.6646 110.814 19.6291L112.377 18.8528C112.526 18.7789 112.706 18.8386 112.78 18.9865C112.855 19.1343 112.795 19.3135 112.646 19.3874L111.359 20.0258C111.707 20.6712 112.6 22.3319 113.221 23.5119C114.121 23.3797 114.366 23.2333 114.402 23.2091C114.506 23.1039 114.674 23.0897 114.796 23.1806C114.929 23.2802 114.956 23.4664 114.856 23.5986C114.688 23.8204 114.078 24.0053 113.091 24.1332C113.078 24.1347 113.065 24.1361 113.052 24.1361Z" fill="#BDBDBD"/>
<path d="M116.16 31.6771C116.018 31.6771 115.892 31.5776 115.865 31.434C115.833 31.2719 115.941 31.1155 116.104 31.0842L116.865 30.9406L116.397 27.3748L115.594 27.4189C115.428 27.4289 115.287 27.3023 115.278 27.1374C115.269 26.9725 115.395 26.8317 115.561 26.8232L116.643 26.7635C116.799 26.7535 116.938 26.8673 116.958 27.0237L117.499 31.1439C117.519 31.3003 117.413 31.4468 117.257 31.4752L116.217 31.6714C116.198 31.6757 116.178 31.6771 116.16 31.6771Z" fill="#BDBDBD"/>
<path d="M115.311 37.5376H108.879C108.712 37.5376 108.578 37.4039 108.578 37.239C108.578 37.0741 108.712 36.9405 108.879 36.9405H115.01V34.5519C115.01 34.387 115.145 34.2533 115.311 34.2533C115.477 34.2533 115.611 34.387 115.611 34.5519V37.239C115.611 37.4039 115.477 37.5376 115.311 37.5376Z" fill="#BDBDBD"/>
<path d="M104.643 34.8263C104.483 34.8263 104.394 34.8263 104.39 34.8263C104.224 34.8235 104.092 34.687 104.095 34.522C104.098 34.3571 104.24 34.2292 104.4 34.2292C104.47 34.2292 111.484 34.3258 115.882 32.5202C116.035 32.4576 116.211 32.5302 116.274 32.6823C116.337 32.8344 116.264 33.0093 116.111 33.0718C113.746 34.0429 110.683 34.468 108.531 34.6528C106.713 34.8092 105.219 34.8277 104.643 34.8277V34.8263Z" fill="#BDBDBD"/>
<path d="M5.51034 33.541C4.51415 33.541 3.49076 33.2169 3.43064 33.1984C3.2732 33.1472 3.18589 32.9794 3.23742 32.823C3.28894 32.6666 3.45784 32.5799 3.61528 32.6311C4.15059 32.8031 5.70357 33.1614 6.44786 32.7704C6.59528 32.6937 6.77706 32.7491 6.85435 32.8941C6.93164 33.0406 6.87582 33.2211 6.72983 33.2979C6.38631 33.4785 5.95119 33.5424 5.51034 33.5424V33.541Z" fill="#BDBDBD"/>
<path d="M28.3498 36.3433C28.1838 36.3433 28.0493 36.2097 28.0493 36.0447C28.0493 32.26 26.8355 29.2729 24.4424 27.1687C22.563 25.5152 20.6737 25.0759 20.585 25.056C20.4318 25.0432 20.3116 24.9138 20.3116 24.7588C20.3116 24.5939 20.4461 24.4602 20.6122 24.4602C20.7782 24.4602 22.762 24.9337 24.7458 26.6384C26.492 28.1383 28.566 30.9278 28.649 35.7462H32.5336C32.6996 35.7462 32.8342 35.8798 32.8342 36.0447C32.8342 36.2097 32.6996 36.3433 32.5336 36.3433H28.3498Z" fill="#BDBDBD"/>
<path d="M31.0894 35.149H28.4443C28.2783 35.149 28.1437 35.0154 28.1437 34.8505C28.1437 34.6855 28.2783 34.5519 28.4443 34.5519H31.0894C31.2554 34.5519 31.39 34.6855 31.39 34.8505C31.39 35.0154 31.2554 35.149 31.0894 35.149Z" fill="#BDBDBD"/>
<path d="M111.97 21.6878C111.864 21.6878 111.763 21.6323 111.708 21.5357C111.627 21.3921 111.678 21.2101 111.824 21.129L113.327 20.2931C113.472 20.212 113.655 20.2632 113.736 20.4082C113.818 20.5518 113.766 20.7338 113.62 20.8148L112.118 21.6508C112.072 21.6764 112.02 21.6892 111.972 21.6892L111.97 21.6878Z" fill="#BDBDBD"/>
<path d="M65.481 18.0851C65.4596 18.0851 65.4381 18.0822 65.4166 18.0779C65.2549 18.0424 65.1518 17.8832 65.1876 17.7225C66.1824 13.1914 68.6228 12.8075 68.7258 12.7933C68.8904 12.7705 69.0421 12.8843 69.065 13.0478C69.0879 13.2098 68.9734 13.3605 68.8103 13.3833C68.7759 13.389 66.669 13.7757 65.7745 17.849C65.7444 17.9884 65.6199 18.0836 65.481 18.0836V18.0851Z" fill="#BDBDBD"/>
<path d="M85.1187 17.3671C84.9584 17.3671 84.8253 17.242 84.8181 17.0813C84.6478 13.2823 86.9679 12.8117 87.0681 12.7933C87.2313 12.7634 87.3887 12.87 87.4188 13.0321C87.4489 13.1942 87.3415 13.3492 87.1798 13.379C87.0982 13.3961 85.2747 13.8027 85.4192 17.0529C85.4264 17.2178 85.2976 17.3571 85.133 17.3642C85.1287 17.3642 85.1244 17.3642 85.1201 17.3642L85.1187 17.3671Z" fill="#BDBDBD"/>
<path d="M47.8758 18.0026C47.7427 18.0026 47.6211 17.9144 47.5853 17.7808C47.5423 17.6216 47.6382 17.4581 47.7986 17.4154L50.1345 16.7941C50.1946 16.7785 50.2561 16.7813 50.3148 16.8012C50.634 16.9164 51.5386 17.2206 51.9207 17.2619C52.7337 17.2775 53.2848 17.1026 53.468 16.7671C53.5811 16.5595 53.5252 16.3334 53.4565 16.2197C52.967 15.7178 52.4661 15.4733 51.9665 15.4918C51.1893 15.5216 50.6497 16.1671 50.6454 16.1742C50.6125 16.2154 50.5682 16.2467 50.5181 16.2652L47.8329 17.2675C47.6783 17.3258 47.5037 17.2476 47.4464 17.0927C47.3878 16.9377 47.4665 16.7657 47.6225 16.7088L50.2375 15.732C50.425 15.5301 51.0577 14.9302 51.9436 14.896C52.6307 14.8719 53.2919 15.1832 53.9117 15.8273C53.9232 15.8387 53.9332 15.8515 53.9418 15.8643C54.1379 16.1472 54.2323 16.6235 53.999 17.0514C53.7886 17.4367 53.2547 17.8931 51.8978 17.8604C51.8907 17.8604 51.8835 17.8604 51.8764 17.8604C51.4212 17.8163 50.5066 17.505 50.2017 17.3983L47.956 17.9955C47.9302 18.0026 47.9045 18.0054 47.8787 18.0054L47.8758 18.0026Z" fill="#BDBDBD"/>
<path d="M24.9233 38.4674C24.9233 38.4674 24.9104 38.4674 24.9032 38.4674L23.0998 38.348C22.9337 38.3366 22.8092 38.1944 22.8192 38.0309C22.8307 37.866 22.9738 37.7409 23.1399 37.7523L24.9433 37.8717C25.1093 37.8831 25.2339 38.0253 25.2239 38.1888C25.2138 38.3466 25.0807 38.4674 24.9247 38.4674H24.9233Z" fill="#BDBDBD"/>
<path d="M88.0786 38.493H86.7561C86.5901 38.493 86.4555 38.3594 86.4555 38.1944C86.4555 38.0295 86.5901 37.8959 86.7561 37.8959H88.0786C88.2447 37.8959 88.3792 38.0295 88.3792 38.1944C88.3792 38.3594 88.2447 38.493 88.0786 38.493Z" fill="#BDBDBD"/>
<path d="M103.89 37.8163C103.89 37.8163 103.878 37.8163 103.872 37.8163L102.754 37.7494C102.588 37.7395 102.462 37.5987 102.472 37.4338C102.482 37.2689 102.625 37.1423 102.79 37.1537L103.908 37.2205C104.074 37.2305 104.2 37.3712 104.19 37.5362C104.18 37.694 104.048 37.8163 103.89 37.8163Z" fill="#BDBDBD"/>
</g>
</g>
<defs>
<clipPath id="clip0_5058_2641">
<rect width="117" height="43" fill="white" transform="translate(0.5)"/>
</clipPath>
</defs>
</svg>
