<svg width="118" height="43" viewBox="0 0 118 43" fill="none" xmlns="http://www.w3.org/2000/svg">
<g id="Car type" clip-path="url(#clip0_5058_2665)">
<g id="Vector">
<path d="M52.8609 14.3741C52.8506 14.3741 52.8403 14.3741 52.83 14.3729C52.6817 14.3564 52.5746 14.2247 52.5914 14.0791C52.6043 13.9689 52.9099 11.3563 53.4735 10.0342C53.8436 9.1655 54.8882 8.47785 55.8528 8.46899C56.5505 8.46266 57.1205 8.81725 57.4017 9.44411C57.4623 9.57834 57.4004 9.73537 57.2637 9.79489C57.127 9.85441 56.9671 9.79363 56.9064 9.65939C56.6588 9.10978 56.1959 8.99707 55.858 9.00087C55.1061 9.00847 54.2602 9.56441 53.9726 10.2407C53.4387 11.4931 53.1318 14.1133 53.1292 14.1399C53.1137 14.2754 52.9963 14.3754 52.8609 14.3754V14.3741Z" fill="#BDBDBD"/>
<path d="M68.2344 14.3741C68.2344 14.3741 68.2215 14.3741 68.215 14.3741C68.0655 14.364 67.9533 14.2374 67.9636 14.0905C67.9713 13.9803 68.1583 11.3665 68.6625 10.0431C68.9875 9.19083 69.9522 8.51458 70.9065 8.47026C71.6428 8.43606 72.249 8.78685 72.5701 9.43397C72.6358 9.56568 72.5804 9.72524 72.445 9.78983C72.3109 9.85441 72.1484 9.79996 72.0826 9.66699C71.7937 9.08572 71.2946 8.98314 70.931 9.00087C70.192 9.03633 69.417 9.57581 69.1681 10.2293C68.6909 11.4805 68.5039 14.0993 68.5026 14.1259C68.4923 14.2665 68.3737 14.3741 68.2331 14.3741H68.2344Z" fill="#BDBDBD"/>
<path d="M20.2492 42.9995C15.6453 42.9995 11.899 39.3206 11.899 34.7996C11.899 30.2787 15.6453 26.5998 20.2492 26.5998C24.8532 26.5998 28.5995 30.2787 28.5995 34.7996C28.5995 39.3206 24.8532 42.9995 20.2492 42.9995ZM20.2492 27.1317C15.9432 27.1317 12.4406 30.5712 12.4406 34.7996C12.4406 39.0281 15.9432 42.4676 20.2492 42.4676C24.5553 42.4676 28.0578 39.0281 28.0578 34.7996C28.0578 30.5712 24.5553 27.1317 20.2492 27.1317Z" fill="#BDBDBD"/>
<path d="M40.4162 10.9498C40.3556 10.9498 40.295 10.9296 40.2447 10.8891C40.1286 10.7966 40.1118 10.6282 40.2073 10.5142C41.7548 8.65895 43.5938 6.46304 45.4985 4.2456C45.5437 4.19368 45.6069 4.16075 45.6752 4.15315C48.5794 3.82769 60.792 3.82009 68.0887 3.81503C70.076 3.81503 71.6467 3.8125 72.4643 3.8049H72.4669C72.6152 3.8049 72.7364 3.92267 72.7377 4.06831C72.739 4.21521 72.6191 4.33551 72.4695 4.33678C71.6493 4.34438 70.0785 4.34564 68.09 4.34691C61.3633 4.35071 48.9109 4.35957 45.8429 4.66984C43.9652 6.85688 42.1533 9.0186 40.6264 10.8498C40.5722 10.9144 40.4949 10.9473 40.4175 10.9473L40.4162 10.9498Z" fill="#BDBDBD"/>
<path d="M7.5298 36.7727C7.26672 36.7727 6.9082 36.6536 6.66834 36.5371C6.65931 36.5333 6.65028 36.5283 6.64254 36.5219C6.30467 36.3079 5.97453 36.0964 5.64825 35.8887C4.24774 34.9947 2.92459 34.15 1.46991 33.3091C1.45057 33.2977 1.43122 33.2838 1.41575 33.2673C1.3964 33.2483 1.37319 33.2306 1.34869 33.2116C1.22875 33.1166 1.03144 32.9596 1.01984 32.6898C0.966964 32.3758 0.941172 32.0871 0.915379 31.8072C0.888297 31.5184 0.863795 31.2462 0.81221 30.9435C0.810921 30.9359 0.809631 30.927 0.809631 30.9182C0.605873 28.1119 0.476911 25.336 1.13203 22.2257C1.25455 21.6267 1.49957 21.0682 1.68399 20.7073C1.68915 20.6959 1.69559 20.6858 1.70333 20.6757C2.81627 19.0851 5.92423 16.646 8.86455 16.2015C11.5302 15.7988 20.9276 14.8756 28.976 14.226C28.9838 14.226 28.9902 14.226 28.998 14.226C29.1334 14.226 29.283 14.1475 29.4416 13.9917C31.4753 11.9946 42.8806 4.21014 44.2115 3.55795C44.2386 3.54402 44.2683 3.53642 44.2979 3.53263C46.7456 3.22489 55.1281 3.17044 62.5227 3.12358C66.7359 3.09699 70.7156 3.07166 72.9105 3.00074C73.6675 2.97668 74.311 3.53896 74.3729 4.28232L75.206 14.2969C75.2125 14.3716 75.1867 14.4438 75.1351 14.4995C75.0835 14.554 75.0113 14.5856 74.9365 14.5856C74.627 14.5856 43.942 14.5514 37.392 14.6299C37.3804 14.6299 37.3688 14.6299 37.3572 14.6299C37.3263 14.6299 37.2927 14.6249 37.2631 14.6148C37.2231 14.5882 37.1896 14.5514 37.1677 14.5071C37.1432 14.4577 37.1354 14.402 37.1444 14.3501C37.1444 14.3501 37.1444 14.3488 37.1444 14.3475C37.1548 14.3121 37.1715 14.2779 37.196 14.2488L37.8189 13.5016C37.9143 13.3876 38.0846 13.3712 38.2006 13.4636C38.3167 13.5561 38.3335 13.7245 38.2393 13.8385L37.9827 14.1462C45.1246 14.0791 71.5977 14.1031 74.6953 14.1069L73.8868 4.37984C73.8481 3.92014 73.4535 3.57062 72.9815 3.58708C70.7801 3.658 66.7965 3.68333 62.5794 3.70992C55.2467 3.75678 46.9416 3.8087 44.4669 4.10883C43.0109 4.86613 31.79 12.5455 29.8775 14.4235C29.6183 14.6781 29.3436 14.8098 29.0637 14.8123C21.0282 15.4607 11.6553 16.3814 8.99995 16.7828C6.22084 17.2032 3.28053 19.5055 2.21273 21.0176C2.04379 21.3506 1.82456 21.8534 1.71623 22.3878C1.07529 25.4284 1.20167 28.16 1.40285 30.9232C1.45573 31.2398 1.48281 31.5311 1.5086 31.8135C1.53568 32.1022 1.56019 32.3745 1.61177 32.6759C1.61435 32.6898 1.61564 32.705 1.61564 32.7202C1.61564 32.7519 1.69044 32.8114 1.7446 32.8545C1.77168 32.876 1.80005 32.8988 1.82713 32.9229C3.28182 33.7637 4.60238 34.6072 5.99903 35.5C6.32014 35.7051 6.64641 35.9128 6.97913 36.1243C7.18289 36.2218 7.44597 36.2978 7.58525 36.2978C7.976 36.2978 8.37965 36.2674 8.76911 36.2383C9.42811 36.1889 10.109 36.1382 10.7912 36.2231C10.9395 36.2421 11.044 36.375 11.0259 36.5207C11.0066 36.6663 10.8712 36.7701 10.7229 36.7511C10.0948 36.6726 9.47066 36.7195 8.80909 36.7689C8.40931 36.7993 7.99535 36.8297 7.58396 36.8297L7.5298 36.7727Z" fill="#BDBDBD"/>
<path d="M59.1555 36.6625C47.4162 36.6625 35.6782 36.6562 31.4005 36.6448H29.6453C29.5654 36.6448 29.4893 36.6106 29.439 36.5511C29.3874 36.4915 29.3655 36.4118 29.3784 36.3345C29.439 35.985 29.479 35.6279 29.4983 35.2745C29.6079 33.2002 28.9864 31.1347 27.747 29.4606C26.5619 27.8586 24.8519 26.6631 22.9316 26.0933C20.9302 25.4993 18.7572 25.5905 16.8124 26.3465C14.9605 27.0671 13.3704 28.3867 12.3336 30.0596C11.1768 31.9275 10.7461 34.1563 11.1227 36.3332C11.1472 36.4776 11.0479 36.6156 10.9008 36.6397C10.7538 36.665 10.6133 36.5663 10.5888 36.4219C10.1916 34.1183 10.6468 31.7603 11.8706 29.7822C12.9681 28.0106 14.651 26.6137 16.6125 25.8514C18.6708 25.051 20.9701 24.9548 23.0877 25.5829C25.1201 26.1857 26.9307 27.4508 28.1855 29.1465C29.497 30.9194 30.156 33.1052 30.04 35.3011C30.0258 35.5709 30 35.8431 29.9626 36.1116H31.4031C39.9597 36.1357 78.3527 36.1357 86.917 36.1116C87.0666 36.1116 87.1878 36.2307 87.1878 36.3763C87.1878 36.5232 87.0679 36.6422 86.9183 36.6435C82.6355 36.6562 70.8962 36.6612 59.1568 36.6612L59.1555 36.6625Z" fill="#BDBDBD"/>
<path d="M20.2492 41.609C16.4255 41.609 13.315 38.5545 13.315 34.7996C13.315 31.0448 16.4255 27.9903 20.2492 27.9903C24.0729 27.9903 27.1835 31.0448 27.1835 34.7996C27.1835 38.5545 24.0729 41.609 20.2492 41.609ZM20.2492 28.5222C16.7247 28.5222 13.8566 31.3386 13.8566 34.7996C13.8566 38.2607 16.7247 41.0771 20.2492 41.0771C23.7737 41.0771 26.6418 38.2607 26.6418 34.7996C26.6418 31.3386 23.7737 28.5222 20.2492 28.5222Z" fill="#BDBDBD"/>
<path d="M20.2492 40.4819C17.0587 40.4819 14.4615 37.9327 14.4615 34.7984C14.4615 31.6641 17.0574 29.1148 20.2492 29.1148C23.441 29.1148 26.037 31.6641 26.037 34.7984C26.037 37.9327 23.441 40.4819 20.2492 40.4819ZM20.2492 29.648C17.3566 29.648 15.0031 31.9591 15.0031 34.7996C15.0031 37.6401 17.3566 39.9513 20.2492 39.9513C23.1418 39.9513 25.4954 37.6401 25.4954 34.7996C25.4954 31.9591 23.1418 29.648 20.2492 29.648Z" fill="#BDBDBD"/>
<path d="M20.2492 38.0023C18.4502 38.0023 16.9865 36.565 16.9865 34.7984C16.9865 33.0318 18.4502 31.5944 20.2492 31.5944C22.0482 31.5944 23.512 33.0318 23.512 34.7984C23.512 36.565 22.0482 38.0023 20.2492 38.0023ZM20.2492 32.1276C18.7494 32.1276 17.5282 33.3256 17.5282 34.7996C17.5282 36.2737 18.7481 37.4717 20.2492 37.4717C21.7503 37.4717 22.9703 36.2737 22.9703 34.7996C22.9703 33.3256 21.7503 32.1276 20.2492 32.1276Z" fill="#BDBDBD"/>
<path d="M20.2492 37.2488C18.8732 37.2488 17.7551 36.1496 17.7551 34.7996C17.7551 33.4497 18.8745 32.3505 20.2492 32.3505C21.624 32.3505 22.7433 33.4497 22.7433 34.7996C22.7433 36.1496 21.624 37.2488 20.2492 37.2488ZM20.2492 32.8823C19.1724 32.8823 18.2968 33.7422 18.2968 34.7996C18.2968 35.8571 19.1724 36.717 20.2492 36.717C21.3261 36.717 22.2017 35.8571 22.2017 34.7996C22.2017 33.7422 21.3261 32.8823 20.2492 32.8823Z" fill="#BDBDBD"/>
<path d="M20.2492 36.2053C19.46 36.2053 18.8165 35.5747 18.8165 34.7984C18.8165 34.0221 19.4587 33.3914 20.2492 33.3914C21.0398 33.3914 21.682 34.0221 21.682 34.7984C21.682 35.5747 21.0398 36.2053 20.2492 36.2053ZM20.2492 33.9246C19.7579 33.9246 19.3581 34.3172 19.3581 34.7996C19.3581 35.2821 19.7579 35.6747 20.2492 35.6747C20.7406 35.6747 21.1404 35.2821 21.1404 34.7996C21.1404 34.3172 20.7406 33.9246 20.2492 33.9246Z" fill="#BDBDBD"/>
<path d="M29.1953 14.7224C29.0547 14.7224 28.9361 14.616 28.9257 14.4754C28.9154 14.3285 29.0276 14.2019 29.1759 14.1905L33.3246 13.8967L44.8886 3.57442C44.9995 3.47564 45.171 3.48324 45.2716 3.59215C45.3722 3.70105 45.3644 3.86948 45.2535 3.96826L33.6212 14.3526C33.5761 14.3931 33.5193 14.4172 33.4587 14.421L29.2172 14.7211C29.2107 14.7211 29.2043 14.7211 29.1979 14.7211L29.1953 14.7224Z" fill="#BDBDBD"/>
<path d="M9.75051 35.2847H7.60975C7.46016 35.2847 7.33893 35.1656 7.33893 35.0187C7.33893 34.8718 7.46016 34.7528 7.60975 34.7528H9.50935C9.59447 33.7663 9.23724 33.047 8.89163 32.4454C8.67884 32.0757 8.46477 31.8008 8.35644 31.6679H2.95168C2.80208 31.6679 2.68086 31.5488 2.68086 31.4019C2.68086 31.255 2.80208 31.136 2.95168 31.136H8.48153C8.55762 31.136 8.63113 31.1677 8.68271 31.2234C8.6969 31.2386 9.02833 31.6008 9.36363 32.1833C9.81112 32.9609 10.1993 33.8461 10.0187 35.058C9.9994 35.1884 9.88463 35.2859 9.75051 35.2859V35.2847Z" fill="#BDBDBD"/>
<path d="M6.26082 32.491C6.1138 32.491 5.99387 32.3758 5.99 32.2314C5.98613 32.0845 6.10478 31.9629 6.25437 31.9591L9.12118 31.8933C9.12118 31.8933 9.12505 31.8933 9.12763 31.8933C9.27464 31.8933 9.39458 32.0085 9.39844 32.1529C9.40231 32.2998 9.28367 32.4214 9.13407 32.4252L6.26727 32.491C6.26727 32.491 6.2634 32.491 6.26082 32.491Z" fill="#BDBDBD"/>
<path d="M36.0818 33.8055C35.9451 33.8055 35.8265 33.703 35.8123 33.5662L34.2854 18.7039C34.1745 17.4742 34.6761 16.2636 35.6279 15.462L37.1741 14.1601C37.2876 14.0651 37.4578 14.0778 37.5558 14.1892C37.6525 14.3007 37.6396 14.4691 37.5262 14.5641L35.9799 15.8659C35.161 16.5561 34.7277 17.5971 34.8231 18.6532L36.35 33.5117C36.3655 33.6574 36.2572 33.7878 36.1076 33.803C36.0986 33.803 36.0895 33.8043 36.0805 33.8043L36.0818 33.8055Z" fill="#BDBDBD"/>
<path d="M12.7115 38.0467H10.9137C10.0355 38.0467 9.32107 37.3451 9.32107 36.4827C9.32107 36.3358 9.44229 36.2167 9.59189 36.2167C9.74148 36.2167 9.8627 36.3358 9.8627 36.4827C9.8627 37.0513 10.3347 37.5148 10.9137 37.5148H12.7115C12.8611 37.5148 12.9823 37.6338 12.9823 37.7807C12.9823 37.9276 12.8611 38.0467 12.7115 38.0467Z" fill="#BDBDBD"/>
<path d="M83.7961 37.7642C79.9595 37.7642 74.2517 37.7427 67.8681 37.7187C52.8519 37.6617 34.1641 37.5908 27.9456 37.7579C27.796 37.763 27.6722 37.6465 27.6671 37.4996C27.6632 37.3527 27.7806 37.2311 27.9302 37.226C34.1564 37.0576 52.8493 37.1285 67.8694 37.1855C75.9862 37.2159 83.0108 37.2438 86.4811 37.226C86.8229 36.6498 86.9854 35.9774 86.9505 35.2758C86.8551 33.3534 87.3555 31.4019 88.3588 29.7822C89.4562 28.0106 91.1392 26.6137 93.1007 25.8514C95.1589 25.051 97.4583 24.9548 99.5758 25.5829C101.608 26.1857 103.419 27.4508 104.674 29.1465C105.985 30.9194 106.644 33.1052 106.528 35.3011C106.514 35.5709 106.488 35.8431 106.451 36.1116H107.862L114.078 34.7655C115.826 34.3868 117.096 32.838 117.1 31.0803L116.083 15.5367C116.047 14.9807 115.573 14.5451 115.006 14.5451H74.7057C74.5561 14.5451 74.4349 14.4261 74.4349 14.2792C74.4349 14.1323 74.5561 14.0132 74.7057 14.0132H115.006C115.858 14.0132 116.569 14.6679 116.624 15.5025L117.643 31.0549C117.643 31.0549 117.643 31.0663 117.643 31.0714C117.643 33.0799 116.194 34.8528 114.195 35.2847L107.949 36.6372C107.93 36.641 107.911 36.6435 107.891 36.6435H106.135C106.055 36.6435 105.979 36.6093 105.928 36.5498C105.877 36.4903 105.855 36.4105 105.868 36.3332C105.928 35.9837 105.968 35.6266 105.988 35.2733C106.097 33.1989 105.476 31.1335 104.236 29.4593C103.051 27.8573 101.341 26.6619 99.4211 26.092C97.4196 25.4981 95.2466 25.588 93.3019 26.3453C91.45 27.0658 89.8599 28.3854 88.823 30.0583C87.8752 31.5894 87.4032 33.4332 87.4922 35.2505C87.5334 36.099 87.3245 36.9107 86.8848 37.5996L86.8628 37.6325C86.8138 37.7098 86.7274 37.7567 86.6346 37.7579C85.866 37.7617 84.9091 37.7642 83.7949 37.7642H83.7961Z" fill="#BDBDBD"/>
<path d="M1.32548 32.0757C1.18104 32.0757 1.06111 31.9629 1.05466 31.8198C1.0495 31.6729 1.16556 31.5501 1.31516 31.5438L2.9117 31.483C2.97747 30.8055 3.15543 28.7375 3.09869 26.8328C3.07935 26.1984 2.89493 25.7488 2.54932 25.493C1.99349 25.0827 1.18878 25.2802 1.18104 25.2828C1.0366 25.3195 0.888297 25.2334 0.850899 25.0915C0.8135 24.9497 0.901194 24.8041 1.04563 24.7674C1.08948 24.756 2.11214 24.5052 2.8743 25.0675C3.3579 25.4246 3.61583 26.0135 3.64033 26.8164C3.70997 29.1617 3.43012 31.7426 3.42754 31.7679C3.41336 31.8996 3.30245 31.9997 3.16833 32.0047L1.33579 32.0744C1.33579 32.0744 1.32934 32.0744 1.32548 32.0744V32.0757Z" fill="#BDBDBD"/>
<path d="M2.13922 31.8274C1.98963 31.8274 1.8684 31.7084 1.8684 31.5615V25.1789C1.8684 25.032 1.98963 24.913 2.13922 24.913C2.28882 24.913 2.41004 25.032 2.41004 25.1789V31.5615C2.41004 31.7084 2.28882 31.8274 2.13922 31.8274Z" fill="#BDBDBD"/>
<path d="M32.0943 33.7346C31.9538 33.7346 31.8338 33.627 31.8248 33.4864C31.8183 33.4003 31.8119 33.3142 31.8042 33.2293C31.6094 31.1271 30.8202 29.1199 29.5228 27.4242C28.2758 25.7957 26.5993 24.5204 24.6726 23.7378C22.6079 22.8982 20.2454 22.6677 18.0182 23.0881C15.9161 23.4845 13.9675 24.4508 12.3839 25.8792C10.8054 27.3039 9.66282 29.1364 9.0812 31.1791C9.04122 31.3209 8.89163 31.4032 8.74719 31.3639C8.60275 31.3247 8.51893 31.1778 8.55891 31.036C9.1676 28.897 10.3631 26.9785 12.0164 25.4879C13.6748 23.9923 15.715 22.9817 17.915 22.5664C20.2454 22.1269 22.7188 22.3676 24.8789 23.2464C26.8946 24.0658 28.6498 25.4005 29.9549 27.1051C31.3128 28.8793 32.1395 30.9802 32.3432 33.1812C32.351 33.2711 32.3587 33.361 32.3651 33.4509C32.3755 33.5978 32.2633 33.7245 32.1137 33.7346C32.1072 33.7346 32.1008 33.7346 32.0943 33.7346Z" fill="#BDBDBD"/>
<path d="M3.19154 21.2379C2.39972 21.2379 1.89033 21.0936 1.84648 21.0809C1.70333 21.0391 1.62209 20.891 1.66464 20.7504C1.7072 20.6098 1.85809 20.53 2.00123 20.5718C2.02831 20.5794 4.04785 21.1392 6.3382 19.8677C6.34335 19.8652 6.34722 19.8626 6.35238 19.8601L7.9644 19.0876C6.52003 19.2282 4.40765 19.4384 3.40433 19.5663C3.25602 19.5853 3.12062 19.4827 3.10127 19.3371C3.08193 19.1915 3.18639 19.0585 3.33469 19.0395C4.94155 18.8331 9.36234 18.419 9.40747 18.4152C9.53772 18.4025 9.65766 18.4836 9.69377 18.6077C9.72987 18.7318 9.66926 18.8622 9.55191 18.9192L6.5987 20.335C5.28587 21.0619 4.06719 21.2392 3.19283 21.2392L3.19154 21.2379Z" fill="#BDBDBD"/>
<path d="M3.79121 22.3422C3.69836 22.3422 3.6442 22.3384 3.6313 22.3384C3.48171 22.327 3.3708 22.2004 3.38112 22.0535C3.39272 21.9066 3.52168 21.7977 3.67128 21.8078C3.69449 21.8091 5.53348 21.9129 7.9515 20.4616C8.07917 20.3857 8.24553 20.4249 8.3242 20.5503C8.40286 20.6757 8.3616 20.839 8.23393 20.9163C6.0403 22.232 4.31222 22.3435 3.79121 22.3435V22.3422Z" fill="#BDBDBD"/>
<path d="M72.227 14.2754C72.0774 14.2754 71.9562 14.1563 71.9562 14.0094V4.2228C71.9562 4.0759 72.0774 3.95686 72.227 3.95686C72.3766 3.95686 72.4978 4.0759 72.4978 4.2228V14.0094C72.4978 14.1563 72.3766 14.2754 72.227 14.2754Z" fill="#BDBDBD"/>
<path d="M56.9529 14.5945C56.8033 14.5945 56.6821 14.4754 56.6821 14.3285V4.43556C56.6821 4.28866 56.8033 4.16962 56.9529 4.16962C57.1025 4.16962 57.2237 4.28866 57.2237 4.43556V14.3285C57.2237 14.4754 57.1025 14.5945 56.9529 14.5945Z" fill="#BDBDBD"/>
<path d="M58.9157 14.4463C58.7712 14.4463 58.6513 14.3349 58.6448 14.1918C58.6281 13.7903 58.2219 4.35324 58.2219 4.14176C58.2219 3.99486 58.3431 3.87582 58.4927 3.87582C58.6423 3.87582 58.7635 3.99486 58.7635 4.14176C58.7648 4.33931 59.0408 10.7865 59.1865 14.169C59.1929 14.3159 59.0769 14.44 58.9273 14.4463C58.9234 14.4463 58.9195 14.4463 58.9157 14.4463Z" fill="#BDBDBD"/>
<path d="M56.5015 33.4839C56.4899 33.4839 56.477 33.4839 56.4654 33.4813C56.3171 33.4623 56.2126 33.3281 56.2333 33.1825L57.9639 20.5642C58.0297 20.0868 58.0503 19.6018 58.0245 19.1205L57.7821 14.4704C57.7744 14.3235 57.8891 14.1981 58.0387 14.1918C58.1896 14.1829 58.316 14.2969 58.3224 14.4438L58.5649 19.094C58.592 19.6068 58.57 20.1261 58.5004 20.6351L56.7697 33.2534C56.7517 33.3864 56.6356 33.4839 56.5015 33.4839Z" fill="#BDBDBD"/>
<path d="M72.2902 33.4839C72.2786 33.4839 72.2657 33.4839 72.2541 33.4813C72.1058 33.4623 72.0014 33.3281 72.022 33.1825L73.7526 20.5642C73.8184 20.0868 73.8391 19.6018 73.8133 19.1205L73.5708 14.4704C73.5631 14.3235 73.6778 14.1981 73.8274 14.1918C73.977 14.1829 74.1047 14.2969 74.1124 14.4438L74.3549 19.094C74.382 19.6068 74.3601 20.1261 74.2904 20.6351L72.5597 33.2534C72.5417 33.3864 72.4256 33.4839 72.2915 33.4839H72.2902Z" fill="#BDBDBD"/>
<path d="M20.4749 32.8355C20.4672 32.8355 20.4582 32.8355 20.4504 32.8355C20.3008 32.8228 20.1912 32.6937 20.2054 32.5468L20.4878 29.4441C20.5007 29.2972 20.631 29.1883 20.7818 29.2022C20.9302 29.2149 21.0411 29.3441 21.0269 29.491L20.7444 32.5936C20.7316 32.7316 20.6142 32.8355 20.4749 32.8355Z" fill="#BDBDBD"/>
<path d="M19.7876 40.3857C19.7798 40.3857 19.7708 40.3857 19.7631 40.3857C19.6147 40.373 19.5038 40.2438 19.518 40.0969L19.8005 36.9943C19.8133 36.8487 19.9436 36.7397 20.0945 36.7537C20.2428 36.7663 20.3537 36.8955 20.3395 37.0424L20.0571 40.1451C20.0442 40.2831 19.9268 40.3869 19.7876 40.3869V40.3857Z" fill="#BDBDBD"/>
<path d="M22.016 33.627C21.9386 33.627 21.8613 33.594 21.8084 33.532C21.7129 33.4193 21.7271 33.2521 21.8419 33.1571L24.2754 31.1588C24.3902 31.0651 24.5604 31.079 24.6571 31.1917C24.7526 31.3044 24.7384 31.4716 24.6236 31.5666L22.1901 33.5649C22.1398 33.6067 22.0779 33.627 22.016 33.627Z" fill="#BDBDBD"/>
<path d="M16.0941 38.4886C16.0167 38.4886 15.9394 38.4557 15.8865 38.3936C15.791 38.2809 15.8052 38.1138 15.92 38.0188L18.3535 36.0204C18.4683 35.9267 18.6385 35.9407 18.7352 36.0534C18.8307 36.1661 18.8165 36.3332 18.7017 36.4282L16.2682 38.4266C16.2179 38.4684 16.156 38.4886 16.0941 38.4886Z" fill="#BDBDBD"/>
<path d="M25.6966 35.5341C25.6888 35.5341 25.6798 35.5341 25.6721 35.5341L22.5125 35.2568C22.3642 35.2441 22.2533 35.115 22.2675 34.9681C22.2804 34.8224 22.4106 34.7135 22.5615 34.7275L25.7211 35.0048C25.8707 35.0175 25.9803 35.1466 25.9661 35.2935C25.9532 35.4316 25.8358 35.5354 25.6966 35.5354V35.5341Z" fill="#BDBDBD"/>
<path d="M18.0079 34.8604C18.0002 34.8604 17.9911 34.8604 17.9834 34.8604L14.8238 34.5831C14.6742 34.5704 14.5646 34.4413 14.5788 34.2944C14.5917 34.1487 14.722 34.0398 14.8728 34.0537L18.0324 34.3311C18.182 34.3437 18.2916 34.4729 18.2774 34.6198C18.2645 34.7579 18.1472 34.8617 18.0079 34.8617V34.8604Z" fill="#BDBDBD"/>
<path d="M23.766 39.1611C23.6886 39.1611 23.6113 39.1281 23.5584 39.0661L21.5234 36.6764C21.4279 36.5637 21.4421 36.3966 21.5569 36.3016C21.6717 36.2079 21.8419 36.2218 21.9386 36.3345L23.9736 38.7242C24.0691 38.8369 24.0549 39.004 23.9401 39.099C23.8898 39.1408 23.8279 39.1611 23.766 39.1611Z" fill="#BDBDBD"/>
<path d="M18.8139 33.3458C18.7365 33.3458 18.6591 33.3129 18.6063 33.2509L16.5713 30.8612C16.4758 30.7485 16.49 30.5813 16.6048 30.4863C16.7196 30.3926 16.8898 30.4066 16.9865 30.5193L19.0215 32.9089C19.117 33.0216 19.1028 33.1888 18.988 33.2838C18.9377 33.3256 18.8758 33.3458 18.8139 33.3458Z" fill="#BDBDBD"/>
<path d="M20.1048 32.8317C19.9642 32.8317 19.8456 32.7253 19.8353 32.5847L19.6019 29.4783C19.5902 29.3314 19.7024 29.2048 19.852 29.1934C20.0029 29.1832 20.1306 29.2921 20.1422 29.439L20.3756 32.5455C20.3872 32.6924 20.275 32.819 20.1254 32.8304C20.119 32.8304 20.1125 32.8304 20.1048 32.8304V32.8317Z" fill="#BDBDBD"/>
<path d="M20.6722 40.392C20.5317 40.392 20.413 40.2856 20.4027 40.1451L20.1693 37.0386C20.1577 36.8917 20.2699 36.7651 20.4195 36.7537C20.5691 36.7423 20.698 36.8525 20.7096 36.9994L20.943 40.1058C20.9547 40.2527 20.8425 40.3793 20.6929 40.3907C20.6864 40.3907 20.68 40.3907 20.6722 40.3907V40.392Z" fill="#BDBDBD"/>
<path d="M21.7568 33.3686C21.6936 33.3686 21.6317 33.3471 21.5801 33.304C21.4666 33.2078 21.4537 33.0406 21.5517 32.9292L23.6241 30.5699C23.7222 30.4585 23.8937 30.4471 24.0059 30.5421C24.1194 30.6383 24.1323 30.8055 24.0342 30.9169L21.9618 33.2749C21.9077 33.3357 21.8329 33.3674 21.7568 33.3674V33.3686Z" fill="#BDBDBD"/>
<path d="M16.7144 39.1079C16.6512 39.1079 16.5893 39.0864 16.5377 39.0433C16.4242 38.9471 16.4114 38.7799 16.5094 38.6684L18.5818 36.3104C18.6798 36.199 18.8513 36.1863 18.9635 36.2826C19.077 36.3788 19.0899 36.546 18.9919 36.6574L16.9195 39.0154C16.8653 39.0762 16.7905 39.1079 16.7144 39.1079Z" fill="#BDBDBD"/>
<path d="M22.5396 34.8946C22.399 34.8946 22.2804 34.7882 22.2701 34.6477C22.2585 34.5008 22.3706 34.3741 22.5202 34.3627L25.6837 34.1335C25.8345 34.1221 25.9622 34.2323 25.9738 34.3792C25.9854 34.5261 25.8732 34.6527 25.7236 34.6641L22.5602 34.8934C22.5538 34.8934 22.5473 34.8934 22.5396 34.8934V34.8946Z" fill="#BDBDBD"/>
<path d="M14.8406 35.4518C14.7 35.4518 14.5814 35.3455 14.5711 35.2049C14.5595 35.058 14.6717 34.9314 14.8213 34.92L17.9847 34.6907C18.1343 34.6793 18.2632 34.7895 18.2748 34.9364C18.2864 35.0833 18.1743 35.21 18.0247 35.2214L14.8612 35.4506C14.8548 35.4506 14.8483 35.4506 14.8406 35.4506V35.4518Z" fill="#BDBDBD"/>
<path d="M24.3953 38.5519C24.3321 38.5519 24.2702 38.5304 24.2187 38.4874L21.8161 36.4523C21.7026 36.356 21.6897 36.1889 21.7877 36.0774C21.8858 35.966 22.0573 35.9533 22.1695 36.0496L24.572 38.0846C24.6855 38.1809 24.6984 38.3481 24.6004 38.4595C24.5462 38.5203 24.4714 38.5519 24.3953 38.5519Z" fill="#BDBDBD"/>
<path d="M18.5508 33.6004C18.4876 33.6004 18.4257 33.5789 18.3741 33.5358L15.9716 31.5007C15.8581 31.4045 15.8452 31.2373 15.9432 31.1259C16.0412 31.0144 16.2128 31.003 16.3249 31.098L18.7275 33.1331C18.841 33.2293 18.8539 33.3965 18.7559 33.5079C18.7017 33.5687 18.6269 33.6004 18.5508 33.6004Z" fill="#BDBDBD"/>
<path d="M96.74 42.9995C92.1361 42.9995 88.3897 39.3206 88.3897 34.7996C88.3897 30.2787 92.1361 26.5998 96.74 26.5998C101.344 26.5998 105.09 30.2787 105.09 34.7996C105.09 39.3206 101.344 42.9995 96.74 42.9995ZM96.74 27.1317C92.434 27.1317 88.9314 30.5712 88.9314 34.7996C88.9314 39.0281 92.434 42.4676 96.74 42.4676C101.046 42.4676 104.549 39.0281 104.549 34.7996C104.549 30.5712 101.046 27.1317 96.74 27.1317Z" fill="#BDBDBD"/>
<path d="M96.74 41.609C92.9163 41.609 89.8057 38.5545 89.8057 34.7996C89.8057 31.0448 92.9163 27.9903 96.74 27.9903C100.564 27.9903 103.674 31.0448 103.674 34.7996C103.674 38.5545 100.564 41.609 96.74 41.609ZM96.74 28.5222C93.2155 28.5222 90.3474 31.3386 90.3474 34.7996C90.3474 38.2607 93.2155 41.0771 96.74 41.0771C100.264 41.0771 103.133 38.2607 103.133 34.7996C103.133 31.3386 100.264 28.5222 96.74 28.5222Z" fill="#BDBDBD"/>
<path d="M96.74 40.4819C93.5495 40.4819 90.9522 37.9327 90.9522 34.7984C90.9522 31.6641 93.5482 29.1148 96.74 29.1148C99.9318 29.1148 102.528 31.6641 102.528 34.7984C102.528 37.9327 99.9318 40.4819 96.74 40.4819ZM96.74 29.648C93.8474 29.648 91.4938 31.9591 91.4938 34.7996C91.4938 37.6401 93.8474 39.9513 96.74 39.9513C99.6326 39.9513 101.986 37.6401 101.986 34.7996C101.986 31.9591 99.6326 29.648 96.74 29.648Z" fill="#BDBDBD"/>
<path d="M96.74 38.0023C94.941 38.0023 93.4772 36.565 93.4772 34.7984C93.4772 33.0318 94.941 31.5944 96.74 31.5944C98.539 31.5944 100.003 33.0318 100.003 34.7984C100.003 36.565 98.539 38.0023 96.74 38.0023ZM96.74 32.1276C95.2402 32.1276 94.0189 33.3256 94.0189 34.7996C94.0189 36.2737 95.2389 37.4717 96.74 37.4717C98.2411 37.4717 99.4611 36.2737 99.4611 34.7996C99.4611 33.3256 98.2411 32.1276 96.74 32.1276Z" fill="#BDBDBD"/>
<path d="M96.74 37.2488C95.364 37.2488 94.2459 36.1496 94.2459 34.7996C94.2459 33.4497 95.3652 32.3505 96.74 32.3505C98.1147 32.3505 99.2341 33.4497 99.2341 34.7996C99.2341 36.1496 98.1147 37.2488 96.74 37.2488ZM96.74 32.8823C95.6631 32.8823 94.7875 33.7422 94.7875 34.7996C94.7875 35.8571 95.6631 36.717 96.74 36.717C97.8168 36.717 98.6924 35.8571 98.6924 34.7996C98.6924 33.7422 97.8168 32.8823 96.74 32.8823Z" fill="#BDBDBD"/>
<path d="M96.74 36.2053C95.9507 36.2053 95.3072 35.5747 95.3072 34.7984C95.3072 34.0221 95.9494 33.3914 96.74 33.3914C97.5305 33.3914 98.1727 34.0221 98.1727 34.7984C98.1727 35.5747 97.5305 36.2053 96.74 36.2053ZM96.74 33.9246C96.2486 33.9246 95.8488 34.3172 95.8488 34.7996C95.8488 35.2821 96.2486 35.6747 96.74 35.6747C97.2313 35.6747 97.6311 35.2821 97.6311 34.7996C97.6311 34.3172 97.2313 33.9246 96.74 33.9246Z" fill="#BDBDBD"/>
<path d="M82.1222 33.8182C78.5113 33.8182 73.1543 33.7967 67.164 33.7726C53.1085 33.7156 35.6162 33.6447 29.7434 33.8131C29.5963 33.8182 29.4687 33.7017 29.4648 33.5548C29.4609 33.4079 29.5783 33.285 29.7279 33.2812C35.6085 33.1128 53.1073 33.1837 67.1666 33.2407C74.707 33.2711 81.244 33.2977 84.5544 33.2825C84.7002 31.911 84.9993 31.1487 85.0535 31.0208C85.6635 28.8882 86.8577 26.9759 88.5058 25.4879C90.1642 23.9923 92.2044 22.9817 94.4045 22.5664C96.7348 22.1269 99.2083 22.3676 101.368 23.2464C103.384 24.0658 105.139 25.4005 106.444 27.1051C107.802 28.8793 108.629 30.9802 108.833 33.1812C108.84 33.2711 108.848 33.361 108.855 33.4509C108.865 33.5978 108.751 33.7245 108.603 33.7346C108.457 33.7447 108.325 33.6333 108.314 33.4877C108.308 33.4016 108.301 33.3167 108.294 33.2306C108.099 31.1284 107.31 29.1199 106.012 27.4255C104.765 25.7969 103.089 24.5217 101.162 23.739C99.0974 22.8994 96.7348 22.669 94.5077 23.0894C92.4056 23.4858 90.457 24.452 88.8733 25.8805C87.2949 27.3052 86.1523 29.1376 85.5706 31.1803C85.5668 31.1917 85.5629 31.2031 85.5577 31.2145C85.5539 31.2221 85.2057 32.0326 85.0703 33.57C85.0587 33.7068 84.9426 33.8119 84.802 33.8131C84.0747 33.8169 83.172 33.8195 82.1209 33.8195L82.1222 33.8182Z" fill="#BDBDBD"/>
<path d="M96.9644 32.8355C96.9566 32.8355 96.9476 32.8355 96.9399 32.8355C96.7903 32.8228 96.6806 32.6937 96.6948 32.5468L96.9773 29.4441C96.9902 29.2972 97.1204 29.1883 97.2713 29.2022C97.4196 29.2149 97.5305 29.3441 97.5163 29.491L97.2339 32.5936C97.221 32.7316 97.1036 32.8355 96.9644 32.8355Z" fill="#BDBDBD"/>
<path d="M96.2783 40.3857C96.2706 40.3857 96.2615 40.3857 96.2538 40.3857C96.1042 40.373 95.9946 40.2438 96.0088 40.0969L96.2912 36.9943C96.3041 36.8487 96.4343 36.7397 96.5852 36.7537C96.7348 36.7663 96.8444 36.8955 96.8302 37.0424L96.5478 40.1451C96.5349 40.2831 96.4176 40.3869 96.2783 40.3869V40.3857Z" fill="#BDBDBD"/>
<path d="M98.5067 33.627C98.4294 33.627 98.352 33.594 98.2991 33.532C98.2037 33.4193 98.2179 33.2521 98.3326 33.1571L100.766 31.1588C100.881 31.0651 101.051 31.079 101.148 31.1917C101.243 31.3044 101.229 31.4716 101.114 31.5666L98.6808 33.5649C98.6305 33.6067 98.5686 33.627 98.5067 33.627Z" fill="#BDBDBD"/>
<path d="M92.5848 38.4886C92.5075 38.4886 92.4301 38.4557 92.3772 38.3936C92.2818 38.2809 92.296 38.1138 92.4107 38.0188L94.8442 36.0204C94.959 35.9267 95.1292 35.9407 95.226 36.0534C95.3214 36.1661 95.3072 36.3332 95.1924 36.4282L92.7589 38.4266C92.7086 38.4684 92.6467 38.4886 92.5848 38.4886Z" fill="#BDBDBD"/>
<path d="M102.187 35.5341C102.18 35.5341 102.171 35.5341 102.163 35.5341L99.0032 35.2568C98.8536 35.2441 98.744 35.115 98.7582 34.9681C98.7711 34.8224 98.9014 34.7135 99.0522 34.7275L102.212 35.0048C102.36 35.0175 102.471 35.1466 102.457 35.2935C102.444 35.4316 102.327 35.5354 102.187 35.5354V35.5341Z" fill="#BDBDBD"/>
<path d="M94.4986 34.8604C94.4909 34.8604 94.4819 34.8604 94.4741 34.8604L91.3146 34.5831C91.1663 34.5704 91.0554 34.4413 91.0695 34.2944C91.0824 34.1487 91.2114 34.0398 91.3636 34.0537L94.5231 34.3311C94.6727 34.3437 94.7823 34.4729 94.7682 34.6198C94.7553 34.7579 94.6379 34.8617 94.4986 34.8617V34.8604Z" fill="#BDBDBD"/>
<path d="M100.255 39.1611C100.178 39.1611 100.101 39.1281 100.048 39.0661L98.0128 36.6764C97.9174 36.5637 97.9316 36.3966 98.0463 36.3016C98.1611 36.2079 98.3314 36.2218 98.4281 36.3345L100.463 38.7242C100.559 38.8369 100.544 39.004 100.43 39.099C100.379 39.1408 100.317 39.1611 100.255 39.1611Z" fill="#BDBDBD"/>
<path d="M95.3046 33.3458C95.2272 33.3458 95.1499 33.3129 95.097 33.2509L93.062 30.8612C92.9666 30.7485 92.9808 30.5813 93.0955 30.4863C93.2103 30.3926 93.3805 30.4066 93.4772 30.5193L95.5123 32.9089C95.6077 33.0216 95.5935 33.1888 95.4787 33.2838C95.4284 33.3256 95.3665 33.3458 95.3046 33.3458Z" fill="#BDBDBD"/>
<path d="M96.5955 32.8317C96.455 32.8317 96.3363 32.7253 96.326 32.5847L96.0926 29.4783C96.081 29.3314 96.1932 29.2048 96.3428 29.1934C96.4937 29.1832 96.6213 29.2921 96.6329 29.439L96.8664 32.5455C96.878 32.6924 96.7658 32.819 96.6162 32.8304C96.6097 32.8304 96.6033 32.8304 96.5955 32.8304V32.8317Z" fill="#BDBDBD"/>
<path d="M97.1617 40.392C97.0211 40.392 96.9025 40.2856 96.8922 40.1451L96.6587 37.0386C96.6471 36.8917 96.7593 36.7651 96.9089 36.7537C97.0585 36.7423 97.1875 36.8525 97.1991 36.9994L97.4325 40.1058C97.4441 40.2527 97.3319 40.3793 97.1823 40.3907C97.1759 40.3907 97.1694 40.3907 97.1617 40.3907V40.392Z" fill="#BDBDBD"/>
<path d="M98.2475 33.3686C98.1843 33.3686 98.1224 33.3471 98.0708 33.304C97.9574 33.2078 97.9445 33.0406 98.0425 32.9292L100.115 30.5699C100.213 30.4585 100.384 30.4471 100.497 30.5421C100.61 30.6383 100.623 30.8055 100.525 30.9169L98.4526 33.2749C98.3984 33.3357 98.3236 33.3674 98.2475 33.3674V33.3686Z" fill="#BDBDBD"/>
<path d="M93.2039 39.1079C93.1407 39.1079 93.0788 39.0864 93.0272 39.0433C92.9137 38.9471 92.9008 38.7799 92.9988 38.6684L95.0712 36.3104C95.1692 36.199 95.3407 36.1863 95.4529 36.2826C95.5664 36.3788 95.5793 36.546 95.4813 36.6574L93.4089 39.0154C93.3547 39.0762 93.2799 39.1079 93.2039 39.1079Z" fill="#BDBDBD"/>
<path d="M99.029 34.8946C98.8885 34.8946 98.7698 34.7882 98.7595 34.6477C98.7479 34.5008 98.8601 34.3741 99.0097 34.3627L102.173 34.1335C102.323 34.1221 102.452 34.2323 102.463 34.3792C102.475 34.5261 102.363 34.6527 102.213 34.6641L99.0497 34.8934C99.0432 34.8934 99.0368 34.8934 99.029 34.8934V34.8946Z" fill="#BDBDBD"/>
<path d="M91.3313 35.4518C91.1908 35.4518 91.0721 35.3455 91.0618 35.2049C91.0502 35.058 91.1624 34.9314 91.312 34.92L94.4754 34.6907C94.625 34.6793 94.754 34.7895 94.7656 34.9364C94.7772 35.0833 94.665 35.21 94.5154 35.2214L91.352 35.4506C91.3455 35.4506 91.3391 35.4506 91.3313 35.4506V35.4518Z" fill="#BDBDBD"/>
<path d="M100.886 38.5519C100.823 38.5519 100.761 38.5304 100.709 38.4874L98.3068 36.4523C98.1934 36.356 98.1805 36.1889 98.2785 36.0774C98.3765 35.966 98.548 35.9533 98.6602 36.0496L101.063 38.0846C101.176 38.1809 101.189 38.3481 101.091 38.4595C101.038 38.5203 100.962 38.5519 100.886 38.5519Z" fill="#BDBDBD"/>
<path d="M95.0415 33.6004C94.9784 33.6004 94.9165 33.5789 94.8649 33.5358L92.4623 31.5007C92.3488 31.4045 92.336 31.2373 92.434 31.1259C92.532 31.0144 92.7035 31.003 92.8157 31.098L95.2182 33.1331C95.3317 33.2293 95.3446 33.3965 95.2466 33.5079C95.1924 33.5687 95.1176 33.6004 95.0415 33.6004Z" fill="#BDBDBD"/>
<path d="M104.929 36.6688C104.782 36.6688 104.661 36.5536 104.658 36.408C104.656 36.2611 104.774 36.1395 104.924 36.1369L106.13 36.1129C106.13 36.1129 106.133 36.1129 106.135 36.1129C106.282 36.1129 106.403 36.2281 106.406 36.3738C106.408 36.5207 106.29 36.6422 106.14 36.6448L104.934 36.6688C104.934 36.6688 104.93 36.6688 104.929 36.6688Z" fill="#BDBDBD"/>
<path d="M86.761 37.6781C86.6152 37.6781 86.4953 37.5642 86.4901 37.4211C86.485 37.2742 86.6023 37.1513 86.7519 37.1463L88.9907 37.0753C89.1442 37.0703 89.2654 37.1855 89.2705 37.3324C89.2757 37.4793 89.1583 37.6021 89.0088 37.6072L86.77 37.6781C86.77 37.6781 86.7635 37.6781 86.761 37.6781Z" fill="#BDBDBD"/>
<path d="M115.233 36.4548H109.654C109.505 36.4548 109.383 36.3358 109.383 36.1889C109.383 36.042 109.505 35.9229 109.654 35.9229H114.962V34.6464C114.962 34.4995 115.083 34.3805 115.233 34.3805C115.383 34.3805 115.504 34.4995 115.504 34.6464V36.1889C115.504 36.3358 115.383 36.4548 115.233 36.4548Z" fill="#BDBDBD"/>
<path d="M55.4866 17.397C55.3795 17.397 55.2777 17.3337 55.2351 17.2298L55.0855 16.8639L51.641 17.1754C51.4927 17.1893 51.3598 17.0817 51.3469 16.9348C51.3327 16.7891 51.4424 16.6587 51.592 16.646L55.2377 16.3155C55.3563 16.3041 55.4698 16.3725 55.5137 16.4814L55.7381 17.0323C55.7935 17.169 55.7265 17.3235 55.5872 17.378C55.5536 17.3907 55.5201 17.397 55.4866 17.397Z" fill="#BDBDBD"/>
<path d="M72.0065 17.397C71.8995 17.397 71.7976 17.3337 71.755 17.2298L71.6054 16.8639L68.1609 17.1754C68.0139 17.1893 67.8798 17.0817 67.8669 16.9348C67.8527 16.7891 67.9623 16.6587 68.1119 16.646L71.7576 16.3155C71.8763 16.3041 71.9897 16.3725 72.0336 16.4814L72.258 17.0323C72.3134 17.169 72.2464 17.3235 72.1071 17.378C72.0736 17.3907 72.04 17.397 72.0065 17.397Z" fill="#BDBDBD"/>
<path d="M114.421 15.9242H75.206C75.0564 15.9242 74.9352 15.8052 74.9352 15.6583C74.9352 15.5114 75.0564 15.3923 75.206 15.3923H114.421C114.57 15.3923 114.691 15.5114 114.691 15.6583C114.691 15.8052 114.57 15.9242 114.421 15.9242Z" fill="#BDBDBD"/>
<path d="M114.29 20.8188C114.154 20.8188 114.038 20.7187 114.022 20.5832L113.64 17.3641C113.631 17.2932 113.653 17.221 113.7 17.1652C113.746 17.1095 113.813 17.0741 113.885 17.0677L116.477 16.8436C116.627 16.8297 116.757 16.9386 116.771 17.0855C116.784 17.2324 116.675 17.3603 116.525 17.3742L114.21 17.5743L114.529 20.2692L116.481 20.1375C116.63 20.1286 116.76 20.2375 116.77 20.3844C116.781 20.5313 116.668 20.6579 116.519 20.6681L114.308 20.8175C114.308 20.8175 114.295 20.8175 114.289 20.8175L114.29 20.8188Z" fill="#BDBDBD"/>
<path d="M114.577 23.6251C114.442 23.6251 114.326 23.5276 114.308 23.3933L114.137 22.1016C114.128 22.0294 114.148 21.956 114.195 21.899C114.241 21.842 114.311 21.8065 114.384 21.8015L116.671 21.6331C116.821 21.6229 116.949 21.7318 116.961 21.8787C116.973 22.0256 116.86 22.1523 116.711 22.1637L114.709 22.3106L114.81 23.0666L116.72 22.869C116.87 22.8538 117.002 22.9602 117.018 23.1059C117.033 23.2515 116.925 23.3832 116.777 23.3984L114.604 23.6225C114.595 23.6225 114.584 23.6238 114.575 23.6238L114.577 23.6251Z" fill="#BDBDBD"/>
<path d="M109.921 30.1077C108.62 30.1077 107.729 30.0824 107.707 30.0811C107.557 30.076 107.44 29.9545 107.444 29.8076C107.448 29.6632 107.569 29.5492 107.715 29.5492C107.717 29.5492 107.72 29.5492 107.722 29.5492C107.779 29.5505 113.404 29.7113 117.111 29.2149C117.259 29.1946 117.396 29.2972 117.416 29.4428C117.437 29.5885 117.332 29.7227 117.184 29.7417C114.908 30.0469 111.926 30.1064 109.92 30.1064L109.921 30.1077Z" fill="#BDBDBD"/>
<path d="M36.5783 13.955C36.4339 13.955 36.3139 13.8435 36.3075 13.7017C36.301 13.5548 36.4158 13.4307 36.5654 13.4243L41.2286 13.2167C41.6684 12.781 42.5428 11.7388 42.4757 10.9802C40.2705 10.2685 37.2773 12.4619 37.2463 12.4847C37.1264 12.5733 36.9574 12.5505 36.8672 12.4328C36.7769 12.315 36.8001 12.1491 36.92 12.0605C37.058 11.9579 40.3195 9.57074 42.8162 10.5357C42.8974 10.5674 42.958 10.6358 42.9799 10.7181C43.3036 11.9883 41.6052 13.6016 41.5317 13.67C41.484 13.7144 41.4221 13.7409 41.3563 13.7435L36.5899 13.9562C36.5899 13.9562 36.5822 13.9562 36.577 13.9562L36.5783 13.955Z" fill="#BDBDBD"/>
</g>
</g>
<defs>
<clipPath id="clip0_5058_2665">
<rect width="117" height="43" fill="white" transform="translate(0.642578)"/>
</clipPath>
</defs>
</svg>
