<svg width="118" height="43" viewBox="0 0 118 43" fill="none" xmlns="http://www.w3.org/2000/svg">
<g id="Car type" clip-path="url(#clip0_5058_2653)">
<g id="Vector">
<path d="M98.7671 43C94.3209 43 90.7023 39.4044 90.7023 34.9829C90.7023 30.5615 94.3193 26.9658 98.7671 26.9658C103.215 26.9658 106.832 30.5615 106.832 34.9829C106.832 39.4044 103.215 43 98.7671 43ZM98.7671 27.619C94.6823 27.619 91.3594 30.9223 91.3594 34.9829C91.3594 39.0436 94.6823 42.3469 98.7671 42.3469C102.852 42.3469 106.175 39.0436 106.175 34.9829C106.175 30.9223 102.852 27.619 98.7671 27.619Z" fill="#BDBDBD"/>
<path d="M98.7671 40.4744C95.7211 40.4744 93.243 38.0109 93.243 34.9829C93.243 31.9549 95.7211 29.4915 98.7671 29.4915C101.813 29.4915 104.291 31.9549 104.291 34.9829C104.291 38.0109 101.813 40.4744 98.7671 40.4744ZM98.7671 30.1447C96.0825 30.1447 93.9001 32.3157 93.9001 34.9829C93.9001 37.6501 96.0841 39.8212 98.7671 39.8212C101.45 39.8212 103.634 37.6501 103.634 34.9829C103.634 32.3157 101.45 30.1447 98.7671 30.1447Z" fill="#BDBDBD"/>
<path d="M98.7671 36.0031C98.2008 36.0031 97.7408 35.5459 97.7408 34.9829C97.7408 34.4199 98.2008 33.9627 98.7671 33.9627C99.3335 33.9627 99.7934 34.4199 99.7934 34.9829C99.7934 35.5459 99.3335 36.0031 98.7671 36.0031ZM98.7671 34.6159C98.5637 34.6159 98.3979 34.7808 98.3979 34.9829C98.3979 35.1851 98.5637 35.35 98.7671 35.35C98.9705 35.35 99.1363 35.1851 99.1363 34.9829C99.1363 34.7808 98.9705 34.6159 98.7671 34.6159Z" fill="#BDBDBD"/>
<path d="M94.2067 35.7792C93.9814 35.7792 93.7483 35.7528 93.5168 35.6999C93.376 35.6688 93.2727 35.549 93.2618 35.4059C93.2493 35.2489 93.2446 35.1105 93.2446 34.9829C93.2446 34.8025 93.3916 34.6563 93.5731 34.6563C93.7546 34.6563 93.9016 34.8025 93.9016 34.9829C93.9016 35.0234 93.9016 35.0638 93.9032 35.1058C94.0065 35.1198 94.1081 35.126 94.2083 35.126C95.5662 35.126 96.6692 34.028 96.6692 32.6781C96.6692 31.972 96.361 31.3002 95.8228 30.8352C95.6867 30.717 95.6711 30.5101 95.7915 30.3748C95.9104 30.238 96.1185 30.224 96.2546 30.3437C96.9367 30.9347 97.3262 31.7854 97.3262 32.6797C97.3262 34.3888 95.9276 35.7808 94.2083 35.7808L94.2067 35.7792Z" fill="#BDBDBD"/>
<path d="M102.852 35.1151C101.133 35.1151 99.734 33.7248 99.734 32.0156C99.734 31.2738 100.003 30.5552 100.493 29.9923C100.612 29.8554 100.818 29.8399 100.956 29.958C101.093 30.0762 101.109 30.2815 100.99 30.4184C100.604 30.8632 100.391 31.4308 100.391 32.0156C100.391 33.3655 101.496 34.4619 102.852 34.4619C103.187 34.4619 103.511 34.3966 103.817 34.266C103.985 34.196 104.177 34.2722 104.249 34.4386C104.319 34.605 104.243 34.7963 104.075 34.8678C103.687 35.0327 103.276 35.1151 102.853 35.1151H102.852Z" fill="#BDBDBD"/>
<path d="M96.4986 39.9565C96.4986 39.9565 96.4846 39.9565 96.4783 39.9565C96.2968 39.9456 96.1592 39.7901 96.1701 39.6112C96.2702 37.9798 97.636 36.703 99.2787 36.703C100.671 36.703 101.905 37.6346 102.279 38.9674C102.328 39.1416 102.226 39.322 102.051 39.3702C101.876 39.4184 101.694 39.3173 101.646 39.1431C101.35 38.0902 100.375 37.3562 99.2771 37.3562C97.9802 37.3562 96.9023 38.364 96.8241 39.6517C96.8131 39.8243 96.6692 39.958 96.4971 39.958L96.4986 39.9565Z" fill="#BDBDBD"/>
<path d="M17.2664 43C12.8202 43 9.20155 39.4044 9.20155 34.9829C9.20155 30.5615 12.8186 26.9658 17.2664 26.9658C21.7141 26.9658 25.3312 30.5615 25.3312 34.9829C25.3312 39.4044 21.7141 43 17.2664 43ZM17.2664 27.619C13.1816 27.619 9.85863 30.9223 9.85863 34.9829C9.85863 39.0436 13.1816 42.3469 17.2664 42.3469C21.3512 42.3469 24.6741 39.0436 24.6741 34.9829C24.6741 30.9223 21.3512 27.619 17.2664 27.619Z" fill="#BDBDBD"/>
<path d="M17.2664 40.4744C14.2204 40.4744 11.7422 38.0109 11.7422 34.9829C11.7422 31.9549 14.2204 29.4915 17.2664 29.4915C20.3124 29.4915 22.7905 31.9549 22.7905 34.9829C22.7905 38.0109 20.3124 40.4744 17.2664 40.4744ZM17.2664 30.1447C14.5817 30.1447 12.3993 32.3157 12.3993 34.9829C12.3993 37.6501 14.5833 39.8212 17.2664 39.8212C19.9494 39.8212 22.1334 37.6501 22.1334 34.9829C22.1334 32.3157 19.9494 30.1447 17.2664 30.1447Z" fill="#BDBDBD"/>
<path d="M17.2664 36.0031C16.7 36.0031 16.2401 35.5459 16.2401 34.9829C16.2401 34.4199 16.7 33.9627 17.2664 33.9627C17.8327 33.9627 18.2927 34.4199 18.2927 34.9829C18.2927 35.5459 17.8327 36.0031 17.2664 36.0031ZM17.2664 34.6159C17.063 34.6159 16.8972 34.7808 16.8972 34.9829C16.8972 35.1851 17.063 35.35 17.2664 35.35C17.4697 35.35 17.6356 35.1851 17.6356 34.9829C17.6356 34.7808 17.4697 34.6159 17.2664 34.6159Z" fill="#BDBDBD"/>
<path d="M12.706 35.7792C12.4791 35.7792 12.2476 35.7528 12.016 35.6999C11.8752 35.6688 11.772 35.549 11.761 35.4059C11.7485 35.2489 11.7438 35.1105 11.7438 34.9829C11.7438 34.8025 11.8909 34.6563 12.0723 34.6563C12.2538 34.6563 12.4009 34.8025 12.4009 34.9829C12.4009 35.0234 12.4009 35.0638 12.4024 35.1058C12.5057 35.1198 12.6074 35.126 12.7075 35.126C14.0655 35.126 15.1684 34.028 15.1684 32.6797C15.1684 31.9736 14.8602 31.3018 14.322 30.8367C14.1859 30.7185 14.1703 30.5117 14.2908 30.3764C14.4097 30.2395 14.6177 30.2255 14.7538 30.3453C15.4359 30.9363 15.8255 31.787 15.8255 32.6812C15.8255 34.3904 14.4269 35.7808 12.7075 35.7808L12.706 35.7792Z" fill="#BDBDBD"/>
<path d="M21.3512 35.1151C19.6318 35.1151 18.2332 33.7248 18.2332 32.014C18.2332 31.2722 18.5023 30.5537 18.992 29.9907C19.1109 29.8538 19.3174 29.8399 19.4551 29.9565C19.5927 30.0747 19.6068 30.28 19.4895 30.4168C19.103 30.8616 18.8903 31.4293 18.8903 32.014C18.8903 33.364 19.9948 34.4619 21.3512 34.4619C21.686 34.4619 22.0098 34.3966 22.3165 34.266C22.4839 34.196 22.6763 34.2722 22.7482 34.4386C22.8187 34.605 22.742 34.7963 22.5746 34.8678C22.1866 35.0327 21.7752 35.1151 21.3527 35.1151H21.3512Z" fill="#BDBDBD"/>
<path d="M14.9979 39.9565C14.9979 39.9565 14.9838 39.9565 14.9776 39.9565C14.7961 39.9456 14.6584 39.7901 14.6694 39.6112C14.7695 37.9798 16.1353 36.703 17.7779 36.703C19.1703 36.703 20.4047 37.6346 20.7786 38.9674C20.8271 39.1416 20.7254 39.322 20.5502 39.3702C20.375 39.4184 20.1935 39.3173 20.145 39.1431C19.8493 38.0902 18.8746 37.3562 17.7764 37.3562C16.4794 37.3562 15.4015 38.364 15.3233 39.6517C15.3124 39.8243 15.1684 39.958 14.9963 39.958L14.9979 39.9565Z" fill="#BDBDBD"/>
<path d="M0.958394 30.1431C0.820721 30.1431 0.692435 30.056 0.647066 29.9192C0.589181 29.7481 0.683049 29.563 0.85514 29.5055C0.920847 29.4837 7.44153 27.2971 9.70218 24.8165C9.7585 24.7077 9.73347 24.6688 9.72409 24.6501C9.51601 24.3049 8.0548 24.1027 6.82044 24.1322C6.81731 24.1322 6.81575 24.1322 6.81262 24.1322C6.63427 24.1322 6.48877 23.9907 6.48408 23.8134C6.47939 23.633 6.62332 23.4837 6.8048 23.479C7.49472 23.4619 9.78354 23.4744 10.2873 24.3157C10.3937 24.4946 10.4766 24.787 10.2576 25.168C10.2466 25.1882 10.2325 25.2069 10.2169 25.224C9.22189 26.3313 7.37582 27.493 4.72875 28.6781C2.77317 29.5537 1.07886 30.1198 1.06165 30.1245C1.02723 30.1353 0.991248 30.1416 0.95683 30.1416L0.958394 30.1431Z" fill="#BDBDBD"/>
<path d="M6.0695 27.8336C6.01318 27.8336 5.95686 27.8196 5.90523 27.7901C5.74878 27.6999 5.69403 27.4993 5.78477 27.3437C6.80167 25.5972 8.10956 23.731 8.12208 23.7123C8.22533 23.5646 8.43027 23.5288 8.5789 23.6315C8.72752 23.7341 8.7635 23.9378 8.66025 24.0856C8.64773 24.1042 7.35549 25.9487 6.35267 27.6703C6.29165 27.7745 6.18214 27.8336 6.06793 27.8336H6.0695Z" fill="#BDBDBD"/>
<path d="M1.93462 32.5848C1.77192 32.5848 1.63424 32.4666 1.60921 32.308L1.42304 31.1073C1.39801 30.9487 1.49344 30.7963 1.64676 30.7465C2.24908 30.5537 3.70246 30.1587 4.17963 30.6501C4.27819 30.7528 4.42368 30.9798 4.28757 31.3531C3.8417 32.5708 2.01284 32.5848 1.93462 32.5848ZM2.11766 31.2878L2.21466 31.9129C2.70746 31.8585 3.47562 31.6641 3.67117 31.1291C3.67743 31.1136 3.68056 31.0996 3.68369 31.0902C3.48657 31.0078 2.80603 31.0965 2.11766 31.2878Z" fill="#BDBDBD"/>
<path d="M8.02038 35.3095C8.00161 35.3095 7.98284 35.3095 7.96406 35.3049L0.346689 34.0063C0.16834 33.9752 0.0478761 33.8072 0.0791654 33.6299C0.110455 33.4526 0.279417 33.3329 0.457766 33.3624L8.07514 34.661C8.25349 34.6921 8.37395 34.8601 8.34266 35.0374C8.3145 35.196 8.17683 35.3095 8.01882 35.3095H8.02038Z" fill="#BDBDBD"/>
<path d="M44.3551 37.2784H35.4188C35.2374 37.2784 35.0903 37.1322 35.0903 36.9518C35.0903 36.7714 35.2374 36.6252 35.4188 36.6252H44.3551C44.5365 36.6252 44.6836 36.7714 44.6836 36.9518C44.6836 37.1322 44.5365 37.2784 44.3551 37.2784Z" fill="#BDBDBD"/>
<path d="M33.3162 37.2784H28.8481C28.6666 37.2784 28.5196 37.1322 28.5196 36.9518C28.5196 36.7714 28.6666 36.6252 28.8481 36.6252H33.3162C33.4977 36.6252 33.6447 36.7714 33.6447 36.9518C33.6447 37.1322 33.4977 37.2784 33.3162 37.2784Z" fill="#BDBDBD"/>
<path d="M38.2161 19.8834C38.1035 19.8834 37.9939 19.8259 37.9329 19.7232C37.8406 19.5677 37.8923 19.3671 38.0487 19.2753C51.9756 11.1151 56.7409 10.3313 56.938 10.3018C57.118 10.2738 57.2854 10.3982 57.312 10.5755C57.3386 10.7543 57.2165 10.9192 57.0366 10.9472C56.9897 10.9549 52.1508 11.7714 38.3835 19.8367C38.3319 19.8678 38.274 19.8818 38.2177 19.8818L38.2161 19.8834Z" fill="#BDBDBD"/>
<path d="M48.9014 19.3282C48.7606 19.3282 48.637 19.2395 48.5901 19.1073C48.5431 18.9736 48.5901 18.8259 48.7027 18.7403L49.9371 17.8134C50.081 17.7045 50.2875 17.7325 50.397 17.8772C50.5065 18.0218 50.4784 18.2255 50.3329 18.3344L49.9042 18.6563C54.8385 18.5599 76.752 18.0498 91.289 16.322C84.8231 12.8165 77.3105 10.1431 57.1446 11.4339C56.9646 11.4433 56.8066 11.3095 56.7957 11.1291C56.7847 10.9487 56.9208 10.7932 57.1023 10.7823C78.3712 9.41995 85.7132 12.4479 92.4921 16.2395C92.6156 16.308 92.6814 16.4479 92.6532 16.5864C92.6266 16.7248 92.5124 16.8305 92.3716 16.8476C76.0261 18.9052 49.172 19.3235 48.903 19.3266H48.8983L48.9014 19.3282Z" fill="#BDBDBD"/>
<path d="M73.5042 39.3002C69.1502 39.3002 63.9766 39.2986 58.0332 39.294C42.146 39.2831 26.0649 39.2598 25.9038 39.2598C25.7911 39.2598 25.6863 39.2022 25.6269 39.1089C25.5674 39.014 25.5596 38.8958 25.6065 38.7948C26.2448 37.4402 26.5327 35.9269 26.4404 34.4215C26.3043 32.21 25.3437 30.1291 23.7354 28.5615C22.1272 26.9938 20.0151 26.0794 17.7889 25.9876C15.2858 25.8834 12.9172 26.7714 11.1196 28.4853C9.32828 30.1929 8.3411 32.4946 8.3411 34.9643C8.3411 36.3313 8.64148 37.6734 9.18747 38.745C9.2391 38.8461 9.23441 38.9674 9.17496 39.0638C9.11551 39.1602 9.00913 39.2193 8.89492 39.2193H7.36487C7.35079 39.2193 7.33671 39.2193 7.32107 39.2162C7.10674 39.1882 2.04883 38.4915 0.729982 35.9441C-0.570087 33.4308 0.855139 28.6392 0.916154 28.4355C0.917718 28.4293 0.919282 28.4246 0.922411 28.4184C0.99907 28.2069 2.91554 23.2349 12.8217 21.7683C22.5496 20.3282 35.7396 19.5133 35.8725 19.5055C35.9398 19.4993 43.3648 18.8523 45.7944 17.7792C48.2396 16.6983 56.4937 10.4293 56.5767 10.3655C56.6361 10.3204 56.7096 10.2971 56.7832 10.2986C56.8238 10.266 56.8739 10.2442 56.9302 10.2349C57.1086 10.2038 74.8684 7.21466 89.5383 10.6548C89.5587 10.6594 89.5775 10.6657 89.5962 10.6734C96.3219 13.6315 98.3635 14.7932 98.6592 14.9674C99.1238 15.1089 104.05 16.5521 110.219 16.5195C110.247 16.5179 110.277 16.5164 110.305 16.5164C112.308 16.5164 113.947 21.2115 115.876 27.3344C116.299 28.6734 116.696 29.9378 117.046 30.9005C117.067 30.9549 117.071 31.014 117.06 31.0716C116.369 34.7652 115.261 35.3748 114.908 35.4759L109.186 38.6859C109.165 38.6983 109.143 38.7077 109.119 38.7139L107.337 39.2458C107.214 39.2831 107.079 39.2442 106.995 39.1462C106.91 39.0482 106.891 38.9114 106.946 38.7948C107.591 37.4246 107.872 35.958 107.78 34.4355C107.647 32.2255 106.691 30.1431 105.086 28.5739C103.481 27.0047 101.372 26.0856 99.1473 25.9892C96.6473 25.8803 94.2787 26.7636 92.4764 28.479C90.6741 30.1944 89.6807 32.5055 89.6807 34.986C89.6807 36.3157 89.967 37.5972 90.5318 38.7963C90.5897 38.9207 90.5646 39.0685 90.4661 39.1664C90.3972 39.2349 90.075 39.2717 89.4992 39.2769C89.0236 39.2815 88.3274 39.2846 87.4451 39.2878C85.7711 39.294 83.3149 39.2986 80.1453 39.3002C78.2069 39.3002 75.9901 39.3017 73.5073 39.3017L73.5042 39.3002ZM26.4075 38.6066C47.2462 38.6361 85.1047 38.6734 89.7355 38.619C89.2614 37.4635 89.0221 36.2427 89.0221 34.9829C89.0221 32.3235 90.0875 29.8445 92.0211 28.0047C93.9533 26.1664 96.4955 25.2193 99.1754 25.3344C101.563 25.4386 103.827 26.4231 105.548 28.1058C107.268 29.7885 108.295 32.0234 108.437 34.3951C108.52 35.7668 108.307 37.1447 107.819 38.4199L108.897 38.098L114.626 34.8834C114.668 34.8585 114.682 34.8476 114.728 34.8461C114.829 34.8056 115.767 34.3484 116.4 31.0389C116.053 30.0747 115.663 28.8383 115.252 27.5304C114.509 25.1727 113.667 22.4993 112.771 20.4402C111.566 17.6719 110.74 17.1338 110.26 17.1711C110.252 17.1711 110.244 17.1711 110.236 17.1711C103.659 17.21 98.4777 15.5941 98.4261 15.577C98.401 15.5692 98.376 15.5584 98.3541 15.5444C98.3353 15.5335 96.4611 14.4044 89.3616 11.2815C75.6928 8.08558 59.3035 10.5164 57.2572 10.8414L57.3526 11.0311C57.4168 11.1587 57.3902 11.3126 57.2869 11.4122L52.7421 15.7714C52.6107 15.8974 52.4042 15.8927 52.2775 15.7636C52.1508 15.6346 52.1555 15.4277 52.2853 15.3018L56.5688 11.1929C54.8417 12.4962 48.2866 17.392 46.0635 18.3748C43.5337 19.493 36.2324 20.1291 35.9226 20.1556C35.7834 20.1633 22.62 20.9783 12.9203 22.4137C7.95468 23.1493 5.12456 24.8072 3.62268 26.0685C2.07229 27.3717 1.58574 28.5304 1.54507 28.6346C1.46997 28.8881 0.165211 33.4184 1.31666 35.6455C2.43994 37.815 7.04259 38.5164 7.38991 38.5661H8.38334C7.93121 37.4962 7.68559 36.238 7.68559 34.9643C7.68559 32.3157 8.74473 29.8476 10.6659 28.014C12.5933 26.1758 15.1324 25.2255 17.8171 25.3344C20.206 25.4339 22.4713 26.4137 24.1969 28.0949C25.921 29.7761 26.952 32.0094 27.0975 34.3811C27.1866 35.8259 26.9488 37.2769 26.4075 38.6066Z" fill="#BDBDBD"/>
<path d="M74.4162 18.0871C74.4006 18.0871 74.3834 18.0871 74.3677 18.084C74.1878 18.0576 74.0642 17.8912 74.0908 17.7123L75.067 11.2007C75.0936 11.0218 75.261 10.899 75.441 10.9254C75.6209 10.9518 75.7445 11.1182 75.7179 11.2971L74.7416 17.8087C74.7182 17.9705 74.5774 18.0871 74.4178 18.0871H74.4162Z" fill="#BDBDBD"/>
<path d="M76.2279 18.0871C76.2279 18.0871 76.2185 18.0871 76.2138 18.0871C76.0323 18.0794 75.8915 17.9269 75.8993 17.7465L76.1778 11.2349C76.1856 11.0545 76.3405 10.9176 76.5204 10.9223C76.7019 10.9301 76.8427 11.0825 76.8349 11.2629L76.5564 17.7745C76.5486 17.9503 76.4031 18.0871 76.2279 18.0871Z" fill="#BDBDBD"/>
<path d="M72.1853 37.1478H50.3016C50.2593 37.1478 50.2171 37.14 50.178 37.1229L44.463 34.8072C44.3566 34.7636 44.28 34.6688 44.2628 34.5553C44.2002 34.154 42.7249 24.6983 42.8657 22.8803C42.8766 22.7341 42.9846 22.6143 43.1285 22.5848C45.1013 22.1929 48.6448 18.8352 48.6808 18.801C48.8122 18.6766 49.0203 18.6812 49.1455 18.8103C49.2706 18.9409 49.2659 19.1478 49.1361 19.2722C48.9906 19.4106 45.6864 22.5413 43.5134 23.1633C43.5009 25.2209 44.6852 32.9798 44.8838 34.2722L50.3673 36.4946H71.8943C72.1196 34.5739 73.3978 24.1416 75.0577 19.8694C74.9262 18.6703 74.9247 18.0327 74.9247 18.0063C74.9247 17.8259 75.0717 17.6797 75.2532 17.6797C75.4347 17.6797 75.5818 17.8259 75.5818 18.0063C75.5818 18.0125 75.5833 18.6672 75.7194 19.8772C75.7257 19.9301 75.7194 19.9829 75.6991 20.0327C73.9234 24.5133 72.5279 36.7357 72.5138 36.8585C72.4951 37.0234 72.3543 37.1493 72.1869 37.1493L72.1853 37.1478Z" fill="#BDBDBD"/>
<path d="M105.313 16.8399C105.258 16.8399 105.203 16.8259 105.152 16.7979C97.8519 12.717 89.4992 11.3064 89.4148 11.2924C89.2364 11.2629 89.1144 11.0949 89.1441 10.9161C89.1738 10.7388 89.3428 10.6175 89.5211 10.647C89.6056 10.661 98.0741 12.0902 105.472 16.2271C105.63 16.3157 105.687 16.5148 105.598 16.6719C105.537 16.7792 105.425 16.8383 105.311 16.8383L105.313 16.8399Z" fill="#BDBDBD"/>
<path d="M111.668 23.2395C111.04 23.2395 110.407 22.4106 110.064 21.4868C109.872 20.9674 109.776 20.4433 109.795 20.0094C109.828 19.2924 110.158 19.0669 110.35 18.9954C111.051 18.7388 111.81 19.661 112.198 20.7046C112.39 21.224 112.486 21.7481 112.467 22.182C112.434 22.899 112.104 23.1245 111.91 23.196C111.83 23.2255 111.749 23.2395 111.668 23.2395ZM110.599 19.605C110.599 19.605 110.585 19.605 110.579 19.6081C110.557 19.6159 110.466 19.7185 110.452 20.0389C110.436 20.3826 110.519 20.829 110.681 21.2613C111.043 22.2364 111.569 22.6268 111.683 22.5832C111.705 22.5755 111.796 22.4744 111.81 22.1525C111.826 21.8087 111.743 21.3624 111.582 20.9301C111.237 20.0016 110.745 19.605 110.598 19.605H110.599Z" fill="#BDBDBD"/>
<path d="M108.287 35.3391C108.141 35.3391 108.008 35.2411 107.969 35.0949C107.924 34.9207 108.029 34.7419 108.204 34.6968C113.166 33.4122 116.505 30.7839 116.538 30.7574C116.68 30.6439 116.887 30.6672 116.999 30.8088C117.114 30.9487 117.09 31.1556 116.948 31.2675C116.809 31.3795 113.465 34.0109 108.368 35.3297C108.34 35.3375 108.312 35.3406 108.285 35.3406L108.287 35.3391Z" fill="#BDBDBD"/>
<path d="M113.808 37.9316H110.457C110.275 37.9316 110.128 37.7854 110.128 37.605C110.128 37.4246 110.275 37.2784 110.457 37.2784H113.479V35.5801C113.479 35.3997 113.626 35.2535 113.808 35.2535C113.989 35.2535 114.136 35.3997 114.136 35.5801V37.605C114.136 37.7854 113.989 37.9316 113.808 37.9316Z" fill="#BDBDBD"/>
<path d="M87.1838 37.1478H80.89C80.7085 37.1478 80.5614 37.0016 80.5614 36.8212C80.5614 36.6408 80.7085 36.4946 80.89 36.4946H86.763C85.4316 30.9347 87.8127 27.2598 90.0797 25.1416C91.2624 24.0358 92.4764 23.2909 93.2884 22.8601C93.5387 22.7279 94.8028 22.07 95.1125 22.1711C95.2846 22.2287 95.3769 22.4137 95.3206 22.5848C95.2768 22.7185 95.1532 22.8041 95.0202 22.8087C94.5712 22.9129 90.7868 24.4853 88.6138 27.9098C86.9914 30.465 86.6191 33.4371 87.5045 36.7388C87.5311 36.8367 87.5092 36.9409 87.4482 37.0218C87.3856 37.1027 87.2902 37.1493 87.187 37.1493L87.1838 37.1478Z" fill="#BDBDBD"/>
<path d="M86.6707 35.0576H82.7282C82.5468 35.0576 82.3997 34.9114 82.3997 34.731C82.3997 34.5506 82.5468 34.4044 82.7282 34.4044H86.6707C86.8522 34.4044 86.9992 34.5506 86.9992 34.731C86.9992 34.9114 86.8522 35.0576 86.6707 35.0576Z" fill="#BDBDBD"/>
<path d="M86.6707 33.098H84.0424C83.8609 33.098 83.7139 32.9518 83.7139 32.7714C83.7139 32.591 83.8609 32.4448 84.0424 32.4448H86.6707C86.8522 32.4448 86.9992 32.591 86.9992 32.7714C86.9992 32.9518 86.8522 33.098 86.6707 33.098Z" fill="#BDBDBD"/>
<path d="M86.6707 31.0078H85.4879C85.3065 31.0078 85.1594 30.8616 85.1594 30.6812C85.1594 30.5008 85.3065 30.3546 85.4879 30.3546H86.6707C86.8522 30.3546 86.9992 30.5008 86.9992 30.6812C86.9992 30.8616 86.8522 31.0078 86.6707 31.0078Z" fill="#BDBDBD"/>
<path d="M71.1856 22.0607C71.0558 22.0607 70.9322 21.9829 70.8805 21.8554L70.6928 21.3888L66.4062 21.7823C66.2247 21.7994 66.0651 21.6672 66.0495 21.4868C66.0323 21.3064 66.1653 21.1478 66.3467 21.1322L70.8774 20.717C71.0229 20.7045 71.159 20.787 71.2122 20.9207L71.4907 21.6128C71.558 21.7808 71.4766 21.9705 71.3076 22.0374C71.267 22.0529 71.2263 22.0607 71.1856 22.0607Z" fill="#BDBDBD"/>
<path d="M68.7873 18.5039C68.7185 18.5039 68.6496 18.4822 68.5902 18.4386C68.5354 18.3982 68.2663 18.1649 68.2961 17.5599C68.3305 16.8896 68.7153 15.9814 69.4397 14.8601C70.369 13.4231 71.4547 13.2022 72.201 13.2706C73.1255 13.3546 73.8702 14.0887 73.9704 15.0156C74.2394 17.479 73.9876 17.9176 73.9047 18.0622C73.8139 18.2193 73.6137 18.2738 73.4557 18.1836C73.2976 18.0934 73.2429 17.8943 73.3336 17.7372C73.3712 17.6703 73.5511 17.2302 73.3164 15.0856C73.2491 14.4666 72.7548 13.9767 72.1399 13.9207C71.3186 13.8461 70.5943 14.28 69.9919 15.2115C68.6574 17.2753 68.9797 17.8896 69.0079 17.9347C69.1315 18.0467 69.1518 18.2364 69.0501 18.3717C68.986 18.4573 68.8874 18.5024 68.7873 18.5024V18.5039Z" fill="#BDBDBD"/>
<path d="M84.7761 17.4868C84.5993 17.4868 84.4538 17.3484 84.4476 17.1711C84.3506 14.3655 85.5364 13.3484 85.5881 13.3064C85.7273 13.1913 85.9354 13.21 86.0511 13.3484C86.1669 13.4868 86.1481 13.6906 86.012 13.8056C85.9917 13.8243 85.0202 14.7061 85.1062 17.1478C85.1125 17.3282 84.9701 17.479 84.7886 17.4853C84.7855 17.4853 84.7808 17.4853 84.7777 17.4853L84.7761 17.4868Z" fill="#BDBDBD"/>
<path d="M47.933 19.3577C47.8031 19.3577 47.6811 19.2815 47.6295 19.1556C47.5606 18.9892 47.6404 18.7979 47.8078 18.7294L50.2531 17.731C50.3157 17.7061 50.3845 17.6999 50.4502 17.7139C50.8116 17.7948 51.8348 17.9954 52.2572 17.9892C53.1427 17.8943 53.7137 17.6268 53.8639 17.2364C53.9562 16.9954 53.8639 16.7574 53.7731 16.6439C53.1739 16.1696 52.5982 15.9736 52.06 16.0622C51.2262 16.1991 50.7224 16.9798 50.7177 16.9876C50.6864 17.0358 50.6442 17.0762 50.5941 17.1027L47.825 18.5646C47.6655 18.6486 47.4652 18.5879 47.3807 18.4293C47.2963 18.2706 47.3573 18.0716 47.5168 17.9876L50.214 16.563C50.3892 16.3173 50.9884 15.5786 51.9458 15.4184C52.6858 15.294 53.4477 15.5413 54.2096 16.154C54.2237 16.1649 54.2362 16.1773 54.2472 16.1898C54.499 16.4697 54.6696 16.9736 54.4771 17.4697C54.3035 17.9176 53.7888 18.4837 52.3135 18.6392C52.3057 18.6392 52.2978 18.6392 52.29 18.6408C51.791 18.6548 50.7553 18.4464 50.4095 18.3733L48.0597 19.3344C48.019 19.3515 47.9768 19.3593 47.9346 19.3593L47.933 19.3577Z" fill="#BDBDBD"/>
<path d="M92.0587 39.238H90.2189C90.0374 39.238 89.8904 39.0918 89.8904 38.9114C89.8904 38.731 90.0374 38.5848 90.2189 38.5848H92.0587C92.2402 38.5848 92.3872 38.731 92.3872 38.9114C92.3872 39.0918 92.2402 39.238 92.0587 39.238Z" fill="#BDBDBD"/>
<path d="M107.171 39.238H105.594C105.413 39.238 105.266 39.0918 105.266 38.9114C105.266 38.731 105.413 38.5848 105.594 38.5848H107.171C107.353 38.5848 107.5 38.731 107.5 38.9114C107.5 39.0918 107.353 39.238 107.171 39.238Z" fill="#BDBDBD"/>
<path d="M10.3186 39.1073H8.87302C8.69154 39.1073 8.54448 38.9612 8.54448 38.7808C8.54448 38.6003 8.69154 38.4542 8.87302 38.4542H10.3186C10.5001 38.4542 10.6471 38.6003 10.6471 38.7808C10.6471 38.9612 10.5001 39.1073 10.3186 39.1073Z" fill="#BDBDBD"/>
<path d="M25.8256 39.238H24.1172C23.9357 39.238 23.7886 39.0918 23.7886 38.9114C23.7886 38.731 23.9357 38.5848 24.1172 38.5848H25.8256C26.007 38.5848 26.1541 38.731 26.1541 38.9114C26.1541 39.0918 26.007 39.238 25.8256 39.238Z" fill="#BDBDBD"/>
</g>
</g>
<defs>
<clipPath id="clip0_5058_2653">
<rect width="117" height="43" fill="white" transform="translate(0.0722656)"/>
</clipPath>
</defs>
</svg>
