<svg width="118" height="43" viewBox="0 0 118 43" fill="none" xmlns="http://www.w3.org/2000/svg">
<g id="Car type" clip-path="url(#clip0_5058_2657)">
<g id="Vector">
<path d="M19.5812 43.0004C14.7968 43.0004 10.9029 39.1769 10.9029 34.4753C10.9029 29.7737 14.7951 25.9502 19.5812 25.9502C24.3673 25.9502 28.2595 29.7737 28.2595 34.4753C28.2595 39.1769 24.3673 43.0004 19.5812 43.0004ZM19.5812 26.6464C15.1856 26.6464 11.6099 30.159 11.6099 34.4769C11.6099 38.7949 15.1856 42.3075 19.5812 42.3075C23.9768 42.3075 27.5525 38.7949 27.5525 34.4769C27.5525 30.159 23.9768 26.6464 19.5812 26.6464Z" fill="#BDBDBD"/>
<path d="M19.5812 35.7189C18.8842 35.7189 18.3169 35.1616 18.3169 34.4769C18.3169 33.7923 18.8842 33.235 19.5812 33.235C20.2782 33.235 20.8455 33.7923 20.8455 34.4769C20.8455 35.1616 20.2782 35.7189 19.5812 35.7189ZM19.5812 33.9279C19.2731 33.9279 19.024 34.1743 19.024 34.4753C19.024 34.7763 19.2748 35.0227 19.5812 35.0227C19.8876 35.0227 20.1384 34.7763 20.1384 34.4753C20.1384 34.1743 19.8876 33.9279 19.5812 33.9279Z" fill="#BDBDBD"/>
<path d="M97.9303 43.0004C93.1458 43.0004 89.2519 39.1769 89.2519 34.4753C89.2519 29.7737 93.1441 25.9502 97.9303 25.9502C102.716 25.9502 106.609 29.7737 106.609 34.4753C106.609 39.1769 102.716 43.0004 97.9303 43.0004ZM97.9303 26.6464C93.5347 26.6464 89.959 30.159 89.959 34.4769C89.959 38.7949 93.5347 42.3075 97.9303 42.3075C102.326 42.3075 105.902 38.7949 105.902 34.4769C105.902 30.159 102.326 26.6464 97.9303 26.6464Z" fill="#BDBDBD"/>
<path d="M97.9303 40.3163C94.6525 40.3163 91.9859 37.6968 91.9859 34.4769C91.9859 31.2571 94.6525 28.6375 97.9303 28.6375C101.208 28.6375 103.875 31.2571 103.875 34.4769C103.875 37.6968 101.208 40.3163 97.9303 40.3163ZM97.9303 29.3305C95.0414 29.3305 92.693 31.6391 92.693 34.4753C92.693 37.3115 95.0431 39.6201 97.9303 39.6201C100.817 39.6201 103.168 37.3115 103.168 34.4753C103.168 31.6391 100.817 29.3305 97.9303 29.3305Z" fill="#BDBDBD"/>
<path d="M19.6368 40.3163C16.359 40.3163 13.6924 37.6968 13.6924 34.4769C13.6924 31.2571 16.359 28.6375 19.6368 28.6375C22.9145 28.6375 25.5811 31.2571 25.5811 34.4769C25.5811 37.6968 22.9145 40.3163 19.6368 40.3163ZM19.6368 29.3305C16.7479 29.3305 14.3995 31.6391 14.3995 34.4753C14.3995 37.3115 16.7496 39.6201 19.6368 39.6201C22.5239 39.6201 24.8741 37.3115 24.8741 34.4753C24.8741 31.6391 22.5239 29.3305 19.6368 29.3305Z" fill="#BDBDBD"/>
<path d="M97.9303 35.7189C97.2333 35.7189 96.666 35.1616 96.666 34.4769C96.666 33.7923 97.2333 33.235 97.9303 33.235C98.6272 33.235 99.1945 33.7923 99.1945 34.4769C99.1945 35.1616 98.6272 35.7189 97.9303 35.7189ZM97.9303 33.9279C97.6222 33.9279 97.373 34.1743 97.373 34.4753C97.373 34.7763 97.6239 35.0227 97.9303 35.0227C98.2366 35.0227 98.4875 34.7763 98.4875 34.4753C98.4875 34.1743 98.2366 33.9279 97.9303 33.9279Z" fill="#BDBDBD"/>
<path d="M88.0011 39.0694C87.6122 39.0694 87.06 39.0562 86.2688 39.0231H28.7326C28.6114 39.0231 28.4986 38.9619 28.4346 38.8627C28.369 38.7618 28.3622 38.6361 28.4127 38.5286C29.0205 37.2536 29.3285 35.8893 29.3285 34.4769C29.3285 29.1965 24.9566 24.9017 19.5812 24.9017C14.2059 24.9017 9.83387 29.1965 9.83387 34.4769C9.83387 35.8909 10.1419 37.2536 10.7497 38.5286C10.8002 38.6361 10.7935 38.7618 10.7278 38.8627C10.6621 38.9636 10.551 39.0231 10.4298 39.0231H8.78338C8.76655 39.0231 8.7514 39.0231 8.73625 39.0198C8.50561 38.9884 3.06293 38.2277 1.64544 35.5188C0.246468 32.8463 1.78012 27.7412 1.84577 27.5246C1.84746 27.518 1.84914 27.513 1.85251 27.5064C1.935 27.2815 3.99726 21.9895 14.657 20.43C25.1249 18.8986 39.3183 18.0287 39.4614 18.0205C39.5338 18.0138 47.5236 17.3259 50.1397 16.1831C52.7642 15.0354 61.7691 8.14426 61.8601 8.07315C61.9678 7.99046 62.1143 7.97723 62.2355 8.03676L62.8348 8.33113C62.9375 8.38074 63.0082 8.47666 63.0267 8.58746C63.0435 8.69826 63.0065 8.81072 62.924 8.8901L54.3265 17.1522C58.5655 17.2184 77.5635 17.2812 82.1409 13.294C82.1948 13.2461 82.2621 13.2163 82.3345 13.2097C89.5836 12.3878 104.107 11.5262 112.555 13.5123C112.608 13.5256 112.659 13.5504 112.703 13.5868L114.802 15.3546C114.871 15.4125 114.915 15.4952 114.923 15.5845C114.933 15.6837 115.938 25.6128 117.603 30.1358C117.625 30.1937 117.63 30.2566 117.619 30.3178C116.874 34.2454 115.683 34.8937 115.302 35.0012L109.146 38.4145C109.122 38.4278 109.098 38.4377 109.073 38.4443L107.156 39.0099C107.023 39.0496 106.878 39.0082 106.787 38.904C106.696 38.7999 106.676 38.6543 106.735 38.5303C107.343 37.2552 107.651 35.8909 107.651 34.4786C107.651 29.1982 103.279 24.9034 97.9033 24.9034C92.528 24.9034 88.156 29.1982 88.156 34.4786C88.156 35.8926 88.4641 37.2552 89.0718 38.5303C89.1341 38.6626 89.1071 38.8197 89.0011 38.9222C88.9186 39.0033 88.8496 39.0694 87.9994 39.0694H88.0011ZM29.273 38.3285H86.2755C86.2755 38.3285 86.2856 38.3285 86.2907 38.3285C86.9775 38.3566 87.7587 38.3748 88.2301 38.3715C87.7115 37.1345 87.4506 35.8264 87.4506 34.4769C87.4506 28.8145 92.1408 24.2071 97.905 24.2071C103.669 24.2071 108.359 28.8145 108.359 34.4769C108.359 35.7404 108.13 36.9658 107.676 38.1317L108.834 37.7911L114.999 34.3728C115.044 34.348 115.06 34.3347 115.108 34.3331C115.218 34.2901 116.226 33.8039 116.908 30.2847C115.321 25.889 114.366 17.0596 114.236 15.7929L112.309 14.1705C103.986 12.2423 89.7401 13.0807 82.5247 13.8894C77.0282 18.4653 54.4309 17.8617 53.4679 17.8336C53.3265 17.8286 53.2003 17.7426 53.1497 17.612C53.0976 17.483 53.1312 17.3342 53.2322 17.2366L61.8062 8.99759C59.8584 10.476 52.7996 15.7829 50.4225 16.8198C47.7003 18.0089 39.8435 18.6869 39.5102 18.715C39.3604 18.725 25.1956 19.5915 14.758 21.1196C11.8086 21.5512 7.67902 22.5765 4.75314 25.0076C3.08481 26.3951 2.56125 27.6271 2.51748 27.7379C2.43667 28.0075 1.03265 32.8364 2.27169 35.2029C3.48043 37.5132 8.42817 38.274 8.80695 38.3302H9.88774C9.38102 37.1064 9.12513 35.8132 9.12513 34.4786C9.12513 28.8162 13.8153 24.2088 19.5795 24.2088C25.3438 24.2088 30.0339 28.8162 30.0339 34.4786C30.0339 35.8132 29.778 37.1064 29.2713 38.3302L29.273 38.3285Z" fill="#BDBDBD"/>
<path d="M41.9799 18.419C41.8587 18.419 41.7408 18.3578 41.6752 18.2487C41.5758 18.0833 41.6314 17.87 41.7997 17.7724C56.7776 9.10012 61.8011 8.04834 62.0082 8.007C62.2001 7.96896 62.3853 8.09134 62.424 8.27986C62.4627 8.46839 62.3382 8.6503 62.1463 8.68834C62.084 8.70157 56.9679 9.79635 42.1566 18.3711C42.1011 18.4041 42.0388 18.419 41.9782 18.419H41.9799Z" fill="#BDBDBD"/>
<path d="M2.69593 27.4799C2.51411 27.4799 2.35923 27.3427 2.34408 27.1607C2.32725 26.9689 2.47203 26.8019 2.66731 26.7853C2.7296 26.7804 8.89449 26.2528 11.2901 23.6647C11.3507 23.549 11.3237 23.5076 11.3136 23.4878C11.0897 23.1206 9.51738 22.9056 8.18912 22.9371C7.99046 22.942 7.83222 22.7899 7.82717 22.598C7.82212 22.4062 7.977 22.2475 8.17228 22.2425C8.91469 22.226 11.3776 22.2375 11.9197 23.1322C12.0342 23.3224 12.1234 23.6333 11.8877 24.0385C11.8759 24.06 11.8608 24.0798 11.8439 24.098C10.7598 25.292 8.88944 26.2231 6.28679 26.868C4.37099 27.3427 2.7902 27.4733 2.72455 27.4783C2.71445 27.4783 2.70435 27.4783 2.69593 27.4783V27.4799Z" fill="#BDBDBD"/>
<path d="M6.98038 26.3769C6.91977 26.3769 6.85917 26.362 6.80361 26.3306C6.63527 26.2346 6.57634 26.0213 6.67399 25.8559C7.79181 23.9574 9.57798 22.4856 9.65374 22.4227C9.80357 22.3004 10.0258 22.3202 10.1521 22.4674C10.2766 22.6146 10.2564 22.8329 10.1066 22.9569C10.0898 22.9718 8.34063 24.4155 7.28677 26.2032C7.22112 26.314 7.10327 26.3769 6.98038 26.3769Z" fill="#BDBDBD"/>
<path d="M6.0814 30.0102C5.90632 30.0102 5.75817 29.8845 5.73124 29.7158L5.5309 28.4391C5.50397 28.2704 5.60666 28.1083 5.77164 28.0554C6.41978 27.8504 7.98541 27.4303 8.49719 27.9529C8.60325 28.062 8.75981 28.3035 8.61335 28.7004C8.13356 29.9953 6.16558 30.0102 6.0814 30.0102ZM6.27837 28.6326L6.38274 29.2974C6.91304 29.2395 7.73963 29.0328 7.95006 28.4639C7.95679 28.4474 7.96016 28.4325 7.96353 28.4226C7.75141 28.3349 7.01741 28.4292 6.27837 28.6326Z" fill="#BDBDBD"/>
<path d="M84.5264 37.1081H54.2777C54.1666 37.1081 54.0639 37.0568 53.9965 36.9708L49.8215 31.5928C49.7744 31.5316 49.7491 31.4588 49.7491 31.3828V19.1533C49.7491 19.0243 49.8215 18.9052 49.9377 18.8457C50.441 18.586 52.9713 17.2862 53.3905 17.1837C53.579 17.1374 53.7693 17.2498 53.8181 17.435C53.8652 17.6203 53.7507 17.8088 53.5622 17.8567C53.34 17.913 51.8434 18.6505 50.4545 19.3633V31.2654L54.4511 36.4135H84.1173C83.9153 34.8011 83.4237 28.8112 86.5668 24.5181C88.2503 22.216 87.9001 19.0028 85.7503 17.0431C83.848 15.31 82.1561 13.8282 82.1392 13.8133C81.9928 13.686 81.981 13.466 82.1106 13.3238C82.2402 13.1799 82.4641 13.1684 82.6089 13.2957C82.6258 13.3106 84.3227 14.7956 86.2301 16.5354C88.6408 18.7332 89.0331 22.3401 87.1408 24.9249C83.7267 29.5901 84.8614 36.6351 84.8732 36.7062C84.89 36.8071 84.8614 36.9096 84.7941 36.9873C84.7267 37.0651 84.6291 37.1097 84.5247 37.1097L84.5264 37.1081Z" fill="#BDBDBD"/>
<path d="M32.8857 33.5492C32.714 33.5492 32.5625 33.4252 32.5372 33.2532C32.3066 31.7416 31.8992 30.3029 31.2595 28.7269C28.9817 24.4089 24.0205 21.8489 18.9078 22.3583C18.7125 22.3781 18.5408 22.2392 18.5206 22.0473C18.5004 21.8572 18.6418 21.6868 18.8371 21.667C24.2428 21.1295 29.4902 23.845 31.8958 28.4226C31.9009 28.4325 31.9059 28.4424 31.9093 28.4523C32.5743 30.0862 32.9968 31.5779 33.2359 33.149C33.2645 33.3392 33.1315 33.5161 32.9396 33.5442C32.9211 33.5475 32.9042 33.5475 32.8874 33.5475L32.8857 33.5492Z" fill="#BDBDBD"/>
<path d="M59.6783 28.4391C59.4897 28.4391 59.3332 28.2919 59.3247 28.105C59.3163 27.9132 59.4678 27.7511 59.6631 27.7445C75.7605 27.1045 80.3884 25.2242 84.8648 23.4067C87.2839 22.4244 89.5684 21.4966 93.5111 20.7756C96.7973 20.1753 101.546 20.0066 105.509 22.608C107.896 24.1757 108.851 25.9899 108.89 26.0676C108.977 26.238 108.908 26.448 108.735 26.534C108.561 26.62 108.348 26.5522 108.26 26.3818C108.24 26.3438 107.317 24.6206 105.083 23.1636C101.324 20.7144 96.7855 20.8831 93.6407 21.4586C89.7704 22.1648 87.5196 23.0793 85.1358 24.0484C80.6022 25.889 75.9154 27.7941 59.6934 28.4391C59.6884 28.4391 59.6833 28.4391 59.6783 28.4391Z" fill="#BDBDBD"/>
<path d="M67.1479 30.1292C66.9644 30.1292 66.8078 29.9887 66.796 29.8068C66.7826 29.6149 66.929 29.4495 67.1243 29.4363C71.5636 29.1337 76.274 28.7103 80.7605 27.1756C80.9456 27.1128 81.146 27.2087 81.21 27.389C81.2739 27.5709 81.1763 27.7677 80.9928 27.8305C76.4238 29.3933 71.6596 29.8233 67.1731 30.1292C67.1647 30.1292 67.1563 30.1292 67.1479 30.1292Z" fill="#BDBDBD"/>
<path d="M76.0349 20.9956C75.9895 20.9956 75.9457 20.9956 75.9019 20.9939C75.1511 20.9724 74.7151 20.7624 74.609 20.3737C74.5013 19.9851 74.7706 19.5882 75.4087 19.1979C75.9137 18.8887 76.6124 18.6059 77.3783 18.4025C78.1443 18.1991 78.8935 18.0965 79.4877 18.1147C80.2386 18.1362 80.6746 18.3463 80.7807 18.7349C81.0298 19.6428 79.1578 20.4002 78.0113 20.7045C77.3026 20.893 76.6073 20.9939 76.0349 20.9939V20.9956ZM75.306 20.1885C75.4996 20.3109 76.3834 20.4184 77.8278 20.0347C79.2723 19.6511 79.9793 19.1202 80.0854 18.9201C79.8918 18.7977 79.008 18.6902 77.5635 19.0739C76.1191 19.4576 75.4121 19.9884 75.3077 20.1885H75.306Z" fill="#BDBDBD"/>
<path d="M72.6764 16.848C72.6276 16.848 72.5771 16.838 72.5299 16.8165C72.3515 16.7372 72.2741 16.5304 72.3549 16.3568C72.6276 15.7697 75.0956 10.6365 77.6023 11.1723C78.2201 11.3046 78.6679 11.6238 78.9339 12.1215C79.6123 13.3933 78.7908 15.3893 78.7538 15.4737C78.6797 15.6506 78.4726 15.735 78.2925 15.6622C78.1124 15.5894 78.0265 15.386 78.1006 15.2091C78.306 14.7163 78.7437 13.2593 78.3076 12.4424C78.141 12.1315 77.8615 11.9363 77.4524 11.8503C76.6747 11.6833 75.6393 12.4523 74.535 14.0134C73.6377 15.2818 73.0047 16.633 72.9979 16.6462C72.939 16.7735 72.8111 16.8496 72.6764 16.8496V16.848Z" fill="#BDBDBD"/>
<path d="M111.174 22.8395C111.024 22.8395 110.891 22.7469 110.841 22.608L110.236 20.9244C109.839 19.8214 110.395 18.6125 111.499 18.1726L114.541 16.9637C114.723 16.8926 114.928 16.9769 115.001 17.1555C115.073 17.3342 114.987 17.5359 114.805 17.607L111.763 18.8159C111.009 19.1152 110.632 19.9388 110.901 20.6913L111.42 22.135C113.332 22.0573 114.837 21.6934 114.937 21.3991C114.999 21.2172 115.199 21.1196 115.385 21.1791C115.57 21.2403 115.669 21.4371 115.608 21.619C115.267 22.6262 112.4 22.8064 111.183 22.8395C111.179 22.8395 111.176 22.8395 111.172 22.8395H111.174Z" fill="#BDBDBD"/>
<path d="M112.674 21.366C112.6 21.366 112.526 21.3428 112.462 21.2965C111.634 20.6863 111.841 19.7734 112.065 19.3765C112.159 19.2095 112.374 19.1483 112.546 19.2409C112.716 19.3335 112.779 19.5436 112.684 19.7106C112.649 19.7767 112.358 20.3506 112.886 20.7392C113.043 20.855 113.075 21.0716 112.957 21.2254C112.888 21.3164 112.782 21.3643 112.674 21.3643V21.366Z" fill="#BDBDBD"/>
<path d="M116.773 28.4391C116.598 28.4391 116.445 28.3101 116.423 28.1348C116.4 27.9446 116.536 27.771 116.73 27.7478L117.157 27.6949L116.696 25.2804C116.459 25.3367 116.166 25.3945 115.974 25.3945C115.782 25.3945 115.62 25.2391 115.62 25.0473C115.62 24.8554 115.778 24.7 115.974 24.7C116.145 24.7 116.605 24.5925 116.876 24.5164C116.972 24.4899 117.075 24.5032 117.159 24.5544C117.243 24.6057 117.302 24.69 117.321 24.786L117.92 27.9297C117.938 28.024 117.915 28.1216 117.858 28.1993C117.8 28.277 117.713 28.3266 117.615 28.3399L116.815 28.4374C116.8 28.4391 116.785 28.4408 116.772 28.4408L116.773 28.4391Z" fill="#BDBDBD"/>
<path d="M114.772 37.8556H110.176C109.981 37.8556 109.822 37.7001 109.822 37.5083C109.822 37.3164 109.981 37.161 110.176 37.161H114.418V34.6605C114.418 34.4687 114.576 34.3132 114.772 34.3132C114.967 34.3132 115.125 34.4687 115.125 34.6605V37.5083C115.125 37.7001 114.967 37.8556 114.772 37.8556Z" fill="#BDBDBD"/>
<path d="M9.48034 34.8242C9.46014 34.8242 9.43994 34.8242 9.41974 34.8193L1.22289 33.4384C1.03097 33.4053 0.901341 33.2267 0.93501 33.0382C0.96868 32.8497 1.1505 32.7223 1.34241 32.7537L9.53926 34.1346C9.73118 34.1677 9.86081 34.3463 9.82714 34.5348C9.79684 34.7035 9.64869 34.8242 9.47866 34.8242H9.48034Z" fill="#BDBDBD"/>
<path d="M114.09 30.751C109.969 30.751 106.689 30.0548 106.647 30.0465C106.457 30.0052 106.336 29.82 106.378 29.6331C106.42 29.4462 106.609 29.3272 106.799 29.3685C106.849 29.3801 111.859 30.4418 117.236 29.9076C117.43 29.8878 117.603 30.0267 117.624 30.2185C117.644 30.4087 117.502 30.5791 117.307 30.5989C116.206 30.708 115.12 30.751 114.088 30.751H114.09Z" fill="#BDBDBD"/>
<path d="M52.0555 37.0221H42.5809C42.3856 37.0221 42.2273 36.8666 42.2273 36.6748C42.2273 36.4829 42.3856 36.3275 42.5809 36.3275H52.0555C52.2508 36.3275 52.409 36.4829 52.409 36.6748C52.409 36.8666 52.2508 37.0221 52.0555 37.0221Z" fill="#BDBDBD"/>
<path d="M40.3183 37.0221H35.5103C35.315 37.0221 35.1567 36.8666 35.1567 36.6748C35.1567 36.4829 35.315 36.3275 35.5103 36.3275H40.3183C40.5136 36.3275 40.6718 36.4829 40.6718 36.6748C40.6718 36.8666 40.5136 37.0221 40.3183 37.0221Z" fill="#BDBDBD"/>
<path d="M110.925 15.6143C110.9 15.6143 110.876 15.6109 110.851 15.606C106.156 14.6237 99.8292 14.4765 95.3478 14.5277C90.4859 14.5823 86.6914 14.8734 86.6543 14.8767C86.4624 14.8916 86.289 14.7493 86.2738 14.5575C86.2587 14.3657 86.4035 14.1986 86.5988 14.1838C86.6375 14.1804 90.4539 13.8877 95.3411 13.8332C99.8578 13.7819 106.242 13.9307 110.999 14.9279C111.189 14.9676 111.312 15.1529 111.272 15.3397C111.236 15.5035 111.09 15.6143 110.927 15.6143H110.925Z" fill="#BDBDBD"/>
<path d="M54.5605 16.9323C54.409 16.9323 54.2676 16.8347 54.2221 16.6842C54.1666 16.5007 54.2726 16.3072 54.4595 16.2509L57.1834 15.4472C57.2524 15.4274 57.3265 15.4274 57.3955 15.4505C57.7743 15.5729 58.8483 15.8954 59.3012 15.9285C60.2608 15.9202 60.8988 15.6953 61.1025 15.2984C61.2271 15.0536 61.1547 14.7923 61.0688 14.6617C60.4762 14.0961 59.8769 13.8282 59.2911 13.8679C58.3786 13.9291 57.7675 14.6997 57.7625 14.7063C57.7271 14.751 57.6817 14.7874 57.6312 14.8105L56.175 15.472C55.9982 15.5531 55.7878 15.477 55.7053 15.3033C55.6228 15.1297 55.7002 14.923 55.877 14.842L57.2608 14.2135C57.4679 13.9787 58.1918 13.2461 59.2423 13.175C60.0486 13.1204 60.8382 13.4611 61.589 14.1887C61.6025 14.2019 61.6143 14.2152 61.6261 14.2301C61.8668 14.5525 61.9947 15.1032 61.7355 15.6093C61.5032 16.0657 60.8904 16.6115 59.2944 16.623C59.286 16.623 59.2776 16.623 59.2692 16.623C58.7322 16.5883 57.6463 16.2576 57.2844 16.1451L54.6649 16.9174C54.6312 16.9273 54.5975 16.9323 54.5639 16.9323H54.5605Z" fill="#BDBDBD"/>
<path d="M12.0359 38.9669H10.3389C10.1436 38.9669 9.98538 38.8114 9.98538 38.6196C9.98538 38.4278 10.1436 38.2723 10.3389 38.2723H12.0359C12.2311 38.2723 12.3894 38.4278 12.3894 38.6196C12.3894 38.8114 12.2311 38.9669 12.0359 38.9669Z" fill="#BDBDBD"/>
<path d="M28.5811 38.9669H26.7427C26.5474 38.9669 26.3892 38.8114 26.3892 38.6196C26.3892 38.4278 26.5474 38.2723 26.7427 38.2723H28.5811C28.7764 38.2723 28.9346 38.4278 28.9346 38.6196C28.9346 38.8114 28.7764 38.9669 28.5811 38.9669Z" fill="#BDBDBD"/>
<path d="M90.3782 38.9669H88.6812C88.4859 38.9669 88.3277 38.8114 88.3277 38.6196C88.3277 38.4278 88.4859 38.2723 88.6812 38.2723H90.3782C90.5735 38.2723 90.7317 38.4278 90.7317 38.6196C90.7317 38.8114 90.5735 38.9669 90.3782 38.9669Z" fill="#BDBDBD"/>
<path d="M106.923 38.9669H105.085C104.89 38.9669 104.731 38.8114 104.731 38.6196C104.731 38.4278 104.89 38.2723 105.085 38.2723H106.923C107.119 38.2723 107.277 38.4278 107.277 38.6196C107.277 38.8114 107.119 38.9669 106.923 38.9669Z" fill="#BDBDBD"/>
</g>
</g>
<defs>
<clipPath id="clip0_5058_2657">
<rect width="117" height="43" fill="white" transform="translate(0.927734)"/>
</clipPath>
</defs>
</svg>
