<svg width="118" height="43" viewBox="0 0 118 43" fill="none" xmlns="http://www.w3.org/2000/svg">
<g id="Car type" clip-path="url(#clip0_5058_2645)">
<g id="Vector">
<path d="M69.9243 20.8384C69.8038 20.8384 69.689 20.7654 69.6411 20.6458L69.4668 20.208L65.487 20.5772C65.3199 20.5932 65.1703 20.4692 65.1558 20.2999C65.1398 20.1307 65.2633 19.9818 65.4318 19.9672L69.6382 19.5776C69.7733 19.5659 69.8996 19.6433 69.949 19.7688L70.2076 20.4181C70.27 20.5757 70.1945 20.7538 70.0376 20.8165C69.9999 20.8311 69.9621 20.8384 69.9243 20.8384Z" fill="#BDBDBD"/>
<path d="M93.1062 19.9804C92.9856 19.9804 92.8709 19.9074 92.8229 19.7877L92.6486 19.35L88.6688 19.7191C88.5003 19.7352 88.3521 19.6112 88.3376 19.4419C88.3216 19.2726 88.4451 19.1238 88.6136 19.1092L92.82 18.7196C92.9551 18.7064 93.0815 18.7852 93.1309 18.9107L93.3894 19.5601C93.4519 19.7177 93.3763 19.8957 93.2195 19.9585C93.1817 19.9731 93.1439 19.9804 93.1062 19.9804Z" fill="#BDBDBD"/>
<path d="M69.063 17.1377C69.0412 17.1377 69.0194 17.1348 68.9976 17.1304C68.8335 17.0939 68.7289 16.9305 68.7652 16.7656C69.7893 12.0522 73.175 12.4287 73.2099 12.4331C73.3769 12.4549 73.4946 12.6082 73.4742 12.776C73.4524 12.9438 73.3014 13.0605 73.1344 13.0416C73.0138 13.027 70.2628 12.7512 69.3622 16.8969C69.3317 17.0399 69.2053 17.1377 69.0645 17.1377H69.063Z" fill="#BDBDBD"/>
<path d="M91.8788 17.1377C91.857 17.1377 91.8352 17.1348 91.8134 17.1304C91.6493 17.0939 91.5447 16.9305 91.581 16.7656C92.6051 12.0522 95.9908 12.4287 96.0257 12.4331C96.1927 12.4549 96.3104 12.6082 96.29 12.776C96.2683 12.9438 96.1172 13.0605 95.9502 13.0416C95.8296 13.027 93.0786 12.7512 92.178 16.8969C92.1475 17.0399 92.0211 17.1377 91.8803 17.1377H91.8788Z" fill="#BDBDBD"/>
<path d="M97.0657 43.0002C92.4758 43.0002 88.7414 39.2485 88.7414 34.6372C88.7414 30.0259 92.4758 26.2742 97.0657 26.2742C101.656 26.2742 105.39 30.0259 105.39 34.6372C105.39 39.2485 101.656 43.0002 97.0657 43.0002ZM97.0657 26.887C92.8128 26.887 89.3515 30.3645 89.3515 34.6372C89.3515 38.9099 92.8113 42.3873 97.0657 42.3873C101.32 42.3873 104.78 38.9114 104.78 34.6372C104.78 30.363 101.32 26.887 97.0657 26.887Z" fill="#BDBDBD"/>
<path d="M97.0657 41.5877C93.2514 41.5877 90.1474 38.4692 90.1474 34.6372C90.1474 30.8052 93.2514 27.6867 97.0657 27.6867C100.88 27.6867 103.984 30.8052 103.984 34.6372C103.984 38.4692 100.88 41.5877 97.0657 41.5877ZM97.0657 28.2996C93.5869 28.2996 90.7575 31.1423 90.7575 34.6372C90.7575 38.1321 93.5869 40.9748 97.0657 40.9748C100.544 40.9748 103.374 38.1321 103.374 34.6372C103.374 31.1423 100.544 28.2996 97.0657 28.2996Z" fill="#BDBDBD"/>
<path d="M97.0657 40.445C93.8789 40.445 91.2847 37.8403 91.2847 34.6372C91.2847 31.4341 93.8774 28.8293 97.0657 28.8293C100.254 28.8293 102.847 31.4341 102.847 34.6372C102.847 37.8403 100.254 40.445 97.0657 40.445ZM97.0657 29.4437C94.2144 29.4437 91.8948 31.7741 91.8948 34.6372C91.8948 37.5003 94.2144 39.8307 97.0657 39.8307C99.9169 39.8307 102.235 37.5003 102.235 34.6372C102.235 31.7741 99.9155 29.4437 97.0657 29.4437Z" fill="#BDBDBD"/>
<path d="M98.6707 33.4114C98.5922 33.4114 98.5138 33.3808 98.4543 33.3209C98.3352 33.2013 98.3366 33.0072 98.4557 32.8875L101.525 29.8275C101.644 29.7078 101.837 29.7093 101.956 29.8289C102.075 29.9486 102.074 30.1427 101.955 30.2623L98.8857 33.3224C98.8261 33.3822 98.7491 33.4114 98.6707 33.4114Z" fill="#BDBDBD"/>
<path d="M92.4903 39.6877C92.4104 39.6877 92.332 39.657 92.2724 39.5958C92.1548 39.4746 92.1577 39.2806 92.2783 39.1624L95.4084 36.0935C95.5289 35.9753 95.7221 35.9782 95.8398 36.0994C95.9574 36.2205 95.9545 36.4146 95.834 36.5328L92.7038 39.6016C92.6443 39.66 92.5673 39.6892 92.4903 39.6892V39.6877Z" fill="#BDBDBD"/>
<path d="M101.619 39.765C101.542 39.765 101.465 39.7358 101.406 39.6775L98.2741 36.5926C98.1536 36.4744 98.1521 36.2803 98.2698 36.1592C98.3874 36.0381 98.5806 36.0366 98.7012 36.1548L101.833 39.2397C101.953 39.3579 101.955 39.552 101.837 39.6731C101.778 39.7344 101.698 39.765 101.619 39.765Z" fill="#BDBDBD"/>
<path d="M95.3779 33.4099C95.298 33.4099 95.2166 33.3778 95.1571 33.3151L92.1969 30.2025C92.0807 30.0799 92.0851 29.8858 92.2071 29.7691C92.3291 29.6523 92.5223 29.6567 92.6385 29.7793L95.5986 32.8919C95.7148 33.0145 95.7105 33.2086 95.5885 33.3253C95.5289 33.3822 95.4534 33.4099 95.3779 33.4099Z" fill="#BDBDBD"/>
<path d="M97.8369 32.9007C97.7411 32.9007 97.6467 32.8554 97.5871 32.7693C97.4913 32.6307 97.5247 32.4395 97.6626 32.3432L101.464 29.6699C101.602 29.5721 101.792 29.6071 101.888 29.7457C101.984 29.8844 101.95 30.0755 101.812 30.1718L98.0112 32.8452C97.9575 32.8832 97.8965 32.9007 97.8369 32.9007Z" fill="#BDBDBD"/>
<path d="M92.5775 39.7898C92.4801 39.7898 92.3857 39.7431 92.3262 39.657C92.2303 39.5184 92.2652 39.3273 92.4046 39.2309L96.3017 36.5298C96.4396 36.4335 96.6299 36.4686 96.7258 36.6086C96.8217 36.7473 96.7868 36.9384 96.6474 37.0348L92.7503 39.7358C92.698 39.7723 92.637 39.7898 92.5775 39.7898Z" fill="#BDBDBD"/>
<path d="M101.68 39.6833C101.584 39.6833 101.489 39.6381 101.429 39.552L98.8014 35.755C98.7055 35.6164 98.739 35.4252 98.8784 35.3289C99.0164 35.2326 99.2066 35.2661 99.3025 35.4062L101.93 39.2032C102.026 39.3418 101.993 39.533 101.853 39.6293C101.799 39.6658 101.74 39.6848 101.679 39.6848L101.68 39.6833Z" fill="#BDBDBD"/>
<path d="M94.9218 34.322C94.823 34.322 94.7271 34.2738 94.6676 34.1848L92.0662 30.2652C91.9732 30.1237 92.011 29.934 92.1504 29.8406C92.2913 29.7472 92.4801 29.7851 92.5731 29.9252L95.1745 33.8448C95.2675 33.9864 95.2297 34.1761 95.0903 34.2694C95.038 34.3045 94.9799 34.3205 94.9218 34.3205V34.322Z" fill="#BDBDBD"/>
<path d="M99.1573 34.3716C99.0977 34.3716 99.0367 34.3541 98.9844 34.3176C98.8464 34.2213 98.8116 34.0301 98.9074 33.8915L101.608 29.9734C101.703 29.8348 101.894 29.7997 102.032 29.896C102.17 29.9924 102.205 30.1835 102.109 30.3221L99.4085 34.2403C99.349 34.3264 99.2546 34.3716 99.1573 34.3716Z" fill="#BDBDBD"/>
<path d="M92.3814 39.5987C92.3218 39.5987 92.2608 39.5812 92.2071 39.5447C92.0691 39.4484 92.0342 39.2572 92.1301 39.1186L94.7388 35.342C94.8346 35.2034 95.0249 35.1684 95.1629 35.2647C95.3009 35.361 95.3357 35.5521 95.2399 35.6908L92.6312 39.4673C92.5717 39.5534 92.4772 39.5987 92.3799 39.5987H92.3814Z" fill="#BDBDBD"/>
<path d="M101.516 39.8468C101.458 39.8468 101.4 39.8307 101.348 39.7957L97.2603 37.0785C97.1194 36.9851 97.0816 36.7954 97.1746 36.6539C97.2676 36.5123 97.4564 36.4744 97.5973 36.5678L101.685 39.2849C101.826 39.3783 101.863 39.568 101.77 39.7096C101.712 39.7986 101.615 39.8468 101.516 39.8468Z" fill="#BDBDBD"/>
<path d="M96.2145 32.905C96.1521 32.905 96.0896 32.8861 96.0344 32.8467L92.3117 30.1135C92.1751 30.0142 92.1461 29.8216 92.2448 29.6859C92.3436 29.5487 92.5353 29.5196 92.6704 29.6188L96.3932 32.352C96.5297 32.4512 96.5588 32.6438 96.46 32.7795C96.4004 32.8613 96.3075 32.905 96.2131 32.905H96.2145Z" fill="#BDBDBD"/>
<path d="M1.8139 27.7232C1.6701 27.7232 1.54083 27.6196 1.51468 27.4722C1.48418 27.3059 1.59457 27.1468 1.76015 27.1161C1.78485 27.1118 4.07107 26.6784 7.04433 25.2862C5.92446 25.1578 4.23666 24.8149 3.08919 23.8985C2.95701 23.7934 2.93522 23.6008 3.0398 23.468C3.14438 23.3352 3.33611 23.3133 3.46829 23.4184C5.11542 24.7346 8.16856 24.7492 8.19907 24.7492C8.33996 24.7492 8.46197 24.8455 8.49538 24.9827C8.52878 25.1199 8.46342 25.2629 8.33851 25.3271C4.80023 27.1658 1.98674 27.6955 1.86764 27.7174C1.84876 27.7203 1.83133 27.7217 1.81244 27.7217L1.8139 27.7232Z" fill="#BDBDBD"/>
<path d="M2.58808 34.3424C1.97367 34.3424 1.51032 33.4902 1.51032 32.3607C1.51032 31.2313 1.97367 30.3791 2.58808 30.3791C3.20248 30.3791 3.66583 31.2313 3.66583 32.3607C3.66583 33.4902 3.20248 34.3424 2.58808 34.3424ZM2.58808 30.992C2.45299 30.992 2.12037 31.472 2.12037 32.3607C2.12037 33.2494 2.45299 33.7295 2.58808 33.7295C2.72316 33.7295 3.05578 33.2494 3.05578 32.3607C3.05578 31.472 2.72316 30.992 2.58808 30.992Z" fill="#BDBDBD"/>
<path d="M5.45821 33.2917C4.44727 33.2917 3.40874 32.959 3.34773 32.9401C3.18796 32.8875 3.09935 32.7153 3.15164 32.5548C3.20393 32.3943 3.37533 32.3053 3.5351 32.3578C4.07834 32.5344 5.65429 32.9021 6.40959 32.5008C6.5592 32.422 6.74367 32.4789 6.8221 32.6278C6.90054 32.7781 6.84389 32.9634 6.69573 33.0422C6.34714 33.2275 5.90558 33.2932 5.45821 33.2932V33.2917Z" fill="#BDBDBD"/>
<path d="M87.7508 38.1817H25.9064C25.7917 38.1817 25.6857 38.1161 25.6334 38.0125L25.1236 36.9939C24.7386 36.2278 24.5324 35.3712 24.5077 34.4519C24.4583 32.6074 23.8032 30.7789 22.663 29.3021C20.2882 26.2275 16.1863 25.0265 12.6887 26.3821C8.96453 27.8254 6.5592 31.6909 6.9688 35.577L7.16344 37.5382C7.17942 37.6987 7.06903 37.8446 6.9107 37.8709L6.17865 37.9935C6.1249 38.0022 6.07116 37.9964 6.02032 37.9774L0.646089 35.9359C0.538604 35.8951 0.461622 35.7958 0.450002 35.6806C-0.000271946 31.2079 1.19804 26.4653 3.9113 21.965C3.95052 21.9007 4.01152 21.8526 4.08415 21.8307C4.68548 21.6498 5.26938 21.4323 5.83586 21.2236C6.40959 21.0106 7.00366 20.7917 7.62243 20.6049C7.62678 20.6049 7.63114 20.602 7.6355 20.6005C18.779 17.8017 24.268 17.558 35.5757 17.2836C36.5242 16.8167 48.2182 11.108 60.2231 7.5562C60.3161 7.52847 60.4134 7.54744 60.486 7.60143C60.5063 7.59268 60.5252 7.58246 60.5456 7.57371C60.5775 7.55912 60.6109 7.5489 60.6458 7.54598C68.5967 6.78717 76.4969 6.82073 84.1239 7.64667C90.2273 8.30772 96.1724 9.47367 101.792 11.1139C111.371 13.9084 116.767 17.1611 116.82 17.1932C116.895 17.2384 116.946 17.3157 116.962 17.4018C116.992 17.5755 117.697 21.676 117.145 24.8193C117.142 24.8353 117.138 24.8514 117.132 24.8674C116.104 27.7962 116.102 32.0966 116.104 32.4454C116.146 32.708 116.454 34.8021 116.099 36.9341C116.08 37.0479 115.999 37.1413 115.89 37.1763C112.953 38.0986 107.482 38.1788 107.251 38.1817C107.13 38.1803 107.027 38.1175 106.975 38.0125L106.465 36.9939C106.08 36.2278 105.874 35.3712 105.849 34.4519C105.8 32.6074 105.144 30.7789 104.004 29.3021C101.629 26.2275 97.5276 25.0265 94.03 26.3821C90.3058 27.8254 87.9004 31.6909 88.31 35.577L88.4509 36.9939C88.4945 37.4419 88.2926 37.8767 87.9208 38.1292C87.8699 38.1642 87.8104 38.1817 87.7494 38.1817H87.7508ZM26.0938 37.5688H87.6462C87.7886 37.4404 87.8627 37.2493 87.8438 37.0552L87.7043 35.6397C87.4894 33.5997 87.9905 31.4896 89.1147 29.7005C90.2244 27.9348 91.8933 26.5543 93.8121 25.8101C97.5581 24.3581 101.949 25.6394 104.488 28.9256C105.708 30.5046 106.408 32.4614 106.46 34.4343C106.482 35.2632 106.668 36.0322 107.011 36.7166L107.435 37.563C108.415 37.5397 112.941 37.3967 115.53 36.6437C115.833 34.5788 115.504 32.5402 115.501 32.5198C115.498 32.5037 115.496 32.4892 115.496 32.4731C115.495 32.2849 115.457 27.8253 116.551 24.6865C117.022 21.9693 116.504 18.3898 116.387 17.6455C115.547 17.1581 110.327 14.2382 101.599 11.6947C96.0141 10.0676 90.1082 8.90893 84.0426 8.25372C76.478 7.43654 68.6447 7.40152 60.7576 8.15012C55.915 10.4353 50.8908 13.0576 47.5239 14.8583C43.9682 16.7598 39.9652 17.8455 35.949 18.0016L35.7863 18.0074C35.6876 18.0104 35.5989 17.968 35.5409 17.898C24.3189 18.1709 18.8531 18.4175 7.79382 21.1945C7.19539 21.3754 6.61294 21.5914 6.04937 21.7986C5.5105 21.9985 4.95419 22.2043 4.3761 22.3823C1.81099 26.674 0.660614 31.1787 1.04117 35.4296L6.15831 37.3748L6.52725 37.3135L6.36166 35.6397C6.14669 33.5997 6.6478 31.4896 7.77203 29.7005C8.88174 27.9348 10.5507 26.5543 12.4694 25.8101C16.2168 24.3581 20.6063 25.6394 23.1453 28.9256C24.3653 30.5046 25.0655 32.4614 25.1177 34.4343C25.1395 35.2632 25.3254 36.0322 25.6682 36.7166L26.0938 37.5659V37.5688ZM57.4823 9.04902C48.3068 12.0245 39.8257 15.9309 36.883 17.3333C40.4851 17.0589 44.0467 16.0228 47.2393 14.317C49.9148 12.8869 53.636 10.9373 57.4823 9.04902Z" fill="#BDBDBD"/>
<path d="M58.0182 17.4077C52.4973 17.4077 48.5814 17.3945 48.4623 17.3945C48.3301 17.3945 48.2124 17.3084 48.1732 17.1815C48.1325 17.0545 48.179 16.9174 48.2865 16.8386L49.8421 15.7179C49.9787 15.6186 50.1689 15.6507 50.2677 15.7879C50.3665 15.9251 50.3345 16.1177 50.198 16.2155L49.4093 16.7831C55.1946 16.7977 85.803 16.8532 93.4678 16.4139C96.5893 16.2344 97.2313 15.5223 97.3358 15.1123C97.6016 14.0747 95.4418 12.4433 94.6647 11.953C94.6545 11.9471 92.669 10.8235 87.5939 9.78887C79.1099 8.05818 68.6679 7.9035 61.4025 8.07715C61.2326 8.08591 61.0946 7.94728 61.0903 7.77801C61.0859 7.60873 61.2195 7.46864 61.388 7.46426C68.7086 7.28915 79.2305 7.44821 87.7799 9.20225C92.9246 10.2573 94.8971 11.3809 94.9784 11.4276C95.3328 11.6509 98.3497 13.6063 97.9255 15.264C97.6626 16.2928 96.2145 16.8692 93.5013 17.0253C87.8002 17.3522 69.461 17.4062 58.0168 17.4062L58.0182 17.4077Z" fill="#BDBDBD"/>
<path d="M53.0565 14.0864C52.9621 14.0864 52.8677 14.0426 52.8081 13.958C52.7094 13.8208 52.7413 13.6282 52.8778 13.5304L61.2181 7.52263C61.3546 7.42486 61.5449 7.45551 61.6437 7.59268C61.7424 7.72985 61.7105 7.92247 61.5739 8.02024L53.2337 14.028C53.18 14.066 53.1175 14.0849 53.0565 14.0849V14.0864Z" fill="#BDBDBD"/>
<path d="M71.8896 17.272C71.8562 17.272 71.8227 17.2661 71.7893 17.2545C71.6296 17.199 71.5453 17.0239 71.6005 16.8648L74.6508 8.03921C74.7059 7.87869 74.8803 7.79406 75.0386 7.85097C75.1983 7.90642 75.2826 8.08153 75.2274 8.24059L72.1772 17.0662C72.1336 17.1932 72.0159 17.272 71.8896 17.272Z" fill="#BDBDBD"/>
<path d="M75.1838 17.1494C75.1708 17.1494 75.1591 17.1494 75.1461 17.1465C74.979 17.126 74.8599 16.9728 74.8817 16.805L75.9798 7.97938C76.0001 7.81157 76.1526 7.69191 76.3197 7.7138C76.4867 7.73423 76.6058 7.88745 76.584 8.05527L75.4859 16.8809C75.4671 17.0356 75.3349 17.1494 75.1838 17.1494Z" fill="#BDBDBD"/>
<path d="M70.4254 36.1738H41.3871C41.2216 36.1738 41.085 36.0395 41.0821 35.8732C41.0821 35.8411 41.0255 32.6424 41.4656 28.93C42.0597 23.9116 43.2304 20.3875 44.9414 18.4598C44.9675 18.4306 44.9981 18.4073 45.0329 18.3898C47.8972 16.9509 48.3272 16.7933 48.3678 16.7802C48.5276 16.7262 48.7005 16.8138 48.7542 16.9743C48.8079 17.1348 48.7208 17.3084 48.561 17.3624C48.548 17.3668 48.1151 17.5288 45.3597 18.9122C41.836 22.9573 41.6878 33.6318 41.6907 35.5624H70.1248C70.2381 30.4535 73.0559 17.6207 73.1779 17.0662C73.2142 16.9013 73.3769 16.7962 73.541 16.8327C73.7052 16.8692 73.8098 17.0326 73.7734 17.1975C73.7429 17.3362 70.7305 31.0532 70.7305 35.8673C70.7305 36.0366 70.5939 36.1738 70.4254 36.1738Z" fill="#BDBDBD"/>
<path d="M95.3851 26.0348H95.3793C95.2108 26.0319 95.0772 25.8918 95.0801 25.7226C95.1498 21.6541 95.4941 16.3847 95.4984 16.3307C95.51 16.1615 95.6553 16.0316 95.8223 16.0447C95.9908 16.0564 96.1172 16.2023 96.107 16.3701C96.1041 16.4227 95.7599 21.6789 95.6902 25.7313C95.6873 25.8991 95.5507 26.0319 95.3851 26.0319V26.0348Z" fill="#BDBDBD"/>
<path d="M86.0427 36.1738H70.4313C70.2628 36.1738 70.1262 36.0366 70.1262 35.8673C70.1262 35.6981 70.2628 35.5609 70.4313 35.5609H85.6984C85.588 34.3774 85.4965 30.541 88.4756 27.6196C88.5962 27.5014 88.7894 27.5043 88.907 27.6254C89.0247 27.7465 89.0218 27.9406 88.9012 28.0588C85.6432 31.2532 86.3346 35.774 86.3419 35.8192C86.3564 35.9082 86.3317 35.9987 86.2736 36.0673C86.2155 36.1358 86.1313 36.1752 86.0412 36.1752L86.0427 36.1738Z" fill="#BDBDBD"/>
<path d="M108.938 34.392C108.797 34.392 108.67 34.2928 108.641 34.1483C108.619 34.0433 108.118 31.5494 109.37 29.7501C110.016 28.8206 111.005 28.2529 112.313 28.0618C116.465 27.4547 116.603 24.0882 116.606 23.9452C116.61 23.7759 116.753 23.6446 116.918 23.646C117.087 23.6504 117.219 23.7905 117.216 23.9583C117.216 23.9977 117.075 27.9844 112.4 28.6673C111.267 28.8322 110.416 29.3153 109.869 30.1003C108.767 31.6851 109.233 33.9995 109.238 34.0228C109.272 34.1877 109.166 34.3512 109.002 34.3862C108.98 34.3906 108.96 34.3935 108.94 34.3935L108.938 34.392Z" fill="#BDBDBD"/>
<path d="M111.872 34.3234C111.775 34.3234 111.679 34.3191 111.589 34.3089C111.422 34.2899 111.302 34.1381 111.319 33.9703C111.338 33.8025 111.489 33.6799 111.656 33.7003C113.016 33.8506 115.688 32.5183 115.716 32.5052C115.867 32.4293 116.05 32.4906 116.125 32.6424C116.201 32.7941 116.14 32.978 115.989 33.0539C115.88 33.1093 113.44 34.3249 111.872 34.3249V34.3234Z" fill="#BDBDBD"/>
<path d="M112.437 25.1578C112.398 25.1578 112.358 25.1505 112.321 25.1345C112.227 25.0951 112.159 25.0119 112.138 24.9112C112.115 24.793 111.562 21.9956 111.644 20.4225C111.653 20.2678 111.775 20.1423 111.929 20.1321C114.387 19.9731 116.715 19.2536 116.738 19.2463C116.9 19.1967 117.069 19.2857 117.12 19.4477C117.17 19.6097 117.08 19.7804 116.92 19.8315C116.825 19.8607 114.666 20.5276 112.246 20.7231C112.238 21.8672 112.51 23.5424 112.651 24.3377L113.624 23.6854L113.845 22.5049C113.865 22.3925 113.948 22.3006 114.056 22.2685L116.74 21.4513C116.901 21.4017 117.071 21.4936 117.12 21.6556C117.17 21.8176 117.078 21.9883 116.917 22.0379L114.41 22.8011L114.201 23.9262C114.186 24.0079 114.138 24.0794 114.07 24.1247L112.606 25.1053C112.555 25.1388 112.496 25.1564 112.437 25.1564V25.1578Z" fill="#BDBDBD"/>
<path d="M114.172 22.8741C114.003 22.8741 113.867 22.7369 113.867 22.5676V20.1161C113.867 19.9468 114.003 19.8096 114.172 19.8096C114.34 19.8096 114.477 19.9468 114.477 20.1161V22.5676C114.477 22.7369 114.34 22.8741 114.172 22.8741Z" fill="#BDBDBD"/>
<path d="M37.6048 30.633C37.3202 30.633 30.5878 30.5775 26.1563 25.7532C21.9426 21.1667 14.6946 23.0025 14.6235 23.0229C14.4608 23.0652 14.2937 22.9675 14.2516 22.804C14.2095 22.6406 14.3068 22.4728 14.4695 22.4305C14.5479 22.41 16.4028 21.9299 18.8313 22.0379C22.066 22.1824 24.7546 23.3235 26.6065 25.3388C30.8595 29.9675 37.5409 30.0201 37.6078 30.0201C37.7762 30.0201 37.9128 30.1573 37.9128 30.3265C37.9128 30.4958 37.7762 30.633 37.6078 30.633H37.6048Z" fill="#BDBDBD"/>
<path d="M3.56415 27.0782C3.52058 27.0782 3.477 27.0695 3.43488 27.049C3.28237 26.9775 3.21701 26.7951 3.28818 26.6419L4.26426 24.5581C4.33543 24.4048 4.51844 24.3392 4.6695 24.4107C4.82201 24.4822 4.88738 24.6646 4.8162 24.8178L3.84013 26.9016C3.78784 27.0125 3.6789 27.0782 3.56415 27.0782Z" fill="#BDBDBD"/>
<path d="M97.0657 37.1398C95.6916 37.1398 94.5746 36.0176 94.5746 34.6372C94.5746 33.2567 95.6916 32.1346 97.0657 32.1346C98.4397 32.1346 99.5567 33.2567 99.5567 34.6372C99.5567 36.0176 98.4397 37.1398 97.0657 37.1398ZM97.0657 32.7474C96.0286 32.7474 95.1847 33.5953 95.1847 34.6372C95.1847 35.6791 96.0286 36.5269 97.0657 36.5269C98.1028 36.5269 98.9467 35.6791 98.9467 34.6372C98.9467 33.5953 98.1028 32.7474 97.0657 32.7474Z" fill="#BDBDBD"/>
<path d="M97.0657 35.7521C96.4542 35.7521 95.956 35.2515 95.956 34.6372C95.956 34.0228 96.4542 33.5223 97.0657 33.5223C97.6772 33.5223 98.1754 34.0228 98.1754 34.6372C98.1754 35.2515 97.6772 35.7521 97.0657 35.7521ZM97.0657 34.1352C96.7897 34.1352 96.566 34.3599 96.566 34.6372C96.566 34.9144 96.7897 35.1392 97.0657 35.1392C97.3416 35.1392 97.5653 34.9144 97.5653 34.6372C97.5653 34.3599 97.3416 34.1352 97.0657 34.1352Z" fill="#BDBDBD"/>
<path d="M15.7114 43.0002C11.1215 43.0002 7.38712 39.2485 7.38712 34.6372C7.38712 30.0259 11.1215 26.2742 15.7114 26.2742C20.3013 26.2742 24.0356 30.0259 24.0356 34.6372C24.0356 39.2485 20.3013 43.0002 15.7114 43.0002ZM15.7114 26.887C11.4585 26.887 7.99717 30.3645 7.99717 34.6372C7.99717 38.9099 11.457 42.3873 15.7114 42.3873C19.9657 42.3873 23.4256 38.9114 23.4256 34.6372C23.4256 30.363 19.9657 26.887 15.7114 26.887Z" fill="#BDBDBD"/>
<path d="M15.7114 41.5877C11.8971 41.5877 8.79314 38.4692 8.79314 34.6372C8.79314 30.8052 11.8971 27.6867 15.7114 27.6867C19.5256 27.6867 22.6296 30.8052 22.6296 34.6372C22.6296 38.4692 19.5256 41.5877 15.7114 41.5877ZM15.7114 28.2996C12.2326 28.2996 9.40319 31.1423 9.40319 34.6372C9.40319 38.1321 12.2326 40.9748 15.7114 40.9748C19.1901 40.9748 22.0196 38.1321 22.0196 34.6372C22.0196 31.1423 19.1901 28.2996 15.7114 28.2996Z" fill="#BDBDBD"/>
<path d="M15.7114 40.445C12.5246 40.445 9.93044 37.8403 9.93044 34.6372C9.93044 31.4341 12.5231 28.8293 15.7114 28.8293C18.8996 28.8293 21.4923 31.4341 21.4923 34.6372C21.4923 37.8403 18.8996 40.445 15.7114 40.445ZM15.7114 29.4437C12.8601 29.4437 10.5405 31.7741 10.5405 34.6386C10.5405 37.5032 12.8601 39.8322 15.7114 39.8322C18.5626 39.8322 20.8823 37.5017 20.8823 34.6386C20.8823 31.7756 18.5626 29.4437 15.7114 29.4437Z" fill="#BDBDBD"/>
<path d="M17.3164 33.4114C17.2379 33.4114 17.1595 33.3808 17.1 33.3209C16.9809 33.2013 16.9823 33.0072 17.1014 32.8875L20.1705 29.8275C20.2896 29.7078 20.4828 29.7093 20.6019 29.8289C20.721 29.9486 20.7196 30.1427 20.6005 30.2623L17.5314 33.3224C17.4718 33.3822 17.3948 33.4114 17.3164 33.4114Z" fill="#BDBDBD"/>
<path d="M11.136 39.6877C11.0561 39.6877 10.9777 39.657 10.9181 39.5958C10.8005 39.4746 10.8034 39.2806 10.9239 39.1624L14.0541 36.0935C14.1746 35.9753 14.3678 35.9782 14.4855 36.0994C14.6031 36.2205 14.6002 36.4146 14.4797 36.5328L11.3495 39.6016C11.29 39.66 11.213 39.6892 11.136 39.6892V39.6877Z" fill="#BDBDBD"/>
<path d="M20.265 39.765C20.188 39.765 20.111 39.7358 20.0514 39.6775L16.9199 36.5926C16.7993 36.4744 16.7978 36.2803 16.9155 36.1592C17.0331 36.0381 17.2263 36.0366 17.3469 36.1548L20.4785 39.2397C20.599 39.3579 20.6005 39.552 20.4828 39.6731C20.4233 39.7344 20.3434 39.765 20.265 39.765Z" fill="#BDBDBD"/>
<path d="M14.025 33.4099C13.9451 33.4099 13.8638 33.3778 13.8042 33.3151L10.8441 30.2025C10.7279 30.0799 10.7322 29.8858 10.8542 29.7691C10.9762 29.6523 11.1694 29.6567 11.2856 29.7793L14.2458 32.8919C14.362 33.0145 14.3576 33.2086 14.2356 33.3253C14.1761 33.3822 14.1006 33.4099 14.025 33.4099Z" fill="#BDBDBD"/>
<path d="M16.4827 32.9007C16.3868 32.9007 16.2924 32.8554 16.2328 32.7693C16.137 32.6307 16.1704 32.4395 16.3084 32.3432L20.1095 29.6699C20.2475 29.5721 20.4378 29.6071 20.5337 29.7457C20.6295 29.8844 20.5961 30.0755 20.4581 30.1718L16.657 32.8452C16.6032 32.8832 16.5422 32.9007 16.4827 32.9007Z" fill="#BDBDBD"/>
<path d="M11.2232 39.7898C11.1258 39.7898 11.0314 39.7431 10.9719 39.657C10.876 39.5184 10.9109 39.3273 11.0503 39.2309L14.9474 36.5298C15.0854 36.4335 15.2756 36.4686 15.3715 36.6086C15.4674 36.7473 15.4325 36.9384 15.2931 37.0348L11.396 39.7358C11.3437 39.7723 11.2827 39.7898 11.2232 39.7898Z" fill="#BDBDBD"/>
<path d="M20.326 39.6833C20.2301 39.6833 20.1342 39.6381 20.0747 39.552L17.4471 35.755C17.3512 35.6164 17.3847 35.4252 17.5241 35.3289C17.6621 35.2326 17.8524 35.2661 17.9482 35.4062L20.5758 39.2032C20.6716 39.3418 20.6382 39.533 20.4988 39.6293C20.4451 39.6658 20.3855 39.6848 20.3245 39.6848L20.326 39.6833Z" fill="#BDBDBD"/>
<path d="M13.5675 34.322C13.4687 34.322 13.3729 34.2738 13.3133 34.1848L10.7119 30.2652C10.6189 30.1237 10.6567 29.934 10.7961 29.8406C10.937 29.7472 11.1258 29.7851 11.2188 29.9252L13.8202 33.8448C13.9132 33.9864 13.8754 34.1761 13.736 34.2694C13.6837 34.3045 13.6256 34.3205 13.5675 34.3205V34.322Z" fill="#BDBDBD"/>
<path d="M17.8044 34.3716C17.7449 34.3716 17.6839 34.3541 17.6316 34.3176C17.4936 34.2213 17.4587 34.0301 17.5546 33.8915L20.2548 29.9734C20.3506 29.8348 20.5409 29.7997 20.6789 29.896C20.8169 29.9924 20.8518 30.1835 20.7559 30.3221L18.0557 34.2403C17.9962 34.3264 17.9017 34.3716 17.8044 34.3716Z" fill="#BDBDBD"/>
<path d="M11.0271 39.5987C10.9675 39.5987 10.9065 39.5812 10.8528 39.5447C10.7148 39.4484 10.6799 39.2572 10.7758 39.1186L13.3845 35.342C13.4803 35.2034 13.6706 35.1684 13.8086 35.2647C13.9466 35.361 13.9815 35.5521 13.8856 35.6908L11.2769 39.4673C11.2174 39.5534 11.1229 39.5987 11.0256 39.5987H11.0271Z" fill="#BDBDBD"/>
<path d="M20.1633 39.8468C20.1052 39.8468 20.0471 39.8307 19.9948 39.7957L15.9075 37.0785C15.7666 36.9851 15.7288 36.7954 15.8218 36.6539C15.9147 36.5123 16.1036 36.4744 16.2444 36.5678L20.3318 39.2849C20.4727 39.3783 20.5104 39.568 20.4175 39.7096C20.3594 39.7986 20.262 39.8468 20.1633 39.8468Z" fill="#BDBDBD"/>
<path d="M14.8617 32.905C14.7992 32.905 14.7368 32.8861 14.6816 32.8467L10.9588 30.1135C10.8223 30.0142 10.7932 29.8216 10.892 29.6859C10.9908 29.5487 11.1825 29.5196 11.3176 29.6188L15.0403 32.352C15.1769 32.4512 15.2059 32.6438 15.1071 32.7795C15.0476 32.8613 14.9546 32.905 14.8602 32.905H14.8617Z" fill="#BDBDBD"/>
<path d="M15.7114 37.1398C14.3373 37.1398 13.2203 36.0176 13.2203 34.6372C13.2203 33.2567 14.3373 32.1346 15.7114 32.1346C17.0854 32.1346 18.2024 33.2567 18.2024 34.6372C18.2024 36.0176 17.0854 37.1398 15.7114 37.1398ZM15.7114 32.7474C14.6743 32.7474 13.8304 33.5953 13.8304 34.6372C13.8304 35.6791 14.6743 36.5269 15.7114 36.5269C16.7485 36.5269 17.5924 35.6791 17.5924 34.6372C17.5924 33.5953 16.7485 32.7474 15.7114 32.7474Z" fill="#BDBDBD"/>
<path d="M15.7114 35.7521C15.0999 35.7521 14.6017 35.2515 14.6017 34.6372C14.6017 34.0228 15.0999 33.5223 15.7114 33.5223C16.3229 33.5223 16.8211 34.0228 16.8211 34.6372C16.8211 35.2515 16.3229 35.7521 15.7114 35.7521ZM15.7114 34.1352C15.4354 34.1352 15.2117 34.3599 15.2117 34.6372C15.2117 34.9144 15.4354 35.1392 15.7114 35.1392C15.9874 35.1392 16.211 34.9144 16.211 34.6372C16.211 34.3599 15.9874 34.1352 15.7114 34.1352Z" fill="#BDBDBD"/>
<path d="M46.9996 17.2107C46.866 17.2107 46.7425 17.1217 46.7062 16.986C46.6612 16.8225 46.757 16.6547 46.9182 16.6095L49.7855 15.8127C49.8479 15.7952 49.9133 15.7981 49.9743 15.8215C50.3679 15.9703 51.4863 16.3628 51.9613 16.4154C52.9737 16.4373 53.6651 16.2038 53.9091 15.7587C54.0761 15.4523 53.9963 15.1152 53.896 14.9488C53.2831 14.2878 52.6513 13.9624 52.0194 13.9901C51.039 14.028 50.3578 14.8802 50.3505 14.889C50.3171 14.9313 50.2721 14.9649 50.2212 14.9853L46.927 16.2724C46.7701 16.3337 46.5929 16.2563 46.5319 16.0973C46.4709 15.9397 46.5493 15.7616 46.7062 15.7003L49.9278 14.441C50.1384 14.2017 50.9068 13.4195 51.9947 13.3772C52.8168 13.3436 53.6143 13.7406 54.3608 14.5519C54.3725 14.5636 54.3812 14.5767 54.3899 14.5898C54.6223 14.9401 54.7283 15.5296 54.4422 16.0535C54.1865 16.519 53.5445 17.0648 51.9337 17.0268C51.9265 17.0268 51.9177 17.0268 51.9105 17.0268C51.3542 16.9714 50.1936 16.5555 49.8537 16.43L47.0809 17.2005C47.0533 17.2078 47.0257 17.2121 46.9996 17.2121V17.2107Z" fill="#BDBDBD"/>
<path d="M89.5868 38.135H87.7566C87.5881 38.135 87.4516 37.9979 87.4516 37.8286C87.4516 37.6593 87.5881 37.5221 87.7566 37.5221H89.5868C89.7553 37.5221 89.8918 37.6593 89.8918 37.8286C89.8918 37.9979 89.7553 38.135 89.5868 38.135Z" fill="#BDBDBD"/>
<path d="M106.79 38.135H104.594C104.425 38.135 104.289 37.9979 104.289 37.8286C104.289 37.6593 104.425 37.5221 104.594 37.5221H106.79C106.959 37.5221 107.095 37.6593 107.095 37.8286C107.095 37.9979 106.959 38.135 106.79 38.135Z" fill="#BDBDBD"/>
<path d="M25.8977 38.135H23.2135C23.045 38.135 22.9085 37.9979 22.9085 37.8286C22.9085 37.6593 23.045 37.5221 23.2135 37.5221H25.8977C26.0662 37.5221 26.2028 37.6593 26.2028 37.8286C26.2028 37.9979 26.0662 38.135 25.8977 38.135Z" fill="#BDBDBD"/>
<path d="M8.32253 38.3554C8.29058 38.3554 8.25862 38.351 8.22812 38.3408L6.764 37.8607C6.60423 37.8082 6.51708 37.6345 6.56937 37.474C6.62166 37.3135 6.7945 37.2259 6.95428 37.2785L8.4184 37.7585C8.57817 37.8111 8.66532 37.9847 8.61303 38.1453C8.57091 38.2751 8.4518 38.3568 8.32253 38.3568V38.3554Z" fill="#BDBDBD"/>
</g>
</g>
<defs>
<clipPath id="clip0_5058_2645">
<rect width="117" height="43" fill="white" transform="translate(0.357422)"/>
</clipPath>
</defs>
</svg>
