<svg width="118" height="43" viewBox="0 0 118 43" fill="none" xmlns="http://www.w3.org/2000/svg">
<g id="Car type" clip-path="url(#clip0_5058_2669)">
<g id="Vector">
<path d="M17.7546 43C15.798 43 13.9076 42.3535 12.3408 41.1314C10.4813 39.6814 9.29807 37.5958 9.00997 35.2577C8.72188 32.9196 9.36124 30.6076 10.8125 28.7513C12.2638 26.8935 14.3513 25.7113 16.6916 25.4235C19.0318 25.1341 21.3458 25.7745 23.2038 27.2244C25.0633 28.6744 26.2465 30.76 26.5346 33.0981C27.1309 37.9252 23.6845 42.3381 18.8531 42.9323C18.4864 42.9769 18.1182 43 17.7546 43ZM17.7885 26.0023C17.4511 26.0023 17.1106 26.0238 16.7701 26.0654C14.6009 26.3332 12.6659 27.4276 11.3209 29.15C9.97595 30.8709 9.38281 33.0135 9.65088 35.1807C9.91895 37.3479 11.0143 39.2812 12.7383 40.625C14.4607 41.9687 16.6053 42.5613 18.7745 42.2935C23.2516 41.7409 26.4453 37.6527 25.8937 33.1797C25.6257 31.0125 24.5303 29.0792 22.8063 27.7354C21.3535 26.6026 19.6018 26.0038 17.7885 26.0038V26.0023Z" fill="#BDBDBD"/>
<path d="M17.7669 40.8451C14.4484 40.8451 11.5659 38.3669 11.1484 34.9945C10.9296 33.2274 11.4134 31.4804 12.5103 30.0766C13.6072 28.6728 15.1848 27.7801 16.9535 27.5615C18.7221 27.3429 20.4707 27.8263 21.8758 28.9222C23.2808 30.0181 24.1744 31.5943 24.3932 33.3613C24.843 37.0093 22.2394 40.3448 18.5881 40.7943C18.3123 40.8282 18.0381 40.8451 17.7669 40.8451ZM17.7762 28.1572C17.5312 28.1572 17.2832 28.1726 17.0336 28.2034C15.4359 28.4004 14.0109 29.2069 13.0202 30.4753C12.0296 31.7436 11.5936 33.3198 11.7908 34.916C12.1975 38.2099 15.211 40.5588 18.5095 40.154C21.8064 39.7476 24.159 36.7369 23.7523 33.4414C23.3763 30.3952 20.7727 28.1572 17.7762 28.1572Z" fill="#BDBDBD"/>
<path d="M17.77 35.9503C16.8872 35.9503 16.1215 35.2915 16.0106 34.3957C15.952 33.9262 16.0815 33.4614 16.3726 33.0889C16.6638 32.7164 17.0829 32.4778 17.5543 32.4209C18.0242 32.3624 18.4895 32.4917 18.8623 32.7826C19.2351 33.0735 19.4739 33.4922 19.5309 33.9632C19.5895 34.4326 19.4601 34.8975 19.1689 35.27C18.8777 35.6425 18.4587 35.8811 17.9872 35.938C17.9133 35.9472 17.8409 35.9519 17.7685 35.9519L17.77 35.9503ZM17.7746 33.0519C17.7284 33.0519 17.6806 33.055 17.6344 33.0612C17.3355 33.0981 17.069 33.249 16.8841 33.486C16.6993 33.7231 16.6176 34.0186 16.6546 34.3157C16.7301 34.9314 17.2924 35.3716 17.9102 35.2946C18.2091 35.2577 18.4756 35.1068 18.6605 34.8698C18.8454 34.6327 18.927 34.3372 18.89 34.0401C18.8531 33.7415 18.7021 33.4752 18.4648 33.2905C18.2645 33.1351 18.0242 33.0519 17.7746 33.0519Z" fill="#BDBDBD"/>
<path d="M17.77 37.3833C16.1739 37.3833 14.7873 36.192 14.5871 34.5696C14.3698 32.8149 15.6224 31.2126 17.3787 30.9955C18.2291 30.8909 19.0703 31.1233 19.7451 31.6497C20.4214 32.1761 20.8512 32.935 20.956 33.7846C21.1732 35.5393 19.9207 37.1417 18.1644 37.3587C18.0319 37.3757 17.8994 37.3833 17.7684 37.3833H17.77ZM17.7762 31.6189C17.6698 31.6189 17.5635 31.6251 17.4572 31.6389C16.0553 31.8113 15.0554 33.092 15.228 34.4927C15.4005 35.8934 16.6808 36.8908 18.0843 36.7199C19.4863 36.5475 20.4861 35.2669 20.3136 33.8662C20.2304 33.1874 19.8868 32.5825 19.3476 32.1623C18.8931 31.8082 18.3446 31.6205 17.7762 31.6205V31.6189Z" fill="#BDBDBD"/>
<path d="M17.354 31.6081C17.1923 31.6081 17.0536 31.4881 17.0336 31.3249L16.6222 27.9879C16.6007 27.8109 16.727 27.6492 16.9042 27.6277C17.0813 27.6046 17.2431 27.7324 17.2647 27.9094L17.676 31.2464C17.6976 31.4234 17.5713 31.5851 17.3941 31.6066C17.3802 31.6081 17.3679 31.6097 17.354 31.6097V31.6081Z" fill="#BDBDBD"/>
<path d="M18.1706 31.6235C18.1536 31.6235 18.1367 31.6235 18.1197 31.6189C17.9425 31.5912 17.8224 31.425 17.8516 31.248L18.3832 27.9278C18.4109 27.7524 18.5757 27.6308 18.7545 27.66C18.9316 27.6877 19.0518 27.854 19.0225 28.031L18.491 31.3511C18.4648 31.5096 18.3277 31.6235 18.1721 31.6235H18.1706Z" fill="#BDBDBD"/>
<path d="M18.6066 40.7035C18.4448 40.7035 18.3061 40.5834 18.2861 40.4203L17.8748 37.0832C17.8532 36.9062 17.9795 36.7446 18.1567 36.723C18.3339 36.6999 18.4956 36.8277 18.5172 37.0047L18.9285 40.3418C18.9501 40.5188 18.8238 40.6804 18.6466 40.7019C18.6327 40.7035 18.6204 40.705 18.6066 40.705V40.7035Z" fill="#BDBDBD"/>
<path d="M16.8472 40.6712C16.8302 40.6712 16.8133 40.6712 16.7963 40.6665C16.6191 40.6388 16.5005 40.4726 16.5282 40.2956L17.0598 36.9755C17.0875 36.8 17.2539 36.6784 17.4311 36.7076C17.6082 36.7353 17.7269 36.9016 17.6991 37.0786L17.1676 40.3987C17.1414 40.5572 17.0043 40.6712 16.8487 40.6712H16.8472Z" fill="#BDBDBD"/>
<path d="M19.514 32.1546C19.4447 32.1546 19.3738 32.133 19.3152 32.0868C19.175 31.9776 19.1489 31.7744 19.2598 31.6328L21.3304 28.9822C21.4398 28.8421 21.6431 28.816 21.7849 28.9268C21.9251 29.0361 21.9513 29.2393 21.8403 29.3809L19.7697 32.0314C19.7066 32.113 19.611 32.1561 19.514 32.1561V32.1546Z" fill="#BDBDBD"/>
<path d="M20.0825 32.741C19.9823 32.741 19.8837 32.6948 19.8206 32.6071C19.7158 32.4624 19.7482 32.2608 19.893 32.1561L22.6184 30.1844C22.7632 30.0797 22.965 30.112 23.0698 30.2567C23.1745 30.4014 23.1422 30.603 22.9973 30.7077L20.272 32.6795C20.215 32.721 20.1487 32.741 20.0825 32.741Z" fill="#BDBDBD"/>
<path d="M13.9631 39.4706C13.8938 39.4706 13.8229 39.4475 13.7644 39.4028C13.6242 39.2935 13.598 39.0904 13.7089 38.9487L15.7795 36.2982C15.8889 36.1581 16.0922 36.132 16.234 36.2428C16.3742 36.3521 16.4004 36.5552 16.2894 36.6968L14.2188 39.3474C14.1557 39.429 14.0602 39.4721 13.9631 39.4721V39.4706Z" fill="#BDBDBD"/>
<path d="M12.7414 38.2053C12.6412 38.2053 12.5426 38.1591 12.4795 38.0714C12.3747 37.9267 12.4071 37.7251 12.5519 37.6204L15.2773 35.6486C15.4221 35.544 15.6239 35.5763 15.7287 35.721C15.8334 35.8657 15.8011 36.0673 15.6562 36.172L12.9309 38.1437C12.8739 38.1853 12.8076 38.2053 12.7414 38.2053Z" fill="#BDBDBD"/>
<path d="M20.728 34.1233C20.5662 34.1233 20.4276 34.0032 20.4076 33.84C20.386 33.663 20.5123 33.5014 20.6895 33.4799L24.0296 33.0689C24.2067 33.0458 24.3685 33.1735 24.3901 33.3506C24.4116 33.5276 24.2853 33.6892 24.1081 33.7107L20.7681 34.1217C20.7542 34.1233 20.7419 34.1248 20.728 34.1248V34.1233Z" fill="#BDBDBD"/>
<path d="M23.9649 35.4147C23.9479 35.4147 23.931 35.4147 23.914 35.4101L20.5909 34.879C20.4137 34.8513 20.2935 34.6851 20.3228 34.5081C20.3505 34.3326 20.5169 34.211 20.6941 34.2402L24.0172 34.7713C24.1944 34.799 24.3146 34.9652 24.2853 35.1422C24.2591 35.3008 24.122 35.4147 23.9664 35.4147H23.9649Z" fill="#BDBDBD"/>
<path d="M11.6244 35.3762C11.4627 35.3762 11.324 35.2561 11.304 35.093C11.2824 34.916 11.4087 34.7543 11.5859 34.7328L14.926 34.3218C15.1032 34.2987 15.2649 34.4265 15.2865 34.6035C15.3081 34.7805 15.1817 34.9421 15.0046 34.9637L11.6645 35.3746C11.6506 35.3762 11.6383 35.3777 11.6244 35.3777V35.3762Z" fill="#BDBDBD"/>
<path d="M14.9075 34.0925C14.8906 34.0925 14.8736 34.0925 14.8567 34.0879L11.5335 33.5568C11.3564 33.5291 11.2362 33.3629 11.2655 33.1859C11.2932 33.0104 11.4596 32.8888 11.6367 32.918L14.9599 33.4491C15.1371 33.4768 15.2572 33.643 15.228 33.82C15.2018 33.9786 15.0646 34.0925 14.909 34.0925H14.9075Z" fill="#BDBDBD"/>
<path d="M22.7863 38.3377C22.717 38.3377 22.6461 38.3161 22.5875 38.2699L19.9346 36.2012C19.7944 36.0919 19.7682 35.8888 19.8791 35.7471C19.9885 35.6071 20.1919 35.5809 20.3336 35.6917L22.9866 37.7605C23.1268 37.8697 23.153 38.0729 23.042 38.2145C22.9789 38.2961 22.8833 38.3392 22.7863 38.3392V38.3377Z" fill="#BDBDBD"/>
<path d="M21.5091 39.4675C21.409 39.4675 21.3104 39.4213 21.2472 39.3336L19.2736 36.6107C19.1689 36.466 19.2012 36.2643 19.3461 36.1597C19.4909 36.055 19.6927 36.0873 19.7975 36.232L21.771 38.9549C21.8758 39.0996 21.8434 39.3012 21.6986 39.4059C21.6416 39.4475 21.5753 39.4675 21.5091 39.4675Z" fill="#BDBDBD"/>
<path d="M15.4637 32.7918C15.3943 32.7918 15.3235 32.7687 15.2649 32.7241L12.612 30.6554C12.4718 30.5461 12.4456 30.3429 12.5565 30.2013C12.6659 30.0612 12.8693 30.0351 13.011 30.1459L15.664 32.2146C15.8041 32.3239 15.8303 32.5271 15.7194 32.6687C15.6562 32.7503 15.5607 32.7934 15.4637 32.7934V32.7918Z" fill="#BDBDBD"/>
<path d="M16.0399 32.1346C15.9397 32.1346 15.8411 32.0884 15.778 32.0007L13.8044 29.2778C13.6996 29.1331 13.732 28.9314 13.8768 28.8268C14.0216 28.7221 14.2235 28.7544 14.3282 28.8991L16.3018 31.622C16.4065 31.7667 16.3742 31.9683 16.2294 32.073C16.1724 32.1146 16.1061 32.1346 16.0399 32.1346Z" fill="#BDBDBD"/>
<path d="M96.4869 43C94.5303 43 92.6399 42.3535 91.0731 41.1314C89.2136 39.6814 88.0304 37.5958 87.7423 35.2577C87.4542 32.9196 88.0935 30.6076 89.5448 28.7513C90.9961 26.8935 93.0836 25.7113 95.4239 25.4235C97.7641 25.1341 100.078 25.7745 101.936 27.2244C103.796 28.6744 104.979 30.76 105.267 33.0981C105.863 37.9252 102.417 42.3381 97.5854 42.9323C97.2187 42.9769 96.8505 43 96.4869 43ZM96.5208 26.0023C96.1834 26.0023 95.8429 26.0238 95.5024 26.0654C93.3332 26.3332 91.3982 27.4276 90.0532 29.15C88.7083 30.8709 88.1151 33.0135 88.3832 35.1807C88.6513 37.3479 89.7466 39.2812 91.4706 40.625C93.193 41.9687 95.336 42.5613 97.5068 42.2935C101.984 41.7409 105.178 37.6527 104.626 33.1797C104.358 31.0125 103.263 29.0792 101.539 27.7354C100.086 26.6026 98.3357 26.0038 96.5208 26.0038V26.0023Z" fill="#BDBDBD"/>
<path d="M96.49 40.8451C95.011 40.8451 93.5828 40.3571 92.3981 39.4336C90.993 38.3377 90.0994 36.7615 89.8807 34.9945C89.6619 33.2274 90.1457 31.4804 91.2426 30.0766C92.3395 28.6728 93.9171 27.7801 95.6858 27.5615C97.4544 27.3429 99.203 27.8263 100.608 28.9222C102.013 30.0181 102.907 31.5943 103.125 33.3613C103.575 37.0093 100.972 40.3448 97.3204 40.7943C97.0431 40.8282 96.7658 40.8451 96.49 40.8451ZM96.5085 28.1572C96.2635 28.1572 96.0155 28.1726 95.7659 28.2034C94.1683 28.4004 92.7432 29.2069 91.7525 30.4753C90.7619 31.7436 90.3259 33.3198 90.5231 34.916C90.7203 36.5121 91.5276 37.9359 92.7971 38.9257C94.0666 39.9154 95.6442 40.351 97.2418 40.154C100.539 39.7476 102.891 36.7369 102.485 33.4414C102.109 30.3952 99.505 28.1572 96.5085 28.1572Z" fill="#BDBDBD"/>
<path d="M96.5023 35.9503C95.6195 35.9503 94.8538 35.2915 94.7429 34.3957C94.6844 33.9262 94.8138 33.4614 95.105 33.0889C95.3961 32.7164 95.8152 32.4778 96.2866 32.4209C96.7565 32.3624 97.2218 32.4917 97.5946 32.7826C97.9674 33.0735 98.2062 33.4922 98.2633 33.9632C98.3218 34.4326 98.1924 34.8975 97.9012 35.27C97.61 35.6425 97.191 35.8811 96.7195 35.938C96.6456 35.9472 96.5732 35.9519 96.5008 35.9519L96.5023 35.9503ZM96.5069 33.0519C96.4607 33.0519 96.413 33.055 96.3667 33.0612C96.0679 33.0981 95.8013 33.249 95.6165 33.486C95.4316 33.7231 95.3499 34.0186 95.3869 34.3157C95.4624 34.9314 96.0247 35.3716 96.6425 35.2946C96.9414 35.2577 97.2079 35.1068 97.3928 34.8698C97.5777 34.6327 97.6593 34.3372 97.6223 34.0401C97.5854 33.7415 97.4344 33.4752 97.1971 33.2905C96.9969 33.1351 96.7565 33.0519 96.5069 33.0519Z" fill="#BDBDBD"/>
<path d="M96.5023 37.3833C94.9062 37.3833 93.5197 36.192 93.3194 34.5696C93.1021 32.8149 94.3547 31.2126 96.111 30.9955C96.9614 30.8909 97.8026 31.1233 98.4774 31.6497C99.1537 32.1761 99.5836 32.935 99.6883 33.7846C99.9056 35.5393 98.653 37.1417 96.8967 37.3587C96.7642 37.3757 96.6317 37.3833 96.5008 37.3833H96.5023ZM96.51 31.6189C96.4037 31.6189 96.2974 31.6251 96.1911 31.6389C94.7891 31.8113 93.7893 33.092 93.9618 34.4927C94.1344 35.8934 95.4146 36.8908 96.8181 36.7199C98.2201 36.5475 99.22 35.2669 99.0474 33.8662C98.9642 33.1874 98.6207 32.5825 98.0815 32.1623C97.627 31.8082 97.0785 31.6205 96.51 31.6205V31.6189Z" fill="#BDBDBD"/>
<path d="M96.0863 31.6081C95.9246 31.6081 95.7859 31.4881 95.7659 31.3249L95.3545 27.9879C95.333 27.8109 95.4593 27.6492 95.6365 27.6277C95.8137 27.6046 95.9754 27.7324 95.997 27.9094L96.4083 31.2464C96.4299 31.4234 96.3036 31.5851 96.1264 31.6066C96.1125 31.6081 96.1002 31.6097 96.0863 31.6097V31.6081Z" fill="#BDBDBD"/>
<path d="M96.9029 31.6235C96.8859 31.6235 96.869 31.6235 96.852 31.6189C96.6749 31.5912 96.5547 31.425 96.584 31.248L97.1155 27.9278C97.1432 27.7524 97.3096 27.6308 97.4868 27.66C97.6639 27.6877 97.7841 27.854 97.7548 28.031L97.2233 31.3511C97.1971 31.5096 97.06 31.6235 96.9044 31.6235H96.9029Z" fill="#BDBDBD"/>
<path d="M97.3389 40.7035C97.1771 40.7035 97.0385 40.5834 97.0184 40.4203L96.6071 37.0832C96.5855 36.9062 96.7118 36.7446 96.889 36.723C97.0677 36.6999 97.2279 36.8277 97.2495 37.0047L97.6609 40.3418C97.6824 40.5188 97.5561 40.6804 97.3789 40.7019C97.3651 40.7035 97.3527 40.705 97.3389 40.705V40.7035Z" fill="#BDBDBD"/>
<path d="M95.5795 40.6712C95.5625 40.6712 95.5456 40.6712 95.5286 40.6665C95.3515 40.6388 95.2328 40.4726 95.2606 40.2956L95.7921 36.9755C95.8198 36.8 95.9862 36.6784 96.1634 36.7076C96.3405 36.7353 96.4592 36.9016 96.4314 37.0786L95.8999 40.3987C95.8737 40.5572 95.7366 40.6712 95.581 40.6712H95.5795Z" fill="#BDBDBD"/>
<path d="M98.2478 32.1546C98.1785 32.1546 98.1076 32.133 98.0491 32.0868C97.9089 31.9776 97.8827 31.7744 97.9936 31.6328L100.064 28.9822C100.174 28.8421 100.377 28.816 100.519 28.9268C100.659 29.0361 100.685 29.2393 100.574 29.3809L98.5036 32.0314C98.4404 32.113 98.3449 32.1561 98.2478 32.1561V32.1546Z" fill="#BDBDBD"/>
<path d="M98.8148 32.741C98.7147 32.741 98.6161 32.6948 98.5529 32.6071C98.4481 32.4624 98.4805 32.2608 98.6253 32.1561L101.351 30.1844C101.495 30.0797 101.697 30.112 101.802 30.2567C101.907 30.4014 101.874 30.603 101.73 30.7077L99.0043 32.6795C98.9473 32.721 98.881 32.741 98.8148 32.741Z" fill="#BDBDBD"/>
<path d="M92.697 39.4706C92.6276 39.4706 92.5568 39.449 92.4982 39.4028C92.358 39.2935 92.3318 39.0904 92.4427 38.9487L94.5134 36.2982C94.6227 36.1581 94.8261 36.132 94.9678 36.2428C95.108 36.3521 95.1342 36.5552 95.0233 36.6968L92.9527 39.3474C92.8895 39.429 92.794 39.4721 92.697 39.4721V39.4706Z" fill="#BDBDBD"/>
<path d="M91.4752 38.2053C91.3751 38.2053 91.2765 38.1591 91.2133 38.0714C91.1086 37.9267 91.1409 37.7251 91.2857 37.6204L94.0111 35.6486C94.1559 35.544 94.3578 35.5763 94.4625 35.721C94.5673 35.8657 94.5349 36.0673 94.3901 36.172L91.6647 38.1437C91.6077 38.1853 91.5415 38.2053 91.4752 38.2053Z" fill="#BDBDBD"/>
<path d="M99.4603 34.1233C99.2986 34.1233 99.1599 34.0032 99.1399 33.84C99.1183 33.663 99.2446 33.5014 99.4218 33.4799L102.762 33.0689C102.941 33.0458 103.101 33.1735 103.122 33.3506C103.144 33.5276 103.018 33.6892 102.84 33.7107L99.5004 34.1217C99.4865 34.1233 99.4742 34.1248 99.4603 34.1248V34.1233Z" fill="#BDBDBD"/>
<path d="M102.697 35.4147C102.68 35.4147 102.663 35.4147 102.646 35.4101L99.3232 34.879C99.146 34.8513 99.0259 34.6851 99.0551 34.5081C99.0829 34.3326 99.2493 34.211 99.4264 34.2402L102.75 34.7713C102.927 34.799 103.047 34.9652 103.018 35.1422C102.991 35.3008 102.854 35.4147 102.699 35.4147H102.697Z" fill="#BDBDBD"/>
<path d="M90.3567 35.3762C90.195 35.3762 90.0563 35.2561 90.0363 35.093C90.0147 34.916 90.1411 34.7543 90.3182 34.7328L93.6583 34.3218C93.8355 34.2987 93.9973 34.4265 94.0188 34.6035C94.0404 34.7805 93.9141 34.9421 93.7369 34.9637L90.3968 35.3746C90.3829 35.3762 90.3706 35.3777 90.3567 35.3777V35.3762Z" fill="#BDBDBD"/>
<path d="M93.6398 34.0925C93.6229 34.0925 93.6059 34.0925 93.589 34.0879L90.2658 33.5568C90.0887 33.5291 89.9685 33.3629 89.9978 33.1859C90.0255 33.0104 90.1904 32.8888 90.3691 32.918L93.6922 33.4491C93.8694 33.4768 93.9895 33.643 93.9603 33.82C93.9341 33.9786 93.797 34.0925 93.6414 34.0925H93.6398Z" fill="#BDBDBD"/>
<path d="M101.519 38.3377C101.449 38.3377 101.378 38.3161 101.32 38.2699L98.6669 36.2012C98.5267 36.0919 98.5005 35.8888 98.6114 35.7471C98.7208 35.6071 98.9242 35.5809 99.0659 35.6917L101.719 37.7605C101.859 37.8697 101.885 38.0729 101.774 38.2145C101.711 38.2961 101.616 38.3392 101.519 38.3392V38.3377Z" fill="#BDBDBD"/>
<path d="M100.241 39.4675C100.141 39.4675 100.043 39.4213 99.9795 39.3336L98.006 36.6107C97.9012 36.466 97.9335 36.2643 98.0784 36.1597C98.2232 36.055 98.425 36.0873 98.5298 36.232L100.503 38.9549C100.608 39.0996 100.576 39.3012 100.431 39.4059C100.374 39.4475 100.308 39.4675 100.241 39.4675Z" fill="#BDBDBD"/>
<path d="M94.196 32.7918C94.1267 32.7918 94.0558 32.7687 93.9972 32.7241L91.3443 30.6554C91.2041 30.5461 91.1779 30.3429 91.2888 30.2013C91.3982 30.0612 91.6016 30.0351 91.7433 30.1459L94.3963 32.2146C94.5365 32.3239 94.5627 32.5271 94.4517 32.6687C94.3886 32.7503 94.293 32.7934 94.196 32.7934V32.7918Z" fill="#BDBDBD"/>
<path d="M94.7722 32.1346C94.672 32.1346 94.5734 32.0884 94.5103 32.0007L92.5367 29.2778C92.432 29.1331 92.4643 28.9314 92.6091 28.8268C92.754 28.7221 92.9558 28.7544 93.0605 28.8991L95.0341 31.622C95.1389 31.7667 95.1065 31.9683 94.9617 32.073C94.9047 32.1146 94.8384 32.1346 94.7722 32.1346Z" fill="#BDBDBD"/>
<path d="M28.2355 38.1299H25.5178C25.3391 38.1299 25.1943 37.9852 25.1943 37.8066C25.1943 37.6281 25.3391 37.4834 25.5178 37.4834H28.2355C28.4142 37.4834 28.559 37.6281 28.559 37.8066C28.559 37.9852 28.4142 38.1299 28.2355 38.1299Z" fill="#BDBDBD"/>
<path d="M0.963267 29.7903C0.852342 29.7903 0.744498 29.7334 0.684413 29.6318C0.593516 29.4779 0.644357 29.2793 0.79842 29.1885C5.74538 26.2593 9.10549 23.8227 10.204 22.656C7.53867 23.3625 3.23878 23.5734 3.03849 23.5841C2.8567 23.5934 2.7088 23.4548 2.69956 23.2763C2.69185 23.0977 2.82897 22.9469 3.00768 22.9377C3.0616 22.9346 8.42145 22.6714 10.8048 21.794C10.908 21.7555 11.0251 21.7725 11.1129 21.8402C11.2007 21.9064 11.2485 22.0141 11.2393 22.1249C11.2131 22.4328 11.1453 23.2501 6.07045 26.6333C3.61931 28.268 1.15276 29.7303 1.12811 29.7457C1.07573 29.7765 1.02027 29.7903 0.963267 29.7903Z" fill="#BDBDBD"/>
<path d="M5.23389 26.8165C5.20462 26.8165 5.17535 26.8119 5.14608 26.8042C4.97353 26.7565 4.87338 26.5779 4.92114 26.4055L5.88096 22.9792C5.92872 22.8068 6.10743 22.7068 6.27998 22.7545C6.45253 22.8022 6.55267 22.9807 6.50491 23.1531L5.5451 26.5795C5.50504 26.7226 5.37563 26.815 5.23389 26.815V26.8165Z" fill="#BDBDBD"/>
<path d="M30.6728 13.7746C30.5356 13.7746 30.4124 13.6884 30.3677 13.5576C30.3215 13.4267 30.3662 13.2805 30.4756 13.1943C30.8314 12.9219 31.1442 12.7341 31.4462 12.554C31.7235 12.3877 31.9854 12.2323 32.2827 12.0106C32.426 11.9044 32.6294 11.9337 32.7357 12.0768C32.842 12.22 32.8127 12.4232 32.6694 12.5294C32.3459 12.771 32.0578 12.9434 31.7774 13.1097C31.7774 13.1097 31.7759 13.1097 31.7743 13.1112L109.806 11.9691C109.531 10.5022 108.285 5.04561 104.803 3.92043C96.3359 2.32579 80.6616 2.295 68.9975 2.54898C56.9081 2.81218 46.5243 3.42942 45.5229 3.48945C44.9498 3.8327 40.767 6.36166 35.4472 10.2036C35.3024 10.3082 35.1005 10.2759 34.9958 10.1312C34.891 9.98655 34.9234 9.78491 35.0682 9.68024C40.7947 5.54278 45.2163 2.91993 45.2594 2.89376C45.3026 2.8676 45.3534 2.8522 45.4043 2.84913C45.8341 2.82296 88.6543 0.21396 104.942 3.28935C104.954 3.29243 104.968 3.2955 104.98 3.29858C109.394 4.70082 110.465 11.9337 110.508 12.2415C110.52 12.3339 110.494 12.4262 110.434 12.497C110.374 12.5678 110.286 12.6094 110.192 12.6094L30.6774 13.7731C30.6774 13.7731 30.6743 13.7731 30.6728 13.7731V13.7746Z" fill="#BDBDBD"/>
<path d="M16.3634 14.3179C16.1847 14.3179 16.0399 14.1733 16.0399 13.9947C16.0399 13.8162 16.1847 13.6715 16.3634 13.6715C16.405 13.6715 20.5786 13.6653 24.9663 13.1651C25.5887 12.7679 26.3544 12.2677 27.2387 11.692C32.1826 8.46732 40.4588 3.06924 45.1192 1.49306C45.2887 1.43611 45.472 1.52693 45.5291 1.69624C45.5861 1.86556 45.4952 2.04873 45.3257 2.10568C40.7423 3.65568 32.5107 9.02607 27.5915 12.2338C26.6764 12.831 25.886 13.3467 25.2513 13.7515C25.2097 13.7777 25.1635 13.7946 25.1142 13.8008C20.6618 14.3149 16.4065 14.3195 16.3634 14.3195V14.3179Z" fill="#BDBDBD"/>
<path d="M110.317 38.0652H107.348C107.271 38.0652 107.197 38.0375 107.139 37.9883L106.228 37.2125C106.131 37.1309 106.093 36.9985 106.128 36.8769C106.521 35.5116 106.61 34.1017 106.392 32.6841C106.011 30.2182 104.705 28.011 102.711 26.4687C100.717 24.9263 98.2525 24.2121 95.7674 24.46C93.1222 24.7232 90.7542 26.0084 89.0981 28.0802C87.4403 30.152 86.707 32.7426 87.0321 35.3731C87.0952 35.878 87.1984 36.3844 87.3386 36.8769C87.3648 36.9693 87.3494 37.0678 87.2955 37.1463L86.7732 37.9221C86.7132 38.0114 86.613 38.0652 86.5052 38.0652H28.388C28.311 38.0652 28.237 38.0375 28.1785 37.9883L27.268 37.2125C27.1709 37.1309 27.1324 36.9985 27.1663 36.8769C27.5591 35.5116 27.6485 34.1017 27.4297 32.6841C27.0492 30.2182 25.7427 28.011 23.7492 26.4687C21.7571 24.9263 19.2906 24.2121 16.8056 24.46C14.1618 24.7232 11.7924 26.0084 10.1362 28.0802C8.47846 30.152 7.74512 32.7426 8.07019 35.3731C8.12565 35.8195 8.21347 36.2674 8.33056 36.7061H9.62315C9.80186 36.7061 9.94668 36.8508 9.94668 37.0293C9.94668 37.2079 9.80186 37.3526 9.62315 37.3526H3.79957C3.66707 37.3526 3.54844 37.2725 3.49914 37.1494L0.522647 29.7164C0.501078 29.661 0.494916 29.601 0.50416 29.5425L0.642816 28.7144C1.06957 26.1608 2.11566 23.715 3.67015 21.6447C3.6871 21.6216 3.70713 21.6016 3.7287 21.5847C3.76567 21.5554 7.52019 18.6155 14.4684 14.6889C20.8759 11.0686 31.3938 5.83986 45.1254 1.48998C45.1485 1.48229 45.1732 1.47767 45.1978 1.47613C45.3072 1.4669 56.3597 0.598768 69.5921 0.198568C81.8139 -0.170848 98.4543 -0.203172 108.31 1.73934C108.377 1.75319 108.441 1.7886 108.487 1.83939C112.882 6.7049 115.099 14.7351 116.184 20.6165C117.356 26.9689 117.498 32.2515 117.5 32.3039C117.501 32.3808 117.476 32.4547 117.429 32.5148L114.193 36.5229C114.158 36.566 114.112 36.5999 114.059 36.6214L110.436 38.0437C110.399 38.0591 110.357 38.0668 110.317 38.0668V38.0652ZM107.469 37.4188H110.257L113.743 36.0504L116.849 32.2023C116.822 31.3911 116.614 26.5056 115.546 20.7242C114.481 14.9613 112.325 7.1128 108.079 2.35349C98.2679 0.443306 81.757 0.478708 69.6106 0.845045C56.7756 1.23293 45.9989 2.06258 45.2856 2.11799C37.7396 4.50996 26.339 8.72592 14.8027 15.243C8.23504 18.9526 4.54523 21.7725 4.16315 22.068C2.68415 24.049 1.6889 26.384 1.28218 28.8221L1.15893 29.561L4.01988 36.7076H7.66346C7.56024 36.2936 7.48167 35.8734 7.42929 35.4532C7.08265 32.6471 7.86529 29.8857 9.63239 27.6769C11.3995 25.4697 13.9246 24.0982 16.7439 23.8181C19.3938 23.5533 22.0237 24.3137 24.1482 25.9592C26.2727 27.6031 27.6655 29.9581 28.0706 32.5871C28.2925 34.0278 28.217 35.4624 27.8457 36.8554L28.5082 37.4203H86.3342L86.6762 36.9108C86.5468 36.4321 86.4497 35.9426 86.3896 35.4547C86.043 32.6487 86.8256 29.8873 88.5927 27.6785C90.3598 25.4712 92.8849 24.0998 95.7043 23.8196C98.3541 23.5549 100.984 24.3153 103.109 25.9607C105.233 27.6046 106.626 29.9596 107.031 32.5886C107.253 34.0294 107.177 35.4639 106.806 36.8569L107.469 37.4218V37.4188Z" fill="#BDBDBD"/>
<path d="M88.6713 38.1299H86.3419C86.1631 38.1299 86.0183 37.9852 86.0183 37.8066C86.0183 37.6281 86.1631 37.4834 86.3419 37.4834H88.6713C88.85 37.4834 88.9948 37.6281 88.9948 37.8066C88.9948 37.9852 88.85 38.1299 88.6713 38.1299Z" fill="#BDBDBD"/>
<path d="M107.177 38.1299H104.201C104.022 38.1299 103.877 37.9852 103.877 37.8066C103.877 37.6281 104.022 37.4834 104.201 37.4834H107.177C107.356 37.4834 107.501 37.6281 107.501 37.8066C107.501 37.9852 107.356 38.1299 107.177 38.1299Z" fill="#BDBDBD"/>
<path d="M61.3005 13.1112C61.1218 13.1112 60.9769 12.9665 60.9769 12.788V2.5736C60.9769 2.39505 61.1218 2.25036 61.3005 2.25036C61.4792 2.25036 61.624 2.39505 61.624 2.5736V12.788C61.624 12.9665 61.4792 13.1112 61.3005 13.1112Z" fill="#BDBDBD"/>
<path d="M63.4697 13.1112C63.2987 13.1112 63.1554 12.9773 63.1461 12.8049L62.6285 2.46124C62.6193 2.28269 62.7564 2.13184 62.9351 2.12261C63.1153 2.11337 63.2648 2.25036 63.274 2.42892L63.7917 12.7726C63.8009 12.9511 63.6638 13.102 63.4851 13.1112C63.4789 13.1112 63.4743 13.1112 63.4681 13.1112H63.4697Z" fill="#BDBDBD"/>
<path d="M86.1477 12.8526C85.969 12.8526 85.8242 12.7079 85.8242 12.5294V2.5736C85.8242 2.39505 85.969 2.25036 86.1477 2.25036C86.3265 2.25036 86.4713 2.39505 86.4713 2.5736V12.5294C86.4713 12.7079 86.3265 12.8526 86.1477 12.8526Z" fill="#BDBDBD"/>
<path d="M88.3169 12.8203C88.1459 12.8203 88.0027 12.6864 87.9934 12.514L87.4758 2.4597C87.4665 2.28115 87.6036 2.12877 87.7823 2.12107C87.9626 2.11183 88.1136 2.24883 88.1228 2.42738L88.6405 12.4816C88.6497 12.6602 88.5126 12.8126 88.3339 12.8203C88.3277 12.8203 88.3231 12.8203 88.3169 12.8203Z" fill="#BDBDBD"/>
<path d="M59.5703 33.0874H30.7282C30.568 33.0874 30.4324 32.9704 30.4078 32.8118C30.397 32.741 29.3216 25.6144 27.5114 20.3856C26.8119 18.3646 27.3697 16.105 28.9319 14.6258C30.1721 13.4514 30.4509 13.2143 30.4632 13.2051C30.5988 13.0896 30.8037 13.1066 30.9193 13.242C31.0348 13.3775 31.0179 13.5822 30.8823 13.6976C30.8715 13.7069 30.5942 13.9439 29.3786 15.0953C27.9998 16.399 27.5083 18.3923 28.1246 20.1747C29.7515 24.874 30.7883 31.071 31.0071 32.4424H59.5719C60.9369 32.4424 62.0477 31.3326 62.0477 29.9689V13.0481C62.0477 12.8695 62.1925 12.7248 62.3712 12.7248C62.5499 12.7248 62.6947 12.8695 62.6947 13.0481V29.9689C62.6947 31.6897 61.2943 33.0889 59.5719 33.0889L59.5703 33.0874Z" fill="#BDBDBD"/>
<path d="M80.7401 33.0874H59.5873C59.4086 33.0874 59.2638 32.9427 59.2638 32.7641C59.2638 32.5856 59.4086 32.4409 59.5873 32.4409H80.7401C82.0312 32.4409 83.162 31.5158 83.4255 30.2428C83.8322 28.2865 84.9306 26.6888 85.7795 25.6929C86.4143 24.9479 86.764 23.9951 86.764 23.0069V12.788C86.764 12.6094 86.9088 12.4647 87.0875 12.4647C87.2662 12.4647 87.4111 12.6094 87.4111 12.788V23.0069C87.4111 24.1475 87.0059 25.2511 86.2725 26.1115C85.4729 27.0489 84.4392 28.5512 84.0602 30.3737C83.7336 31.9452 82.3378 33.0874 80.7401 33.0874Z" fill="#BDBDBD"/>
<path d="M58.4673 16.7053C58.3394 16.7053 58.2177 16.6283 58.1668 16.5021L57.982 16.0403L53.7606 16.4298C53.5835 16.4467 53.4248 16.3159 53.4094 16.1373C53.3924 15.9588 53.5234 15.8018 53.7021 15.7864L58.1638 15.3754C58.307 15.3615 58.4411 15.4447 58.4934 15.577L58.7677 16.262C58.8339 16.4282 58.7538 16.616 58.5874 16.6822C58.5474 16.6976 58.5073 16.7053 58.4673 16.7053Z" fill="#BDBDBD"/>
<path d="M84.091 16.7053C83.9631 16.7053 83.8414 16.6283 83.7906 16.5021L83.6057 16.0403L79.3844 16.4298C79.2088 16.4467 79.0485 16.3159 79.0331 16.1373C79.0162 15.9588 79.1471 15.8018 79.3258 15.7864L83.7875 15.3754C83.9308 15.3615 84.0648 15.4447 84.1172 15.577L84.3914 16.262C84.4577 16.4282 84.3776 16.616 84.2112 16.6822C84.1711 16.6976 84.1311 16.7053 84.091 16.7053Z" fill="#BDBDBD"/>
<path d="M38.5238 13.3359C37.3375 13.3359 36.0881 13.0388 34.8941 12.4493C32.7788 12.0368 31.309 12.5678 31.2952 12.5725C31.1272 12.634 30.9408 12.5494 30.8792 12.3816C30.8176 12.2138 30.9008 12.0291 31.0687 11.966C31.1365 11.9414 32.7357 11.358 35.0636 11.8229C35.0913 11.829 35.119 11.8382 35.1452 11.8506C37.2435 12.8988 39.5083 12.968 41.2014 12.0368C41.9548 11.6228 42.1119 10.8824 42.0087 10.3298C41.9055 9.78029 41.4957 9.15382 40.6514 9.03992C39.3604 8.86599 37.6179 9.34315 35.8739 10.3513C35.8308 10.376 35.783 10.3898 35.7353 10.3944C33.0392 10.5822 32.2396 10.7716 32.2319 10.7731C32.0593 10.8162 31.8837 10.71 31.8406 10.5361C31.7974 10.3637 31.9022 10.1882 32.0763 10.1451C32.1086 10.1374 32.8974 9.94499 35.6166 9.75412C37.487 8.68744 39.3034 8.20719 40.7392 8.3996C41.716 8.53043 42.4647 9.24156 42.645 10.2113C42.8268 11.1856 42.3831 12.1261 41.5142 12.6032C40.6252 13.0927 39.6007 13.3359 38.5269 13.3359H38.5238Z" fill="#BDBDBD"/>
<path d="M4.97507 35.1561H2.86903C2.69031 35.1561 2.54549 35.0114 2.54549 34.8328C2.54549 34.6543 2.69031 34.5096 2.86903 34.5096H4.55139L3.73332 31.4896L0.958645 30.8493C0.784554 30.8093 0.67517 30.6354 0.716767 30.4614C0.756823 30.2875 0.930914 30.1797 1.10501 30.2198L4.06918 30.9032C4.18472 30.9293 4.27716 31.0186 4.30797 31.1341L5.28781 34.7497C5.314 34.8467 5.29398 34.9514 5.23235 35.0314C5.17073 35.1114 5.07675 35.1576 4.97507 35.1576V35.1561Z" fill="#BDBDBD"/>
<path d="M86.2124 36.0611H27.8472C27.6685 36.0611 27.5237 35.9165 27.5237 35.7379C27.5237 35.5594 27.6685 35.4147 27.8472 35.4147H86.2124C86.3912 35.4147 86.536 35.5594 86.536 35.7379C86.536 35.9165 86.3912 36.0611 86.2124 36.0611Z" fill="#BDBDBD"/>
<path d="M111.47 33.3105C108.85 33.3105 106.8 32.9765 106.658 32.9534C106.483 32.9242 106.362 32.758 106.392 32.5809C106.421 32.4055 106.587 32.2854 106.764 32.3147C106.821 32.3239 112.557 33.2567 117.09 31.9991C117.262 31.9514 117.439 32.0514 117.489 32.2238C117.537 32.3962 117.436 32.5732 117.264 32.6225C115.355 33.152 113.278 33.3105 111.471 33.3105H111.47Z" fill="#BDBDBD"/>
<path d="M115.395 38.1299H110.154C109.975 38.1299 109.83 37.9852 109.83 37.8066C109.83 37.6281 109.975 37.4834 110.154 37.4834H115.072V36.7076H113.777C113.599 36.7076 113.454 36.5629 113.454 36.3844C113.454 36.2058 113.599 36.0611 113.777 36.0611H115.395C115.574 36.0611 115.719 36.2058 115.719 36.3844V37.8066C115.719 37.9852 115.574 38.1299 115.395 38.1299Z" fill="#BDBDBD"/>
<path d="M112.647 23.3686C112.551 23.3686 112.459 23.3255 112.397 23.2517C112.328 23.1685 112.306 23.0577 112.335 22.9546L113.177 20.0978L112.069 14.1394C112.05 14.0378 112.081 13.9331 112.152 13.8577L113.619 12.3062C113.742 12.1769 113.947 12.1707 114.076 12.2923C114.206 12.4155 114.212 12.6202 114.089 12.7495L112.734 14.181L113.827 20.0531C113.836 20.1024 113.833 20.1547 113.819 20.204L113.092 22.6744L116.065 22.3774C116.244 22.3604 116.401 22.4897 116.42 22.6667C116.438 22.8438 116.307 23.0023 116.13 23.0208L112.679 23.3656C112.668 23.3656 112.657 23.3671 112.647 23.3671V23.3686Z" fill="#BDBDBD"/>
<path d="M113.509 20.4379C113.354 20.4379 113.215 20.324 113.19 20.1655C113.163 19.9885 113.283 19.8238 113.458 19.7945L115.615 19.4497C115.791 19.422 115.957 19.5421 115.987 19.7176C116.014 19.8946 115.894 20.0593 115.719 20.0885L113.562 20.4333C113.545 20.4364 113.528 20.4379 113.511 20.4379H113.509Z" fill="#BDBDBD"/>
<path d="M103.588 12.6802C103.431 12.6802 103.292 12.5648 103.269 12.4047C102.928 10.1128 101.56 3.35246 101.546 3.28473C101.511 3.10926 101.623 2.93994 101.799 2.90454C101.973 2.86914 102.144 2.9815 102.18 3.15697C102.193 3.2247 103.566 10.0019 103.908 12.3108C103.934 12.4878 103.813 12.651 103.635 12.6787C103.62 12.6817 103.603 12.6817 103.588 12.6817V12.6802Z" fill="#BDBDBD"/>
<path d="M56.6539 13.3698C56.6432 13.3698 56.6324 13.3698 56.6216 13.3682C56.4444 13.3498 56.315 13.1928 56.3319 13.0142C56.3427 12.9049 56.6123 10.3298 57.8479 8.39036C58.9171 6.7126 60.658 6.84036 61.4314 7.14205C61.5978 7.20669 61.6795 7.39448 61.6148 7.56072C61.5501 7.72695 61.3621 7.80853 61.1957 7.74389C61.1218 7.71618 59.4379 7.09587 58.3933 8.73669C57.2425 10.5437 56.9775 13.0527 56.9759 13.0773C56.959 13.2436 56.8188 13.3682 56.6539 13.3682V13.3698Z" fill="#BDBDBD"/>
<path d="M81.3287 12.8526C81.3194 12.8526 81.3102 12.8526 81.3009 12.8526C81.1222 12.8372 80.9913 12.6817 81.0051 12.5032C81.0128 12.4155 81.1992 10.3329 82.4348 8.3919C83.504 6.71414 85.2449 6.8419 86.0183 7.14358C86.1847 7.20823 86.2664 7.39602 86.2017 7.56226C86.137 7.72849 85.949 7.81007 85.7826 7.74542C85.7087 7.71772 84.0248 7.09741 82.9802 8.73823C81.8278 10.5468 81.6506 12.5371 81.6491 12.5571C81.6352 12.7264 81.4935 12.8541 81.3271 12.8541L81.3287 12.8526Z" fill="#BDBDBD"/>
<path d="M99.317 12.8511C99.1599 12.8511 99.0228 12.7372 98.9981 12.5771C98.9858 12.4909 98.6931 10.4514 99.9502 8.47656C101.287 6.37705 102.782 6.94502 102.845 6.97119C103.011 7.03738 103.092 7.22516 103.025 7.3914C102.959 7.5561 102.774 7.63614 102.608 7.57303C102.557 7.55456 101.526 7.20515 100.496 8.82443C99.371 10.5884 99.6344 12.4632 99.6375 12.4816C99.6637 12.6587 99.542 12.8218 99.3648 12.8495C99.3478 12.8526 99.3324 12.8526 99.3155 12.8526L99.317 12.8511Z" fill="#BDBDBD"/>
</g>
</g>
<defs>
<clipPath id="clip0_5058_2669">
<rect width="117" height="43" fill="white" transform="translate(0.5)"/>
</clipPath>
</defs>
</svg>
