<svg width="24" height="24" viewBox="0 0 24 24" fill="none" xmlns="http://www.w3.org/2000/svg">
<g id="icons_24">
<path id="Vector" d="M21.2446 15.9735C21.7283 16.4585 22 17.1156 22 17.8006C22 18.4856 21.7283 19.1427 21.2446 19.6278L20.485 20.5034C13.6482 27.0483 -2.98861 10.4168 3.45576 3.55889L4.41574 2.72419C4.90138 2.25398 5.55263 1.99386 6.2286 2.00011C6.90457 2.00636 7.5509 2.27847 8.02777 2.75758C8.05365 2.78345 9.60046 4.79258 9.60046 4.79258C10.0594 5.27473 10.3149 5.9152 10.3139 6.58086C10.3128 7.24651 10.0552 7.88614 9.59462 8.36679L8.62796 9.58212C9.16292 10.8818 9.94945 12.0631 10.9424 13.0579C11.9353 14.0527 13.115 14.8416 14.4137 15.3791L15.6366 14.4067C16.1174 13.9466 16.7569 13.6893 17.4225 13.6883C18.088 13.6874 18.7282 13.9429 19.2103 14.4017C19.2103 14.4017 21.2187 15.9476 21.2446 15.9735ZM20.096 17.1871C20.096 17.1871 18.0984 15.6504 18.0725 15.6245C17.9005 15.454 17.6681 15.3584 17.426 15.3584C17.1838 15.3584 16.9514 15.454 16.7794 15.6245C16.7569 15.6479 15.0732 16.9893 15.0732 16.9893C14.9597 17.0796 14.8247 17.1388 14.6814 17.161C14.5381 17.1833 14.3914 17.1678 14.2559 17.1162C12.5734 16.4898 11.0452 15.5091 9.77479 14.2407C8.50436 12.9722 7.5214 11.4455 6.89249 9.76409C6.83672 9.62674 6.81855 9.47702 6.83982 9.33032C6.86109 9.18362 6.92105 9.04523 7.01353 8.92938C7.01353 8.92938 8.355 7.24495 8.37753 7.22324C8.54805 7.05128 8.64372 6.81893 8.64372 6.57677C8.64372 6.3346 8.54805 6.10225 8.37753 5.93029C8.35166 5.90525 6.81486 3.90613 6.81486 3.90613C6.64031 3.74963 6.4125 3.66581 6.17814 3.67187C5.94377 3.67792 5.7206 3.77338 5.55436 3.93868L4.59438 4.77339C-0.115356 10.436 14.3019 24.0526 19.2645 19.3632L20.025 18.4867C20.2032 18.3217 20.3102 18.0938 20.3235 17.8513C20.3367 17.6088 20.2551 17.3706 20.096 17.1871Z" fill="#FF2919"/>
</g>
</svg>
